<?xml version="1.0" encoding="utf-8"?>
<!-- Generator: Adobe Illustrator 22.1.0, SVG Export Plug-In . SVG Version: 6.00 Build 0)  -->
<svg version="1.1" baseProfile="basic" id="Layer_1"
	 xmlns="http://www.w3.org/2000/svg" xmlns:xlink="http://www.w3.org/1999/xlink" x="0px" y="0px" viewBox="0 0 314.8 63"
	 xml:space="preserve">
<path d="M295.5,25.2l4.9-17.9h0.1l4.8,17.9H295.5z M298.4,2.6L288,38.5h3.9l2.5-9.4h11.8l2.5,9.4h4.1L302.7,2.6H298.4z M282.3,38.5
	h3.9V2.6h-3.9V38.5z M261.8,6.5h2.4c3.8,0.1,6.5,1.4,8.1,3.9c1.6,2.5,2.3,5.7,2.3,9.6c0,9.6-3.5,14.5-10.4,14.6h-2.4V6.5z
	 M257.9,38.5h4.8c5.8-0.1,9.9-1.9,12.4-5.4c2.4-3.4,3.6-7.8,3.6-13.1c0-4.1-0.6-7.3-1.8-9.6c-1.2-2.4-2.5-4.1-4-5.2
	c-0.9-0.8-1.9-1.4-3.2-1.9c-1.3-0.5-3-0.7-5.1-0.7h-6.8V38.5z M232.6,38.5h3.7V9.1h0.1l11.7,29.4h4.9V2.6h-3.7v29.6h-0.1L237.4,2.6
	h-4.8V38.5z M223.8,38.5h3.9V2.6h-3.9V38.5z M189.8,38.5H210v-7.1h-11.8v-7.7h10.7v-7.1h-10.7V9.7h11.2V2.6h-19.7V38.5z M166.3,37.7
	c1.6,0.5,4.7,1.4,8.6,1.4c7.5,0,12.6-4,12.6-11.9c0-5.3-2.5-7.6-5.4-9.1l-3.9-2c-2.9-1.4-3.7-2.3-3.7-4.1c0-2.2,1.6-3.4,4.1-3.4
	c2.5,0,5.1,0.9,6.6,1.8l0.4-7C183,2.3,180,2,177.5,2c-6.8,0-11.7,3.9-11.7,10.6c0,5.1,1.6,8.3,6.9,10.6l1.9,0.8
	c2.5,1.1,3.9,1.7,3.9,4.1c0,2.3-1.1,3.9-4.4,3.9c-3.1,0-6.2-1.5-7.3-2.2L166.3,37.7z M154.9,38.5h8.6V2.6h-8.6V38.5z M143,38.5h8.6
	V2.6H143v13.8h-6.7V2.6h-8.6v35.9h8.6V23.9h6.7V38.5z M125.5,29.4c-0.8,0.6-3.1,2-6.2,2c-5.4,0-8.5-4.7-8.5-10.9c0-7,2.6-11,8.1-11
	c2.7,0,5.2,1.4,6.3,2.1l0.5-7.9C124.9,3.3,122.1,2,118,2c-10.5,0-16,7.7-16,18.3c0,12.6,6.7,18.8,16,18.8c2.4,0,5.2-0.5,7.9-1.4
	L125.5,29.4z M89.8,38.5h10.1V2.6h-7.5v24.7h-0.1L83.9,2.6h-10v35.9h7.5V13.6h0.2L89.8,38.5z M61.3,24H55l3.4-14.1h0.1L61.3,24z
	 M64.7,38.5h8.9L63.4,2.6h-9.5L43.2,38.5h8.3l2.1-7.6H63L64.7,38.5z M35.5,38.5h8.9l-2.9-11.2c-1.3-5-2.5-6-4.3-6.6v-0.2
	c2.8-0.8,6.2-2.9,6.2-8.2c0-6.6-3.7-9.7-10.2-9.7H20.4v35.9h8.6v-14h0.5c1.4,0,2.8,0.4,3.6,3.9L35.5,38.5z M28.7,17.6V9.5h2.4
	c2.5,0,3.7,1.7,3.7,4.2c0,2.3-1.7,3.9-3.5,3.9H28.7z M0,38.5h8.5V24.1h10V17h-10V9.7h10.5V2.6H0V38.5z"/>
<path fill="#1A79BF" d="M191.9,62.9l0.8-6.2c0.2-1.8,1.2-3.9,3.3-3.9c1.4,0,1.6,0.5,1.4,1.5l-0.9,5.5c-0.3,1.6-0.1,3.2,2,3.2
	c2.1,0,3-0.3,3.3-3.5h-1.1c-0.4,2.1-0.5,2.2-1.3,2.2c-0.8,0-0.7-0.5-0.5-1.8l0.9-5.2c0.3-2.2,0-3.6-3-3.6c-1.8,0-3,0.9-3.7,2.2l0-2
	h-3.7l-0.2,1.4l1.6,0.2l-1.3,9.9H191.9z M181.7,61.7c-2.2,0-2.6-1.1-2.1-4.7c0.5-3.6,1.2-4.5,3.2-4.5c2.2,0,2.6,1.1,2.1,4.7
	C184.3,60.8,183.7,61.7,181.7,61.7z M181.7,63c3.3,0,5.3-1.5,5.8-5.6c0.6-4.2-1-6.2-4.9-6.2c-3.2,0-5.3,1.5-5.8,5.6
	C176.3,61,177.9,63,181.7,63z M173.3,49.2c1,0,1.7-0.7,1.7-1.8c0-1-0.5-1.5-1.6-1.5c-1,0-1.6,0.6-1.6,1.8
	C171.7,48.7,172.2,49.2,173.3,49.2z M172.7,63c1.9,0,2.8-0.3,3.2-3.5h-1.1c-0.3,1.9-0.4,2.2-1.3,2.2c-0.7,0-0.7-0.3-0.5-1.6l1.1-8.7
	h-4.2l-0.2,1.4l1.7,0.2l-0.9,6.8C170.3,61.4,170.4,63,172.7,63z M164.8,63c2.2,0,2.7-0.9,3.1-3.5h-1.2c-0.3,1.8-0.5,2.2-1.7,2.2
	c-1.1,0-1.1-0.5-0.9-1.8l0.9-7h2.6l0.2-1.5h-2.6l0.5-3.5h-2.5l-0.5,3.5h-1.8l-0.2,1.5h1.9l-0.9,6.9C161.4,61.7,161.6,63,164.8,63z
	 M151.5,61.4c-2.2,0-2.2-1.5-1.8-4.4c0.4-3.2,1-4.4,3.1-4.4c1.9,0,2.4,1.4,2.2,2.7l-0.3,2.1C154.3,59.2,153.4,61.4,151.5,61.4z
	 M156.4,63c1.9,0,2.8-0.3,3.1-3.5h-1.1c-0.4,1.9-0.4,2.2-1.3,2.2c-0.7,0-0.8-0.5-0.6-1.8l1.4-8.5H156l-0.5,1.6
	c-0.4-1-1.3-1.8-3.3-1.8c-2.9,0-4.5,1.6-5.1,5.6c-0.6,4,0.5,6.2,3.7,6.2c1.7,0,2.7-0.9,3.5-2.1C154.2,62,154.7,63,156.4,63z
	 M141.2,63c2.5,0,3.7-0.5,4.4-3.5h-1.4c-0.6,2-1,2.2-2.7,2.2c-2.3,0-2.6-0.9-2.1-4.7c0.5-3.7,1.2-4.5,3.1-4.5c0.8,0,1.4,0.1,1.7,0.3
	c-0.3,0.4-0.5,0.9-0.6,1.5c-0.2,1.1,0.1,1.6,1.2,1.6c0.9,0,1.1-0.2,1.3-1.5c0.3-2-1.1-3.1-3.8-3.1c-3.1,0-5.1,1.3-5.7,5.6
	C135.9,61.4,137.4,63,141.2,63z M132.3,63c1.8,0,2.8-0.3,3.2-3.5h-1.1c-0.3,1.9-0.4,2.2-1.3,2.2c-0.7,0-0.8-0.5-0.5-1.8l1.4-8.5
	h-2.5l-1.1,6.8c-0.4,1.8-1.4,3.2-3,3.2c-1.1,0-1.6-0.2-1.4-1.5l1.1-8.5H123l-0.2,1.4l1.6,0.2l-0.9,6.7c-0.4,2.6,0.9,3.3,3.1,3.3
	c1.8,0,2.8-0.9,3.5-2C130.2,62.1,130.6,63,132.3,63z M113.2,61.4c-2.2,0-2.2-1.5-1.8-4.4c0.4-3.2,1-4.4,3.1-4.4
	c1.8,0,2.4,1.1,2.3,2.4l-0.3,2.6C116.2,59.3,115.1,61.4,113.2,61.4z M118.4,63c1.9,0,2.9-0.3,3.1-3.5h-1.1c-0.3,2.1-0.5,2.2-1.3,2.2
	c-0.7,0-0.8-0.5-0.6-1.8l2-14.8h-4.3l-0.2,1.4l1.8,0.2l-0.8,6c-0.5-0.9-1.4-1.6-3.3-1.6c-2.9,0-4.5,1.6-5.1,5.6
	c-0.5,4,0.5,6.2,3.7,6.2c1.8,0,3-1,3.7-2.3C116.1,61.9,116.6,63,118.4,63z M102,57.1h1.3l0.9-6.4h-1.3l-0.3,2.5h-2.4l0.8-5.8h5.5
	l-0.1,3h1.6l0.4-4.3h-12l-0.2,1.4l2.1,0.1l-1.8,13.8l-2.1,0.1l-0.2,1.4h12.2l0.8-5h-1.6l-0.7,3.7H99l0.9-7h2.4L102,57.1z"/>
</svg>
