<svg xmlns="http://www.w3.org/2000/svg" width="25" height="25" viewBox="0 0 25 25">
  <g id="Facebook" transform="translate(-844 -523)">
    <rect id="Rectangle_3520" data-name="Rectangle 3520" width="25" height="25" transform="translate(844 523)" fill="#3b5998"/>
    <g id="_x30_1._Facebook" transform="translate(853 530)">
      <path id="Icon_11_" d="M30.073,16.386h-1.38c-.223,0-.293-.084-.293-.293V14.407c0-.223.084-.293.293-.293h1.38V12.888a3.1,3.1,0,0,1,.376-1.575,2.313,2.313,0,0,1,1.24-1.031,3.1,3.1,0,0,1,1.073-.181h1.366c.2,0,.279.084.279.279v1.589c0,.2-.084.279-.279.279-.376,0-.753,0-1.129.014a.5.5,0,0,0-.571.571c-.014.418,0,.822,0,1.254h1.617c.223,0,.307.084.307.307v1.687c0,.223-.07.293-.307.293H32.428v4.544c0,.237-.07.321-.321.321H30.365c-.209,0-.293-.084-.293-.293V16.386Z" transform="translate(-28.4 -10.1)" fill="#fff"/>
    </g>
  </g>
</svg>
