<?xml version="1.0" encoding="utf-8"?>
<!-- Generator: Adobe Illustrator 23.0.2, SVG Export Plug-In . SVG Version: 6.00 Build 0)  -->
<svg version="1.1" id="Logo" xmlns="http://www.w3.org/2000/svg" xmlns:xlink="http://www.w3.org/1999/xlink" x="0px" y="0px"
	 viewBox="0 0 256.8 35.9" style="enable-background:new 0 0 256.8 35.9;" xml:space="preserve">
<style type="text/css">
	.st0{fill:url(#SVGID_1_);}
	.st1{fill:url(#SVGID_2_);}
	.st2{fill:#ED1C24;}
	.st3{fill:#7A5031;}
	.st4{fill:url(#SVGID_3_);}
	.st5{fill:#E6AD28;}
	.st6{fill:url(#SVGID_4_);}
	.st7{enable-background:new    ;}
	.st8{fill:#FFFFFF;}
	.st9{fill:#231F20;}
	.st10{fill:url(#SVGID_5_);}
	.st11{fill:url(#SVGID_6_);}
	.st12{fill:url(#SVGID_7_);}
	.st13{fill:url(#SVGID_8_);}
	.st14{fill:url(#SVGID_9_);}
	.st15{fill:url(#SVGID_10_);}
	.st16{fill-rule:evenodd;clip-rule:evenodd;fill:#EC1C24;}
	.st17{fill-rule:evenodd;clip-rule:evenodd;fill:#231F20;}
</style>
<g>
	<g>
		
			<radialGradient id="SVGID_1_" cx="30.1728" cy="4909.8413" r="9.0742" gradientTransform="matrix(1 0 0 0.9444 0 -4622.4087)" gradientUnits="userSpaceOnUse">
			<stop  offset="0.3441" style="stop-color:#FF8000"/>
			<stop  offset="1" style="stop-color:#FF0000"/>
		</radialGradient>
		<path class="st0" d="M32.5,7.9c0.2,0,0.2,0.2,0.3,0.2c0.8,0.6,1.1,1.5,1.1,2.7c0,0.8-0.3,1.8-1.1,2.9c0.2-0.8,0.2-1.5,0.2-2.2
			C33,9.7,32.8,8.6,32.5,7.9 M24.8,10.7L24.8,10.7c0.2,0,0.3,0,0.3,0s0,0,0,0.2l0,0C25,10.8,25,10.8,24.8,10.7L24.8,10.7 M38.5,18.3
			L38.5,18.3L38.5,18.3 M29,4.8c-1.9,0-3.5,0.5-4.6,1.3s-1.6,2.1-1.6,3.7c0,0.9,0.2,1.6,0.6,2.1c0.5,0.5,1.1,0.8,1.8,0.8
			s0.9-0.2,1.5-0.5c0.3-0.3,0.5-0.8,0.5-1.3c0-0.5-0.2-1.1-0.5-1.5c-0.3-0.3-0.8-0.6-1.5-0.6c-0.5,0-0.8,0-0.8-0.2
			c-0.3,0-0.5-0.3-0.5-0.5c0-0.5,0.3-1.1,0.8-1.6c0.6-0.5,1.2-0.8,2.2-0.8c1.1,0,1.9,0.3,2.7,0.9c0.8,0.9,1.3,2.2,1.3,4.2
			c0,2.7-0.8,4.9-2.7,6.7c-1.6,1.8-3.8,3.7-6.2,5.4c-0.3,0.2-0.5,0.5-0.5,0.5c0,0.2,0.3,0.3,1.1,0.3h0.2c0.2,0,0.3,0,0.5,0h4.2
			c0.3,0,0.6,0,1.1,0c0.3,0,0.6,0,0.6,0c2.2,0,4.6,0,7.1,0.2c0.2-2.2,0.3-4.3,0.6-5.9c0-0.2,0-0.3,0-0.5c0-0.3-0.2-0.3-0.3-0.3
			c-0.2,0-0.3,0.3-0.5,0.9c-0.2,0.8-0.3,1.3-0.6,1.6c-0.3,0.3-0.8,0.5-1.8,0.6c-0.6,0-2.1,0.2-4.3,0.2h-2.3h-0.9
			c6.3-3.3,9.7-6.7,9.7-10c0-1.6-0.6-3.2-1.9-4.2C32.7,5.3,31.1,4.8,29,4.8L29,4.8z"/>
	</g>
</g>
<g>
	<g>
		
			<radialGradient id="SVGID_2_" cx="46.8898" cy="4909.814" r="9.0758" gradientTransform="matrix(1 0 0 0.9444 0 -4622.4087)" gradientUnits="userSpaceOnUse">
			<stop  offset="0.3441" style="stop-color:#FF8000"/>
			<stop  offset="1" style="stop-color:#FF0000"/>
		</radialGradient>
		<path class="st1" d="M49.3,7.9c0.2,0,0.2,0.2,0.3,0.2c0.8,0.6,1.1,1.5,1.1,2.7c0,0.8-0.3,1.8-1.1,2.9c0.2-0.9,0.2-1.8,0.2-2.6
			C49.7,9.7,49.6,8.6,49.3,7.9 M41.6,10.7L41.6,10.7c0.2,0,0.3,0,0.3,0s0,0,0,0.2l0,0C41.7,10.8,41.7,10.8,41.6,10.7L41.6,10.7
			 M55.3,18.3L55.3,18.3L55.3,18.3 M45.7,4.8c-1.9,0-3.5,0.5-4.6,1.3s-1.6,2.1-1.6,3.7c0,0.9,0.2,1.6,0.6,2.1
			c0.5,0.5,1.1,0.8,1.8,0.8s0.9-0.2,1.5-0.5c0.3-0.3,0.5-0.8,0.5-1.3c0-0.5-0.2-1.1-0.5-1.5c-0.3-0.3-0.8-0.6-1.5-0.6
			c-0.5,0-0.8,0-0.8-0.2c-0.3,0-0.5-0.3-0.5-0.5c0-0.5,0.3-0.9,0.8-1.5c0.6-0.5,1.3-0.8,2.2-0.8c1.1,0,1.9,0.3,2.7,0.9
			c0.8,0.9,1.3,2.2,1.3,4.2c0,2.7-0.8,4.9-2.7,6.7c-1.6,1.8-3.8,3.7-6.2,5.4c-0.3,0.2-0.5,0.5-0.5,0.5c0,0.2,0.3,0.3,1.1,0.3h0.2
			c0.2,0,0.3,0,0.5,0h4.2c0.3,0,0.6,0,1.1,0c0.3,0,0.6,0,0.6,0c2.2,0,4.6,0,7.1,0.2c0.2-2.2,0.3-4.3,0.6-5.9c0-0.2,0-0.3,0-0.5
			c0-0.3-0.2-0.3-0.3-0.3s-0.3,0.3-0.5,0.9c-0.2,0.8-0.3,1.3-0.6,1.6c-0.3,0.3-0.8,0.5-1.8,0.6c-0.6,0-2.1,0.2-4.3,0.2h-2.2h-1
			c6.3-3.3,9.6-6.7,9.6-10c0-1.6-0.6-3.2-1.9-4.2C49.3,5.3,47.8,4.8,45.7,4.8L45.7,4.8z"/>
	</g>
</g>
<polygon class="st2" points="53.4,27.2 39.8,27.2 35.4,27.2 21.8,27.2 24.4,29.7 21.8,31.9 35.4,31.9 39.8,31.9 53.4,31.9 51,29.7 
	"/>
<g>
	<g>
		<path class="st3" d="M16.7,29.2L16.7,29.2c-0.2-0.2-0.3-0.2-0.5-0.3c-0.2-0.2-0.3-0.5-0.5-1.1c-0.2-0.5-0.2-1.3,0-1.9
			c0.2-0.8,0.5-1.5,0.8-2.2c0.3-0.8,0.8-1.5,0.9-2.1c0.2-0.6,0.2-1.3,0.2-1.9c-0.2-0.5-0.3-0.9-0.5-1.1c-0.2-0.3-0.3-0.3-0.3-0.3
			s0,0,0.2,0c0,0,0.2,0.2,0.3,0.3c0,0.2,0.2,0.6,0.3,1.1c0.2,0.5,0.2,1.3,0,1.9c-0.2,0.8-0.5,1.6-0.9,2.2c-0.3,0.8-0.8,1.5-0.8,2.1
			c-0.2,0.6-0.2,1.3,0,1.9c0.2,0.5,0.3,0.9,0.6,1.1C16.7,29.2,16.9,29.2,16.7,29.2z"/>
	</g>
	<g>
		
			<radialGradient id="SVGID_3_" cx="140.8667" cy="5085.3804" r="5.8985" gradientTransform="matrix(0.9645 0 0 0.9108 -119.7897 -4620.2593)" gradientUnits="userSpaceOnUse">
			<stop  offset="0.3441" style="stop-color:#FF8000"/>
			<stop  offset="1" style="stop-color:#FF0000"/>
		</radialGradient>
		<path class="st4" d="M20,7.3c-2.4-2.7-6.9-2.1-8.4,0.9C11.2,9.1,10.9,9.9,11,11c0.3,2.7,2.9,5.4,5.9,6.3c2.9-1.6,4.5-4.9,4.2-7.6
			C21.1,8.8,20.6,8,20,7.3z"/>
		<polyline class="st5" points="16.9,17.1 16.3,18.3 17.9,18 17,17.1 		"/>
	</g>
</g>
<g>
	<g>
		<path class="st3" d="M240.4,28.8c0.3-0.2,0.5-0.6,0.6-1.1c0.2-0.6,0.2-1.3,0-1.9c0-0.6-0.5-1.3-0.8-2.1c-0.5-0.6-0.8-1.5-0.9-2.2
			c-0.2-0.6-0.2-1.5,0-1.9s0.3-0.9,0.3-1.1c0.2-0.2,0.3-0.3,0.3-0.3c0.2,0,0.2,0,0.2,0s-0.2,0-0.3,0.3c-0.2,0.2-0.3,0.6-0.5,1.1
			c0,0.6,0,1.3,0.2,1.9s0.6,1.3,0.9,2.1c0.3,0.8,0.6,1.5,0.8,2.2c0.2,0.6,0.2,1.5,0,1.9c-0.2,0.6-0.3,0.9-0.5,1.1
			c-0.2,0.2-0.3,0.2-0.5,0.3l0,0C240,29.2,240.2,29.2,240.4,28.8z"/>
	</g>
	<g>
		
			<radialGradient id="SVGID_4_" cx="-1804.8503" cy="5085.3706" r="5.8945" gradientTransform="matrix(-0.9645 0 0 0.9108 -1499.9072 -4620.2593)" gradientUnits="userSpaceOnUse">
			<stop  offset="0.3441" style="stop-color:#FF8000"/>
			<stop  offset="1" style="stop-color:#FF0000"/>
		</radialGradient>
		<path class="st6" d="M235.9,9.7c-0.3,2.7,1.3,6,4.2,7.6c3-0.9,5.6-3.7,5.9-6.3c0.2-1.1-0.2-1.9-0.5-2.7c-1.6-3-6-3.7-8.4-0.9
			C236.4,8,235.9,8.8,235.9,9.7z"/>
		<polyline class="st5" points="239.9,17.1 239.1,18 240.7,18.3 240,17.1 		"/>
	</g>
</g>
<g>
	<g class="st7">
		<path class="st8" d="M26.9,28.4c0.4,0,0.6,0.2,0.6,0.6v0.1c0,0.3-0.1,0.4-0.3,0.5c0.3,0.1,0.4,0.3,0.4,0.5v0.2
			c0,0.4-0.2,0.6-0.6,0.6h-0.6v-2.6C26.4,28.4,26.9,28.4,26.9,28.4z M26.8,29.4c0.2,0,0.4-0.1,0.4-0.3v-0.2c0-0.2-0.1-0.3-0.3-0.3
			h-0.3v0.8C26.6,29.4,26.8,29.4,26.8,29.4z M26.9,30.6c0.2,0,0.3-0.1,0.3-0.3v-0.2c0-0.3-0.1-0.4-0.4-0.4h-0.3v0.9L26.9,30.6
			L26.9,30.6z"/>
		<path class="st8" d="M29.6,28.4v2.6h-0.3v-2.6H29.6z"/>
		<path class="st8" d="M32,28.4c0.4,0,0.6,0.2,0.6,0.6v0.2c0,0.3-0.1,0.5-0.3,0.5c0.3,0.1,0.3,0.3,0.3,0.5v0.4c0,0.1,0,0.2,0.1,0.3
			h-0.3c-0.1-0.1-0.1-0.2-0.1-0.3v-0.4c0-0.3-0.2-0.4-0.4-0.4h-0.2v1.1h-0.3v-2.6L32,28.4L32,28.4z M32,29.5c0.2,0,0.4-0.1,0.4-0.3
			v-0.3c0-0.2-0.1-0.3-0.3-0.3h-0.3v0.9C31.7,29.5,32,29.5,32,29.5z"/>
		<path class="st8" d="M35,30.9v-2.3h-0.5v-0.2h1.3v0.3h-0.5v2.3L35,30.9L35,30.9z"/>
		<path class="st8" d="M37.7,29.8v1.1h-0.3v-2.6h0.3v1.1h0.6v-1.1h0.3v2.6h-0.3v-1.1C38.4,29.8,37.7,29.8,37.7,29.8z"/>
		<path class="st8" d="M41.1,28.4c0.4,0,0.6,0.2,0.6,0.6v1.3c0,0.4-0.2,0.6-0.6,0.6h-0.6v-2.6L41.1,28.4L41.1,28.4z M41.1,30.6
			c0.2,0,0.3-0.1,0.3-0.4v-1.3c0-0.2-0.1-0.4-0.3-0.4h-0.3v2.1L41.1,30.6L41.1,30.6z"/>
		<path class="st8" d="M43.9,30.4l-0.1,0.5h-0.3l0.5-2.6h0.4l0.5,2.6h-0.3l-0.1-0.5H43.9z M43.9,30.1h0.6l-0.3-1.5L43.9,30.1z"/>
		<path class="st8" d="M47,29.9l-0.6-1.6h0.3l0.4,1.3l0.4-1.3h0.3l-0.5,1.6v0.9H47V29.9L47,29.9z"/>
	</g>
</g>
<g>
	<g class="st7">
		<path class="st9" d="M53.6,7.2L53.9,7v0.4c0,0.1,0,0.1,0.1,0.1C54,7.4,54,7.4,54,7.4l0.1-0.1C54.2,7.1,54.4,7,54.6,7
			c0.1,0,0.2,0.1,0.3,0.1c0.1,0.1,0.2,0.2,0.2,0.4V9h-0.4V7.6c0-0.1,0-0.3-0.2-0.3c-0.2,0-0.3,0.2-0.3,0.2C54.1,7.7,54,7.7,54,7.7V9
			h-0.4L53.6,7.2L53.6,7.2z"/>
		<path class="st9" d="M57,6.3V9l-0.3,0.1l-0.1-0.4c0-0.1,0-0.1-0.1-0.1c-0.1,0-0.1,0.1-0.1,0.1c0,0.1-0.2,0.3-0.3,0.3
			C56.2,9,56.1,9,56,9c-0.4,0-0.6-0.4-0.6-1c0-0.4,0.2-0.9,0.6-0.9c0.2,0,0.3,0.1,0.4,0.2c0,0.1,0.1,0.1,0.1,0.1l0.1-0.1
			c0.1,0,0.1-0.1,0.1-0.1V6.4L57,6.3z M56.2,8.8c0.3,0,0.5-0.4,0.5-0.7c0-0.4-0.2-0.8-0.5-0.8c-0.3,0-0.4,0.3-0.4,0.8
			C55.8,8.3,55.8,8.8,56.2,8.8z"/>
	</g>
</g>
<radialGradient id="SVGID_5_" cx="207.3445" cy="2293.6003" r="5.2924" gradientTransform="matrix(1 0 0 1 0 -2276)" gradientUnits="userSpaceOnUse">
	<stop  offset="0.3441" style="stop-color:#FF8000"/>
	<stop  offset="1" style="stop-color:#FF0000"/>
</radialGradient>
<path class="st10" d="M210.2,19.2c0-0.5,0-2.5,0-3c0-0.2,0-0.3,0.2-0.3c0.2,0,0.1,0.2,0.1,0.3c0.1,0.2,0.2,0.4,0.4,0.3
	c0.2,0,0.3-0.1,0.4-0.3c0-0.1,0-0.2,0-0.3c0-0.3-0.1-0.7,0.2-1c0.1-0.1,0.1-0.2,0.1-0.3c0.1-0.5-0.3-1.2-0.8-1.5
	c-0.2-0.1-0.4,0.1-0.4,0.3c0,0.3-0.2,0.5-0.3,0.8c-0.2,0.2-0.3,0.3-0.6,0.4c-1.4,0.6-2.8,0.6-4.2,0.1c-0.5-0.2-0.9-0.6-1-1.2
	c-0.1-0.2-0.3-0.3-0.4-0.2c-0.2,0.2-0.4,0.4-0.6,0.6c-0.2,0.4-0.3,0.9,0.1,1.2c0.3,0.3,0.3,0.7,0.3,1.1c0,0.1,0,0.2,0,0.2
	c0.1,0.2,0.2,0.3,0.3,0.3c0.2,0,0.3-0.1,0.4-0.3c0.1-0.1,0-0.2,0-0.2c0-0.1,0-0.2,0.2-0.1c1.1,0.5,2.3,0.6,3.6,0.5
	c0.2-0.1,0.2,0.1,0.2,0.2c0,0.3,0,0.6,0,0.9c0,0.2,0.2,0.4,0.4,0.4c0.2,0,0.4-0.2,0.4-0.4c0-0.3,0-0.6,0-0.9c0-0.1,0-0.2,0-0.2
	c0.1-0.2,0.2-0.3,0.3-0.3c0.2,0,0.2,0.2,0.2,0.3c0,0.5,0,2.5,0,3c-0.6,0.2-1.2,0.3-1.8,0.3c-1.1,0.1-2.2-0.1-3.3-0.6
	c-0.8-0.4-1.3-0.9-1.2-1.9v-0.1c-0.1-0.3-0.2-0.4-0.5-0.2c-0.2,0.2-0.4,0.3-0.6,0.5c-0.9,0.9-0.9,2.2,0.1,3.1
	c0.4,0.4,0.9,0.7,1.5,0.9c2.1,0.8,4.3,0.9,6.5,0.3c0.9-0.2,1.7-0.6,2.4-1.3c0.8-0.9,0.9-1.9,0.2-2.8c-0.2-0.2-0.4-0.4-0.6-0.6
	c-0.1-0.1-0.2-0.2-0.4-0.1c-0.2,0.1-0.2,0.2-0.2,0.4C211.5,18.3,211.1,19,210.2,19.2z"/>
<radialGradient id="SVGID_6_" cx="207.3134" cy="2286.8813" r="2.7437" gradientTransform="matrix(1 0 0 1 0 -2276)" gradientUnits="userSpaceOnUse">
	<stop  offset="0.3441" style="stop-color:#FF8000"/>
	<stop  offset="1" style="stop-color:#FF0000"/>
</radialGradient>
<path class="st11" d="M205.8,12.1L205.8,12.1c0,0.2,0,0.5,0,0.7c0,0.3,0.1,0.4,0.3,0.5c0.2,0,0.4-0.2,0.4-0.5c0-0.4,0-0.8,0-1.2
	c0-0.2,0.1-0.2,0.2-0.2c0.1,0,0.2,0.1,0.3,0.2c0.1,0.1,0,0.2,0,0.2c0,0.3,0.1,0.4,0.3,0.4s0.3-0.2,0.3-0.4c0-0.1,0-0.1,0-0.1
	c-0.1-0.2,0.1-0.3,0.3-0.3c0.6-0.1,1.2-0.2,1.7-0.5c0.9-0.6,0.9-1.5,0-2c-0.5-0.3-1.1-0.5-1.7-0.5c-0.2-0.1-0.3,0.1-0.4,0.3
	c0,0.3,0,0.6,0,0.9c0,0.2-0.1,0.3-0.2,0.3S207,9.7,207,9.6c0-0.3,0-0.5,0-0.8c0-0.3-0.1-0.4-0.4-0.4c-0.2,0.1-0.3,0.1-0.5,0.1
	c-0.6,0.1-1.1,0.3-1.6,0.8c-0.4,0.4-0.4,0.9,0,1.4c0.2,0.2,0.3,0.2,0.5,0.3c0.2,0.2,0.6,0.1,0.7,0.4
	C205.9,11.5,205.8,11.9,205.8,12.1z"/>
<radialGradient id="SVGID_7_" cx="207.3634" cy="2282.1145" r="1.3802" gradientTransform="matrix(1 0 0 1 0 -2276)" gradientUnits="userSpaceOnUse">
	<stop  offset="0.3441" style="stop-color:#FF8000"/>
	<stop  offset="1" style="stop-color:#FF0000"/>
</radialGradient>
<path class="st12" d="M207.7,4.5c-0.5,0.6-0.9,1.1-1.1,1.8c-0.1,0.2-0.1,0.5-0.1,0.8c0.1,0.3,0.2,0.6,0.5,0.8
	c0.2,0.1,0.3,0.1,0.3-0.2c0-0.3,0-0.5,0-0.8c0-0.1,0.1-0.2,0.1-0.2c0.1,0,0.2,0.1,0.2,0.1c0,0.2,0,0.3,0,0.5
	c0.1,0.2-0.1,0.5,0.1,0.5c0.2,0.1,0.4-0.2,0.6-0.3c0.2-0.2,0.2-0.4,0.2-0.6c0-0.3-0.1-0.6-0.2-0.9C207.9,5.5,207.7,5,207.7,4.5z"/>
<radialGradient id="SVGID_8_" cx="172.0448" cy="2282.791" r="1.8112" gradientTransform="matrix(1 0 0 1 0 -2276)" gradientUnits="userSpaceOnUse">
	<stop  offset="0.3441" style="stop-color:#FF8000"/>
	<stop  offset="1" style="stop-color:#FF0000"/>
</radialGradient>
<path class="st13" d="M172.4,4.6c-0.7,0.8-1.2,1.5-1.5,2.3c-0.2,0.3-0.2,0.7-0.2,1c0.1,0.5,0.3,0.9,0.7,1c0.3,0.2,0.4,0.2,0.4-0.2
	s0-0.7,0-1c0-0.1,0.1-0.2,0.2-0.2c0.1,0,0.2,0.1,0.2,0.2c0,0.2,0,0.4,0,0.6c0.1,0.3-0.1,0.6,0.1,0.7c0.3,0.1,0.6-0.2,0.8-0.5
	c0.2-0.3,0.3-0.5,0.3-0.9c0-0.4-0.1-0.8-0.3-1.1C172.7,6,172.5,5.5,172.4,4.6z"/>
<radialGradient id="SVGID_9_" cx="143.7894" cy="2282.791" r="1.8084" gradientTransform="matrix(1 0 0 1 0 -2276)" gradientUnits="userSpaceOnUse">
	<stop  offset="0.3441" style="stop-color:#FF8000"/>
	<stop  offset="1" style="stop-color:#FF0000"/>
</radialGradient>
<path class="st14" d="M144.2,4.6c-0.7,0.8-1.2,1.5-1.5,2.3c-0.2,0.3-0.2,0.7-0.2,1c0.1,0.5,0.3,0.9,0.7,1c0.3,0.2,0.4,0.2,0.4-0.2
	s0-0.7,0-1c0-0.1,0.1-0.2,0.2-0.2c0.1,0,0.2,0.1,0.2,0.2c0,0.2,0,0.4,0,0.6c0.1,0.3-0.1,0.6,0.1,0.7c0.3,0.1,0.6-0.2,0.8-0.5
	c0.2-0.3,0.3-0.5,0.3-0.9c0-0.4-0.1-0.8-0.3-1.1C144.4,6,144.2,5.5,144.2,4.6z"/>
<radialGradient id="SVGID_10_" cx="118.7806" cy="2282.791" r="1.8106" gradientTransform="matrix(1 0 0 1 0 -2276)" gradientUnits="userSpaceOnUse">
	<stop  offset="0.3441" style="stop-color:#FF8000"/>
	<stop  offset="1" style="stop-color:#FF0000"/>
</radialGradient>
<path class="st15" d="M119.2,4.6c-0.7,0.8-1.2,1.5-1.5,2.3c-0.2,0.3-0.2,0.7-0.2,1c0.1,0.5,0.3,0.9,0.7,1c0.3,0.2,0.4,0.2,0.4-0.2
	s0-0.7,0-1c0-0.1,0.1-0.2,0.2-0.2c0.1,0,0.2,0.1,0.2,0.2c0,0.2,0,0.4,0,0.6c0.1,0.3-0.1,0.6,0.1,0.7c0.3,0.1,0.6-0.2,0.8-0.5
	c0.2-0.3,0.3-0.5,0.3-0.9c0-0.4-0.1-0.8-0.3-1.1C119.4,6,119.2,5.5,119.2,4.6z"/>
<g>
	<path class="st16" d="M133.2,15.1c0.2-1.3,1-2.3,2.4-2.3c1.4,0,2.2,0.9,2.4,2.3C138,15.1,133.2,15.1,133.2,15.1z M139.7,17.1
		c0.9,0,1.3-0.4,1.3-1.3c0-2.5-2.1-5.4-5.4-5.4c-3.2,0-5.4,2.8-5.4,5.8c0,3.3,2.2,5.7,5.7,5.7c2.2,0,4.9-1.3,4.9-2.6
		c0-0.6-0.6-1.3-1.2-1.3c-0.8,0-1.9,1.2-3.4,1.2c-1.4,0-2.6-0.7-2.8-2.2L139.7,17.1L139.7,17.1z M129.5,12.5c0-1.5-2.2-2.2-3.7-2.2
		c-2.4,0-4,1.5-4,3.5c0,3.4,5.2,3.3,5.2,4.6c0,0.6-0.3,0.9-1.2,0.9c-1.5,0-1.9-1-3.1-1c-0.9,0-1.3,0.9-1.3,1.3
		c0,1.3,2.5,2.3,4.2,2.3c2.6,0,4.3-1.5,4.3-3.5c0-3.4-5.2-3.2-5.2-4.6c0-0.6,0.5-0.9,1-0.9c0.9,0,2.1,0.9,2.7,0.9
		C129,13.8,129.5,13.2,129.5,12.5z M117.3,20.1c0,1,0.6,1.6,1.5,1.6s1.5-0.6,1.5-1.6v-8c0-1-0.6-1.6-1.5-1.6s-1.5,0.6-1.5,1.6V20.1z
		 M105.7,20.1c0,1,0.6,1.6,1.5,1.6s1.5-0.6,1.5-1.6v-5.2c0-1.2,0.7-2.1,1.9-2.1c1.1,0,2,0.6,2,2.1v5.2c0,1,0.6,1.6,1.5,1.6
		c0.9,0,1.5-0.6,1.5-1.6v-5.7c0-2.6-1.8-4-4.1-4c-0.9,0-2.1,0.3-2.8,1h-0.1V7.2c0-1-0.6-1.6-1.5-1.6c-0.9,0-1.5,0.6-1.5,1.6
		L105.7,20.1L105.7,20.1z M104.7,12.2c0-1.5-2.5-1.9-3.7-1.9c-3.2,0-5.4,2.8-5.4,5.8c0,3.1,2.1,5.7,5.4,5.7c1.1,0,3.7-0.5,3.7-2.1
		c0-0.7-0.6-1.3-1.3-1.3c-0.3,0-1.5,0.6-2.2,0.6c-1.6,0-2.5-1.5-2.5-3s0.8-3,2.5-3c0.9,0,1.6,0.6,2.4,0.6
		C104.3,13.7,104.7,12.8,104.7,12.2z M84.5,20.1c0,1,0.6,1.6,1.5,1.6s1.5-0.6,1.5-1.6v-5.2c0-1.2,0.7-2.1,1.9-2.1c1.1,0,2,0.6,2,2.1
		v5.2c0,1,0.6,1.6,1.5,1.6c0.9,0,1.5-0.6,1.5-1.6v-5.7c0-2.6-1.8-4-4.1-4c-1.5,0-2.3,0.4-2.9,1.2c-0.1-0.7-0.6-1.1-1.4-1.1
		c-0.9,0-1.5,0.6-1.5,1.6L84.5,20.1L84.5,20.1z M75,16.1c0-1.5,0.8-3,2.4-3c1.6,0,2.3,1.6,2.3,3s-0.8,3-2.3,3
		C75.8,19.2,75,17.5,75,16.1z M82.8,12.4c0-0.8,0-2-1.5-2c-0.8,0-1.3,0.5-1.5,1.3c-0.6-0.9-1.8-1.4-2.9-1.4c-2.8,0-5,2.5-5,5.8
		c0,3.3,2.1,5.7,5,5.7c1.1,0,2.1-0.5,2.9-1.4c0.2,0.8,0.6,1.3,1.5,1.3c1.5,0,1.5-1.2,1.5-2V12.4z M65.5,20.1c0,1,0.6,1.6,1.5,1.6
		s1.5-0.6,1.5-1.6v-4.6c0-1.2,0.9-1.6,1.8-2.1c0.9-0.4,1.8-0.5,1.8-1.5c0-1.1-0.8-1.6-1.5-1.6c-0.9,0-1.5,0.4-2.1,1.3h-0.1
		c0-0.9-0.6-1.3-1.5-1.3c-0.8,0-1.5,0.5-1.5,1.5L65.5,20.1L65.5,20.1z M60.1,20.1c0,1,0.6,1.6,1.5,1.6c0.9,0,1.5-0.6,1.5-1.6v-6.9
		h0.9c0.9,0,1.5-0.4,1.5-1.3s-0.6-1.3-1.5-1.3h-0.9V9.3c0-1.1,0.5-1.1,1-1.1c0.9,0,1.2-0.4,1.2-1.3c0-1-1-1.3-2.1-1.3
		c-1.8,0-3.2,1.2-3.2,3.5v1.5h-0.6c-0.8,0-1.3,0.6-1.3,1.3c0,0.8,0.5,1.3,1.3,1.3h0.6C60.1,13.2,60.1,20.1,60.1,20.1z"/>
	<path class="st17" d="M213.7,20.1c0,1,0.6,1.6,1.5,1.6s1.5-0.6,1.5-1.6v-5.2c0-1.2,0.5-2.1,1.8-2.1c1.1,0,1.8,0.9,1.8,2.1v5.2
		c0,1,0.6,1.6,1.5,1.6c0.9,0,1.5-0.6,1.5-1.6v-5.2c0-1.2,0.6-2.1,1.8-2.1c1.1,0,1.8,0.9,1.8,2.1v5.2c0,1,0.6,1.6,1.5,1.6
		c0.9,0,1.5-0.6,1.5-1.6v-5.7c0-2.6-1.6-4-4.1-4c-1,0-2.3,0.6-3.2,1.5c-0.8-1-1.9-1.5-3.1-1.5c-1.1,0-2.1,0.5-2.8,1.3
		c-0.1-0.7-0.6-1.1-1.4-1.1c-0.9,0-1.5,0.6-1.5,1.6L213.7,20.1L213.7,20.1L213.7,20.1L213.7,20.1z M201.1,12.2
		c0-1.5-2.5-1.9-3.7-1.9c-3.2,0-5.4,2.8-5.4,5.8c0,3.1,2.1,5.7,5.4,5.7c1.1,0,3.7-0.5,3.7-2.1c0-0.7-0.6-1.3-1.3-1.3
		c-0.3,0-1.5,0.6-2.2,0.6c-1.6,0-2.5-1.5-2.5-3s0.8-3,2.5-3c0.9,0,1.6,0.6,2.4,0.6C200.6,13.7,201.1,12.8,201.1,12.2z M187.2,20.3
		c0,0.9,0.8,1.6,1.6,1.6c0.9,0,1.6-0.8,1.6-1.6c0-0.9-0.8-1.6-1.6-1.6C187.9,18.6,187.2,19.4,187.2,20.3z M177.4,16.1
		c0-1.5,0.8-3,2.4-3c1.6,0,2.3,1.6,2.3,3s-0.8,3-2.3,3C178.2,19.2,177.4,17.5,177.4,16.1z M185.1,12.4c0-0.8,0-2-1.5-2
		c-0.8,0-1.3,0.5-1.5,1.3c-0.6-0.9-1.8-1.4-2.9-1.4c-2.8,0-5,2.5-5,5.8c0,3.3,2.1,5.7,5,5.7c1.1,0,2.1-0.5,2.9-1.4
		c0.2,0.8,0.6,1.3,1.5,1.3c1.5,0,1.5-1.2,1.5-2V12.4z M170.2,20.1c0,1,0.6,1.6,1.5,1.6c0.9,0,1.5-0.6,1.5-1.6v-8
		c0-1-0.6-1.6-1.5-1.6c-0.9,0-1.5,0.6-1.5,1.6V20.1z M165.5,16c0,1.5-0.7,3.1-2.3,3.1c-1.6,0-2.3-1.6-2.3-3c0-1.5,0.8-3,2.3-3
		C164.7,13.1,165.5,14.5,165.5,16z M168.5,7.2c0-1-0.6-1.6-1.5-1.6c-0.9,0-1.5,0.6-1.5,1.6v4.1c-0.8-0.7-1.8-1-2.9-1
		c-3.3,0-4.9,3-4.9,6c0,2.8,1.9,5.7,5,5.7c1,0,2.2-0.5,2.8-1.4c0.2,0.8,0.6,1.3,1.5,1.3c0.9,0,1.5-0.6,1.5-1.6L168.5,7.2L168.5,7.2z
		 M146.7,20.1c0,1,0.6,1.6,1.5,1.6s1.5-0.6,1.5-1.6v-5.2c0-1.2,0.7-2.1,1.9-2.1c1.1,0,2,0.6,2,2.1v5.2c0,1,0.6,1.6,1.5,1.6
		c0.9,0,1.5-0.6,1.5-1.6v-5.7c0-2.6-1.8-4-4.1-4c-1.5,0-2.3,0.4-2.9,1.2c-0.1-0.7-0.6-1.1-1.4-1.1c-0.9,0-1.5,0.6-1.5,1.6
		L146.7,20.1L146.7,20.1z M142,20.1c0,1,0.6,1.6,1.5,1.6c0.9,0,1.5-0.6,1.5-1.6v-8c0-1-0.6-1.6-1.5-1.6c-0.9,0-1.5,0.6-1.5,1.6V20.1
		z"/>
	<path class="st17" d="M220.5,29.4c0-2.5-1.6-2.5-2.1-2.5c-1.4,0-2.1,1.2-2.1,2.5c0,1.5,0.8,2.5,2.5,2.5c0.5,0,1.1-0.1,1.5-0.3
		l-0.1-1.1c-0.4,0.2-0.9,0.4-1.4,0.4c-0.9,0-1.2-0.5-1.2-1.1h2.9L220.5,29.4C220.4,29.4,220.5,29.4,220.5,29.4z M217.7,28.9
		c0-0.3,0-1.2,0.8-1.2c0.6,0,0.8,0.6,0.8,1.2H217.7z M215.4,27c-0.2-0.1-0.8-0.2-1.3-0.2c-1.5,0-1.8,0.9-1.8,1.5
		c0,0.9,0.5,1.3,1,1.5c0.6,0.3,1,0.3,1,0.6c0,0.2-0.1,0.5-0.8,0.5c-0.4,0-0.9-0.1-1.2-0.3l-0.1,1.1c0.5,0.2,1.2,0.2,1.6,0.2
		c0.9,0,1.8-0.4,1.8-1.5c0-0.9-0.5-1.2-1-1.4c-0.8-0.3-1-0.4-1-0.7c0-0.2,0.2-0.3,0.5-0.3c0.4,0,0.8,0.1,1.2,0.3L215.4,27z
		 M208.4,29.3c0-0.9,0.2-1.5,0.8-1.5s0.8,0.5,0.8,1.5s-0.2,1.5-0.8,1.5C208.7,30.8,208.4,30.2,208.4,29.3z M207,29.3
		c0,1.5,0.8,2.5,2.3,2.5s2.3-1,2.3-2.5c0-1.5-0.8-2.5-2.3-2.5C207.7,26.8,207,27.8,207,29.3z M202.5,26.4h0.4c1.2,0,1.7,0.9,1.7,2.2
		c0,1.2-0.5,2.1-1.6,2.1h-0.5V26.4L202.5,26.4z M201,31.8h2.1c1.6,0,3.1-0.9,3.1-3.2c0-2.5-1.5-3.3-2.9-3.3h-2.3L201,31.8L201,31.8z
		 M197.9,26.9h-1.5l-0.9,3.3h-0.1l-0.9-3.3h-1.5l1.7,4.9c0,0.4-0.2,0.9-0.7,0.9c-0.2,0-0.4-0.1-0.5-0.1l-0.1,1.1
		c0.3,0.1,0.6,0.1,0.9,0.1c0.9,0,1.3-0.5,1.7-1.6L197.9,26.9z M191,31.8h1.5v-7H191V31.8z M188.5,26.1h1.5v-1.3h-1.5V26.1z
		 M188.5,31.8h1.5v-4.9h-1.5V31.8z M186.1,29.7c0,1.2-0.8,1.2-0.9,1.2c-0.1,0-0.6,0-0.6-0.6c0-0.8,0.9-0.9,1.5-0.9V29.7L186.1,29.7z
		 M183.8,28.2c0.6-0.3,0.9-0.4,1.3-0.4c0.2,0,0.9,0,0.9,0.9h-0.5c-0.5,0-2.4,0-2.4,1.6c0,0.9,0.6,1.5,1.5,1.5c0.7,0,1.3-0.5,1.3-0.8
		h0.1l0.1,0.6h1.3c-0.1-0.3-0.1-0.6-0.1-1.4v-1.8c0-1.1-0.4-1.8-2.1-1.8c-0.5,0-1.2,0.2-1.6,0.3L183.8,28.2z M178.9,26.4h0.4
		c1.2,0,1.7,0.9,1.7,2.2c0,1.2-0.5,2.1-1.6,2.1h-0.5L178.9,26.4L178.9,26.4z M177.3,31.8h2.1c1.6,0,3.1-0.9,3.1-3.2
		c0-2.5-1.5-3.3-2.9-3.3h-2.3L177.3,31.8L177.3,31.8z M173.8,27c-0.2-0.1-0.8-0.2-1.3-0.2c-1.5,0-1.8,0.9-1.8,1.5
		c0,0.9,0.5,1.3,1,1.5c0.6,0.3,1,0.3,1,0.6c0,0.2-0.1,0.5-0.8,0.5c-0.4,0-0.9-0.1-1.2-0.3l-0.1,1.1c0.5,0.2,1.2,0.2,1.6,0.2
		c0.9,0,1.8-0.4,1.8-1.5c0-0.9-0.5-1.2-1-1.4c-0.8-0.3-1-0.4-1-0.7c0-0.2,0.2-0.3,0.5-0.3c0.4,0,0.8,0.1,1.2,0.3L173.8,27z
		 M168.5,27.2h1.1l0.8-2.4H169L168.5,27.2z M165.1,31.8h1.5v-2.2c0-0.7,0.1-1.5,0.9-1.5c0.2,0,0.3,0.1,0.5,0.1v-1.3h-0.2
		c-0.9,0-1.1,0.4-1.3,0.9h-0.1c0-0.3-0.1-0.6-0.1-0.9H165c0.1,0.3,0.1,0.5,0.1,1L165.1,31.8L165.1,31.8z M164.1,26.9h-1.5v2.7
		c0,0.6-0.2,1-0.6,1c-0.3,0-0.6-0.2-0.6-0.8v-3H160v3.2c0,0.9,0.3,1.8,1.5,1.8c0.8,0,1.1-0.3,1.4-0.9h0.1c0,0.3,0.1,0.6,0.1,0.8h1.3
		c-0.1-0.3-0.1-0.5-0.1-1v-3.9C164.3,26.9,164.1,26.9,164.1,26.9z M159.2,29.4c0-2.5-1.6-2.5-2.1-2.5c-1.4,0-2.1,1.2-2.1,2.5
		c0,1.5,0.8,2.5,2.5,2.5c0.5,0,1.1-0.1,1.5-0.3l-0.1-1.1c-0.4,0.2-0.9,0.4-1.4,0.4c-0.9,0-1.2-0.5-1.2-1.1h2.9L159.2,29.4
		C159.1,29.4,159.2,29.4,159.2,29.4z M156.3,28.9c0-0.3,0-1.2,0.8-1.2c0.6,0,0.8,0.6,0.8,1.2H156.3z M152.5,31.8h1.5v-3.2
		c0-0.9-0.3-1.8-1.5-1.8c-0.8,0-1.1,0.3-1.4,0.9l0,0c0-0.3-0.1-0.6-0.1-0.8h-1.3c0.1,0.3,0.1,0.5,0.1,1v3.9h1.5V29
		c0-0.6,0.2-1,0.6-1c0.3,0,0.6,0.2,0.6,0.8V31.8L152.5,31.8z M149,29.4c0-2.5-1.6-2.5-2.1-2.5c-1.4,0-2.1,1.2-2.1,2.5
		c0,1.5,0.8,2.5,2.5,2.5c0.5,0,1.1-0.1,1.5-0.3l-0.1-1.1c-0.4,0.2-0.9,0.4-1.4,0.4c-0.9,0-1.2-0.5-1.2-1.1h2.9L149,29.4
		C148.9,29.4,149,29.4,149,29.4z M146.2,28.9c0-0.3,0-1.2,0.8-1.2c0.6,0,0.8,0.6,0.8,1.2H146.2z M141.4,31.8h1.5v-2.2
		c0-0.7,0.1-1.5,0.9-1.5c0.2,0,0.3,0.1,0.5,0.1v-1.3H144c-0.9,0-1.1,0.4-1.3,0.9h-0.1c0-0.3-0.1-0.6-0.1-0.9h-1.3
		c0.1,0.3,0.1,0.5,0.1,1L141.4,31.8L141.4,31.8z M139,29.4c0,0.8-0.1,1.5-0.7,1.5c-0.6,0-0.8-0.7-0.8-1.5c0-0.5,0.2-1.5,0.8-1.5
		C138.9,27.9,139,28.8,139,29.4z M136,33.8h1.5v-2.7h0.1c0.2,0.4,0.6,0.8,1.3,0.8c1.2,0,1.7-1.1,1.7-2.4c0-1.5-0.6-2.6-1.7-2.6
		c-0.9,0-1.2,0.5-1.3,0.9h-0.1c0-0.3-0.1-0.6-0.1-0.8H136c0.1,0.2,0.1,0.5,0.1,1.1V33.8z M135.2,29.4c0-2.5-1.6-2.5-2.1-2.5
		c-1.4,0-2.1,1.2-2.1,2.5c0,1.5,0.8,2.5,2.5,2.5c0.5,0,1.1-0.1,1.5-0.3l-0.1-1.1c-0.4,0.2-0.9,0.4-1.4,0.4c-0.9,0-1.2-0.5-1.2-1.1
		h2.9L135.2,29.4L135.2,29.4z M132.3,28.9c0-0.3,0-1.2,0.8-1.2c0.6,0,0.8,0.6,0.8,1.2H132.3z M127.6,31.8h1.5v-2.2
		c0-0.7,0.1-1.5,0.9-1.5c0.2,0,0.3,0.1,0.5,0.1v-1.3h-0.2c-0.9,0-1.1,0.4-1.3,0.9h-0.1c0-0.3-0.1-0.6-0.1-0.9h-1.3
		c0.1,0.3,0.1,0.5,0.1,1L127.6,31.8L127.6,31.8z M123.5,28h0.8v2.5c0,1.1,0.6,1.5,1.5,1.5c0.5,0,0.9-0.1,1-0.2v-1
		c-0.2,0.1-0.3,0.1-0.5,0.1c-0.3,0-0.5-0.2-0.5-0.6V28h0.9v-1h-0.9v-1.5l-1.5,0.5v1h-0.9L123.5,28L123.5,28z M121.5,31.8h1.5v-3.2
		c0-0.9-0.3-1.8-1.5-1.8c-0.8,0-1.1,0.3-1.4,0.9H120c0-0.3-0.1-0.6-0.1-0.8h-1.3c0.1,0.3,0.1,0.5,0.1,1v3.9h1.5V29
		c0-0.6,0.2-1,0.6-1c0.3,0,0.6,0.2,0.6,0.8L121.5,31.8C121.4,31.8,121.5,31.8,121.5,31.8z M114.1,31.8h3.9v-1.1h-2.4V29h2.2v-1.2
		h-2.2v-1.5h2.3v-1.1h-3.7V31.8z"/>
	<path class="st17" d="M231.3,9h0.5c0.2,0,0.4-0.1,0.5-0.1c0.1-0.1,0.1-0.2,0.1-0.3c0-0.1-0.1-0.2-0.1-0.2c-0.1-0.1-0.1-0.1-0.2-0.1
		c-0.1-0.1-0.2-0.1-0.4-0.1h-0.5V9z M230.9,10.4V8h0.8c0.3,0,0.5,0.1,0.6,0.1c0.1,0.1,0.2,0.1,0.3,0.2c0.1,0.1,0.1,0.2,0.1,0.3
		c0,0.2-0.1,0.3-0.2,0.5s-0.3,0.2-0.5,0.2c0.1,0.1,0.2,0.1,0.2,0.1c0.1,0.1,0.2,0.3,0.3,0.5l0.3,0.5h-0.6l-0.2-0.4
		c-0.2-0.3-0.3-0.5-0.4-0.5c-0.1-0.1-0.2-0.1-0.3-0.1h-0.1v1L230.9,10.4L230.9,10.4z M231.9,7.3c-0.3,0-0.6,0.1-0.9,0.2
		c-0.3,0.2-0.5,0.4-0.7,0.7c-0.2,0.3-0.3,0.6-0.3,0.9s0.1,0.6,0.3,0.9c0.2,0.3,0.4,0.5,0.7,0.7s0.6,0.3,0.9,0.3
		c0.3,0,0.6-0.1,0.9-0.3c0.3-0.2,0.5-0.4,0.7-0.7c0.2-0.3,0.2-0.6,0.2-0.9s-0.1-0.6-0.3-0.9c-0.2-0.3-0.4-0.5-0.7-0.7
		C232.5,7.4,232.2,7.3,231.9,7.3z M231.9,7c0.4,0,0.7,0.1,1.1,0.3c0.3,0.2,0.6,0.5,0.9,0.8c0.2,0.3,0.3,0.7,0.3,1.1
		c0,0.4-0.1,0.8-0.3,1.1c-0.2,0.3-0.5,0.6-0.8,0.8c-0.3,0.2-0.7,0.3-1.1,0.3c-0.4,0-0.8-0.1-1.1-0.3c-0.3-0.2-0.6-0.5-0.8-0.8
		c-0.2-0.3-0.3-0.7-0.3-1.1c0-0.4,0.1-0.8,0.3-1.1c0.2-0.3,0.5-0.6,0.9-0.8C231.1,7,231.5,7,231.9,7z"/>
</g>
</svg>
