<?xml version="1.0" encoding="utf-8"?>
<!-- Generator: Adobe Illustrator 22.1.0, SVG Export Plug-In . SVG Version: 6.00 Build 0)  -->
<svg version="1.1" baseProfile="basic" id="Layer_1"
	 xmlns="http://www.w3.org/2000/svg" xmlns:xlink="http://www.w3.org/1999/xlink" x="0px" y="0px" viewBox="0 0 455.9 74.8"
	 xml:space="preserve">
<path fill-rule="evenodd" clip-rule="evenodd" fill="#ED1C24" d="M193.7,26.6c0.4-3.3,2.7-5.9,6.1-5.9c3.6,0,5.8,2.5,6.2,5.9H193.7z
	 M210.4,31.7c2.4,0,3.4-1.1,3.4-3.4c0-6.5-5.5-14.1-13.9-14.1c-8.2,0-13.9,7.2-13.9,15c0,8.6,5.8,14.9,14.5,14.9
	c5.8,0,12.7-3.2,12.7-6.6c0-1.7-1.5-3.3-3.2-3.3c-2,0-4.8,3.1-8.8,3.1c-3.6,0-6.8-1.8-7.3-5.6L210.4,31.7z M184.2,19.8
	c0-3.8-5.9-5.6-9.7-5.6c-6.1,0-10.5,3.7-10.5,9c0,8.9,13.5,8.3,13.5,11.9c0,1.5-0.7,2.2-3.1,2.2c-3.7,0-5-2.6-8-2.6
	c-2.2,0-3.3,2.3-3.3,3.4c0,3.5,6.5,6,10.8,6c6.7,0,11-3.9,11-9.1c0-8.8-13.5-8.3-13.5-11.9c0-1.5,1.2-2.2,2.6-2.2
	c2.5,0,5.5,2.3,6.9,2.3C182.9,23.2,184.2,21.5,184.2,19.8z M156.5,2.9c-2.3,0-4.4,2-4.4,4.3c0,2.4,2,4.5,4.4,4.5
	c2.4,0,4.4-2,4.4-4.5C160.9,4.9,158.9,2.9,156.5,2.9z M152.7,39.5c0,2.6,1.6,4.3,3.9,4.3c2.3,0,3.9-1.7,3.9-4.3V18.8
	c0-2.6-1.6-4.3-3.9-4.3c-2.3,0-3.9,1.7-3.9,4.3V39.5z M122.9,39.5c0,2.6,1.6,4.3,3.9,4.3c2.3,0,3.9-1.7,3.9-4.3l0-13.5
	c0-3,1.8-5.3,5-5.3c2.8,0,5.1,1.7,5.1,5.3v13.5c0,2.6,1.6,4.3,3.9,4.3c2.3,0,3.9-1.7,3.9-4.3V24.6c0-6.6-4.5-10.4-10.6-10.4
	c-2.4,0-5.4,0.7-7.1,2.7l-0.1,0V6.3c0-2.6-1.6-4.3-3.9-4.3c-2.3,0-3.9,1.7-3.9,4.3V39.5z M120.2,19.1c0-3.8-6.4-4.9-9.5-4.9
	c-8.2,0-13.9,7.2-13.9,15c0,8.1,5.5,14.9,13.9,14.9c2.8,0,9.5-1.3,9.5-5.3c0-1.8-1.5-3.4-3.3-3.4c-0.9,0-3.8,1.6-5.8,1.6
	c-4.2,0-6.5-4-6.5-7.8c0-4,2.1-7.9,6.5-7.9c2.5,0,4.2,1.5,6.1,1.5C119.1,22.8,120.2,20.7,120.2,19.1z M68,39.5
	c0,2.6,1.6,4.3,3.9,4.3c2.3,0,3.9-1.7,3.9-4.3V26c0-3,1.8-5.3,5-5.3c2.8,0,5.1,1.7,5.1,5.3v13.5c0,2.6,1.6,4.3,3.9,4.3
	c2.3,0,3.9-1.7,3.9-4.3V24.6C93.6,18,89,14.2,83,14.2c-3.7,0-6,1.1-7.5,3.2c-0.3-1.8-1.6-2.9-3.6-2.9c-2.3,0-3.9,1.7-3.9,4.3V39.5z
	 M43.8,29.2c0-3.7,1.9-7.9,6.1-7.9c4.1,0,6,4.2,6,7.9c0,3.7-1.9,7.8-6,7.8C45.7,37,43.8,32.9,43.8,29.2z M63.7,19.6
	c0-2,0-5.1-3.7-5.1c-1.9,0-3.5,1.3-3.7,3.2c-1.7-2.4-4.5-3.6-7.4-3.6c-7.1,0-12.8,6.5-12.8,15c0,8.7,5.5,14.9,12.8,14.9
	c3,0,5.4-1.2,7.4-3.6c0.5,2,1.5,3.3,3.7,3.3c3.7,0,3.7-3.1,3.7-5.1V19.6z M19.1,39.5c0,2.6,1.6,4.3,3.9,4.3c2.3,0,3.9-1.7,3.9-4.3
	V27.6c0-3.1,2.4-4.1,4.7-5.2c2.3-1.1,4.6-1.2,4.6-3.8c0-2.8-1.9-4.1-3.8-4.1c-2.4,0-4,1.1-5.4,3.2l-0.1,0c0-2.5-1.7-3.2-3.8-3.2
	c-1.9,0-4,1.3-4,3.9V39.5z M5.1,39.5c0,2.6,1.6,4.3,3.9,4.3c2.3,0,3.9-1.7,3.9-4.3V21.6h2.4c2.3,0,3.9-1,3.9-3.4
	c0-2.5-1.6-3.4-3.9-3.4h-2.4v-3.2c0-2.9,1.3-2.9,2.6-2.9c2.2,0,3.2-1,3.2-3.3C18.6,2.8,16,2,13.2,2c-4.7,0-8.1,3.1-8.1,8.8v4H3.4
	c-1.9,0-3.4,1.5-3.4,3.4c0,2.1,1.3,3.4,3.4,3.4l1.7,0V39.5z"/>
<path fill-rule="evenodd" clip-rule="evenodd" d="M401.3,39.5c0,2.6,1.6,4.3,3.9,4.3c2.3,0,3.9-1.7,3.9-4.3V26
	c0-3.1,1.4-5.3,4.6-5.3c2.8,0,4.5,2.2,4.5,5.3l0,13.5c0,2.6,1.6,4.3,3.9,4.3c2.3,0,3.9-1.7,3.9-4.3V26c0-3.1,1.7-5.3,4.6-5.3
	c2.8,0,4.5,2.2,4.5,5.3v13.5c0,2.6,1.6,4.3,3.9,4.3c2.3,0,3.9-1.7,3.9-4.3l0-14.9c0-6.8-4.3-10.4-10.6-10.4c-2.6,0-6,1.5-8.2,3.9
	c-2-2.6-4.8-3.9-8-3.9c-2.9,0-5.3,1.2-7.2,3.2c-0.3-1.8-1.6-2.9-3.6-2.9c-2.3,0-3.9,1.7-3.9,4.3L401.3,39.5z M384.1,21.3
	c4.3,0,6.1,4.2,6.1,7.9c0,3.7-1.9,7.8-6.1,7.8c-4.2,0-6.1-4.1-6.1-7.8C378,25.5,379.9,21.3,384.1,21.3z M384.1,14.2
	c-8.2,0-13.9,7.2-13.9,15c0,8.1,5.5,14.9,13.9,14.9c8.3,0,13.9-6.8,13.9-14.9C398,21.3,392.3,14.2,384.1,14.2z M368.7,19.1
	c0-3.8-6.4-4.9-9.5-4.9c-8.2,0-13.9,7.2-13.9,15c0,8.1,5.5,14.9,13.9,14.9c2.8,0,9.5-1.3,9.5-5.3c0-1.8-1.5-3.4-3.3-3.4
	c-0.9,0-3.8,1.6-5.8,1.6c-4.2,0-6.5-4-6.5-7.8c0-4,2.1-7.9,6.5-7.9c2.5,0,4.2,1.5,6.1,1.5C367.6,22.8,368.7,20.7,368.7,19.1z
	 M332.9,39.9c0,2.3,1.9,4.2,4.2,4.2c2.3,0,4.2-1.9,4.2-4.2c0-2.3-1.9-4.2-4.2-4.2C334.7,35.7,332.9,37.6,332.9,39.9z M307.8,29.2
	c0-3.7,1.9-7.9,6.1-7.9c4.1,0,6,4.2,6,7.9c0,3.7-1.9,7.8-6,7.8C309.7,37,307.8,32.9,307.8,29.2z M327.7,19.6c0-2,0-5.1-3.7-5.1
	c-1.9,0-3.5,1.3-3.7,3.2c-1.7-2.4-4.5-3.6-7.4-3.6c-7.1,0-12.8,6.5-12.8,15c0,8.7,5.5,14.9,12.8,14.9c3,0,5.4-1.2,7.4-3.6
	c0.5,2,1.5,3.3,3.7,3.3c3.7,0,3.7-3.1,3.7-5.1L327.7,19.6z M293,2.9c-2.3,0-4.4,2-4.4,4.3c0,2.4,2,4.5,4.4,4.5c2.4,0,4.4-2,4.4-4.5
	C297.4,4.9,295.3,2.9,293,2.9z M289.1,39.5c0,2.6,1.6,4.3,3.9,4.3c2.3,0,3.9-1.7,3.9-4.3l0-20.7c0-2.6-1.6-4.3-3.9-4.3
	c-2.3,0-3.9,1.7-3.9,4.3L289.1,39.5z M277.1,28.9c0,3.8-1.8,8.1-6.1,8.1c-4,0-6-4.2-6-7.8c0-3.7,2-7.9,6-7.9
	C275.2,21.3,277.1,25.2,277.1,28.9z M284.8,6.3c0-2.6-1.6-4.3-3.9-4.3c-2.3,0-3.9,1.7-3.9,4.3v10.6c-2-1.8-4.7-2.7-7.4-2.7
	c-8.3,0-12.5,7.8-12.5,15.3c0,7.3,5,14.6,12.8,14.6c2.6,0,5.7-1.2,7.1-3.6c0.5,2,1.7,3.2,3.9,3.2c2.3,0,3.9-1.7,3.9-4.3L284.8,6.3z
	 M228.4,39.5c0,2.6,1.6,4.3,3.9,4.3c2.3,0,3.9-1.7,3.9-4.3V26c0-3,1.8-5.3,5-5.3c2.8,0,5.1,1.7,5.1,5.3v13.5c0,2.6,1.6,4.3,3.9,4.3
	c2.3,0,3.9-1.7,3.9-4.3l0-14.9c0-6.6-4.5-10.4-10.6-10.4c-3.7,0-6,1.1-7.5,3.2c-0.3-1.8-1.6-2.9-3.6-2.9c-2.3,0-3.9,1.7-3.9,4.3
	L228.4,39.5z M220.3,2.9c-2.3,0-4.4,2-4.4,4.3c0,2.4,2,4.5,4.4,4.5c2.4,0,4.4-2,4.4-4.5C224.6,4.9,222.6,2.9,220.3,2.9z M216.4,39.5
	c0,2.6,1.6,4.3,3.9,4.3c2.3,0,3.9-1.7,3.9-4.3l0-20.7c0-2.6-1.6-4.3-3.9-4.3c-2.3,0-3.9,1.7-3.9,4.3V39.5z"/>
<path fill-rule="evenodd" clip-rule="evenodd" d="M418.9,63.3c0-6.5-4.3-6.5-5.4-6.5c-3.6,0-5.5,3-5.5,6.4c0,3.8,1.9,6.5,6.3,6.5
	c1.3,0,2.7-0.3,4-0.7l-0.1-2.9c-0.9,0.5-2.2,1-3.5,1c-2.1,0-3.1-1.4-3.1-2.9h7.4V63.3z M411.5,62.2c0-0.7,0-3.1,1.9-3.1
	c1.6,0,2,1.5,2,3.1H411.5z M405.5,57.3c-0.6-0.2-1.9-0.5-3.5-0.5c-3.7,0-4.7,2.4-4.7,3.7c0,2.2,1.3,3.3,2.6,3.8
	c1.6,0.7,2.6,0.9,2.6,1.5c0,0.6-0.1,1.2-1.9,1.2c-1.1,0-2.2-0.3-3.1-0.9l-0.1,2.9c1.3,0.5,3,0.6,4.1,0.6c2.5,0,4.6-1.1,4.6-3.9
	c0-2.4-1.3-3.2-2.6-3.6c-2.1-0.8-2.6-1-2.6-1.8c0-0.4,0.4-0.9,1.4-0.9c1.1,0,2,0.3,3,0.7L405.5,57.3z M387.9,63.2
	c0-2.4,0.6-3.8,1.9-3.8c1.3,0,1.9,1.4,1.9,3.8c0,2.4-0.6,3.9-1.9,3.9C388.5,67.1,387.9,65.6,387.9,63.2z M383.9,63.2
	c0,3.8,2,6.5,5.9,6.5c3.8,0,5.9-2.7,5.9-6.5c0-3.7-2-6.4-5.9-6.4C386,56.8,383.9,59.4,383.9,63.2z M372.4,55.7h1
	c3,0,4.4,2.1,4.4,5.6c0,3-1.3,5.3-4.1,5.3h-1.2V55.7z M368.5,69.5h5.4c4.2,0,8-2.4,8-8.2c0-6.3-3.7-8.5-7.5-8.5h-6V69.5z M360.5,57
	h-3.7l-2.2,8.5h0l-2.3-8.5h-3.9l4.3,12.5c0,1.1-0.6,2.5-1.9,2.5c-0.6,0-1-0.1-1.2-0.3l-0.1,2.8c0.6,0.2,1.6,0.3,2.3,0.3
	c2.1,0,3.4-1.2,4.4-4.2L360.5,57z M343,69.5h3.8v-18H343V69.5z M336.3,54.8h3.8v-3.4h-3.8V54.8z M336.3,69.5h3.8V57h-3.8V69.5z
	 M330.1,64.2c0,3-1.9,3.1-2.3,3.1c-0.3,0-1.6,0-1.6-1.6c0-2.1,2.4-2.2,3.9-2.2L330.1,64.2z M324.3,60.4c1.5-0.9,2.5-1.1,3.5-1.1
	c0.6,0,2.3,0,2.3,2.4l-1.2,0c-1.3,0-6.2,0-6.2,4.2c0,2.3,1.5,3.8,3.9,3.8c1.8,0,3.3-1.2,3.4-1.9h0l0.1,1.7h3.5
	c-0.1-0.8-0.1-1.7-0.1-3.5l0-4.6c0-2.8-1-4.6-5.4-4.6c-1.4,0-3,0.5-4,0.8L324.3,60.4z M311.5,55.7h1c3,0,4.4,2.1,4.4,5.6
	c0,3-1.3,5.3-4.1,5.3h-1.2V55.7z M307.6,69.5h5.4c4.2,0,8-2.4,8-8.2c0-6.3-3.7-8.5-7.5-8.5h-6V69.5z M298.4,57.3
	c-0.6-0.2-1.9-0.5-3.5-0.5c-3.7,0-4.7,2.4-4.7,3.7c0,2.2,1.3,3.3,2.6,3.8c1.6,0.7,2.6,0.9,2.6,1.5c0,0.6-0.1,1.2-1.9,1.2
	c-1.1,0-2.2-0.3-3.1-0.9l-0.1,2.9c1.3,0.5,3,0.6,4.1,0.6c2.5,0,4.6-1.1,4.6-3.9c0-2.4-1.3-3.2-2.6-3.6c-2.1-0.8-2.6-1-2.6-1.8
	c0-0.4,0.4-0.9,1.4-0.9c1.1,0,2,0.3,3,0.7L298.4,57.3z M284.9,57.7h2.8l1.9-6.2h-3.6L284.9,57.7z M276.1,69.5h3.8v-5.6
	c0-1.8,0.3-3.7,2.5-3.7c0.5,0,0.9,0,1.3,0.1v-3.5h-0.6c-2.2,0-2.7,1.1-3.5,2.4l0,0c0-0.7-0.1-1.5-0.1-2.3H276
	c0.1,0.6,0.1,1.4,0.1,2.6L276.1,69.5z M273.5,57h-3.8v7c0,1.6-0.4,2.7-1.7,2.7c-0.8,0-1.5-0.4-1.5-2V57h-3.8v8.2
	c0,2.5,0.9,4.5,3.7,4.5c2,0,3-0.9,3.5-2.3h0c0,0.8,0,1.5,0.1,2.1h3.5c-0.1-0.6-0.1-1.4-0.1-2.6V57z M260.6,63.3
	c0-6.5-4.3-6.5-5.4-6.5c-3.6,0-5.5,3-5.5,6.4c0,3.8,1.9,6.5,6.3,6.5c1.3,0,2.7-0.3,4-0.7l-0.1-2.9c-0.9,0.5-2.2,1-3.5,1
	c-2.1,0-3.1-1.4-3.1-2.9h7.4V63.3z M253.2,62.2c0-0.7,0-3.1,1.9-3.1c1.6,0,2,1.5,2,3.1H253.2z M243.5,69.5h3.8v-8.2
	c0-2.5-0.9-4.5-3.7-4.5c-2,0-3,0.9-3.5,2.3h0c0-0.8,0-1.5-0.1-2.1h-3.5c0.1,0.6,0.1,1.4,0.1,2.6v9.9h3.8v-7c0-1.6,0.4-2.7,1.7-2.7
	c0.8,0,1.5,0.4,1.5,2V69.5z M234.3,63.3c0-6.5-4.3-6.5-5.4-6.5c-3.6,0-5.5,3-5.5,6.4c0,3.8,1.9,6.5,6.3,6.5c1.3,0,2.7-0.3,4-0.7
	l-0.1-2.9c-0.9,0.5-2.2,1-3.5,1c-2.1,0-3.1-1.4-3.1-2.9h7.4V63.3z M227,62.2c0-0.7,0-3.1,1.9-3.1c1.6,0,2,1.5,2,3.1H227z
	 M214.8,69.5h3.8v-5.6c0-1.8,0.3-3.7,2.5-3.7c0.5,0,0.9,0,1.3,0.1v-3.5h-0.6c-2.2,0-2.7,1.1-3.5,2.4l0,0c0-0.7-0.1-1.5-0.1-2.3h-3.5
	c0.1,0.6,0.1,1.4,0.1,2.6V69.5z M208.5,63.2c0,2-0.1,3.9-1.8,3.9c-1.5,0-1.9-1.9-1.9-3.9c0-1.4,0.3-3.7,1.9-3.7
	C208.4,59.5,208.5,61.9,208.5,63.2z M201,74.7h3.8v-7h0c0.5,1.1,1.5,2,3.2,2c3.1,0,4.4-2.8,4.4-6.1c0-4-1.6-6.7-4.4-6.7
	c-2.2,0-3,1.4-3.4,2.2h0c0-0.9,0-1.5-0.1-2h-3.6c0,0.6,0.1,1.2,0.1,2.8V74.7z M198.8,63.3c0-6.5-4.3-6.5-5.4-6.5
	c-3.6,0-5.5,3-5.5,6.4c0,3.8,1.9,6.5,6.3,6.5c1.3,0,2.7-0.3,4-0.7l-0.1-2.9c-0.9,0.5-2.2,1-3.5,1c-2.1,0-3.1-1.4-3.1-2.9h7.4V63.3z
	 M191.4,62.2c0-0.7,0-3.1,1.9-3.1c1.6,0,2,1.5,2,3.1H191.4z M179.2,69.5h3.8v-5.6c0-1.8,0.3-3.7,2.5-3.7c0.5,0,0.9,0,1.3,0.1v-3.5
	h-0.6c-2.2,0-2.7,1.1-3.5,2.4l0,0c0-0.7-0.1-1.5-0.1-2.3h-3.5c0.1,0.6,0.1,1.4,0.1,2.6V69.5z M168.9,59.6h2.1V66
	c0,2.7,1.7,3.7,3.7,3.7c1.2,0,2.3-0.2,2.6-0.3v-2.7c-0.4,0.2-0.7,0.3-1.2,0.3c-0.7,0-1.3-0.3-1.3-1.6v-5.7h2.4V57h-2.4v-3.7
	l-3.7,1.2V57h-2.2V59.6z M163.4,69.5h3.8v-8.2c0-2.5-0.9-4.5-3.7-4.5c-2,0-3,0.9-3.5,2.3h0c0-0.8,0-1.5-0.1-2.1h-3.5
	c0.1,0.6,0.1,1.4,0.1,2.6v9.9h3.8v-7c0-1.6,0.4-2.7,1.7-2.7c0.8,0,1.5,0.4,1.5,2V69.5z M144.3,69.5h10v-2.9h-6.2v-4.2h5.6v-2.9h-5.6
	v-3.7h5.9v-2.9h-9.7V69.5z"/>
<path fill-rule="evenodd" clip-rule="evenodd" d="M446.7,10.9h1.2c0.6,0,1-0.1,1.2-0.3c0.2-0.2,0.3-0.4,0.3-0.7
	c0-0.2-0.1-0.3-0.2-0.5c-0.1-0.1-0.2-0.2-0.4-0.3c-0.2-0.1-0.5-0.1-1-0.1h-1.1V10.9z M445.7,14.4V8.3h2.1c0.7,0,1.2,0.1,1.6,0.2
	c0.3,0.1,0.6,0.3,0.8,0.6c0.2,0.3,0.3,0.6,0.3,0.9c0,0.4-0.2,0.8-0.5,1.2c-0.3,0.3-0.7,0.5-1.3,0.6c0.2,0.1,0.4,0.2,0.5,0.3
	c0.2,0.2,0.5,0.6,0.9,1.2l0.7,1.2h-1.2l-0.5-1c-0.4-0.8-0.8-1.2-1-1.4c-0.2-0.1-0.4-0.2-0.8-0.2l-0.6,0v2.6H445.7z M448.2,6.5
	c-0.8,0-1.6,0.2-2.3,0.6c-0.8,0.4-1.3,1-1.8,1.7c-0.4,0.8-0.6,1.6-0.6,2.4c0,0.8,0.2,1.6,0.6,2.3c0.4,0.7,1,1.3,1.8,1.8
	c0.8,0.4,1.5,0.6,2.4,0.6c0.8,0,1.6-0.2,2.4-0.6c0.8-0.4,1.3-1,1.8-1.8c0.4-0.7,0.6-1.5,0.6-2.3c0-0.8-0.2-1.6-0.6-2.4
	c-0.4-0.8-1-1.3-1.8-1.7C449.8,6.7,449,6.5,448.2,6.5z M448.2,5.6c1,0,1.9,0.2,2.8,0.7c0.9,0.5,1.6,1.2,2.1,2.1
	c0.5,0.9,0.8,1.9,0.8,2.8c0,1-0.2,1.9-0.7,2.8c-0.5,0.9-1.2,1.6-2.1,2.1c-0.9,0.5-1.8,0.7-2.8,0.7c-1,0-1.9-0.2-2.8-0.7
	c-0.9-0.5-1.6-1.2-2.1-2.1c-0.5-0.9-0.8-1.8-0.8-2.8c0-1,0.3-1.9,0.8-2.8c0.5-0.9,1.2-1.6,2.1-2.1C446.3,5.8,447.3,5.6,448.2,5.6z"
	/>
</svg>
