<?xml version="1.0" encoding="utf-8"?>
<!-- Generator: Adobe Illustrator 23.0.2, SVG Export Plug-In . SVG Version: 6.00 Build 0)  -->
<svg version="1.1" id="Logo" xmlns="http://www.w3.org/2000/svg" xmlns:xlink="http://www.w3.org/1999/xlink" x="0px" y="0px"
	 viewBox="0 0 150 24" style="enable-background:new 0 0 150 24;" xml:space="preserve">
<style type="text/css">
	.st0{fill-rule:evenodd;clip-rule:evenodd;fill:#231F20;}
</style>
<g id="Layer_1" transform="translate(0 0)">
	<path id="Path_5" class="st0" d="M64,8.1c0.1-1.1,0.9-1.9,2-2c1.1,0,2,0.9,2,2H64z M69.5,9.8c0.8,0,1.1-0.4,1.1-1.1
		c0-2.5-2-4.6-4.6-4.6c-2.5,0-4.6,2-4.6,4.6c0,0.1,0,0.2,0,0.4c-0.1,2.6,1.8,4.8,4.4,4.9c0.1,0,0.3,0,0.4,0c1.9,0,4.2-1.1,4.2-2.2
		c0-0.6-0.5-1-1-1.1c-0.7,0-1.6,1-2.9,1c-1.2,0.1-2.2-0.7-2.4-1.8L69.5,9.8z M60.9,5.8c0-1.3-1.9-1.8-3.2-1.8c-2,0-3.5,1.2-3.5,3
		c0,2.9,4.5,2.7,4.5,3.9c0,0.5-0.2,0.7-1,0.7c-1.2,0-1.7-0.9-2.6-0.9c-0.6,0-1.1,0.5-1.1,1.1c0,1.2,2.1,2,3.6,2c2.2,0,3.6-1.3,3.6-3
		c0-2.9-4.4-2.7-4.4-3.9c0-0.5,0.4-0.7,0.9-0.7c0.8,0,1.8,0.7,2.3,0.7C60.4,6.9,60.9,6.4,60.9,5.8L60.9,5.8z M51.7,0.3
		c-0.8,0-1.4,0.6-1.4,1.4c0,0.8,0.6,1.4,1.4,1.5c0.8,0,1.4-0.7,1.4-1.5C53.1,0.9,52.5,0.3,51.7,0.3L51.7,0.3z M50.5,12.4
		c-0.1,0.7,0.4,1.3,1.2,1.4c0.7,0.1,1.3-0.4,1.4-1.2c0-0.1,0-0.2,0-0.3V5.5c0.1-0.7-0.4-1.3-1.2-1.4c-0.7-0.1-1.3,0.4-1.4,1.2
		c0,0.1,0,0.2,0,0.3V12.4z M40.6,12.4c-0.1,0.7,0.4,1.3,1.1,1.4c0.7,0.1,1.3-0.4,1.4-1.1c0-0.1,0-0.2,0-0.3V7.9
		c-0.1-0.9,0.6-1.7,1.6-1.8s1.7,0.6,1.8,1.6c0,0.1,0,0.1,0,0.2v4.4c-0.1,0.7,0.4,1.3,1.1,1.4c0.7,0.1,1.3-0.4,1.4-1.1
		c0-0.1,0-0.2,0-0.3V7.5c0.1-1.8-1.3-3.4-3.1-3.4c-0.1,0-0.3,0-0.4,0c-0.9,0-1.7,0.3-2.3,0.9h0V1.4C43.2,0.7,42.7,0.1,42,0
		c-0.7-0.1-1.3,0.4-1.4,1.1c0,0.1,0,0.2,0,0.3L40.6,12.4z M39.7,5.6c0-1.2-2.1-1.6-3.1-1.6C34,4.1,31.9,6.3,32,8.9c0,0,0,0,0,0
		c-0.1,2.6,1.8,4.8,4.4,4.9c0.1,0,0.1,0,0.2,0c0.9,0,3.1-0.4,3.1-1.8c0-0.6-0.5-1.1-1.1-1.1c-0.6,0.2-1.3,0.4-1.9,0.5
		c-1.3-0.1-2.3-1.2-2.2-2.5c0,0,0,0,0,0c0-1.3,0.7-2.6,2.2-2.6c0.8,0,1.4,0.5,2,0.5S39.7,6.2,39.7,5.6z M22.5,12.4
		c-0.1,0.7,0.4,1.3,1.1,1.4s1.3-0.4,1.4-1.1c0-0.1,0-0.2,0-0.3V7.9C25,7,25.7,6.2,26.6,6.2c0.9-0.1,1.7,0.7,1.8,1.6
		c0,0.1,0,0.1,0,0.2v4.4c-0.1,0.7,0.4,1.3,1.1,1.4s1.3-0.4,1.4-1.1c0-0.1,0-0.2,0-0.3V7.5C31,5.6,29.6,4.1,27.8,4
		c-0.1,0-0.3,0-0.4,0c-1-0.1-1.9,0.3-2.5,1c-0.1-0.6-0.6-1-1.2-0.9c-0.7,0-1.3,0.6-1.3,1.3c0,0,0,0.1,0,0.1L22.5,12.4z M14.5,9
		c0-1.2,0.6-2.6,2-2.6c1.4,0,2,1.4,2,2.6s-0.6,2.6-2,2.6C15.1,11.5,14.5,10.2,14.5,9L14.5,9z M21,5.8c0-0.7,0-1.7-1.2-1.7
		c-0.6,0-1.2,0.5-1.2,1.1C18,4.4,17.1,4,16.1,4c-2.4,0-4.2,2.1-4.2,4.9c0,2.9,1.8,4.9,4.2,4.9c1,0,1.9-0.4,2.4-1.2
		c0.2,0.7,0.5,1.1,1.2,1.1c1.2,0,1.2-1,1.2-1.7L21,5.8z M6.3,12.4c-0.1,0.7,0.4,1.3,1.1,1.4c0.7,0.1,1.3-0.4,1.4-1.1
		c0-0.1,0-0.2,0-0.3V8.4c0-1,0.8-1.3,1.5-1.7S12,6.3,12,5.5c0.1-0.7-0.4-1.3-1.1-1.4c0,0-0.1,0-0.1,0c-0.8,0-1.4,0.4-1.8,1.1h0
		c0-0.8-0.6-1.1-1.2-1.1C7,4.1,6.4,4.6,6.3,5.3c0,0,0,0.1,0,0.1L6.3,12.4z M1.7,12.4c-0.1,0.7,0.4,1.3,1.2,1.4
		c0.7,0.1,1.3-0.4,1.4-1.2c0-0.1,0-0.2,0-0.3V6.5h0.8c0.8,0,1.3-0.3,1.3-1.1S5.8,4.2,5.1,4.2H4.3v-1c0-0.9,0.4-0.9,0.9-0.9
		c0.7,0,1-0.3,1-1.1C6.2,0.3,5.3,0,4.4,0C2.9-0.1,1.7,1.1,1.7,2.5c0,0.1,0,0.3,0,0.4v1.3H1.1C0.5,4.2,0,4.7,0,5.3c0,0,0,0,0,0.1
		C0,5.9,0.4,6.4,1,6.5c0.1,0,0.1,0,0.2,0h0.6L1.7,12.4z"/>
	<path id="Path_6" class="st0" d="M132.6,12.4c-0.1,0.7,0.4,1.3,1.1,1.4c0.7,0.1,1.3-0.4,1.4-1.1c0-0.1,0-0.2,0-0.3V7.9
		c0-1,0.5-1.8,1.5-1.8c0.9,0,1.5,0.7,1.5,1.8v4.4c-0.1,0.7,0.4,1.3,1.2,1.4c0.7,0.1,1.3-0.4,1.4-1.2c0-0.1,0-0.2,0-0.3V7.9
		c-0.1-0.8,0.5-1.6,1.3-1.7c0.1,0,0.1,0,0.2,0c0.9,0,1.5,0.7,1.5,1.8v4.4c-0.1,0.7,0.4,1.3,1.2,1.4s1.3-0.4,1.4-1.2
		c0-0.1,0-0.2,0-0.3V7.5c0.1-1.8-1.2-3.3-2.9-3.4c-0.2,0-0.4,0-0.6,0c-1,0.1-2,0.5-2.7,1.3c-0.6-0.8-1.6-1.3-2.6-1.3
		c-0.9,0-1.8,0.4-2.4,1.1c-0.1-0.6-0.6-1-1.2-1c-0.7,0-1.3,0.6-1.3,1.3c0,0,0,0.1,0,0.1L132.6,12.4z M126.9,6.4c1.4,0,2,1.4,2,2.6
		s-0.6,2.6-2,2.6s-2-1.3-2-2.6S125.5,6.4,126.9,6.4z M126.9,4c-2.6,0.1-4.7,2.3-4.6,4.9c0,0,0,0,0,0c-0.2,2.5,1.7,4.7,4.3,4.9
		c2.5,0.2,4.7-1.7,4.9-4.3c0-0.2,0-0.4,0-0.7C131.6,6.3,129.6,4.1,126.9,4C127,4,127,4,126.9,4z M121.8,5.6c0-1.2-2.1-1.6-3.1-1.6
		c-2.6,0.1-4.7,2.3-4.6,4.9c0,0,0,0,0,0c-0.1,2.6,1.8,4.8,4.4,4.9c0.1,0,0.1,0,0.2,0c0.9,0,3.1-0.4,3.1-1.8c0-0.6-0.5-1.1-1.1-1.1
		c-0.6,0.2-1.3,0.4-1.9,0.5c-1.3-0.1-2.3-1.2-2.2-2.5c0,0,0,0,0,0c0-1.3,0.7-2.6,2.2-2.6c0.8,0,1.4,0.5,2,0.5S121.9,6.2,121.8,5.6
		L121.8,5.6z M110,12.5c0,0.8,0.6,1.4,1.4,1.4c0.8,0,1.4-0.6,1.4-1.4c0-0.8-0.6-1.4-1.4-1.4c0,0,0,0,0,0
		C110.6,11.1,110,11.7,110,12.5C110,12.5,110,12.5,110,12.5z M101.7,9c0-1.2,0.6-2.6,2-2.6c1.4,0,2,1.4,2,2.6s-0.6,2.6-2,2.6
		C102.4,11.5,101.7,10.2,101.7,9L101.7,9z M108.3,5.8c0-0.7,0-1.7-1.2-1.7c-0.6,0-1.2,0.5-1.2,1.1c-0.6-0.8-1.5-1.2-2.4-1.2
		C101,4,99.2,6.2,99.2,9c0,2.9,1.8,4.9,4.2,4.9c1,0,1.9-0.4,2.4-1.2c0.2,0.7,0.5,1.1,1.2,1.1c1.2,0,1.2-1,1.2-1.7V5.8z M96.8,0.3
		c-0.8,0-1.4,0.6-1.4,1.4c0,0.8,0.6,1.4,1.4,1.5c0.8,0,1.4-0.7,1.4-1.5C98.2,0.9,97.6,0.3,96.8,0.3z M95.6,12.4
		c-0.1,0.7,0.4,1.3,1.2,1.4c0.7,0.1,1.3-0.4,1.4-1.2c0-0.1,0-0.2,0-0.3V5.5c0.1-0.7-0.4-1.3-1.2-1.4s-1.3,0.4-1.4,1.2
		c0,0.1,0,0.2,0,0.3V12.4z M91.6,8.9c0,1.2-0.6,2.7-2,2.7c-1.3,0-2-1.4-2-2.6s0.7-2.6,2-2.6S91.6,7.6,91.6,8.9L91.6,8.9z M94.2,1.4
		C94.2,0.7,93.7,0.1,93,0c-0.7-0.1-1.3,0.4-1.4,1.1c0,0.1,0,0.2,0,0.3v3.5C90.9,4.3,90,4,89.1,4C86.4,4,85,6.6,85,9.1
		c0,2.4,1.7,4.8,4.2,4.8c0.9,0,1.8-0.4,2.4-1.2c0.1,0.6,0.6,1.1,1.3,1.1c0.7,0,1.3-0.6,1.3-1.3c0,0,0-0.1,0-0.1V1.4z M75.5,12.4
		c-0.1,0.7,0.4,1.3,1.2,1.4c0.7,0.1,1.3-0.4,1.4-1.2c0-0.1,0-0.2,0-0.3V7.9C78,7,78.7,6.2,79.6,6.2c0.9-0.1,1.7,0.7,1.8,1.6
		c0,0.1,0,0.1,0,0.2v4.4c-0.1,0.7,0.4,1.3,1.2,1.4c0.7,0.1,1.3-0.4,1.4-1.2c0-0.1,0-0.2,0-0.3V7.5C84,5.6,82.7,4.1,80.8,4
		c-0.1,0-0.3,0-0.4,0c-0.9-0.1-1.9,0.3-2.5,1c-0.1-0.6-0.6-1-1.2-0.9c-0.7,0-1.3,0.6-1.3,1.3c0,0,0,0.1,0,0.1L75.5,12.4z M72.8,0.3
		c-0.8,0-1.4,0.6-1.4,1.4c0,0.8,0.6,1.4,1.4,1.5c0.8,0,1.4-0.7,1.4-1.5C74.2,0.9,73.6,0.3,72.8,0.3L72.8,0.3z M71.5,12.4
		c-0.1,0.7,0.4,1.3,1.2,1.4c0.7,0.1,1.3-0.4,1.4-1.2c0-0.1,0-0.2,0-0.3V5.5c0.1-0.7-0.4-1.3-1.2-1.4c-0.7-0.1-1.3,0.4-1.4,1.2
		c0,0.1,0,0.2,0,0.3V12.4z"/>
	<path id="Path_7" class="st0" d="M138.4,20.2c0-2.2-1.4-2.2-1.8-2.2c-1.2,0.2-2,1.2-1.8,2.4c0.1,1,1,1.8,2.1,1.8
		c0.5,0,0.9-0.1,1.3-0.2l0-0.9c-0.4,0.2-0.8,0.3-1.2,0.3c-0.5,0.1-1-0.3-1-0.8c0,0,0-0.1,0-0.1h2.4L138.4,20.2z M136,19.8
		c0-0.2,0-1,0.7-1c0.5,0,0.7,0.5,0.7,1H136z M134,18.2c-0.4-0.1-0.8-0.2-1.1-0.2c-1.2,0-1.5,0.8-1.5,1.2c0,0.6,0.3,1.1,0.9,1.3
		c0.5,0.2,0.9,0.3,0.9,0.5s0,0.4-0.6,0.4c-0.4,0-0.7-0.1-1-0.3l0,1c0.4,0.1,0.9,0.2,1.4,0.2c0.8,0,1.5-0.4,1.5-1.3
		c0-0.6-0.3-1.1-0.9-1.2c-0.7-0.3-0.9-0.3-0.9-0.6c0-0.1,0.1-0.3,0.5-0.3c0.3,0,0.7,0.1,1,0.2L134,18.2z M128.2,20.2
		c0-0.8,0.2-1.3,0.6-1.3s0.6,0.5,0.6,1.3s-0.2,1.3-0.6,1.3S128.2,21,128.2,20.2L128.2,20.2z M126.9,20.2c0.1,1.1,1,1.9,2.1,1.8
		c1.1-0.1,1.9-1,1.8-2.1c-0.1-1-0.9-1.8-1.9-1.8c-1,0-1.9,0.8-1.9,1.8C126.9,19.9,126.9,20.1,126.9,20.2L126.9,20.2z M123.1,17.7
		h0.3c1,0,1.4,0.7,1.4,1.8c0,1-0.4,1.8-1.4,1.8h-0.4V17.7z M121.8,22.2h1.8c1.4,0.1,2.6-0.9,2.6-2.3c0-0.1,0-0.3,0-0.4
		c0-2.1-1.2-2.8-2.5-2.8h-2V22.2z M119.2,18.1h-1.2l-0.7,2.8l0,0l-0.8-2.8h-1.3l1.4,4.1c0,0.4-0.2,0.8-0.6,0.8c-0.1,0-0.3,0-0.4-0.1
		l0,0.9c0.2,0.1,0.5,0.1,0.8,0.1c0.7,0,1.1-0.4,1.4-1.4L119.2,18.1z M113.4,22.2h1.3v-5.9h-1.3V22.2z M111.2,17.4h1.3v-1.1h-1.3
		V17.4z M111.2,22.2h1.3v-4.1h-1.3V22.2z M109.1,20.5c0,1-0.6,1-0.7,1c-0.3,0-0.5-0.2-0.5-0.4c0,0,0-0.1,0-0.1
		c0-0.7,0.8-0.7,1.3-0.7V20.5z M107.2,19.2c0.3-0.2,0.7-0.4,1.1-0.4c0.2,0,0.8,0,0.8,0.8h-0.4c-0.4,0-2,0-2,1.4
		c0,0.7,0.5,1.2,1.1,1.3c0.1,0,0.1,0,0.2,0c0.5,0,0.9-0.2,1.1-0.6h0l0,0.6h1.1c0-0.3,0-0.6,0-1.2v-1.5c0-0.9-0.3-1.5-1.8-1.5
		c-0.5,0-0.9,0.1-1.3,0.3L107.2,19.2z M103,17.7h0.3c1,0,1.4,0.7,1.4,1.8c0,1-0.4,1.8-1.4,1.8H103L103,17.7z M101.7,22.2h1.8
		c1.4,0.1,2.6-0.9,2.6-2.3c0-0.1,0-0.3,0-0.4c0-2.1-1.2-2.8-2.5-2.8h-2L101.7,22.2z M98.6,18.2c-0.4-0.1-0.8-0.2-1.1-0.2
		c-1.2,0-1.5,0.8-1.5,1.2c0,0.6,0.3,1.1,0.9,1.3c0.5,0.2,0.9,0.3,0.9,0.5s0,0.4-0.6,0.4c-0.4,0-0.7-0.1-1-0.3l0,1
		c0.4,0.1,0.9,0.2,1.4,0.2c0.8,0,1.5-0.4,1.5-1.3c0-0.6-0.3-1.1-0.9-1.2c-0.7-0.3-0.9-0.3-0.9-0.6c0-0.1,0.1-0.3,0.5-0.3
		c0.3,0,0.7,0.1,1,0.2L98.6,18.2z M94.2,18.4h0.9l0.6-2.1h-1.2L94.2,18.4z M91.3,22.2h1.3v-1.8c0-0.6,0.1-1.2,0.8-1.2
		c0.1,0,0.3,0,0.4,0v-1.2h-0.2c-0.7,0-0.9,0.4-1.1,0.8l0,0c0-0.2,0-0.5,0-0.7h-1.2c0,0.3,0,0.6,0,0.9L91.3,22.2z M90.4,18.1h-1.3
		v2.3c0,0.5-0.1,0.9-0.5,0.9c-0.3,0-0.5-0.1-0.5-0.7v-2.5h-1.3v2.7c0,0.8,0.3,1.5,1.2,1.5c0.5,0,1-0.3,1.2-0.8l0,0
		c0,0.2,0,0.5,0,0.7h1.1c0-0.3,0-0.6,0-0.9L90.4,18.1z M86.1,20.2c0-2.2-1.4-2.2-1.8-2.2c-1.2,0.2-2,1.2-1.8,2.4
		c0.1,1,1,1.8,2.1,1.8c0.5,0,0.9-0.1,1.3-0.2l0-0.9c-0.4,0.2-0.8,0.3-1.2,0.3c-0.5,0.1-1-0.3-1-0.8c0,0,0-0.1,0-0.1h2.4L86.1,20.2z
		 M83.7,19.8c0-0.2,0-1,0.6-1c0.5,0,0.7,0.5,0.7,1H83.7z M80.5,22.2h1.3v-2.7c0-0.8-0.3-1.5-1.2-1.5c-0.5,0-1,0.3-1.2,0.8l0,0
		c0-0.3,0-0.5,0-0.7h-1.1c0,0.3,0,0.6,0,0.9v3.3h1.3v-2.3c0-0.5,0.1-0.9,0.5-0.9c0.3,0,0.5,0.1,0.5,0.7L80.5,22.2z M77.4,20.2
		c0-2.2-1.4-2.2-1.8-2.2c-1.2,0.2-2,1.2-1.8,2.4c0.1,1,1,1.8,2.1,1.8c0.5,0,0.9-0.1,1.3-0.2l0-0.9c-0.4,0.2-0.8,0.3-1.2,0.3
		c-0.5,0.1-1-0.3-1-0.8c0,0,0-0.1,0-0.1h2.4L77.4,20.2z M75,19.8c0-0.2,0-1,0.6-1c0.5,0,0.7,0.5,0.7,1H75z M71,22.2h1.3v-1.8
		c0-0.6,0.1-1.2,0.8-1.2c0.1,0,0.3,0,0.4,0v-1.2h-0.2c-0.7,0-0.9,0.4-1.1,0.8h0c0-0.2,0-0.5,0-0.7H71c0,0.3,0,0.6,0,0.9L71,22.2z
		 M68.9,20.2c0,0.7-0.1,1.3-0.6,1.3c-0.5,0-0.6-0.6-0.6-1.3c0-0.5,0.1-1.2,0.6-1.2C68.9,19,68.9,19.7,68.9,20.2L68.9,20.2z
		 M66.4,23.9h1.3v-2.3h0c0.2,0.4,0.6,0.7,1.1,0.7c1,0,1.5-0.9,1.5-2c0-1.3-0.5-2.2-1.5-2.2c-0.5,0-0.9,0.3-1.1,0.7l0,0
		c0-0.2,0-0.4,0-0.7h-1.2c0,0.2,0,0.4,0,0.9L66.4,23.9z M65.7,20.2c0-2.2-1.4-2.2-1.8-2.2c-1.2,0.2-2,1.2-1.8,2.4
		c0.1,1,1,1.8,2.1,1.8c0.5,0,0.9-0.1,1.3-0.2l0-0.9c-0.4,0.2-0.8,0.3-1.2,0.3c-0.5,0.1-1-0.3-1-0.8c0,0,0-0.1,0-0.1h2.4L65.7,20.2z
		 M63.3,19.8c0-0.2,0-1,0.6-1c0.5,0,0.7,0.5,0.7,1H63.3z M59.2,22.2h1.3v-1.8c0-0.6,0.1-1.2,0.8-1.2c0.1,0,0.3,0,0.4,0v-1.2h-0.2
		c-0.7,0-0.9,0.4-1.1,0.8h0c0-0.2,0-0.5,0-0.7h-1.1c0,0.3,0,0.6,0,0.9L59.2,22.2z M55.8,19h0.7v2.1c-0.1,0.6,0.4,1.1,1,1.2
		c0.1,0,0.2,0,0.2,0c0.3,0,0.6,0,0.9-0.1v-0.9c-0.1,0.1-0.3,0.1-0.4,0.1c-0.2,0-0.4-0.1-0.4-0.5V19h0.8v-0.9h-0.8v-1.2l-1.3,0.4v0.9
		h-0.7L55.8,19z M54,22.2h1.3v-2.7c0-0.8-0.3-1.5-1.2-1.5c-0.5-0.1-1,0.3-1.2,0.8l0,0c0-0.2,0-0.5,0-0.7h-1.1c0,0.3,0,0.6,0,0.9v3.3
		H53v-2.3c0-0.5,0.1-0.9,0.5-0.9c0.3,0,0.5,0.1,0.5,0.7L54,22.2z M47.7,22.2H51v-1h-2v-1.4h1.9v-1H49v-1.2h1.9v-1h-3.2L47.7,22.2z"
		/>
	<path id="Path_8" class="st0" d="M147.6,2.9h0.4c0.1,0,0.3,0,0.4-0.1c0.1-0.1,0.1-0.1,0.1-0.2c0-0.1,0-0.1,0-0.2
		c0,0-0.1-0.1-0.1-0.1c-0.1,0-0.2,0-0.3,0h-0.4L147.6,2.9z M147.3,4.1v-2h0.7c0.2,0,0.3,0,0.5,0.1c0.1,0,0.2,0.1,0.3,0.2
		c0.1,0.2,0.1,0.5,0,0.7c-0.1,0.1-0.3,0.2-0.4,0.2c0.1,0,0.1,0.1,0.2,0.1c0.1,0.1,0.2,0.3,0.3,0.4l0.2,0.4h-0.4l-0.2-0.3
		c-0.1-0.2-0.2-0.3-0.3-0.5c-0.1-0.1-0.2-0.1-0.3-0.1h-0.2v0.9L147.3,4.1z M148.1,1.5c-0.3,0-0.5,0.1-0.8,0.2
		c-0.2,0.1-0.4,0.3-0.6,0.6c-0.3,0.5-0.3,1.1,0,1.6c0.1,0.2,0.3,0.4,0.6,0.6c0.5,0.3,1.1,0.3,1.6,0c0.2-0.1,0.4-0.3,0.6-0.6
		c0.1-0.2,0.2-0.5,0.2-0.8c0-0.3-0.1-0.5-0.2-0.8c-0.1-0.2-0.3-0.4-0.6-0.6C148.7,1.6,148.4,1.5,148.1,1.5L148.1,1.5z M148.1,1.2
		c0.3,0,0.6,0.1,0.9,0.2c0.3,0.2,0.5,0.4,0.7,0.7c0.2,0.3,0.2,0.6,0.3,0.9c0,0.3-0.1,0.6-0.2,0.9c-0.2,0.3-0.4,0.5-0.7,0.7
		c-0.6,0.3-1.3,0.3-1.9,0c-0.3-0.2-0.5-0.4-0.7-0.7c-0.2-0.3-0.2-0.6-0.2-0.9c0-0.3,0.1-0.7,0.3-0.9c0.2-0.3,0.4-0.5,0.7-0.7
		C147.5,1.3,147.8,1.2,148.1,1.2L148.1,1.2z"/>
</g>
</svg>
