<?xml version="1.0" encoding="utf-8"?>
<!-- Generator: Adobe Illustrator 23.0.2, SVG Export Plug-In . SVG Version: 6.00 Build 0)  -->
<svg version="1.1" id="Logo" xmlns="http://www.w3.org/2000/svg" xmlns:xlink="http://www.w3.org/1999/xlink" x="0px" y="0px"
	 viewBox="0 0 825.5 135" style="enable-background:new 0 0 825.5 135;" xml:space="preserve">
<style type="text/css">
	.st0{fill:url(#SVGID_1_);}
	.st1{fill:url(#SVGID_2_);}
	.st2{fill:#ED1C24;}
	.st3{fill:#7A5031;}
	.st4{fill:url(#SVGID_3_);}
	.st5{fill:#E6AD28;}
	.st6{fill:url(#SVGID_4_);}
	.st7{enable-background:new    ;}
	.st8{fill:#FFFFFF;}
	.st9{fill:#231F20;}
	.st10{fill:url(#SVGID_5_);}
	.st11{fill:url(#SVGID_6_);}
	.st12{fill:url(#SVGID_7_);}
	.st13{fill:url(#SVGID_8_);}
	.st14{fill:url(#SVGID_9_);}
	.st15{fill:url(#SVGID_10_);}
	.st16{fill-rule:evenodd;clip-rule:evenodd;fill:#EC1C24;}
	.st17{fill-rule:evenodd;clip-rule:evenodd;fill:#231F20;}
</style>
<g>
	<g>
		
			<radialGradient id="SVGID_1_" cx="69.4422" cy="2539.1194" r="31.6945" gradientTransform="matrix(1 0 0 0.9444 0 -2345.6008)" gradientUnits="userSpaceOnUse">
			<stop  offset="0.3441" style="stop-color:#FF8000"/>
			<stop  offset="1" style="stop-color:#FF0000"/>
		</radialGradient>
		<path class="st0" d="M77.6,29.3c0.6,0,0.6,0.6,1.1,0.6c2.8,2.2,3.9,5,3.9,9.4c0,2.8-1.1,6.1-3.9,10c0.6-2.8,0.6-5,0.6-7.8
			C79.3,35.9,78.7,32,77.6,29.3 M50.9,39.3L50.9,39.3c0.6,0,1.1,0,1.1,0s0,0,0,0.6l0,0C51.5,39.8,51.5,39.8,50.9,39.3L50.9,39.3
			 M98.7,66L98.7,66L98.7,66 M65.4,18.7c-6.7,0-12.2,1.7-16.1,4.4s-5.6,7.2-5.6,12.8c0,3.3,0.6,5.6,2.2,7.2s3.9,2.8,6.1,2.8
			s3.3-0.6,5-1.7c1.1-1.1,1.7-2.8,1.7-4.4c0-1.7-0.6-3.9-1.7-5c-1.1-1.1-2.8-2.2-5-2.2c-1.7,0-2.8,0-2.8-0.6c-1.1,0-1.7-1.1-1.7-1.7
			c0-1.7,1.1-3.9,2.8-5.6c2.2-1.7,4.4-2.8,7.8-2.8c3.9,0,6.7,1.1,9.4,3.3c2.8,3.3,4.4,7.8,4.4,14.5c0,9.4-2.8,17.2-9.4,23.3
			C57,69.3,49.3,76,40.9,82.1c-1.1,0.6-1.7,1.7-1.7,1.7c0,0.6,1.1,1.1,3.9,1.1h0.6c0.6,0,1.1,0,1.7,0h14.5c1.1,0,2.2,0,3.9,0
			c1.1,0,2.2,0,2.2,0c7.8,0,16.1,0,25,0.6c0.6-7.8,1.1-15,2.2-20.6c0-0.6,0-1.1,0-1.7c0-1.1-0.6-1.1-1.1-1.1c-0.6,0-1.1,1.1-1.7,3.3
			c-0.6,2.8-1.1,4.4-2.2,5.6c-1.1,1.1-2.8,1.7-6.1,2.2c-2.2,0-7.2,0.6-15,0.6h-7.8h-3.3c22.2-11.7,33.9-23.3,33.9-35
			c0-5.6-2.2-11.1-6.7-14.5C78.2,20.4,72.6,18.7,65.4,18.7L65.4,18.7z"/>
	</g>
</g>
<g>
	<g>
		
			<radialGradient id="SVGID_2_" cx="127.8316" cy="2539.1123" r="31.6908" gradientTransform="matrix(1 0 0 0.9444 0 -2345.6008)" gradientUnits="userSpaceOnUse">
			<stop  offset="0.3441" style="stop-color:#FF8000"/>
			<stop  offset="1" style="stop-color:#FF0000"/>
		</radialGradient>
		<path class="st1" d="M136,29.3c0.6,0,0.6,0.6,1.1,0.6c2.8,2.2,3.9,5,3.9,9.4c0,2.8-1.1,6.1-3.9,10c0.6-3.3,0.6-6.1,0.6-8.9
			C137.6,35.9,137.1,32,136,29.3 M109.3,39.3L109.3,39.3c0.6,0,1.1,0,1.1,0s0,0,0,0.6l0,0C109.8,39.8,109.8,39.8,109.3,39.3
			L109.3,39.3 M157.1,66L157.1,66L157.1,66 M123.7,18.7c-6.7,0-12.2,1.7-16.1,4.4s-5.6,7.2-5.6,12.8c0,3.3,0.6,5.6,2.2,7.2
			c1.7,1.7,3.9,2.8,6.1,2.8s3.3-0.6,5-1.7c1.1-1.1,1.7-2.8,1.7-4.4c0-1.7-0.6-3.9-1.7-5c-1.1-1.1-2.8-2.2-5-2.2
			c-1.7,0-2.8,0-2.8-0.6c-1.1,0-1.7-1.1-1.7-1.7c0-1.7,1.1-3.3,2.8-5c2.2-1.7,4.4-2.8,7.8-2.8c3.9,0,6.7,1.1,9.4,3.3
			c2.8,3.3,4.4,7.8,4.4,14.5c0,9.4-2.8,17.2-9.4,23.3c-5.6,6.1-13.3,12.8-21.7,18.9c-1.1,0.6-1.7,1.7-1.7,1.7c0,0.6,1.1,1.1,3.9,1.1
			h0.6c0.6,0,1.1,0,1.7,0h14.5c1.1,0,2.2,0,3.9,0c1.1,0,2.2,0,2.2,0c7.8,0,16.1,0,25,0.6c0.6-7.8,1.1-15,2.2-20.6c0-0.6,0-1.1,0-1.7
			c0-1.1-0.6-1.1-1.1-1.1s-1.1,1.1-1.7,3.3c-0.6,2.8-1.1,4.4-2.2,5.6c-1.1,1.1-2.8,1.7-6.1,2.2c-2.2,0-7.2,0.6-15,0.6h-7.8h-3.3
			c22.2-11.7,33.9-23.3,33.9-35c0-5.6-2.2-11.1-6.7-14.5C136.5,20.4,131,18.7,123.7,18.7L123.7,18.7z"/>
	</g>
</g>
<polygon class="st2" points="150.4,97.1 103.2,97.1 87.6,97.1 40.4,97.1 49.3,105.4 40.4,113.2 87.6,113.2 103.2,113.2 150.4,113.2 
	142.1,105.4 "/>
<g>
	<g>
		<path class="st3" d="M22.6,103.8L22.6,103.8c-0.6-0.6-1.1-0.6-1.7-1.1c-0.6-0.6-1.1-1.7-1.7-3.9c-0.6-1.7-0.6-4.4,0-6.7
			c0.6-2.8,1.7-5,2.8-7.8c1.1-2.8,2.8-5,3.3-7.2c0.6-2.2,0.6-4.4,0.6-6.7c-0.6-1.7-1.1-3.3-1.7-3.9c-0.6-1.1-1.1-1.1-1.1-1.1
			s0,0,0.6,0c0,0,0.6,0.6,1.1,1.1c0,0.6,0.6,2.2,1.1,3.9c0.6,1.7,0.6,4.4,0,6.7c-0.6,2.8-1.7,5.6-3.3,7.8c-1.1,2.8-2.8,5-2.8,7.2
			c-0.6,2.2-0.6,4.4,0,6.7c0.6,1.7,1.1,3.3,2.2,3.9C22.6,103.8,23.1,103.8,22.6,103.8z"/>
	</g>
	<g>
		
			<radialGradient id="SVGID_3_" cx="85.7171" cy="2618.606" r="20.602" gradientTransform="matrix(0.9645 0 0 0.9108 -62.4808 -2342.9629)" gradientUnits="userSpaceOnUse">
			<stop  offset="0.3441" style="stop-color:#FF8000"/>
			<stop  offset="1" style="stop-color:#FF0000"/>
		</radialGradient>
		<path class="st4" d="M33.7,27.6c-8.3-9.4-23.9-7.2-29.5,3.3c-1.1,2.8-2.2,5.6-1.7,9.4c1.1,9.4,10,18.9,20.6,22.2
			c10-5.6,15.6-17.2,14.5-26.7C37.6,32.6,35.9,29.8,33.7,27.6z"/>
		<polyline class="st5" points="23.1,61.5 20.9,66 26.5,64.8 23.7,61.5 		"/>
	</g>
</g>
<g>
	<g>
		<path class="st3" d="M803.5,102.6c1.1-0.6,1.7-2.2,2.2-3.9c0.6-2.2,0.6-4.4,0-6.7c0-2.2-1.7-4.4-2.8-7.2c-1.7-2.2-2.8-5-3.3-7.8
			c-0.6-2.2-0.6-5,0-6.7c0.6-1.7,1.1-3.3,1.1-3.9c0.6-0.6,1.1-1.1,1.1-1.1c0.6,0,0.6,0,0.6,0s-0.6,0-1.1,1.1
			c-0.6,0.6-1.1,2.2-1.7,3.9c0,2.2,0,4.4,0.6,6.7c0.6,2.2,2.2,4.4,3.3,7.2s2.2,5,2.8,7.8c0.6,2.2,0.6,5,0,6.7
			c-0.6,2.2-1.1,3.3-1.7,3.9c-0.6,0.6-1.1,0.6-1.7,1.1l0,0C802.4,103.8,803,103.8,803.5,102.6z"/>
	</g>
	<g>
		
			<radialGradient id="SVGID_4_" cx="897.9642" cy="2618.606" r="20.602" gradientTransform="matrix(-0.9645 0 0 0.9108 1671.4589 -2342.9629)" gradientUnits="userSpaceOnUse">
			<stop  offset="0.3441" style="stop-color:#FF8000"/>
			<stop  offset="1" style="stop-color:#FF0000"/>
		</radialGradient>
		<path class="st6" d="M788,35.9c-1.1,9.4,4.4,21.1,14.5,26.7c10.6-3.3,19.5-12.8,20.6-22.2c0.6-3.9-0.6-6.7-1.7-9.4
			c-5.6-10.6-21.1-12.8-29.5-3.3C789.6,29.8,788,32.6,788,35.9z"/>
		<polyline class="st5" points="801.9,61.5 799.1,64.8 804.7,66 802.4,61.5 		"/>
	</g>
</g>
<g>
	<g class="st7">
		<path class="st8" d="M58.1,100.9c1.5,0,2.1,0.7,2.1,2v0.4c0,0.9-0.3,1.5-1.1,1.8c0.9,0.2,1.3,0.9,1.3,1.9v0.8
			c0,1.3-0.7,2.1-2.2,2.1h-2.2v-9H58.1z M57.8,104.7c0.8,0,1.3-0.3,1.3-1.2V103c0-0.8-0.3-1.2-1-1.2h-1v2.9H57.8z M58.1,108.9
			c0.8,0,1.1-0.4,1.1-1.2v-0.8c0-1-0.4-1.3-1.3-1.3H57v3.3H58.1z"/>
		<path class="st8" d="M67.6,100.9v9h-1.1v-9H67.6z"/>
		<path class="st8" d="M76.1,100.9c1.5,0,2.1,0.7,2.1,2v0.7c0,1-0.4,1.6-1.2,1.8c0.9,0.2,1.2,0.9,1.2,1.9v1.4c0,0.4,0,0.8,0.2,1.1
			h-1.1c-0.1-0.3-0.2-0.5-0.2-1.1v-1.4c0-1-0.5-1.3-1.4-1.3H75v3.8H74v-9H76.1z M75.8,105.1c0.8,0,1.3-0.3,1.3-1.2V103
			c0-0.8-0.3-1.2-1.1-1.2h-1v3.3H75.8z"/>
		<path class="st8" d="M86,109.8v-8h-1.7v-0.9h4.5v0.9H87v8H86z"/>
		<path class="st8" d="M95.8,105.8v4h-1.1v-9h1.1v4h2.3v-4h1.1v9h-1.1v-4H95.8z"/>
		<path class="st8" d="M107.8,100.9c1.5,0,2.2,0.8,2.2,2.2v4.5c0,1.4-0.7,2.2-2.2,2.2h-2.2v-9H107.8z M107.8,108.9
			c0.8,0,1.1-0.4,1.1-1.3V103c0-0.8-0.4-1.3-1.1-1.3h-1.1v7.1H107.8z"/>
		<path class="st8" d="M117.3,108l-0.4,1.8h-1l1.8-9h1.5l1.8,9H120l-0.4-1.8H117.3z M117.4,107.2h2.1l-1.1-5.2L117.4,107.2z"/>
		<path class="st8" d="M128.2,106.6l-2-5.7h1.1l1.5,4.4l1.5-4.4h1l-2,5.7v3.2h-1V106.6z"/>
	</g>
</g>
<g>
	<g class="st7">
		<path class="st9" d="M151.4,26.9l1.1-0.4v1.3c0,0.1,0,0.1,0.1,0.1c0.1,0,0.2-0.1,0.2-0.2l0.3-0.3c0.4-0.5,1-0.9,1.7-0.9
			c0.3,0,0.6,0.1,0.9,0.3c0.3,0.2,0.5,0.5,0.5,1.4v5.1H155v-5.1c0-0.2,0-0.9-0.7-0.9c-0.6,0-1.2,0.6-1.2,0.7
			c-0.4,0.5-0.5,0.7-0.5,0.7v4.5h-1.2V26.9z"/>
		<path class="st9" d="M163.1,23.8v9.3l-1,0.4L162,32c0-0.1,0-0.1-0.1-0.1c-0.1,0-0.1,0.1-0.2,0.2c0,0.1-0.6,0.9-1,1.1
			c-0.2,0.1-0.5,0.2-0.7,0.2c-1.5,0-2.3-1.5-2.3-3.6c0-1.4,0.6-3.4,2.3-3.4c0.8,0,1.1,0.4,1.5,0.8c0,0.1,0.1,0.1,0.1,0.2
			c0,0,0.1,0.2,0.2,0.2c0.1,0,0.1-0.1,0.1-0.1v-3.3L163.1,23.8z M160.3,32.5c1.1,0,1.6-1.4,1.6-2.5c0-1.5-0.7-2.6-1.6-2.6
			c-1,0-1.4,1.2-1.4,2.7C158.9,30.7,159,32.5,160.3,32.5z"/>
	</g>
</g>
<radialGradient id="SVGID_5_" cx="688.307" cy="63.3616" r="18.477" gradientUnits="userSpaceOnUse">
	<stop  offset="0.3441" style="stop-color:#FF8000"/>
	<stop  offset="1" style="stop-color:#FF0000"/>
</radialGradient>
<path class="st10" d="M698.3,69c0-1.9,0-8.7,0-10.6c0-0.5,0-1.1,0.6-1.2c0.7,0,0.3,0.6,0.4,1c0.1,0.7,0.6,1.3,1.3,1.2
	c0.7,0,1.2-0.4,1.3-1.2c0-0.4,0-0.7,0-1.1c0-1.2-0.2-2.5,0.7-3.6c0.2-0.3,0.3-0.7,0.3-1.1c0.3-1.7-1.2-4.3-2.8-5
	c-0.7-0.3-1.3,0.2-1.3,1c0,1-0.5,1.9-1.2,2.6c-0.6,0.6-1.2,1-2,1.3c-4.8,2.1-9.7,2.1-14.5,0.1c-1.9-0.8-3.3-2-3.5-4.3
	c-0.1-0.8-0.9-1.1-1.5-0.6c-0.8,0.6-1.5,1.3-2,2.1c-0.8,1.4-1,3,0.1,4.3c0.9,1.2,1,2.4,0.9,3.7c0,0.2,0,0.5,0,0.7
	c0.1,0.7,0.5,1.1,1.2,1.1s1.1-0.3,1.3-1c0.1-0.2,0-0.5,0-0.7c0-0.4,0-0.6,0.5-0.4c4,1.8,8.2,2.3,12.5,1.9c0.6-0.1,0.8,0.1,0.8,0.7
	c0,1.1,0,2.2,0,3.3c0,0.8,0.6,1.3,1.3,1.3s1.3-0.5,1.3-1.3c0-1,0-2,0-3c0-0.2,0-0.5,0-0.7c0.1-0.6,0.5-1,1.1-1s0.6,0.6,0.6,1
	c0,1.8,0,8.6,0,10.4c-2.1,0.5-4.2,0.9-6.3,1c-4,0.1-7.9-0.4-11.6-2.2c-2.7-1.3-4.6-3.2-4.3-6.5v-0.1c-0.1-1-0.8-1.3-1.6-0.8
	c-0.7,0.5-1.4,1.1-2,1.8c-3.1,3.4-2.9,7.6,0.4,10.8c1.5,1.5,3.3,2.5,5.3,3.3c7.5,2.8,15.1,2.9,22.7,0.9c3.1-0.8,6-2.2,8.3-4.6
	c2.8-2.9,3-6.6,0.5-9.8c-0.6-0.8-1.4-1.5-2.2-2.2c-0.4-0.3-0.8-0.7-1.4-0.4c-0.6,0.3-0.6,0.8-0.6,1.3
	C702.9,65.7,701.2,68.1,698.3,69z"/>
<radialGradient id="SVGID_6_" cx="688.1617" cy="39.8928" r="9.5828" gradientUnits="userSpaceOnUse">
	<stop  offset="0.3441" style="stop-color:#FF8000"/>
	<stop  offset="1" style="stop-color:#FF0000"/>
</radialGradient>
<path class="st11" d="M682.8,44.4L682.8,44.4c0,0.8,0,1.6,0,2.4c0,1,0.4,1.5,1.2,1.6c0.8,0,1.3-0.5,1.3-1.6c0-1.4,0-2.7,0-4.1
	c0-0.5,0.2-0.8,0.7-0.8c0.4,0,0.8,0.2,0.9,0.7c0.1,0.2,0,0.5,0,0.8c0,0.9,0.4,1.4,1.2,1.4s1.2-0.5,1.2-1.4c0-0.1,0-0.3,0-0.4
	c-0.2-0.8,0.2-1,1-1.1c2.1-0.2,4.1-0.7,5.9-1.8c3.3-2,3.3-5,0-6.9c-1.8-1.1-3.9-1.6-6-1.8c-0.8-0.1-1.2,0.4-1.3,1.2c0,1,0,2,0,3
	c0,0.6-0.1,1.1-0.8,1.1s-0.8-0.5-0.8-1.1c0-0.9,0-1.9,0-2.8c0-1.1-0.4-1.5-1.5-1.3c-0.5,0.1-1.1,0.1-1.6,0.2c-2,0.4-4,1.1-5.5,2.6
	s-1.5,3.4,0,4.9c0.5,0.5,1.1,0.8,1.7,1.2c0.8,0.5,2,0.4,2.4,1.3C683.1,42.3,682.8,43.4,682.8,44.4z"/>
<radialGradient id="SVGID_7_" cx="688.3365" cy="23.2443" r="4.8208" gradientUnits="userSpaceOnUse">
	<stop  offset="0.3441" style="stop-color:#FF8000"/>
	<stop  offset="1" style="stop-color:#FF0000"/>
</radialGradient>
<path class="st12" d="M689.3,17.4c-1.8,2.1-3.2,3.9-4,6.1c-0.4,0.8-0.4,1.8-0.4,2.6c0.1,1.2,0.7,2.2,1.8,2.8c0.7,0.4,1,0.4,1-0.6
	c0-1,0-1.8,0-2.8c0-0.3,0.1-0.6,0.4-0.6c0.3,0,0.6,0.1,0.6,0.4c0,0.6,0,1.1,0,1.7c0.1,0.7-0.3,1.7,0.3,1.8c0.8,0.3,1.5-0.6,2.1-1.2
	c0.6-0.7,0.8-1.4,0.8-2.2c0-1.1-0.3-2.1-0.7-3C690.1,21.1,689.4,19.6,689.3,17.4z"/>
<radialGradient id="SVGID_8_" cx="564.9753" cy="25.617" r="6.3297" gradientUnits="userSpaceOnUse">
	<stop  offset="0.3441" style="stop-color:#FF8000"/>
	<stop  offset="1" style="stop-color:#FF0000"/>
</radialGradient>
<path class="st13" d="M566.2,17.9c-2.4,2.7-4.2,5.1-5.3,8c-0.5,1.1-0.5,2.4-0.5,3.5c0.2,1.6,0.9,2.9,2.4,3.6
	c0.9,0.5,1.3,0.5,1.3-0.7c0-1.3,0-2.4,0-3.6c0-0.4,0.2-0.7,0.5-0.7s0.7,0.2,0.7,0.5c0,0.7,0,1.5,0,2.2c0.2,0.9-0.4,2.2,0.4,2.4
	c1.1,0.4,2-0.7,2.7-1.6c0.7-0.9,1.1-1.8,1.1-2.9c0-1.5-0.4-2.7-0.9-4C567.3,22.8,566.4,20.8,566.2,17.9z"/>
<radialGradient id="SVGID_9_" cx="466.2754" cy="25.617" r="6.3297" gradientUnits="userSpaceOnUse">
	<stop  offset="0.3441" style="stop-color:#FF8000"/>
	<stop  offset="1" style="stop-color:#FF0000"/>
</radialGradient>
<path class="st14" d="M467.5,17.9c-2.4,2.7-4.2,5.1-5.3,8c-0.5,1.1-0.5,2.4-0.5,3.5c0.2,1.6,0.9,2.9,2.4,3.6
	c0.9,0.5,1.3,0.5,1.3-0.7c0-1.3,0-2.4,0-3.6c0-0.4,0.2-0.7,0.5-0.7c0.4,0,0.7,0.2,0.7,0.5c0,0.7,0,1.5,0,2.2
	c0.2,0.9-0.4,2.2,0.4,2.4c1.1,0.4,2-0.7,2.7-1.6c0.7-0.9,1.1-1.8,1.1-2.9c0-1.5-0.4-2.7-0.9-4C468.6,22.8,467.7,20.8,467.5,17.9z"/>
<radialGradient id="SVGID_10_" cx="378.9329" cy="25.617" r="6.3297" gradientUnits="userSpaceOnUse">
	<stop  offset="0.3441" style="stop-color:#FF8000"/>
	<stop  offset="1" style="stop-color:#FF0000"/>
</radialGradient>
<path class="st15" d="M380.2,17.9c-2.4,2.7-4.2,5.1-5.3,8c-0.5,1.1-0.5,2.4-0.5,3.5c0.2,1.6,0.9,2.9,2.4,3.6
	c0.9,0.5,1.3,0.5,1.3-0.7c0-1.3,0-2.4,0-3.6c0-0.4,0.2-0.7,0.5-0.7c0.4,0,0.7,0.2,0.7,0.5c0,0.7,0,1.5,0,2.2
	c0.2,0.9-0.4,2.2,0.4,2.4c1.1,0.4,2-0.7,2.7-1.6c0.7-0.9,1.1-1.8,1.1-2.9c0-1.5-0.4-2.7-0.9-4C381.3,22.8,380.4,20.8,380.2,17.9z"/>
<g>
	<path class="st16" d="M429.3,54.6c0.5-4.4,3.6-8,8.3-8c4.9,0,7.8,3.4,8.4,8H429.3z M451.9,61.6c3.2,0,4.6-1.5,4.6-4.7
		c0-8.8-7.5-19.1-18.9-19.1c-11.1,0-18.8,9.7-18.8,20.3c0,11.6,7.9,20.2,19.7,20.2c7.8,0,17.1-4.4,17.1-8.9c0-2.3-2-4.5-4.3-4.5
		c-2.8,0-6.5,4.2-11.9,4.2c-4.9,0-9.2-2.4-9.9-7.6H451.9z M416.4,45.4c0-5.2-7.9-7.6-13.1-7.6c-8.3,0-14.2,5-14.2,12.3
		c0,12,18.2,11.3,18.2,16.1c0,2-0.9,3-4.2,3c-5,0-6.8-3.6-10.9-3.6c-2.9,0-4.5,3.1-4.5,4.7c0,4.7,8.7,8.1,14.7,8.1
		c9,0,14.9-5.3,14.9-12.3c0-12-18.2-11.2-18.2-16.1c0-2,1.7-2.9,3.6-2.9c3.4,0,7.4,3.1,9.4,3.1C414.6,50.1,416.4,47.8,416.4,45.4z
		 M373.8,72.1c0,3.5,2.2,5.8,5.2,5.8c3.1,0,5.3-2.3,5.3-5.8v-28c0-3.5-2.2-5.8-5.3-5.8c-3.1,0-5.2,2.3-5.2,5.8V72.1z M333.4,72.1
		c0,3.5,2.2,5.8,5.3,5.8c3.1,0,5.2-2.3,5.2-5.8V53.8c0-4.1,2.4-7.2,6.7-7.2c3.8,0,6.9,2.3,6.9,7.2v18.3c0,3.5,2.2,5.8,5.3,5.8
		c3.1,0,5.2-2.3,5.2-5.8V52c0-8.9-6.1-14.1-14.4-14.1c-3.3,0-7.4,0.9-9.6,3.6h-0.1V27.2c0-3.5-2.2-5.8-5.2-5.8
		c-3.1,0-5.3,2.3-5.3,5.8V72.1z M329.8,44.5c0-5.1-8.7-6.6-12.8-6.6c-11.1,0-18.8,9.7-18.8,20.3c0,10.9,7.5,20.2,18.8,20.2
		c3.8,0,12.8-1.8,12.8-7.2c0-2.5-2-4.6-4.5-4.6c-1.2,0-5.2,2.2-7.8,2.2c-5.7,0-8.8-5.4-8.8-10.6c0-5.4,2.8-10.7,8.8-10.7
		c3.4,0,5.7,2,8.3,2C328.3,49.5,329.8,46.7,329.8,44.5z M259.2,72.1c0,3.5,2.2,5.8,5.3,5.8c3.1,0,5.2-2.3,5.2-5.8V53.8
		c0-4.1,2.4-7.2,6.7-7.2c3.8,0,6.9,2.3,6.9,7.2v18.3c0,3.5,2.2,5.8,5.3,5.8c3.1,0,5.2-2.3,5.2-5.8V52c0-8.9-6.1-14.1-14.4-14.1
		c-5,0-8.1,1.5-10.1,4.3c-0.4-2.4-2.1-3.9-4.8-3.9c-3.1,0-5.3,2.3-5.3,5.8V72.1z M226.3,58.2c0-5,2.6-10.7,8.3-10.7
		c5.5,0,8.1,5.7,8.1,10.7s-2.6,10.6-8.1,10.6C228.9,68.8,226.3,63.2,226.3,58.2z M253.2,45.2c0-2.7,0-6.9-5-6.9
		c-2.6,0-4.7,1.8-5,4.4c-2.3-3.3-6.1-4.8-10-4.8c-9.6,0-17.4,8.8-17.4,20.3c0,11.8,7.5,20.2,17.4,20.2c4,0,7.3-1.7,10-4.9
		c0.7,2.8,2,4.4,5,4.4c5,0,5-4.2,5-6.9V45.2z M193,72.1c0,3.5,2.2,5.8,5.3,5.8c3.1,0,5.2-2.3,5.2-5.8V56c0-4.2,3.2-5.5,6.3-7
		c3.1-1.5,6.3-1.7,6.3-5.1c0-3.8-2.6-5.6-5.1-5.6c-3.3,0-5.4,1.5-7.4,4.4h-0.1c0-3.4-2.3-4.4-5.1-4.4c-2.6,0-5.4,1.7-5.4,5.2V72.1z
		 M174,72.1c0,3.5,2.2,5.8,5.2,5.8c3.1,0,5.3-2.3,5.3-5.8V47.9h3.3c3.1,0,5.3-1.3,5.3-4.6c0-3.4-2.2-4.6-5.3-4.6h-3.3v-4.3
		c0-3.9,1.7-3.9,3.5-3.9c2.9,0,4.3-1.4,4.3-4.4c0-3.6-3.6-4.7-7.3-4.7c-6.4,0-11,4.2-11,12v5.4h-2.3c-2.6,0-4.6,2-4.6,4.6
		c0,2.8,1.8,4.6,4.6,4.6h2.3V72.1z"/>
	<path class="st17" d="M710.4,72.1c0,3.5,2.2,5.8,5.2,5.8c3.1,0,5.2-2.3,5.2-5.8V53.8c0-4.2,1.9-7.2,6.2-7.2c3.8,0,6.1,3,6.1,7.2
		v18.3c0,3.5,2.2,5.8,5.3,5.8s5.2-2.3,5.2-5.8V53.8c0-4.2,2.3-7.2,6.2-7.2c3.8,0,6.1,3,6.1,7.2v18.3c0,3.5,2.2,5.8,5.2,5.8
		c3.1,0,5.3-2.3,5.3-5.8V52c0-9.2-5.8-14.1-14.4-14.1c-3.6,0-8.2,2-11.1,5.3c-2.8-3.5-6.5-5.3-10.9-5.3c-3.9,0-7.2,1.6-9.8,4.4
		c-0.4-2.5-2.1-3.9-4.8-3.9c-3.1,0-5.2,2.3-5.2,5.8V72.1z M666.3,44.5c0-5.1-8.7-6.6-12.8-6.6c-11.1,0-18.8,9.7-18.8,20.3
		c0,10.9,7.5,20.2,18.8,20.2c3.8,0,12.8-1.8,12.8-7.2c0-2.5-2-4.6-4.5-4.6c-1.2,0-5.2,2.2-7.8,2.2c-5.7,0-8.8-5.4-8.8-10.6
		c0-5.4,2.8-10.7,8.8-10.7c3.4,0,5.7,2,8.3,2C664.7,49.5,666.3,46.7,666.3,44.5z M617.7,72.7c0,3.1,2.6,5.7,5.7,5.7
		c3.1,0,5.7-2.6,5.7-5.7c0-3.1-2.6-5.7-5.7-5.7C620.3,67,617.7,69.6,617.7,72.7z M583.8,58.2c0-5,2.6-10.7,8.3-10.7
		c5.5,0,8.1,5.7,8.1,10.7s-2.6,10.6-8.1,10.6C586.4,68.8,583.8,63.2,583.8,58.2z M610.7,45.2c0-2.7,0-6.9-5-6.9
		c-2.6,0-4.7,1.8-5,4.4c-2.3-3.3-6.1-4.8-10-4.8c-9.6,0-17.4,8.8-17.4,20.3c0,11.8,7.5,20.2,17.4,20.2c4,0,7.3-1.7,10-4.9
		c0.7,2.8,2,4.4,5,4.4c5,0,5-4.2,5-6.9V45.2z M558.5,72.1c0,3.5,2.2,5.8,5.2,5.8c3.1,0,5.2-2.3,5.2-5.8v-28c0-3.5-2.2-5.8-5.2-5.8
		c-3.1,0-5.3,2.3-5.3,5.8L558.5,72.1z M542.2,57.8c0,5.1-2.5,10.9-8.2,10.9c-5.5,0-8.2-5.7-8.2-10.6c0-5,2.7-10.7,8.2-10.7
		C539.6,47.5,542.2,52.7,542.2,57.8z M552.7,27.2c0-3.5-2.2-5.8-5.3-5.8c-3.1,0-5.2,2.3-5.2,5.8v14.3c-2.8-2.4-6.3-3.6-10-3.6
		c-11.3,0-16.9,10.6-16.9,20.8c0,9.9,6.7,19.8,17.3,19.8c3.6,0,7.7-1.6,9.6-4.8c0.7,2.8,2.3,4.4,5.2,4.4c3.1,0,5.2-2.3,5.2-5.8
		L552.7,27.2z M476.4,72.1c0,3.5,2.2,5.8,5.2,5.8c3.1,0,5.2-2.3,5.2-5.8V53.8c0-4.1,2.4-7.2,6.7-7.2c3.8,0,6.9,2.3,6.9,7.2v18.3
		c0,3.5,2.2,5.8,5.2,5.8c3.1,0,5.3-2.3,5.3-5.8V52c0-8.9-6.1-14.1-14.4-14.1c-5,0-8.1,1.5-10.1,4.3c-0.4-2.4-2.1-3.9-4.8-3.9
		c-3.1,0-5.2,2.3-5.2,5.8V72.1z M460.1,72.1c0,3.5,2.2,5.8,5.3,5.8c3.1,0,5.2-2.3,5.2-5.8v-28c0-3.5-2.2-5.8-5.2-5.8
		c-3.1,0-5.3,2.3-5.3,5.8V72.1z"/>
	<path class="st17" d="M734.2,104.4c0-8.8-5.8-8.8-7.3-8.8c-4.8,0-7.5,4.1-7.5,8.7c0,5.2,2.6,8.8,8.6,8.8c1.8,0,3.7-0.4,5.4-1
		l-0.1-3.9c-1.3,0.7-3,1.3-4.8,1.3c-2.9,0-4.2-1.9-4.2-3.9h10V104.4z M724.3,102.8c0-0.9,0-4.2,2.6-4.2c2.1,0,2.7,2,2.7,4.2H724.3z
		 M716.2,96.2c-0.8-0.3-2.6-0.7-4.7-0.7c-5,0-6.3,3.2-6.3,5.1c0,3,1.8,4.5,3.5,5.2c2.2,0.9,3.5,1.2,3.5,2s-0.2,1.6-2.6,1.6
		c-1.4,0-3-0.4-4.2-1.2l-0.1,4c1.8,0.6,4.1,0.8,5.6,0.8c3.4,0,6.2-1.5,6.2-5.2c0-3.2-1.8-4.3-3.5-4.9c-2.8-1-3.5-1.4-3.5-2.4
		c0-0.6,0.6-1.2,1.9-1.2c1.5,0,2.8,0.4,4.1,0.9L716.2,96.2z M692.2,104.2c0-3.3,0.8-5.2,2.6-5.2c1.8,0,2.6,1.9,2.6,5.2
		c0,3.3-0.8,5.3-2.6,5.3C693.1,109.5,692.2,107.5,692.2,104.2z M686.9,104.2c0,5.1,2.8,8.8,8,8.8c5.2,0,8-3.6,8-8.8
		c0-5.1-2.8-8.7-8-8.7C689.7,95.6,686.9,99.2,686.9,104.2z M671.3,94h1.4c4.1,0,5.9,2.9,5.9,7.6c0,4.1-1.7,7.2-5.6,7.2h-1.7V94z
		 M666,112.7h7.4c5.7,0,10.8-3.3,10.8-11.1c0-8.5-5-11.5-10.1-11.5H666V112.7z M655.2,95.8h-5l-3,11.5h-0.1L644,95.8h-5.3l5.9,16.9
		c0,1.5-0.8,3.4-2.5,3.4c-0.7,0-1.3-0.2-1.6-0.4l-0.2,3.8c0.9,0.3,2.2,0.4,3.1,0.4c2.9,0,4.6-1.7,5.9-5.7L655.2,95.8z M631.4,112.7
		h5.1V88.4h-5.1V112.7z M622.4,92.9h5.1v-4.5h-5.1V92.9z M622.4,112.7h5.1V95.8h-5.1V112.7z M614.1,105.6c0,4.1-2.6,4.2-3.1,4.2
		c-0.4,0-2.2,0-2.2-2.2c0-2.8,3.2-3,5.3-3V105.6z M606.2,100.4c2-1.2,3.4-1.5,4.7-1.5c0.7,0,3.2,0,3.2,3.2h-1.6
		c-1.8,0-8.4,0-8.4,5.7c0,3.1,2.1,5.1,5.2,5.1c2.4,0,4.4-1.6,4.6-2.6h0.1l0.1,2.3h4.7c-0.1-1.1-0.1-2.3-0.1-4.8v-6.2
		c0-3.8-1.4-6.2-7.3-6.2c-1.9,0-4.1,0.6-5.5,1.1L606.2,100.4z M588.8,94h1.4c4.1,0,5.9,2.9,5.9,7.6c0,4.1-1.7,7.2-5.6,7.2h-1.7V94z
		 M583.5,112.7h7.4c5.7,0,10.8-3.3,10.8-11.1c0-8.5-5-11.5-10.1-11.5h-8.1V112.7z M571,96.2c-0.8-0.3-2.6-0.7-4.7-0.7
		c-5,0-6.3,3.2-6.3,5.1c0,3,1.8,4.5,3.5,5.2c2.2,0.9,3.5,1.2,3.5,2s-0.2,1.6-2.6,1.6c-1.4,0-3-0.4-4.2-1.2l-0.1,4
		c1.8,0.6,4.1,0.8,5.6,0.8c3.4,0,6.2-1.5,6.2-5.2c0-3.2-1.8-4.3-3.5-4.9c-2.8-1-3.5-1.4-3.5-2.4c0-0.6,0.6-1.2,1.9-1.2
		c1.5,0,2.8,0.4,4.1,0.9L571,96.2z M552.8,96.8h3.8l2.6-8.4h-4.9L552.8,96.8z M540.9,112.7h5.1v-7.6c0-2.5,0.4-5.1,3.3-5.1
		c0.7,0,1.2,0.1,1.7,0.2v-4.7h-0.7c-3,0-3.7,1.5-4.7,3.3h-0.1c0-1-0.1-2-0.1-3.1h-4.7c0.1,0.9,0.1,1.9,0.1,3.5V112.7z M537.4,95.8
		h-5.1v9.5c0,2.2-0.6,3.6-2.2,3.6c-1,0-2-0.6-2-2.7V95.8h-5.1v11.1c0,3.4,1.2,6.1,5,6.1c2.7,0,4-1.2,4.8-3.1h0.1
		c0,1.1,0.1,2.1,0.1,2.8h4.7c-0.1-0.9-0.1-1.9-0.1-3.5V95.8z M519.9,104.4c0-8.8-5.8-8.8-7.3-8.8c-4.8,0-7.5,4.1-7.5,8.7
		c0,5.2,2.6,8.8,8.6,8.8c1.8,0,3.7-0.4,5.4-1l-0.1-3.9c-1.3,0.7-3,1.3-4.8,1.3c-2.9,0-4.2-1.9-4.2-3.9h10V104.4z M509.9,102.8
		c0-0.9,0-4.2,2.6-4.2c2.1,0,2.7,2,2.7,4.2H509.9z M496.7,112.7h5.1v-11.1c0-3.4-1.2-6.1-5-6.1c-2.7,0-4,1.2-4.8,3.1H492
		c0-1.1-0.1-2.1-0.1-2.8h-4.7c0.1,0.9,0.1,1.9,0.1,3.5v13.4h5.1v-9.5c0-2.2,0.6-3.6,2.2-3.6c1,0,2,0.6,2,2.7V112.7z M484.3,104.4
		c0-8.8-5.8-8.8-7.3-8.8c-4.8,0-7.5,4.1-7.5,8.7c0,5.2,2.6,8.8,8.6,8.8c1.8,0,3.7-0.4,5.4-1l-0.1-3.9c-1.3,0.7-3,1.3-4.8,1.3
		c-2.9,0-4.2-1.9-4.2-3.9h10V104.4z M474.4,102.8c0-0.9,0-4.2,2.6-4.2c2.1,0,2.7,2,2.7,4.2H474.4z M457.8,112.7h5.1v-7.6
		c0-2.5,0.4-5.1,3.3-5.1c0.7,0,1.2,0.1,1.7,0.2v-4.7h-0.7c-3,0-3.7,1.5-4.7,3.3h-0.1c0-1-0.1-2-0.1-3.1h-4.7
		c0.1,0.9,0.1,1.9,0.1,3.5V112.7z M449.4,104.3c0,2.7-0.2,5.2-2.5,5.2c-2.1,0-2.6-2.5-2.6-5.2c0-1.9,0.5-5,2.6-5
		C449.2,99.3,449.4,102.5,449.4,104.3z M439.2,119.8h5.1v-9.5h0.1c0.6,1.5,2,2.8,4.4,2.8c4.3,0,5.9-3.8,5.9-8.3
		c0-5.4-2.1-9.1-5.9-9.1c-3,0-4.1,1.9-4.6,3h-0.1c0-1.2-0.1-2-0.1-2.7h-4.9c0.1,0.8,0.1,1.7,0.1,3.8V119.8z M436.2,104.4
		c0-8.8-5.8-8.8-7.3-8.8c-4.8,0-7.5,4.1-7.5,8.7c0,5.2,2.6,8.8,8.6,8.8c1.8,0,3.7-0.4,5.4-1l-0.1-3.9c-1.3,0.7-3,1.3-4.8,1.3
		c-2.9,0-4.2-1.9-4.2-3.9h10V104.4z M426.2,102.8c0-0.9,0-4.2,2.6-4.2c2.1,0,2.7,2,2.7,4.2H426.2z M409.7,112.7h5.1v-7.6
		c0-2.5,0.4-5.1,3.3-5.1c0.7,0,1.2,0.1,1.7,0.2v-4.7h-0.7c-3,0-3.7,1.5-4.7,3.3h-0.1c0-1-0.1-2-0.1-3.1h-4.7
		c0.1,0.9,0.1,1.9,0.1,3.5V112.7z M395.7,99.4h2.8v8.6c0,3.7,2.3,5,5,5c1.7,0,3.1-0.3,3.6-0.5v-3.6c-0.5,0.2-1,0.4-1.7,0.4
		c-1,0-1.7-0.5-1.7-2.1v-7.8h3.3v-3.6h-3.3v-5.1l-5,1.6v3.5h-2.9V99.4z M388.3,112.7h5.1v-11.1c0-3.4-1.2-6.1-5-6.1
		c-2.7,0-4,1.2-4.8,3.1h-0.1c0-1.1-0.1-2.1-0.1-2.8h-4.7c0.1,0.9,0.1,1.9,0.1,3.5v13.4h5.1v-9.5c0-2.2,0.6-3.6,2.2-3.6
		c1,0,2,0.6,2,2.7V112.7z M362.5,112.7H376v-4h-8.4v-5.7h7.6v-4h-7.6V94h8v-4h-13.1V112.7z"/>
	<path class="st17" d="M771.9,33.5h1.6c0.8,0,1.3-0.1,1.6-0.3c0.3-0.2,0.4-0.5,0.4-0.9c0-0.2-0.1-0.5-0.2-0.7
		c-0.1-0.2-0.3-0.3-0.6-0.4c-0.2-0.1-0.7-0.1-1.3-0.1h-1.5V33.5z M770.6,38.1v-8.3h2.8c1,0,1.7,0.1,2.1,0.2c0.4,0.2,0.8,0.4,1,0.8
		c0.3,0.4,0.4,0.8,0.4,1.2c0,0.6-0.2,1.1-0.6,1.6s-1,0.7-1.7,0.8c0.3,0.1,0.5,0.3,0.7,0.4c0.3,0.3,0.7,0.9,1.2,1.6l1,1.6h-1.6
		l-0.7-1.3c-0.6-1-1-1.7-1.4-1.9c-0.2-0.2-0.6-0.3-1.1-0.3h-0.8v3.5H770.6z M774,27.5c-1.1,0-2.1,0.3-3.2,0.8
		c-1,0.6-1.8,1.3-2.4,2.4c-0.6,1-0.9,2.1-0.9,3.2c0,1.1,0.3,2.2,0.9,3.2c0.6,1,1.4,1.8,2.4,2.4c1,0.6,2.1,0.9,3.2,0.9
		c1.1,0,2.2-0.3,3.2-0.9c1-0.6,1.8-1.4,2.4-2.4c0.6-1,0.8-2.1,0.8-3.2c0-1.1-0.3-2.2-0.9-3.2c-0.6-1-1.4-1.8-2.4-2.4
		C776.1,27.7,775,27.5,774,27.5z M774,26.2c1.3,0,2.5,0.3,3.8,1c1.2,0.7,2.2,1.6,2.9,2.8c0.7,1.2,1,2.5,1,3.9c0,1.3-0.3,2.6-1,3.8
		c-0.7,1.2-1.6,2.2-2.8,2.8c-1.2,0.7-2.5,1-3.8,1c-1.3,0-2.6-0.3-3.8-1c-1.2-0.7-2.2-1.6-2.8-2.8c-0.7-1.2-1-2.5-1-3.8
		c0-1.3,0.3-2.6,1-3.9c0.7-1.2,1.6-2.2,2.9-2.8C771.4,26.5,772.7,26.2,774,26.2z"/>
</g>
</svg>
