<?xml version="1.0" encoding="utf-8"?>
<!-- Generator: Adobe Illustrator 22.1.0, SVG Export Plug-In . SVG Version: 6.00 Build 0)  -->
<svg version="1.1" baseProfile="basic" id="Layer_1"
	 xmlns="http://www.w3.org/2000/svg" xmlns:xlink="http://www.w3.org/1999/xlink" x="0px" y="0px" viewBox="0 0 307 101"
	 xml:space="preserve">
<g>
	<path fill="#F7941D" d="M277.8,4c-13,0-23.5,10.5-23.5,23.5c0,12.6,10,22.9,22.5,23.5c0.1-2.5,0.2-4.5,0.3-5.8
		c0.2-7.7-2.7-8.9-2.7-8.9c-7.3-6.2-3.5-15.3-3.1-16.9c0.4-1.7,6.2-17.5,13.3-4.1c7,13.3-1.6,20.7-1.8,20.9
		c-3.8,2.3-3.3,6.4-3.2,9.3c0,0.6,0.1,2.7,0.2,5.4c12.1-0.9,21.7-11.1,21.7-23.4C301.3,14.5,290.8,4,277.8,4L277.8,4z"/>
	<path fill="#D7DF23" d="M230.8,4c-13,0-23.5,10.5-23.5,23.5c0,11.6,8.4,21.3,19.5,23.1c-0.1-5.2-0.2-8.8-0.2-8.8
		c-4-20.2-0.2-28.5,2.3-30.6c2.5-2,3.1,0,3.1,0l-0.3,28.1c0,0-0.3,2.1-0.5,2.6c-0.3,1.5-0.4,4.8-0.2,9c12.8-0.2,23.1-10.6,23.1-23.5
		C254.3,14.5,243.8,4,230.8,4L230.8,4z"/>
	<path fill="#EE3B7B" d="M183.8,4c-13,0-23.5,10.5-23.5,23.5c0,12.7,10.1,23.1,22.8,23.5c0.1-4.7,0-8.5-0.4-10c0,0-0.3-2.9-2.9-5.5
		c0,0-2.3-3.3-1.6-7.6l1.6-16.5c0,0,0.5-0.5,0.7,0l0.2,14.7c0,0,0,0.8,0.7,0.8c0.7,0,0.5-0.5,0.4-0.8c0-0.2,0.5-14.8,0.5-14.8
		s0.5-0.6,0.7,0l0.5,14.5c0,0-0.1,0.9,0.7,0.9c0,0,0.5-0.1,0.4-1.1c-0.1-0.9,0-14.4,0-14.4s0.4-0.5,0.7-0.1l0.9,14.7
		c0,0,0,0.8,0.6,0.8c0.7,0,0.5-0.7,0.5-1c0-0.3-0.2-14.3-0.2-14.3s0.3-0.5,0.6-0.1l1.6,13c0,0,0.7,6.5-0.6,9.5
		c-0.2,0.5-1.2,2-1.5,2.3c-1.6,1.6-2.1,3.6-2.1,4.8c0,0.4,0.3,4.5,0.6,10c12.1-1,21.6-11.1,21.6-23.4C207.3,14.5,196.8,4,183.8,4
		L183.8,4z"/>
	<polygon fill="#EE3B7B" points="6,97 301.3,97 301.3,93.5 6,93.5 6,97 	"/>
	<polygon fill="#EE3B7B" points="6,54.2 301.3,54.2 301.3,50.7 6,50.7 6,54.2 	"/>
	<path d="M6,68.1h2.5v2.8c0.7-1.1,1.5-1.9,2.3-2.4c0.8-0.5,1.7-0.8,2.6-0.8c0.7,0,1.4,0.2,2.2,0.6l-1.3,2C13.8,70.1,13.4,70,13,70
		c-0.8,0-1.6,0.3-2.3,1c-0.8,0.7-1.3,1.7-1.7,3.1c-0.3,1.1-0.5,3.2-0.5,6.5v6.4H6V68.1L6,68.1z M33.5,80.7l2,1.1
		c-0.7,1.3-1.5,2.4-2.3,3.2c-0.9,0.8-1.9,1.4-3,1.8c-1.1,0.4-2.4,0.6-3.7,0.6c-3.1,0-5.5-1-7.2-3c-1.7-2-2.6-4.3-2.6-6.8
		c0-2.4,0.7-4.5,2.2-6.4c1.9-2.4,4.4-3.6,7.5-3.6c3.2,0,5.8,1.2,7.7,3.7c1.4,1.7,2.1,3.9,2.1,6.4H19.2c0,2.2,0.8,4,2.1,5.4
		c1.4,1.4,3,2.1,5,2.1c1,0,1.9-0.2,2.8-0.5c0.9-0.3,1.7-0.8,2.3-1.3C32.1,82.8,32.8,81.9,33.5,80.7L33.5,80.7z M33.6,75.6
		c-0.3-1.3-0.8-2.3-1.4-3.1c-0.6-0.8-1.5-1.4-2.5-1.9c-1-0.5-2.1-0.7-3.2-0.7c-1.9,0-3.5,0.6-4.8,1.8c-1,0.9-1.7,2.2-2.2,3.9H33.6
		L33.6,75.6z M50.2,70.1l-1.6,1.6c-1.3-1.3-2.6-1.9-3.8-1.9c-0.8,0-1.5,0.3-2,0.8c-0.6,0.5-0.8,1.1-0.8,1.8c0,0.6,0.2,1.2,0.7,1.7
		c0.5,0.6,1.4,1.2,2.9,2c1.8,0.9,3,1.8,3.7,2.7c0.6,0.9,1,1.9,1,3c0,1.6-0.5,2.9-1.6,3.9c-1.1,1.1-2.5,1.6-4.1,1.6
		c-1.1,0-2.1-0.2-3.1-0.7c-1-0.5-1.8-1.1-2.5-2l1.5-1.7c1.2,1.4,2.6,2.1,4,2.1c1,0,1.8-0.3,2.5-0.9c0.7-0.6,1-1.4,1-2.2
		c0-0.7-0.2-1.3-0.7-1.9c-0.5-0.5-1.5-1.2-3.1-2c-1.7-0.9-2.9-1.7-3.5-2.6c-0.6-0.9-0.9-1.8-0.9-2.9c0-1.4,0.5-2.6,1.5-3.6
		c1-0.9,2.2-1.4,3.7-1.4C46.7,67.6,48.5,68.4,50.2,70.1L50.2,70.1z M56.6,61H59v7h3.8v2.1H59v16.8h-2.4V70.2h-3.3v-2.1h3.3V61
		L56.6,61z M85.3,68.1v18.9h-2.4v-3.2c-1,1.2-2.2,2.2-3.4,2.8c-1.3,0.6-2.6,0.9-4.1,0.9c-2.7,0-4.9-1-6.8-2.9
		c-1.9-1.9-2.8-4.3-2.8-7.1c0-2.7,1-5,2.9-7c1.9-1.9,4.2-2.9,6.9-2.9c1.5,0,2.9,0.3,4.2,1c1.2,0.7,2.4,1.6,3.3,3v-3.5H85.3
		L85.3,68.1z M75.6,70c-1.4,0-2.6,0.3-3.7,1c-1.1,0.7-2,1.6-2.7,2.8c-0.7,1.2-1,2.5-1,3.8c0,1.3,0.3,2.6,1,3.8
		c0.7,1.2,1.6,2.1,2.7,2.8c1.1,0.7,2.4,1,3.7,1c1.3,0,2.6-0.3,3.8-1c1.2-0.7,2.1-1.6,2.7-2.7c0.6-1.1,1-2.4,1-3.8
		c0-2.2-0.7-4-2.2-5.5C79.5,70.7,77.7,70,75.6,70L75.6,70z M90.5,68.1h2.4v8.8c0,2.1,0.1,3.6,0.3,4.4c0.3,1.2,1,2.1,2,2.7
		c1,0.7,2.1,1,3.5,1s2.5-0.3,3.5-1c0.9-0.7,1.6-1.5,2-2.6c0.2-0.7,0.4-2.3,0.4-4.6v-8.8h2.5v9.3c0,2.6-0.3,4.6-0.9,5.9
		c-0.6,1.3-1.5,2.4-2.7,3.1c-1.2,0.7-2.7,1.1-4.6,1.1c-1.8,0-3.4-0.4-4.6-1.1c-1.2-0.7-2.2-1.8-2.8-3.1c-0.6-1.3-0.9-3.3-0.9-6V68.1
		L90.5,68.1z M111.5,68.1h2.5v2.8c0.7-1.1,1.5-1.9,2.3-2.4c0.8-0.5,1.7-0.8,2.6-0.8c0.7,0,1.4,0.2,2.2,0.6l-1.3,2
		c-0.5-0.2-0.9-0.3-1.3-0.3c-0.8,0-1.6,0.3-2.3,1c-0.8,0.7-1.3,1.7-1.7,3.1c-0.3,1.1-0.5,3.2-0.5,6.5v6.4h-2.5V68.1L111.5,68.1z
		 M141.9,68.1v18.9h-2.4v-3.2c-1,1.2-2.2,2.2-3.4,2.8c-1.3,0.6-2.6,0.9-4.1,0.9c-2.7,0-4.9-1-6.8-2.9c-1.9-1.9-2.8-4.3-2.8-7.1
		c0-2.7,1-5,2.9-7c1.9-1.9,4.2-2.9,6.9-2.9c1.5,0,2.9,0.3,4.2,1c1.2,0.7,2.4,1.6,3.3,3v-3.5H141.9L141.9,68.1z M132.2,70
		c-1.4,0-2.6,0.3-3.7,1c-1.1,0.7-2,1.6-2.7,2.8c-0.7,1.2-1,2.5-1,3.8c0,1.3,0.3,2.6,1,3.8c0.7,1.2,1.6,2.1,2.7,2.8
		c1.1,0.7,2.4,1,3.7,1c1.3,0,2.6-0.3,3.8-1c1.2-0.7,2.1-1.6,2.7-2.7c0.6-1.1,1-2.4,1-3.8c0-2.2-0.7-4-2.2-5.5
		C136,70.7,134.3,70,132.2,70L132.2,70z M147.4,68.1h2.4v3.4c1-1.3,2.1-2.3,3.2-2.9c1.2-0.6,2.5-1,3.9-1c1.4,0,2.7,0.4,3.8,1.1
		c1.1,0.7,1.9,1.7,2.4,2.9c0.5,1.2,0.8,3.1,0.8,5.7v9.7h-2.4v-9c0-2.2-0.1-3.6-0.3-4.3c-0.3-1.2-0.8-2.2-1.6-2.8
		c-0.8-0.6-1.8-0.9-3.1-0.9c-1.5,0-2.8,0.5-4,1.5c-1.2,1-1.9,2.2-2.3,3.6c-0.2,0.9-0.3,2.6-0.3,5.1v6.9h-2.4V68.1L147.4,68.1z
		 M171.1,61h2.4v7h3.8v2.1h-3.8v16.8h-2.4V70.2h-3.3v-2.1h3.3V61L171.1,61z M182.6,60.3c0.8,0,1.5,0.3,2.1,0.9
		c0.6,0.6,0.9,1.3,0.9,2.2c0,0.8-0.3,1.6-0.9,2.1c-0.6,0.6-1.3,0.9-2.1,0.9c-0.8,0-1.6-0.3-2.2-0.9c-0.6-0.6-0.9-1.3-0.9-2.2
		c0-0.8,0.3-1.5,0.9-2.1C181.1,60.6,181.8,60.3,182.6,60.3L182.6,60.3z M180.3,68.1h4.7v18.9h-4.7V68.1L180.3,68.1z M189.3,68.1h4.7
		V70c1.1-0.9,2-1.5,2.9-1.9c0.9-0.3,1.8-0.5,2.7-0.5c1.9,0,3.5,0.7,4.8,2c1.1,1.1,1.6,2.8,1.6,4.9v12.5h-4.7v-8.2
		c0-2.3-0.1-3.7-0.3-4.5c-0.2-0.7-0.6-1.3-1.1-1.7c-0.5-0.4-1.1-0.6-1.9-0.6c-1,0-1.8,0.3-2.5,1c-0.7,0.6-1.2,1.5-1.4,2.7
		c-0.1,0.6-0.2,1.9-0.2,3.8v7.6h-4.7V68.1L189.3,68.1z M224.6,60.8h4.7v26.2h-4.7v-2c-0.9,0.9-1.9,1.5-2.8,1.9
		c-0.9,0.4-1.9,0.6-3,0.6c-2.4,0-4.6-0.9-6.3-2.8c-1.8-1.9-2.7-4.2-2.7-7c0-2.9,0.9-5.3,2.6-7.1c1.7-1.9,3.8-2.8,6.3-2.8
		c1.1,0,2.2,0.2,3.2,0.6c1,0.4,1.9,1.1,2.8,1.9V60.8L224.6,60.8z M219.6,71.9c-1.5,0-2.7,0.5-3.7,1.6c-1,1-1.5,2.4-1.5,4
		c0,1.6,0.5,3,1.5,4c1,1,2.2,1.6,3.6,1.6c1.5,0,2.7-0.5,3.7-1.6c1-1,1.5-2.4,1.5-4.1c0-1.6-0.5-3-1.5-4
		C222.3,72.5,221.1,71.9,219.6,71.9L219.6,71.9z M236,60.3c0.8,0,1.5,0.3,2.1,0.9c0.6,0.6,0.9,1.3,0.9,2.2c0,0.8-0.3,1.6-0.9,2.1
		c-0.6,0.6-1.3,0.9-2.1,0.9c-0.8,0-1.6-0.3-2.2-0.9c-0.6-0.6-0.9-1.3-0.9-2.2c0-0.8,0.3-1.5,0.9-2.1C234.4,60.6,235.1,60.3,236,60.3
		L236,60.3z M233.6,68.1h4.7v18.9h-4.7V68.1L233.6,68.1z M256.6,68.1h4.7v18.9h-4.7v-2c-0.9,0.9-1.9,1.5-2.8,1.9
		c-0.9,0.4-1.9,0.6-3,0.6c-2.4,0-4.6-0.9-6.3-2.8c-1.8-1.9-2.7-4.2-2.7-7c0-2.9,0.9-5.3,2.6-7.1c1.7-1.9,3.8-2.8,6.3-2.8
		c1.1,0,2.2,0.2,3.2,0.6c1,0.4,1.9,1.1,2.8,1.9V68.1L256.6,68.1z M251.6,71.9c-1.5,0-2.7,0.5-3.7,1.6c-1,1-1.5,2.4-1.5,4
		c0,1.6,0.5,3,1.5,4c1,1,2.2,1.6,3.6,1.6c1.5,0,2.7-0.5,3.7-1.6c1-1,1.5-2.4,1.5-4.1c0-1.6-0.5-3-1.5-4
		C254.3,72.5,253.1,71.9,251.6,71.9L251.6,71.9z M268.6,82c0.8,0,1.4,0.3,1.9,0.8c0.5,0.5,0.8,1.2,0.8,1.9c0,0.8-0.3,1.4-0.8,1.9
		c-0.5,0.5-1.2,0.8-1.9,0.8c-0.8,0-1.4-0.3-1.9-0.8c-0.5-0.5-0.8-1.2-0.8-1.9c0-0.8,0.3-1.4,0.8-1.9C267.2,82.2,267.9,82,268.6,82
		L268.6,82z M277.9,60.3c0.8,0,1.5,0.3,2.1,0.9c0.6,0.6,0.9,1.3,0.9,2.2c0,0.8-0.3,1.6-0.9,2.1c-0.6,0.6-1.3,0.9-2.1,0.9
		c-0.8,0-1.6-0.3-2.2-0.9c-0.6-0.6-0.9-1.3-0.9-2.2c0-0.8,0.3-1.5,0.9-2.1C276.3,60.6,277,60.3,277.9,60.3L277.9,60.3z M275.5,68.1
		h4.7v18.9h-4.7V68.1L275.5,68.1z M284.5,68.1h4.7V70c1.1-0.9,2-1.5,2.9-1.9c0.9-0.3,1.8-0.5,2.7-0.5c1.9,0,3.5,0.7,4.8,2
		c1.1,1.1,1.6,2.8,1.6,4.9v12.5h-4.7v-8.2c0-2.3-0.1-3.7-0.3-4.5c-0.2-0.7-0.6-1.3-1.1-1.7c-0.5-0.4-1.1-0.6-1.9-0.6
		c-1,0-1.8,0.3-2.5,1c-0.7,0.6-1.2,1.5-1.4,2.7c-0.1,0.6-0.2,1.9-0.2,3.8v7.6h-4.7V68.1L284.5,68.1z"/>
</g>
</svg>
