<svg xmlns="http://www.w3.org/2000/svg" width="30" height="30" viewBox="0 0 30 30"><defs><style>.a{fill:#00ade8;}.b{fill:#fff;}</style></defs><g transform="translate(-844 -523)"><rect class="a" width="30" height="30" transform="translate(844 523)"/><path class="b" d="M25.58,19.009a6.594,6.594,0,0,1-1.842.51,3.136,3.136,0,0,0,1.411-1.784,6.769,6.769,0,0,1-2.038.784,3.217,3.217,0,0,0-5.566,2.2,2.939,2.939,0,0,0,.078.725,9.048,9.048,0,0,1-6.605-3.352A3.226,3.226,0,0,0,12,22.38a3.086,3.086,0,0,1-1.45-.392,3.248,3.248,0,0,0,2.568,3.195,3.528,3.528,0,0,1-1.45.059,3.228,3.228,0,0,0,3,2.234A6.476,6.476,0,0,1,9.9,28.809a9.134,9.134,0,0,0,14.073-7.683,2.9,2.9,0,0,0-.02-.412,6.38,6.38,0,0,0,1.627-1.705Z" transform="translate(841.42 514.5)"/></g></svg>