<svg xmlns="http://www.w3.org/2000/svg" width="25" height="25" viewBox="0 0 25 25">
  <g id="twitter" transform="translate(-844 -523)">
    <rect id="Rectangle_3520" data-name="Rectangle 3520" width="25" height="25" transform="translate(844 523)" fill="#00ade8"/>
    <path id="_x30_4.Twitter" d="M21.818,18.647a5.012,5.012,0,0,1-1.4.387,2.383,2.383,0,0,0,1.073-1.356,5.145,5.145,0,0,1-1.549.6,2.445,2.445,0,0,0-4.231,1.669,2.234,2.234,0,0,0,.06.551,6.877,6.877,0,0,1-5.02-2.547,2.452,2.452,0,0,0,.745,3.263,2.346,2.346,0,0,1-1.1-.3,2.469,2.469,0,0,0,1.952,2.428,2.682,2.682,0,0,1-1.1.045,2.453,2.453,0,0,0,2.279,1.7A4.922,4.922,0,0,1,9.9,26.1a6.943,6.943,0,0,0,10.7-5.84,2.2,2.2,0,0,0-.015-.313,4.849,4.849,0,0,0,1.236-1.3Z" transform="translate(841.1 513.5)" fill="#fff"/>
  </g>
</svg>
