<svg xmlns="http://www.w3.org/2000/svg" width="10.386" height="13.104" viewBox="0 0 10.386 13.104">
  <g id="user" transform="translate(-41.927)">
    <g id="Group_3236" data-name="Group 3236" transform="translate(41.927)">
      <g id="Group_3235" data-name="Group 3235" transform="translate(0)">
        <path id="Path_662" data-name="Path 662" d="M113.171,6.8a2.7,2.7,0,0,0,2.135-1.327,4.557,4.557,0,0,0,.846-2.5,2.981,2.981,0,1,0-5.962,0,4.557,4.557,0,0,0,.846,2.5A2.7,2.7,0,0,0,113.171,6.8Zm0-6.318a2.5,2.5,0,0,1,2.495,2.495,4.114,4.114,0,0,1-.758,2.218,1.907,1.907,0,0,1-3.474,0,4.114,4.114,0,0,1-.758-2.218A2.5,2.5,0,0,1,113.171.486Z" transform="translate(-107.978)" fill="#148c04"/>
        <path id="Path_663" data-name="Path 663" d="M51.489,194.223a5.2,5.2,0,0,0-2.138-1.882.243.243,0,0,0-.276.047,2.584,2.584,0,0,1-3.907,0,.243.243,0,0,0-.276-.047,5.193,5.193,0,0,0-2.963,4.691v0a.243.243,0,0,0,.08.18,7.614,7.614,0,0,0,10.227,0,.243.243,0,0,0,.08-.18v0A5.174,5.174,0,0,0,51.489,194.223ZM47.12,198.7a7.111,7.111,0,0,1-4.706-1.774,4.707,4.707,0,0,1,2.536-4.074,3.036,3.036,0,0,0,4.34,0,4.706,4.706,0,0,1,2.536,4.074A7.111,7.111,0,0,1,47.12,198.7Z" transform="translate(-41.927 -186.085)" fill="#148c04"/>
      </g>
    </g>
  </g>
</svg>
