<svg xmlns="http://www.w3.org/2000/svg" xmlns:xlink="http://www.w3.org/1999/xlink" viewBox="0 0 322.94 51"><defs><style>.cls-1,.cls-6{fill:#ed1c24;}.cls-1,.cls-2,.cls-3{fill-rule:evenodd;}.cls-2,.cls-8{fill:#fff;}.cls-3,.cls-5{fill:#231f20;}.cls-4{fill:#515151;}.cls-7{fill:#ec2027;}.cls-9{fill:#000d17;}.cls-10{fill:url(#linear-gradient);}.cls-11{fill:#b30a25;opacity:0.5;}.cls-11,.cls-17{isolation:isolate;}.cls-12{fill:#dbdbdb;}.cls-13{fill:#919191;}.cls-14{fill:#774f1b;}.cls-15{fill:#f73011;}.cls-16{fill:#ff624a;}.cls-17{fill:#ffe4e1;opacity:0.7;}</style><linearGradient id="linear-gradient" x1="-31.43" y1="660.63" x2="-23.52" y2="660.63" gradientTransform="matrix(0.99, -0.5, -0.45, -0.89, 330.07, 584.6)" gradientUnits="userSpaceOnUse"><stop offset="0.01" stop-color="#b30a25"/><stop offset="1" stop-color="#ff1d31"/></linearGradient></defs><g id="Layer_2" data-name="Layer 2"><g id="Layer_1-2" data-name="Layer 1"><g id="Layer_2-2" data-name="Layer 2"><g id="Layer_1-2-2" data-name="Layer 1-2"><path class="cls-1" d="M120.78,26.24c1.22,0,1.74-.59,1.74-1.76a7.14,7.14,0,0,0-14.28-.12c0,.19,0,.38,0,.57a7.22,7.22,0,0,0,6.81,7.61h.65c2.93,0,6.48-1.65,6.48-3.36a1.78,1.78,0,0,0-1.61-1.69c-1,0-2.46,1.6-4.5,1.6a3.41,3.41,0,0,1-3.75-2.85Z"/><path class="cls-2" d="M112.22,23.6a3.2,3.2,0,0,1,3.15-3,3.14,3.14,0,0,1,3.18,3Z"/><path class="cls-1" d="M107.36,20.12c0-2-3-2.87-5-2.87-3.14,0-5.38,1.87-5.38,4.6,0,4.54,6.9,4.26,6.9,6.08,0,.74-.36,1.13-1.57,1.13-1.88,0-2.57-1.35-4.1-1.35a1.87,1.87,0,0,0-1.71,1.76c0,1.8,3.31,3.07,5.54,3.07,3.43,0,5.64-2,5.64-4.65,0-4.52-6.9-4.24-6.9-6.08,0-.78.63-1.1,1.35-1.1,1.3,0,2.82,1.15,3.59,1.15a1.71,1.71,0,0,0,1.61-1.72Z"/><path class="cls-1" d="M63,30.21a2,2,0,1,0,4,.4,2.67,2.67,0,0,0,0-.4V23.32a2.57,2.57,0,0,1,5.13-.3v7.19a2,2,0,1,0,4,.4,1.34,1.34,0,0,0,0-.4V22.62a5.09,5.09,0,0,0-4.81-5.34h0c-.21,0-.42,0-.62,0A4.76,4.76,0,0,0,67,18.65h0V13.26a2,2,0,0,0-4-.41,2.81,2.81,0,0,0,0,.41Z"/><path class="cls-1" d="M61.6,19.78c0-1.93-3.28-2.51-4.86-2.51a7.38,7.38,0,0,0-7.12,7.63v0a7.21,7.21,0,0,0,6.8,7.6h.32c1.43,0,4.86-.68,4.86-2.72a1.75,1.75,0,0,0-1.71-1.73,21.36,21.36,0,0,1-2.94.82A3.65,3.65,0,0,1,53.6,25h0a0,0,0,0,1,0-.05c0-2.06,1.07-4.05,3.34-4.05,1.26,0,2.15.78,3.14.78S61.6,20.61,61.6,19.78Z"/><path class="cls-1" d="M34.85,30.21a2,2,0,0,0,4,.4,2.67,2.67,0,0,0,0-.4V23.32A2.58,2.58,0,0,1,44,23v7.19a2,2,0,1,0,4,.4,2.67,2.67,0,0,0,0-.4V22.62a5.1,5.1,0,0,0-4.84-5.34h0a5.8,5.8,0,0,0-.59,0A4.29,4.29,0,0,0,38.7,18.9a1.67,1.67,0,0,0-1.82-1.46,2,2,0,0,0-2,2v.17Z"/><path class="cls-1" d="M32.62,20c0-1,0-2.59-1.9-2.59a1.89,1.89,0,0,0-1.9,1.66A4.52,4.52,0,0,0,25,17.28c-3.65,0-6.57,3.33-6.57,7.66s2.84,7.62,6.57,7.62a4.74,4.74,0,0,0,3.78-1.84c.27,1,.74,1.68,1.9,1.68,1.9,0,1.9-1.57,1.9-2.59Z"/><path class="cls-2" d="M22.45,25c0-1.9,1-4,3.14-4s3.08,2.14,3.08,4-1,4-3.08,4-3.15-2.09-3.15-4Z"/><path class="cls-1" d="M9.82,30.21a2,2,0,1,0,4,.4,1.34,1.34,0,0,0,0-.4V24.13c0-1.57,1.22-2.1,2.4-2.65s2.38-.63,2.38-1.93a1.94,1.94,0,0,0-1.75-2.11h-.2a3.14,3.14,0,0,0-2.78,1.66h-.05c0-1.26-.88-1.65-1.93-1.65a2,2,0,0,0-2,1.85h0v10.9Z"/><path class="cls-1" d="M2.65,30.21a2,2,0,0,0,4,.44v0a2.67,2.67,0,0,0,0-.4V21.07H7.86c1.17,0,2-.51,2-1.73s-.83-1.73-2-1.73H6.61V16c0-1.47.66-1.47,1.32-1.47,1.1,0,1.63-.51,1.63-1.68C9.56,11.46,8.21,11,6.8,11a4,4,0,0,0-4.19,3.87h0a3.49,3.49,0,0,0,0,.65v2.06H1.77A1.68,1.68,0,0,0,0,19.25H0v.08a1.6,1.6,0,0,0,1.46,1.73H2.65Z"/><path id="Path_6" data-name="Path 6" class="cls-3" d="M218.58,30.21a2,2,0,1,0,4,.39h0a1.27,1.27,0,0,0,0-.39V23.32c0-1.59.72-2.72,2.35-2.72,1.44,0,2.32,1.13,2.32,2.72v6.89a2,2,0,0,0,4,.4,1.34,1.34,0,0,0,0-.4V23.32a2.39,2.39,0,0,1,2.06-2.7,1.42,1.42,0,0,1,.29,0c1.47,0,2.35,1.1,2.35,2.72v6.89a2,2,0,0,0,4,.44v0a2.67,2.67,0,0,0,0-.4V22.62a5,5,0,0,0-4.56-5.34h0a4.31,4.31,0,0,0-.88,0,6,6,0,0,0-4.18,2,5.07,5.07,0,0,0-4.1-2,4.93,4.93,0,0,0-3.7,1.64,1.68,1.68,0,0,0-1.82-1.49,2,2,0,0,0-2,2h0v.16ZM209.8,20.9c2.18,0,3.14,2.15,3.14,4.05s-1,4-3.14,4-3.14-2.09-3.14-4S207.62,20.9,209.8,20.9Zm0-3.63a7.38,7.38,0,0,0-7.12,7.63h0v0a7.13,7.13,0,0,0,14.23,1h0a8.51,8.51,0,0,0,0-1,7.38,7.38,0,0,0-7-7.68Zm-7.91,2.5c0-1.92-3.28-2.5-4.86-2.5a7.37,7.37,0,0,0-7.12,7.62h0v0a7.22,7.22,0,0,0,6.8,7.61H197c1.44,0,4.86-.69,4.86-2.72a1.73,1.73,0,0,0-1.71-1.73,22.86,22.86,0,0,1-2.94.82A3.64,3.64,0,0,1,193.9,25h0v-.05c0-2.06,1.07-4.05,3.33-4.05,1.28,0,2.15.78,3.15.78s1.52-1.06,1.52-1.89ZM183.53,30.42a2.16,2.16,0,1,0,2.16-2.15h0a2.16,2.16,0,0,0-2.16,2.15ZM170.68,25c0-1.9,1-4.05,3.15-4.05s3.07,2.15,3.07,4.05-1,4-3.07,4-3.15-2.08-3.15-4ZM180.86,20c0-1,0-2.59-1.9-2.59a1.89,1.89,0,0,0-1.9,1.67,4.54,4.54,0,0,0-3.79-1.82c-3.64,0-6.57,3.33-6.57,7.66s2.85,7.62,6.57,7.62a4.79,4.79,0,0,0,3.79-1.84c.27,1,.74,1.68,1.9,1.68,1.9,0,1.9-1.57,1.9-2.59ZM163.11,11.5a2.3,2.3,0,0,0-2.24,2.17A2.33,2.33,0,0,0,163.11,16a2.23,2.23,0,0,0,0-4.46Zm-2,18.71a2,2,0,1,0,4,.45v0a2.81,2.81,0,0,0,0-.41V19.64a2,2,0,1,0-4-.47.17.17,0,0,0,0,.07,1.34,1.34,0,0,0,0,.4ZM155,24.81c0,1.93-.93,4.12-3.12,4.12s-3.07-2.15-3.07-4,1-4.05,3.07-4.05,3.1,2,3.1,3.91Zm4-11.55a2,2,0,1,0-4-.41,2.81,2.81,0,0,0,0,.41v5.39a5.82,5.82,0,0,0-3.78-1.37c-4.27,0-6.4,4-6.4,7.84s2.56,7.46,6.54,7.46A4.32,4.32,0,0,0,155,30.76a1.9,1.9,0,0,0,2,1.65,2,2,0,0,0,2-2h0v-.19ZM130,30.21a2,2,0,0,0,4,.4,2.67,2.67,0,0,0,0-.4V23.32a2.58,2.58,0,0,1,5.16-.3v7.19a2,2,0,0,0,4,.4,2.67,2.67,0,0,0,0-.4V22.62a5.09,5.09,0,0,0-4.81-5.34q-.31,0-.63,0a4.28,4.28,0,0,0-3.82,1.63A1.66,1.66,0,0,0,132,17.44a2,2,0,0,0-2,2h0v.19Zm-4.18-18.72a2.3,2.3,0,0,0-2.24,2.18A2.32,2.32,0,0,0,125.85,16a2.23,2.23,0,0,0,0-4.45h0Zm-2,18.72a2,2,0,1,0,4,.4h0a1.34,1.34,0,0,0,0-.4V19.63a2,2,0,1,0-4-.4,1.34,1.34,0,0,0,0,.4Z"/><path id="Path_7" data-name="Path 7" class="cls-3" d="M227.61,42.38c0-3.34-2.2-3.34-2.78-3.34a3.31,3.31,0,0,0,.41,6.59,6,6,0,0,0,2-.37l0-1.47a4,4,0,0,1-1.81.52,1.43,1.43,0,0,1-1.58-1.26h0a.67.67,0,0,1,0-.2h3.77Zm-3.77-.59c0-.34,0-1.57,1-1.57.8,0,1,.76,1,1.57Zm-3.08-2.49a6,6,0,0,0-1.78-.25c-1.91,0-2.4,1.22-2.4,1.91a2,2,0,0,0,1.35,2c.84.34,1.34.46,1.34.75s-.06.59-1,.59a3.34,3.34,0,0,1-1.6-.44l0,1.5a7.14,7.14,0,0,0,2.11.31c1.29,0,2.35-.56,2.35-2a1.79,1.79,0,0,0-1.35-1.86c-1-.4-1.33-.51-1.33-.92,0-.23.22-.47.72-.47a4,4,0,0,1,1.56.35Zm-9.07,3c0-1.25.3-2,1-2s1,.7,1,2-.32,2-1,2-1-.74-1-2Zm-2,0a3,3,0,1,0,3-3.27,2.89,2.89,0,0,0-3,2.75,3,3,0,0,0,0,.52Zm-5.89-3.85h.51c1.54,0,2.23,1.09,2.23,2.85,0,1.54-.65,2.72-2.11,2.72h-.63Zm-2,7h2.79A3.84,3.84,0,0,0,208.67,42h0a3.42,3.42,0,0,0,0-.64c0-3.23-1.9-4.35-3.83-4.35h-3.07Zm-4.05-6.37h-1.9l-1.13,4.35h0l-1.22-4.33h-2l2.23,6.38c0,.56-.29,1.28-1,1.28a1.22,1.22,0,0,1-.62-.16L192,48.1a4.71,4.71,0,0,0,1.18.15c1.08,0,1.76-.63,2.24-2.13Zm-9,6.4h1.94V36.35h-1.94Zm-3.41-7.47h1.94V36.35h-1.94Zm0,7.47h1.94V39.17h-1.94Zm-3.17-2.71c0,1.53-1,1.58-1.16,1.58a.74.74,0,0,1-.83-.65h0a.54.54,0,0,1,0-.18c0-1.07,1.22-1.12,2-1.12Zm-3-1.94a3.29,3.29,0,0,1,1.78-.56c.29,0,1.19,0,1.19,1.23h-.58c-.68,0-3.18,0-3.18,2.15a1.86,1.86,0,0,0,1.74,1.94h.24a1.89,1.89,0,0,0,1.76-1h0l.05.89H184c0-.43,0-.86,0-1.81V41.42c0-1.43-.51-2.35-2.77-2.35a7.67,7.67,0,0,0-2.06.4Zm-6.58-2.41h.51c1.56,0,2.24,1.09,2.24,2.85,0,1.54-.65,2.72-2.12,2.72h-.64Zm-2,7.06h2.78A3.84,3.84,0,0,0,177.48,42a3.64,3.64,0,0,0,0-.66c0-3.23-1.91-4.35-3.84-4.35h-3.07Zm-4.7-6.23a6,6,0,0,0-1.78-.25c-1.91,0-2.4,1.22-2.4,1.91a2,2,0,0,0,1.34,2c.84.35,1.35.47,1.35.76s-.07.58-1,.58a3.16,3.16,0,0,1-1.59-.43l-.06,1.5a6.82,6.82,0,0,0,2.11.3c1.29,0,2.35-.55,2.35-2a1.79,1.79,0,0,0-1.35-1.87c-1.05-.39-1.34-.51-1.34-.92,0-.22.22-.46.73-.46a3.84,3.84,0,0,1,1.53.35Zm-6.89.22h1.44l1-3.18h-1.87Zm-4.51,6h1.94V42.68c0-.93.14-1.91,1.27-1.91a3,3,0,0,1,.66.07V39.06h-.3c-1.12,0-1.39.56-1.78,1.24h0c0-.38,0-.77-.06-1.15h-1.82a10,10,0,0,1,.05,1.34Zm-1.36-6.37h-1.94v3.57c0,.83-.22,1.36-.86,1.36-.39,0-.74-.2-.74-1V39.16h-1.94v4.19c0,1.27.46,2.3,1.88,2.3a1.76,1.76,0,0,0,1.81-1.18h0a5.45,5.45,0,0,0,0,1.07h1.76a11.83,11.83,0,0,1,0-1.33Zm-6.63,3.23c0-3.34-2.2-3.34-2.78-3.34a3.31,3.31,0,0,0,.41,6.59,6.24,6.24,0,0,0,2-.37l0-1.47a4,4,0,0,1-1.81.51,1.43,1.43,0,0,1-1.58-1.26v-.2h3.77Zm-3.77-.59c0-.35,0-1.57,1-1.57.8,0,1,.76,1,1.57Zm-5,3.73h1.94V41.35c0-1.28-.47-2.3-1.88-2.3A1.74,1.74,0,0,0,136,40.22h0c0-.43,0-.79-.05-1.07h-1.77a12,12,0,0,1,.05,1.34v5h1.95V42c0-.82.22-1.36.84-1.36.4,0,.76.2.76,1ZM133,42.39c0-3.33-2.19-3.33-2.77-3.33a3.31,3.31,0,0,0,.4,6.58,6,6,0,0,0,2.06-.37l0-1.47a3.82,3.82,0,0,1-1.8.51,1.41,1.41,0,0,1-1.58-1.25h0v-.21h3.78Zm-3.76-.59c0-.34,0-1.57,1-1.57.8,0,1,.76,1,1.57ZM123,45.54H125V42.68c0-.93.14-1.91,1.27-1.91a3,3,0,0,1,.66.07V39.06h-.3c-1.12,0-1.39.56-1.78,1.24h0c0-.38,0-.77,0-1.15H123c0,.44.05.89.05,1.34Zm-3.21-3.2c0,1-.08,2-.93,2s-1-1-1-2c0-.74.17-1.89,1-1.89s.92,1.23.92,1.89ZM116,48.19h1.94V44.6h0a1.63,1.63,0,0,0,1.64,1c1.61,0,2.25-1.43,2.25-3.15,0-2.06-.81-3.44-2.25-3.44a1.84,1.84,0,0,0-1.75,1.14h0a8.71,8.71,0,0,0,0-1h-1.84c0,.29,0,.62,0,1.43Zm-1.15-5.8c0-3.34-2.2-3.34-2.78-3.34a3.31,3.31,0,0,0,.41,6.59,6.19,6.19,0,0,0,2-.37l-.06-1.47a3.94,3.94,0,0,1-1.81.51,1.42,1.42,0,0,1-1.57-1.26.67.67,0,0,1,0-.2h3.76Zm-3.76-.59c0-.35,0-1.57,1-1.57.8,0,1,.76,1,1.57Zm-6.26,3.74h1.95V42.68c0-.93.13-1.91,1.27-1.91a2.88,2.88,0,0,1,.65.07V39.06h-.3c-1.12,0-1.39.56-1.78,1.24h0c0-.38,0-.77,0-1.15h-1.76c0,.44,0,.89,0,1.34Zm-5.29-5h1.09v3.25a1.7,1.7,0,0,0,1.5,1.89,1.21,1.21,0,0,0,.38,0,4.72,4.72,0,0,0,1.35-.17V44.1a1.42,1.42,0,0,1-.64.14c-.37,0-.65-.17-.65-.8V40.5h1.26V39.16h-1.26V37.23l-1.94.59v1.32H99.48Zm-2.79,5h2V41.35c0-1.28-.46-2.31-1.88-2.31A1.75,1.75,0,0,0,95,40.22h0a6.39,6.39,0,0,0,0-1.07H93.15c0,.45,0,.89,0,1.34v5h2V42c0-.82.22-1.36.84-1.36.4,0,.76.2.76,1Zm-9.79,0H92V44H88.9V41.88h2.87V40.39H88.9V38.48h3V37h-5Z"/><path id="Path_8" data-name="Path 8" class="cls-3" d="M241.87,15.62h.62a1,1,0,0,0,.59-.13.41.41,0,0,0,.15-.35.45.45,0,0,0-.07-.25.48.48,0,0,0-.22-.15,1.25,1.25,0,0,0-.51-.05h-.59Zm-.51,1.76V14.25h1.07a2.69,2.69,0,0,1,.8.09.73.73,0,0,1,.39.3.83.83,0,0,1-.07,1,.93.93,0,0,1-.65.29,1,1,0,0,1,.27.17,4,4,0,0,1,.46.62l.39.62h-.62l-.28-.51a2.61,2.61,0,0,0-.51-.72.64.64,0,0,0-.4-.11h-.3v1.33Zm1.27-4a2.5,2.5,0,0,0-1.19.3,2.23,2.23,0,0,0-.91.89,2.41,2.41,0,0,0,0,2.41,2.27,2.27,0,0,0,.89.9,2.41,2.41,0,0,0,2.41,0,2.24,2.24,0,0,0,.88-.9,2.4,2.4,0,0,0,.35-1.2,2.46,2.46,0,0,0-.32-1.21,2.23,2.23,0,0,0-.91-.89,2.55,2.55,0,0,0-1.21-.3Zm0-.48a3,3,0,0,1,1.44.37,2.74,2.74,0,0,1,1.08,1.08,2.87,2.87,0,0,1,0,2.89,2.65,2.65,0,0,1-1.08,1.07,2.92,2.92,0,0,1-2.89,0,2.65,2.65,0,0,1-1.08-1.07,2.94,2.94,0,0,1-.39-1.44,3.05,3.05,0,0,1,.39-1.45,2.7,2.7,0,0,1,1.09-1.08,3,3,0,0,1,1.44-.37Z"/><polygon class="cls-4" points="259.64 12.61 247.53 14.78 250.74 18.63 247.65 23.59 257.47 21.99 259.64 12.61"/><polygon class="cls-5" points="281.63 11.89 281.63 20.68 255.12 25.38 255.12 16.58 281.63 11.89"/><polygon class="cls-6" points="259.64 12.61 259.82 15.75 255.12 16.58 259.64 12.61"/><polygon class="cls-4" points="308.78 46.87 322.94 44.34 319.18 39.83 322.8 34.05 311.32 35.91 308.78 46.87"/><polygon class="cls-5" points="283.08 47.71 283.08 37.44 314.06 31.96 314.06 42.23 283.08 47.71"/><polygon class="cls-6" points="308.78 46.87 308.57 43.2 314.06 42.23 308.78 46.87"/><path class="cls-6" d="M263.27,29.81a1.49,1.49,0,0,0-1.42-.37c-1.28.19-1.92,1.06-1.91,2.6v2.52l-3.5.53V32.8a7.07,7.07,0,0,1,1.41-4.59,6.24,6.24,0,0,1,4.1-2.15A4.71,4.71,0,0,1,266,27a5.4,5.4,0,0,1,1.41,4.17,10.6,10.6,0,0,1-.65,3.74A15.34,15.34,0,0,1,265.24,38c-.61.89-1.39,1.94-2.35,3.14a33.52,33.52,0,0,0-2.12,2.93,4.26,4.26,0,0,0-.67,2.19,4,4,0,0,0,0,.49l7-1.05v3.36l-10.68,1.61V47.77a8.62,8.62,0,0,1,.51-3,11.28,11.28,0,0,1,1.24-2.45c.49-.73,1.14-1.59,1.94-2.58s1.48-1.91,1.95-2.59a10.56,10.56,0,0,0,1.18-2.38,8.68,8.68,0,0,0,.49-2.94A2.83,2.83,0,0,0,263.27,29.81Z"/><path class="cls-7" d="M256.15,51V47.77a8.91,8.91,0,0,1,.52-3.11A11.5,11.5,0,0,1,258,42.14c.49-.73,1.15-1.6,2-2.59s1.47-1.9,1.93-2.58A9.74,9.74,0,0,0,263,34.66a8.34,8.34,0,0,0,.47-2.84c0-1.14-.19-1.61-.39-1.81h0a1.23,1.23,0,0,0-1.17-.28c-1.13.17-1.66.91-1.66,2.31v2.77l-4.08.62V32.8A7.37,7.37,0,0,1,257.63,28a6.5,6.5,0,0,1,4.27-2.26,5,5,0,0,1,4.34,1,5.74,5.74,0,0,1,1.51,4.38,10.94,10.94,0,0,1-.68,3.84,14.7,14.7,0,0,1-1.59,3.17c-.61.9-1.4,2-2.36,3.16a33,33,0,0,0-2.1,2.91,3.87,3.87,0,0,0-.62,2v.16l7-1.06V49.3Zm7.33-21.39a3,3,0,0,1,.56,2.22,8.9,8.9,0,0,1-.5,3,11,11,0,0,1-1.21,2.45c-.48.69-1.14,1.57-2,2.61s-1.44,1.85-1.93,2.56a11.18,11.18,0,0,0-1.21,2.39,8.5,8.5,0,0,0-.48,2.91v2.55l10.08-1.53V46l-6.93,1-.05-.29a3.38,3.38,0,0,1,0-.55,4.47,4.47,0,0,1,.72-2.33,31.42,31.42,0,0,1,2.13-3c.95-1.18,1.74-2.23,2.33-3.12a14.44,14.44,0,0,0,1.53-3,10.26,10.26,0,0,0,.64-3.64,5.17,5.17,0,0,0-1.32-3.95,4.46,4.46,0,0,0-3.85-.84,6,6,0,0,0-3.91,2,6.86,6.86,0,0,0-1.34,4.41v1.94l2.9-.44V32c0-2.12,1.18-2.74,2.16-2.89A1.76,1.76,0,0,1,263.48,29.61Z"/><path class="cls-6" d="M270.85,26.26A6.37,6.37,0,0,1,275,24.09a4.82,4.82,0,0,1,4.16.91,5.4,5.4,0,0,1,1.44,4.15V41.37A7,7,0,0,1,279.17,46,6.39,6.39,0,0,1,275,48.12a4.81,4.81,0,0,1-4.17-.91,5.4,5.4,0,0,1-1.44-4.15V30.85A7,7,0,0,1,270.85,26.26ZM275,44.77c1.28-.19,1.92-1.06,1.92-2.6V29.47c0-1.54-.64-2.22-1.92-2s-1.91,1.06-1.91,2.6V42.74c0,1.54.64,2.22,1.93,2Z"/><path class="cls-7" d="M273.82,48.51a4.48,4.48,0,0,1-3.16-1.09,5.67,5.67,0,0,1-1.53-4.36V30.85a7.26,7.26,0,0,1,1.49-4.77h0A6.67,6.67,0,0,1,275,23.8a5.12,5.12,0,0,1,4.4,1,5.68,5.68,0,0,1,1.53,4.36V41.37a7.3,7.3,0,0,1-1.51,4.76,6.62,6.62,0,0,1-4.32,2.28A8,8,0,0,1,273.82,48.51Zm-2.74-22.06a6.75,6.75,0,0,0-1.37,4.4V43.06A5.13,5.13,0,0,0,271.06,47a4.55,4.55,0,0,0,3.92.84,6.09,6.09,0,0,0,4-2.07,6.74,6.74,0,0,0,1.37-4.39V29.15A5.15,5.15,0,0,0,279,25.22a4.55,4.55,0,0,0-3.91-.84,6.12,6.12,0,0,0-4,2.07Zm2.81,18.79.27-.2a1.6,1.6,0,0,1-.68-.33,2.48,2.48,0,0,1-.67-2V30.05c0-2.12,1.17-2.74,2.16-2.89a1.85,1.85,0,0,1,1.58.34,2.48,2.48,0,0,1,.67,2v12.7c0,2.12-1.18,2.74-2.16,2.89Zm1.52-17.53-.35,0c-1.14.17-1.66.91-1.66,2.31V42.74a2,2,0,0,0,.46,1.52,1.32,1.32,0,0,0,1.12.21l.18,0c1-.23,1.47-1,1.47-2.28V29.47a2,2,0,0,0-.46-1.53A1.19,1.19,0,0,0,275.41,27.71Z"/><path class="cls-6" d="M291.25,13.59a1.53,1.53,0,0,0-1.43-.33c-1.27.23-1.91,1.11-1.91,2.64v2.52l-3.48.64V16.78a7.24,7.24,0,0,1,1.41-4.63,6.42,6.42,0,0,1,4.09-2.27,4.63,4.63,0,0,1,4.1.8,5.3,5.3,0,0,1,1.41,4.11,10.71,10.71,0,0,1-.66,3.76,15,15,0,0,1-1.57,3.16c-.6.92-1.39,2-2.35,3.21a34.3,34.3,0,0,0-2.11,3,4.3,4.3,0,0,0-.67,2.2,2.07,2.07,0,0,0,0,.5l7-1.25v3.36l-10.66,1.92V31.75a9,9,0,0,1,.5-3,11.5,11.5,0,0,1,1.24-2.48c.5-.74,1.14-1.62,1.95-2.65s1.48-1.95,1.95-2.64a11.57,11.57,0,0,0,1.19-2.42,8.58,8.58,0,0,0,.48-2.93A3,3,0,0,0,291.25,13.59Z"/><path class="cls-7" d="M284.13,35V31.75a9.21,9.21,0,0,1,.52-3.12,12.25,12.25,0,0,1,1.28-2.56c.49-.74,1.15-1.63,2-2.66s1.47-1.94,1.93-2.63A10.86,10.86,0,0,0,291,18.44a8.34,8.34,0,0,0,.47-2.84,2.71,2.71,0,0,0-.41-1.8,1.26,1.26,0,0,0-1.17-.25c-1.12.2-1.67,1-1.67,2.35v2.77l-4.07.75V16.78A7.57,7.57,0,0,1,285.61,12a6.73,6.73,0,0,1,4.27-2.36,4.89,4.89,0,0,1,4.34.86,5.59,5.59,0,0,1,1.51,4.33,11,11,0,0,1-.67,3.86,15.35,15.35,0,0,1-1.6,3.22c-.61.92-1.4,2-2.37,3.23a33.78,33.78,0,0,0-2.09,3,4,4,0,0,0-.63,2.05v.15l7-1.26V33Zm6.14-22.07a1.59,1.59,0,0,1,1.19.47h0a3.24,3.24,0,0,1,.58,2.2,9,9,0,0,1-.5,3,11.47,11.47,0,0,1-1.23,2.48c-.47.7-1.13,1.59-2,2.66s-1.45,1.9-1.93,2.63a11,11,0,0,0-1.21,2.42,8.35,8.35,0,0,0-.49,2.93v2.53l10.08-1.81V29.71L287.87,31l-.05-.3a3.39,3.39,0,0,1,0-.55,4.54,4.54,0,0,1,.72-2.35,33.5,33.5,0,0,1,2.13-3c1-1.21,1.74-2.29,2.34-3.19a14.93,14.93,0,0,0,1.54-3.1,10.4,10.4,0,0,0,.63-3.66,5,5,0,0,0-1.31-3.89,4.35,4.35,0,0,0-3.85-.73,6.19,6.19,0,0,0-3.91,2.16,7,7,0,0,0-1.35,4.45v1.93l2.9-.53V15.9c0-2.1,1.17-2.75,2.15-2.93A3,3,0,0,1,290.27,12.92Z"/><path class="cls-6" d="M299.57,11a3.56,3.56,0,0,0,1.18-1.2,11.87,11.87,0,0,0,.76-1.71L304,7.63V31.14l-3.7.65V13.87l-2.85.51V11.75A5.4,5.4,0,0,0,299.57,11Z"/><path class="cls-7" d="M300,32.14V14.22l-2.85.51V11.5l.25,0a5.21,5.21,0,0,0,2-.72,3.44,3.44,0,0,0,1.08-1.1A10.31,10.31,0,0,0,301.23,8l0-.16,3-.54v24.1Zm.59-18.63V31.44l3.11-.55V8l-2,.36A11.93,11.93,0,0,1,301,9.93a4,4,0,0,1-1.28,1.31h0a5.82,5.82,0,0,1-2,.76v2Z"/><path class="cls-8" d="M258,24.07V17.35l1.07-.2V20l1.21-.23V16.92l1.09-.2v6.71l-1.09.21V20.76l-1.21.23v2.87Z"/><path class="cls-8" d="M264.53,22.84l-.18-1.18-1.31.25-.19,1.26-1,.18L263,16.43l1.56-.3,1.1,6.49Zm-.33-2.06-.51-3.3-.52,3.5Z"/><path class="cls-8" d="M268.87,15.73a1.48,1.48,0,0,1,.4,1.17v.89a2.06,2.06,0,0,1-.4,1.31,2,2,0,0,1-1.2.65l-.5.09v2.49l-1.07.2v-6.7l1.57-.3A1.38,1.38,0,0,1,268.87,15.73Zm-1.7,3.13.5-.09a.66.66,0,0,0,.4-.22.88.88,0,0,0,.13-.52V17a.66.66,0,0,0-.13-.47.43.43,0,0,0-.4-.06l-.5.09Z"/><path class="cls-8" d="M272.53,15a1.46,1.46,0,0,1,.39,1.18v.88a1.79,1.79,0,0,1-1.58,2l-.51.09v2.5l-1.07.2V15.14l1.58-.3A1.37,1.37,0,0,1,272.53,15Zm-1.7,3.13.51-.09a.62.62,0,0,0,.39-.22.84.84,0,0,0,.13-.52v-1a.65.65,0,0,0-.13-.47.46.46,0,0,0-.39-.07l-.51.1Z"/><path class="cls-8" d="M273.05,14.52l1.12-.21.81,2.91L275.8,14l1-.19-1.35,4.74v2.23l-1.07.2V18.76Z"/><path class="cls-8" d="M285.36,45.33l-.93.17V39l1.29-.25,1.06,3.68V38.59l.92-.18v6.47l-1.06.2-1.28-4.45Z"/><path class="cls-8" d="M290.87,40.55v.92l-1.41.27v1.89l1.76-.33v.92l-2.8.53V38.29l2.8-.53v.92l-1.76.34v1.8Z"/><path class="cls-8" d="M293.78,43.74l-1.41.27-.73-6.34,1-.19.56,5,.49-5.2,1-.19.52,5,.53-5.24.9-.17-.73,6.61-1.37.25-.37-3.37Z"/><path class="cls-8" d="M298.26,36.43l1.07-.2.79,2.8.78-3.09,1-.19-1.29,4.57v2.14l-1,.19V40.51Z"/><path class="cls-8" d="M304.74,37.94v.92l-1.41.27V41l1.76-.33v.92l-2.81.53V35.68l2.81-.53v.92l-1.76.34V38.2Z"/><path class="cls-8" d="M308,41.06l-.18-1.14-1.26.24-.18,1.2-.94.18,1-6.67,1.5-.29,1.05,6.27Zm-.32-2-.49-3.18-.5,3.37Z"/><path class="cls-8" d="M311.62,40.09c0-.17,0-.33,0-.5v-1a.88.88,0,0,0-.15-.61.57.57,0,0,0-.52-.09l-.35.07v2.64l-1,.2V34.32L311.1,34a1.47,1.47,0,0,1,1.17.14,1.25,1.25,0,0,1,.37,1.06v.51a1.61,1.61,0,0,1-.67,1.44.74.74,0,0,1,.52.39,1.94,1.94,0,0,1,.16.86v1a2.2,2.2,0,0,0,0,.44.9.9,0,0,0,.09.32l-1.05.2A1.71,1.71,0,0,1,311.62,40.09Zm-1-3.07L311,37a.75.75,0,0,0,.46-.25.85.85,0,0,0,.16-.55v-.64a.7.7,0,0,0-.13-.49.43.43,0,0,0-.39-.08l-.5.09Z"/><path class="cls-6" d="M87.34,8a80.07,80.07,0,0,1-6.12,8.3.64.64,0,0,0,.07.92.62.62,0,0,0,.28.14l2.41.51a.2.2,0,0,1,.16.15.21.21,0,0,1-.09.21,28.15,28.15,0,0,1-3.85,2.2.65.65,0,0,0-.29.87.66.66,0,0,0,.45.35l2.84.54a.19.19,0,0,1,.16.15.21.21,0,0,1-.07.21,22.14,22.14,0,0,1-5,3.23.65.65,0,0,0-.31.86.63.63,0,0,0,.49.36l3.77.59a.21.21,0,0,1,.17.14.23.23,0,0,1-.06.22c-1.83,1.76-4.43,2.72-7.76,3.4v.45c3.46-.69,6.16-1.71,8.07-3.52a.65.65,0,0,0,0-.91.62.62,0,0,0-.38-.2l-3.77-.59a.2.2,0,0,1-.06-.39,22.2,22.2,0,0,0,5.1-3.31.66.66,0,0,0,.06-.92.62.62,0,0,0-.37-.2l-2.83-.54a.21.21,0,0,1-.17-.24.19.19,0,0,1,.11-.15,30.42,30.42,0,0,0,3.93-2.24.65.65,0,0,0-.25-1.16l-2.4-.5a.23.23,0,0,1-.16-.14.2.2,0,0,1,0-.2,74.8,74.8,0,0,0,5.62-8.3.19.19,0,0,1,.17-.1.18.18,0,0,1,.18.1c.75,1.21,2.71,5.31,5.31,8.22a.24.24,0,0,1,0,.2.19.19,0,0,1-.12.14c-.71.26-1.44.48-2.17.67a.66.66,0,0,0-.48.5.64.64,0,0,0,.24.64,35.25,35.25,0,0,0,3.75,2.54.21.21,0,0,1,.1.21.2.2,0,0,1-.15.17l-2.58.65a.66.66,0,0,0-.19,1.18c1,.65,3,1.9,4.73,2.85a.2.2,0,0,1,0,.38l-4.14.92a.67.67,0,0,0-.48.46.62.62,0,0,0,.16.62c.72.75,2.58,1.8,7.17,2.78V31c-4.39-.95-6.17-1.93-6.85-2.65a.2.2,0,0,1,0-.29l.09,0L96,27.11a.65.65,0,0,0,.5-.77.64.64,0,0,0-.32-.43c-1.75-.95-3.7-2.19-4.71-2.84a.22.22,0,0,1-.09-.21.18.18,0,0,1,.16-.16L94.13,22a.64.64,0,0,0,.49-.53.65.65,0,0,0-.31-.65,35.71,35.71,0,0,1-3.7-2.49.21.21,0,0,1,0-.29.21.21,0,0,1,.11-.08c.75-.19,1.49-.42,2.22-.68a.65.65,0,0,0,.4-.45.66.66,0,0,0-.14-.59A70.92,70.92,0,0,1,87.3,8"/><path class="cls-7" d="M74.31,32.2V31.15l.24,0c3.55-.72,5.87-1.72,7.48-3.21l-3.6-.56a.92.92,0,0,1-.7-.52.93.93,0,0,1,.44-1.25A22.14,22.14,0,0,0,83,22.49L80.31,22a.95.95,0,0,1-.25-1.77,29,29,0,0,0,3.65-2.06l-2.2-.46a1.11,1.11,0,0,1-.42-.21,1,1,0,0,1-.32-.65.94.94,0,0,1,.23-.69,81.22,81.22,0,0,0,6.09-8.25L87.2,8l.14,0h.08l.13-.09.13.22a.4.4,0,0,1,.1.12c.06.1.13.23.22.37a65.07,65.07,0,0,0,5.38,7.53,1,1,0,0,1,.21.85.94.94,0,0,1-.59.65,21.57,21.57,0,0,1-2.07.65,36.1,36.1,0,0,0,3.52,2.37.93.93,0,0,1,.46.94,1,1,0,0,1-.71.78l-2.38.6c1.05.68,2.86,1.82,4.52,2.72A.95.95,0,0,1,96.68,27a.93.93,0,0,1-.6.4l-1.83.42-2.12.47c.7.64,2.41,1.55,6.6,2.45l.23.05v1l-.36-.07c-3.76-.8-6.29-1.79-7.32-2.87a.9.9,0,0,1-.23-.91,1,1,0,0,1,.69-.65l3.91-.88c-1.26-.69-2.82-1.63-4.54-2.75a.94.94,0,0,1,.28-1.7l2.37-.6a37.35,37.35,0,0,1-3.6-2.45.94.94,0,0,1,.34-1.66c.69-.18,1.36-.39,2-.63a40.35,40.35,0,0,1-4.57-7c-.17-.32-.33-.6-.46-.83l-.15-.24a76.56,76.56,0,0,1-5.47,8.09l2.26.47a1,1,0,0,1,.73.73,1,1,0,0,1-.37,1A28.61,28.61,0,0,1,80.76,21l2.58.5a.89.89,0,0,1,.52.3.94.94,0,0,1-.07,1.33,22.53,22.53,0,0,1-4.91,3.23l3.49.54a1,1,0,0,1,.55.3.92.92,0,0,1,.25.67.94.94,0,0,1-.3.65c-1.8,1.71-4.33,2.82-8.21,3.6ZM92,28.32Zm-9.77-.4h0Zm0-.14Zm13.7-1.22ZM78.62,26.5h0Zm17.27-.11Zm-17.31-.06h0Zm13-3.35Zm0-.16Zm-8.5-.3Zm-.05-.15h0Zm10.84-.87Zm-13.42-.37Zm0-.16Zm10.26-2.68Zm-6.84-.1Zm6.86-.06Zm-9-1.31Zm10.86-.21Z"/><path class="cls-6" d="M87.46,6.78a.32.32,0,0,0-.16,0,.42.42,0,0,0-.16,0l-1.36.71L86,6a.36.36,0,0,0-.09-.3l-1.1-1.07,1.52-.22a.36.36,0,0,0,.25-.18l.68-1.38L88,4.22a.38.38,0,0,0,.26.18l1.51.22L88.66,5.69a.34.34,0,0,0-.1.3l.26,1.5Z"/><polygon class="cls-9" points="76.05 5.16 76.31 7.08 78.21 6.73 76.47 7.56 77.39 9.26 76.05 7.86 74.72 9.26 75.64 7.56 73.9 6.73 75.8 7.08 76.05 5.16"/><polygon class="cls-9" points="98.74 14.63 97.89 15.8 99.1 16.59 97.72 16.14 97.34 17.54 97.35 16.09 95.9 16.16 97.28 15.71 96.77 14.36 97.61 15.54 98.74 14.63"/><polygon class="cls-9" points="104.12 7.84 102.08 8.71 103.06 10.7 101.6 9.03 100.01 10.57 101.14 8.67 99.19 7.63 101.34 8.12 101.73 5.94 101.93 8.15 104.12 7.84"/><polygon class="cls-9" points="78.56 14.34 78.23 15.75 79.66 16 78.22 16.13 78.41 17.56 77.85 16.23 76.55 16.86 77.64 15.91 76.64 14.87 77.88 15.61 78.56 14.34"/><polygon class="cls-9" points="94.23 0 94.12 1.44 95.56 1.48 94.16 1.82 94.57 3.21 93.81 1.98 92.62 2.8 93.56 1.69 92.41 0.82 93.75 1.36 94.23 0"/><path class="cls-10" d="M2.31,13.62a3.63,3.63,0,0,1,.46-3.95,3.92,3.92,0,0,1,5.72-.95c1,1,1.09,1.57,2.06,1.69l-.08.17a1.64,1.64,0,0,1-1.6-.34c-.8-.67-1.12-.44-1.12-.44a1.69,1.69,0,0,1,.71,1c.24.68-3.44.56-3.44.56Z"/><path class="cls-11" d="M9.48,9.83h0c-.22.35-.64.06-1.2-.23a1.34,1.34,0,0,0-1.09,0s1.2.78-.12.27-3.32.5-4.06,1.07-.52-.8-.52-.81a3.59,3.59,0,0,0-.18,3.53L5,11.31s3.68.11,3.44-.56a1.72,1.72,0,0,0-.71-1s.32-.23,1.12.44a1.6,1.6,0,0,0,1.6.37l.06-.16A1.47,1.47,0,0,1,9.48,9.83Z"/><path class="cls-12" d="M7.47,10.18A4.15,4.15,0,0,0,2.28,12.8a1.86,1.86,0,0,0,.35,2.09A5.09,5.09,0,0,1,5.2,12.13,5.09,5.09,0,0,1,9,11.7S8.91,10.68,7.47,10.18Z"/><path class="cls-13" d="M11.07,10.14a.89.89,0,0,1-.63,1.08.87.87,0,0,1-.91-.3.88.88,0,0,1,.62-1.08A.89.89,0,0,1,11.07,10.14Z"/><path class="cls-13" d="M10.6,10.87a.82.82,0,0,1-1.12-.29.14.14,0,0,1,0-.06.69.69,0,0,0,.07.42.88.88,0,0,0,1.23.17.9.9,0,0,0,.33-.89A.89.89,0,0,1,10.6,10.87Z"/><path class="cls-13" d="M8.57,10.87c.16.34,0,.48-.18.43a7.17,7.17,0,0,0-.81-.07c-3.46,0-4.4,2.55-4.75,2.11a2,2,0,0,1-.23-1.27,3.86,3.86,0,0,0-.32.72,1.86,1.86,0,0,0,.35,2.09A5.09,5.09,0,0,1,5.2,12.12,5.09,5.09,0,0,1,9,11.69,1.52,1.52,0,0,0,8.57,10.87Z"/><path class="cls-14" d="M234.38,24.72l-.06-.47a23.41,23.41,0,0,1-.12-3.55h.3a21.62,21.62,0,0,0,.07,3c.89-1.77,2.48-5.34,1.89-6.22a.47.47,0,0,0-.68,0l-.2-.22a.78.78,0,0,1,.56-.2.74.74,0,0,1,.53.25l0,0c.86,1.29-1.8,6.4-2.1,7Z"/><ellipse class="cls-15" cx="233.3" cy="27.96" rx="3.39" ry="3.64" transform="translate(135.4 241.56) rotate(-72.21)"/><path class="cls-15" d="M236.77,29.09a3.65,3.65,0,0,1-6.93-2.23l.07-.18a3.54,3.54,0,0,1,4.43-1.93,3.69,3.69,0,0,1,1.15.59A3.4,3.4,0,0,1,236.77,29.09Z"/><path class="cls-16" d="M236,28a3.06,3.06,0,0,1-3.89,1.83,3.1,3.1,0,0,1-2.22-3.16,3.54,3.54,0,0,1,4.43-1.94,3.69,3.69,0,0,1,1.15.59A2.86,2.86,0,0,1,236,28Z"/><ellipse class="cls-17" cx="232.45" cy="26.58" rx="0.84" ry="0.9" transform="translate(136.12 239.79) rotate(-72.21)"/><path class="cls-16" d="M233,23.76l-.25.8,3.05,1,.26-.8a.32.32,0,0,0-.22-.39l-2.43-.79A.33.33,0,0,0,233,23.76Z"/><rect class="cls-17" x="233.11" y="23.96" width="1.14" height="0.62" transform="translate(139.18 239.36) rotate(-72.21)"/><rect class="cls-15" x="233.64" y="23.45" width="1.2" height="3.21" transform="translate(138.76 240.41) rotate(-72.2)"/></g></g></g></g></svg>