<svg xmlns="http://www.w3.org/2000/svg" xmlns:xlink="http://www.w3.org/1999/xlink" viewBox="0 0 729.72 114.76"><defs><style>.cls-1,.cls-2{fill:#ed1c24;}.cls-1{stroke:#ec2027;stroke-width:2px;}.cls-1,.cls-4,.cls-5{stroke-miterlimit:10;}.cls-3{fill:#000d17;}.cls-4,.cls-5{stroke:#fff;}.cls-5,.cls-6,.cls-9{fill:#db1f26;}.cls-10,.cls-7{fill:#fff;}.cls-12,.cls-8{fill:#231f20;}.cls-10,.cls-11,.cls-12,.cls-9{fill-rule:evenodd;}.cls-11{fill:#ffca05;}.cls-13{fill:url(#linear-gradient);}.cls-14{fill:#b30a25;opacity:0.5;}.cls-15{fill:url(#linear-gradient-2);}.cls-16{fill:url(#linear-gradient-3);}.cls-17{fill:#bee0f4;}</style><linearGradient id="linear-gradient" x1="1151.91" y1="-30.08" x2="1194.65" y2="-30.08" gradientTransform="matrix(-0.83, 0.28, 0.29, 0.85, 1298.5, -267.7)" gradientUnits="userSpaceOnUse"><stop offset="0.01" stop-color="#b30a25"/><stop offset="1" stop-color="#ff1d31"/></linearGradient><linearGradient id="linear-gradient-2" x1="1149.56" y1="-23.96" x2="1186" y2="-23.96" gradientTransform="matrix(-0.83, 0.28, 0.29, 0.85, 1298.5, -267.7)" gradientUnits="userSpaceOnUse"><stop offset="0" stop-color="#bee0f4"/><stop offset="1" stop-color="#fff"/></linearGradient><linearGradient id="linear-gradient-3" x1="1189.14" y1="-17.79" x2="1197.54" y2="-17.79" xlink:href="#linear-gradient-2"/></defs><g id="Layer_2" data-name="Layer 2"><g id="Layer_1-2" data-name="Layer 1"><path class="cls-1" d="M495.11,8.09c-3.79,9.69-12.06,25.74-14.69,30.29a3.33,3.33,0,0,0-.31,2.3,2,2,0,0,0,1.16,1.57L487,44.1c.29.1.36.47.38.58a1,1,0,0,1-.2.77,70,70,0,0,1-9.26,8,2.74,2.74,0,0,0-.84,2.43,2.14,2.14,0,0,0,1.24,2l6.81,2c.27.08.35.39.38.53a1,1,0,0,1-.15.77,56,56,0,0,1-12,11.75,2.71,2.71,0,0,0-.87,2.46,2.09,2.09,0,0,0,1.3,2l9.07,2.15a.62.62,0,0,1,.39.52,1,1,0,0,1-.13.78c-4.4,6.4-10.64,9.94-18.63,12.42v1.65c8.3-2.54,14.78-6.24,19.36-12.9a3.34,3.34,0,0,0,.42-2.43A2,2,0,0,0,483.08,78L474,75.8c-.34-.08-.41-.51-.42-.64a.85.85,0,0,1,.27-.77,56.66,56.66,0,0,0,12.25-12,3.2,3.2,0,0,0,.45-2.41,2,2,0,0,0-1.2-1.68l-6.8-2c-.32-.1-.39-.52-.4-.64a.94.94,0,0,1,.26-.78,68.75,68.75,0,0,0,9.42-8.17,3.08,3.08,0,0,0,.61-2.41,2.14,2.14,0,0,0-1.21-1.81l-5.76-1.84a.69.69,0,0,1-.37-.51,1,1,0,0,1,.1-.72c2.74-4.75,9.69-20.3,13.47-30.29.13-.33.34-.38.42-.38s.29,0,.43.36c1.8,4.44,6.52,19.38,12.75,30.07a1.1,1.1,0,0,1,.11.7.66.66,0,0,1-.31.51,41.25,41.25,0,0,1-5.2,2.46,2.21,2.21,0,0,0-1.16,1.83,3,3,0,0,0,.58,2.34,97.82,97.82,0,0,0,9,9.24.86.86,0,0,1,.24.73c0,.12-.07.52-.37.64-1.8.71-4.23,1.64-6.17,2.38a2.19,2.19,0,0,0-1.15,1.9,3,3,0,0,0,.68,2.38c2.44,2.4,7.14,7,11.36,10.41a.91.91,0,0,1,.26.77c0,.11-.07.53-.39.62-2.59.88-7.34,2.49-9.92,3.38a2.06,2.06,0,0,0-1.15,1.65,3.14,3.14,0,0,0,.37,2.28c1.73,2.73,22,9.23,33,12.81h0c-10.54-3.46-30.59-11.33-32.25-13.93a1,1,0,0,1-.11-.71.65.65,0,0,1,.37-.53c2.57-.89,7.32-2.5,9.91-3.38a2.2,2.2,0,0,0,1.21-2,2.81,2.81,0,0,0-.81-2.4c-4.18-3.45-8.86-8-11.28-10.35a.94.94,0,0,1-.21-.76.69.69,0,0,1,.37-.61c1.93-.72,4.36-1.67,6.17-2.38a2.25,2.25,0,0,0,1.15-2,2.8,2.8,0,0,0-.76-2.36,97.85,97.85,0,0,1-8.89-9.1,1,1,0,0,1-.18-.74.74.74,0,0,1,.37-.6,39.77,39.77,0,0,0,5.31-2.51,2.16,2.16,0,0,0,1-1.62,3.37,3.37,0,0,0-.34-2.17C503.46,28.47,497.14,13.05,495,8"/><path class="cls-2" d="M495.39,8.47A.89.89,0,0,0,495,8.4a1,1,0,0,0-.37.07L491.38,10,492,6.77a.67.67,0,0,0-.23-.65l-2.64-2.3,3.65-.47a.85.85,0,0,0,.61-.4L495,0l1.64,3a.83.83,0,0,0,.61.4l3.65.47-2.63,2.3a.69.69,0,0,0-.25.65l.63,3.24Z"/><polygon class="cls-3" points="469.17 22.77 469.94 27.34 474.12 26.34 470.34 28.48 472.56 32.47 469.46 29.23 466.66 32.69 468.51 28.55 464.56 26.7 468.81 27.38 469.17 22.77"/><polygon class="cls-3" points="520.46 43.47 518.7 46.34 521.47 48.13 518.37 47.17 517.68 50.54 517.53 47.08 514.34 47.37 517.34 46.19 516.05 43.01 518.06 45.73 520.46 43.47"/><polygon class="cls-3" points="531.64 26.8 527.23 29.05 529.6 33.72 526.18 29.86 522.83 33.67 525.13 29.04 520.69 26.73 525.52 27.71 526.14 22.48 526.82 27.73 531.64 26.8"/><polygon class="cls-3" points="475.72 44.49 475.15 47.88 478.33 48.37 475.15 48.79 475.74 52.2 474.35 49.06 471.53 50.68 473.85 48.32 471.52 45.92 474.34 47.59 475.72 44.49"/><polygon class="cls-3" points="508.87 8.91 508.79 12.36 512 12.32 508.92 13.26 509.99 16.54 508.17 13.67 505.62 15.73 507.57 13.01 504.93 11.01 507.95 12.21 508.87 8.91"/><path class="cls-4" d="M681.48,62.8V57.53l12.36-12.59Q698,40.65,698,37.78a4.48,4.48,0,0,0-1.32-3.37,4.68,4.68,0,0,0-3.39-1.28q-4.08,0-6,4.19l-6-3.48a12.54,12.54,0,0,1,4.92-5.62,13.25,13.25,0,0,1,7-1.95,12.43,12.43,0,0,1,8.43,3.05,10.28,10.28,0,0,1,3.52,8.21q0,5.56-5.94,11.43l-7.1,7h13.61V62.8Z"/><path class="cls-4" d="M714.74,67.67a12.6,12.6,0,0,1-10.63-5.09q-3.86-5.1-3.86-13.53t3.86-13.53a13.68,13.68,0,0,1,21.29,0q3.83,5.08,3.82,13.53T725.4,62.58A12.61,12.61,0,0,1,714.74,67.67Zm-5.48-9.9a6.05,6.05,0,0,0,5.48,3,6.12,6.12,0,0,0,5.51-3q1.89-3,1.89-8.69t-1.89-8.75a6.12,6.12,0,0,0-5.51-3,6,6,0,0,0-5.48,3q-1.87,3-1.87,8.75C707.39,52.87,708,55.77,709.26,57.77Z"/><path class="cls-5" d="M689.35,94.82V89.55L701.71,77c2.76-2.87,4.14-5.25,4.14-7.16a4.49,4.49,0,0,0-1.32-3.38,4.68,4.68,0,0,0-3.39-1.28q-4.08,0-6,4.2l-6-3.48A12.61,12.61,0,0,1,694,60.24a13.39,13.39,0,0,1,7-1.94,12.43,12.43,0,0,1,8.43,3A10.3,10.3,0,0,1,713,69.55q0,5.57-5.94,11.44l-7.11,7h13.62v6.8Z"/><path class="cls-5" d="M719,65.13h6.21v35.81h-7.14V72.6l-6.83,1.89-1.76-6Z"/><polygon class="cls-6" points="679.47 69.02 597.59 69.02 602.06 55.26 597.59 41.49 679.47 41.49 675.73 55.26 679.47 69.02"/><path class="cls-7" d="M610.38,45.37h2.21V55h-2.21V51.16h-3V55h-2.22v-9.6h2.22v3.68h3Z"/><path class="cls-7" d="M620.72,55l-.52-1.51h-3.73L616,55h-2.42l3.3-9.6h2.83L623,55Zm-3.58-3.56h2.35l-1.21-3.53Z"/><path class="cls-7" d="M627.64,45.37a3.33,3.33,0,0,1,2.41,1,3.26,3.26,0,0,1,0,4.66,3.33,3.33,0,0,1-2.41,1h-1.46v3H624v-9.6Zm0,4.53a1.09,1.09,0,0,0,.84-.36,1.25,1.25,0,0,0,.33-.88,1.22,1.22,0,0,0-.33-.87,1.09,1.09,0,0,0-.84-.36h-1.46V49.9Z"/><path class="cls-7" d="M636,45.37a3.33,3.33,0,0,1,2.42,1,3.26,3.26,0,0,1,0,4.66A3.33,3.33,0,0,1,636,52H634.5v3h-2.22v-9.6Zm0,4.53a1.1,1.1,0,0,0,.85-.36,1.25,1.25,0,0,0,.33-.88,1.22,1.22,0,0,0-.33-.87,1.1,1.1,0,0,0-.85-.36H634.5V49.9Z"/><path class="cls-7" d="M648.22,45.37,645,51.28V55h-2.22V51.28l-3.26-5.91H642l1.85,3.69,1.84-3.69Z"/><path class="cls-7" d="M610.52,56.37h2.21V66h-1.66l-3.74-5.21V66h-2.22v-9.6h1.66l3.75,5.21Z"/><path class="cls-7" d="M616.75,63.86h3.89V66h-6.1v-9.6h6v2.12h-3.82v1.59h3.47v2.08h-3.47Z"/><path class="cls-7" d="M624,66l-2.67-9.6h2.33l1.67,6.72,1.88-6.72H629l1.87,6.72,1.69-6.72h2.33L632.21,66h-2.52l-1.59-5.69L626.52,66Z"/><path class="cls-7" d="M647.36,56.37l-3.25,5.91V66h-2.22V62.28l-3.26-5.91h2.52L643,60.06l1.84-3.69Z"/><path class="cls-7" d="M650.55,63.86h3.88V66h-6.1v-9.6h6v2.12h-3.81v1.59H654v2.08h-3.47Z"/><path class="cls-7" d="M662.29,66l-.52-1.51H658L657.55,66h-2.43l3.3-9.6h2.83l3.3,9.6Zm-3.59-3.56h2.36l-1.22-3.53Z"/><path class="cls-7" d="M670.63,66l-1.84-3.15h-1V66h-2.22v-9.6h3.89a3.21,3.21,0,0,1,2.35,1,3.15,3.15,0,0,1,1,2.33,2.89,2.89,0,0,1-.49,1.63A3.43,3.43,0,0,1,671,62.45L673,66Zm-2.89-7.54V60.9h1.67a1,1,0,0,0,.78-.36,1.25,1.25,0,0,0,.33-.88,1.22,1.22,0,0,0-.33-.87,1,1,0,0,0-.78-.36Z"/><path class="cls-8" d="M586.29,97c7,0,11.11-3.91,11.53-9.64h-6a4.85,4.85,0,0,1-5,4.67h-.21c-3.71,0-5.93-2.42-5.93-7.3v-.3c0-4.56,2.32-7.2,5.71-7.2a4.38,4.38,0,0,1,4.9,3.77c0,.14,0,.28,0,.43h6.25c-.63-6.88-5.71-9.3-11.32-9.3A11.85,11.85,0,0,0,573.8,83.4a11.61,11.61,0,0,0,0,1.18v.2c.1,7.85,5.49,12.18,12.49,12.18Zm23.92-5.08c-3.82,0-5.93-2.74-5.93-7.3v-.32c0-4.54,2.22-7.3,5.93-7.3s5.93,2.76,5.93,7.3v.32C616.14,89.16,613.9,91.9,610.21,91.9Zm0,5.08c7.2,0,12.7-4.86,12.7-12.38v-.32c0-7.51-5.4-12.27-12.6-12.27a12.07,12.07,0,0,0-12.7,11.39c0,.37,0,.73,0,1.1v.28C597.5,92.2,603,97,610.21,97Zm14.17-.52h6.68V82.28a4.45,4.45,0,0,1,4-4.86,4,4,0,0,1,.6,0c2.32,0,3.79,1.37,3.79,4.45V96.64h6.68V82.28a4.44,4.44,0,0,1,4-4.87,4.07,4.07,0,0,1,.78,0c2.44,0,3.81,1.37,3.81,4.45V96.64h6.66V81.11c0-6.35-3.49-9.22-7.93-9.22a9.3,9.3,0,0,0-8,4.24,6.61,6.61,0,0,0-6.68-4.24,8.12,8.12,0,0,0-7.3,4.24V72.44h-6.66v24Z"/><path class="cls-8" d="M102.59,96.24h12.59v-55H102.59Zm18.74,0h11.21V72.93c0-5.93,3.61-8.9,8.37-8.9s7.08,2.65,7.08,8v24h11.23V70.62c0-10.79-5.62-15.55-13.55-15.55-6.67,0-11.11,3.29-13.13,7.3V56H121.33Zm57.6.84a14.62,14.62,0,0,0,12.9-7.5v6.66H203V37.71H191.83V62c-2.21-4.13-6.25-6.88-12.7-6.88-10,0-17.67,7.73-17.67,21.06v.64c-.12,13.33,7.62,20.33,17.47,20.33Zm3.27-8.67c-5.51,0-9.42-3.91-9.42-12v-.64c0-8,3.49-12.27,9.74-12.27s9.64,4.12,9.64,12.06v.71c0,8.27-4.14,12.18-10,12.18Zm26,7.83h11.12V56H208.23Zm5.41-45.74A6.13,6.13,0,0,0,220,44.62v-.15a6.05,6.05,0,0,0-6.06-6h-.29a6.15,6.15,0,0,0-6.35,6v.06A6.24,6.24,0,0,0,213.64,50.5Zm21.82,46.58c6.35,0,9.84-2.42,12.16-5.71v4.87h10.91V70c0-10.91-7-14.93-16.82-14.93s-17.4,4.3-18.11,13.76h10.59c.42-3.49,2.43-5.71,6.87-5.71,5.08,0,6.56,2.64,6.56,7.4v1.59h-4.54c-12.28,0-21,3.49-21,12.91C222,93.59,228.15,97.08,235.46,97.08Zm3.28-7.72c-4.13,0-5.83-1.9-5.83-4.86,0-4.34,3.82-5.73,10.27-5.73h4.34v3.39C247.42,86.61,243.71,89.36,238.74,89.36Zm24.35,6.88H274.3V72.93c0-5.93,3.59-8.9,8.35-8.9s7,2.68,7,8.08v24h11.12V70.62c0-10.79-5.61-15.55-13.56-15.55-6.65,0-11.11,3.29-13.11,7.3V56H262.88V96.24Z"/><path class="cls-6" d="M306.44,96.24h12.38V75.08h5.4l13.11,21.26h13.32L336.06,72.93c6.47-1.9,11.34-6.34,11.34-14.61V58c0-11.44-8.25-16.74-21.28-16.74H306.44Zm12.38-29.73V50.74h7c6.05,0,9.43,1.89,9.43,7.5v.32c0,5.29-3.18,8-9.43,8Z"/><path class="cls-6" d="M369.28,97.08c11,0,18-4.86,19.26-13.55H378c-.73,3.39-3.27,5.61-8.36,5.61-6,0-9.74-3.81-10.06-10.59h29v-3c0-14.4-9.19-20.53-19.68-20.53-11.74,0-20.75,8.25-20.75,21v.62C348.33,89.46,357.22,97.08,369.28,97.08Zm-9.52-25.29c.85-5.71,4.24-9,9.2-9,5.3,0,8.37,3,8.79,9Z"/><path class="cls-6" d="M405.6,97.08a21.11,21.11,0,0,0,6.78-1V87.46a10.59,10.59,0,0,1-4.24.73c-2.84,0-4.43-1.58-4.43-4.76V64h8.47V56h-8.47V47.35H392.59V56h-5.18v7.94h5.18V84.4c0,8.35,4.54,12.68,13,12.68Z"/><path class="cls-6" d="M426.25,97.08c6.34,0,9.85-2.42,12.17-5.71v4.87h10.91V70c0-10.91-7-14.93-16.84-14.93s-17.35,4.24-18.1,13.76H425c.43-3.49,2.42-5.71,6.88-5.71,5.08,0,6.56,2.64,6.56,7.4v1.59h-4.56c-12.27,0-21,3.49-21,12.91C412.8,93.59,418.93,97.08,426.25,97.08Zm3.27-7.72c-4.11,0-5.81-1.9-5.81-4.86,0-4.34,3.81-5.73,10.27-5.73h4.33v3.39C438.31,86.61,434.5,89.36,429.52,89.36Z"/><path class="cls-6" d="M454.19,96.24H465.3V56H454.19Zm5.5-45.74A6.12,6.12,0,0,0,466,44.62a.76.76,0,0,1,0-.15,6.05,6.05,0,0,0-6.06-6h-.3a6.17,6.17,0,0,0-6.35,6v.06a6.08,6.08,0,0,0,6.16,6Z"/><path class="cls-6" d="M538.35,97.08c11,0,18-4.86,19.26-13.55H547c-.75,3.39-3.29,5.61-8.37,5.61-6,0-9.72-3.81-10-10.59h29v-3c0-14.4-9.22-20.53-19.69-20.53-11.75,0-20.75,8.25-20.75,21v.62C517.27,89.46,526.17,97.08,538.35,97.08Zm-9.54-25.29c.85-5.71,4.23-9,9.21-9,5.29,0,8.36,3,8.78,9Z"/><path class="cls-9" d="M571.14,85.34V76c0-7.73,4.78-10.37,13-10.37V55.27a13.33,13.33,0,0,0-13,8.37V56H559.93V85a8.31,8.31,0,0,1,5.4-1.93,8.47,8.47,0,0,1,5.81,2.34Z"/><path class="cls-9" d="M565.43,85.65a5.4,5.4,0,1,1-5.5,5.4,5.45,5.45,0,0,1,5.5-5.4Z"/><path class="cls-9" d="M32.39,17.63,85.48,35.88a8,8,0,0,1,5,10.23v0L68.71,109.36a8.06,8.06,0,0,1-10.16,5L5.46,96.1A8.17,8.17,0,0,1,.38,85.94L22.15,22.61a8.07,8.07,0,0,1,10.16-5Zm-.57,8.47a4.21,4.21,0,1,1-4.2,4.21h0A4.22,4.22,0,0,1,31.82,26.1Z"/><path class="cls-10" d="M25.86,91.8h11.4V72.38h4.87l12,19.42H66.24L53,70.44c5.86-1.7,10.35-5.76,10.35-13.39v-.28c0-10.44-7.52-15.25-19.43-15.25H37.14a8,8,0,0,1,2.44,5.57,7.13,7.13,0,0,1-.68,3.12h4.78c5.45,0,8.58,1.69,8.58,6.93v.29c0,4.88-2.93,7.23-8.58,7.23H37.26V52.6a8.22,8.22,0,0,1-5.76,2.34,8.68,8.68,0,0,1-5.58-2.14v39Z"/><path class="cls-11" d="M31.43,41.64a5.57,5.57,0,1,1-5.66,5.55,5.57,5.57,0,0,1,5.66-5.55Z"/><path class="cls-12" d="M21.4,9a20.78,20.78,0,0,0,6,15.06C28.67,25.48,30.85,28,32.78,26a3.3,3.3,0,0,1,1.32.7,3.56,3.56,0,0,1-5,.76l-.19-.15a18.83,18.83,0,0,1-6.05-7.17,19.66,19.66,0,0,1-2.57-11.3c.79-9.45,10.16-9,14-1A24.24,24.24,0,0,1,36,19l-1.31-.27C36.21,3.05,22.45-2.2,21.4,9Z"/><path class="cls-13" d="M332.36,40.24a18.06,18.06,0,0,0-14.05-12.15c-12.16-2.13-19.94,7-19.73,15.54.17,6.91,1.88,9-.52,12.57l.7.31s3.38-1.43,3.55-6.42,1.85-5.19,1.85-5.19-.57,2.15,1.08,5.66c1.47,3.16,11.82-9.37,11.82-9.37Z"/><path class="cls-14" d="M299.25,50.74h0c1.8.49,2.1-1.92,2.78-4.73a5.61,5.61,0,0,1,3-3.77s-1,6.62,1.24.52,11.26-9.18,15.27-9.68-1.06-4.48-1.07-4.49a18.14,18.14,0,0,1,11.89,11.65l-15.3.95s-10.35,12.53-11.82,9.37c-1.65-3.51-1.08-5.66-1.08-5.66s-1.68.25-1.85,5.19-3.55,6.42-3.55,6.42l-.7-.31A7.24,7.24,0,0,0,299.25,50.74Z"/><path class="cls-15" d="M306.24,45.33a16.38,16.38,0,0,1,23.56-8c6,3.56,5.42,5.25,5.42,5.25-11.5.66-13.71,1.78-16.19,2.63A27.51,27.51,0,0,0,306.12,56S303.66,51.81,306.24,45.33Z"/><path class="cls-16" d="M295.66,57A3.69,3.69,0,1,0,298,52.3,3.71,3.71,0,0,0,295.66,57Z"/><path class="cls-17" d="M299.33,58a3.71,3.71,0,0,0,2.29-4.74c0-.09-.07-.19-.11-.28a3.79,3.79,0,0,1,1.14,1.67,3.69,3.69,0,0,1-6.88,2.67A3.67,3.67,0,0,0,299.33,58Z"/><path class="cls-7" d="M83,52.47a.39.39,0,0,1-.34-.21l-1-1.89a.44.44,0,0,1,0-.3.35.35,0,0,1,.19-.22l1.86-1a.39.39,0,0,1,.35.69l-1.51.77.79,1.54a.4.4,0,0,1-.17.53A.58.58,0,0,1,83,52.47Z"/><path class="cls-7" d="M67.73,47.54a.38.38,0,0,1-.34-.22.39.39,0,0,1,.17-.52L69.07,46l-.79-1.54a.39.39,0,0,1,.69-.36l1,1.89a.39.39,0,0,1,0,.3.34.34,0,0,1-.2.22l-1.85,1A.41.41,0,0,1,67.73,47.54Z"/><path class="cls-7" d="M85,51.55a.25.25,0,0,1-.12,0L66.51,45.6a.39.39,0,0,1-.25-.49.38.38,0,0,1,.49-.25l18.34,5.93a.4.4,0,0,1,.25.49A.39.39,0,0,1,85,51.55Z"/><path class="cls-7" d="M68.62,52.51a.34.34,0,0,1-.17,0,.39.39,0,0,1-.17-.52l.79-1.54-1.51-.77a.39.39,0,0,1,.35-.7l1.85,1a.38.38,0,0,1,.2.23.4.4,0,0,1,0,.3l-1,1.88A.39.39,0,0,1,68.62,52.51Z"/><path class="cls-7" d="M83.86,47.57a.33.33,0,0,1-.17,0l-1.86-1a.39.39,0,0,1-.19-.23.42.42,0,0,1,0-.29l1-1.89a.39.39,0,1,1,.69.35l-.79,1.55,1.51.77a.38.38,0,0,1,.17.52A.39.39,0,0,1,83.86,47.57Z"/><path class="cls-7" d="M66.63,51.59a.39.39,0,0,1-.12-.76l18.34-5.94a.4.4,0,0,1,.49.25.39.39,0,0,1-.25.49L66.75,51.57Z"/><path class="cls-7" d="M76.8,45.62a.39.39,0,0,1-.35-.22l-.6-1.23-.61,1.23a.39.39,0,0,1-.7-.34l1-1.94a.4.4,0,0,1,.69,0l1,1.94a.39.39,0,0,1-.18.52A.47.47,0,0,1,76.8,45.62Z"/><path class="cls-7" d="M72.6,48.48a.36.36,0,0,1-.27-.11L70.89,47a.4.4,0,0,1-.1-.39.39.39,0,0,1,.32-.27l2-.3a.39.39,0,0,1,.11.77L72,47l.87.85a.38.38,0,0,1-.27.66Z"/><path class="cls-7" d="M73,52.59a.4.4,0,0,1-.23-.08.37.37,0,0,1-.15-.38l.35-2a.39.39,0,1,1,.76.13l-.21,1.26,1.2-.63a.39.39,0,0,1,.53.16.38.38,0,0,1-.16.52l-1.91,1A.37.37,0,0,1,73,52.59Z"/><path class="cls-7" d="M78.74,52.59a.41.41,0,0,1-.18-.05L77,51.7a.39.39,0,0,1-.17-.52.4.4,0,0,1,.53-.17l.91.48L78,50.23a.39.39,0,1,1,.76-.13l.35,2a.37.37,0,0,1-.15.38A.4.4,0,0,1,78.74,52.59Z"/><path class="cls-7" d="M79,48.62a.36.36,0,0,1-.27-.12.39.39,0,0,1,0-.55l1-1-1.57-.23a.39.39,0,0,1,.11-.77l2.36.34a.39.39,0,0,1,.31.27.38.38,0,0,1-.1.39l-1.58,1.54A.39.39,0,0,1,79,48.62Z"/><path class="cls-7" d="M81.43,56.29a.36.36,0,0,1-.31-.16l-5.67-7.81a.38.38,0,1,1,.62-.45l5.68,7.81a.4.4,0,0,1-.09.54A.39.39,0,0,1,81.43,56.29Z"/><path class="cls-7" d="M75.85,42a.43.43,0,0,1-.28-.11L74.1,40.37a.39.39,0,0,1,.55-.55l1.2,1.2,1.22-1.22a.39.39,0,0,1,.55.55l-1.5,1.5A.39.39,0,0,1,75.85,42Z"/><path class="cls-7" d="M75.86,58.12a.39.39,0,0,1-.39-.39V38.46a.39.39,0,0,1,.78,0V57.73A.39.39,0,0,1,75.86,58.12Z"/><path class="cls-7" d="M74.37,56.51a.36.36,0,0,1-.27-.12.39.39,0,0,1,0-.55l1.5-1.49a.38.38,0,0,1,.55,0l1.47,1.47a.39.39,0,0,1-.55.55l-1.2-1.2-1.22,1.22A.39.39,0,0,1,74.37,56.51Z"/><path class="cls-7" d="M75.85,42a.43.43,0,0,1-.28-.11L74.1,40.37a.39.39,0,0,1,.55-.55l1.2,1.2,1.22-1.22a.39.39,0,0,1,.55.55l-1.5,1.5A.39.39,0,0,1,75.85,42Z"/><path class="cls-7" d="M75.86,58.12a.39.39,0,0,1-.39-.39V38.46a.39.39,0,0,1,.78,0V57.73A.39.39,0,0,1,75.86,58.12Z"/><path class="cls-7" d="M79.4,56h-.06a.4.4,0,0,1-.33-.44l.31-2.1a.39.39,0,0,1,.44-.33l2.06.3a.39.39,0,0,1,.33.44.4.4,0,0,1-.44.33L80,54l-.25,1.72A.39.39,0,0,1,79.4,56Z"/><path class="cls-7" d="M75.86,48.48a.36.36,0,0,1-.31-.16l-5.68-7.8a.39.39,0,1,1,.63-.46l5.67,7.81a.38.38,0,0,1-.08.54A.39.39,0,0,1,75.86,48.48Z"/><path class="cls-7" d="M71.92,43.07h-.06l-2.06-.3a.38.38,0,1,1,.11-.76l1.68.24.25-1.71a.39.39,0,0,1,.77.11l-.31,2.09A.38.38,0,0,1,71.92,43.07Z"/><path class="cls-7" d="M72.22,56a.39.39,0,0,1-.38-.33L71.59,54l-1.68.25a.39.39,0,1,1-.11-.77l2.06-.3a.39.39,0,0,1,.44.33l.31,2.1a.4.4,0,0,1-.33.44Z"/><path class="cls-7" d="M79.7,43.07a.38.38,0,0,1-.38-.34L79,40.64a.39.39,0,1,1,.77-.11L80,42.24,81.71,42a.38.38,0,1,1,.11.76l-2.06.3Z"/><path class="cls-7" d="M70.19,56.29a.38.38,0,0,1-.32-.61l5.68-7.81a.38.38,0,1,1,.62.45L70.5,56.13A.37.37,0,0,1,70.19,56.29Z"/><path class="cls-7" d="M75.76,48.48a.39.39,0,0,1-.23-.07.38.38,0,0,1-.08-.54l5.67-7.81a.39.39,0,0,1,.54-.09.41.41,0,0,1,.09.55l-5.68,7.8A.36.36,0,0,1,75.76,48.48Z"/><path class="cls-7" d="M16.73,90.51a.39.39,0,0,1-.34-.21l-1-1.89a.44.44,0,0,1,0-.3.38.38,0,0,1,.19-.22l1.86-1a.39.39,0,0,1,.35.69l-1.51.77L17.08,90a.39.39,0,0,1-.17.52A.39.39,0,0,1,16.73,90.51Z"/><path class="cls-7" d="M1.49,85.58a.39.39,0,0,1-.17-.74l1.5-.77L2,82.53a.39.39,0,0,1,.69-.35l1,1.88a.4.4,0,0,1,0,.3.38.38,0,0,1-.2.23l-1.85.94A.41.41,0,0,1,1.49,85.58Z"/><path class="cls-7" d="M18.73,89.59h-.12L.27,83.64A.38.38,0,0,1,0,83.15a.39.39,0,0,1,.49-.25l18.34,5.94a.39.39,0,0,1,.25.49A.4.4,0,0,1,18.73,89.59Z"/><path class="cls-7" d="M2.38,90.55a.34.34,0,0,1-.17,0A.38.38,0,0,1,2,90l.78-1.54-1.5-.77A.39.39,0,1,1,1.67,87l1.85.94a.38.38,0,0,1,.2.23.39.39,0,0,1,0,.3l-1,1.88A.39.39,0,0,1,2.38,90.55Z"/><path class="cls-7" d="M17.62,85.61a.33.33,0,0,1-.17,0l-1.86-.95a.38.38,0,0,1-.19-.22.44.44,0,0,1,0-.3l1-1.89a.39.39,0,0,1,.52-.17.39.39,0,0,1,.17.53l-.79,1.54,1.51.77a.39.39,0,0,1,.17.52A.37.37,0,0,1,17.62,85.61Z"/><path class="cls-7" d="M.39,89.63A.38.38,0,0,1,0,89.36a.38.38,0,0,1,.25-.49l18.34-5.93a.38.38,0,1,1,.24.73L.51,89.61Z"/><path class="cls-7" d="M10.56,83.66a.39.39,0,0,1-.35-.22l-.6-1.23L9,83.44a.39.39,0,1,1-.7-.34l1-1.94a.4.4,0,0,1,.69,0l1,1.94a.4.4,0,0,1-.18.52A.47.47,0,0,1,10.56,83.66Z"/><path class="cls-7" d="M6.36,86.53a.4.4,0,0,1-.27-.11L4.65,85a.4.4,0,0,1-.1-.39.4.4,0,0,1,.32-.27l2-.29a.38.38,0,1,1,.11.76L5.76,85l.87.85a.38.38,0,0,1,0,.55A.39.39,0,0,1,6.36,86.53Z"/><path class="cls-7" d="M6.71,90.63a.39.39,0,0,1-.23-.07.38.38,0,0,1-.15-.38l.35-2a.4.4,0,0,1,.45-.32.39.39,0,0,1,.31.45l-.21,1.26,1.2-.63a.39.39,0,0,1,.53.16.4.4,0,0,1-.16.53l-1.91,1A.37.37,0,0,1,6.71,90.63Z"/><path class="cls-7" d="M12.5,90.63a.39.39,0,0,1-.18,0l-1.6-.85a.39.39,0,0,1-.17-.52.39.39,0,0,1,.53-.16l.9.47-.21-1.26a.39.39,0,0,1,.32-.45.39.39,0,0,1,.44.32l.35,2a.38.38,0,0,1-.15.38A.39.39,0,0,1,12.5,90.63Z"/><path class="cls-7" d="M12.71,86.66a.39.39,0,0,1-.28-.12.38.38,0,0,1,0-.54l1-1-1.57-.23A.39.39,0,0,1,12,84l2.36.34a.4.4,0,0,1,.31.27.38.38,0,0,1-.1.39L13,86.55A.35.35,0,0,1,12.71,86.66Z"/><path class="cls-7" d="M15.19,94.34a.38.38,0,0,1-.31-.16L9.2,86.37a.41.41,0,0,1,.09-.55.39.39,0,0,1,.54.09l5.68,7.81a.39.39,0,0,1-.09.54A.4.4,0,0,1,15.19,94.34Z"/><path class="cls-7" d="M9.61,80a.43.43,0,0,1-.28-.11L7.86,78.42a.39.39,0,0,1,0-.55.38.38,0,0,1,.55,0l1.2,1.19,1.22-1.22a.39.39,0,0,1,.55.55l-1.5,1.5A.39.39,0,0,1,9.61,80Z"/><path class="cls-7" d="M9.62,96.16a.39.39,0,0,1-.39-.38V76.5a.39.39,0,0,1,.78,0V95.78A.39.39,0,0,1,9.62,96.16Z"/><path class="cls-7" d="M8.13,94.55a.39.39,0,0,1-.27-.11.39.39,0,0,1,0-.55l1.5-1.5a.39.39,0,0,1,.55,0l1.47,1.47a.39.39,0,0,1-.55.55l-1.2-1.2L8.41,94.44A.43.43,0,0,1,8.13,94.55Z"/><path class="cls-7" d="M9.61,80a.43.43,0,0,1-.28-.11L7.86,78.42a.39.39,0,0,1,0-.55.38.38,0,0,1,.55,0l1.2,1.19,1.22-1.22a.39.39,0,0,1,.55.55l-1.5,1.5A.39.39,0,0,1,9.61,80Z"/><path class="cls-7" d="M9.62,96.16a.39.39,0,0,1-.39-.38V76.5a.39.39,0,0,1,.78,0V95.78A.39.39,0,0,1,9.62,96.16Z"/><path class="cls-7" d="M13.15,94H13.1a.39.39,0,0,1-.33-.44l.31-2.1a.39.39,0,0,1,.44-.33l2.06.3a.39.39,0,0,1,.33.44.4.4,0,0,1-.44.33L13.79,92l-.25,1.71A.4.4,0,0,1,13.15,94Z"/><path class="cls-7" d="M9.62,86.53a.38.38,0,0,1-.31-.16L3.63,78.56a.39.39,0,1,1,.63-.46l5.67,7.81a.38.38,0,0,1-.08.54A.4.4,0,0,1,9.62,86.53Z"/><path class="cls-7" d="M5.68,81.11H5.62l-2.06-.3a.4.4,0,0,1-.33-.44A.39.39,0,0,1,3.67,80l1.68.24.25-1.71A.39.39,0,0,1,6,78.24a.39.39,0,0,1,.33.44l-.31,2.1A.38.38,0,0,1,5.68,81.11Z"/><path class="cls-7" d="M6,94a.39.39,0,0,1-.38-.33L5.35,92l-1.68.24a.39.39,0,0,1-.11-.77l2.06-.3a.39.39,0,0,1,.44.33l.31,2.1A.39.39,0,0,1,6,94Z"/><path class="cls-7" d="M13.46,81.11a.38.38,0,0,1-.38-.33l-.31-2.1a.39.39,0,0,1,.33-.44.39.39,0,0,1,.44.33l.25,1.71L15.47,80a.39.39,0,0,1,.44.33.4.4,0,0,1-.33.44l-2.06.3Z"/><path class="cls-7" d="M4,94.34a.4.4,0,0,1-.23-.08.39.39,0,0,1-.09-.54l5.68-7.81a.39.39,0,1,1,.62.46L4.26,94.18A.4.4,0,0,1,4,94.34Z"/><path class="cls-7" d="M9.52,86.53a.4.4,0,0,1-.23-.08.39.39,0,0,1-.09-.54l5.68-7.81a.39.39,0,0,1,.54-.09.41.41,0,0,1,.09.55L9.83,86.37A.38.38,0,0,1,9.52,86.53Z"/><polygon class="cls-3" points="659.42 47.71 656.75 49.08 658.18 51.91 656.12 49.57 654.08 51.88 655.48 49.07 652.79 47.67 655.72 48.27 656.09 45.09 656.5 48.27 659.42 47.71"/><polygon class="cls-3" points="666.06 46.4 663.38 47.77 664.82 50.6 662.75 48.26 660.72 50.57 662.12 47.76 659.42 46.36 662.35 46.96 662.72 43.78 663.14 46.96 666.06 46.4"/><polygon class="cls-3" points="671.87 49.2 669.19 50.57 670.63 53.4 668.56 51.06 666.52 53.37 667.92 50.56 665.23 49.16 668.16 49.76 668.53 46.58 668.94 49.76 671.87 49.2"/></g></g></svg>