<svg xmlns="http://www.w3.org/2000/svg" width="45" height="34" viewBox="0 0 45 34">
  <g id="Automotive" transform="translate(-111 -391.096)">
    <rect id="Rectangle_3470" data-name="Rectangle 3470" width="34" height="34" rx="17" transform="translate(122 391.096)" fill="#fdd8d8"/>
    <g id="XMLID_1_" transform="translate(111 330.138)">
      <g id="XMLID_3866_" transform="translate(0 60.958)">
        <g id="XMLID_371_" transform="translate(3.785 16.87)">
          <path id="XMLID_3570_" d="M61.516,324.031a4.516,4.516,0,1,1,4.516-4.516A4.52,4.52,0,0,1,61.516,324.031Zm0-8.367a3.852,3.852,0,1,0,3.852,3.852A3.854,3.854,0,0,0,61.516,315.664Z" transform="translate(-57 -315)" fill="#333"/>
        </g>
        <g id="XMLID_379_" transform="translate(5.844 18.929)">
          <path id="XMLID_3567_" d="M90.457,350.914a2.457,2.457,0,1,1,2.457-2.457A2.46,2.46,0,0,1,90.457,350.914Zm0-4.25a1.793,1.793,0,1,0,1.793,1.793A1.794,1.794,0,0,0,90.457,346.664Z" transform="translate(-88 -346)" fill="#333"/>
        </g>
        <g id="XMLID_372_" transform="translate(0 19.327)">
          <path id="XMLID_3564_" d="M4.117,356.117H.332A.329.329,0,0,1,0,355.785v-3.453A.329.329,0,0,1,.332,352H4.117a.329.329,0,0,1,.332.332v3.453A.329.329,0,0,1,4.117,356.117Zm-3.453-.664H3.785v-2.789H.664Z" transform="translate(0 -352)" fill="#333"/>
        </g>
        <g id="XMLID_381_" transform="translate(1.195 4.844)">
          <path id="XMLID_3563_" d="M18.664,148.715H18v-3.254a.313.313,0,0,1,.08-.212,10.486,10.486,0,0,1,8.068-3.772h3.314l1.753-2.178A14.524,14.524,0,0,1,42.5,133.9v.664a13.8,13.8,0,0,0-10.771,5.146l-1.853,2.3a.327.327,0,0,1-.259.126H26.148a9.837,9.837,0,0,0-7.484,3.44Z" transform="translate(-18 -133.9)" fill="#333"/>
        </g>
        <g id="XMLID_378_" transform="translate(14.676 10.694)">
          <path id="XMLID_3560_" d="M224.453,224.391h-3.121a.329.329,0,0,1-.332-.332V223.2a1.2,1.2,0,0,1,1.2-1.2h2.258a1.2,1.2,0,0,1,0,2.391Zm-2.789-.664h2.789a.531.531,0,1,0,0-1.062H222.2a.533.533,0,0,0-.531.531Z" transform="translate(-221 -222)" fill="#333"/>
        </g>
        <g id="XMLID_382_" transform="translate(1.197 14.479)">
          <path id="XMLID_3556_" d="M20.747,281.258H18.357a.332.332,0,0,1-.252-.545A4.762,4.762,0,0,1,21.77,279h.571a.329.329,0,0,1,.332.332A1.927,1.927,0,0,1,20.747,281.258Zm-1.587-.664h1.587a1.261,1.261,0,0,0,1.215-.93h-.2A4.107,4.107,0,0,0,19.16,280.594Z" transform="translate(-18.026 -279)" fill="#333"/>
        </g>
        <g id="XMLID_377_" transform="translate(15.672 0)">
          <path id="XMLID_2818_" d="M251.672,86.859a.322.322,0,0,1-.173-.046.329.329,0,0,1-.159-.286V83.851l-1.328-.677-1.328.677v2.676a.334.334,0,0,1-.485.3l-1.746-.9.305-.591,1.268.651V83.651a.347.347,0,0,1,.179-.3l1.66-.85a.352.352,0,0,1,.305,0l1.66.85a.334.334,0,0,1,.179.3v2.338l1.66-.85V81.467l-2.145-1.1a.334.334,0,0,1-.179-.3V67.747a.347.347,0,0,1,.179-.3l2.145-1.1V62.687l-1.66-.85v2.338a.347.347,0,0,1-.179.3l-1.66.85a.352.352,0,0,1-.305,0l-1.66-.85a.334.334,0,0,1-.179-.3V61.837l-1.667.85v3.672l2.145,1.1a.334.334,0,0,1,.179.3V80.079a.347.347,0,0,1-.179.3l-2.145,1.089v.81a.329.329,0,0,1-.332.332h-.066a4.62,4.62,0,0,1-.345.837l.611.611a.338.338,0,0,1,.1.232.311.311,0,0,1-.1.232l-1.408,1.408a.329.329,0,0,1-.472,0l-.611-.611a4.621,4.621,0,0,1-.837.345v.863a.329.329,0,0,1-.332.332h-1.992a.329.329,0,0,1-.332-.332v-.863a4.621,4.621,0,0,1-.837-.345l-.611.611a.329.329,0,0,1-.471,0l-1.395-1.408a.329.329,0,0,1,0-.471l.611-.611a4.621,4.621,0,0,1-.345-.837h-.863A.329.329,0,0,1,236,82.27V80.278a.329.329,0,0,1,.332-.332h.863a4.621,4.621,0,0,1,.345-.837l-.611-.611a.329.329,0,0,1,0-.471l1.408-1.408a.329.329,0,0,1,.471,0l.611.611a4.621,4.621,0,0,1,.837-.345v-.863a.329.329,0,0,1,.332-.332h1.992a.329.329,0,0,1,.332.332v.863a4.621,4.621,0,0,1,.837.345l.611-.611a.329.329,0,0,1,.471,0l1.408,1.408a.338.338,0,0,1,.1.232.312.312,0,0,1-.1.232l-.611.611a4.621,4.621,0,0,1,.345.837h.863a.329.329,0,0,1,.332.332V80.3l.863-.445v-11.9l-2.145-1.1a.334.334,0,0,1-.179-.3V62.481a.347.347,0,0,1,.179-.3l2.324-1.189a.334.334,0,0,1,.325.013.329.329,0,0,1,.159.286v2.676l1.328.677,1.328-.677V61.292a.334.334,0,0,1,.485-.3l2.324,1.189a.334.334,0,0,1,.179.3v4.077a.347.347,0,0,1-.179.3L252,67.953v11.92l2.145,1.1a.334.334,0,0,1,.179.3v4.077a.347.347,0,0,1-.179.3l-2.324,1.189a.566.566,0,0,1-.153.027Zm-10.758-.664h1.328v-.784a.341.341,0,0,1,.252-.325,3.786,3.786,0,0,0,1.122-.465.33.33,0,0,1,.405.046l.551.551.936-.936-.551-.551a.331.331,0,0,1-.046-.405,3.786,3.786,0,0,0,.465-1.122.325.325,0,0,1,.305-.252v-.684a.347.347,0,0,1,.179-.3l.618-.312v-.04H245.7a.341.341,0,0,1-.325-.252,3.785,3.785,0,0,0-.465-1.122.33.33,0,0,1,.046-.405l.551-.551-.936-.936-.551.551a.331.331,0,0,1-.405.046,3.786,3.786,0,0,0-1.122-.465.329.329,0,0,1-.252-.325v-.79h-1.328v.784a.341.341,0,0,1-.252.325,3.786,3.786,0,0,0-1.122.465.33.33,0,0,1-.405-.046l-.551-.551-.936.936.551.551a.331.331,0,0,1,.046.405,3.787,3.787,0,0,0-.465,1.122.335.335,0,0,1-.325.252h-.784v1.328h.784a.341.341,0,0,1,.325.252,3.787,3.787,0,0,0,.465,1.122.33.33,0,0,1-.046.405l-.551.551.936.936.551-.551a.331.331,0,0,1,.405-.046,3.786,3.786,0,0,0,1.122.465.329.329,0,0,1,.252.325v.8Zm.664-2.258a2.656,2.656,0,1,1,2.656-2.656A2.656,2.656,0,0,1,241.578,83.937Zm0-4.648a1.992,1.992,0,1,0,1.992,1.992A2,2,0,0,0,241.578,79.289Z" transform="translate(-236 -60.958)" fill="#333"/>
        </g>
        <g id="XMLID_1091_" transform="translate(16.177 6.511)">
          <path id="XMLID_2600_" d="M244.111,163.728l-.511-.425.4-.478A10.483,10.483,0,0,1,252.113,159h3.334v.664h-3.334a9.824,9.824,0,0,0-7.6,3.586Z" transform="translate(-243.6 -159)" fill="#333"/>
        </g>
        <g id="XMLID_1090_" transform="translate(15.008 12.421)">
          <path id="XMLID_2449_" d="M226,248h11.688v.664H226Z" transform="translate(-226 -248)" fill="#333"/>
        </g>
        <g id="XMLID_984_" transform="translate(12.152 19.327)">
          <path id="XMLID_959_" d="M187.9,356.117h-4.569a.329.329,0,0,1-.332-.332v-3.453a.329.329,0,0,1,.332-.332h3.52v.664h-3.187v2.789H187.9Z" transform="translate(-183 -352)" fill="#333"/>
        </g>
        <g id="XMLID_1109_" transform="translate(19.025 19.327)">
          <path id="XMLID_957_" d="M286.5,352h4.456v.664H286.5Z" transform="translate(-286.5 -352)" fill="#333"/>
        </g>
      </g>
    </g>
  </g>
</svg>
