<svg xmlns="http://www.w3.org/2000/svg" width="41.309" height="34" viewBox="0 0 41.309 34">
  <g id="Beauty_Health" data-name="Beauty &amp; Health" transform="translate(-113.691 -391.096)">
    <rect id="Rectangle_3471" data-name="Rectangle 3471" width="34" height="34" rx="17" transform="translate(121 391.096)" fill="#fdd8d8"/>
    <g id="_002-skin-care" data-name="002-skin-care" transform="translate(110.441 387.846)">
      <path id="Path_92" data-name="Path 92" d="M45.016,20.332V22.6a.394.394,0,0,0,.394.394H50.4a.394.394,0,0,0,.394-.394V20.332a.394.394,0,0,0-.394-.394H45.41A.394.394,0,0,0,45.016,20.332Zm.788.394H50V22.2H45.8Z" transform="translate(-19.82 -7.919)" fill="#333"/>
      <path id="Path_93" data-name="Path 93" d="M31.288,28.121a.394.394,0,0,0,.392-.356l1.783-18.2V7.783a.394.394,0,0,0-.394-.394H23.1a.394.394,0,0,0-.394.394l0,1.819,1.13,11.522a5.294,5.294,0,0,0-1.356-2.182L21.04,17.555a.388.388,0,0,0-.3-.11.393.393,0,0,0-.282.144,5.808,5.808,0,0,1-2.819,1.889.394.394,0,0,0,.229.754,6.592,6.592,0,0,0,2.92-1.822l1.141,1.1a4.513,4.513,0,0,1,1.353,2.837H13.448a2.019,2.019,0,0,1,1.022-1.392l.026-.012a2.044,2.044,0,0,1,.63-.213l1.121-.178a.394.394,0,1,0-.123-.778L15,19.952a2.831,2.831,0,0,0-.28.07V12.051a1.446,1.446,0,0,0-1.445-1.445H11.614V7.322a.394.394,0,0,0-.394-.394h-.394V5.463h3.853a.394.394,0,0,0,.394-.394V3.644a.394.394,0,0,0-.394-.394H6.753a.394.394,0,0,0-.394.394V5.069a.394.394,0,0,0,.394.394h.394V6.928H6.753a.394.394,0,0,0-.394.394v3.284H4.695A1.446,1.446,0,0,0,3.25,12.051V13.1a.394.394,0,0,0,.788,0V12.051a.657.657,0,0,1,.657-.657h8.583a.657.657,0,0,1,.657.657v8.31a2.794,2.794,0,0,0-1.279,1.985h-.6a.394.394,0,0,0-.394.394v1.387h-.78a.394.394,0,0,0-.394.394V29H4.038V15.073h6.445v7.873a.394.394,0,0,0,.788,0V14.679a.394.394,0,0,0-.394-.394H3.644a.394.394,0,0,0-.394.394V31.23a2.236,2.236,0,0,0,2.233,2.233H25.048a1.184,1.184,0,0,0,1.182-1.182V29.546H30.5a.4.4,0,0,1,.394.394v2.341a.4.4,0,0,1-.394.394H27.412a.394.394,0,1,0,0,.788H30.5a1.184,1.184,0,0,0,1.182-1.182V29.94a1.182,1.182,0,0,0-.972-1.161v-.658ZM7.147,4.038h7.137v.637H7.147Zm.788,1.425h2.1V6.928h-2.1ZM7.147,7.716h3.678v2.89H7.147Zm25.528.461V9.17H26.751a.394.394,0,0,0,0,.788h5.884l-1.7,17.375h-4.7V24.522a.394.394,0,0,0-.394-.394h-.78V22.741a.389.389,0,0,0-.308-.377L23.53,9.958h1.72a.394.394,0,0,0,0-.788H23.491V8.177ZM12.445,23.135H24.268v.993H12.445Zm-1.174,3.633H21.641v4.055H11.272ZM4.038,31.23V29.785h6.445v2.5a1.168,1.168,0,0,0,.073.394H5.483A1.446,1.446,0,0,1,4.038,31.23Zm21.4,1.051a.4.4,0,0,1-.394.394H11.666a.4.4,0,0,1-.394-.394v-.67H22.035a.394.394,0,0,0,.394-.394V26.374a.394.394,0,0,0-.394-.394H11.272V24.916h14.17Zm4.48-3.523H26.23v-.637h3.692Z" fill="#333"/>
    </g>
  </g>
</svg>
