<svg xmlns="http://www.w3.org/2000/svg" width="40.068" height="34" viewBox="0 0 40.068 34">
  <g id="brands" transform="translate(-115.932 -391.096)">
    <rect id="Rectangle_3470" data-name="Rectangle 3470" width="34" height="34" rx="17" transform="translate(122 391.096)" fill="#fdd8d8"/>
    <g id="Group_107" data-name="Group 107" transform="translate(115.932 393.196)">
      <path id="Path_197" data-name="Path 197" d="M29.272,11.485h-.837l.083-2.917L24.893,6.61,22.935,2.986,18.817,3.1,15.309.942,11.8,3.1,7.683,2.985,5.725,6.61,2.1,8.568l.083,2.917H1.346A1.347,1.347,0,0,0,0,12.831v6.728A1.347,1.347,0,0,0,1.346,20.9h.837L2.1,23.821l3.625,1.958L7.683,29.4l4.118-.117,3.508,2.16,3.508-2.16,4.118.117,1.958-3.625,3.625-1.958L28.435,20.9h.837a1.347,1.347,0,0,0,1.346-1.346V12.831A1.347,1.347,0,0,0,29.272,11.485ZM3.012,9.1,6.387,7.272,8.209,3.9l3.834.109L15.309,2l3.266,2.011L22.408,3.9l1.823,3.374L27.606,9.1l-.068,2.39H25.486A11.217,11.217,0,0,0,9.544,6.576l.462.769a10.32,10.32,0,0,1,14.483,4.14H6.129A10.355,10.355,0,0,1,9.285,7.82l-.525-.728a11.247,11.247,0,0,0-3.629,4.393H3.08Zm24.594,14.2-3.374,1.823-1.823,3.374-3.834-.109-3.266,2.011-3.266-2.011-3.834.109L6.387,25.117,3.012,23.294,3.08,20.9H5.132a11.215,11.215,0,0,0,20.355,0h2.052Zm2.115-3.736a.449.449,0,0,1-.449.449H16.654v.9h7.834a10.318,10.318,0,0,1-18.359,0h7.834v-.9H1.346A.449.449,0,0,1,.9,19.558V12.831a.449.449,0,0,1,.449-.449H29.272a.449.449,0,0,1,.449.449Z" fill="#333"/>
      <path id="Path_198" data-name="Path 198" d="M248.5,319.75h.9v.9h-.9Z" transform="translate(-233.64 -299.743)" fill="#333"/>
      <path id="Path_199" data-name="Path 199" d="M301,113.5h.9v.9H301Z" transform="translate(-282.999 -105.826)" fill="#333"/>
      <path id="Path_200" data-name="Path 200" d="M331,128.5h.9v.9H331Z" transform="translate(-311.205 -119.93)" fill="#333"/>
      <path id="Path_201" data-name="Path 201" d="M216.69,218.18l-1.633,4.289.838.319.389-1.022h1.572l.385,1.021.839-.317-1.62-4.291Zm-.064,2.689.448-1.177.444,1.177Z" transform="translate(-202.196 -204.246)" fill="#333"/>
      <path id="Path_202" data-name="Path 202" d="M314.632,220.794l-1.706-2.715h-.856V222.6h.9v-2.771l1.706,2.715h.856v-4.473h-.9Z" transform="translate(-293.408 -204.146)" fill="#333"/>
      <path id="Path_203" data-name="Path 203" d="M400.555,218.072h-1.447v4.422h1.484a2,2,0,0,0,1.835-2.211A1.951,1.951,0,0,0,400.555,218.072Zm.025,3.525h-.575v-2.628h.55c.471,0,.975.345.975,1.314C401.53,221.172,401.038,221.587,400.58,221.6Z" transform="translate(-375.241 -204.145)" fill="#333"/>
      <path id="Path_204" data-name="Path 204" d="M59.975,220.175a1.284,1.284,0,0,0-1.076-1.986H57.4v4.529h1.688a1.429,1.429,0,0,0,.891-2.543Zm-1.682-1.089H58.9a.388.388,0,0,1,0,.776h-.607Zm.791,2.735h-.791v-1.063h.791a.531.531,0,0,1,0,1.063Z" transform="translate(-53.964 -204.256)" fill="#333"/>
      <path id="Path_205" data-name="Path 205" d="M141.532,219.582a1.421,1.421,0,0,0-1.446-1.392h-1.414v4.529h.9v-1.5l1.352,1.6.685-.579-1.113-1.315A1.4,1.4,0,0,0,141.532,219.582Zm-1.963-.5h.517a.5.5,0,1,1,0,.991l-.515,0Z" transform="translate(-130.378 -204.256)" fill="#333"/>
    </g>
  </g>
</svg>
