<svg xmlns="http://www.w3.org/2000/svg" width="42.518" height="34.051" viewBox="0 0 42.518 34.051">
  <g id="Business_Services" data-name="Business Services" transform="translate(-110.482 -389.949)">
    <rect id="Rectangle_3472" data-name="Rectangle 3472" width="34" height="34" rx="17" transform="translate(119 389.949)" fill="#fdd8d8"/>
    <g id="Outline_final" transform="translate(109.481 388.949)">
      <path id="Path_94" data-name="Path 94" d="M34.632,32.238a.549.549,0,0,1-.549-.549V25.1H23.1v3.3a.549.549,0,1,1-1.1,0V24.549A.549.549,0,0,1,22.549,24H34.632a.549.549,0,0,1,.549.549v7.14A.549.549,0,0,1,34.632,32.238Z" transform="translate(-9.467 -10.368)" fill="#333"/>
      <path id="Path_95" data-name="Path 95" d="M34.632,29.1H22.549a.549.549,0,0,1,0-1.1H34.632a.549.549,0,1,1,0,1.1Z" transform="translate(-9.467 -12.171)" fill="#333"/>
      <path id="Path_96" data-name="Path 96" d="M41.5,33.1H37.779a.549.549,0,0,1,0-1.1H41.5a.549.549,0,0,1,0,1.1Z" transform="translate(-16.332 -13.975)" fill="#333"/>
      <path id="Path_97" data-name="Path 97" d="M28.59,14.181a6.59,6.59,0,1,1,6.59-6.59,6.59,6.59,0,0,1-6.59,6.59Zm0-12.083A5.492,5.492,0,1,0,34.083,7.59,5.492,5.492,0,0,0,28.59,2.1Z" transform="translate(-9.467)" fill="#333"/>
      <path id="Path_98" data-name="Path 98" d="M32.746,13.492h-2.2a.549.549,0,1,1,0-1.1h2.2a.549.549,0,0,0,0-1.1h-1.1a1.648,1.648,0,1,1,0-3.3h2.2a.549.549,0,1,1,0,1.1h-2.2a.549.549,0,0,0,0,1.1h1.1a1.648,1.648,0,1,1,0,3.3Z" transform="translate(-13.073 -3.156)" fill="#333"/>
      <path id="Path_99" data-name="Path 99" d="M33.549,8.2A.549.549,0,0,1,33,7.648v-1.1a.549.549,0,1,1,1.1,0v1.1A.549.549,0,0,1,33.549,8.2Z" transform="translate(-14.425 -2.254)" fill="#333"/>
      <path id="Path_100" data-name="Path 100" d="M33.549,18.2A.549.549,0,0,1,33,17.648v-1.1a.549.549,0,1,1,1.1,0v1.1A.549.549,0,0,1,33.549,18.2Z" transform="translate(-14.425 -6.762)" fill="#333"/>
      <path id="Path_101" data-name="Path 101" d="M10.886,51.279a.549.549,0,0,1-.388-.161L1.161,41.782a.549.549,0,0,1,0-.777l3.844-3.844a.549.549,0,0,1,.777,0L15.119,46.5a.549.549,0,0,1,0,.777l-3.844,3.844a.549.549,0,0,1-.388.161Zm-8.56-9.886,8.56,8.56,3.068-3.068-8.56-8.56Z" transform="translate(0 -16.229)" fill="#333"/>
      <path id="Path_102" data-name="Path 102" d="M10.549,36.492a.549.549,0,0,1-.388-.937l4.394-4.394A.549.549,0,0,1,14.943,31h9.337a2.2,2.2,0,0,1,0,4.394H20.435a.549.549,0,0,1,0-1.1h3.844a1.1,1.1,0,1,0,0-2.2H15.17l-4.233,4.233A.549.549,0,0,1,10.549,36.492Z" transform="translate(-4.057 -13.524)" fill="#333"/>
      <path id="Path_103" data-name="Path 103" d="M23.549,40.5a.549.549,0,0,1-.388-.937l2.746-2.746a.549.549,0,0,1,.388-.161h8l9.3-9.834a1.008,1.008,0,0,0-1.448-1.4L35.471,32.1a.549.549,0,0,1-.389.161H29.591a.549.549,0,0,1,0-1.1h5.264l6.515-6.523a2.107,2.107,0,0,1,3.021,2.936L34.933,37.583a.549.549,0,0,1-.4.171H26.523L23.938,40.34a.549.549,0,0,1-.388.161Z" transform="translate(-9.917 -10.393)" fill="#333"/>
    </g>
  </g>
</svg>
