<svg xmlns="http://www.w3.org/2000/svg" width="43" height="34" viewBox="0 0 43 34">
  <g id="Dealers_Distributors" data-name="Dealers &amp; Distributors" transform="translate(-110 -385.502)">
    <rect id="Rectangle_3473" data-name="Rectangle 3473" width="34" height="34" rx="17" transform="translate(119 385.502)" fill="#fdd8d8"/>
    <g id="Distributed" transform="translate(109 384.499)">
      <path id="Path_104" data-name="Path 104" d="M29,52.609A1.609,1.609,0,1,0,30.609,51,1.609,1.609,0,0,0,29,52.609Zm2.145,0a.536.536,0,1,1-.536-.536A.536.536,0,0,1,31.145,52.609Z" transform="translate(-12.985 -23.185)" fill="#333"/>
      <path id="Path_105" data-name="Path 105" d="M7,52.609A1.609,1.609,0,1,0,8.609,51,1.609,1.609,0,0,0,7,52.609Zm2.145,0a.536.536,0,1,1-.536-.536A.536.536,0,0,1,9.145,52.609Z" transform="translate(-2.782 -23.185)" fill="#333"/>
      <path id="Path_106" data-name="Path 106" d="M33.712,24.6H29.958V21.916h.536a.536.536,0,0,0,.536-.536V19.235a.536.536,0,0,0-.536-.536H28.349a.536.536,0,0,0-.536.536v.536h-8.58v-.536A.536.536,0,0,0,18.7,18.7H18.16V15.34l6.593-2.028a.536.536,0,0,0,.379-.513V4.219a.536.536,0,0,0-.218-.429.945.945,0,0,0-.126-.07L17.817,1.039a.541.541,0,0,0-.385,0L10.46,3.721a.945.945,0,0,0-.126.07.536.536,0,0,0-.218.429V12.8a.536.536,0,0,0,.379.513l6.593,2.028V18.7h-.536a.536.536,0,0,0-.536.536v.536H7.435v-.536A.536.536,0,0,0,6.9,18.7H4.754a.536.536,0,0,0-.536.536V21.38a.536.536,0,0,0,.536.536H5.29V24.6H1.536A.536.536,0,0,0,1,25.134v8.58a.536.536,0,0,0,.536.536h8.58a.536.536,0,0,0,.536-.536v-8.58a.536.536,0,0,0-.536-.536H6.363V21.916H6.9a.536.536,0,0,0,.536-.536v-.536h8.58v.536a.536.536,0,0,0,.536.536h.536V24.6H13.334a.536.536,0,0,0-.536.536v8.58a.536.536,0,0,0,.536.536h8.58a.536.536,0,0,0,.536-.536v-8.58a.536.536,0,0,0-.536-.536H18.16V21.916H18.7a.536.536,0,0,0,.536-.536v-.536h8.58v.536a.536.536,0,0,0,.536.536h.536V24.6H25.132a.536.536,0,0,0-.536.536v8.58a.536.536,0,0,0,.536.536h8.58a.536.536,0,0,0,.536-.536v-8.58A.536.536,0,0,0,33.712,24.6ZM24.059,12.4l-5.9,1.815V6.761l5.9-1.815ZM17.624,2.112l5.331,2.053L17.624,5.8,12.293,4.166ZM11.189,4.946l5.9,1.815v7.458l-5.9-1.815ZM9.58,33.178H2.073V25.67H9.58ZM6.363,20.844H5.29V19.771H6.363ZM21.378,33.178H13.87V25.67h7.508ZM18.16,20.844H17.088V19.771H18.16Zm10.725-1.073h1.073v1.073H28.886Zm4.29,13.407H25.668V25.67h7.508Z" fill="#333"/>
      <path id="Path_107" data-name="Path 107" d="M51,52.609A1.609,1.609,0,1,0,52.609,51,1.609,1.609,0,0,0,51,52.609Zm2.145,0a.536.536,0,1,1-.536-.536A.536.536,0,0,1,53.145,52.609Z" transform="translate(-23.187 -23.185)" fill="#333"/>
      <path id="Path_108" data-name="Path 108" d="M51.754,58H48.536a.536.536,0,0,0,0,1.073h3.218a.536.536,0,1,0,0-1.073Z" transform="translate(-21.796 -26.431)" fill="#333"/>
      <path id="Path_109" data-name="Path 109" d="M57.536,59.073h.536a.536.536,0,0,0,0-1.073h-.536a.536.536,0,0,0,0,1.073Z" transform="translate(-25.969 -26.431)" fill="#333"/>
    </g>
  </g>
</svg>
