<svg xmlns="http://www.w3.org/2000/svg" width="38" height="35.427" viewBox="0 0 38 35.427">
  <g id="Fashion" transform="translate(-112 -386)">
    <rect id="Rectangle_3475" data-name="Rectangle 3475" width="34" height="34" rx="17" transform="translate(116 386)" fill="#fdd8d8"/>
    <g id="_006-fashion" data-name="006-fashion" transform="translate(112 386)">
      <path id="Path_124" data-name="Path 124" d="M28.15,16.593c-2.234,0-3.43,1.621-4.54,4.055-1.479,3.245-3,5.105-4.164,5.105-.215,0-.87,0-1.439-1.272a.928.928,0,0,0-1.04-.526,7.006,7.006,0,0,0-4.578,2.839,5.858,5.858,0,0,0-.944,3,.928.928,0,0,0,.93.958h6.948c.1.775.18,1.538.244,2.275a7.787,7.787,0,0,1-5.745,1.257,25.493,25.493,0,0,1-5.291-1.6c-.687-.263-1.4-.534-2.1-.778a14.723,14.723,0,0,0-5.317-.994c.821-6.631,2.759-13.566,4.1-16H7.577C7.4,15.867,7.192,17.284,6.99,19a.519.519,0,1,0,1.031.121c.214-1.82.429-3.29.613-4.2h3.287c.183.914.4,2.378.611,4.2A.519.519,0,1,0,13.564,19c-.2-1.716-.405-3.128-.585-4.079h2.264A40.525,40.525,0,0,1,18,23.465a.519.519,0,1,0,1.011-.235,40.4,40.4,0,0,0-2.924-8.92c.143-.673.307-1.409.466-2.123.409-1.837.833-3.737.946-4.8.165-1.549.053-5.4.014-6.549A.86.86,0,0,0,16.655,0H15.437a.864.864,0,0,0-.863.863V2.111A4.434,4.434,0,0,1,10.2,6.574h-.015A4.388,4.388,0,0,1,5.8,2.184V.863A.864.864,0,0,0,4.932,0H3.714a.86.86,0,0,0-.863.834c-.022.659-.074,2.363-.074,3.93a.519.519,0,1,0,1.038,0c0-1.432.043-2.982.067-3.726h.874V2.184A5.426,5.426,0,0,0,10.2,7.612a5.474,5.474,0,0,0,5.408-5.5V1.038h.874c.042,1.3.136,4.82-.015,6.236-.108,1.008-.524,2.879-.927,4.688-.143.642-.29,1.3-.422,1.919H5.246c-.126-.588-.266-1.215-.4-1.826C4.433,10.207,4.007,8.3,3.9,7.273c-.013-.124-.025-.277-.037-.465a.519.519,0,0,0-1.036.063c.012.2.026.372.041.512.115,1.082.547,3.022.965,4.9.161.72.326,1.463.468,2.133a33.377,33.377,0,0,0-2.327,6.633A74.858,74.858,0,0,0,0,31.418a.519.519,0,0,0,.569.575,12.767,12.767,0,0,1,5.514.9c.69.238,1.393.507,2.072.767a26.241,26.241,0,0,0,5.513,1.658,10.646,10.646,0,0,0,1.517.111,8.322,8.322,0,0,0,5.238-1.745.519.519,0,0,0,.2-.45c-.065-.8-.15-1.629-.256-2.474h.318a1.063,1.063,0,0,0,1.012-.729,11.735,11.735,0,0,1,2.584-4.11,7.125,7.125,0,0,1,2.253-1.747,11.867,11.867,0,0,1,.122,2.124v3.528a.935.935,0,0,0,.934.934h.86a.935.935,0,0,0,.934-.934V26.3a4.86,4.86,0,0,1,.649-2.121,5.974,5.974,0,0,0,.779-2.7C30.813,18.645,29.693,16.593,28.15,16.593Zm.948,7.131a5.74,5.74,0,0,0-.751,2.57v3.424h-.652V26.3c0-1.658-.077-2.639-.484-3.067a.519.519,0,0,0-.377-.162c-1.2,0-2.837,1.638-3.309,2.141a12.805,12.805,0,0,0-2.814,4.5.028.028,0,0,1-.027.016h-8.2c.065-1.207.673-3.827,4.612-4.729a2.609,2.609,0,0,0,2.348,1.8c1.662,0,3.381-1.922,5.109-5.712,1.161-2.546,2.1-3.447,3.6-3.447.681,0,1.625,1.335,1.625,3.841A5.08,5.08,0,0,1,29.1,23.725Zm0,0" transform="translate(0)" fill="#333"/>
      <path id="Path_125" data-name="Path 125" d="M273.48,63.812l-.011-.026-1.541-3.628a.964.964,0,0,0-.888-.588h-8.268a.964.964,0,0,0-.889.588l-.193.455a.519.519,0,0,0,.955.406l.175-.411H264.8l-.415,2.872H261.6l.207-.488a.519.519,0,1,0-.955-.406l-.509,1.2c0,.009-.008.018-.011.026a.97.97,0,0,0,.174,1l5.68,6.375a.966.966,0,0,0,.715.323h.011a.966.966,0,0,0,.715-.323l5.68-6.375A.97.97,0,0,0,273.48,63.812Zm-9.114.809,1.361,4.5-4.1-4.6h2.71Q264.352,64.572,264.366,64.621Zm3.93,2a.519.519,0,0,0-.647.347l-.744,2.459-1.486-4.911h2.972l-.122.4a.519.519,0,1,0,.994.3l.182-.6c.01-.033.019-.067.026-.1h2.71l-4.1,4.6.559-1.847A.519.519,0,0,0,268.3,66.624Zm3.915-3.143h-2.788l-.414-2.872h1.982Zm-6.361-2.872h2.11l.414,2.872h-2.939Zm0,0" transform="translate(-242.253 -55.448)" fill="#333"/>
    </g>
  </g>
</svg>
