<svg xmlns="http://www.w3.org/2000/svg" width="42.533" height="34" viewBox="0 0 42.533 34">
  <g id="Food_And_Beverage" data-name="Food And Beverage" transform="translate(-108.467 -384.518)">
    <rect id="Rectangle_3476" data-name="Rectangle 3476" width="34" height="34" rx="17" transform="translate(117 384.518)" fill="#fdd8d8"/>
    <g id="_007-fast-food" data-name="007-fast-food" transform="translate(108.467 384.488)">
      <g id="Group_48" data-name="Group 48" transform="translate(0 0.03)">
        <path id="Path_126" data-name="Path 126" d="M454.974,303.193a.5.5,0,1,0,0,.708.5.5,0,0,0,0-.708Z" transform="translate(-423.966 -282.923)" fill="#333"/>
        <path id="Path_127" data-name="Path 127" d="M407.812,303.19a.5.5,0,1,0,.007.708.5.5,0,0,0-.007-.708Z" transform="translate(-379.937 -282.922)" fill="#333"/>
        <path id="Path_128" data-name="Path 128" d="M360.651,303.193a.5.5,0,1,0,0,.708.5.5,0,0,0,0-.708Z" transform="translate(-335.908 -282.923)" fill="#333"/>
        <path id="Path_129" data-name="Path 129" d="M313.49,303.193a.5.5,0,1,0,0,.708.5.5,0,0,0,0-.708Z" transform="translate(-291.879 -282.923)" fill="#333"/>
        <path id="Path_130" data-name="Path 130" d="M266.329,303.193a.5.5,0,1,0,0,.708.5.5,0,0,0,0-.708Z" transform="translate(-247.85 -282.923)" fill="#333"/>
        <path id="Path_131" data-name="Path 131" d="M219.167,303.193a.5.5,0,1,0,0,.708.5.5,0,0,0,0-.708Z" transform="translate(-203.82 -282.923)" fill="#333"/>
        <path id="Path_132" data-name="Path 132" d="M431.429,267.384a.5.5,0,1,0-.828.554l0,.006a.5.5,0,1,0,.828-.554Z" transform="translate(-401.924 -249.422)" fill="#333"/>
        <path id="Path_133" data-name="Path 133" d="M384.178,267.31a.5.5,0,0,0-.7.7l.006.006a.5.5,0,0,0,.7-.7Z" transform="translate(-357.869 -249.423)" fill="#333"/>
        <path id="Path_134" data-name="Path 134" d="M337,267.265a.5.5,0,1,0,0,.708.5.5,0,0,0,0-.708Z" transform="translate(-313.826 -249.382)" fill="#333"/>
        <path id="Path_135" data-name="Path 135" d="M289.837,267.265a.5.5,0,1,0,0,.708.5.5,0,0,0,0-.708Z" transform="translate(-269.796 -249.382)" fill="#333"/>
        <path id="Path_136" data-name="Path 136" d="M242.64,267.24a.5.5,0,1,0-.83.55l0,.006a.5.5,0,1,0,.83-.55Z" transform="translate(-225.673 -249.286)" fill="#333"/>
        <path id="Path_137" data-name="Path 137" d="M359.922,232.237a.5.5,0,0,0,.692-.134l0-.006a.5.5,0,1,0-.825-.558l0,.006A.5.5,0,0,0,359.922,232.237Z" transform="translate(-335.813 -215.959)" fill="#333"/>
        <path id="Path_138" data-name="Path 138" d="M312.762,232.24a.5.5,0,0,0,.691-.136l0-.006a.5.5,0,1,0-.827-.555l0,.006A.5.5,0,0,0,312.762,232.24Z" transform="translate(-291.784 -215.961)" fill="#333"/>
        <path id="Path_139" data-name="Path 139" d="M32.729,23.64A1.276,1.276,0,0,0,34,22.365v-.681a7.55,7.55,0,0,0-3.557-6.472,13.773,13.773,0,0,0-7.62-2.1l-.27,0,.28-2.056a1.312,1.312,0,0,0,1.254-1.308V8.6A1.314,1.314,0,0,0,22.78,7.291H14.039V4.236L18,3.205A1.614,1.614,0,0,0,17.184.082L12.019,1.428A1.6,1.6,0,0,0,10.812,2.99v4.3h-9.5A1.314,1.314,0,0,0,0,8.6V9.746a1.312,1.312,0,0,0,1.254,1.308L4.167,32.433a1.72,1.72,0,0,0,1.66,1.6H31.893A2.114,2.114,0,0,0,34,31.919v-1.26a.853.853,0,0,0-.853-.851h-.94v-1.36a2.01,2.01,0,0,0,.018-3.868,3.573,3.573,0,0,0,.233-.939h.268ZM11.808,2.99a.6.6,0,0,1,.462-.6l5.164-1.346a.618.618,0,0,1,.314,1.2L13.415,3.369a.5.5,0,0,0-.373.482v3.44H11.808V2.99ZM2.26,11.057H11.3a.5.5,0,0,0,0-1H1.311A.319.319,0,0,1,1,9.746V8.6a.32.32,0,0,1,.315-.317H22.78A.32.32,0,0,1,23.1,8.6V9.746a.319.319,0,0,1-.315.315H13.664a.5.5,0,0,0,0,1h8.168l-.286,2.1a13.255,13.255,0,0,0-6.338,2.054A8.242,8.242,0,0,0,12.694,17.8l-9.1,3.052ZM3.684,21.511a.087.087,0,0,1,0,.029Zm.046.341L12.1,19.046a7.7,7.7,0,0,0-.449,2.638v.681a1.276,1.276,0,0,0,1.275,1.275h.268a3.574,3.574,0,0,0,.233.939A2.009,2.009,0,0,0,12.034,27L4.775,29.517ZM11.97,33.034H5.826a.753.753,0,0,1-.673-.735l-.242-1.775,7.609-2.636a2.011,2.011,0,0,0,.922.56v1.36H12.5a.853.853,0,0,0-.853.851v1.26A2.1,2.1,0,0,0,11.97,33.034ZM33.008,30.8v1.115a1.116,1.116,0,0,1-1.115,1.115H13.761a1.116,1.116,0,0,1-1.115-1.115V30.8h9.737a.5.5,0,0,0,0-1H14.44V28.521H31.214v1.286H24.727a.5.5,0,0,0,0,1Zm-.322-4.294a1.015,1.015,0,0,1-1.013,1.015H13.982a1.014,1.014,0,0,1,0-2.029h.041a2.529,2.529,0,0,0,.765.528,2.854,2.854,0,0,0,2.842-.334,2.548,2.548,0,0,0,3.47.01,2.549,2.549,0,0,0,3.455,0,2.55,2.55,0,0,0,3.471-.011,2.852,2.852,0,0,0,2.84.335,2.531,2.531,0,0,0,.766-.528h.041a1.014,1.014,0,0,1,1.013,1.013ZM14.2,23.64h17.26a1.793,1.793,0,0,1-1,1.475,1.866,1.866,0,0,1-1.953-.318.662.662,0,0,0-1.02.028,1.582,1.582,0,0,1-2.407,0l-.026-.026a.656.656,0,0,0-1.023.024,1.65,1.65,0,0,1-1.2.555,1.669,1.669,0,0,1-1.2-.554A.659.659,0,0,0,20.6,24.8l-.029.028a1.58,1.58,0,0,1-2.406,0,.661.661,0,0,0-1.022-.024,1.866,1.866,0,0,1-1.951.315,1.792,1.792,0,0,1-1-1.475Zm-1.272-1a.279.279,0,0,1-.279-.279v-.681a6.63,6.63,0,0,1,3.117-5.645A12.774,12.774,0,0,1,22.827,14.1a12.774,12.774,0,0,1,7.064,1.935,6.63,6.63,0,0,1,3.117,5.645v.681a.279.279,0,0,1-.279.279h-19.8Z" transform="translate(0 -0.03)" fill="#333"/>
      </g>
    </g>
  </g>
</svg>
