<svg xmlns="http://www.w3.org/2000/svg" width="40.606" height="34" viewBox="0 0 40.606 34">
  <g id="Home_Based_Business" data-name="Home Based Business" transform="translate(-119.394 -383)">
    <rect id="Rectangle_3477" data-name="Rectangle 3477" width="34" height="34" rx="17" transform="translate(126 383)" fill="#fdd8d8"/>
    <g id="_008-work-from-home" data-name="008-work-from-home" transform="translate(118.394 382)">
      <g id="Group_49" data-name="Group 49" transform="translate(1 1)">
        <path id="Path_140" data-name="Path 140" d="M12.516,20.742H1.548A.518.518,0,0,1,1,20.194V1.548A.518.518,0,0,1,1.548,1H12.516a.518.518,0,0,1,.548.548V20.194A.518.518,0,0,1,12.516,20.742ZM2.1,19.645h9.871V2.1H2.1Z" transform="translate(-1 -1)" fill="#333"/>
      </g>
      <g id="Group_50" data-name="Group 50" transform="translate(5.387 16.355)">
        <path id="Path_141" data-name="Path 141" d="M11.742,33.387a.518.518,0,0,1-.548-.548V30.1H10.1v2.742a.548.548,0,0,1-1.1,0v-3.29A.518.518,0,0,1,9.548,29h2.194a.518.518,0,0,1,.548.548v3.29A.518.518,0,0,1,11.742,33.387Z" transform="translate(-9 -29)" fill="#333"/>
      </g>
      <g id="Group_51" data-name="Group 51" transform="translate(9.774 16.355)">
        <path id="Path_142" data-name="Path 142" d="M17.548,31.194A.518.518,0,0,1,17,30.645v-1.1a.548.548,0,1,1,1.1,0v1.1A.518.518,0,0,1,17.548,31.194Z" transform="translate(-17 -29)" fill="#333"/>
      </g>
      <g id="Group_52" data-name="Group 52" transform="translate(3.194 16.355)">
        <path id="Path_143" data-name="Path 143" d="M5.548,31.194A.518.518,0,0,1,5,30.645v-1.1A.518.518,0,0,1,5.548,29a.518.518,0,0,1,.548.548v1.1A.518.518,0,0,1,5.548,31.194Z" transform="translate(-5 -29)" fill="#333"/>
      </g>
      <g id="Group_53" data-name="Group 53" transform="translate(9.774 13.065)">
        <path id="Path_144" data-name="Path 144" d="M17.548,25.194A.518.518,0,0,1,17,24.645v-1.1a.548.548,0,0,1,1.1,0v1.1A.518.518,0,0,1,17.548,25.194Z" transform="translate(-17 -23)" fill="#333"/>
      </g>
      <g id="Group_54" data-name="Group 54" transform="translate(3.194 13.065)">
        <path id="Path_145" data-name="Path 145" d="M5.548,25.194A.518.518,0,0,1,5,24.645v-1.1A.518.518,0,0,1,5.548,23a.518.518,0,0,1,.548.548v1.1A.518.518,0,0,1,5.548,25.194Z" transform="translate(-5 -23)" fill="#333"/>
      </g>
      <g id="Group_55" data-name="Group 55" transform="translate(5.387 13.065)">
        <path id="Path_146" data-name="Path 146" d="M9.548,25.194A.518.518,0,0,1,9,24.645v-1.1a.548.548,0,0,1,1.1,0v1.1A.518.518,0,0,1,9.548,25.194Z" transform="translate(-9 -23)" fill="#333"/>
      </g>
      <g id="Group_56" data-name="Group 56" transform="translate(7.581 13.065)">
        <path id="Path_147" data-name="Path 147" d="M13.548,25.194A.518.518,0,0,1,13,24.645v-1.1a.548.548,0,0,1,1.1,0v1.1A.518.518,0,0,1,13.548,25.194Z" transform="translate(-13 -23)" fill="#333"/>
      </g>
      <g id="Group_57" data-name="Group 57" transform="translate(9.774 9.774)">
        <path id="Path_148" data-name="Path 148" d="M17.548,19.194A.518.518,0,0,1,17,18.645v-1.1a.548.548,0,1,1,1.1,0v1.1A.518.518,0,0,1,17.548,19.194Z" transform="translate(-17 -17)" fill="#333"/>
      </g>
      <g id="Group_58" data-name="Group 58" transform="translate(3.194 9.774)">
        <path id="Path_149" data-name="Path 149" d="M5.548,19.194A.518.518,0,0,1,5,18.645v-1.1A.518.518,0,0,1,5.548,17a.518.518,0,0,1,.548.548v1.1A.518.518,0,0,1,5.548,19.194Z" transform="translate(-5 -17)" fill="#333"/>
      </g>
      <g id="Group_59" data-name="Group 59" transform="translate(5.387 9.774)">
        <path id="Path_150" data-name="Path 150" d="M9.548,19.194A.518.518,0,0,1,9,18.645v-1.1a.548.548,0,1,1,1.1,0v1.1A.518.518,0,0,1,9.548,19.194Z" transform="translate(-9 -17)" fill="#333"/>
      </g>
      <g id="Group_60" data-name="Group 60" transform="translate(7.581 9.774)">
        <path id="Path_151" data-name="Path 151" d="M13.548,19.194A.518.518,0,0,1,13,18.645v-1.1a.548.548,0,1,1,1.1,0v1.1A.518.518,0,0,1,13.548,19.194Z" transform="translate(-13 -17)" fill="#333"/>
      </g>
      <g id="Group_61" data-name="Group 61" transform="translate(9.774 6.484)">
        <path id="Path_152" data-name="Path 152" d="M17.548,13.194A.518.518,0,0,1,17,12.645v-1.1a.548.548,0,1,1,1.1,0v1.1A.518.518,0,0,1,17.548,13.194Z" transform="translate(-17 -11)" fill="#333"/>
      </g>
      <g id="Group_62" data-name="Group 62" transform="translate(3.194 6.484)">
        <path id="Path_153" data-name="Path 153" d="M5.548,13.194A.518.518,0,0,1,5,12.645v-1.1A.518.518,0,0,1,5.548,11a.518.518,0,0,1,.548.548v1.1A.518.518,0,0,1,5.548,13.194Z" transform="translate(-5 -11)" fill="#333"/>
      </g>
      <g id="Group_63" data-name="Group 63" transform="translate(5.387 6.484)">
        <path id="Path_154" data-name="Path 154" d="M9.548,13.194A.518.518,0,0,1,9,12.645v-1.1a.548.548,0,1,1,1.1,0v1.1A.518.518,0,0,1,9.548,13.194Z" transform="translate(-9 -11)" fill="#333"/>
      </g>
      <g id="Group_64" data-name="Group 64" transform="translate(7.581 6.484)">
        <path id="Path_155" data-name="Path 155" d="M13.548,13.194A.518.518,0,0,1,13,12.645v-1.1a.548.548,0,0,1,1.1,0v1.1A.518.518,0,0,1,13.548,13.194Z" transform="translate(-13 -11)" fill="#333"/>
      </g>
      <g id="Group_65" data-name="Group 65" transform="translate(9.774 3.194)">
        <path id="Path_156" data-name="Path 156" d="M17.548,7.194A.518.518,0,0,1,17,6.645v-1.1a.548.548,0,1,1,1.1,0v1.1A.518.518,0,0,1,17.548,7.194Z" transform="translate(-17 -5)" fill="#333"/>
      </g>
      <g id="Group_66" data-name="Group 66" transform="translate(3.194 3.194)">
        <path id="Path_157" data-name="Path 157" d="M5.548,7.194A.518.518,0,0,1,5,6.645v-1.1A.518.518,0,0,1,5.548,5a.518.518,0,0,1,.548.548v1.1A.518.518,0,0,1,5.548,7.194Z" transform="translate(-5 -5)" fill="#333"/>
      </g>
      <g id="Group_67" data-name="Group 67" transform="translate(5.387 3.194)">
        <path id="Path_158" data-name="Path 158" d="M9.548,7.194A.518.518,0,0,1,9,6.645v-1.1a.548.548,0,1,1,1.1,0v1.1A.518.518,0,0,1,9.548,7.194Z" transform="translate(-9 -5)" fill="#333"/>
      </g>
      <g id="Group_68" data-name="Group 68" transform="translate(7.581 3.194)">
        <path id="Path_159" data-name="Path 159" d="M13.548,7.194A.518.518,0,0,1,13,6.645v-1.1a.548.548,0,1,1,1.1,0v1.1A.518.518,0,0,1,13.548,7.194Z" transform="translate(-13 -5)" fill="#333"/>
      </g>
      <g id="Group_69" data-name="Group 69" transform="translate(14.161 5.387)">
        <path id="Path_160" data-name="Path 160" d="M27.194,11.742a.518.518,0,0,1-.548-.548,1.1,1.1,0,0,0-1.1-1.1.548.548,0,0,1,0-1.1,2.2,2.2,0,0,1,2.194,2.194A.518.518,0,0,1,27.194,11.742Z" transform="translate(-25 -9)" fill="#333"/>
      </g>
      <g id="Group_70" data-name="Group 70" transform="translate(14.161 3.194)">
        <path id="Path_161" data-name="Path 161" d="M29.387,9.935a.518.518,0,0,1-.548-.548,3.3,3.3,0,0,0-3.29-3.29A.518.518,0,0,1,25,5.548.518.518,0,0,1,25.548,5a4.4,4.4,0,0,1,4.387,4.387A.518.518,0,0,1,29.387,9.935Z" transform="translate(-25 -5)" fill="#333"/>
      </g>
      <g id="Group_71" data-name="Group 71" transform="translate(14.161 1)">
        <path id="Path_162" data-name="Path 162" d="M31.581,8.129a.518.518,0,0,1-.548-.548A5.5,5.5,0,0,0,25.548,2.1.518.518,0,0,1,25,1.548.518.518,0,0,1,25.548,1a6.6,6.6,0,0,1,6.581,6.581A.518.518,0,0,1,31.581,8.129Z" transform="translate(-25 -1)" fill="#333"/>
      </g>
      <g id="Group_72" data-name="Group 72" transform="translate(19.645 21.29)">
        <path id="Path_163" data-name="Path 163" d="M35.548,40.742A.518.518,0,0,1,35,40.194,2.2,2.2,0,0,1,37.194,38a.548.548,0,0,1,0,1.1,1.1,1.1,0,0,0-1.1,1.1A.518.518,0,0,1,35.548,40.742Z" transform="translate(-35 -38)" fill="#333"/>
      </g>
      <g id="Group_73" data-name="Group 73" transform="translate(17.452 19.097)">
        <path id="Path_164" data-name="Path 164" d="M31.548,38.935A.518.518,0,0,1,31,38.387,4.4,4.4,0,0,1,35.387,34a.548.548,0,0,1,0,1.1,3.3,3.3,0,0,0-3.29,3.29A.518.518,0,0,1,31.548,38.935Z" transform="translate(-31 -34)" fill="#333"/>
      </g>
      <g id="Group_74" data-name="Group 74" transform="translate(15.258 16.903)">
        <path id="Path_165" data-name="Path 165" d="M27.548,37.129A.518.518,0,0,1,27,36.581,6.6,6.6,0,0,1,33.581,30a.548.548,0,1,1,0,1.1A5.5,5.5,0,0,0,28.1,36.581.518.518,0,0,1,27.548,37.129Z" transform="translate(-27 -30)" fill="#333"/>
      </g>
      <g id="Group_75" data-name="Group 75" transform="translate(19.643 20.742)">
        <path id="Path_166" data-name="Path 166" d="M47.611,51.258h-3.29a.518.518,0,0,1-.548-.548V46.871H41.579V50.71a.518.518,0,0,1-.548.548H37.74a.518.518,0,0,1-.548-.548V45.226H35.547a.48.48,0,0,1-.494-.329.5.5,0,0,1,.11-.6l7.129-7.129a.53.53,0,0,1,.768,0l7.129,7.129a.5.5,0,0,1,.11.6.48.48,0,0,1-.494.329H48.159V50.71A.518.518,0,0,1,47.611,51.258Zm-2.742-1.1h2.194V44.677a.518.518,0,0,1,.548-.548h.877l-5.813-5.813-5.813,5.813h.877a.518.518,0,0,1,.548.548v5.484h2.194V46.323a.518.518,0,0,1,.548-.548h3.29a.518.518,0,0,1,.548.548Z" transform="translate(-34.996 -37)" fill="#333"/>
      </g>
      <g id="Group_76" data-name="Group 76" transform="translate(20.742 9.774)">
        <path id="Path_167" data-name="Path 167" d="M37,17h1.645v1.1H37Z" transform="translate(-37 -17)" fill="#333"/>
      </g>
      <g id="Group_77" data-name="Group 77" transform="translate(18 9.774)">
        <path id="Path_168" data-name="Path 168" d="M32,17h1.645v1.1H32Z" transform="translate(-32 -17)" fill="#333"/>
      </g>
      <g id="Group_78" data-name="Group 78" transform="translate(23.484 9.774)">
        <path id="Path_169" data-name="Path 169" d="M42,17h1.645v1.1H42Z" transform="translate(-42 -17)" fill="#333"/>
      </g>
      <g id="Group_79" data-name="Group 79" transform="translate(26.226 9.774)">
        <path id="Path_170" data-name="Path 170" d="M47,17h1.645v1.1H47Z" transform="translate(-47 -17)" fill="#333"/>
      </g>
      <g id="Group_80" data-name="Group 80" transform="translate(28.968 9.774)">
        <path id="Path_171" data-name="Path 171" d="M55.839,26.323h-1.1V19.194a1.1,1.1,0,0,0-1.1-1.1H52V17h1.645a2.2,2.2,0,0,1,2.194,2.194Z" transform="translate(-52 -17)" fill="#333"/>
      </g>
      <g id="Group_81" data-name="Group 81" transform="translate(30.065 16.903)">
        <path id="Path_172" data-name="Path 172" d="M56.194,32.742a.5.5,0,0,1-.384-.165l-1.645-1.645a.543.543,0,0,1,.768-.768l1.261,1.261,1.261-1.261a.543.543,0,0,1,.768.768l-1.645,1.645A.5.5,0,0,1,56.194,32.742Z" transform="translate(-54 -30)" fill="#333"/>
      </g>
      <g id="Group_82" data-name="Group 82" transform="translate(14.71 31.71)">
        <path id="Path_173" data-name="Path 173" d="M26,57h1.645v1.1H26Z" transform="translate(-26 -57)" fill="#333"/>
      </g>
      <g id="Group_83" data-name="Group 83" transform="translate(17.452 31.71)">
        <path id="Path_174" data-name="Path 174" d="M31,57h1.645v1.1H31Z" transform="translate(-31 -57)" fill="#333"/>
      </g>
      <g id="Group_84" data-name="Group 84" transform="translate(11.968 31.71)">
        <path id="Path_175" data-name="Path 175" d="M21,57h1.645v1.1H21Z" transform="translate(-21 -57)" fill="#333"/>
      </g>
      <g id="Group_85" data-name="Group 85" transform="translate(9.226 31.71)">
        <path id="Path_176" data-name="Path 176" d="M16,57h1.645v1.1H16Z" transform="translate(-16 -57)" fill="#333"/>
      </g>
      <g id="Group_86" data-name="Group 86" transform="translate(4.29 23.484)">
        <path id="Path_177" data-name="Path 177" d="M10.839,51.323H9.194A2.2,2.2,0,0,1,7,49.129V42H8.1v7.129a1.1,1.1,0,0,0,1.1,1.1h1.645Z" transform="translate(-7 -42)" fill="#333"/>
      </g>
      <g id="Group_87" data-name="Group 87" transform="translate(2.645 22.935)">
        <path id="Path_178" data-name="Path 178" d="M7.839,43.742a.5.5,0,0,1-.384-.165L6.194,42.316,4.932,43.577a.543.543,0,0,1-.768-.768L5.81,41.165a.53.53,0,0,1,.768,0L8.223,42.81a.53.53,0,0,1,0,.768A.5.5,0,0,1,7.839,43.742Z" transform="translate(-4 -41)" fill="#333"/>
      </g>
    </g>
  </g>
</svg>
