<svg xmlns="http://www.w3.org/2000/svg" width="46.939" height="34" viewBox="0 0 46.939 34">
  <g id="Hotel_Travel_Tourism" data-name="Hotel, Travel &amp; Tourism" transform="translate(-116.061 -381.119)">
    <rect id="Rectangle_3478" data-name="Rectangle 3478" width="34" height="34" rx="17" transform="translate(129 381.119)" fill="#fdd8d8"/>
    <g id="OUTLINE" transform="translate(100.062 365.119)">
      <path id="Path_179" data-name="Path 179" d="M218.265,17.406a19.985,19.985,0,0,1,2.037.1l.144-1.4a21.342,21.342,0,0,0-5.816.2l.241,1.385a19.876,19.876,0,0,1,3.394-.291Z" transform="translate(-182.788 0)" fill="#333"/>
      <path id="Path_180" data-name="Path 180" d="M25.55,62.682l-.825-1.138a21.1,21.1,0,0,0-6.544,26.438l1.26-.624A19.7,19.7,0,0,1,25.55,62.682Z" transform="translate(0 -41.542)" fill="#333"/>
      <path id="Path_181" data-name="Path 181" d="M263.729,469.959l.048,1.405a21.049,21.049,0,0,0,5.818-1.023L269.159,469A19.643,19.643,0,0,1,263.729,469.959Z" transform="translate(-227.973 -421.378)" fill="#333"/>
      <path id="Path_182" data-name="Path 182" d="M112,248h1.406v16.168H112Z" transform="translate(-88.259 -219.793)" fill="#333"/>
      <path id="Path_183" data-name="Path 183" d="M160,248h1.406v16.168H160Z" transform="translate(-132.389 -219.793)" fill="#333"/>
      <path id="Path_184" data-name="Path 184" d="M208,248h1.406v16.168H208Z" transform="translate(-176.518 -219.793)" fill="#333"/>
      <path id="Path_185" data-name="Path 185" d="M98.242,33.546l-11.55-4.913a2.043,2.043,0,0,0-2.566.8L80.662,35.8V30.166a3.039,3.039,0,0,0-3.2-2.833H74.894V18.267a2.583,2.583,0,0,0-5.127,0v9.066H67.2A3.039,3.039,0,0,0,64,30.166V44.9a2.879,2.879,0,0,0,2.112,2.664,1.569,1.569,0,0,0,.481,2.027,2.123,2.123,0,0,0,2.339.112,1.6,1.6,0,0,0,.725-1.97H75A1.6,1.6,0,0,0,75.73,49.7a2.123,2.123,0,0,0,2.339-.112,1.569,1.569,0,0,0,.481-2.027,2.99,2.99,0,0,0,2.032-2.035l9.049,3.849a.717.717,0,0,0,.49.024.62.62,0,0,0,.365-.289L98.542,34.3A.539.539,0,0,0,98.242,33.546ZM85.86,29.6a.707.707,0,0,1,.277.056l10.972,4.667-.556,1.021L85.581,30.676a.54.54,0,0,1-.3-.756h0A.654.654,0,0,1,85.86,29.6ZM71.049,18.267a1.291,1.291,0,0,1,2.563,0v9.066H71.049ZM68.486,48.3a.646.646,0,1,1-.641-.567.607.607,0,0,1,.641.567Zm8.331.567a.571.571,0,1,1,.641-.567A.607.607,0,0,1,76.817,48.866Zm.641-2.267H67.2a1.824,1.824,0,0,1-1.923-1.7V30.166a1.824,1.824,0,0,1,1.923-1.7h2.563V31.3h1.282V28.466h2.563V31.3h1.282V28.466h2.563a1.824,1.824,0,0,1,1.923,1.7v7.987l-2.2,4.041a1.618,1.618,0,0,0,.9,2.269l1.294.551A1.843,1.843,0,0,1,77.457,46.6Zm12.151,1.51L78.636,43.443a.54.54,0,0,1-.3-.756L84.5,31.364a1.928,1.928,0,0,0,.53.333L96,36.365Z" transform="translate(-43.783 0)" fill="#333"/>
      <path id="Path_188" data-name="Path 188" d="M228.8,109.561a2.2,2.2,0,0,0-3.1,0,.789.789,0,0,1-1.115,0l-.176-.176a4.934,4.934,0,0,0-6.969,0,2.018,2.018,0,0,1-1.436.595v1.406a3.414,3.414,0,0,0,2.43-1.007,3.526,3.526,0,0,1,4.981,0l.176.176a2.2,2.2,0,0,0,3.1,0,.789.789,0,0,1,1.115,0l1.3,1.3a14.177,14.177,0,0,0,9.473,4.168,19.641,19.641,0,0,1,.578,3.577l1.4-.1a20.891,20.891,0,0,0-2.183-8l-1.256.631a19.605,19.605,0,0,1,1.03,2.453,12.776,12.776,0,0,1-8.049-3.728Z" transform="translate(-185.781 -86.029)" fill="#333"/>
      <path id="Path_189" data-name="Path 189" d="M288.336,19.411l11.708,7.155a2.1,2.1,0,0,0,2.591-.308l2.732-2.732a.7.7,0,0,0,0-.994l-1.406-1.406a.7.7,0,0,0-.887-.088l-1.719,1.146-3.209-2.14,1.663-2.217a.7.7,0,0,0-.065-.919l-.7-.7a.7.7,0,0,0-.811-.132l-3.873,1.936-1.3-.781a3.51,3.51,0,0,0-4.294.529l-.556.556a.7.7,0,0,0,.131,1.1Zm4-.976,1.632.979a.7.7,0,0,0,.676.026l3.523-1.761L296.576,19.8a.7.7,0,0,0,.172,1.007l4.218,2.812a.7.7,0,0,0,.78,0l1.629-1.086.5.5-2.235,2.235a.7.7,0,0,1-.864.1l-10.944-6.688A2.105,2.105,0,0,1,292.333,18.435Z" transform="translate(-251.455 0)" fill="#333"/>
    </g>
  </g>
</svg>
