<svg xmlns="http://www.w3.org/2000/svg" width="45.083" height="39.082" viewBox="0 0 45.083 39.082">
  <g id="Retail" transform="translate(-112.917 -385.918)">
    <rect id="Rectangle_3479" data-name="Rectangle 3479" width="34" height="34" rx="17" transform="translate(124 385.918)" fill="#fdd8d8"/>
    <g id="_010-shopping-cart" data-name="010-shopping-cart" transform="translate(112.917 385.918)">
      <path id="Path_190" data-name="Path 190" d="M137.862,437a2.862,2.862,0,1,0,2.862,2.862A2.866,2.866,0,0,0,137.862,437Zm0,4.58a1.717,1.717,0,1,1,1.717-1.717A1.719,1.719,0,0,1,137.862,441.58Z" transform="translate(-124.695 -403.643)" fill="#333"/>
      <circle id="Ellipse_91" data-name="Ellipse 91" cx="0.5" cy="0.5" r="0.5" transform="translate(12.083 36.082)" fill="#333"/>
      <circle id="Ellipse_92" data-name="Ellipse 92" cx="0.5" cy="0.5" r="0.5" transform="translate(33.083 36.082)" fill="#333"/>
      <path id="Path_191" data-name="Path 191" d="M394.862,437a2.862,2.862,0,1,0,2.862,2.862A2.866,2.866,0,0,0,394.862,437Zm0,4.58a1.717,1.717,0,1,1,1.717-1.717A1.719,1.719,0,0,1,394.862,441.58Z" transform="translate(-362.078 -403.643)" fill="#333"/>
      <path id="Path_192" data-name="Path 192" d="M9.453,27.705l4.167-2.363h9.355a2.868,2.868,0,0,0,2.8-2.29h5.962a4.005,4.005,0,0,0,3.882-3.015L39.064,6.592a.573.573,0,0,0-.555-.714H10.4l-.292-1.142A6.292,6.292,0,0,0,4.007,0H1.717a1.717,1.717,0,0,0,0,3.435h2.29A2.86,2.86,0,0,1,6.781,5.587l4.4,17.192L7.76,24.717a4.007,4.007,0,0,0,1.972,7.5H35.075a1.717,1.717,0,1,0,0-3.435H9.732a.572.572,0,0,1-.279-1.072Zm21.22-11.141H27.156l.215-4.2h3.948Zm1.8-4.2h3.93l-1.074,4.2h-3.5ZM30.5,17.709l-.644,4.2H26.882l.215-4.2Zm-4.489-1.145H22.485l-.215-4.2h3.953Zm1.42-5.343.215-4.2h4.494l-.644,4.2Zm-1.147,0H22.212L22,7.023h4.5Zm-5.217,0H18.8a.572.572,0,0,0,0,1.145h2.325l.215,4.2H17.82L16.356,7.023H20.85Zm-4.4,5.343H13.134l-1.074-4.2h3.957Zm.176,1.145.644,4.2H14.5l-1.074-4.2Zm1.8,4.2L18,17.709h3.4l.215,4.2Zm4.118,0-.215-4.2H25.95l-.215,4.2Zm11.758-2.153a2.861,2.861,0,0,1-2.773,2.153h-.731l.644-4.2h3.383ZM36.7,11.221H32.652l.644-4.2h4.477Zm-21.5-4.2.644,4.2H11.768l-1.074-4.2ZM4.007,2.29H1.717a.572.572,0,1,1,0-1.145h2.29A5.147,5.147,0,0,1,7.224,2.271l-.816.816a4,4,0,0,0-2.4-.8ZM9.732,29.922H35.075a.572.572,0,0,1,0,1.145H9.732a2.862,2.862,0,0,1-1.408-5.355l3.8-2.154a.572.572,0,0,0,.272-.64L7.89,5.3A3.992,3.992,0,0,0,7.218,3.9l.816-.816A5.135,5.135,0,0,1,9,5.02l4.5,17.6a.573.573,0,0,0,.555.431H24.6A1.721,1.721,0,0,1,22.976,24.2H13.47a.572.572,0,0,0-.282.075l-4.3,2.437a1.717,1.717,0,0,0,.843,3.213Z" fill="#333"/>
    </g>
  </g>
</svg>
