<svg xmlns="http://www.w3.org/2000/svg" width="40.502" height="34" viewBox="0 0 40.502 34">
  <g id="Sports_Fitness_Entertainment" data-name="Sports, Fitness &amp; Entertainment" transform="translate(-127.498 -384.727)">
    <rect id="Rectangle_3480" data-name="Rectangle 3480" width="34" height="34" rx="17" transform="translate(134 384.727)" fill="#fdd8d8"/>
    <g id="_011-fitness" data-name="011-fitness" transform="translate(127.498 384.722)">
      <path id="Path_193" data-name="Path 193" d="M32.869,38.234H31.736V37.1a1.7,1.7,0,0,0-1.7-1.7H28.9a1.681,1.681,0,0,0-.567.1V33.7a1.7,1.7,0,0,0-1.7-1.7H25.5a1.7,1.7,0,0,0-1.7,1.7v4.534H10.2V33.7A1.7,1.7,0,0,0,8.5,32H7.367a1.7,1.7,0,0,0-1.7,1.7v1.8a1.681,1.681,0,0,0-.567-.1H3.967a1.7,1.7,0,0,0-1.7,1.7v1.133H1.133A1.133,1.133,0,0,0,0,39.367V40.5a1.133,1.133,0,0,0,1.133,1.133H2.267v1.133a1.7,1.7,0,0,0,1.7,1.7H5.1a1.681,1.681,0,0,0,.567-.1v1.8a1.7,1.7,0,0,0,1.7,1.7H8.5a1.7,1.7,0,0,0,1.7-1.7V41.634H23.8v4.534a1.7,1.7,0,0,0,1.7,1.7h1.133a1.7,1.7,0,0,0,1.7-1.7v-1.8a1.681,1.681,0,0,0,.567.1h1.133a1.7,1.7,0,0,0,1.7-1.7V41.634h1.133A1.133,1.133,0,0,0,34,40.5V39.367A1.133,1.133,0,0,0,32.869,38.234Zm-3.967-1.7h1.133a.567.567,0,0,1,.567.567v1.148a2.8,2.8,0,0,0-1.7-.581h-.567V37.1A.567.567,0,0,1,28.9,36.534Zm-3.4-3.4h1.133a.567.567,0,0,1,.567.567v1.148a2.8,2.8,0,0,0-1.7-.581h-.567V33.7A.567.567,0,0,1,25.5,33.133Zm-18.135,0H8.5a.567.567,0,0,1,.567.567v1.148a2.8,2.8,0,0,0-1.7-.581H6.8V33.7A.567.567,0,0,1,7.367,33.133Zm-3.4,3.4H5.1a.567.567,0,0,1,.567.567v1.148a2.8,2.8,0,0,0-1.7-.581H3.4V37.1A.567.567,0,0,1,3.967,36.534ZM1.133,40.5V39.367H2.267V40.5ZM5.1,43.334H3.967a.567.567,0,0,1-.567-.567V38.8h.567a1.7,1.7,0,0,1,1.7,1.7v2.267A.567.567,0,0,1,5.1,43.334Zm3.967,2.834a.567.567,0,0,1-.567.567H7.367a.567.567,0,0,1-.567-.567V35.4h.567a1.7,1.7,0,0,1,1.7,1.7ZM10.2,40.5V39.367H23.8V40.5Zm17,5.667a.567.567,0,0,1-.567.567H25.5a.567.567,0,0,1-.567-.567V35.4H25.5a1.7,1.7,0,0,1,1.7,1.7Zm3.4-3.4a.567.567,0,0,1-.567.567H28.9a.567.567,0,0,1-.567-.567V38.8H28.9a1.7,1.7,0,0,1,1.7,1.7ZM32.869,40.5H31.736V39.367h1.133Z" transform="translate(0 -13.863)" fill="#333"/>
      <path id="Path_194" data-name="Path 194" d="M18.559,22.235a1.456,1.456,0,0,0,1.043.435h0a1.456,1.456,0,0,0,1.043-.436l10.6-10.717a6.79,6.79,0,0,0,0-9.537A6.607,6.607,0,0,0,26.526,0h0a6.619,6.619,0,0,0-4.729,1.976L19.6,4.2l-2.19-2.21a6.636,6.636,0,0,0-9.454,0,6.79,6.79,0,0,0,0,9.537ZM8.764,2.779a5.5,5.5,0,0,1,7.843,0l2.274,2.3a1.04,1.04,0,0,0,1.445,0l2.273-2.3a5.494,5.494,0,0,1,3.924-1.64h0a5.482,5.482,0,0,1,3.917,1.643,5.657,5.657,0,0,1,0,7.941L19.84,21.438a.332.332,0,0,1-.239.1h0a.332.332,0,0,1-.238-.1L8.763,10.72a5.653,5.653,0,0,1,0-7.941Z" transform="translate(-2.6 0)" fill="#333"/>
      <path id="Path_195" data-name="Path 195" d="M19.567,18.35h2.641a.85.85,0,0,0,.79-.534l.519-1.3.885,2.359a.85.85,0,0,0,.8.552h.036a.85.85,0,0,0,.784-.617l.5-1.739.4.808a.845.845,0,0,0,.757.469H30.9a.567.567,0,0,0,0-1.133H27.85l-.65-1.3a.85.85,0,0,0-1.578.146l-.461,1.615-.84-2.238a.844.844,0,0,0-.788-.552h-.01a.844.844,0,0,0-.789.534l-.718,1.8h-2.45a.567.567,0,0,0,0,1.133Z" transform="translate(-8.232 -6.447)" fill="#333"/>
    </g>
  </g>
</svg>
