<?xml version="1.0" standalone="no"?>
<!DOCTYPE svg PUBLIC "-//W3C//DTD SVG 1.1//EN" "http://www.w3.org/Graphics/SVG/1.1/DTD/svg11.dtd" >
<svg>
<metadata>
Created by FontForge 20090622 at Thu Sep 27 05:37:43 2018
 By deploy user
Copyright 2015 Google Inc. All Rights Reserved.
</metadata>
<defs>
<font id="NotoSansDevanagariUI-Bold" horiz-adv-x="0" >
  <font-face 
    font-family="Noto Sans Devanagari UI"
    font-weight="700"
    font-stretch="normal"
    units-per-em="1000"
    panose-1="2 11 8 2 4 5 4 2 2 4"
    ascent="800"
    descent="-200"
    bbox="-664 -268 1567 1347"
    underline-thickness="50"
    underline-position="-75"
    unicode-range="U+000D-U+A8FD"
  />
<missing-glyph horiz-adv-x="600" 
d="M94 714h411v-714h-411v714zM454 51v612h-309v-612h309z" />
    <glyph glyph-name=".notdef" horiz-adv-x="600" 
d="M94 714h411v-714h-411v714zM454 51v612h-309v-612h309z" />
    <glyph glyph-name="null" 
 />
    <glyph glyph-name="null" 
 />
    <glyph glyph-name="CR" unicode="&#xd;" horiz-adv-x="260" 
 />
    <glyph glyph-name="space" unicode=" " horiz-adv-x="260" 
 />
    <glyph glyph-name="binducandradeva" unicode="&#x900;" 
d="M-418 692q27 112 89.5 158t150.5 46q80 0 143.5 -48t102.5 -154l-103 -38q-23 76 -58.5 110t-87.5 34q-55 0 -84 -36t-43 -108zM-119 714q0 -24 -17.5 -41t-40.5 -17q-24 0 -41.5 17t-17.5 41q0 25 17.5 42t41.5 17q23 0 40.5 -17t17.5 -42z" />
    <glyph glyph-name="candrabindudeva" unicode="&#x901;" 
d="M-231 838q0 25 17 41.5t41 16.5t41.5 -16.5t17.5 -41.5q0 -24 -17.5 -41.5t-41.5 -17.5t-41 17.5t-17 41.5zM68 860q-27 -112 -89.5 -158t-150.5 -46q-80 0 -143.5 48t-102.5 154l103 38q23 -76 58.5 -110t87.5 -34q55 0 83.5 36t43.5 108z" />
    <glyph glyph-name="anusvaradeva" unicode="&#x902;" 
d="M-221 773q0 31 21.5 53t52.5 22t52 -22t21 -53q0 -32 -21 -53.5t-52 -21.5t-52.5 21.5t-21.5 53.5z" />
    <glyph glyph-name="visargadeva" unicode="&#x903;" horiz-adv-x="287" 
d="M76 436q0 32 21 53.5t52 21.5t52 -21.5t21 -53.5t-21 -53.5t-52 -21.5t-52 21.5t-21 53.5zM76 118q0 32 21 53.5t52 21.5t52 -21.5t21 -53.5t-21 -53.5t-52 -21.5t-52 21.5t-21 53.5z" />
    <glyph glyph-name="ashortdeva" unicode="&#x904;" horiz-adv-x="845" 
d="M521 211q0 -71 -46.5 -111t-134.5 -40q-64 0 -118 24.5t-104 87t-98 176.5l115 44q41 -107 88 -163t107 -56q58 0 58 57q0 47 -32 83q-34 -8 -75 -9l-6 106q59 3 80 19t21 45q0 28 -20 38t-45 10q-31 0 -59.5 -9t-55.5 -23l-37 100q29 15 74.5 28.5t99.5 13.5
q85 0 130.5 -44t45.5 -111q0 -73 -54 -118q4 -5 8 -9q13 -2 28 -3t34 -1q30 0 56 3.5t50 12.5v150h-64v110h69q-18 61 -40.5 79.5t-52.5 18.5q-13 0 -26.5 -1.5t-24.5 -1.5q-46 0 -84 29.5t-69 111.5l104 38q16 -38 31.5 -55.5t50.5 -17.5q20 0 34.5 1.5t31.5 1.5
q37 0 66 -15.5t52.5 -59.5t45.5 -129h104v-110h-94v-512h-134v251q-21 -8 -43.5 -10.5t-45.5 -2.5q-11 0 -23 1q2 -14 2 -28z" />
    <glyph glyph-name="adeva" unicode="&#x905;" horiz-adv-x="845" 
d="M521 211q0 -71 -46.5 -111t-134.5 -40q-64 0 -118 24.5t-104 87t-98 176.5l115 44q41 -107 88 -163t107 -56q58 0 58 57q0 47 -32 83q-34 -8 -75 -9l-6 106q59 3 80 19t21 45q0 28 -20 38t-45 10q-31 0 -59.5 -9t-55.5 -23l-37 100q29 15 74.5 28.5t99.5 13.5
q85 0 130.5 -44t45.5 -111q0 -73 -54 -118q4 -5 8 -9q13 -2 28 -3t34 -1q30 0 56 3.5t50 12.5v150h-64v110h292v-110h-94v-512h-134v251q-21 -8 -43.5 -10.5t-45.5 -2.5q-11 0 -23 1q2 -14 2 -28z" />
    <glyph glyph-name="aadeva" unicode="&#x906;" horiz-adv-x="1140" 
d="M521 211q0 -71 -46.5 -111t-134.5 -40q-64 0 -118 24.5t-104 87t-98 176.5l115 44q41 -107 88 -163t107 -56q58 0 58 57q0 47 -32 83q-34 -8 -75 -9l-6 106q59 3 80 19t21 45q0 28 -20 38t-45 10q-31 0 -59.5 -9t-55.5 -23l-37 100q29 15 74.5 28.5t99.5 13.5
q85 0 130.5 -44t45.5 -111q0 -73 -54 -118q4 -5 8 -9q13 -2 28 -3t34 -1q30 0 56 3.5t50 12.5v150h-64v110h587v-110h-94v-512h-134v512h-161v-512h-134v251q-21 -8 -43.5 -10.5t-45.5 -2.5q-11 0 -23 1q2 -14 2 -28z" />
    <glyph glyph-name="ideva" unicode="&#x907;" horiz-adv-x="518" 
d="M274 200q-26 0 -55.5 -5.5t-57.5 -17.5q-29 13 -57 37t-45.5 55t-17.5 64q0 31 10.5 52.5t27.5 35.5q24 19 56.5 27t95.5 8h64v56h-295v110h532v-110h-103v-155h-208q-17 0 -24.5 -1.5t-12.5 -4.5q-12 -7 -12 -22q0 -11 5.5 -20t13.5 -17q21 6 46 9t57 3q90 0 138.5 -41
t48.5 -111q0 -60 -39.5 -95.5t-113.5 -45.5q28 -11 59.5 -22l62.5 -21l-45 -95q-66 30 -127 63t-108 65q-59 3 -93.5 20t-34.5 63q0 33 20 49t42 16q49 0 98 -44q14 -2 28 -2q116 0 116 54q0 20 -16 31.5t-56 11.5z" />
    <glyph glyph-name="iideva" unicode="&#x908;" horiz-adv-x="518" 
d="M274 200q-26 0 -55.5 -5.5t-57.5 -17.5q-29 13 -57 37t-45.5 55t-17.5 64q0 31 10.5 52.5t27.5 35.5q24 19 56.5 27t95.5 8h64v56h-295v110h532v-110h-103v-155h-208q-17 0 -24.5 -1.5t-12.5 -4.5q-12 -7 -12 -22q0 -11 5.5 -20t13.5 -17q21 6 46 9t57 3q90 0 138.5 -41
t48.5 -111q0 -60 -39.5 -95.5t-113.5 -45.5q28 -11 59.5 -22l62.5 -21l-45 -95q-66 30 -127 63t-108 65q-59 3 -93.5 20t-34.5 63q0 33 20 49t42 16q49 0 98 -44q14 -2 28 -2q116 0 116 54q0 20 -16 31.5t-56 11.5zM278 615q-21 34 -33.5 69.5t-12.5 68.5q0 73 51 108
t128 35q34 0 64 -4t53 -11l-25 -95q-19 6 -34.5 8t-29.5 2q-39 0 -56.5 -18.5t-17.5 -55.5q0 -25 12 -54t29 -53h-128z" />
    <glyph glyph-name="udeva" unicode="&#x909;" horiz-adv-x="584" 
d="M0 622h599v-110h-91q18 -31 18 -66q0 -78 -72 -123q34 -31 60.5 -74t26.5 -94q0 -76 -50 -115.5t-141 -39.5q-68 0 -124 29t-106 97t-100 186l115 43q50 -122 97.5 -182t106.5 -60q69 0 69 61q0 34 -17 59t-51 49q-31 -5 -66 -7l-5 106q57 2 90 16.5t33 57.5
q0 17 -8.5 31.5t-22.5 25.5h-361v110z" />
    <glyph glyph-name="uudeva" unicode="&#x90a;" horiz-adv-x="828" 
d="M0 622h842v-110h-334q18 -31 18 -66q0 -77 -72 -123q12 -10 22 -22q35 23 71.5 34.5t77.5 11.5q75 0 121 -39.5t46 -118.5q0 -43 -13 -90.5t-47 -98.5l-116 64q20 26 31 57t11 56q0 34 -14.5 47t-39.5 13q-19 0 -37 -9t-34 -23q8 -25 8 -50q0 -76 -50 -115.5t-141 -39.5
q-68 0 -124 29t-106 97t-100 186l115 43q50 -122 97.5 -182t106.5 -60q69 0 69 61q0 34 -17 59t-51 49q-31 -5 -66 -7l-5 106q57 2 90 16.5t33 57.5q0 17 -8.5 31.5t-22.5 25.5h-361v110z" />
    <glyph glyph-name="rvocalicdeva" unicode="&#x90b;" horiz-adv-x="918" 
d="M130 42l-68 94l242 135q-31 32 -54.5 45t-53.5 13q-28 0 -56.5 -8.5t-70.5 -28.5l-43 107q43 20 83.5 32t84.5 12q39 0 69 -10t59 -34.5t65 -67.5v181h-387v110h932v-110h-411v-183q26 2 54 5.5t51 8.5q-3 11 -3 22q0 38 26 57t60 19q49 0 71.5 -26.5t22.5 -60.5
q0 -26 -11.5 -44t-27.5 -27q15 -25 31.5 -46.5l36.5 -49.5l-24 -37q-52 -2 -70.5 -18.5t-18.5 -38.5q0 -47 61 -47q23 0 46.5 7t58.5 25l39 -98q-26 -13 -62.5 -23.5t-87.5 -10.5q-50 0 -89 18t-61.5 51t-22.5 76q0 86 84 129q-10 17 -16 30q-29 -9 -68.5 -15.5t-79.5 -9.5
v-225h-134v197z" />
    <glyph glyph-name="lvocalicdeva" unicode="&#x90c;" horiz-adv-x="757" 
d="M463 30q0 97 98 135q21 42 21 77q0 38 -16.5 55t-43.5 17q-16 0 -37 -10t-41.5 -37t-34.5 -80l-125 38q9 33 21 61q-15 12 -31.5 19.5t-37.5 7.5q-31 0 -48 -16.5t-17 -41.5q0 -27 15 -52t48.5 -56t91.5 -75l-87 -89q-70 56 -114.5 102.5t-66 89.5t-21.5 90
q0 60 26.5 95.5t66 50.5t78.5 15q50 0 88 -12t75 -39q44 36 105 47v90h-476v110h771v-110h-162v-99q49 -18 78 -59.5t29 -103.5q0 -44 -12.5 -83t-34.5 -77v0v-1q-50 -3 -69 -19t-19 -38q0 -47 61 -47q22 0 46 7t59 25l39 -98q-27 -13 -63 -23.5t-87 -10.5q-50 0 -89 18
t-61.5 50.5t-22.5 76.5z" />
    <glyph glyph-name="ecandradeva" unicode="&#x90d;" horiz-adv-x="608" 
d="M622 512h-82v-128q0 -52 -9 -82t-32 -53q-23 -22 -56 -34t-85 -17l-23 110q40 6 52 18q11 10 15 25t4 50v111h-204v-163q0 -38 3 -62.5t13 -42t30 -33t54 -34.5l140 -81q61 -35 82 -69.5t21 -83.5q0 -40 -17.5 -78t-36.5 -63l-110 63q11 11 19.5 30t8.5 35q0 20 -7 34.5
t-27.5 30t-61.5 39.5l-121 70q-39 22 -66.5 46t-42.5 59q-7 19 -11 45t-4 68v190h-68v110h622v-110zM618 860q-27 -112 -89.5 -158t-150.5 -46q-80 0 -143.5 48t-102.5 154l103 38q25 -71 59.5 -105t86.5 -34q55 0 83 36.5t44 102.5z" />
    <glyph glyph-name="eshortdeva" unicode="&#x90e;" horiz-adv-x="608" 
d="M622 512h-82v-128q0 -52 -9 -82t-32 -53q-23 -22 -56 -34t-85 -17l-23 110q40 6 52 18q11 10 15 25t4 50v111h-204v-163q0 -38 3 -62.5t13 -42t30 -33t54 -34.5l140 -81q61 -35 82 -69.5t21 -83.5q0 -40 -17.5 -78t-36.5 -63l-110 63q11 11 19.5 30t8.5 35q0 20 -7 34.5
t-27.5 30t-61.5 39.5l-121 70q-39 22 -66.5 46t-42.5 59q-7 19 -11 45t-4 68v190h-68v110h622v-110zM413 615q-18 65 -41 85t-54 20q-14 0 -25 -1.5t-26 -1.5q-47 0 -84.5 29.5t-68.5 111.5l104 38q16 -38 32 -55.5t50 -17.5q20 0 34.5 1.5t31.5 1.5q38 0 66.5 -16t52 -61
t47.5 -134h-119z" />
    <glyph glyph-name="edeva" unicode="&#x90f;" horiz-adv-x="608" 
d="M622 512h-82v-128q0 -52 -9 -82t-32 -53q-23 -22 -56 -34t-85 -17l-23 110q40 6 52 18q11 10 15 25t4 50v111h-204v-163q0 -38 3 -62.5t13 -42t30 -33t54 -34.5l140 -81q61 -35 82 -69.5t21 -83.5q0 -40 -17.5 -78t-36.5 -63l-110 63q11 11 19.5 30t8.5 35q0 20 -7 34.5
t-27.5 30t-61.5 39.5l-121 70q-39 22 -66.5 46t-42.5 59q-7 19 -11 45t-4 68v190h-68v110h622v-110z" />
    <glyph glyph-name="aideva" unicode="&#x910;" horiz-adv-x="608" 
d="M622 512h-82v-128q0 -52 -9 -82t-32 -53q-23 -22 -56 -34t-85 -17l-23 110q40 6 52 18q11 10 15 25t4 50v111h-204v-163q0 -38 3 -62.5t13 -42t30 -33t54 -34.5l140 -81q61 -35 82 -69.5t21 -83.5q0 -40 -17.5 -78t-36.5 -63l-110 63q11 11 19.5 30t8.5 35q0 20 -7 34.5
t-27.5 30t-61.5 39.5l-121 70q-39 22 -66.5 46t-42.5 59q-7 19 -11 45t-4 68v190h-68v110h622v-110zM413 615q-17 59 -33.5 96.5t-38 55t-55.5 17.5q-20 0 -37 -4t-31 -9l-36 105q24 10 49.5 15t55.5 5q40 0 74 -10.5t63.5 -39.5t56 -84.5t51.5 -146.5h-119z" />
    <glyph glyph-name="ocandradeva" unicode="&#x911;" horiz-adv-x="1140" 
d="M521 211q0 -71 -46.5 -111t-134.5 -40q-64 0 -118 24.5t-104 87t-98 176.5l115 44q41 -107 88 -163t107 -56q58 0 58 57q0 47 -32 83q-34 -8 -75 -9l-6 106q59 3 80 19t21 45q0 28 -20 38t-45 10q-31 0 -59.5 -9t-55.5 -23l-37 100q29 15 74.5 28.5t99.5 13.5
q85 0 130.5 -44t45.5 -111q0 -73 -54 -118q4 -5 8 -9q13 -2 28 -3t34 -1q30 0 56 3.5t50 12.5v150h-64v110h587v-110h-94v-512h-134v512h-161v-512h-134v251q-21 -8 -43.5 -10.5t-45.5 -2.5q-11 0 -23 1q2 -14 2 -28zM1197 860q-27 -112 -89.5 -158t-150.5 -46
q-80 0 -143.5 48t-102.5 154l103 38q25 -71 59.5 -105t86.5 -34q55 0 83 36.5t44 102.5z" />
    <glyph glyph-name="oshortdeva" unicode="&#x912;" horiz-adv-x="1140" 
d="M521 211q0 -71 -46.5 -111t-134.5 -40q-64 0 -118 24.5t-104 87t-98 176.5l115 44q41 -107 88 -163t107 -56q58 0 58 57q0 47 -32 83q-34 -8 -75 -9l-6 106q59 3 80 19t21 45q0 28 -20 38t-45 10q-31 0 -59.5 -9t-55.5 -23l-37 100q29 15 74.5 28.5t99.5 13.5
q85 0 130.5 -44t45.5 -111q0 -73 -54 -118q4 -5 8 -9q13 -2 28 -3t34 -1q30 0 56 3.5t50 12.5v150h-64v110h587v-110h-94v-512h-134v512h-161v-512h-134v251q-21 -8 -43.5 -10.5t-45.5 -2.5q-11 0 -23 1q2 -14 2 -28zM933 615q-18 65 -41 85t-54 20q-14 0 -25 -1.5t-26 -1.5
q-47 0 -84.5 29.5t-68.5 111.5l104 38q16 -38 32 -55.5t50 -17.5q20 0 34.5 1.5t31.5 1.5q38 0 66.5 -16t52 -61t47.5 -134h-119z" />
    <glyph glyph-name="odeva" unicode="&#x913;" horiz-adv-x="1140" 
d="M521 211q0 -71 -46.5 -111t-134.5 -40q-64 0 -118 24.5t-104 87t-98 176.5l115 44q41 -107 88 -163t107 -56q58 0 58 57q0 47 -32 83q-34 -8 -75 -9l-6 106q59 3 80 19t21 45q0 28 -20 38t-45 10q-31 0 -59.5 -9t-55.5 -23l-37 100q29 15 74.5 28.5t99.5 13.5
q85 0 130.5 -44t45.5 -111q0 -73 -54 -118q4 -5 8 -9q13 -2 28 -3t34 -1q30 0 56 3.5t50 12.5v150h-64v110h587v-110h-94v-512h-134v512h-161v-512h-134v251q-21 -8 -43.5 -10.5t-45.5 -2.5q-11 0 -23 1q2 -14 2 -28zM933 615q-17 59 -33.5 96.5t-38 55t-55.5 17.5
q-20 0 -37 -4t-31 -9l-36 105q24 10 49.5 15t55.5 5q40 0 74 -10.5t63.5 -39.5t56 -84.5t51.5 -146.5h-119z" />
    <glyph glyph-name="audeva" unicode="&#x914;" horiz-adv-x="1140" 
d="M521 211q0 -71 -46.5 -111t-134.5 -40q-64 0 -118 24.5t-104 87t-98 176.5l115 44q41 -107 88 -163t107 -56q58 0 58 57q0 47 -32 83q-34 -8 -75 -9l-6 106q59 3 80 19t21 45q0 28 -20 38t-45 10q-31 0 -59.5 -9t-55.5 -23l-37 100q29 15 74.5 28.5t99.5 13.5
q85 0 130.5 -44t45.5 -111q0 -73 -54 -118q4 -5 8 -9q13 -2 28 -3t34 -1q30 0 56 3.5t50 12.5v150h-64v110h587v-110h-94v-512h-134v512h-161v-512h-134v251q-21 -8 -43.5 -10.5t-45.5 -2.5q-11 0 -23 1q2 -14 2 -28zM926 615q-28 31 -48.5 44.5t-38 17.5t-38.5 4
q-23 0 -43 -6.5t-40 -16.5l-34 87q27 11 53.5 17.5t49.5 6.5q39 0 69.5 -14.5t62.5 -49.5l5 1q-29 62 -57.5 82.5t-67.5 20.5q-35 0 -66 -14l-30 86q17 5 42.5 10t52.5 5q40 0 74 -8t64.5 -35t59 -84t55.5 -154h-125z" />
    <glyph glyph-name="kadeva" unicode="&#x915;" horiz-adv-x="823" 
d="M837 512h-322v-139q48 28 110 28q71 0 116.5 -44t45.5 -122q0 -44 -16.5 -98.5t-53.5 -109.5l-117 65q22 31 37.5 64t15.5 68q0 37 -15.5 52t-40.5 15q-23 0 -44.5 -14t-37.5 -30v-247h-134v127q-33 -19 -66.5 -29t-77.5 -10q-55 0 -100.5 20t-72.5 60.5t-27 100.5
q0 55 27 96t75 63.5t111 22.5q28 0 56.5 -2.5t44.5 -6.5l-10 -111q-32 8 -71 8q-47 0 -73 -18.5t-26 -51.5q0 -40 25 -55t54 -15q42 0 74.5 19t56.5 44v250h-381v110h837v-110z" />
    <glyph glyph-name="khadeva" unicode="&#x916;" horiz-adv-x="896" 
d="M816 512v-512h-134v41q-82 -39 -190 -39q-80 0 -146 23t-119 59t-92.5 75.5t-65.5 73.5q-23 31 -30.5 54t-7.5 40q0 25 17.5 50t61.5 25q46 0 79 -30q11 19 15.5 41t4.5 45q0 27 -7 54h-202v110h910v-110h-94zM571 269q34 0 61 11.5t50 30.5v201h-348q4 -14 6.5 -32.5
t2.5 -42.5q0 -75 -37 -119.5t-92 -72.5q32 -34 71.5 -64.5t90.5 -49t116 -18.5q68 0 112.5 13t77.5 30v45q-25 -14 -56.5 -22.5t-75.5 -8.5q-76 0 -124 39t-48 111q0 71 49 113t134 42q17 0 44 -1.5t46 -6.5l-10 -97q-12 3 -27.5 5t-34.5 2q-74 0 -74 -54q0 -29 19 -41.5
t47 -12.5z" />
    <glyph glyph-name="gadeva" unicode="&#x917;" horiz-adv-x="610" 
d="M246 512v-286q0 -40 -17.5 -58t-49.5 -18q-23 0 -48.5 13.5t-48 35.5t-37 47.5t-14.5 49.5q0 26 13.5 46t57.5 20h10v150h-112v110h624v-110h-94v-512h-134v512h-150z" />
    <glyph glyph-name="ghadeva" unicode="&#x918;" horiz-adv-x="645" 
d="M659 512h-94v-512h-134v142q-34 -20 -70.5 -31t-84.5 -11q-94 0 -147 43.5t-53 115.5q0 22 6 43.5t19 40.5q-32 20 -50.5 49.5t-18.5 64.5q0 33 9 55h-41v110h659v-110zM210 262q0 -27 22 -39.5t54 -12.5q51 0 86 23t59 49v230h-252q-12 -16 -12 -36q0 -23 11.5 -38
t30.5 -21q30 7 66 7q13 0 28 -2l22 -3l-7 -107q-4 1 -11 1h-15q-82 0 -82 -51z" />
    <glyph glyph-name="ngadeva" unicode="&#x919;" horiz-adv-x="695" 
d="M374 200q-26 0 -55.5 -5.5t-57.5 -17.5q-29 13 -57 37t-45.5 55t-17.5 64q0 31 10.5 52.5t27.5 35.5q24 19 56.5 27t95.5 8h44v56h-375v110h709v-110h-200v-155h-188q-17 0 -24.5 -1.5t-12.5 -4.5q-12 -7 -12 -22q0 -11 5.5 -20t13.5 -17q21 6 46 9t57 3
q90 0 138.5 -40.5t48.5 -109.5q0 -65 -53.5 -109.5t-166.5 -44.5q-79 0 -143.5 21.5t-115 57t-88.5 76.5l98 77q53 -55 110.5 -87.5t134.5 -32.5q48 0 68.5 14t20.5 34q0 18 -16 29t-56 11zM541 340q0 29 19.5 49t48.5 20t48.5 -20t19.5 -49q0 -30 -19.5 -49.5t-48.5 -19.5
t-48.5 19.5t-19.5 49.5z" />
    <glyph glyph-name="cadeva" unicode="&#x91a;" horiz-adv-x="690" 
d="M705 512h-95v-512h-134v127q-33 -18 -66.5 -27t-76.5 -9q-91 0 -144.5 41.5t-53.5 108.5q0 59 36 92l-134 -3v111h309q19 0 36.5 -0.5t21.5 -1.5l-10 -108h-22q-57 0 -79.5 -18.5t-22.5 -50.5q0 -27 18.5 -44t52.5 -17q46 0 77 17t58 48v246h-476v110h705v-110z" />
    <glyph glyph-name="chadeva" unicode="&#x91b;" horiz-adv-x="760" 
d="M335 111q74 0 131.5 23.5t90 64.5t32.5 93q0 33 -14 58t-49 25q-20 0 -30.5 -10t-10.5 -24q0 -22 18 -38t60 -28l-50 -89q-78 25 -115 64t-37 90q0 48 27.5 80.5t81.5 43.5v48h-470v110h774v-110h-170v-55q55 -17 87 -60t32 -113q0 -51 -24 -101.5t-73 -92t-122.5 -66
t-172.5 -24.5q-123 0 -181 42.5t-58 109.5q0 18 5.5 36.5t16.5 35.5q-38 21 -59 51.5t-21 69.5q0 60 47 94.5t133 34.5q20 0 48.5 -2t46.5 -7l-10 -104q-14 5 -32 7.5t-39 2.5q-60 0 -60 -36q0 -14 13 -24.5t35 -15.5q28 7 62 7q13 0 26.5 -1t21.5 -3l-11 -101
q-5 1 -12.5 1.5t-17.5 0.5q-34 0 -49 -9.5t-15 -29.5q0 -49 114 -49z" />
    <glyph glyph-name="jadeva" unicode="&#x91c;" horiz-adv-x="816" 
d="M736 512v-512h-134v331h-86q-40 0 -61 2q26 -27 40.5 -58.5t14.5 -66.5q0 -48 -23 -81t-61.5 -50t-86.5 -17q-61 0 -117.5 27.5t-107 97.5t-94.5 199l114 42q43 -124 89.5 -188.5t103.5 -64.5q23 0 36.5 12.5t13.5 36.5q0 36 -25.5 68t-70.5 58l43 93h278v71h-602v110
h831v-110h-95z" />
    <glyph glyph-name="jhadeva" unicode="&#x91d;" horiz-adv-x="809" 
d="M274 200q-26 0 -55.5 -5.5t-57.5 -17.5q-29 13 -57 37t-45.5 55t-17.5 64q0 31 10.5 52.5t27.5 35.5q24 19 56.5 27t95.5 8h64v56h-295v110h823v-110h-94v-512h-134v188q-42 -14 -108 -14h-7q1 -10 1 -22q0 -60 -39.5 -95.5t-113.5 -45.5q28 -11 59.5 -22l62.5 -21
l-45 -95q-66 30 -127 63t-108 65q-59 3 -93.5 20t-34.5 63q0 33 20 49t42 16q49 0 98 -44q14 -2 28 -2q116 0 116 54q0 20 -16 31.5t-56 11.5zM474 282q42 0 70.5 5.5t50.5 13.5v211h-166v-155h-208q-17 0 -24.5 -1.5t-12.5 -4.5q-12 -7 -12 -22q0 -11 5.5 -20t13.5 -17
q41 12 103 12q56 0 98 -17q20 -2 43 -3.5t39 -1.5z" />
    <glyph glyph-name="nyadeva" unicode="&#x91e;" horiz-adv-x="829" 
d="M211 420q36 16 68.5 22.5t63.5 6.5q73 0 124.5 -32.5t67.5 -91.5q9 -1 20 -1q32 0 60 9v179h-615v110h843v-110h-94v-512h-134v232q-31 -6 -68 -6h-10q-11 -54 -45 -83.5t-78 -41.5t-84 -12q-92 0 -171.5 52t-138.5 178l113 48q76 -165 188 -165q47 0 69 19t22 50
q0 34 -21.5 49.5t-54.5 15.5q-24 0 -43 -5t-42 -15z" />
    <glyph glyph-name="ttadeva" unicode="&#x91f;" horiz-adv-x="541" 
d="M555 512h-141v-185h-68q-53 0 -81.5 -6.5t-47.5 -17.5q-47 -27 -47 -82q0 -57 39.5 -82t98.5 -25q50 0 91 12t82 35l42 -112q-47 -22 -97 -35.5t-121 -13.5q-79 0 -139.5 26.5t-95 77.5t-34.5 123q0 65 32 110.5t87.5 70t124.5 27.5v77h-280v110h555v-110z" />
    <glyph glyph-name="tthadeva" unicode="&#x920;" horiz-adv-x="618" 
d="M632 512h-218v-87q82 -31 125 -92t43 -132q0 -72 -37 -116.5t-97.5 -64.5t-132.5 -20q-83 0 -145.5 25t-98 75t-35.5 126q0 65 31.5 110.5t86.5 70t126 28.5v77h-280v110h632v-110zM310 112q61 0 99.5 23t38.5 75q0 38 -24 68t-73 49h-5q-53 0 -81.5 -6.5t-47.5 -17.5
q-47 -27 -47 -83t39.5 -82t100.5 -26z" />
    <glyph glyph-name="ddadeva" unicode="&#x921;" horiz-adv-x="618" 
d="M374 200q-26 0 -55.5 -5.5t-57.5 -17.5q-29 13 -57 37t-45.5 55t-17.5 64q0 31 10.5 52.5t27.5 35.5q24 19 56.5 27t95.5 8h64v56h-395v110h632v-110h-103v-155h-208q-17 0 -24.5 -1.5t-12.5 -4.5q-12 -7 -12 -22q0 -11 5.5 -20t13.5 -17q21 6 46 9t57 3
q90 0 138.5 -40.5t48.5 -109.5q0 -65 -53.5 -109.5t-166.5 -44.5q-79 0 -143.5 21.5t-115 57t-88.5 76.5l98 77q53 -55 110.5 -87.5t134.5 -32.5q48 0 68.5 14t20.5 34q0 18 -16 29t-56 11z" />
    <glyph glyph-name="ddhadeva" unicode="&#x922;" horiz-adv-x="602" 
d="M329 0q-87 0 -153 27.5t-102.5 80t-36.5 125.5q0 69 34 116t94.5 72.5t139.5 29.5v61h-305v110h616v-110h-177v-171h-81q-58 0 -91 -8.5t-51 -20.5q-22 -15 -34 -35.5t-12 -51.5q0 -38 19.5 -66t58.5 -42q-5 22 -5 45q0 58 41.5 97t130.5 39q56 0 92 -19t53 -50t17 -67
q0 -72 -65 -117t-183 -45zM357 147q0 -20 6 -41q48 3 70 16.5t22 38.5q0 20 -11.5 31t-31.5 11q-28 0 -41.5 -17t-13.5 -39z" />
    <glyph glyph-name="nnadeva" unicode="&#x923;" horiz-adv-x="798" 
d="M718 512v-512h-134v512h-111v-197q0 -55 -10.5 -86.5t-31.5 -55.5q-25 -27 -65 -41.5t-95 -14.5q-111 0 -162 63q-19 26 -30 62.5t-11 103.5v166h-68v110h812v-110h-94zM270 227q39 0 55 24q8 13 11 29t3 53v179h-137v-179q0 -35 3 -50.5t10 -28.5q17 -27 55 -27z" />
    <glyph glyph-name="tadeva" unicode="&#x924;" horiz-adv-x="624" 
d="M544 512v-512h-134v299h-91q-55 0 -82 -5.5t-43 -18.5q-22 -18 -22 -51q0 -34 31 -70.5t91 -81.5l-87 -89q-47 39 -85 80.5t-61 87t-23 95.5q0 36 13.5 65t35.5 48q30 26 72.5 38t120.5 12h130v103h-410v110h638v-110h-94z" />
    <glyph glyph-name="thadeva" unicode="&#x925;" horiz-adv-x="718" 
d="M638 512v-512h-134v146q-34 -22 -78 -31t-88 -9q-96 0 -157 55t-88 161q93 20 129.5 55t36.5 85q0 34 -17 56.5t-52 22.5q-20 0 -31 -10t-11 -25q0 -18 13 -28.5t51 -16.5l-28 -87q-68 9 -105 45.5t-37 92.5q0 42 21 68.5t56 39t78 12.5q85 0 140.5 -45t55.5 -132
q0 -58 -29.5 -109t-111.5 -84q36 -46 96 -46q49 0 86.5 18t69.5 54v224h-63v110h291v-110h-94z" />
    <glyph glyph-name="dadeva" unicode="&#x926;" horiz-adv-x="558" 
d="M427 -68q-20 33 -39 70l-32 64q-26 -3 -59 -3q-47 0 -93 10.5t-84 34t-60.5 63t-22.5 98.5q0 44 16.5 76.5t44.5 54.5q32 25 76.5 38.5t98.5 16.5v57h-273v110h572v-110h-165v-167h-51q-58 0 -90 -5t-54 -16q-42 -20 -42 -64q0 -38 31 -62.5t107 -24.5h7.5t10.5 1
q-2 11 -2 21q0 37 27 53t58 16q53 0 81 -28.5t28 -66.5q0 -35 -15.5 -53t-38.5 -29q29 -49 72 -107z" />
    <glyph glyph-name="dhadeva" unicode="&#x927;" horiz-adv-x="687" 
d="M701 512h-94v-512h-134v126q-36 -20 -70.5 -30.5t-85.5 -10.5q-94 0 -146.5 43t-52.5 114q0 23 6.5 44.5t19.5 40.5q-44 23 -73 63t-29 96q0 43 21.5 76t59 51.5t85.5 18.5q70 0 109 -32t39 -79q0 -27 -10 -52t-33 -45l-76 48q14 12 14 30t-11 26t-27 8q-23 0 -39 -13.5
t-16 -39.5q0 -38 29 -59.5t64 -26.5q30 7 65 7q14 0 28 -1t22 -3l-6 -103q-5 1 -12.5 1.5t-14.5 0.5q-81 0 -81 -52q0 -27 22 -39t53 -12q50 0 86 22.5t60 50.5v243h-56v110h284v-110z" />
    <glyph glyph-name="nadeva" unicode="&#x928;" horiz-adv-x="618" 
d="M0 622h632v-110h-94v-512h-134v265h-158v-26q0 -40 -17 -57.5t-49 -17.5q-23 0 -49 13.5t-48.5 35.5t-37 47.5t-14.5 48.5q0 25 13.5 45.5t57.5 20.5h302v137h-404v110z" />
    <glyph glyph-name="nnnadeva" unicode="&#x929;" horiz-adv-x="618" 
d="M0 622h632v-110h-94v-512h-134v265h-158v-26q0 -40 -17 -57.5t-49 -17.5q-23 0 -49 13.5t-48.5 35.5t-37 47.5t-14.5 48.5q0 25 13.5 45.5t57.5 20.5h302v137h-404v110zM108 12q0 32 21 53.5t53 21.5t52.5 -21.5t20.5 -53.5t-20.5 -53.5t-52.5 -21.5t-53 21.5t-21 53.5z
" />
    <glyph glyph-name="padeva" unicode="&#x92a;" horiz-adv-x="613" 
d="M533 512v-512h-134v160q-35 -19 -68 -26t-79 -7t-80 13.5t-55 36.5q-25 28 -37 64.5t-12 103.5v167h-68v110h627v-110h-94zM399 512h-197v-159q0 -47 5 -66t18 -33q17 -17 55 -17t69.5 18.5t49.5 36.5v220z" />
    <glyph glyph-name="phadeva" unicode="&#x92b;" horiz-adv-x="821" 
d="M514 512v-139q23 14 50 21t59 7q71 0 116.5 -44t45.5 -122q0 -44 -16.5 -98.5t-53.5 -109.5l-117 65q22 31 37.5 64t15.5 68q0 37 -15.5 52t-40.5 15q-23 0 -44 -13.5t-37 -29.5v-248h-134v157q-28 -16 -59 -23t-69 -7q-46 0 -80 13.5t-55 36.5q-25 28 -37 64.5
t-12 103.5v167h-68v110h835v-110h-321zM202 512v-159q0 -47 5 -66t18 -33q17 -17 55 -17q31 0 56 13t44 30v232h-178z" />
    <glyph glyph-name="badeva" unicode="&#x92c;" horiz-adv-x="620" 
d="M634 512h-94v-512h-134v125q-35 -19 -72 -28t-92 -9q-56 0 -102.5 20t-74.5 60.5t-28 100.5q0 55 27.5 96t75.5 63.5t112 22.5q41 0 73.5 -2t49.5 -6l-10 -107q-37 8 -82 8h-13l93 -117q12 8 22.5 17t20.5 20v248h-406v110h634v-110zM167 269q0 -43 26 -59t66 -16
q19 0 37 4l-101 127q-28 -19 -28 -56z" />
    <glyph glyph-name="bhadeva" unicode="&#x92d;" horiz-adv-x="773" 
d="M194 632q96 0 147 -47q22 -20 35.5 -54t13.5 -97v-103h169v181h-100v110h329v-110h-95v-512h-134v221h-169v-16q0 -44 -18 -62t-52 -18q-21 0 -46 13.5t-47 35.5t-36.5 47.5t-14.5 48.5q0 25 14 43t56 18h10v101q0 36 -4.5 55t-12.5 31q-16 22 -49 22q-21 0 -31.5 -9.5
t-10.5 -24.5q0 -20 17.5 -31.5t59.5 -13.5l-8 -92q-77 6 -126 39.5t-49 102.5q0 42 21 68.5t55.5 39.5t75.5 13z" />
    <glyph glyph-name="madeva" unicode="&#x92e;" horiz-adv-x="646" 
d="M566 512v-512h-134v221h-186v-17q0 -44 -18 -61.5t-52 -17.5q-21 0 -46 13.5t-47.5 35.5t-37 47.5t-14.5 48.5q0 26 14.5 43.5t56.5 17.5h10v181h-112v110h661v-110h-95zM432 512h-186v-181h186v181z" />
    <glyph glyph-name="yadeva" unicode="&#x92f;" horiz-adv-x="635" 
d="M649 622v-110h-94v-512h-134v147q-64 -41 -154 -41q-68 0 -117 31t-79 85.5t-42 123.5q57 11 85 34.5t28 64.5q0 19 -6 36t-15 31h-121v110h649zM173 288q16 -34 41.5 -53t64.5 -19q85 0 142 72v224h-171q12 -21 19 -43t7 -50q0 -91 -103 -131z" />
    <glyph glyph-name="radeva" unicode="&#x930;" horiz-adv-x="438" 
d="M417 72l-87 -89q-88 75 -158 142t-105 113q-23 30 -29.5 51t-6.5 38q0 25 17.5 50t61.5 25q50 0 85 -36q53 35 53 93q0 29 -6 53h-242v110h453v-110h-80q4 -14 6.5 -32.5t2.5 -42.5q0 -69 -42 -116.5t-119 -76.5q39 -39 90 -85t106 -87z" />
    <glyph glyph-name="rradeva" unicode="&#x931;" horiz-adv-x="438" 
d="M417 72l-87 -89q-88 75 -158 142t-105 113q-23 30 -29.5 51t-6.5 38q0 25 17.5 50t61.5 25q50 0 85 -36q53 35 53 93q0 29 -6 53h-242v110h453v-110h-80q4 -14 6.5 -32.5t2.5 -42.5q0 -69 -42 -116.5t-119 -76.5q39 -39 90 -85t106 -87zM46 22q0 27 18 45t44 18
q27 0 44.5 -18t17.5 -45t-17.5 -45.5t-44.5 -18.5q-26 0 -44 18.5t-18 45.5z" />
    <glyph glyph-name="ladeva" unicode="&#x932;" horiz-adv-x="738" 
d="M0 512v110h752v-110h-94v-512h-134v317q-20 -1 -41.5 -12.5t-40.5 -39.5t-33 -78l-125 38q9 33 22 61q-16 12 -32.5 19.5t-37.5 7.5q-31 0 -48 -16.5t-17 -41.5q0 -27 15 -52t48.5 -56t91.5 -75l-87 -89q-70 56 -114.5 102.5t-66 89.5t-21.5 90q0 60 26.5 95.5t66 50.5
t78.5 15q50 0 88 -12.5t76 -38.5q61 50 150 50h2v87h-524z" />
    <glyph glyph-name="lladeva" unicode="&#x933;" horiz-adv-x="805" 
d="M0 512v110h819v-110h-181v-74q58 -18 94 -68t36 -131q0 -100 -52 -152.5t-139 -52.5q-51 0 -93.5 17t-81.5 49q-34 -42 -76.5 -54t-91.5 -12q-56 0 -100.5 24t-70.5 71t-26 115q0 99 52 152t139 53q50 0 93 -17t81 -49q23 28 49 41.5t53 18.5v69h-504zM462 222l-12 -33
q24 -21 48 -32.5t51 -11.5q30 0 57.5 23.5t27.5 78.5q0 50 -21 70.5t-46 20.5q-35 0 -57.5 -24.5t-47.5 -91.5zM171 236q0 -51 21 -71t44 -20q24 0 41.5 9.5t33 35t32.5 73.5l11 32q-23 21 -47.5 32t-51.5 11q-30 0 -57 -23t-27 -79z" />
    <glyph glyph-name="llladeva" unicode="&#x934;" horiz-adv-x="805" 
d="M0 512v110h819v-110h-181v-74q58 -18 94 -68t36 -131q0 -100 -52 -152.5t-139 -52.5q-51 0 -93.5 17t-81.5 49q-34 -42 -76.5 -54t-91.5 -12q-56 0 -100.5 24t-70.5 71t-26 115q0 99 52 152t139 53q50 0 93 -17t81 -49q23 28 49 41.5t53 18.5v69h-504zM462 222l-12 -33
q24 -21 48 -32.5t51 -11.5q30 0 57.5 23.5t27.5 78.5q0 50 -21 70.5t-46 20.5q-35 0 -57.5 -24.5t-47.5 -91.5zM171 236q0 -51 21 -71t44 -20q24 0 41.5 9.5t33 35t32.5 73.5l11 32q-23 21 -47.5 32t-51.5 11q-30 0 -57 -23t-27 -79zM154 -96q0 32 21 53.5t53 21.5
t52.5 -21.5t20.5 -53.5t-20.5 -53.5t-52.5 -21.5t-53 21.5t-21 53.5z" />
    <glyph glyph-name="vadeva" unicode="&#x935;" horiz-adv-x="605" 
d="M620 512h-95v-512h-134v125q-34 -19 -68 -28t-81 -9q-58 0 -104.5 20t-73.5 60.5t-27 100.5q0 83 58.5 132.5t156.5 49.5q32 0 62 -2.5t47 -6.5l-10 -111q-34 8 -76 8q-53 0 -78.5 -18.5t-25.5 -51.5q0 -40 24.5 -55t58.5 -15q44 0 77.5 17t59.5 45v251h-391v110h620
v-110z" />
    <glyph glyph-name="shadeva" unicode="&#x936;" horiz-adv-x="750" 
d="M136 149q-40 0 -70 21t-30 64q0 35 22 56.5t62 21.5q21 0 45 -8t49 -26q41 19 66.5 57t25.5 94q0 53 -23 79t-58 26q-20 0 -32 -9.5t-12 -27.5q0 -19 19.5 -35t78.5 -23l-28 -90q-101 9 -148.5 51t-47.5 100q0 57 42.5 94.5t123.5 37.5q57 0 107 -22t80.5 -68t30.5 -117
t-33 -131t-92 -97q34 -31 66 -67t59 -70l-99 -68q-40 52 -75 92t-65 70q-31 -5 -64 -5zM670 512v-512h-134v512h-75v110h303v-110h-94z" />
    <glyph glyph-name="ssadeva" unicode="&#x937;" horiz-adv-x="625" 
d="M640 622v-110h-95v-512h-134v163q-37 -19 -71.5 -27.5t-80.5 -8.5q-49 0 -83.5 13.5t-56.5 36.5q-27 28 -39 64.5t-12 103.5v167h-68v110h640zM411 512h-162l162 -211v211zM223 254q18 -17 59 -17q20 0 39 5t36 13l-159 207v-109q0 -47 6 -66t19 -33z" />
    <glyph glyph-name="sadeva" unicode="&#x938;" horiz-adv-x="744" 
d="M664 512v-512h-134v234q-27 -6 -55.5 -8.5t-58.5 -2.5q-63 0 -108.5 11t-74.5 24l-21 -11q37 -42 86 -88t102 -89l-85 -87q-82 75 -147.5 142t-100.5 113q-23 30 -29.5 51t-6.5 38q0 25 17.5 50t61.5 25q46 0 79 -30q11 19 15.5 41t4.5 45q0 27 -7 54h-202v110h758v-110
h-94zM404 333q36 0 65.5 3t60.5 12v164h-196q4 -14 6.5 -32.5t2.5 -42.5q0 -30 -6 -54t-17 -43q20 -3 40.5 -5t43.5 -2z" />
    <glyph glyph-name="hadeva" unicode="&#x939;" horiz-adv-x="570" 
d="M336 72q27 7 44.5 18.5t17.5 31.5q0 24 -23 37t-76 13q-59 0 -89.5 -21.5t-30.5 -58.5q0 -25 11.5 -48.5t41.5 -52.5t87 -71l-87 -89q-57 47 -99 89t-65 85.5t-23 94.5q0 38 14.5 67.5t38.5 51.5q-18 21 -29.5 47.5t-11.5 61.5q0 32 11.5 54.5t30.5 36.5q25 20 59.5 28.5
t95.5 8.5h102v56h-356v110h584v-110h-94v-166h-232q-28 0 -39 -2.5t-18 -8.5q-13 -10 -13 -30q0 -17 14 -34q47 12 101 12q81 0 131 -22.5t73 -58.5t23 -76q0 -123 -158 -160z" />
    <glyph glyph-name="oevowelsigndeva" unicode="&#x93a;" 
d="M-214 617v188h134v-188h-134z" />
    <glyph glyph-name="ooevowelsigndeva" unicode="&#x93b;" horiz-adv-x="294" 
d="M214 512v-512h-134v512h-80v110h309v-110h-95zM80 617v188h134v-188h-134z" />
    <glyph glyph-name="nuktadeva" unicode="&#x93c;" 
d="M-356 -134q0 32 21 53.5t53 21.5t52.5 -21.5t20.5 -53.5t-20.5 -53.5t-52.5 -21.5t-53 21.5t-21 53.5z" />
    <glyph glyph-name="avagrahadeva" unicode="&#x93d;" horiz-adv-x="527" 
d="M495 183q0 -67 -50 -109t-143 -42q-54 0 -102 19.5t-92 65t-87 124.5l110 55q43 -75 81 -113t91 -38q23 0 40 11t17 35q0 15 -6 28.5t-25 32t-56 49.5q-48 39 -75.5 69t-39 56.5t-11.5 55.5q0 38 14 64t40 44q15 10 35 17t50.5 11t79.5 4h107v-110h-114q-26 0 -39.5 -1.5
t-24.5 -7.5q-14 -6 -14 -24q0 -11 7.5 -22.5t27.5 -29t58 -46.5q63 -50 92 -93.5t29 -104.5z" />
    <glyph glyph-name="aavowelsigndeva" unicode="&#x93e;" horiz-adv-x="294" 
d="M214 512v-512h-134v512h-80v110h309v-110h-95z" />
    <glyph glyph-name="ivowelsigndeva" unicode="&#x93f;" horiz-adv-x="294" 
d="M80 512h-80v110h75q-12 26 -19.5 51t-7.5 50q0 79 63 126t185 47q111 0 202 -39t165.5 -103t135.5 -139h-153q-74 82 -156.5 126t-174.5 44q-65 0 -98.5 -23.5t-33.5 -64.5q0 -21 6 -40.5t15 -34.5h105v-110h-95v-512h-134v512z" />
    <glyph glyph-name="iivowelsigndeva" unicode="&#x940;" horiz-adv-x="294" 
d="M-229 615q-18 35 -25 63.5t-7 55.5q0 74 51 118t140 44q80 0 133.5 -37t87 -99t53.5 -138h105v-110h-95v-512h-134v512h-80v110h85q-25 80 -59 122t-82 42q-36 0 -53.5 -20t-17.5 -51q0 -30 8 -54.5t19 -46.5z" />
    <glyph glyph-name="uvowelsigndeva" unicode="&#x941;" 
d="M-264 7q60 23 116 23q80 0 125.5 -42.5t45.5 -108.5q0 -64 -47 -105.5t-134 -41.5q-72 0 -129 20.5t-104.5 58t-91.5 87.5l91 66q62 -70 114 -100.5t111 -30.5q34 0 53 12.5t19 37.5t-17.5 35.5t-41.5 10.5q-20 0 -39 -4.5t-36 -11.5z" />
    <glyph glyph-name="uuvowelsigndeva" unicode="&#x942;" 
d="M-86 -245q-60 -23 -116 -23q-54 0 -92 20t-58.5 53t-20.5 72q0 68 48 110.5t133 42.5q75 0 132.5 -28.5t104.5 -75.5t88 -105l-97 -58q-49 79 -102.5 122.5t-117.5 43.5q-33 0 -52 -12.5t-19 -37.5t17 -35.5t42 -10.5q20 0 39 4.5t36 12.5z" />
    <glyph glyph-name="rvocalicvowelsigndeva" unicode="&#x943;" 
d="M45 -233q-26 -13 -62.5 -24t-87.5 -11q-50 0 -89 18.5t-61.5 51t-22.5 75.5q0 72 50.5 114.5t144.5 48.5l12 -103q-51 -3 -70 -19.5t-19 -38.5q0 -46 61 -46q23 0 47 7t58 24z" />
    <glyph glyph-name="ecandravowelsigndeva" unicode="&#x945;" 
d="M68 860q-27 -112 -89.5 -158t-150.5 -46q-80 0 -143.5 48t-102.5 154l103 38q25 -71 59.5 -105t86.5 -34q55 0 83 36.5t44 102.5z" />
    <glyph glyph-name="eshortvowelsigndeva" unicode="&#x946;" 
d="M-207 615q-18 65 -41 85t-54 20q-14 0 -25 -1.5t-26 -1.5q-47 0 -84.5 29.5t-68.5 111.5l104 38q16 -38 32 -55.5t50 -17.5q20 0 34.5 1.5t31.5 1.5q38 0 66.5 -16t52 -61t47.5 -134h-119z" />
    <glyph glyph-name="evowelsigndeva" unicode="&#x947;" 
d="M-207 615q-17 59 -33.5 96.5t-38 55t-55.5 17.5q-20 0 -37 -4t-31 -9l-36 105q24 10 49.5 15t55.5 5q40 0 74 -10.5t63.5 -39.5t56 -84.5t51.5 -146.5h-119z" />
    <glyph glyph-name="aivowelsigndeva" unicode="&#x948;" 
d="M-214 615q-28 31 -48.5 44.5t-38 17.5t-38.5 4q-23 0 -43 -6.5t-40 -16.5l-34 87q27 11 53.5 17.5t49.5 6.5q39 0 69.5 -14.5t62.5 -49.5l5 1q-29 62 -57.5 82.5t-67.5 20.5q-35 0 -66 -14l-30 86q17 5 42.5 10t52.5 5q40 0 74 -8t64.5 -35t59 -84t55.5 -154h-125z" />
    <glyph glyph-name="ocandravowelsigndeva" unicode="&#x949;" horiz-adv-x="294" 
d="M214 512v-512h-134v512h-80v110h309v-110h-95zM352 860q-27 -112 -89.5 -158t-150.5 -46q-80 0 -143.5 48t-102.5 154l103 38q25 -71 59.5 -105t86.5 -34q55 0 83 36.5t44 102.5z" />
    <glyph glyph-name="oshortvowelsigndeva" unicode="&#x94a;" horiz-adv-x="294" 
d="M214 512v-512h-134v512h-80v110h309v-110h-95zM87 615q-18 65 -41 85t-54 20q-14 0 -25 -1.5t-26 -1.5q-47 0 -84.5 29.5t-68.5 111.5l104 38q16 -38 32 -55.5t50 -17.5q20 0 34.5 1.5t31.5 1.5q38 0 66.5 -16t52 -61t47.5 -134h-119z" />
    <glyph glyph-name="ovowelsigndeva" unicode="&#x94b;" horiz-adv-x="294" 
d="M214 512v-512h-134v512h-80v110h309v-110h-95zM87 615q-17 59 -33.5 96.5t-38 55t-55.5 17.5q-20 0 -37 -4t-31 -9l-36 105q24 10 49.5 15t55.5 5q40 0 74 -10.5t63.5 -39.5t56 -84.5t51.5 -146.5h-119z" />
    <glyph glyph-name="auvowelsigndeva" unicode="&#x94c;" horiz-adv-x="294" 
d="M214 512v-512h-134v512h-80v110h309v-110h-95zM80 615q-28 31 -48.5 44.5t-38 17.5t-38.5 4q-23 0 -43 -6.5t-40 -16.5l-34 87q27 11 53.5 17.5t49.5 6.5q39 0 69.5 -14.5t62.5 -49.5l5 1q-29 62 -57.5 82.5t-67.5 20.5q-35 0 -66 -14l-30 86q17 5 42.5 10t52.5 5
q40 0 74 -8t64.5 -35t59 -84t55.5 -154h-125z" />
    <glyph glyph-name="viramadeva" unicode="&#x94d;" 
d="M-225 -36q16 4 35 6.5t36 2.5q70 0 121.5 -24t93 -64.5t80.5 -90.5l-91 -62q-36 48 -66 77.5t-62 43.5t-73 14q-16 0 -29 -2t-24 -4z" />
    <glyph glyph-name="uni094E" unicode="&#x94e;" horiz-adv-x="309" 
d="M229 512v-512h-134v622h228v-110h-94z" />
    <glyph glyph-name="awvowelsigndeva" unicode="&#x94f;" horiz-adv-x="294" 
d="M214 512v-512h-134v512h-80v110h309v-110h-95zM47 615q-13 32 -30 44.5t-42 12.5q-18 0 -32 -1.5t-25 -1.5q-46 0 -83 27.5t-62 96.5l95 36q14 -31 30.5 -52t50.5 -21q21 0 35 2t27 2q47 0 79 -28.5t51 -105.5q6 17 10 31t4 25q0 29 -15.5 44t-38.5 23l-31 10
q-55 18 -77 44.5t-22 79.5v12l108 1q-1 -3 -1 -11q0 -22 10.5 -31.5t38.5 -18.5l32 -10q47 -15 72 -41t25 -76q0 -26 -6.5 -51t-14.5 -42h-188z" />
    <glyph glyph-name="omdeva" unicode="&#x950;" horiz-adv-x="1014" 
d="M542 816q0 25 17.5 42t41.5 17q23 0 40.5 -17t17.5 -42q0 -24 -17.5 -41.5t-40.5 -17.5q-24 0 -41.5 17.5t-17.5 41.5zM841 838q-26 -112 -88.5 -158t-150.5 -46q-81 0 -144.5 48t-102.5 154l103 39q24 -77 59 -111t87 -34q56 0 84.5 36t42.5 109zM521 211
q0 -71 -46.5 -111t-134.5 -40q-64 0 -118 24.5t-104 87t-98 176.5l115 44q41 -107 88 -163t107 -56q58 0 58 57q0 47 -32 83q-34 -8 -75 -9l-6 106q59 3 80 19t21 45q0 28 -20 38t-45 10q-31 0 -59.5 -9t-55.5 -23l-37 100q29 15 74.5 28.5t99.5 13.5q85 0 130.5 -44
t45.5 -111q0 -76 -58 -122q17 -19 37 -19q18 0 35 12.5t40 45.5l26 39q25 37 52 62t62 38.5t84 13.5q53 0 95.5 -21t67.5 -63t25 -104q0 -89 -48.5 -144t-154.5 -55q-46 0 -86 14.5t-70 39.5l74 85q19 -14 36.5 -21t38.5 -7q31 0 53.5 19.5t22.5 65.5q0 39 -16.5 60
t-41.5 21t-43 -17.5t-38 -45.5l-21 -31q-37 -55 -71.5 -83t-90.5 -28q2 -10 2 -21z" />
    <glyph glyph-name="udattadeva" unicode="&#x951;" 
d="M-97 671h-100v210h100v-210z" />
    <glyph glyph-name="anudattadeva" unicode="&#x952;" 
d="M-447 -67h372v-91h-372v91z" />
    <glyph glyph-name="uni0953" unicode="&#x953;" 
d="M-191 683l-117 200h153l73 -200h-109z" />
    <glyph glyph-name="uni0954" unicode="&#x954;" 
d="M13 883l-116 -200h-109l73 200h152z" />
    <glyph glyph-name="candralongevowelsigndeva" unicode="&#x955;" 
d="M-358 729h139q-53 9 -90.5 42t-64.5 93l91 32q21 -50 48.5 -72t65.5 -22q41 0 64 24t35 70l97 -30q-19 -65 -54 -96.5t-88 -40.5h128v-77h-371v77z" />
    <glyph glyph-name="uevowelsigndeva" unicode="&#x956;" 
d="M-305 -203q-72 0 -125.5 19.5t-90.5 45.5l39 99q39 -25 81.5 -39t95.5 -14t95 13.5t83 39.5l38 -99q-36 -25 -89.5 -45t-126.5 -20z" />
    <glyph glyph-name="uuevowelsigndeva" unicode="&#x957;" 
d="M-305 -146q-61 0 -113 15.5t-96 39.5l31 82q35 -21 79 -35t99 -14q58 0 100 14t79 35l30 -82q-46 -25 -97 -40t-112 -15zM-305 -268q-65 0 -117 17.5t-92 38.5l29 74q41 -20 84 -30.5t96 -10.5q52 0 94.5 10.5t85.5 30.5l29 -74q-37 -20 -89.5 -38t-119.5 -18z" />
    <glyph glyph-name="qadeva" unicode="&#x958;" horiz-adv-x="823" 
d="M837 512h-322v-139q48 28 110 28q71 0 116.5 -44t45.5 -122q0 -44 -16.5 -98.5t-53.5 -109.5l-117 65q22 31 37.5 64t15.5 68q0 37 -15.5 52t-40.5 15q-23 0 -44.5 -14t-37.5 -30v-247h-134v127q-33 -19 -66.5 -29t-77.5 -10q-55 0 -100.5 20t-72.5 60.5t-27 100.5
q0 55 27 96t75 63.5t111 22.5q28 0 56.5 -2.5t44.5 -6.5l-10 -111q-32 8 -71 8q-47 0 -73 -18.5t-26 -51.5q0 -40 25 -55t54 -15q42 0 74.5 19t56.5 44v250h-381v110h837v-110zM94 -30q0 32 21 53.5t53 21.5t52.5 -21.5t20.5 -53.5t-20.5 -53.5t-52.5 -21.5t-53 21.5
t-21 53.5z" />
    <glyph glyph-name="khhadeva" unicode="&#x959;" horiz-adv-x="896" 
d="M816 512v-512h-134v41q-82 -39 -190 -39q-80 0 -146 23t-119 59t-92.5 75.5t-65.5 73.5q-23 31 -30.5 54t-7.5 40q0 25 17.5 50t61.5 25q46 0 79 -30q11 19 15.5 41t4.5 45q0 27 -7 54h-202v110h910v-110h-94zM571 269q34 0 61 11.5t50 30.5v201h-348q4 -14 6.5 -32.5
t2.5 -42.5q0 -75 -37 -119.5t-92 -72.5q32 -34 71.5 -64.5t90.5 -49t116 -18.5q68 0 112.5 13t77.5 30v45q-25 -14 -56.5 -22.5t-75.5 -8.5q-76 0 -124 39t-48 111q0 71 49 113t134 42q17 0 44 -1.5t46 -6.5l-10 -97q-12 3 -27.5 5t-34.5 2q-74 0 -74 -54q0 -29 19 -41.5
t47 -12.5zM106 -46q0 32 21 53.5t53 21.5t52.5 -21.5t20.5 -53.5t-20.5 -53.5t-52.5 -21.5t-53 21.5t-21 53.5z" />
    <glyph glyph-name="ghhadeva" unicode="&#x95a;" horiz-adv-x="610" 
d="M246 512v-286q0 -40 -17.5 -58t-49.5 -18q-23 0 -48.5 13.5t-48 35.5t-37 47.5t-14.5 49.5q0 26 13.5 46t57.5 20h10v150h-112v110h624v-110h-94v-512h-134v512h-150zM83 -3q0 32 21 53.5t53 21.5t52.5 -21.5t20.5 -53.5t-20.5 -53.5t-52.5 -21.5t-53 21.5t-21 53.5z" />
    <glyph glyph-name="zadeva" unicode="&#x95b;" horiz-adv-x="816" 
d="M736 512v-512h-134v331h-86q-40 0 -61 2q26 -27 40.5 -58.5t14.5 -66.5q0 -48 -23 -81t-61.5 -50t-86.5 -17q-61 0 -117.5 27.5t-107 97.5t-94.5 199l114 42q43 -124 89.5 -188.5t103.5 -64.5q23 0 36.5 12.5t13.5 36.5q0 36 -25.5 68t-70.5 58l43 93h278v71h-602v110
h831v-110h-95zM229 -77q0 32 21 53.5t53 21.5t52.5 -21.5t20.5 -53.5t-20.5 -53.5t-52.5 -21.5t-53 21.5t-21 53.5z" />
    <glyph glyph-name="dddhadeva" unicode="&#x95c;" horiz-adv-x="618" 
d="M374 200q-26 0 -55.5 -5.5t-57.5 -17.5q-29 13 -57 37t-45.5 55t-17.5 64q0 31 10.5 52.5t27.5 35.5q24 19 56.5 27t95.5 8h64v56h-395v110h632v-110h-103v-155h-208q-17 0 -24.5 -1.5t-12.5 -4.5q-12 -7 -12 -22q0 -11 5.5 -20t13.5 -17q21 6 46 9t57 3
q90 0 138.5 -40.5t48.5 -109.5q0 -65 -53.5 -109.5t-166.5 -44.5q-79 0 -143.5 21.5t-115 57t-88.5 76.5l98 77q53 -55 110.5 -87.5t134.5 -32.5q48 0 68.5 14t20.5 34q0 18 -16 29t-56 11zM265 -134q0 32 21 53.5t53 21.5t52.5 -21.5t20.5 -53.5t-20.5 -53.5t-52.5 -21.5
t-53 21.5t-21 53.5z" />
    <glyph glyph-name="rhadeva" unicode="&#x95d;" horiz-adv-x="602" 
d="M329 0q-87 0 -153 27.5t-102.5 80t-36.5 125.5q0 69 34 116t94.5 72.5t139.5 29.5v61h-305v110h616v-110h-177v-171h-81q-58 0 -91 -8.5t-51 -20.5q-22 -15 -34 -35.5t-12 -51.5q0 -38 19.5 -66t58.5 -42q-5 22 -5 45q0 58 41.5 97t130.5 39q56 0 92 -19t53 -50t17 -67
q0 -72 -65 -117t-183 -45zM357 147q0 -20 6 -41q48 3 70 16.5t22 38.5q0 20 -11.5 31t-31.5 11q-28 0 -41.5 -17t-13.5 -39zM224 -134q0 32 21 53.5t53 21.5t52.5 -21.5t20.5 -53.5t-20.5 -53.5t-52.5 -21.5t-53 21.5t-21 53.5z" />
    <glyph glyph-name="fadeva" unicode="&#x95e;" horiz-adv-x="821" 
d="M514 512v-139q23 14 50 21t59 7q71 0 116.5 -44t45.5 -122q0 -44 -16.5 -98.5t-53.5 -109.5l-117 65q22 31 37.5 64t15.5 68q0 37 -15.5 52t-40.5 15q-23 0 -44 -13.5t-37 -29.5v-248h-134v157q-28 -16 -59 -23t-69 -7q-46 0 -80 13.5t-55 36.5q-25 28 -37 64.5
t-12 103.5v167h-68v110h835v-110h-321zM202 512v-159q0 -47 5 -66t18 -33q17 -17 55 -17q31 0 56 13t44 30v232h-178zM94 -11q0 32 21 53.5t53 21.5t52.5 -21.5t20.5 -53.5t-20.5 -53.5t-52.5 -21.5t-53 21.5t-21 53.5z" />
    <glyph glyph-name="yyadeva" unicode="&#x95f;" horiz-adv-x="635" 
d="M649 622v-110h-94v-512h-134v147q-64 -41 -154 -41q-68 0 -117 31t-79 85.5t-42 123.5q57 11 85 34.5t28 64.5q0 19 -6 36t-15 31h-121v110h649zM173 288q16 -34 41.5 -53t64.5 -19q85 0 142 72v224h-171q12 -21 19 -43t7 -50q0 -91 -103 -131zM98 -12q0 32 21 53.5
t53 21.5t52.5 -21.5t20.5 -53.5t-20.5 -53.5t-52.5 -21.5t-53 21.5t-21 53.5z" />
    <glyph glyph-name="rrvocalicdeva" unicode="&#x960;" horiz-adv-x="918" 
d="M130 42l-68 94l242 135q-31 32 -54.5 45t-53.5 13q-28 0 -56.5 -8.5t-70.5 -28.5l-43 107q43 20 83.5 32t84.5 12q39 0 69 -10t59 -34.5t65 -67.5v181h-387v110h932v-110h-411v-183q26 2 54 5.5t51 8.5q-3 11 -3 22q0 38 26 57t60 19q49 0 71.5 -26.5t22.5 -60.5
q0 -26 -11.5 -44t-27.5 -27q15 -25 31.5 -46.5l36.5 -49.5l-24 -37q-50 -2 -69 -16t-19 -33t14 -29.5t47 -10.5q25 0 49 7t59 24l36 -90q-26 -13 -62.5 -23.5t-87.5 -10.5h-5q-7 -10 -7 -23q0 -19 14 -29t47 -10q26 0 50 7t58 24l36 -90q-26 -13 -62.5 -24t-87.5 -11
q-50 0 -89 17t-61.5 46.5t-22.5 68.5q0 31 12 56q-26 18 -40.5 43t-14.5 56q0 38 21 69.5t62 51.5q-10 17 -16 30q-29 -9 -68.5 -15.5t-79.5 -9.5v-225h-134v197z" />
    <glyph glyph-name="llvocalicdeva" unicode="&#x961;" horiz-adv-x="757" 
d="M208 426q50 0 88 -12t75 -39q44 36 105 47v90h-476v110h771v-110h-162v-99q49 -18 78 -59.5t29 -103.5q0 -44 -8.5 -73t-26.5 -65q-62 -2 -82 -16.5t-20 -33.5q0 -20 14.5 -30t46.5 -10q26 0 50 7t59 24l35 -90q-26 -13 -62.5 -23.5t-87.5 -10.5h-4q-8 -10 -8 -23
q0 -19 14 -29t47 -10q25 0 49.5 7t59.5 24l35 -90q-26 -13 -62.5 -24t-87.5 -11q-50 0 -89 16.5t-61.5 46.5t-22.5 69q0 31 12 56q-26 17 -40.5 42.5t-14.5 56.5q0 48 29 82.5t83 50.5q9 25 9 49q0 38 -16.5 55t-43.5 17q-16 0 -37 -10t-41.5 -37t-34.5 -80l-125 38
q9 33 21 61q-15 12 -31.5 19.5t-37.5 7.5q-31 0 -48 -16.5t-17 -41.5q0 -27 15 -52t48.5 -56t91.5 -75l-87 -89q-70 56 -114.5 102.5t-66 89.5t-21.5 90q0 60 26.5 95.5t66 50.5t78.5 15z" />
    <glyph glyph-name="dandadeva" unicode="&#x964;" horiz-adv-x="398" 
d="M178 622h134v-622h-134v622z" />
    <glyph glyph-name="dbldandadeva" unicode="&#x965;" horiz-adv-x="638" 
d="M417 622h134v-622h-134v622zM178 622h134v-622h-134v622z" />
    <glyph glyph-name="zerodeva" unicode="&#x966;" horiz-adv-x="570" 
d="M285 96q-68 0 -120.5 28t-82 78.5t-29.5 118.5q0 69 29.5 119t82 77t122.5 27q68 0 120 -27t81 -77t29 -121q0 -68 -29.5 -118t-82 -77.5t-120.5 -27.5zM283 206q43 0 70.5 31t27.5 85q0 53 -25.5 82.5t-69.5 29.5q-43 0 -70 -31t-27 -85q0 -53 25.5 -82.5t68.5 -29.5z
" />
    <glyph glyph-name="onedeva" unicode="&#x967;" horiz-adv-x="570" 
d="M288 632q87 0 132.5 -41t45.5 -108q0 -38 -13 -73.5t-51.5 -76t-114.5 -92.5l108 -82q42 -31 59.5 -60t17.5 -66q0 -32 -12.5 -65.5t-44.5 -67.5l-102 72q11 13 17 23.5t6 25.5q0 30 -46 66l-184 146l10 52q112 67 163 111t51 85q0 20 -11.5 32.5t-39.5 12.5
q-25 0 -37 -11.5t-12 -26.5q0 -16 11 -27t34 -22l-76 -64q-35 21 -61.5 50t-26.5 79q0 32 18.5 61.5t57.5 48t101 18.5z" />
    <glyph glyph-name="twodeva" unicode="&#x968;" horiz-adv-x="570" 
d="M507 57l-100 -69q-41 58 -80.5 107.5t-77.5 87.5q-23 -3 -48 -3q-43 0 -71.5 22t-28.5 63q0 35 22.5 56t61.5 21q21 0 40.5 -7t47.5 -27q30 14 51 43.5t21 71.5q0 53 -29 75.5t-74 22.5q-33 0 -61.5 -7.5t-62.5 -24.5l-40 104q42 18 86.5 28.5t101.5 10.5q62 0 110.5 -23
t76.5 -69.5t28 -115.5q0 -65 -30.5 -117t-84.5 -85q39 -38 75 -81.5t66 -83.5z" />
    <glyph glyph-name="threedeva" unicode="&#x969;" horiz-adv-x="570" 
d="M90 591q32 16 77 28.5t105 12.5q90 0 136 -44t46 -111q0 -58 -42 -101q39 -20 56.5 -50t17.5 -67q0 -52 -28 -94t-82 -67q26 -24 50.5 -50.5t44.5 -52.5l-97 -70q-28 39 -59.5 76t-60.5 67q-21 -2 -43 -2q-47 0 -77 22.5t-30 62.5q0 36 22.5 57t61.5 21q23 0 44.5 -8
t53.5 -34q64 17 64 66q0 27 -14.5 41.5t-40.5 20.5q-41 -10 -91 -11l-5 106q71 3 97 19.5t26 44.5t-20.5 38t-48.5 10q-34 0 -65 -9t-60 -23z" />
    <glyph glyph-name="fourdeva" unicode="&#x96a;" horiz-adv-x="570" 
d="M473 146q0 -68 -49.5 -108t-135.5 -40q-84 0 -138 39t-54 107q0 24 6 50t28.5 60.5t73.5 82.5q-54 47 -83.5 83t-43 63.5t-17 49.5t-3.5 42q0 16 3 29.5t8 27.5l133 -23q-7 -18 -7 -35q0 -19 6 -39.5t25.5 -48t58.5 -66.5q39 40 60 68t28.5 48t7.5 36t-6 37l132 23
q6 -14 9 -28t3 -33q0 -27 -9.5 -58t-41.5 -72t-99 -99q48 -47 70 -81t28.5 -61.5t6.5 -53.5zM230 163q0 -23 13.5 -39t41.5 -16q25 0 38.5 15t13.5 37q0 20 -9 42.5t-43 59.5q-34 -36 -44.5 -58.5t-10.5 -40.5z" />
    <glyph glyph-name="fivedeva" unicode="&#x96b;" horiz-adv-x="570" 
d="M458 -67l-44.5 81.5t-44 88.5t-34.5 80h-17q-48 0 -93 11t-81 37.5t-57 72t-21 113.5q0 47 14 105t45 110l138 -39q-29 -45 -46 -87t-17 -89q0 -117 106 -124q-1 10 -1 20q0 41 26.5 57t58.5 16q48 0 78.5 -25t30.5 -69q0 -32 -14.5 -53.5t-40.5 -33.5q15 -32 36.5 -72
t45 -79.5l43.5 -70.5z" />
    <glyph glyph-name="sixdeva" unicode="&#x96c;" horiz-adv-x="570" 
d="M455 -101q-27 47 -51.5 97t-38.5 85q-14 -1 -29 -1q-74 0 -124.5 26t-76 69t-25.5 94q0 25 9 50.5t28 46.5q-65 49 -65 129q0 65 54 101t142 36q34 0 69.5 -2t57.5 -7l-10 -109q-19 4 -45 7t-55 3q-79 0 -79 -45q0 -13 9 -26.5t29 -22.5q36 8 79 8q16 0 34.5 -2t28.5 -4
l-11 -107q-21 3 -47 3q-42 0 -67.5 -17t-25.5 -51q0 -33 24.5 -51t67.5 -21q-1 8 -1 17q0 40 26 56.5t59 16.5q47 0 77 -25t30 -68q0 -30 -15.5 -50.5t-41.5 -32.5q16 -32 39.5 -72t49.5 -79z" />
    <glyph glyph-name="sevendeva" unicode="&#x96d;" horiz-adv-x="570" 
d="M546 271q0 -84 -25.5 -136.5t-69.5 -76.5t-101 -24q-70 0 -125.5 26.5t-95.5 88.5t-66 169t-38 268l125 17q14 -217 56 -336.5t124 -119.5q50 0 67.5 35t17.5 96q0 45 -8 83.5t-24 62.5t-41 24q-17 0 -25.5 -10t-8.5 -25q0 -19 15.5 -35t67.5 -21l-19 -99
q-87 13 -133.5 53.5t-46.5 109.5q0 61 39.5 97t110.5 36q62 0 108 -36t71 -99.5t25 -147.5z" />
    <glyph glyph-name="eightdeva" unicode="&#x96e;" horiz-adv-x="570" 
d="M288 0q-58 0 -108 18.5t-81.5 58.5t-31.5 105q0 28 7.5 57t31.5 67.5t71 96.5l188 229l109 -88l-199 -238q-30 -36 -45.5 -58.5t-21 -39t-5.5 -34.5q0 -29 24 -45t67 -16q54 0 97 15.5t90 46.5l54 -106q-49 -27 -108 -48t-139 -21z" />
    <glyph glyph-name="ninedeva" unicode="&#x96f;" horiz-adv-x="570" 
d="M54 448q0 49 24.5 91t68 67.5t101.5 25.5q92 0 143.5 -50t51.5 -126q0 -66 -34.5 -111.5t-113.5 -62.5l21 -14t19 -14l127 -95q44 -33 61 -61t17 -65q0 -32 -13 -65.5t-45 -67.5l-102 72q11 12 17 23t6 26q0 17 -12.5 33t-33.5 33l-170 137q-53 43 -82 78.5t-40 70.5
t-11 75zM181 452q0 -32 17 -49.5t45 -17.5q29 0 47.5 18.5t18.5 50.5t-17.5 49.5t-45.5 17.5t-46.5 -18.5t-18.5 -50.5z" />
    <glyph glyph-name="abbreviationsigndeva" unicode="&#x970;" horiz-adv-x="445" 
d="M228 265q-45 0 -82.5 18.5t-59.5 53t-22 82.5q0 44 20.5 78.5t57.5 54.5t86 20q46 0 83 -19t58.5 -53.5t21.5 -80.5q0 -45 -21.5 -80t-58.5 -54.5t-83 -19.5zM228 355q29 0 47.5 17.5t18.5 46.5q0 28 -18.5 45.5t-47.5 17.5q-32 0 -49.5 -18.5t-17.5 -44.5
q0 -30 19.5 -47t47.5 -17z" />
    <glyph glyph-name="uni0971" unicode="&#x971;" horiz-adv-x="328" 
d="M98 580q0 32 21 53.5t52 21.5t52.5 -21.5t21.5 -53.5t-21.5 -53.5t-52.5 -21.5t-52 21.5t-21 53.5z" />
    <glyph glyph-name="acandradeva" unicode="&#x972;" horiz-adv-x="845" 
d="M521 211q0 -71 -46.5 -111t-134.5 -40q-64 0 -118 24.5t-104 87t-98 176.5l115 44q41 -107 88 -163t107 -56q58 0 58 57q0 47 -32 83q-34 -8 -75 -9l-6 106q59 3 80 19t21 45q0 28 -20 38t-45 10q-31 0 -59.5 -9t-55.5 -23l-37 100q29 15 74.5 28.5t99.5 13.5
q85 0 130.5 -44t45.5 -111q0 -73 -54 -118q4 -5 8 -9q13 -2 28 -3t34 -1q30 0 56 3.5t50 12.5v150h-64v110h292v-110h-94v-512h-134v251q-21 -8 -43.5 -10.5t-45.5 -2.5q-11 0 -23 1q2 -14 2 -28zM903 860q-27 -112 -89.5 -158t-150.5 -46q-80 0 -143.5 48t-102.5 154
l103 38q25 -71 59.5 -105t86.5 -34q55 0 83 36.5t44 102.5z" />
    <glyph glyph-name="oedeva" unicode="&#x973;" horiz-adv-x="845" 
d="M521 211q0 -71 -46.5 -111t-134.5 -40q-64 0 -118 24.5t-104 87t-98 176.5l115 44q41 -107 88 -163t107 -56q58 0 58 57q0 47 -32 83q-34 -8 -75 -9l-6 106q59 3 80 19t21 45q0 28 -20 38t-45 10q-31 0 -59.5 -9t-55.5 -23l-37 100q29 15 74.5 28.5t99.5 13.5
q85 0 130.5 -44t45.5 -111q0 -73 -54 -118q4 -5 8 -9q13 -2 28 -3t34 -1q30 0 56 3.5t50 12.5v150h-64v110h292v-110h-94v-512h-134v251q-21 -8 -43.5 -10.5t-45.5 -2.5q-11 0 -23 1q2 -14 2 -28zM631 617v188h134v-188h-134z" />
    <glyph glyph-name="ooedeva" unicode="&#x974;" horiz-adv-x="1140" 
d="M521 211q0 -71 -46.5 -111t-134.5 -40q-64 0 -118 24.5t-104 87t-98 176.5l115 44q41 -107 88 -163t107 -56q58 0 58 57q0 47 -32 83q-34 -8 -75 -9l-6 106q59 3 80 19t21 45q0 28 -20 38t-45 10q-31 0 -59.5 -9t-55.5 -23l-37 100q29 15 74.5 28.5t99.5 13.5
q85 0 130.5 -44t45.5 -111q0 -73 -54 -118q4 -5 8 -9q13 -2 28 -3t34 -1q30 0 56 3.5t50 12.5v150h-64v110h587v-110h-94v-512h-134v512h-161v-512h-134v251q-21 -8 -43.5 -10.5t-45.5 -2.5q-11 0 -23 1q2 -14 2 -28zM926 617v188h134v-188h-134z" />
    <glyph glyph-name="awdeva" unicode="&#x975;" horiz-adv-x="1140" 
d="M521 211q0 -71 -46.5 -111t-134.5 -40q-64 0 -118 24.5t-104 87t-98 176.5l115 44q41 -107 88 -163t107 -56q58 0 58 57q0 47 -32 83q-34 -8 -75 -9l-6 106q59 3 80 19t21 45q0 28 -20 38t-45 10q-31 0 -59.5 -9t-55.5 -23l-37 100q29 15 74.5 28.5t99.5 13.5
q85 0 130.5 -44t45.5 -111q0 -73 -54 -118q4 -5 8 -9q13 -2 28 -3t34 -1q30 0 56 3.5t50 12.5v150h-64v110h587v-110h-94v-512h-134v512h-161v-512h-134v251q-21 -8 -43.5 -10.5t-45.5 -2.5q-11 0 -23 1q2 -14 2 -28zM893 615q-13 32 -30 44.5t-42 12.5q-18 0 -32 -1.5
t-25 -1.5q-46 0 -83 27.5t-62 96.5l95 36q14 -31 30.5 -52t50.5 -21q21 0 35 2t27 2q47 0 79 -28.5t51 -105.5q6 17 10 31t4 25q0 29 -15.5 44t-38.5 23l-31 10q-55 18 -77 44.5t-22 79.5v12l108 1q-1 -3 -1 -11q0 -22 10.5 -31.5t38.5 -18.5l32 -10q47 -15 72 -41t25 -76
q0 -26 -6.5 -51t-14.5 -42h-188z" />
    <glyph glyph-name="uedeva" unicode="&#x976;" horiz-adv-x="845" 
d="M521 211q0 -71 -46.5 -111t-134.5 -40q-64 0 -118 24.5t-104 87t-98 176.5l115 44q41 -107 88 -163t107 -56q58 0 58 57q0 47 -32 83q-34 -8 -75 -9l-6 106q59 3 80 19t21 45q0 28 -20 38t-45 10q-31 0 -59.5 -9t-55.5 -23l-37 100q29 15 74.5 28.5t99.5 13.5
q85 0 130.5 -44t45.5 -111q0 -73 -54 -118q4 -5 8 -9q13 -2 28 -3t34 -1q30 0 56 3.5t50 12.5v150h-64v110h292v-110h-94v-512h-134v251q-21 -8 -43.5 -10.5t-45.5 -2.5q-11 0 -23 1q2 -14 2 -28zM540 -203q-72 0 -125.5 19.5t-90.5 45.5l39 99q39 -25 81.5 -39t95.5 -14
t95 13.5t83 39.5l38 -99q-36 -25 -89.5 -45t-126.5 -20z" />
    <glyph glyph-name="uuedeva" unicode="&#x977;" horiz-adv-x="845" 
d="M521 211q0 -71 -46.5 -111t-134.5 -40q-64 0 -118 24.5t-104 87t-98 176.5l115 44q41 -107 88 -163t107 -56q58 0 58 57q0 47 -32 83q-34 -8 -75 -9l-6 106q59 3 80 19t21 45q0 28 -20 38t-45 10q-31 0 -59.5 -9t-55.5 -23l-37 100q29 15 74.5 28.5t99.5 13.5
q85 0 130.5 -44t45.5 -111q0 -73 -54 -118q4 -5 8 -9q13 -2 28 -3t34 -1q30 0 56 3.5t50 12.5v150h-64v110h292v-110h-94v-512h-134v251q-21 -8 -43.5 -10.5t-45.5 -2.5q-11 0 -23 1q2 -14 2 -28zM540 -146q-61 0 -113 15.5t-96 39.5l31 82q35 -21 79 -35t99 -14
q58 0 100 14t79 35l30 -82q-46 -25 -97 -40t-112 -15zM540 -268q-65 0 -117 17.5t-92 38.5l29 74q41 -20 84 -30.5t96 -10.5q52 0 94.5 10.5t85.5 30.5l29 -74q-37 -20 -89.5 -38t-119.5 -18z" />
    <glyph glyph-name="marwariddadeva" unicode="&#x978;" horiz-adv-x="602" 
d="M246 512v-95q21 3 40.5 4t33.5 1q94 0 147.5 -27t76 -72t22.5 -98q0 -43 -16.5 -98.5t-53.5 -111.5l-117 65q23 32 38 66t15 70q0 96 -115 96q-32 0 -71 -8v-49q0 -40 -17.5 -57.5t-49.5 -17.5q-23 0 -48.5 13.5t-48 35t-37 45.5t-14.5 45q0 29 21.5 46t59.5 29v118h-112
v110h617v-110h-371z" />
    <glyph glyph-name="zhadeva" unicode="&#x979;" horiz-adv-x="816" 
d="M736 512v-512h-134v341h-86h-32t-25 1q24 -25 37.5 -53t13.5 -59q0 -45 -23 -75.5t-61.5 -46.5t-86.5 -16q-61 0 -117.5 25.5t-107 91t-94.5 185.5l114 42q43 -114 89.5 -172.5t103.5 -58.5q23 0 36.5 11t13.5 32q0 32 -25.5 59t-70.5 50l43 94h278v61h-602v110h831v-110
h-95zM367 25q0 26 17.5 44.5t42.5 18.5q24 0 41.5 -18.5t17.5 -44.5q0 -25 -17.5 -43.5t-41.5 -18.5q-25 0 -42.5 18.5t-17.5 43.5zM182 25q0 26 17 44.5t42 18.5t42.5 -18.5t17.5 -44.5q0 -25 -17.5 -43.5t-42.5 -18.5t-42 18.5t-17 43.5zM274 -79q0 26 17.5 44t42.5 18
t42.5 -18t17.5 -44t-17.5 -44.5t-42.5 -18.5t-42.5 18.5t-17.5 44.5z" />
    <glyph glyph-name="heavyyadeva" unicode="&#x97a;" horiz-adv-x="635" 
d="M555 512v-512h-134v144q-62 -38 -148 -38q-71 0 -121 31t-80.5 85.5t-42.5 123.5q57 11 85 34.5t28 64.5q0 19 -6 36t-16 31h-120v110h649v-110h-94zM421 512h-175l175 -227v227zM304 319l-21 28t-21 27q-17 -58 -89 -86q16 -34 42.5 -53t69.5 -19q50 0 84 19z" />
    <glyph glyph-name="gabardeva" unicode="&#x97b;" horiz-adv-x="610" 
d="M82 71h314v441h-150v-265q0 -41 -17.5 -58.5t-49.5 -17.5q-23 0 -48.5 13.5t-48 35.5t-37 47.5t-14.5 49.5q0 25 13.5 45.5t57.5 20.5h10v129h-112v110h624v-110h-94v-532h-448v91z" />
    <glyph glyph-name="jabardeva" unicode="&#x97c;" horiz-adv-x="807" 
d="M82 71h510v270h-76h-32t-25 1q24 -25 37.5 -53t13.5 -59q0 -45 -23 -75.5t-61.5 -46.5t-86.5 -16q-61 0 -117.5 25.5t-107 91t-94.5 185.5l114 42q43 -114 89.5 -172.5t103.5 -58.5q23 0 36.5 11t13.5 32q0 32 -25.5 59t-70.5 50l43 94h268v61h-592v110h821v-110h-94
v-532h-645v91z" />
    <glyph glyph-name="uni097D" unicode="&#x97d;" horiz-adv-x="501" 
d="M240 632q105 0 161.5 -55.5t56.5 -144.5q0 -82 -44 -130t-122 -68v-234h-134v330q92 2 128.5 32t36.5 76q0 41 -27.5 62t-76.5 21q-37 0 -66 -8t-61 -23l-40 104q40 16 86 27t102 11z" />
    <glyph glyph-name="ddabardeva" unicode="&#x97e;" horiz-adv-x="618" 
d="M374 249q-26 0 -57 -4.5t-59 -13.5q-28 11 -55 31.5t-44.5 47t-17.5 56.5q0 26 10.5 45t27.5 32q23 16 54 22.5t93 6.5h69v40h-395v110h632v-110h-103v-130h-219q-14 0 -26 -4t-12 -17q0 -8 6 -16.5t15 -14.5q20 5 47 7.5t58 2.5q88 0 135.5 -35t47.5 -94
q0 -54 -52 -91.5t-168 -37.5q-75 0 -134.5 15t-110 43.5t-99.5 68.5l90 78q53 -49 113 -78t137 -29q51 0 70 11t19 26q0 14 -14.5 23t-57.5 9zM44 71h520v-91h-520v91z" />
    <glyph glyph-name="babardeva" unicode="&#x97f;" horiz-adv-x="620" 
d="M82 71h324v79q-35 -19 -72 -28t-92 -9q-56 0 -102.5 19.5t-74.5 58.5t-28 98q0 54 27.5 93.5t75.5 61t112 21.5q41 0 73.5 -2t49.5 -5l-10 -103q-17 5 -38 6.5t-44 1.5h-13l93 -117q12 8 22.5 17t20.5 19v230h-406v110h634v-110h-94v-532h-458v91zM167 288q0 -43 26 -59
t66 -16q20 0 38 4l-102 127q-28 -19 -28 -56z" />
    <glyph glyph-name="uni200C" unicode="&#x200c;" 
d="M-26 788h52v-954h-52v954z" />
    <glyph glyph-name="uni200D" unicode="&#x200d;" 
d="M146 539l-37 -36l-83 82v-750h-52v750l-83 -82l-37 36l110 107l-110 106l37 36l109 -108l109 108l37 -37l-110 -105z" />
    <glyph glyph-name="uni25CC" unicode="&#x25cc;" horiz-adv-x="510" 
d="M254 457q-28 0 -28 29q0 28 28 28q30 0 30 -28q0 -29 -30 -29zM384 407q-29 0 -29 29t29 29t29 -29t-29 -29zM125 407q-28 0 -28 29t28 29q29 0 29 -29t-29 -29zM81 283q-29 0 -29 29q0 28 29 28q28 0 28 -28q0 -29 -28 -29zM429 283q-29 0 -29 29q0 28 29 28t29 -28
q0 -29 -29 -29zM125 158q-28 0 -28 29t28 29q29 0 29 -29t-29 -29zM384 158q-29 0 -29 29t29 29t29 -29t-29 -29zM254 108q-28 0 -28 29t28 29q30 0 30 -29t-30 -29z" />
    <glyph glyph-name="uni02BC" unicode="&#x2bc;" horiz-adv-x="335" 
d="M274 729l7 -11q-13 -53 -37 -116t-49 -118h-107q14 59 28 126.5t21 118.5h137z" />
    <glyph glyph-name="ashortnuktadeva" horiz-adv-x="845" 
d="M521 211q0 -71 -46.5 -111t-134.5 -40q-64 0 -118 24.5t-104 87t-98 176.5l115 44q41 -107 88 -163t107 -56q58 0 58 57q0 47 -32 83q-34 -8 -75 -9l-6 106q59 3 80 19t21 45q0 28 -20 38t-45 10q-31 0 -59.5 -9t-55.5 -23l-37 100q29 15 74.5 28.5t99.5 13.5
q85 0 130.5 -44t45.5 -111q0 -73 -54 -118q4 -5 8 -9q13 -2 28 -3t34 -1q30 0 56 3.5t50 12.5v150h-64v110h292v-110h-94v-512h-134v251q-21 -8 -43.5 -10.5t-45.5 -2.5q-11 0 -23 1q2 -14 2 -28zM638 615q-18 65 -41 85t-54 20q-14 0 -25 -1.5t-26 -1.5q-47 0 -84.5 29.5
t-68.5 111.5l104 38q16 -38 32 -55.5t50 -17.5q20 0 34.5 1.5t31.5 1.5q38 0 66.5 -16t52 -61t47.5 -134h-119zM230 -75q0 32 21 53.5t53 21.5t52.5 -21.5t20.5 -53.5t-20.5 -53.5t-52.5 -21.5t-53 21.5t-21 53.5z" />
    <glyph glyph-name="anuktadeva" horiz-adv-x="845" 
d="M521 211q0 -71 -46.5 -111t-134.5 -40q-64 0 -118 24.5t-104 87t-98 176.5l115 44q41 -107 88 -163t107 -56q58 0 58 57q0 47 -32 83q-34 -8 -75 -9l-6 106q59 3 80 19t21 45q0 28 -20 38t-45 10q-31 0 -59.5 -9t-55.5 -23l-37 100q29 15 74.5 28.5t99.5 13.5
q85 0 130.5 -44t45.5 -111q0 -73 -54 -118q4 -5 8 -9q13 -2 28 -3t34 -1q30 0 56 3.5t50 12.5v150h-64v110h292v-110h-94v-512h-134v251q-21 -8 -43.5 -10.5t-45.5 -2.5q-11 0 -23 1q2 -14 2 -28zM230 -75q0 32 21 53.5t53 21.5t52.5 -21.5t20.5 -53.5t-20.5 -53.5
t-52.5 -21.5t-53 21.5t-21 53.5z" />
    <glyph glyph-name="aanuktadeva" horiz-adv-x="1140" 
d="M521 211q0 -71 -46.5 -111t-134.5 -40q-64 0 -118 24.5t-104 87t-98 176.5l115 44q41 -107 88 -163t107 -56q58 0 58 57q0 47 -32 83q-34 -8 -75 -9l-6 106q59 3 80 19t21 45q0 28 -20 38t-45 10q-31 0 -59.5 -9t-55.5 -23l-37 100q29 15 74.5 28.5t99.5 13.5
q85 0 130.5 -44t45.5 -111q0 -73 -54 -118q4 -5 8 -9q13 -2 28 -3t34 -1q30 0 56 3.5t50 12.5v150h-64v110h587v-110h-94v-512h-134v512h-161v-512h-134v251q-21 -8 -43.5 -10.5t-45.5 -2.5q-11 0 -23 1q2 -14 2 -28zM230 -75q0 32 21 53.5t53 21.5t52.5 -21.5t20.5 -53.5
t-20.5 -53.5t-52.5 -21.5t-53 21.5t-21 53.5z" />
    <glyph glyph-name="inuktadeva" horiz-adv-x="518" 
d="M274 200q-26 0 -55.5 -5.5t-57.5 -17.5q-29 13 -57 37t-45.5 55t-17.5 64q0 31 10.5 52.5t27.5 35.5q24 19 56.5 27t95.5 8h64v56h-295v110h532v-110h-103v-155h-208q-17 0 -24.5 -1.5t-12.5 -4.5q-12 -7 -12 -22q0 -11 5.5 -20t13.5 -17q21 6 46 9t57 3q90 0 138.5 -41
t48.5 -111q0 -60 -39.5 -95.5t-113.5 -45.5q28 -11 59.5 -22l62.5 -21l-45 -95q-66 30 -127 63t-108 65q-59 3 -93.5 20t-34.5 63q0 33 20 49t42 16q49 0 98 -44q14 -2 28 -2q116 0 116 54q0 20 -16 31.5t-56 11.5zM138 -163q0 32 21 53.5t53 21.5t52.5 -21.5t20.5 -53.5
t-20.5 -53.5t-52.5 -21.5t-53 21.5t-21 53.5z" />
    <glyph glyph-name="iinuktadeva" horiz-adv-x="518" 
d="M274 200q-26 0 -55.5 -5.5t-57.5 -17.5q-29 13 -57 37t-45.5 55t-17.5 64q0 31 10.5 52.5t27.5 35.5q24 19 56.5 27t95.5 8h64v56h-295v110h532v-110h-103v-155h-208q-17 0 -24.5 -1.5t-12.5 -4.5q-12 -7 -12 -22q0 -11 5.5 -20t13.5 -17q21 6 46 9t57 3q90 0 138.5 -41
t48.5 -111q0 -60 -39.5 -95.5t-113.5 -45.5q28 -11 59.5 -22l62.5 -21l-45 -95q-66 30 -127 63t-108 65q-59 3 -93.5 20t-34.5 63q0 33 20 49t42 16q49 0 98 -44q14 -2 28 -2q116 0 116 54q0 20 -16 31.5t-56 11.5zM278 615q-21 34 -33.5 69.5t-12.5 68.5q0 73 51 108
t128 35q34 0 64 -4t53 -11l-25 -95q-19 6 -34.5 8t-29.5 2q-39 0 -56.5 -18.5t-17.5 -55.5q0 -25 12 -54t29 -53h-128zM138 -163q0 32 21 53.5t53 21.5t52.5 -21.5t20.5 -53.5t-20.5 -53.5t-52.5 -21.5t-53 21.5t-21 53.5z" />
    <glyph glyph-name="unuktadeva" horiz-adv-x="584" 
d="M0 622h599v-110h-91q18 -31 18 -66q0 -78 -72 -123q34 -31 60.5 -74t26.5 -94q0 -76 -50 -115.5t-141 -39.5q-68 0 -124 29t-106 97t-100 186l115 43q50 -122 97.5 -182t106.5 -60q69 0 69 61q0 34 -17 59t-51 49q-31 -5 -66 -7l-5 106q57 2 90 16.5t33 57.5
q0 17 -8.5 31.5t-22.5 25.5h-361v110zM227 -134q0 32 21 53.5t53 21.5t52.5 -21.5t20.5 -53.5t-20.5 -53.5t-52.5 -21.5t-53 21.5t-21 53.5z" />
    <glyph glyph-name="uunuktadeva" horiz-adv-x="828" 
d="M0 622h842v-110h-334q18 -31 18 -66q0 -77 -72 -123q12 -10 22 -22q35 23 71.5 34.5t77.5 11.5q75 0 121 -39.5t46 -118.5q0 -43 -13 -90.5t-47 -98.5l-116 64q20 26 31 57t11 56q0 34 -14.5 47t-39.5 13q-19 0 -37 -9t-34 -23q8 -25 8 -50q0 -76 -50 -115.5t-141 -39.5
q-68 0 -124 29t-106 97t-100 186l115 43q50 -122 97.5 -182t106.5 -60q69 0 69 61q0 34 -17 59t-51 49q-31 -5 -66 -7l-5 106q57 2 90 16.5t33 57.5q0 17 -8.5 31.5t-22.5 25.5h-361v110zM227 -134q0 32 21 53.5t53 21.5t52.5 -21.5t20.5 -53.5t-20.5 -53.5t-52.5 -21.5
t-53 21.5t-21 53.5z" />
    <glyph glyph-name="rvocalicnuktadeva" horiz-adv-x="918" 
d="M130 42l-68 94l242 135q-31 32 -54.5 45t-53.5 13q-28 0 -56.5 -8.5t-70.5 -28.5l-43 107q43 20 83.5 32t84.5 12q39 0 69 -10t59 -34.5t65 -67.5v181h-387v110h932v-110h-411v-183q26 2 54 5.5t51 8.5q-3 11 -3 22q0 38 26 57t60 19q49 0 71.5 -26.5t22.5 -60.5
q0 -26 -11.5 -44t-27.5 -27q15 -25 31.5 -46.5l36.5 -49.5l-24 -37q-52 -2 -70.5 -18.5t-18.5 -38.5q0 -47 61 -47q23 0 46.5 7t58.5 25l39 -98q-26 -13 -62.5 -23.5t-87.5 -10.5q-50 0 -89 18t-61.5 51t-22.5 76q0 86 84 129q-10 17 -16 30q-29 -9 -68.5 -15.5t-79.5 -9.5
v-225h-134v197zM134 -69q0 32 21 53.5t53 21.5t52.5 -21.5t20.5 -53.5t-20.5 -53.5t-52.5 -21.5t-53 21.5t-21 53.5z" />
    <glyph glyph-name="lvocalicnuktadeva" horiz-adv-x="757" 
d="M463 30q0 97 98 135q21 42 21 77q0 38 -16.5 55t-43.5 17q-16 0 -37 -10t-41.5 -37t-34.5 -80l-125 38q9 33 21 61q-15 12 -31.5 19.5t-37.5 7.5q-31 0 -48 -16.5t-17 -41.5q0 -27 15 -52t48.5 -56t91.5 -75l-87 -89q-70 56 -114.5 102.5t-66 89.5t-21.5 90
q0 60 26.5 95.5t66 50.5t78.5 15q50 0 88 -12t75 -39q44 36 105 47v90h-476v110h771v-110h-162v-99q49 -18 78 -59.5t29 -103.5q0 -44 -12.5 -83t-34.5 -77v0v-1q-50 -3 -69 -19t-19 -38q0 -47 61 -47q22 0 46 7t59 25l39 -98q-27 -13 -63 -23.5t-87 -10.5q-50 0 -89 18
t-61.5 50.5t-22.5 76.5zM182 -134q0 32 21 53.5t53 21.5t52.5 -21.5t20.5 -53.5t-20.5 -53.5t-52.5 -21.5t-53 21.5t-21 53.5z" />
    <glyph glyph-name="ecandranuktadeva" horiz-adv-x="608" 
d="M622 512h-82v-128q0 -52 -9 -82t-32 -53q-23 -22 -56 -34t-85 -17l-23 110q40 6 52 18q11 10 15 25t4 50v111h-204v-163q0 -38 3 -62.5t13 -42t30 -33t54 -34.5l140 -81q61 -35 82 -69.5t21 -83.5q0 -40 -17.5 -78t-36.5 -63l-110 63q11 11 19.5 30t8.5 35q0 20 -7 34.5
t-27.5 30t-61.5 39.5l-121 70q-39 22 -66.5 46t-42.5 59q-7 19 -11 45t-4 68v190h-68v110h622v-110zM618 860q-27 -112 -89.5 -158t-150.5 -46q-80 0 -143.5 48t-102.5 154l103 38q25 -71 59.5 -105t86.5 -34q55 0 83 36.5t44 102.5zM121 -84q0 32 21 53.5t53 21.5
t52.5 -21.5t20.5 -53.5t-20.5 -53.5t-52.5 -21.5t-53 21.5t-21 53.5z" />
    <glyph glyph-name="eshortnuktadeva" horiz-adv-x="608" 
d="M622 512h-82v-128q0 -52 -9 -82t-32 -53q-23 -22 -56 -34t-85 -17l-23 110q40 6 52 18q11 10 15 25t4 50v111h-204v-163q0 -38 3 -62.5t13 -42t30 -33t54 -34.5l140 -81q61 -35 82 -69.5t21 -83.5q0 -40 -17.5 -78t-36.5 -63l-110 63q11 11 19.5 30t8.5 35q0 20 -7 34.5
t-27.5 30t-61.5 39.5l-121 70q-39 22 -66.5 46t-42.5 59q-7 19 -11 45t-4 68v190h-68v110h622v-110zM413 615q-18 65 -41 85t-54 20q-14 0 -25 -1.5t-26 -1.5q-47 0 -84.5 29.5t-68.5 111.5l104 38q16 -38 32 -55.5t50 -17.5q20 0 34.5 1.5t31.5 1.5q38 0 66.5 -16t52 -61
t47.5 -134h-119zM121 -84q0 32 21 53.5t53 21.5t52.5 -21.5t20.5 -53.5t-20.5 -53.5t-52.5 -21.5t-53 21.5t-21 53.5z" />
    <glyph glyph-name="enuktadeva" horiz-adv-x="608" 
d="M622 512h-82v-128q0 -52 -9 -82t-32 -53q-23 -22 -56 -34t-85 -17l-23 110q40 6 52 18q11 10 15 25t4 50v111h-204v-163q0 -38 3 -62.5t13 -42t30 -33t54 -34.5l140 -81q61 -35 82 -69.5t21 -83.5q0 -40 -17.5 -78t-36.5 -63l-110 63q11 11 19.5 30t8.5 35q0 20 -7 34.5
t-27.5 30t-61.5 39.5l-121 70q-39 22 -66.5 46t-42.5 59q-7 19 -11 45t-4 68v190h-68v110h622v-110zM121 -84q0 32 21 53.5t53 21.5t52.5 -21.5t20.5 -53.5t-20.5 -53.5t-52.5 -21.5t-53 21.5t-21 53.5z" />
    <glyph glyph-name="ainuktadeva" horiz-adv-x="608" 
d="M622 512h-82v-128q0 -52 -9 -82t-32 -53q-23 -22 -56 -34t-85 -17l-23 110q40 6 52 18q11 10 15 25t4 50v111h-204v-163q0 -38 3 -62.5t13 -42t30 -33t54 -34.5l140 -81q61 -35 82 -69.5t21 -83.5q0 -40 -17.5 -78t-36.5 -63l-110 63q11 11 19.5 30t8.5 35q0 20 -7 34.5
t-27.5 30t-61.5 39.5l-121 70q-39 22 -66.5 46t-42.5 59q-7 19 -11 45t-4 68v190h-68v110h622v-110zM413 615q-17 59 -33.5 96.5t-38 55t-55.5 17.5q-20 0 -37 -4t-31 -9l-36 105q24 10 49.5 15t55.5 5q40 0 74 -10.5t63.5 -39.5t56 -84.5t51.5 -146.5h-119zM121 -84
q0 32 21 53.5t53 21.5t52.5 -21.5t20.5 -53.5t-20.5 -53.5t-52.5 -21.5t-53 21.5t-21 53.5z" />
    <glyph glyph-name="ocandranuktadeva" horiz-adv-x="1140" 
d="M521 211q0 -71 -46.5 -111t-134.5 -40q-64 0 -118 24.5t-104 87t-98 176.5l115 44q41 -107 88 -163t107 -56q58 0 58 57q0 47 -32 83q-34 -8 -75 -9l-6 106q59 3 80 19t21 45q0 28 -20 38t-45 10q-31 0 -59.5 -9t-55.5 -23l-37 100q29 15 74.5 28.5t99.5 13.5
q85 0 130.5 -44t45.5 -111q0 -73 -54 -118q4 -5 8 -9q13 -2 28 -3t34 -1q30 0 56 3.5t50 12.5v150h-64v110h587v-110h-94v-512h-134v512h-161v-512h-134v251q-21 -8 -43.5 -10.5t-45.5 -2.5q-11 0 -23 1q2 -14 2 -28zM230 -75q0 32 21 53.5t53 21.5t52.5 -21.5t20.5 -53.5
t-20.5 -53.5t-52.5 -21.5t-53 21.5t-21 53.5zM1197 860q-27 -112 -89.5 -158t-150.5 -46q-80 0 -143.5 48t-102.5 154l103 38q25 -71 59.5 -105t86.5 -34q55 0 83 36.5t44 102.5z" />
    <glyph glyph-name="oshortnuktadeva" horiz-adv-x="1140" 
d="M521 211q0 -71 -46.5 -111t-134.5 -40q-64 0 -118 24.5t-104 87t-98 176.5l115 44q41 -107 88 -163t107 -56q58 0 58 57q0 47 -32 83q-34 -8 -75 -9l-6 106q59 3 80 19t21 45q0 28 -20 38t-45 10q-31 0 -59.5 -9t-55.5 -23l-37 100q29 15 74.5 28.5t99.5 13.5
q85 0 130.5 -44t45.5 -111q0 -73 -54 -118q4 -5 8 -9q13 -2 28 -3t34 -1q30 0 56 3.5t50 12.5v150h-64v110h587v-110h-94v-512h-134v512h-161v-512h-134v251q-21 -8 -43.5 -10.5t-45.5 -2.5q-11 0 -23 1q2 -14 2 -28zM933 615q-18 65 -41 85t-54 20q-14 0 -25 -1.5t-26 -1.5
q-47 0 -84.5 29.5t-68.5 111.5l104 38q16 -38 32 -55.5t50 -17.5q20 0 34.5 1.5t31.5 1.5q38 0 66.5 -16t52 -61t47.5 -134h-119zM230 -75q0 32 21 53.5t53 21.5t52.5 -21.5t20.5 -53.5t-20.5 -53.5t-52.5 -21.5t-53 21.5t-21 53.5z" />
    <glyph glyph-name="onuktadeva" horiz-adv-x="1140" 
d="M521 211q0 -71 -46.5 -111t-134.5 -40q-64 0 -118 24.5t-104 87t-98 176.5l115 44q41 -107 88 -163t107 -56q58 0 58 57q0 47 -32 83q-34 -8 -75 -9l-6 106q59 3 80 19t21 45q0 28 -20 38t-45 10q-31 0 -59.5 -9t-55.5 -23l-37 100q29 15 74.5 28.5t99.5 13.5
q85 0 130.5 -44t45.5 -111q0 -73 -54 -118q4 -5 8 -9q13 -2 28 -3t34 -1q30 0 56 3.5t50 12.5v150h-64v110h587v-110h-94v-512h-134v512h-161v-512h-134v251q-21 -8 -43.5 -10.5t-45.5 -2.5q-11 0 -23 1q2 -14 2 -28zM933 615q-17 59 -33.5 96.5t-38 55t-55.5 17.5
q-20 0 -37 -4t-31 -9l-36 105q24 10 49.5 15t55.5 5q40 0 74 -10.5t63.5 -39.5t56 -84.5t51.5 -146.5h-119zM230 -75q0 32 21 53.5t53 21.5t52.5 -21.5t20.5 -53.5t-20.5 -53.5t-52.5 -21.5t-53 21.5t-21 53.5z" />
    <glyph glyph-name="aunuktadeva" horiz-adv-x="1140" 
d="M521 211q0 -71 -46.5 -111t-134.5 -40q-64 0 -118 24.5t-104 87t-98 176.5l115 44q41 -107 88 -163t107 -56q58 0 58 57q0 47 -32 83q-34 -8 -75 -9l-6 106q59 3 80 19t21 45q0 28 -20 38t-45 10q-31 0 -59.5 -9t-55.5 -23l-37 100q29 15 74.5 28.5t99.5 13.5
q85 0 130.5 -44t45.5 -111q0 -73 -54 -118q4 -5 8 -9q13 -2 28 -3t34 -1q30 0 56 3.5t50 12.5v150h-64v110h587v-110h-94v-512h-134v512h-161v-512h-134v251q-21 -8 -43.5 -10.5t-45.5 -2.5q-11 0 -23 1q2 -14 2 -28zM926 615q-28 31 -48.5 44.5t-38 17.5t-38.5 4
q-23 0 -43 -6.5t-40 -16.5l-34 87q27 11 53.5 17.5t49.5 6.5q39 0 69.5 -14.5t62.5 -49.5l5 1q-29 62 -57.5 82.5t-67.5 20.5q-35 0 -66 -14l-30 86q17 5 42.5 10t52.5 5q40 0 74 -8t64.5 -35t59 -84t55.5 -154h-125zM230 -75q0 32 21 53.5t53 21.5t52.5 -21.5t20.5 -53.5
t-20.5 -53.5t-52.5 -21.5t-53 21.5t-21 53.5z" />
    <glyph glyph-name="rrvocalicnuktadeva" horiz-adv-x="918" 
d="M130 42l-68 94l242 135q-31 32 -54.5 45t-53.5 13q-28 0 -56.5 -8.5t-70.5 -28.5l-43 107q43 20 83.5 32t84.5 12q39 0 69 -10t59 -34.5t65 -67.5v181h-387v110h932v-110h-411v-183q26 2 54 5.5t51 8.5q-3 11 -3 22q0 38 26 57t60 19q49 0 71.5 -26.5t22.5 -60.5
q0 -26 -11.5 -44t-27.5 -27q15 -25 31.5 -46.5l36.5 -49.5l-24 -37q-50 -2 -69 -16t-19 -33t14 -29.5t47 -10.5q25 0 49 7t59 24l36 -90q-26 -13 -62.5 -23.5t-87.5 -10.5h-5q-7 -10 -7 -23q0 -19 14 -29t47 -10q26 0 50 7t58 24l36 -90q-26 -13 -62.5 -24t-87.5 -11
q-50 0 -89 17t-61.5 46.5t-22.5 68.5q0 31 12 56q-26 18 -40.5 43t-14.5 56q0 38 21 69.5t62 51.5q-10 17 -16 30q-29 -9 -68.5 -15.5t-79.5 -9.5v-225h-134v197zM134 -69q0 32 21 53.5t53 21.5t52.5 -21.5t20.5 -53.5t-20.5 -53.5t-52.5 -21.5t-53 21.5t-21 53.5z" />
    <glyph glyph-name="llvocalicnuktadeva" horiz-adv-x="757" 
d="M208 426q50 0 88 -12t75 -39q44 36 105 47v90h-476v110h771v-110h-162v-99q49 -18 78 -59.5t29 -103.5q0 -44 -8.5 -73t-26.5 -65q-62 -2 -82 -16.5t-20 -33.5q0 -20 14.5 -30t46.5 -10q26 0 50 7t59 24l35 -90q-26 -13 -62.5 -23.5t-87.5 -10.5h-4q-8 -10 -8 -23
q0 -19 14 -29t47 -10q25 0 49.5 7t59.5 24l35 -90q-26 -13 -62.5 -24t-87.5 -11q-50 0 -89 16.5t-61.5 46.5t-22.5 69q0 31 12 56q-26 17 -40.5 42.5t-14.5 56.5q0 48 29 82.5t83 50.5q9 25 9 49q0 38 -16.5 55t-43.5 17q-16 0 -37 -10t-41.5 -37t-34.5 -80l-125 38
q9 33 21 61q-15 12 -31.5 19.5t-37.5 7.5q-31 0 -48 -16.5t-17 -41.5q0 -27 15 -52t48.5 -56t91.5 -75l-87 -89q-70 56 -114.5 102.5t-66 89.5t-21.5 90q0 60 26.5 95.5t66 50.5t78.5 15zM182 -134q0 32 21 53.5t53 21.5t52.5 -21.5t20.5 -53.5t-20.5 -53.5t-52.5 -21.5
t-53 21.5t-21 53.5z" />
    <glyph glyph-name="acandranuktadeva" horiz-adv-x="845" 
d="M521 211q0 -71 -46.5 -111t-134.5 -40q-64 0 -118 24.5t-104 87t-98 176.5l115 44q41 -107 88 -163t107 -56q58 0 58 57q0 47 -32 83q-34 -8 -75 -9l-6 106q59 3 80 19t21 45q0 28 -20 38t-45 10q-31 0 -59.5 -9t-55.5 -23l-37 100q29 15 74.5 28.5t99.5 13.5
q85 0 130.5 -44t45.5 -111q0 -73 -54 -118q4 -5 8 -9q13 -2 28 -3t34 -1q30 0 56 3.5t50 12.5v150h-64v110h292v-110h-94v-512h-134v251q-21 -8 -43.5 -10.5t-45.5 -2.5q-11 0 -23 1q2 -14 2 -28zM903 860q-27 -112 -89.5 -158t-150.5 -46q-80 0 -143.5 48t-102.5 154
l103 38q25 -71 59.5 -105t86.5 -34q55 0 83 36.5t44 102.5zM230 -75q0 32 21 53.5t53 21.5t52.5 -21.5t20.5 -53.5t-20.5 -53.5t-52.5 -21.5t-53 21.5t-21 53.5z" />
    <glyph glyph-name="ghanuktadeva" horiz-adv-x="645" 
d="M659 512h-94v-512h-134v142q-34 -20 -70.5 -31t-84.5 -11q-94 0 -147 43.5t-53 115.5q0 22 6 43.5t19 40.5q-32 20 -50.5 49.5t-18.5 64.5q0 33 9 55h-41v110h659v-110zM210 262q0 -27 22 -39.5t54 -12.5q51 0 86 23t59 49v230h-252q-12 -16 -12 -36q0 -23 11.5 -38
t30.5 -21q30 7 66 7q13 0 28 -2l22 -3l-7 -107q-4 1 -11 1h-15q-82 0 -82 -51zM93 -16q0 32 21 53.5t53 21.5t52.5 -21.5t20.5 -53.5t-20.5 -53.5t-52.5 -21.5t-53 21.5t-21 53.5z" />
    <glyph glyph-name="nganuktadeva" horiz-adv-x="695" 
d="M374 200q-26 0 -55.5 -5.5t-57.5 -17.5q-29 13 -57 37t-45.5 55t-17.5 64q0 31 10.5 52.5t27.5 35.5q24 19 56.5 27t95.5 8h44v56h-375v110h709v-110h-200v-155h-188q-17 0 -24.5 -1.5t-12.5 -4.5q-12 -7 -12 -22q0 -11 5.5 -20t13.5 -17q21 6 46 9t57 3
q90 0 138.5 -40.5t48.5 -109.5q0 -65 -53.5 -109.5t-166.5 -44.5q-79 0 -143.5 21.5t-115 57t-88.5 76.5l98 77q53 -55 110.5 -87.5t134.5 -32.5q48 0 68.5 14t20.5 34q0 18 -16 29t-56 11zM541 340q0 29 19.5 49t48.5 20t48.5 -20t19.5 -49q0 -30 -19.5 -49.5t-48.5 -19.5
t-48.5 19.5t-19.5 49.5zM265 -134q0 32 21 53.5t53 21.5t52.5 -21.5t20.5 -53.5t-20.5 -53.5t-52.5 -21.5t-53 21.5t-21 53.5z" />
    <glyph glyph-name="canuktadeva" horiz-adv-x="690" 
d="M705 512h-95v-512h-134v127q-33 -18 -66.5 -27t-76.5 -9q-91 0 -144.5 41.5t-53.5 108.5q0 59 36 92l-134 -3v111h309q19 0 36.5 -0.5t21.5 -1.5l-10 -108h-22q-57 0 -79.5 -18.5t-22.5 -50.5q0 -27 18.5 -44t52.5 -17q46 0 77 17t58 48v246h-476v110h705v-110zM157 -30
q0 32 21 53.5t53 21.5t52.5 -21.5t20.5 -53.5t-20.5 -53.5t-52.5 -21.5t-53 21.5t-21 53.5z" />
    <glyph glyph-name="chanuktadeva" horiz-adv-x="760" 
d="M335 111q74 0 131.5 23.5t90 64.5t32.5 93q0 33 -14 58t-49 25q-20 0 -30.5 -10t-10.5 -24q0 -22 18 -38t60 -28l-50 -89q-78 25 -115 64t-37 90q0 48 27.5 80.5t81.5 43.5v48h-470v110h774v-110h-170v-55q55 -17 87 -60t32 -113q0 -51 -24 -101.5t-73 -92t-122.5 -66
t-172.5 -24.5q-123 0 -181 42.5t-58 109.5q0 18 5.5 36.5t16.5 35.5q-38 21 -59 51.5t-21 69.5q0 60 47 94.5t133 34.5q20 0 48.5 -2t46.5 -7l-10 -104q-14 5 -32 7.5t-39 2.5q-60 0 -60 -36q0 -14 13 -24.5t35 -15.5q28 7 62 7q13 0 26.5 -1t21.5 -3l-11 -101
q-5 1 -12.5 1.5t-17.5 0.5q-34 0 -49 -9.5t-15 -29.5q0 -49 114 -49zM297 -134q0 32 21 53.5t53 21.5t52.5 -21.5t20.5 -53.5t-20.5 -53.5t-52.5 -21.5t-53 21.5t-21 53.5z" />
    <glyph glyph-name="jhanuktadeva" horiz-adv-x="809" 
d="M274 200q-26 0 -55.5 -5.5t-57.5 -17.5q-29 13 -57 37t-45.5 55t-17.5 64q0 31 10.5 52.5t27.5 35.5q24 19 56.5 27t95.5 8h64v56h-295v110h823v-110h-94v-512h-134v188q-42 -14 -108 -14h-7q1 -10 1 -22q0 -60 -39.5 -95.5t-113.5 -45.5q28 -11 59.5 -22l62.5 -21
l-45 -95q-66 30 -127 63t-108 65q-59 3 -93.5 20t-34.5 63q0 33 20 49t42 16q49 0 98 -44q14 -2 28 -2q116 0 116 54q0 20 -16 31.5t-56 11.5zM474 282q42 0 70.5 5.5t50.5 13.5v211h-166v-155h-208q-17 0 -24.5 -1.5t-12.5 -4.5q-12 -7 -12 -22q0 -11 5.5 -20t13.5 -17
q41 12 103 12q56 0 98 -17q20 -2 43 -3.5t39 -1.5zM138 -163q0 32 21 53.5t53 21.5t52.5 -21.5t20.5 -53.5t-20.5 -53.5t-52.5 -21.5t-53 21.5t-21 53.5z" />
    <glyph glyph-name="nyanuktadeva" horiz-adv-x="829" 
d="M211 420q36 16 68.5 22.5t63.5 6.5q73 0 124.5 -32.5t67.5 -91.5q9 -1 20 -1q32 0 60 9v179h-615v110h843v-110h-94v-512h-134v232q-31 -6 -68 -6h-10q-11 -54 -45 -83.5t-78 -41.5t-84 -12q-92 0 -171.5 52t-138.5 178l113 48q76 -165 188 -165q47 0 69 19t22 50
q0 34 -21.5 49.5t-54.5 15.5q-24 0 -43 -5t-42 -15zM216 -44q0 32 21 53.5t53 21.5t52.5 -21.5t20.5 -53.5t-20.5 -53.5t-52.5 -21.5t-53 21.5t-21 53.5z" />
    <glyph glyph-name="ttanuktadeva" horiz-adv-x="541" 
d="M555 512h-141v-185h-68q-53 0 -81.5 -6.5t-47.5 -17.5q-47 -27 -47 -82q0 -57 39.5 -82t98.5 -25q50 0 91 12t82 35l42 -112q-47 -22 -97 -35.5t-121 -13.5q-79 0 -139.5 26.5t-95 77.5t-34.5 123q0 65 32 110.5t87.5 70t124.5 27.5v77h-280v110h555v-110zM220 -134
q0 32 21 53.5t53 21.5t52.5 -21.5t20.5 -53.5t-20.5 -53.5t-52.5 -21.5t-53 21.5t-21 53.5z" />
    <glyph glyph-name="tthanuktadeva" horiz-adv-x="618" 
d="M632 512h-218v-87q82 -31 125 -92t43 -132q0 -72 -37 -116.5t-97.5 -64.5t-132.5 -20q-83 0 -145.5 25t-98 75t-35.5 126q0 65 31.5 110.5t86.5 70t126 28.5v77h-280v110h632v-110zM310 112q61 0 99.5 23t38.5 75q0 38 -24 68t-73 49h-5q-53 0 -81.5 -6.5t-47.5 -17.5
q-47 -27 -47 -83t39.5 -82t100.5 -26zM237 -134q0 32 21 53.5t53 21.5t52.5 -21.5t20.5 -53.5t-20.5 -53.5t-52.5 -21.5t-53 21.5t-21 53.5z" />
    <glyph glyph-name="nnanuktadeva" horiz-adv-x="798" 
d="M718 512v-512h-134v512h-111v-197q0 -55 -10.5 -86.5t-31.5 -55.5q-25 -27 -65 -41.5t-95 -14.5q-111 0 -162 63q-19 26 -30 62.5t-11 103.5v166h-68v110h812v-110h-94zM270 227q39 0 55 24q8 13 11 29t3 53v179h-137v-179q0 -35 3 -50.5t10 -28.5q17 -27 55 -27z
M200 -34q0 32 21 53.5t53 21.5t52.5 -21.5t20.5 -53.5t-20.5 -53.5t-52.5 -21.5t-53 21.5t-21 53.5z" />
    <glyph glyph-name="tanuktadeva" horiz-adv-x="624" 
d="M544 512v-512h-134v299h-91q-55 0 -82 -5.5t-43 -18.5q-22 -18 -22 -51q0 -34 31 -70.5t91 -81.5l-87 -89q-47 39 -85 80.5t-61 87t-23 95.5q0 36 13.5 65t35.5 48q30 26 72.5 38t120.5 12h130v103h-410v110h638v-110h-94zM138 -149q0 32 21 53.5t53 21.5t52.5 -21.5
t20.5 -53.5t-20.5 -53.5t-52.5 -21.5t-53 21.5t-21 53.5z" />
    <glyph glyph-name="thanuktadeva" horiz-adv-x="718" 
d="M638 512v-512h-134v146q-34 -22 -78 -31t-88 -9q-96 0 -157 55t-88 161q93 20 129.5 55t36.5 85q0 34 -17 56.5t-52 22.5q-20 0 -31 -10t-11 -25q0 -18 13 -28.5t51 -16.5l-28 -87q-68 9 -105 45.5t-37 92.5q0 42 21 68.5t56 39t78 12.5q85 0 140.5 -45t55.5 -132
q0 -58 -29.5 -109t-111.5 -84q36 -46 96 -46q49 0 86.5 18t69.5 54v224h-63v110h291v-110h-94zM147 -12q0 32 21 53.5t53 21.5t52.5 -21.5t20.5 -53.5t-20.5 -53.5t-52.5 -21.5t-53 21.5t-21 53.5z" />
    <glyph glyph-name="danuktadeva" horiz-adv-x="558" 
d="M427 -68q-20 33 -39 70l-32 64q-26 -3 -59 -3q-47 0 -93 10.5t-84 34t-60.5 63t-22.5 98.5q0 44 16.5 76.5t44.5 54.5q32 25 76.5 38.5t98.5 16.5v57h-273v110h572v-110h-165v-167h-51q-58 0 -90 -5t-54 -16q-42 -20 -42 -64q0 -38 31 -62.5t107 -24.5h7.5t10.5 1
q-2 11 -2 21q0 37 27 53t58 16q53 0 81 -28.5t28 -66.5q0 -35 -15.5 -53t-38.5 -29q29 -49 72 -107zM138 -68q0 32 21 53.5t53 21.5t52.5 -21.5t20.5 -53.5t-20.5 -53.5t-52.5 -21.5t-53 21.5t-21 53.5z" />
    <glyph glyph-name="dhanuktadeva" horiz-adv-x="687" 
d="M701 512h-94v-512h-134v126q-36 -20 -70.5 -30.5t-85.5 -10.5q-94 0 -146.5 43t-52.5 114q0 23 6.5 44.5t19.5 40.5q-44 23 -73 63t-29 96q0 43 21.5 76t59 51.5t85.5 18.5q70 0 109 -32t39 -79q0 -27 -10 -52t-33 -45l-76 48q14 12 14 30t-11 26t-27 8q-23 0 -39 -13.5
t-16 -39.5q0 -38 29 -59.5t64 -26.5q30 7 65 7q14 0 28 -1t22 -3l-6 -103q-5 1 -12.5 1.5t-14.5 0.5q-81 0 -81 -52q0 -27 22 -39t53 -12q50 0 86 22.5t60 50.5v243h-56v110h284v-110zM183 -54q0 32 21 53.5t53 21.5t52.5 -21.5t20.5 -53.5t-20.5 -53.5t-52.5 -21.5
t-53 21.5t-21 53.5z" />
    <glyph glyph-name="panuktadeva" horiz-adv-x="613" 
d="M533 512v-512h-134v160q-35 -19 -68 -26t-79 -7t-80 13.5t-55 36.5q-25 28 -37 64.5t-12 103.5v167h-68v110h627v-110h-94zM399 512h-197v-159q0 -47 5 -66t18 -33q17 -17 55 -17t69.5 18.5t49.5 36.5v220zM94 -11q0 32 21 53.5t53 21.5t52.5 -21.5t20.5 -53.5
t-20.5 -53.5t-52.5 -21.5t-53 21.5t-21 53.5z" />
    <glyph glyph-name="banuktadeva" horiz-adv-x="620" 
d="M634 512h-94v-512h-134v125q-35 -19 -72 -28t-92 -9q-56 0 -102.5 20t-74.5 60.5t-28 100.5q0 55 27.5 96t75.5 63.5t112 22.5q41 0 73.5 -2t49.5 -6l-10 -107q-37 8 -82 8h-13l93 -117q12 8 22.5 17t20.5 20v248h-406v110h634v-110zM167 269q0 -43 26 -59t66 -16
q19 0 37 4l-101 127q-28 -19 -28 -56zM89 -30q0 32 21 53.5t53 21.5t52.5 -21.5t20.5 -53.5t-20.5 -53.5t-52.5 -21.5t-53 21.5t-21 53.5z" />
    <glyph glyph-name="bhanuktadeva" horiz-adv-x="773" 
d="M194 632q96 0 147 -47q22 -20 35.5 -54t13.5 -97v-103h169v181h-100v110h329v-110h-95v-512h-134v221h-169v-16q0 -44 -18 -62t-52 -18q-21 0 -46 13.5t-47 35.5t-36.5 47.5t-14.5 48.5q0 25 14 43t56 18h10v101q0 36 -4.5 55t-12.5 31q-16 22 -49 22q-21 0 -31.5 -9.5
t-10.5 -24.5q0 -20 17.5 -31.5t59.5 -13.5l-8 -92q-77 6 -126 39.5t-49 102.5q0 42 21 68.5t55.5 39.5t75.5 13zM251 -12q0 32 21 53.5t53 21.5t52.5 -21.5t20.5 -53.5t-20.5 -53.5t-52.5 -21.5t-53 21.5t-21 53.5z" />
    <glyph glyph-name="manuktadeva" horiz-adv-x="646" 
d="M566 512v-512h-134v221h-186v-17q0 -44 -18 -61.5t-52 -17.5q-21 0 -46 13.5t-47.5 35.5t-37 47.5t-14.5 48.5q0 26 14.5 43.5t56.5 17.5h10v181h-112v110h661v-110h-95zM432 512h-186v-181h186v181zM119 -12q0 32 21 53.5t53 21.5t52.5 -21.5t20.5 -53.5t-20.5 -53.5
t-52.5 -21.5t-53 21.5t-21 53.5z" />
    <glyph glyph-name="lanuktadeva" horiz-adv-x="738" 
d="M0 512v110h752v-110h-94v-512h-134v317q-20 -1 -41.5 -12.5t-40.5 -39.5t-33 -78l-125 38q9 33 22 61q-16 12 -32.5 19.5t-37.5 7.5q-31 0 -48 -16.5t-17 -41.5q0 -27 15 -52t48.5 -56t91.5 -75l-87 -89q-70 56 -114.5 102.5t-66 89.5t-21.5 90q0 60 26.5 95.5t66 50.5
t78.5 15q50 0 88 -12.5t76 -38.5q61 50 150 50h2v87h-524zM295 -134q0 32 21 53.5t53 21.5t52.5 -21.5t20.5 -53.5t-20.5 -53.5t-52.5 -21.5t-53 21.5t-21 53.5z" />
    <glyph glyph-name="vanuktadeva" horiz-adv-x="605" 
d="M620 512h-95v-512h-134v125q-34 -19 -68 -28t-81 -9q-58 0 -104.5 20t-73.5 60.5t-27 100.5q0 83 58.5 132.5t156.5 49.5q32 0 62 -2.5t47 -6.5l-10 -111q-34 8 -76 8q-53 0 -78.5 -18.5t-25.5 -51.5q0 -40 24.5 -55t58.5 -15q44 0 77.5 17t59.5 45v251h-391v110h620
v-110zM79 -30q0 32 21 53.5t53 21.5t52.5 -21.5t20.5 -53.5t-20.5 -53.5t-52.5 -21.5t-53 21.5t-21 53.5z" />
    <glyph glyph-name="shanuktadeva" horiz-adv-x="750" 
d="M136 149q-40 0 -70 21t-30 64q0 35 22 56.5t62 21.5q21 0 45 -8t49 -26q41 19 66.5 57t25.5 94q0 53 -23 79t-58 26q-20 0 -32 -9.5t-12 -27.5q0 -19 19.5 -35t78.5 -23l-28 -90q-101 9 -148.5 51t-47.5 100q0 57 42.5 94.5t123.5 37.5q57 0 107 -22t80.5 -68t30.5 -117
t-33 -131t-92 -97q34 -31 66 -67t59 -70l-99 -68q-40 52 -75 92t-65 70q-31 -5 -64 -5zM670 512v-512h-134v512h-75v110h303v-110h-94zM146 -63q0 32 21 53.5t53 21.5t52.5 -21.5t20.5 -53.5t-20.5 -53.5t-52.5 -21.5t-53 21.5t-21 53.5z" />
    <glyph glyph-name="ssanuktadeva" horiz-adv-x="625" 
d="M640 622v-110h-95v-512h-134v163q-37 -19 -71.5 -27.5t-80.5 -8.5q-49 0 -83.5 13.5t-56.5 36.5q-27 28 -39 64.5t-12 103.5v167h-68v110h640zM411 512h-162l162 -211v211zM223 254q18 -17 59 -17q20 0 39 5t36 13l-159 207v-109q0 -47 6 -66t19 -33zM94 -11
q0 32 21 53.5t53 21.5t52.5 -21.5t20.5 -53.5t-20.5 -53.5t-52.5 -21.5t-53 21.5t-21 53.5z" />
    <glyph glyph-name="sanuktadeva" horiz-adv-x="748" 
d="M664 512v-512h-134v234q-27 -6 -55.5 -8.5t-58.5 -2.5q-63 0 -108.5 11t-74.5 24l-21 -11q37 -42 86 -88t102 -89l-85 -87q-82 75 -147.5 142t-100.5 113q-23 30 -29.5 51t-6.5 38q0 25 17.5 50t61.5 25q46 0 79 -30q11 19 15.5 41t4.5 45q0 27 -7 54h-202v110h758v-110
h-94zM404 333q36 0 65.5 3t60.5 12v164h-196q4 -14 6.5 -32.5t2.5 -42.5q0 -30 -6 -54t-17 -43q20 -3 40.5 -5t43.5 -2zM46 22q0 27 18 45t44 18q27 0 44.5 -18t17.5 -45t-17.5 -45.5t-44.5 -18.5q-26 0 -44 18.5t-18 45.5z" />
    <glyph glyph-name="hanuktadeva" horiz-adv-x="570" 
d="M336 72q27 7 44.5 18.5t17.5 31.5q0 24 -23 37t-76 13q-59 0 -89.5 -21.5t-30.5 -58.5q0 -25 11.5 -48.5t41.5 -52.5t87 -71l-87 -89q-57 47 -99 89t-65 85.5t-23 94.5q0 38 14.5 67.5t38.5 51.5q-18 21 -29.5 47.5t-11.5 61.5q0 32 11.5 54.5t30.5 36.5q25 20 59.5 28.5
t95.5 8.5h102v56h-356v110h584v-110h-94v-166h-232q-28 0 -39 -2.5t-18 -8.5q-13 -10 -13 -30q0 -17 14 -34q47 12 101 12q81 0 131 -22.5t73 -58.5t23 -76q0 -123 -158 -160zM38 -192q0 27 18 45t44 18q27 0 44.5 -18t17.5 -45t-17.5 -45.5t-44.5 -18.5q-26 0 -44 18.5
t-18 45.5z" />
    <glyph glyph-name="kassadeva" horiz-adv-x="793" 
d="M713 512v-512h-134v305q-34 -18 -76.5 -27t-100.5 -9q-73 0 -151 29q-39 -24 -59 -45.5t-20 -44.5q0 -28 22 -45t74 -17h11q-1 9 -1 17q0 29 20 47.5t60 18.5q50 0 78 -27t28 -60q0 -30 -11.5 -48.5t-33.5 -30.5q15 -18 32.5 -37t38.5 -39l-93 -56q-52 56 -85 108
q-13 -1 -25.5 -1.5t-18.5 -0.5q-80 0 -131 22.5t-75.5 60.5t-24.5 84q0 50 26 84t80 68q-74 57 -74 137q0 57 46 98t139 41q85 0 136 -35t51 -98q0 -29 -13.5 -59.5t-51.5 -63.5q14 -1 28 -1q59 0 101 15t74 37v85h-75v110h303v-110h-94zM197 480q0 -21 16 -39.5t39 -31.5
q33 19 47 37.5t14 36.5q0 19 -13 34t-44 15q-26 0 -42.5 -13.5t-16.5 -38.5z" />
    <glyph glyph-name="janyadeva" horiz-adv-x="712" 
d="M253 224q0 42 -44.5 73t-127.5 51l43 93h374v71h-498v110h727v-110h-95v-512h-134v332h-92q-31 0 -52.5 1t-34.5 2q67 -47 67 -122q0 -44 -24 -78t-67 -51q29 -12 60.5 -23.5l58.5 -20.5l-43 -91q-56 22 -112.5 53.5t-102.5 63.5q-56 2 -91.5 19.5t-35.5 63.5
q0 33 19.5 49t42.5 16q52 0 104 -49q27 6 42.5 21t15.5 38z" />
    <glyph glyph-name="rephdeva" 
d="M-231 615q-21 34 -33.5 69.5t-12.5 68.5q0 73 51 108t128 35q34 0 64 -4t53 -11l-25 -95q-19 6 -34.5 8t-29.5 2q-39 0 -56.5 -18.5t-17.5 -55.5q0 -25 12 -54t29 -53h-128z" />
    <glyph glyph-name="vattudeva" 
d="M-486 -151l243 133h72l151 -164l-91 -62l-106 122l-201 -122z" />
    <glyph glyph-name="kaprehalfdeva" horiz-adv-x="657" 
d="M671 512h-156v-174q20 9 46 14t63 5h55v-110h-64q-36 0 -57.5 -7t-42.5 -22v-218h-134v127q-33 -19 -66.5 -29t-77.5 -10q-55 0 -100.5 20t-72.5 60.5t-27 100.5q0 55 27 96t75 63.5t111 22.5q28 0 56.5 -2.5t44.5 -6.5l-10 -111q-32 8 -71 8q-47 0 -73 -18.5t-26 -51.5
q0 -40 25 -55t54 -15q42 0 74.5 19t56.5 44v250h-381v110h671v-110z" />
    <glyph glyph-name="khaprehalfdeva" horiz-adv-x="682" 
d="M727 61q-43 -24 -100.5 -41.5t-134.5 -17.5q-80 0 -146 23t-119 59t-92.5 75.5t-65.5 73.5q-23 31 -30.5 54t-7.5 40q0 25 17.5 50t61.5 25q46 0 79 -30q11 19 15.5 41t4.5 45q0 27 -7 54h-202v110h696v-110h-362q4 -14 6.5 -32.5t2.5 -42.5q0 -75 -37 -119.5t-92 -72.5
q32 -34 71.5 -64.5t90.5 -49t116 -18.5q76 0 123 16t84 35zM707 214q-33 -20 -69 -32t-88 -12q-76 0 -124 39t-48 111q0 71 49 113t134 42q17 0 44 -1.5t46 -6.5l-10 -97q-12 3 -27.5 5t-34.5 2q-74 0 -74 -54q0 -29 19 -41.5t47 -12.5q35 0 63 12.5t48 29.5z" />
    <glyph glyph-name="gaprehalfdeva" horiz-adv-x="308" 
d="M246 512v-286q0 -40 -17.5 -58t-49.5 -18q-23 0 -48.5 13.5t-48 35.5t-37 47.5t-14.5 49.5q0 26 13.5 46t57.5 20h10v150h-112v110h322v-110h-76z" />
    <glyph glyph-name="ghaprehalfdeva" horiz-adv-x="401" 
d="M210 262q0 -27 22 -39.5t54 -12.5q51 0 86 23t60 50l66 -94q-46 -41 -99.5 -65t-122.5 -24q-94 0 -147 43.5t-53 115.5q0 22 6 43.5t19 40.5q-32 20 -50.5 49.5t-18.5 64.5q0 33 9 55h-41v110h416v-110h-237q-12 -16 -12 -36q0 -23 11.5 -38t30.5 -21q30 7 66 7
q13 0 28 -2l22 -3l-7 -107q-4 1 -11 1h-15q-82 0 -82 -51z" />
    <glyph glyph-name="ngaprehalfdeva" horiz-adv-x="695" 
d="M374 200q-26 0 -55.5 -5.5t-57.5 -17.5q-29 13 -57 37t-45.5 55t-17.5 64q0 31 10.5 52.5t27.5 35.5q24 19 56.5 27t95.5 8h44v56h-375v110h709v-110h-200v-155h-188q-17 0 -24.5 -1.5t-12.5 -4.5q-12 -7 -12 -22q0 -11 5.5 -20t13.5 -17q21 6 46 9t57 3
q90 0 138.5 -40.5t48.5 -109.5q0 -65 -53.5 -109.5t-166.5 -44.5q-79 0 -143.5 21.5t-115 57t-88.5 76.5l98 77q53 -55 110.5 -87.5t134.5 -32.5q48 0 68.5 14t20.5 34q0 18 -16 29t-56 11zM541 340q0 29 19.5 49t48.5 20t48.5 -20t19.5 -49q0 -30 -19.5 -49.5t-48.5 -19.5
t-48.5 19.5t-19.5 49.5zM235 -36q16 4 35 6.5t36 2.5q70 0 121.5 -24t93 -64.5t80.5 -90.5l-91 -62q-36 48 -66 77.5t-62 43.5t-73 14q-16 0 -29 -2t-24 -4z" />
    <glyph glyph-name="caprehalfdeva" horiz-adv-x="436" 
d="M0 622h450v-110h-450v110zM543 175q-43 -40 -94 -62t-116 -22q-91 0 -144.5 41.5t-53.5 108.5q0 59 36 92l-134 -3v111h309q19 0 36.5 -0.5t21.5 -1.5l-10 -108h-22q-57 0 -79.5 -18.5t-22.5 -50.5q0 -27 18.5 -44t52.5 -17q46 0 77 17.5t59 48.5z" />
    <glyph glyph-name="chaprehalfdeva" horiz-adv-x="760" 
d="M0 512v110h774v-110h-774zM335 111q74 0 131.5 23.5t90 64.5t32.5 93q0 33 -14 58t-49 25q-20 0 -30.5 -10t-10.5 -24q0 -22 18 -38t60 -28l-50 -89q-78 25 -115 64t-37 90q0 58 40.5 93.5t119.5 35.5q89 0 145.5 -45.5t56.5 -139.5q0 -51 -24 -101.5t-73 -92t-122.5 -66
t-172.5 -24.5q-123 0 -181 42.5t-58 109.5q0 18 5.5 36.5t16.5 35.5q-38 21 -59 51.5t-21 69.5q0 60 47 94.5t133 34.5q20 0 48.5 -2t46.5 -7l-10 -104q-14 5 -32 7.5t-39 2.5q-60 0 -60 -36q0 -14 13 -24.5t35 -15.5q28 7 62 7q13 0 26.5 -1t21.5 -3l-11 -101
q-5 1 -12.5 1.5t-17.5 0.5q-34 0 -49 -9.5t-15 -29.5q0 -49 114 -49z" />
    <glyph glyph-name="japrehalfdeva" horiz-adv-x="602" 
d="M0 622h616v-110h-616v110zM602 331h-86q-40 0 -61 2q26 -27 40.5 -58.5t14.5 -66.5q0 -48 -23 -81t-61.5 -50t-86.5 -17q-61 0 -117.5 27.5t-107 97.5t-94.5 199l114 42q43 -124 89.5 -188.5t103.5 -64.5q23 0 36.5 12.5t13.5 36.5q0 36 -25.5 68t-70.5 58l43 93h278
v-110z" />
    <glyph glyph-name="jhaprehalfdeva" horiz-adv-x="510" 
d="M274 200q-26 0 -55.5 -5.5t-57.5 -17.5q-29 13 -57 37t-45.5 55t-17.5 64q0 31 10.5 52.5t27.5 35.5q24 19 56.5 27t95.5 8h64v56h-295v110h525v-110h-96v-155h-208q-17 0 -24.5 -1.5t-12.5 -4.5q-12 -7 -12 -22q0 -11 5.5 -20t13.5 -17q40 12 104 12q56 0 97 -17
q20 -2 43 -3.5t39 -1.5q44 0 73 5.5t49 14.5l19 -106q-29 -13 -58 -17.5t-70 -4.5h-8q2 -11 2 -24q0 -59 -39.5 -94t-113.5 -45q28 -11 59.5 -22l62.5 -21l-45 -95q-66 30 -127 63t-108 65q-59 3 -93.5 20t-34.5 63q0 33 20 49t42 16q49 0 98 -44q14 -2 28 -2q116 0 116 54
q0 20 -16 31.5t-56 11.5z" />
    <glyph glyph-name="nyaprehalfdeva" horiz-adv-x="597" 
d="M0 622h611v-110h-611v110zM211 420q36 16 68.5 22.5t63.5 6.5q73 0 124.5 -32.5t67.5 -91.5q9 -1 20 -1q35 0 60 9v-101q-30 -6 -68 -6h-10q-11 -54 -45 -83.5t-78 -41.5t-84 -12q-92 0 -171.5 52t-138.5 178l113 48q76 -165 188 -165q47 0 69 19t22 50q0 34 -21.5 49.5
t-54.5 15.5q-24 0 -43 -5t-42 -15z" />
    <glyph glyph-name="ttaprehalfdeva" horiz-adv-x="541" 
d="M555 512h-141v-185h-68q-53 0 -81.5 -6.5t-47.5 -17.5q-47 -27 -47 -82q0 -57 39.5 -82t98.5 -25q50 0 91 12t82 35l42 -112q-47 -22 -97 -35.5t-121 -13.5q-79 0 -139.5 26.5t-95 77.5t-34.5 123q0 65 32 110.5t87.5 70t124.5 27.5v77h-280v110h555v-110zM212 -36
q16 4 35 6.5t36 2.5q70 0 121.5 -24t93 -64.5t80.5 -90.5l-91 -62q-36 48 -66 77.5t-62 43.5t-73 14q-16 0 -29 -2t-24 -4z" />
    <glyph glyph-name="tthaprehalfdeva" horiz-adv-x="618" 
d="M632 512h-218v-87q82 -31 125 -92t43 -132q0 -72 -37 -116.5t-97.5 -64.5t-132.5 -20q-83 0 -145.5 25t-98 75t-35.5 126q0 65 31.5 110.5t86.5 70t126 28.5v77h-280v110h632v-110zM310 112q61 0 99.5 23t38.5 75q0 38 -24 68t-73 49h-5q-53 0 -81.5 -6.5t-47.5 -17.5
q-47 -27 -47 -83t39.5 -82t100.5 -26zM215 -36q16 4 35 6.5t36 2.5q70 0 121.5 -24t93 -64.5t80.5 -90.5l-91 -62q-36 48 -66 77.5t-62 43.5t-73 14q-16 0 -29 -2t-24 -4z" />
    <glyph glyph-name="ddaprehalfdeva" horiz-adv-x="618" 
d="M374 200q-26 0 -55.5 -5.5t-57.5 -17.5q-29 13 -57 37t-45.5 55t-17.5 64q0 31 10.5 52.5t27.5 35.5q24 19 56.5 27t95.5 8h64v56h-395v110h632v-110h-103v-155h-208q-17 0 -24.5 -1.5t-12.5 -4.5q-12 -7 -12 -22q0 -11 5.5 -20t13.5 -17q21 6 46 9t57 3
q90 0 138.5 -40.5t48.5 -109.5q0 -65 -53.5 -109.5t-166.5 -44.5q-79 0 -143.5 21.5t-115 57t-88.5 76.5l98 77q53 -55 110.5 -87.5t134.5 -32.5q48 0 68.5 14t20.5 34q0 18 -16 29t-56 11zM235 -36q16 4 35 6.5t36 2.5q70 0 121.5 -24t93 -64.5t80.5 -90.5l-91 -62
q-36 48 -66 77.5t-62 43.5t-73 14q-16 0 -29 -2t-24 -4z" />
    <glyph glyph-name="ddhaprehalfdeva" horiz-adv-x="602" 
d="M329 0q-87 0 -153 27.5t-102.5 80t-36.5 125.5q0 69 34 116t94.5 72.5t139.5 29.5v61h-305v110h616v-110h-177v-171h-81q-58 0 -91 -8.5t-51 -20.5q-22 -15 -34 -35.5t-12 -51.5q0 -38 19.5 -66t58.5 -42q-5 22 -5 45q0 58 41.5 97t130.5 39q56 0 92 -19t53 -50t17 -67
q0 -72 -65 -117t-183 -45zM357 147q0 -20 6 -41q48 3 70 16.5t22 38.5q0 20 -11.5 31t-31.5 11q-28 0 -41.5 -17t-13.5 -39zM224 -36q16 4 35 6.5t36 2.5q70 0 121.5 -24t93 -64.5t80.5 -90.5l-91 -62q-36 48 -66 77.5t-62 43.5t-73 14q-16 0 -29 -2t-24 -4z" />
    <glyph glyph-name="nnaprehalfdeva" horiz-adv-x="509" 
d="M271 117q-111 0 -162 63q-19 26 -30 62.5t-11 103.5v166h-68v110h523v-110h-50v-197q0 -55 -10.5 -86.5t-31.5 -55.5q-25 -27 -65 -41.5t-95 -14.5zM270 227q39 0 55 24q8 13 11 29t3 53v179h-137v-179q0 -35 3 -50.5t10 -28.5q17 -27 55 -27z" />
    <glyph glyph-name="taprehalfdeva" horiz-adv-x="364" 
d="M0 622h376v-110h-376v110zM38 246q0 36 13.5 65t35.5 48q30 26 72.5 38t120.5 12h110v-110h-71q-55 0 -82 -5.5t-43 -18.5q-22 -18 -22 -51q0 -34 31 -70.5t91 -81.5l-87 -89q-47 39 -85 80.5t-61 87t-23 95.5z" />
    <glyph glyph-name="thaprehalfdeva" horiz-adv-x="450" 
d="M184 374q-68 9 -105 45.5t-37 92.5q0 42 21 68.5t56 39t78 12.5q85 0 140.5 -45t55.5 -132q0 -59 -29.5 -109.5t-111.5 -83.5q34 -46 96 -46q48 0 85.5 18t70.5 53l69 -92q-31 -24 -64.5 -44.5t-74.5 -32.5t-96 -12q-96 0 -157 55t-88 161q93 20 129.5 55t36.5 85
q0 34 -17 56.5t-52 22.5q-20 0 -31 -10t-11 -25q0 -18 13 -28.5t51 -16.5z" />
    <glyph glyph-name="daprehalfdeva" horiz-adv-x="558" 
d="M427 -68q-20 33 -39 70l-32 64q-26 -3 -59 -3q-47 0 -93 10.5t-84 34t-60.5 63t-22.5 98.5q0 44 16.5 76.5t44.5 54.5q32 25 76.5 38.5t98.5 16.5v57h-273v110h572v-110h-165v-167h-51q-58 0 -90 -5t-54 -16q-42 -20 -42 -64q0 -38 31 -62.5t107 -24.5h7.5t10.5 1
q-2 11 -2 21q0 37 27 53t58 16q53 0 81 -28.5t28 -66.5q0 -35 -15.5 -53t-38.5 -29q29 -49 72 -107zM298 -36q16 4 35 6.5t36 2.5q70 0 121.5 -24t93 -64.5t80.5 -90.5l-91 -62q-36 48 -66 77.5t-62 43.5t-73 14q-16 0 -29 -2t-24 -4z" />
    <glyph glyph-name="dhaprehalfdeva" horiz-adv-x="411" 
d="M540 175q-47 -41 -100.5 -65.5t-122.5 -24.5q-94 0 -146.5 43t-52.5 114q0 23 6.5 44.5t19.5 40.5q-44 23 -73 63t-29 96q0 43 21.5 76t59 51.5t85.5 18.5q70 0 109 -32t39 -79q0 -27 -10 -52t-33 -45l-76 48q14 12 14 30t-11 26t-27 8q-23 0 -39 -13.5t-16 -39.5
q0 -38 29 -59.5t64 -26.5q30 7 65 7q14 0 28 -1t22 -3l-6 -103q-5 1 -12.5 1.5t-14.5 0.5q-81 0 -81 -52q0 -27 22 -39t53 -12q50 0 85.5 22t59.5 51z" />
    <glyph glyph-name="naprehalfdeva" horiz-adv-x="388" 
d="M0 622h402v-110h-402v110zM246 265v-26q0 -40 -17 -57.5t-49 -17.5q-23 0 -49 13.5t-48.5 35.5t-37 47.5t-14.5 48.5q0 25 13.5 45.5t57.5 20.5h302v-110h-158z" />
    <glyph glyph-name="paprehalfdeva" horiz-adv-x="344" 
d="M202 512v-159q0 -47 5 -66t18 -33q17 -17 55 -17t69.5 18.5t49.5 36.5l69 -92q-28 -18 -58 -35t-68 -27.5t-90 -10.5q-46 0 -80 13.5t-55 36.5q-25 28 -37 64.5t-12 103.5v167h-68v110h358v-110h-156z" />
    <glyph glyph-name="phaprehalfdeva" horiz-adv-x="655" 
d="M669 512h-155v-172q20 8 45.5 12.5t62.5 4.5h56v-110h-65q-36 0 -57.5 -6.5t-41.5 -19.5v-221h-134v156q-28 -16 -59 -22.5t-69 -6.5q-46 0 -80 13.5t-55 36.5q-25 28 -37 64.5t-12 103.5v167h-68v110h669v-110zM202 512v-159q0 -47 5 -66t18 -33q17 -17 55 -17
q32 0 56 12t44 29v234h-178z" />
    <glyph glyph-name="baprehalfdeva" horiz-adv-x="406" 
d="M0 622h420v-110h-420v110zM456 159q-40 -32 -89.5 -51.5t-124.5 -19.5q-56 0 -102.5 20t-74.5 60.5t-28 100.5q0 55 27.5 96t75.5 63.5t112 22.5q41 0 73.5 -2t49.5 -6l-10 -107q-37 8 -82 8h-13l93 -117q12 8 22.5 17t20.5 19zM167 269q0 -43 26 -59t66 -16q19 0 37 4
l-101 127q-28 -19 -28 -56z" />
    <glyph glyph-name="bhaprehalfdeva" horiz-adv-x="534" 
d="M390 221v-16q0 -44 -18 -62t-52 -18q-21 0 -46 13.5t-47 35.5t-36.5 47.5t-14.5 48.5q0 25 14 43t56 18h10v101q0 36 -4.5 55t-12.5 31q-16 22 -49 22q-21 0 -31.5 -9.5t-10.5 -24.5q0 -20 17.5 -31.5t59.5 -13.5l-8 -92q-77 6 -126 39.5t-49 102.5q0 42 21 68.5
t55.5 39.5t75.5 13q96 0 147 -47q22 -20 35.5 -54t13.5 -97v-103h169v-110h-169zM459 622h89v-110h-89v110z" />
    <glyph glyph-name="maprehalfdeva" horiz-adv-x="407" 
d="M246 331h186v-110h-186v-17q0 -44 -18 -61.5t-52 -17.5q-21 0 -46 13.5t-47.5 35.5t-37 47.5t-14.5 48.5q0 26 14.5 43.5t56.5 17.5h10v181h-112v110h421v-110h-175v-181z" />
    <glyph glyph-name="yaprehalfdeva" horiz-adv-x="368" 
d="M489 195q-52 -42 -101.5 -65.5t-120.5 -23.5q-68 0 -117 31t-79 85.5t-42 123.5q57 11 85 34.5t28 64.5q0 19 -6 35.5t-15 31.5h-121v110h382v-110h-132q13 -22 19.5 -43.5t6.5 -49.5q0 -93 -103 -131q16 -34 41.5 -53t64.5 -19q85 0 142 71z" />
    <glyph glyph-name="raprehalfdeva" horiz-adv-x="414" 
d="M0 512v110h428v-110h-428zM450 240q-43 -19 -82 -26t-80 -7q-62 0 -126.5 15t-141.5 56l45 104q55 -29 104 -45.5t101 -16.5q54 0 90 8t74 27z" />
    <glyph glyph-name="laprehalfdeva" horiz-adv-x="544" 
d="M0 622h558v-110h-558v110zM554 313q-10 4 -25 4q-20 0 -42.5 -10.5t-42.5 -38.5t-35 -81l-125 38q9 33 22 61q-16 12 -32.5 19.5t-37.5 7.5q-31 0 -48 -16.5t-17 -41.5q0 -27 15 -52t48.5 -56t91.5 -75l-87 -89q-70 56 -114.5 102.5t-66 89.5t-21.5 90q0 60 26.5 95.5
t66 50.5t78.5 15q50 0 88 -12.5t76 -38.5q61 50 150 50q35 0 62 -8z" />
    <glyph glyph-name="llaprehalfdeva" horiz-adv-x="778" 
d="M0 622h792v-110h-792v110zM768 239q0 -100 -52 -152.5t-139 -52.5q-51 0 -93.5 17t-81.5 49q-34 -42 -76.5 -54t-91.5 -12q-56 0 -100.5 24t-70.5 71t-26 115q0 99 52 152t139 53q50 0 93 -17t81 -49q36 45 80 55t88 10q56 0 101 -23.5t71 -70t26 -115.5zM462 222
l-12 -33q24 -21 48 -32.5t51 -11.5q30 0 57.5 23.5t27.5 78.5q0 50 -21 70.5t-46 20.5q-35 0 -57.5 -24.5t-47.5 -91.5zM171 236q0 -51 21 -71t44 -20q24 0 41.5 9.5t33 35t32.5 73.5l11 32q-23 21 -47.5 32t-51.5 11q-30 0 -57 -23t-27 -79z" />
    <glyph glyph-name="vaprehalfdeva" horiz-adv-x="391" 
d="M0 622h405v-110h-405v110zM441 159q-40 -32 -90.5 -51.5t-108.5 -19.5t-104.5 20t-73.5 60.5t-27 100.5q0 83 58.5 132.5t156.5 49.5q32 0 62 -2.5t47 -6.5l-10 -111q-34 8 -76 8q-53 0 -78.5 -18.5t-25.5 -51.5q0 -40 24.5 -55t58.5 -15q44 0 77.5 17t59.5 45z" />
    <glyph glyph-name="shaprehalfdeva" horiz-adv-x="454" 
d="M136 149q-40 0 -70 21t-30 64q0 35 22 56.5t62 21.5q21 0 45 -8t49 -26q41 19 66.5 57t25.5 94q0 53 -23 79t-58 26q-20 0 -32 -9.5t-12 -27.5q0 -19 19.5 -35t78.5 -23l-28 -90q-101 9 -148.5 51t-47.5 100q0 57 42.5 94.5t123.5 37.5q57 0 107 -22t80.5 -68t30.5 -117
t-33 -131t-92 -97q34 -31 66 -67t59 -70l-99 -68q-40 52 -75 92t-65 70q-31 -5 -64 -5z" />
    <glyph glyph-name="ssaprehalfdeva" horiz-adv-x="400" 
d="M412 300l44 -112q-43 -27 -90 -44t-107 -17q-49 0 -83.5 13.5t-56.5 36.5q-27 28 -39 64.5t-12 103.5v167h-68v110h415v-110h-166zM282 237q20 0 39 5t36 13l-159 207v-109q0 -47 6 -66t19 -33q18 -17 59 -17z" />
    <glyph glyph-name="saprehalfdeva" horiz-adv-x="499" 
d="M404 333q32 0 58 2.5t55 9.5l10 -113q-29 -5 -57 -7t-54 -2q-63 0 -108.5 11t-74.5 24l-21 -11q37 -42 86 -88t102 -89l-85 -87q-82 75 -147.5 142t-100.5 113q-23 30 -29.5 51t-6.5 38q0 25 17.5 50t61.5 25q46 0 79 -30q11 19 15.5 41t4.5 45q0 27 -7 54h-202v110h513
v-110h-179q4 -14 6.5 -32.5t2.5 -42.5q0 -30 -6 -54t-17 -43q20 -3 40.5 -5t43.5 -2z" />
    <glyph glyph-name="haprehalfdeva" horiz-adv-x="496" 
d="M532 170h-217q-45 0 -69 -5t-38 -16q-29 -20 -29 -59q0 -24 11.5 -47t41.5 -52t87 -71l-87 -89q-57 47 -99 89t-65 86t-23 94q0 40 14.5 69t38.5 50q-18 21 -29.5 47.5t-11.5 61.5q0 32 11.5 54.5t30.5 36.5q25 20 59.5 28.5t95.5 8.5h37v56h-291v110h510v-110h-86v-166
h-168q-27 0 -37.5 -2.5t-17.5 -8.5q-13 -10 -13 -30q0 -18 15 -35q25 5 60 7.5t84 2.5h185v-110z" />
    <glyph glyph-name="zhaprehalfdeva" horiz-adv-x="602" 
d="M0 622h616v-110h-616v110zM339 92q-61 0 -117.5 25.5t-107 91t-94.5 185.5l114 42q43 -114 89.5 -172.5t103.5 -58.5q23 0 36.5 11t13.5 32q0 32 -25.5 59t-70.5 50l43 94h278v-110h-86h-32t-25 1q24 -25 37.5 -53t13.5 -59q0 -45 -23 -75.5t-61.5 -46.5t-86.5 -16z
M241 -37q-25 0 -42 18.5t-17 43.5q0 26 17 44.5t42 18.5t42.5 -18.5t17.5 -44.5q0 -25 -17.5 -43.5t-42.5 -18.5zM427 -37q-25 0 -42.5 18.5t-17.5 43.5q0 26 17.5 44.5t42.5 18.5q24 0 41.5 -18.5t17.5 -44.5q0 -25 -17.5 -43.5t-41.5 -18.5zM334 -142q-25 0 -42.5 18.5
t-17.5 44.5t17.5 44t42.5 18t42.5 -18t17.5 -44t-17.5 -44.5t-42.5 -18.5z" />
    <glyph glyph-name="heavyyaprehalfdeva" horiz-adv-x="368" 
d="M273 106q-71 0 -121 31t-80.5 85.5t-42.5 123.5q57 11 85 34.5t28 64.5q0 19 -6 36t-16 31h-120v110h382v-110h-136l189 -244l14 -108q-78 -54 -176 -54zM304 319l-21 27.5l-20 27.5q-18 -58 -90 -86q16 -34 42.5 -53t69.5 -19q49 0 84 19z" />
    <glyph glyph-name="kassaprehalfdeva" horiz-adv-x="526" 
d="M559 295q-31 -13 -69 -19.5t-88 -6.5q-73 0 -151 29q-39 -24 -59 -45.5t-20 -44.5q0 -28 22 -45t74 -17h11q-1 9 -1 17q0 29 20 47.5t60 18.5q50 0 78 -27t28 -60q0 -30 -11.5 -48.5t-33.5 -30.5q15 -18 32.5 -37t38.5 -39l-93 -56q-52 56 -85 108q-13 -1 -25.5 -1.5
t-18.5 -0.5q-80 0 -131 22.5t-75.5 60.5t-24.5 84q0 50 26 84t80 68q-74 57 -74 137q0 57 46 98t139 41q85 0 136 -35t51 -98q0 -29 -13.5 -59.5t-51.5 -63.5q14 -1 28 -1q37 0 66.5 6.5t55.5 16.5zM197 480q0 -21 16 -39.5t39 -31.5q33 19 47 37.5t14 36.5q0 19 -13 34
t-44 15q-26 0 -42.5 -13.5t-16.5 -38.5z" />
    <glyph glyph-name="janyaprehalfdeva" horiz-adv-x="482" 
d="M0 622h496v-110h-496v110zM253 224q0 42 -44.5 73t-127.5 51l43 93h374v-109h-92q-31 0 -52.5 1t-34.5 2q67 -47 67 -122q0 -44 -24 -78t-67 -51q29 -12 60.5 -23.5l58.5 -20.5l-43 -91q-56 22 -112.5 53.5t-102.5 63.5q-56 2 -91.5 19.5t-35.5 63.5q0 33 19.5 49
t42.5 16q52 0 104 -49q27 6 42.5 21t15.5 38z" />
    <glyph glyph-name="kanuktaprehalfdeva" horiz-adv-x="657" 
d="M671 512h-156v-174q20 9 46 14t63 5h55v-110h-64q-36 0 -57.5 -7t-42.5 -22v-218h-134v127q-33 -19 -66.5 -29t-77.5 -10q-55 0 -100.5 20t-72.5 60.5t-27 100.5q0 55 27 96t75 63.5t111 22.5q28 0 56.5 -2.5t44.5 -6.5l-10 -111q-32 8 -71 8q-47 0 -73 -18.5t-26 -51.5
q0 -40 25 -55t54 -15q42 0 74.5 19t56.5 44v250h-381v110h671v-110zM94 -30q0 32 21 53.5t53 21.5t52.5 -21.5t20.5 -53.5t-20.5 -53.5t-52.5 -21.5t-53 21.5t-21 53.5z" />
    <glyph glyph-name="khanuktaprehalfdeva" horiz-adv-x="682" 
d="M727 61q-43 -24 -100.5 -41.5t-134.5 -17.5q-80 0 -146 23t-119 59t-92.5 75.5t-65.5 73.5q-23 31 -30.5 54t-7.5 40q0 25 17.5 50t61.5 25q46 0 79 -30q11 19 15.5 41t4.5 45q0 27 -7 54h-202v110h696v-110h-362q4 -14 6.5 -32.5t2.5 -42.5q0 -75 -37 -119.5t-92 -72.5
q32 -34 71.5 -64.5t90.5 -49t116 -18.5q76 0 123 16t84 35zM707 214q-33 -20 -69 -32t-88 -12q-76 0 -124 39t-48 111q0 71 49 113t134 42q17 0 44 -1.5t46 -6.5l-10 -97q-12 3 -27.5 5t-34.5 2q-74 0 -74 -54q0 -29 19 -41.5t47 -12.5q35 0 63 12.5t48 29.5zM106 -46
q0 32 21 53.5t53 21.5t52.5 -21.5t20.5 -53.5t-20.5 -53.5t-52.5 -21.5t-53 21.5t-21 53.5z" />
    <glyph glyph-name="ganuktaprehalfdeva" horiz-adv-x="308" 
d="M246 512v-286q0 -40 -17.5 -58t-49.5 -18q-23 0 -48.5 13.5t-48 35.5t-37 47.5t-14.5 49.5q0 26 13.5 46t57.5 20h10v150h-112v110h322v-110h-76zM83 -3q0 32 21 53.5t53 21.5t52.5 -21.5t20.5 -53.5t-20.5 -53.5t-52.5 -21.5t-53 21.5t-21 53.5z" />
    <glyph glyph-name="ghanuktaprehalfdeva" horiz-adv-x="401" 
d="M210 262q0 -27 22 -39.5t54 -12.5q51 0 86 23t60 50l66 -94q-46 -41 -99.5 -65t-122.5 -24q-94 0 -147 43.5t-53 115.5q0 22 6 43.5t19 40.5q-32 20 -50.5 49.5t-18.5 64.5q0 33 9 55h-41v110h416v-110h-237q-12 -16 -12 -36q0 -23 11.5 -38t30.5 -21q30 7 66 7
q13 0 28 -2l22 -3l-7 -107q-4 1 -11 1h-15q-82 0 -82 -51zM93 -16q0 32 21 53.5t53 21.5t52.5 -21.5t20.5 -53.5t-20.5 -53.5t-52.5 -21.5t-53 21.5t-21 53.5z" />
    <glyph glyph-name="nganuktaprehalfdeva" horiz-adv-x="695" 
d="M374 200q-26 0 -55.5 -5.5t-57.5 -17.5q-29 13 -57 37t-45.5 55t-17.5 64q0 31 10.5 52.5t27.5 35.5q24 19 56.5 27t95.5 8h44v56h-375v110h709v-110h-200v-155h-188q-17 0 -24.5 -1.5t-12.5 -4.5q-12 -7 -12 -22q0 -11 5.5 -20t13.5 -17q21 6 46 9t57 3
q90 0 138.5 -40.5t48.5 -109.5q0 -65 -53.5 -109.5t-166.5 -44.5q-79 0 -143.5 21.5t-115 57t-88.5 76.5l98 77q53 -55 110.5 -87.5t134.5 -32.5q48 0 68.5 14t20.5 34q0 18 -16 29t-56 11zM541 340q0 29 19.5 49t48.5 20t48.5 -20t19.5 -49q0 -30 -19.5 -49.5t-48.5 -19.5
t-48.5 19.5t-19.5 49.5zM260 -36q15 4 34.5 6.5t35.5 2.5q70 0 121.5 -24t93 -64.5t80.5 -90.5l-90 -62q-37 48 -67 77.5t-61.5 43.5t-72.5 14q-16 0 -29.5 -2t-24.5 -4zM75 -134q0 32 20.5 53t52.5 21t52.5 -21t20.5 -53t-20.5 -53.5t-52.5 -21.5t-52.5 21.5t-20.5 53.5z
" />
    <glyph glyph-name="canuktaprehalfdeva" horiz-adv-x="436" 
d="M0 622h450v-110h-450v110zM543 175q-43 -40 -94 -62t-116 -22q-91 0 -144.5 41.5t-53.5 108.5q0 59 36 92l-134 -3v111h309q19 0 36.5 -0.5t21.5 -1.5l-10 -108h-22q-57 0 -79.5 -18.5t-22.5 -50.5q0 -27 18.5 -44t52.5 -17q46 0 77 17.5t59 48.5zM157 -30q0 32 21 53.5
t53 21.5t52.5 -21.5t20.5 -53.5t-20.5 -53.5t-52.5 -21.5t-53 21.5t-21 53.5z" />
    <glyph glyph-name="chanuktaprehalfdeva" horiz-adv-x="760" 
d="M0 512v110h774v-110h-774zM335 111q74 0 131.5 23.5t90 64.5t32.5 93q0 33 -14 58t-49 25q-20 0 -30.5 -10t-10.5 -24q0 -22 18 -38t60 -28l-50 -89q-78 25 -115 64t-37 90q0 58 40.5 93.5t119.5 35.5q89 0 145.5 -45.5t56.5 -139.5q0 -51 -24 -101.5t-73 -92t-122.5 -66
t-172.5 -24.5q-123 0 -181 42.5t-58 109.5q0 18 5.5 36.5t16.5 35.5q-38 21 -59 51.5t-21 69.5q0 60 47 94.5t133 34.5q20 0 48.5 -2t46.5 -7l-10 -104q-14 5 -32 7.5t-39 2.5q-60 0 -60 -36q0 -14 13 -24.5t35 -15.5q28 7 62 7q13 0 26.5 -1t21.5 -3l-11 -101
q-5 1 -12.5 1.5t-17.5 0.5q-34 0 -49 -9.5t-15 -29.5q0 -49 114 -49zM297 -134q0 32 21 53.5t53 21.5t52.5 -21.5t20.5 -53.5t-20.5 -53.5t-52.5 -21.5t-53 21.5t-21 53.5z" />
    <glyph glyph-name="januktaprehalfdeva" horiz-adv-x="602" 
d="M0 622h616v-110h-616v110zM602 331h-86q-40 0 -61 2q26 -27 40.5 -58.5t14.5 -66.5q0 -48 -23 -81t-61.5 -50t-86.5 -17q-61 0 -117.5 27.5t-107 97.5t-94.5 199l114 42q43 -124 89.5 -188.5t103.5 -64.5q23 0 36.5 12.5t13.5 36.5q0 36 -25.5 68t-70.5 58l43 93h278
v-110zM229 -77q0 32 21 53.5t53 21.5t52.5 -21.5t20.5 -53.5t-20.5 -53.5t-52.5 -21.5t-53 21.5t-21 53.5z" />
    <glyph glyph-name="jhanuktaprehalfdeva" horiz-adv-x="510" 
d="M274 200q-26 0 -55.5 -5.5t-57.5 -17.5q-29 13 -57 37t-45.5 55t-17.5 64q0 31 10.5 52.5t27.5 35.5q24 19 56.5 27t95.5 8h64v56h-295v110h525v-110h-96v-155h-208q-17 0 -24.5 -1.5t-12.5 -4.5q-12 -7 -12 -22q0 -11 5.5 -20t13.5 -17q40 12 104 12q56 0 97 -17
q20 -2 43 -3.5t39 -1.5q44 0 73 5.5t49 14.5l19 -106q-29 -13 -58 -17.5t-70 -4.5h-8q2 -11 2 -24q0 -59 -39.5 -94t-113.5 -45q28 -11 59.5 -22l62.5 -21l-45 -95q-66 30 -127 63t-108 65q-59 3 -93.5 20t-34.5 63q0 33 20 49t42 16q49 0 98 -44q14 -2 28 -2q116 0 116 54
q0 20 -16 31.5t-56 11.5zM138 -163q0 32 21 53.5t53 21.5t52.5 -21.5t20.5 -53.5t-20.5 -53.5t-52.5 -21.5t-53 21.5t-21 53.5z" />
    <glyph glyph-name="nyanuktaprehalfdeva" horiz-adv-x="597" 
d="M0 622h611v-110h-611v110zM211 420q36 16 68.5 22.5t63.5 6.5q73 0 124.5 -32.5t67.5 -91.5q9 -1 20 -1q35 0 60 9v-101q-30 -6 -68 -6h-10q-11 -54 -45 -83.5t-78 -41.5t-84 -12q-92 0 -171.5 52t-138.5 178l113 48q76 -165 188 -165q47 0 69 19t22 50q0 34 -21.5 49.5
t-54.5 15.5q-24 0 -43 -5t-42 -15zM216 -44q0 32 21 53.5t53 21.5t52.5 -21.5t20.5 -53.5t-20.5 -53.5t-52.5 -21.5t-53 21.5t-21 53.5z" />
    <glyph glyph-name="ttanuktaprehalfdeva" horiz-adv-x="541" 
d="M555 512h-141v-185h-68q-53 0 -81.5 -6.5t-47.5 -17.5q-47 -27 -47 -82q0 -57 39.5 -82t98.5 -25q50 0 91 12t82 35l42 -112q-47 -22 -97 -35.5t-121 -13.5q-79 0 -139.5 26.5t-95 77.5t-34.5 123q0 65 32 110.5t87.5 70t124.5 27.5v77h-280v110h555v-110zM237 -36
q15 4 34.5 6.5t35.5 2.5q70 0 121.5 -24t93 -64.5t80.5 -90.5l-90 -62q-37 48 -67 77.5t-61.5 43.5t-72.5 14q-16 0 -29.5 -2t-24.5 -4zM52 -134q0 32 20.5 53t52.5 21t52.5 -21t20.5 -53t-20.5 -53.5t-52.5 -21.5t-52.5 21.5t-20.5 53.5z" />
    </font>
</defs>
</svg>
