<?xml version="1.0" standalone="no"?>
<!DOCTYPE svg PUBLIC "-//W3C//DTD SVG 1.1//EN" "http://www.w3.org/Graphics/SVG/1.1/DTD/svg11.dtd" >
<svg>
<metadata>
Created by FontForge 20090622 at Thu Sep 27 05:44:42 2018
 By deploy user
Copyright 2015 Google Inc. All Rights Reserved.
</metadata>
<defs>
<font id="NotoSansDevanagariUI-ExtraCondensedExtraBold" horiz-adv-x="0" >
  <font-face 
    font-family="Noto Sans Devanagari XCn XBd"
    font-weight="800"
    font-stretch="extra-condensed"
    units-per-em="1000"
    panose-1="2 11 9 6 4 5 4 2 2 4"
    ascent="800"
    descent="-200"
    bbox="-541 -268 1225 1347"
    underline-thickness="50"
    underline-position="-75"
    unicode-range="U+000D-U+A8FD"
  />
<missing-glyph horiz-adv-x="600" 
d="M94 714h411v-714h-411v714zM454 51v612h-309v-612h309z" />
    <glyph glyph-name=".notdef" horiz-adv-x="600" 
d="M94 714h411v-714h-411v714zM454 51v612h-309v-612h309z" />
    <glyph glyph-name="null" 
 />
    <glyph glyph-name="null" 
 />
    <glyph glyph-name="CR" unicode="&#xd;" horiz-adv-x="180" 
 />
    <glyph glyph-name="space" unicode=" " horiz-adv-x="180" 
 />
    <glyph glyph-name="binducandradeva" unicode="&#x900;" 
d="M-328 679q13 119 59 168t125 49q73 0 119.5 -52t71.5 -161l-89 -28q-18 77 -40.5 112t-61.5 35q-44 0 -63 -35.5t-26 -111.5zM-91 707q0 -24 -14 -39t-39 -15t-39.5 15.5t-14.5 40.5q0 26 14.5 41.5t39.5 15.5q24 0 38.5 -16.5t14.5 -42.5z" />
    <glyph glyph-name="candrabindudeva" unicode="&#x901;" 
d="M-189 842q0 24 13.5 39t38.5 15t39.5 -15t14.5 -41t-14.5 -41.5t-39.5 -15.5q-23 0 -37.5 16.5t-14.5 42.5zM47 870q-13 -118 -59 -167.5t-125 -49.5q-71 0 -118 51.5t-73 161.5l89 28q19 -76 41 -111.5t61 -35.5q44 0 63 35.5t27 111.5z" />
    <glyph glyph-name="anusvaradeva" unicode="&#x902;" 
d="M-192 773q0 32 18 53t50 21t50 -21t18 -53t-18 -52.5t-50 -20.5t-50 20.5t-18 52.5z" />
    <glyph glyph-name="visargadeva" unicode="&#x903;" horiz-adv-x="240" 
d="M55 437q0 33 18.5 55t53.5 22q34 0 53 -22t19 -55q0 -35 -19 -56.5t-53 -21.5q-35 0 -53.5 21.5t-18.5 56.5zM55 118q0 33 18.5 55.5t53.5 22.5q34 0 53 -22.5t19 -55.5q0 -34 -19 -56t-53 -22q-35 0 -53.5 22t-18.5 56z" />
    <glyph glyph-name="ashortdeva" unicode="&#x904;" horiz-adv-x="682" 
d="M423 209q0 -72 -41 -111t-119 -39q-59 0 -104 27t-80 90.5t-63 171.5l122 31q25 -103 53 -151t63 -48q19 0 27.5 12t8.5 28q0 26 -8.5 46.5t-21.5 38.5q-19 -5 -40 -7l-14 114q74 8 74 54q0 45 -50 45q-16 0 -35 -5t-38 -16l-41 112q32 14 63.5 22t72.5 8
q76 0 118.5 -44.5t42.5 -114.5q0 -37 -11.5 -65.5t-32.5 -49.5q3 -3 5 -6q23 -4 46 -4q19 0 36 2.5t36 9.5v142h-43v120h45q-12 57 -25 76t-36 19q-8 0 -20 -1t-20 -1q-38 0 -68.5 32.5t-53.5 120.5l99 28q13 -42 25.5 -56.5t35.5 -14.5q11 0 23.5 1.5t30.5 1.5
q29 0 51.5 -16t41 -60.5t34.5 -129.5h82v-120h-68v-502h-134v244q-15 -6 -30 -7.5t-30 -1.5h-10q1 -13 1 -26z" />
    <glyph glyph-name="adeva" unicode="&#x905;" horiz-adv-x="682" 
d="M423 209q0 -72 -41 -111t-119 -39q-59 0 -104 27t-80 90.5t-63 171.5l122 31q25 -103 53 -151t63 -48q19 0 27.5 12t8.5 28q0 26 -8.5 46.5t-21.5 38.5q-19 -5 -40 -7l-14 114q74 8 74 54q0 45 -50 45q-16 0 -35 -5t-38 -16l-41 112q32 14 63.5 22t72.5 8
q76 0 118.5 -44.5t42.5 -114.5q0 -37 -11.5 -65.5t-32.5 -49.5q3 -3 5 -6q23 -4 46 -4q19 0 36 2.5t36 9.5v142h-43v120h245v-120h-68v-502h-134v244q-15 -6 -30 -7.5t-30 -1.5h-10q1 -13 1 -26z" />
    <glyph glyph-name="aadeva" unicode="&#x906;" horiz-adv-x="915" 
d="M423 209q0 -72 -41 -111t-119 -39q-59 0 -104 27t-80 90.5t-63 171.5l122 31q25 -103 53 -151t63 -48q19 0 27.5 12t8.5 28q0 26 -8.5 46.5t-21.5 38.5q-19 -5 -40 -7l-14 114q74 8 74 54q0 45 -50 45q-16 0 -35 -5t-38 -16l-41 112q32 14 63.5 22t72.5 8
q76 0 118.5 -44.5t42.5 -114.5q0 -37 -11.5 -65.5t-32.5 -49.5q3 -3 5 -6q23 -4 46 -4q19 0 36 2.5t36 9.5v142h-43v120h478v-120h-68v-502h-135v502h-98v-502h-134v244q-15 -6 -30 -7.5t-30 -1.5h-10q1 -13 1 -26z" />
    <glyph glyph-name="ideva" unicode="&#x907;" horiz-adv-x="409" 
d="M194 193q-22 0 -43 -3.5t-39 -8.5q-36 30 -61 67.5t-25 83.5q0 53 34 84q16 14 43 24t81 10h29v52h-213v120h421v-120h-76v-153h-153q-15 0 -21.5 -1.5t-10.5 -5.5q-5 -5 -5 -15q0 -11 3.5 -19t9.5 -16q28 6 59 6q81 0 119 -41.5t38 -101.5q0 -51 -25 -89.5t-85 -54.5
q54 -24 96 -39l-55 -98q-44 28 -87.5 60.5l-86.5 67.5q-53 3 -84 21t-31 62q0 31 18 48t44 17q40 0 74 -38q12 -1 24 -1q34 0 48.5 11t14.5 32q0 19 -12 29t-43 10z" />
    <glyph glyph-name="iideva" unicode="&#x908;" horiz-adv-x="409" 
d="M194 193q-22 0 -43 -3.5t-39 -8.5q-36 30 -61 67.5t-25 83.5q0 53 34 84q16 14 43 24t81 10h29v52h-213v120h421v-120h-76v-153h-153q-15 0 -21.5 -1.5t-10.5 -5.5q-5 -5 -5 -15q0 -11 3.5 -19t9.5 -16q28 6 59 6q81 0 119 -41.5t38 -101.5q0 -51 -25 -89.5t-85 -54.5
q54 -24 96 -39l-55 -98q-44 28 -87.5 60.5l-86.5 67.5q-53 3 -84 21t-31 62q0 31 18 48t44 17q40 0 74 -38q12 -1 24 -1q34 0 48.5 11t14.5 32q0 19 -12 29t-43 10zM205 615q-16 28 -29 65t-13 73q0 74 47 108.5t114 34.5q31 0 56 -4t43 -10l-25 -102q-9 2 -21.5 4t-24.5 2
q-30 0 -43 -16.5t-13 -42.5q0 -31 11 -59.5t24 -52.5h-126z" />
    <glyph glyph-name="udeva" unicode="&#x909;" horiz-adv-x="459" 
d="M0 622h471v-120h-69q16 -31 16 -66q0 -76 -52 -117q28 -30 49 -70t21 -97q0 -73 -44 -112.5t-118 -39.5q-62 0 -108.5 28.5t-83 96t-66.5 183.5l122 32q29 -114 57.5 -165.5t67.5 -51.5q20 0 28.5 11.5t8.5 30.5q0 31 -13.5 57t-35.5 50q-18 -3 -39 -6l-13 115
q41 3 62.5 17t21.5 47q0 20 -7.5 33.5t-20.5 23.5h-255v120z" />
    <glyph glyph-name="uudeva" unicode="&#x90a;" horiz-adv-x="655" 
d="M0 622h667v-120h-265q16 -31 16 -66q0 -76 -52 -117q8 -8 14 -16q28 21 57 34.5t67 13.5q57 0 93 -40.5t36 -117.5q0 -44 -14.5 -94t-40.5 -100l-118 58q16 30 27 63.5t11 65.5q0 27 -8 36.5t-18 9.5q-12 0 -22.5 -7.5t-19.5 -19.5q6 -25 6 -53q0 -73 -44 -112.5
t-118 -39.5q-62 0 -108.5 28.5t-83 96t-66.5 183.5l122 32q29 -114 57.5 -165.5t67.5 -51.5q20 0 28.5 11.5t8.5 30.5q0 31 -13.5 57t-35.5 50q-18 -3 -39 -6l-13 115q41 3 62.5 17t21.5 47q0 20 -7.5 33.5t-20.5 23.5h-255v120z" />
    <glyph glyph-name="rvocalicdeva" unicode="&#x90b;" horiz-adv-x="732" 
d="M115 37l-77 99l177 123q-23 34 -38 43.5t-35 9.5q-21 0 -41.5 -8t-42.5 -20l-42 116q32 16 63 25.5t63 9.5q35 0 59.5 -11t45 -34.5t44.5 -61.5v174h-291v120h744v-120h-319v-173q16 1 32.5 4t31.5 7q-1 10 -1 19q0 40 23 60t52 20q44 0 63.5 -28.5t19.5 -61.5
q0 -25 -8 -43.5t-22 -28.5l21 -46t25 -47l-24 -39q-20 -7 -36 -20t-16 -36q0 -25 15 -33t30 -8q33 0 72 20l43 -98q-27 -13 -59.5 -22t-72.5 -9q-67 0 -108.5 41.5t-41.5 111.5q0 48 20 79t48 50l-7 18q-24 -9 -47.5 -14t-52.5 -8v-217h-134v179z" />
    <glyph glyph-name="lvocalicdeva" unicode="&#x90c;" horiz-adv-x="599" 
d="M339 30q0 48 21 82t60 56q7 20 11.5 41.5t4.5 45.5q0 29 -10 40t-24 11q-11 0 -24 -8.5t-24.5 -35t-20.5 -79.5l-120 32q7 37 18 68q-18 20 -37 20t-27 -14.5t-8 -34.5q0 -47 29 -95t74 -104l-103 -72q-61 72 -97.5 143.5t-36.5 134.5q0 61 23 96.5t57.5 51.5t66.5 16
q38 0 65 -11t55 -34q27 25 62 35v87h-354v120h611v-120h-125v-92q42 -18 62 -57t20 -93q0 -52 -11 -92t-25 -79q-71 -15 -71 -61q0 -24 15 -32.5t30 -8.5q34 0 72 21l43 -99q-27 -12 -59 -21.5t-73 -9.5q-67 0 -108.5 42t-41.5 110z" />
    <glyph glyph-name="ecandradeva" unicode="&#x90d;" horiz-adv-x="483" 
d="M495 502h-59v-122q0 -50 -7.5 -80t-28.5 -51q-38 -37 -110 -53l-39 120q12 3 22 7.5t15 10.5q14 13 14 49v119h-116v-201q0 -31 3.5 -51t15 -36t36.5 -32l106 -70q60 -39 79.5 -77.5t19.5 -79.5q0 -49 -16.5 -85t-39.5 -70l-110 66q12 16 20.5 35t8.5 43q0 20 -9 37.5
t-39 36.5l-86 56q-43 28 -65 48t-34 42q-14 26 -19 54.5t-5 75.5v208h-52v120h495v-120zM485 870q-14 -114 -58 -163.5t-127 -49.5q-75 0 -120 51.5t-70 157.5l92 28q17 -74 39 -104.5t60 -30.5q42 0 61.5 30.5t25.5 104.5z" />
    <glyph glyph-name="eshortdeva" unicode="&#x90e;" horiz-adv-x="483" 
d="M495 502h-59v-122q0 -50 -7.5 -80t-28.5 -51q-38 -37 -110 -53l-39 120q12 3 22 7.5t15 10.5q14 13 14 49v119h-116v-201q0 -31 3.5 -51t15 -36t36.5 -32l106 -70q60 -39 79.5 -77.5t19.5 -79.5q0 -49 -16.5 -85t-39.5 -70l-110 66q12 16 20.5 35t8.5 43q0 20 -9 37.5
t-39 36.5l-86 56q-43 28 -65 48t-34 42q-14 26 -19 54.5t-5 75.5v208h-52v120h495v-120zM309 615q-14 61 -26.5 81.5t-36.5 20.5q-8 0 -20 -1t-20 -1q-39 0 -69 32.5t-53 120.5l99 28q13 -42 25.5 -56.5t35.5 -14.5q11 0 23.5 1.5t30.5 1.5q29 0 51.5 -16.5t41.5 -62
t35 -134.5h-117z" />
    <glyph glyph-name="edeva" unicode="&#x90f;" horiz-adv-x="483" 
d="M495 502h-59v-122q0 -50 -7.5 -80t-28.5 -51q-38 -37 -110 -53l-39 120q12 3 22 7.5t15 10.5q14 13 14 49v119h-116v-201q0 -31 3.5 -51t15 -36t36.5 -32l106 -70q60 -39 79.5 -77.5t19.5 -79.5q0 -49 -16.5 -85t-39.5 -70l-110 66q12 16 20.5 35t8.5 43q0 20 -9 37.5
t-39 36.5l-86 56q-43 28 -65 48t-34 42q-14 26 -19 54.5t-5 75.5v208h-52v120h495v-120z" />
    <glyph glyph-name="aideva" unicode="&#x910;" horiz-adv-x="483" 
d="M495 502h-59v-122q0 -50 -7.5 -80t-28.5 -51q-38 -37 -110 -53l-39 120q12 3 22 7.5t15 10.5q14 13 14 49v119h-116v-201q0 -31 3.5 -51t15 -36t36.5 -32l106 -70q60 -39 79.5 -77.5t19.5 -79.5q0 -49 -16.5 -85t-39.5 -70l-110 66q12 16 20.5 35t8.5 43q0 20 -9 37.5
t-39 36.5l-86 56q-43 28 -65 48t-34 42q-14 26 -19 54.5t-5 75.5v208h-52v120h495v-120zM310 615q-19 84 -37 121t-51 37q-24 0 -45 -9l-35 114q43 18 86 18q33 0 62 -11.5t54.5 -42t46.5 -85.5t36 -142h-117z" />
    <glyph glyph-name="ocandradeva" unicode="&#x911;" horiz-adv-x="915" 
d="M423 209q0 -72 -41 -111t-119 -39q-59 0 -104 27t-80 90.5t-63 171.5l122 31q25 -103 53 -151t63 -48q19 0 27.5 12t8.5 28q0 26 -8.5 46.5t-21.5 38.5q-19 -5 -40 -7l-14 114q74 8 74 54q0 45 -50 45q-16 0 -35 -5t-38 -16l-41 112q32 14 63.5 22t72.5 8
q76 0 118.5 -44.5t42.5 -114.5q0 -37 -11.5 -65.5t-32.5 -49.5q3 -3 5 -6q23 -4 46 -4q19 0 36 2.5t36 9.5v142h-43v120h478v-120h-68v-502h-135v502h-98v-502h-134v244q-15 -6 -30 -7.5t-30 -1.5h-10q1 -13 1 -26zM948 870q-14 -114 -58 -163.5t-127 -49.5q-75 0 -120 51.5
t-70 157.5l92 28q17 -74 39 -104.5t60 -30.5q42 0 61.5 30.5t25.5 104.5z" />
    <glyph glyph-name="oshortdeva" unicode="&#x912;" horiz-adv-x="915" 
d="M423 209q0 -72 -41 -111t-119 -39q-59 0 -104 27t-80 90.5t-63 171.5l122 31q25 -103 53 -151t63 -48q19 0 27.5 12t8.5 28q0 26 -8.5 46.5t-21.5 38.5q-19 -5 -40 -7l-14 114q74 8 74 54q0 45 -50 45q-16 0 -35 -5t-38 -16l-41 112q32 14 63.5 22t72.5 8
q76 0 118.5 -44.5t42.5 -114.5q0 -37 -11.5 -65.5t-32.5 -49.5q3 -3 5 -6q23 -4 46 -4q19 0 36 2.5t36 9.5v142h-43v120h478v-120h-68v-502h-135v502h-98v-502h-134v244q-15 -6 -30 -7.5t-30 -1.5h-10q1 -13 1 -26zM729 615q-14 61 -26.5 81.5t-36.5 20.5q-8 0 -20 -1
t-20 -1q-39 0 -69 32.5t-53 120.5l99 28q13 -42 25.5 -56.5t35.5 -14.5q11 0 23.5 1.5t30.5 1.5q29 0 51.5 -16.5t41.5 -62t35 -134.5h-117z" />
    <glyph glyph-name="odeva" unicode="&#x913;" horiz-adv-x="915" 
d="M423 209q0 -72 -41 -111t-119 -39q-59 0 -104 27t-80 90.5t-63 171.5l122 31q25 -103 53 -151t63 -48q19 0 27.5 12t8.5 28q0 26 -8.5 46.5t-21.5 38.5q-19 -5 -40 -7l-14 114q74 8 74 54q0 45 -50 45q-16 0 -35 -5t-38 -16l-41 112q32 14 63.5 22t72.5 8
q76 0 118.5 -44.5t42.5 -114.5q0 -37 -11.5 -65.5t-32.5 -49.5q3 -3 5 -6q23 -4 46 -4q19 0 36 2.5t36 9.5v142h-43v120h478v-120h-68v-502h-135v502h-98v-502h-134v244q-15 -6 -30 -7.5t-30 -1.5h-10q1 -13 1 -26zM729 615q-19 84 -37 121t-51 37q-24 0 -45 -9l-35 114
q43 18 86 18q33 0 62 -11.5t54.5 -42t46.5 -85.5t36 -142h-117z" />
    <glyph glyph-name="audeva" unicode="&#x914;" horiz-adv-x="915" 
d="M423 209q0 -72 -41 -111t-119 -39q-59 0 -104 27t-80 90.5t-63 171.5l122 31q25 -103 53 -151t63 -48q19 0 27.5 12t8.5 28q0 26 -8.5 46.5t-21.5 38.5q-19 -5 -40 -7l-14 114q74 8 74 54q0 45 -50 45q-16 0 -35 -5t-38 -16l-41 112q32 14 63.5 22t72.5 8
q76 0 118.5 -44.5t42.5 -114.5q0 -37 -11.5 -65.5t-32.5 -49.5q3 -3 5 -6q23 -4 46 -4q19 0 36 2.5t36 9.5v142h-43v120h478v-120h-68v-502h-135v502h-98v-502h-134v244q-15 -6 -30 -7.5t-30 -1.5h-10q1 -13 1 -26zM724 615q-27 38 -47 49t-41 11q-26 0 -57 -14l-29 90
q19 7 39 12t37 5q27 0 48 -11t46 -49h4q-23 59 -41 77t-43 18q-26 0 -53 -11l-26 88q20 7 42.5 11.5t43.5 4.5q33 0 62 -11.5t54.5 -42t46.5 -85.5t36 -142h-122z" />
    <glyph glyph-name="kadeva" unicode="&#x915;" horiz-adv-x="651" 
d="M663 502h-244v-130q17 14 36 21t43 7q57 0 92.5 -42.5t35.5 -122.5q0 -49 -13 -100t-42 -107l-117 58q16 33 27 69.5t11 72.5q0 28 -7.5 40t-20.5 12q-24 0 -45 -39v-241h-135v114q-20 -15 -42.5 -22t-51.5 -7q-73 0 -118.5 44.5t-45.5 136.5q0 82 42.5 131.5t124.5 49.5
q19 0 35.5 -2t33.5 -6l-10 -118q-8 2 -18 3.5t-22 1.5q-52 0 -52 -61q0 -37 14.5 -48.5t34.5 -11.5q24 0 42 13.5t33 35.5v248h-284v120h663v-120z" />
    <glyph glyph-name="khadeva" unicode="&#x916;" horiz-adv-x="690" 
d="M633 502v-502h-134v27q-29 -13 -59.5 -18.5t-65.5 -5.5q-74 0 -133 29.5t-104 76.5t-77 100q-38 63 -38 114q0 30 16.5 52t51.5 22q26 0 47 -17q9 29 9 61q0 33 -7 61h-139v120h702v-120h-69zM444 273q30 0 55 28v201h-230q4 -16 7 -35t3 -42q0 -64 -25.5 -110t-66.5 -75
q42 -60 87 -89.5t109 -29.5q32 0 59 5.5t57 20.5v40q-32 -19 -73 -19q-58 0 -96.5 37t-38.5 114q0 67 33.5 107t100.5 40q13 0 28 -1.5t25 -4.5l-8 -101q-6 1 -12.5 2.5t-12.5 1.5q-35 0 -35 -46q0 -25 9.5 -34.5t24.5 -9.5z" />
    <glyph glyph-name="gadeva" unicode="&#x917;" horiz-adv-x="494" 
d="M216 502v-285q0 -77 -60 -77q-34 0 -64 25.5t-49 62t-19 70.5q0 28 12 46.5t46 21.5v136h-82v120h506v-120h-68v-502h-134v502h-88z" />
    <glyph glyph-name="ghadeva" unicode="&#x918;" horiz-adv-x="515" 
d="M527 502h-68v-502h-134v118q-22 -14 -46.5 -22t-62.5 -8q-77 0 -120.5 45t-43.5 119q0 52 27 92q-25 19 -39 47t-14 63q0 26 9 48h-35v120h527v-120zM187 252q0 -24 13 -34t35 -10q28 0 51 14.5t39 38.5v241h-152q-13 -17 -13 -38q0 -34 27 -48q15 2 31 2q8 0 22 -1.5
t24 -3.5l-11 -117q-5 1 -10.5 1.5t-12.5 0.5q-19 0 -31 -11t-12 -35z" />
    <glyph glyph-name="ngadeva" unicode="&#x919;" horiz-adv-x="555" 
d="M278 193q-22 0 -43 -3.5t-39 -9.5q-36 30 -61.5 68t-25.5 84q0 53 34 84q16 14 43 24t81 10h11v52h-278v120h567v-120h-157v-153h-134q-15 0 -21.5 -1.5t-10.5 -5.5q-5 -5 -5 -15q0 -19 13 -36q27 7 59 7q80 0 118 -42t38 -104q0 -64 -44 -108t-143 -44q-88 0 -153.5 35
t-115.5 83l88 94q46 -45 86 -70t90 -25q30 0 44 8.5t14 30.5q0 17 -12 27t-43 10zM422 334q0 28 15.5 47t45.5 19q29 0 44 -19t15 -47q0 -30 -15 -48.5t-44 -18.5q-28 0 -44.5 18.5t-16.5 48.5z" />
    <glyph glyph-name="cadeva" unicode="&#x91a;" horiz-adv-x="549" 
d="M561 502h-68v-502h-134v106q-39 -21 -96 -21q-77 0 -119.5 40.5t-42.5 110.5q0 27 7.5 48.5t20.5 36.5l-99 -5v120h241q10 0 21.5 -1l22.5 -2l-8 -116h-10q-33 0 -47.5 -15.5t-14.5 -44.5q0 -24 12 -38t39 -14q23 0 41 10t32 27v260h-359v120h561v-120z" />
    <glyph glyph-name="chadeva" unicode="&#x91b;" horiz-adv-x="595" 
d="M255 118q54 0 95.5 23.5t65.5 63.5t24 91q0 33 -8.5 52.5t-29.5 19.5q-11 0 -20 -8.5t-9 -23.5q0 -20 10 -33t38 -23l-45 -96q-115 47 -115 153q0 45 22 77t67 45v43h-350v120h607v-120h-128v-49q45 -19 68.5 -61.5t23.5 -103.5q0 -78 -37 -143.5t-107 -105t-168 -39.5
q-97 0 -145 43.5t-48 114.5q0 18 4.5 35.5t14.5 33.5q-28 20 -44.5 49t-16.5 66q0 60 40 93t112 33q15 0 33.5 -2t33.5 -6l-8 -102q-25 6 -44 6q-39 0 -39 -33q0 -22 23 -35q17 4 36 4q13 0 24 -1.5t21 -3.5l-9 -102q-4 1 -9.5 1h-11.5q-35 0 -35 -33q0 -23 17.5 -33
t46.5 -10z" />
    <glyph glyph-name="jadeva" unicode="&#x91c;" horiz-adv-x="666" 
d="M609 502v-502h-134v315h-50q-9 0 -22 0.5t-26 1.5q42 -50 42 -117q0 -65 -39.5 -103t-112.5 -38q-60 0 -106.5 27.5t-82.5 96t-64 192.5l122 32q20 -84 37.5 -133.5t36.5 -71.5t42 -22q34 0 34 40q0 33 -18.5 65.5t-46.5 61.5l44 85h210v70h-475v120h678v-120h-69z" />
    <glyph glyph-name="jhadeva" unicode="&#x91d;" horiz-adv-x="635" 
d="M193 193q-22 0 -42.5 -3.5t-38.5 -9.5q-36 30 -61 68t-25 84q0 53 34 84q16 14 43 24t81 10h29v52h-213v120h647v-120h-68v-502h-135v172q-15 -5 -28.5 -6.5t-25.5 -1.5h-8v-9q0 -51 -24 -90t-84 -54q54 -24 96 -39l-55 -98q-44 28 -87.5 60.5l-86.5 67.5q-53 3 -84 21
t-31 62q0 31 18 48t44 17q40 0 74 -38q12 -1 24 -1q34 0 48.5 11t14.5 32q0 19 -12.5 29t-43.5 10zM371 278q40 0 73 12v212h-99v-153h-153q-15 0 -21.5 -1.5t-10.5 -5.5q-5 -5 -5 -15q0 -11 3.5 -19t9.5 -17q27 7 59 7q31 0 57 -7v0l6 -2h1q14 -5 32.5 -8t47.5 -3z" />
    <glyph glyph-name="nyadeva" unicode="&#x91e;" horiz-adv-x="674" 
d="M166 420q24 10 52 16.5t56 6.5q66 0 104.5 -32.5t50.5 -88.5q8 -1 18 -1q18 0 37 5v176h-484v120h686v-120h-68v-502h-134v219q-19 -3 -40 -3h-12q-12 -75 -59.5 -104.5t-112.5 -29.5q-80 0 -140.5 56t-103.5 181l119 37q29 -87 56 -120t61 -33q28 0 40 15.5t12 43.5
q0 61 -49 61q-13 0 -25 -3.5t-24 -8.5z" />
    <glyph glyph-name="ttadeva" unicode="&#x91f;" horiz-adv-x="421" 
d="M433 502h-100v-189h-20q-39 0 -68 -5t-48 -19q-15 -11 -25 -29t-10 -45q0 -49 26 -71t64 -22q32 0 58 8.5t58 25.5l43 -117q-78 -39 -169 -39q-96 0 -155.5 57.5t-59.5 160.5q0 63 24 107t63 69.5t86 33.5v74h-200v120h433v-120z" />
    <glyph glyph-name="tthadeva" unicode="&#x920;" horiz-adv-x="472" 
d="M484 502h-152v-82q59 -38 87.5 -94t28.5 -124q0 -104 -56.5 -153t-147.5 -49q-100 0 -158.5 57.5t-58.5 160.5q0 62 23.5 106t62.5 69.5t86 33.5v75h-199v120h484v-120zM239 120q37 0 57 21t20 64q0 35 -13.5 63.5t-35.5 44.5q-45 -3 -69 -22q-16 -11 -26.5 -30
t-10.5 -51q0 -50 24.5 -70t53.5 -20z" />
    <glyph glyph-name="ddadeva" unicode="&#x921;" horiz-adv-x="492" 
d="M278 193q-22 0 -43 -3.5t-39 -9.5q-36 30 -61.5 68t-25.5 84q0 53 34 84q16 14 43 24t81 10h29v52h-296v120h504v-120h-77v-153h-151q-15 0 -21.5 -1.5t-10.5 -5.5q-5 -5 -5 -15q0 -19 13 -36q27 7 59 7q80 0 118 -42t38 -104q0 -64 -44 -108t-143 -44q-88 0 -153.5 35
t-115.5 83l88 94q46 -45 86 -70t90 -25q30 0 44 8.5t14 29.5q0 18 -12 28t-43 10z" />
    <glyph glyph-name="ddhadeva" unicode="&#x922;" horiz-adv-x="475" 
d="M263 0q-72 0 -125 28.5t-82 80t-29 122.5q0 69 28 116t76.5 72.5t109.5 28.5v54h-241v120h487v-120h-114v-168h-61q-42 0 -71 -6.5t-48 -22.5q-17 -13 -26 -32t-9 -49q0 -37 12 -61.5t32 -37.5q-6 27 -6 54q0 50 31 86t96 36q47 0 76.5 -20t43 -51.5t13.5 -67.5
q0 -76 -52 -119t-141 -43zM290 157q0 -23 9 -45q21 2 35 15t14 36q0 36 -27 36q-17 0 -24 -13t-7 -29z" />
    <glyph glyph-name="nnadeva" unicode="&#x923;" horiz-adv-x="644" 
d="M588 502v-502h-135v502h-65v-190q0 -52 -7.5 -85.5t-26.5 -56.5q-20 -24 -52.5 -37t-81.5 -13q-44 0 -76 13.5t-53 37.5q-22 25 -32 59t-10 86v186h-49v120h656v-120h-68zM218 239q18 0 26 12q10 14 10 55v196h-70v-196q0 -20 1.5 -33t6.5 -22q8 -12 26 -12z" />
    <glyph glyph-name="tadeva" unicode="&#x924;" horiz-adv-x="489" 
d="M434 502v-502h-135v285h-57q-31 0 -45 -4.5t-24 -14.5q-13 -16 -13 -44q0 -38 21.5 -79t63.5 -91l-104 -72q-49 62 -82.5 127t-33.5 130q0 39 11 68t31 48q25 26 65 38.5t116 12.5h51v98h-299v120h501v-120h-67z" />
    <glyph glyph-name="thadeva" unicode="&#x925;" horiz-adv-x="586" 
d="M530 502v-502h-134v133q-24 -16 -49 -22t-57 -6q-86 0 -133.5 56.5t-67.5 159.5q64 19 93 57.5t29 88.5q0 26 -9.5 46t-32.5 20q-12 0 -20 -8.5t-8 -22.5q0 -34 40 -41l-33 -93q-50 12 -82.5 44t-32.5 91q0 62 41.5 95.5t100.5 33.5q81 0 124.5 -48t43.5 -128
q0 -61 -25 -108t-80 -84q10 -19 26 -29.5t37 -10.5q31 0 54 14t41 39v225h-33v120h235v-120h-68z" />
    <glyph glyph-name="dadeva" unicode="&#x926;" horiz-adv-x="439" 
d="M311 -67q-14 35 -25.5 67.5t-19.5 62.5q-12 -1 -23 -1q-56 0 -106 20t-81 64.5t-31 116.5q0 47 14.5 79t38.5 55q42 38 110 50v55h-188v120h451v-120h-130v-167h-43q-39 0 -61.5 -5.5t-36.5 -19.5q-19 -19 -19 -51q0 -36 21.5 -57t65.5 -21q-1 6 -1 11q0 39 22.5 58
t54.5 19q43 0 67.5 -28.5t24.5 -70.5q0 -33 -12.5 -52.5t-30.5 -30.5q10 -28 23.5 -57t27.5 -55z" />
    <glyph glyph-name="dhadeva" unicode="&#x927;" horiz-adv-x="560" 
d="M572 502h-68v-502h-134v111q-22 -14 -46.5 -22t-62.5 -8q-77 0 -120 45t-43 119q0 48 23 86q-40 21 -66.5 58t-26.5 92q0 64 42 107.5t112 43.5q58 0 93 -32.5t35 -81.5q0 -33 -9 -53.5t-20 -39.5l-87 40q4 5 8.5 15.5t4.5 22.5q0 10 -5.5 17t-19.5 7q-16 0 -27.5 -14
t-11.5 -35q0 -31 23.5 -48t52.5 -24q21 4 45 4q8 0 21 -1t24 -3l-10 -117q-5 1 -10.5 1.5t-12.5 0.5q-20 0 -32 -11t-12 -34q0 -25 13 -35t35 -10q28 0 50.5 14.5t39.5 38.5v248h-33v120h235v-120z" />
    <glyph glyph-name="nadeva" unicode="&#x928;" horiz-adv-x="492" 
d="M0 622h504v-120h-68v-502h-134v255h-87v-32q0 -76 -61 -76q-25 0 -48.5 15t-42 39.5t-29.5 52t-11 52.5q0 30 14.5 49t57.5 19h207v128h-302v120z" />
    <glyph glyph-name="nnnadeva" unicode="&#x929;" horiz-adv-x="492" 
d="M0 622h504v-120h-68v-502h-134v255h-87v-32q0 -76 -61 -76q-25 0 -48.5 15t-42 39.5t-29.5 52t-11 52.5q0 30 14.5 49t57.5 19h207v128h-302v120zM72 7q0 32 18 52.5t50 20.5t49.5 -20.5t17.5 -52.5t-17.5 -52.5t-49.5 -20.5t-50 20.5t-18 52.5z" />
    <glyph glyph-name="padeva" unicode="&#x92a;" horiz-adv-x="486" 
d="M430 502v-502h-134v143q-38 -21 -87 -21q-47 0 -77 15t-49 38q-18 23 -27 56t-9 97v174h-47v120h498v-120h-68zM296 502h-115v-176q0 -32 2.5 -46t10.5 -25q11 -14 32 -14q39 0 70 33v228z" />
    <glyph glyph-name="phadeva" unicode="&#x92b;" horiz-adv-x="653" 
d="M419 502v-130q17 14 36.5 21t42.5 7q58 0 93.5 -42.5t35.5 -122.5q0 -49 -13 -100t-42 -107l-118 58q16 33 27.5 69.5t11.5 72.5q0 28 -7.5 40t-21.5 12q-24 0 -45 -39v-241h-134v143q-20 -11 -40.5 -16t-42.5 -5q-43 0 -71.5 15t-47.5 38q-18 23 -27 56t-9 97v174h-47
v120h665v-120h-246zM181 502v-176q0 -32 2.5 -46t10.5 -25q11 -14 31 -14q19 0 34 8.5t26 21.5v231h-104z" />
    <glyph glyph-name="badeva" unicode="&#x92c;" horiz-adv-x="488" 
d="M500 502h-68v-502h-135v108q-42 -23 -96 -23q-83 0 -129.5 47t-46.5 136q0 82 44 130.5t131 48.5q20 0 38.5 -2t36.5 -6l-10 -108q-22 5 -47 5l65 -112q7 7 14 15v263h-297v120h500v-120zM146 265q0 -40 18 -55.5t46 -15.5h10l-65 110q-9 -16 -9 -39z" />
    <glyph glyph-name="bhadeva" unicode="&#x92d;" horiz-adv-x="626" 
d="M175 632q71 0 113 -39q23 -22 36 -55t13 -95v-113h98v172h-51v120h254v-120h-68v-502h-135v211h-98v-18q0 -77 -61 -77q-34 0 -64 25t-48 60t-18 67q0 26 13 44t46 18v124q0 51 -10 66q-9 13 -26 13q-12 0 -20 -8.5t-8 -24.5q0 -33 39 -39l-8 -97q-58 7 -98.5 40.5
t-40.5 99.5t41 97t101 31z" />
    <glyph glyph-name="madeva" unicode="&#x92e;" horiz-adv-x="517" 
d="M461 502v-502h-133v211h-113v-18q0 -77 -60 -77q-35 0 -64.5 25t-48 60t-18.5 67q0 26 13 44t44 18v172h-81v120h529v-120h-68zM327 502h-112v-172h112v172z" />
    <glyph glyph-name="yadeva" unicode="&#x92f;" horiz-adv-x="505" 
d="M517 622v-120h-68v-502h-135v128q-21 -13 -44.5 -18t-54.5 -5q-85 0 -132 64.5t-64 180.5q43 13 61 36t18 61q0 13 -3 27.5t-8 27.5h-87v120h517zM161 294q9 -33 26 -51.5t43 -18.5q28 0 48 11.5t36 31.5v235h-96q6 -17 10.5 -36.5t4.5 -40.5q0 -50 -20 -81t-52 -50z" />
    <glyph glyph-name="radeva" unicode="&#x930;" horiz-adv-x="352" 
d="M336 60l-107 -77q-60 73 -100 129t-69 103q-19 31 -28.5 57t-9.5 51q0 29 17 51.5t56 22.5q36 0 66 -29q17 29 17 75q0 32 -6 59h-172v120h364v-120h-60q3 -16 5.5 -35.5t2.5 -44.5q0 -72 -31 -120t-83 -75q26 -36 62.5 -80.5t75.5 -86.5z" />
    <glyph glyph-name="rradeva" unicode="&#x931;" horiz-adv-x="352" 
d="M336 60l-107 -77q-60 73 -100 129t-69 103q-19 31 -28.5 57t-9.5 51q0 29 17 51.5t56 22.5q36 0 66 -29q17 29 17 75q0 32 -6 59h-172v120h364v-120h-60q3 -16 5.5 -35.5t2.5 -44.5q0 -72 -31 -120t-83 -75q26 -36 62.5 -80.5t75.5 -86.5zM30 19q0 30 16.5 48t43.5 18
t44 -18t17 -48q0 -29 -17 -48t-44 -19t-43.5 19t-16.5 48z" />
    <glyph glyph-name="ladeva" unicode="&#x932;" horiz-adv-x="582" 
d="M0 502v120h594v-120h-68v-502h-134v307q-19 -7 -34.5 -34.5t-25.5 -89.5l-119 32q7 37 18 68q-18 20 -37 20t-27 -14.5t-8 -34.5q0 -47 29 -95t74 -104l-103 -72q-61 72 -97.5 143.5t-36.5 134.5q0 61 23 96.5t57.5 51.5t66.5 16q38 0 65 -11t54 -33q42 37 101 41v80
h-392z" />
    <glyph glyph-name="lladeva" unicode="&#x933;" horiz-adv-x="631" 
d="M0 502v120h643v-120h-141v-71q48 -20 74.5 -69.5t26.5 -127.5q0 -96 -44.5 -148.5t-120.5 -52.5q-67 0 -123 50q-26 -31 -56 -40.5t-60 -9.5q-73 0 -122 50t-49 158q0 97 44 150t121 53q36 0 64 -11.5t57 -38.5q14 16 28.5 25.5t30.5 14.5v68h-373zM366 185q-1 -4 -2 -7
q23 -25 47 -25q26 0 42.5 22t16.5 76q0 41 -10 57t-27 16t-26 -13.5t-17 -42.5zM161 225q0 -41 10.5 -56.5t27.5 -15.5q16 0 25 13.5t17 42.5l23 83l2 7q-22 25 -47 25t-41.5 -22.5t-16.5 -76.5z" />
    <glyph glyph-name="llladeva" unicode="&#x934;" horiz-adv-x="631" 
d="M0 502v120h643v-120h-141v-71q48 -20 74.5 -69.5t26.5 -127.5q0 -96 -44.5 -148.5t-120.5 -52.5q-67 0 -123 50q-26 -31 -56 -40.5t-60 -9.5q-73 0 -122 50t-49 158q0 97 44 150t121 53q36 0 64 -11.5t57 -38.5q14 16 28.5 25.5t30.5 14.5v68h-373zM366 185q-1 -4 -2 -7
q23 -25 47 -25q26 0 42.5 22t16.5 76q0 41 -10 57t-27 16t-26 -13.5t-17 -42.5zM161 225q0 -41 10.5 -56.5t27.5 -15.5q16 0 25 13.5t17 42.5l23 83l2 7q-22 25 -47 25t-41.5 -22.5t-16.5 -76.5zM119 -96q0 32 18 52.5t50 20.5t49.5 -20.5t17.5 -52.5t-17.5 -52.5
t-49.5 -20.5t-50 20.5t-18 52.5z" />
    <glyph glyph-name="vadeva" unicode="&#x935;" horiz-adv-x="477" 
d="M489 502h-68v-502h-135v106q-37 -21 -89 -21q-80 0 -126 45.5t-46 137.5q0 82 43 130.5t125 48.5q20 0 36.5 -2t34.5 -6l-11 -118q-9 2 -18.5 3.5t-21.5 1.5q-53 0 -53 -62q0 -35 14 -47t34 -12q24 0 43.5 11t34.5 30v256h-286v120h489v-120z" />
    <glyph glyph-name="shadeva" unicode="&#x936;" horiz-adv-x="609" 
d="M121 150q-41 0 -70.5 22.5t-29.5 69.5q0 35 21.5 55t58.5 20q40 0 77 -24q27 23 40 59.5t13 82.5q0 49 -13 72.5t-33 23.5q-13 0 -22.5 -9t-9.5 -25q0 -42 56 -53l-27 -97q-146 26 -146 152q0 55 39 94t112 39q79 0 129 -54.5t50 -152.5q0 -73 -26 -130.5t-71 -93.5
q28 -32 56.5 -68.5t52.5 -71.5l-107 -67q-26 44 -53.5 84.5t-54.5 75.5q-20 -4 -42 -4zM553 502v-502h-134v502h-48v120h250v-120h-68z" />
    <glyph glyph-name="ssadeva" unicode="&#x937;" horiz-adv-x="499" 
d="M511 622v-120h-68v-502h-134v146q-20 -12 -43 -18t-54 -6q-50 0 -80 15t-49 38q-18 23 -27 56t-9 97v174h-47v120h511zM309 502h-91l91 -179v179zM189 258q5 -8 14 -12.5t25 -4.5q23 0 41 9l-91 178v-100q0 -30 2.5 -45t8.5 -25z" />
    <glyph glyph-name="sadeva" unicode="&#x938;" horiz-adv-x="582" 
d="M526 502v-502h-135v224q-17 -4 -34 -6t-32 -2q-38 0 -69.5 9.5t-55.5 23.5q-7 -5 -13 -10q29 -42 68 -90l74 -89l-107 -77l-62.5 81.5l-50 68t-48.5 76.5q-39 63 -39 114q0 30 16.5 52t51.5 22q26 0 47 -17q9 29 9 61q0 33 -7 61h-139v120h594v-120h-68zM312 335
q24 0 42 2t37 7v158h-122q4 -16 7 -35t3 -42q0 -26 -4.5 -47.5t-11.5 -38.5q23 -4 49 -4z" />
    <glyph glyph-name="hadeva" unicode="&#x939;" horiz-adv-x="443" 
d="M242 74q19 8 31 18.5t12 29.5q0 40 -49 40q-32 0 -52 -19.5t-20 -54.5q0 -42 20.5 -79t68.5 -90l-103 -72q-40 47 -67 86.5t-40.5 78t-13.5 84.5q0 37 12 66.5t32 51.5q-14 21 -25 48t-11 62q0 28 10.5 50t27.5 38q21 20 52 29t95 9h32v52h-254v120h455v-120h-68v-167
h-174q-17 0 -25 -2.5t-12 -7.5q-7 -6 -7 -19q0 -17 11 -34q26 5 53 5q67 0 107.5 -22t58.5 -57.5t18 -76.5q0 -60 -31.5 -94.5t-89.5 -59.5z" />
    <glyph glyph-name="oevowelsigndeva" unicode="&#x93a;" 
d="M-191 616v189h135v-189h-135z" />
    <glyph glyph-name="ooevowelsigndeva" unicode="&#x93b;" horiz-adv-x="247" 
d="M191 502v-502h-135v502h-56v120h259v-120h-68zM56 616v189h135v-189h-135z" />
    <glyph glyph-name="nuktadeva" unicode="&#x93c;" 
d="M-272 -134q0 32 18 52.5t50 20.5t49.5 -20.5t17.5 -52.5t-17.5 -52.5t-49.5 -20.5t-50 20.5t-18 52.5z" />
    <glyph glyph-name="avagrahadeva" unicode="&#x93d;" horiz-adv-x="431" 
d="M408 184q0 -73 -41.5 -113.5t-120.5 -40.5q-46 0 -88 19t-77.5 68t-62.5 140l118 35q25 -76 48.5 -108t52.5 -32q17 0 26 10t9 26q0 14 -4.5 28.5t-18 35t-39.5 52.5q-38 46 -62.5 88t-24.5 89q0 69 48 107q24 17 55.5 25.5t90.5 8.5h73v-120h-90q-26 0 -34 -7t-8 -19
q0 -14 11.5 -31t46.5 -60t55 -76t28.5 -63t8.5 -62z" />
    <glyph glyph-name="aavowelsigndeva" unicode="&#x93e;" horiz-adv-x="247" 
d="M191 502v-502h-135v502h-56v120h259v-120h-68z" />
    <glyph glyph-name="ivowelsigndeva" unicode="&#x93f;" horiz-adv-x="247" 
d="M56 502h-56v120h53q-7 21 -13.5 45.5t-6.5 53.5q0 79 55.5 127t158.5 48q95 0 171.5 -39t137.5 -103t110 -139h-157q-53 73 -116.5 116.5t-131.5 43.5q-49 0 -71 -21.5t-22 -59.5q0 -21 4 -39t10 -33h77v-120h-68v-502h-135v502z" />
    <glyph glyph-name="iivowelsigndeva" unicode="&#x940;" horiz-adv-x="247" 
d="M-189 615q-10 28 -16.5 59t-6.5 62q0 73 45 116.5t122 43.5q69 0 113 -34.5t69.5 -96t40.5 -143.5h81v-120h-68v-502h-135v502h-56v120h59q-17 70 -38 112t-53 42q-47 0 -47 -67q0 -28 5 -51.5t12 -42.5h-127z" />
    <glyph glyph-name="uvowelsigndeva" unicode="&#x941;" 
d="M-234 13q23 10 46.5 15t49.5 5q66 0 103 -42.5t37 -110.5q0 -64 -39.5 -106t-116.5 -42q-82 0 -139.5 46t-105.5 123l99 53q28 -44 50 -69t43 -34.5t45 -9.5t36 11t12 30q0 43 -40 43q-20 0 -43 -10z" />
    <glyph glyph-name="uuvowelsigndeva" unicode="&#x942;" 
d="M-61 -248q-41 -20 -97 -20q-64 0 -101.5 44t-37.5 109t39.5 106.5t113.5 41.5q59 0 104 -27.5t81.5 -76.5t70.5 -116l-101 -46q-30 55 -52.5 90t-44.5 51t-49 16q-21 0 -33.5 -11t-12.5 -31q0 -41 40 -41q21 0 42 9z" />
    <glyph glyph-name="rvocalicvowelsigndeva" unicode="&#x943;" 
d="M37 -238q-27 -13 -58.5 -21.5t-73.5 -8.5q-67 0 -108 41.5t-41 110.5q0 73 47 114t133 54l16 -108q-75 -16 -75 -62q0 -25 15 -33t30 -8q17 0 34.5 4.5t38.5 15.5z" />
    <glyph glyph-name="ecandravowelsigndeva" unicode="&#x945;" 
d="M48 870q-14 -114 -58 -163.5t-127 -49.5q-75 0 -120 51.5t-70 157.5l92 28q17 -74 39 -104.5t60 -30.5q42 0 61.5 30.5t25.5 104.5z" />
    <glyph glyph-name="eshortvowelsigndeva" unicode="&#x946;" 
d="M-186 615q-14 61 -26.5 81.5t-36.5 20.5q-8 0 -20 -1t-20 -1q-39 0 -69 32.5t-53 120.5l99 28q13 -42 25.5 -56.5t35.5 -14.5q11 0 23.5 1.5t30.5 1.5q29 0 51.5 -16.5t41.5 -62t35 -134.5h-117z" />
    <glyph glyph-name="evowelsigndeva" unicode="&#x947;" 
d="M-186 615q-19 84 -37 121t-51 37q-24 0 -45 -9l-35 114q43 18 86 18q33 0 62 -11.5t54.5 -42t46.5 -85.5t36 -142h-117z" />
    <glyph glyph-name="aivowelsigndeva" unicode="&#x948;" 
d="M-191 615q-27 38 -47 49t-41 11q-26 0 -57 -14l-29 90q19 7 39 12t37 5q27 0 48 -11t46 -49h4q-23 59 -41 77t-43 18q-26 0 -53 -11l-26 88q20 7 42.5 11.5t43.5 4.5q33 0 62 -11.5t54.5 -42t46.5 -85.5t36 -142h-122z" />
    <glyph glyph-name="ocandravowelsigndeva" unicode="&#x949;" horiz-adv-x="247" 
d="M191 502v-502h-135v502h-56v120h259v-120h-68zM286 870q-14 -114 -58 -163.5t-127 -49.5q-75 0 -120 51.5t-70 157.5l92 28q17 -74 39 -104.5t60 -30.5q42 0 61.5 30.5t25.5 104.5z" />
    <glyph glyph-name="oshortvowelsigndeva" unicode="&#x94a;" horiz-adv-x="247" 
d="M191 502v-502h-135v502h-56v120h259v-120h-68zM61 615q-14 61 -26.5 81.5t-36.5 20.5q-8 0 -20 -1t-20 -1q-39 0 -69 32.5t-53 120.5l99 28q13 -42 25.5 -56.5t35.5 -14.5q11 0 23.5 1.5t30.5 1.5q29 0 51.5 -16.5t41.5 -62t35 -134.5h-117z" />
    <glyph glyph-name="ovowelsigndeva" unicode="&#x94b;" horiz-adv-x="247" 
d="M191 502v-502h-135v502h-56v120h259v-120h-68zM61 615q-19 84 -37 121t-51 37q-24 0 -45 -9l-35 114q43 18 86 18q33 0 62 -11.5t54.5 -42t46.5 -85.5t36 -142h-117z" />
    <glyph glyph-name="auvowelsigndeva" unicode="&#x94c;" horiz-adv-x="247" 
d="M191 502v-502h-135v502h-56v120h259v-120h-68zM56 615q-27 38 -47 49t-41 11q-26 0 -57 -14l-29 90q19 7 39 12t37 5q27 0 48 -11t46 -49h4q-23 59 -41 77t-43 18q-26 0 -53 -11l-26 88q20 7 42.5 11.5t43.5 4.5q33 0 62 -11.5t54.5 -42t46.5 -85.5t36 -142h-122z" />
    <glyph glyph-name="viramadeva" unicode="&#x94d;" 
d="M-199 -32q16 4 32.5 6t37.5 2q53 0 93 -23.5t73 -67t65 -103.5l-99 -50q-29 49 -50 77t-42 40t-48 12q-9 0 -20 -1t-21 -4z" />
    <glyph glyph-name="uni094E" unicode="&#x94e;" horiz-adv-x="260" 
d="M203 502v-502h-134v622h203v-120h-69z" />
    <glyph glyph-name="awvowelsigndeva" unicode="&#x94f;" horiz-adv-x="247" 
d="M191 502v-502h-135v502h-56v120h259v-120h-68zM24 615q-9 54 -49 54q-9 0 -21 -1.5t-26 -1.5q-19 0 -37.5 11.5t-35 41.5t-30.5 85l93 26q11 -35 21 -53t30 -18q15 0 27.5 1.5t25.5 1.5q36 0 60.5 -30t36.5 -106q10 30 10 58q0 26 -10.5 38.5t-23.5 18.5l-49 26
q-30 16 -44.5 39.5t-14.5 75.5v6.5t1 7.5h107q-1 -3 -1 -6v-5q0 -19 6 -28.5t19 -14.5l34 -15q75 -30 75 -117q0 -26 -5 -51.5t-12 -43.5h-187z" />
    <glyph glyph-name="omdeva" unicode="&#x950;" horiz-adv-x="822" 
d="M421 821q0 24 13.5 39t38.5 15t39.5 -15.5t14.5 -40.5t-14.5 -41t-39.5 -16q-23 0 -37.5 16.5t-14.5 42.5zM657 850q-13 -119 -59 -168.5t-125 -49.5q-73 0 -119 52t-71 161l88 28q19 -77 41.5 -111.5t60.5 -34.5q44 0 63 35.5t27 111.5zM423 209q0 -73 -41 -111.5
t-119 -38.5q-59 0 -104 27t-80 90.5t-63 171.5l122 31q25 -103 53 -151t63 -48q19 0 27.5 12t8.5 28q0 26 -8.5 46.5t-22.5 37.5q-18 -4 -39 -6l-14 114q74 8 74 54q0 45 -50 45q-16 0 -35 -5t-38 -16l-41 112q32 14 63.5 22t72.5 8q76 0 118.5 -44.5t42.5 -114.5
q0 -40 -13.5 -70t-37.5 -51q13 -18 27 -18q16 0 26.5 9t21.5 32l27 58q29 61 66.5 87.5t94.5 26.5q78 0 122 -51.5t44 -142.5q0 -97 -39.5 -148.5t-122.5 -51.5q-42 0 -74.5 12t-55.5 30l65 98q23 -20 47 -20q23 0 34.5 19t11.5 62q0 40 -9 56.5t-25 16.5q-10 0 -18.5 -8
t-18.5 -29l-30 -66q-26 -57 -56 -79t-71 -22h-7q1 -7 1 -14z" />
    <glyph glyph-name="udattadeva" unicode="&#x951;" 
d="M-82 670h-88v212h88v-212z" />
    <glyph glyph-name="anudattadeva" unicode="&#x952;" 
d="M-365 -65h311v-95h-311v95z" />
    <glyph glyph-name="uni0953" unicode="&#x953;" 
d="M-169 683l-87 203h135l54 -203h-102z" />
    <glyph glyph-name="uni0954" unicode="&#x954;" 
d="M8 886l-86 -203h-103l55 203h134z" />
    <glyph glyph-name="candralongevowelsigndeva" unicode="&#x955;" 
d="M-291 731h115q-47 10 -76.5 46t-45.5 92l85 27q14 -54 31.5 -73t42.5 -19t41 20t23 72l90 -22q-22 -124 -112 -143h106v-81h-300v81z" />
    <glyph glyph-name="uevowelsigndeva" unicode="&#x956;" 
d="M-241 -206q-53 0 -97.5 16.5t-77.5 43.5l37 102q31 -22 64 -32.5t74 -10.5q35 0 67.5 8.5t69.5 34.5l37 -102q-33 -26 -76.5 -43t-97.5 -17z" />
    <glyph glyph-name="uuevowelsigndeva" unicode="&#x957;" 
d="M-234 -147q-44 0 -83.5 12.5t-81.5 37.5l25 82q33 -19 64.5 -29.5t75.5 -10.5t76 9.5t66 30.5l25 -82q-81 -50 -167 -50zM-234 -268q-50 0 -91 12.5t-74 32.5l22 81q67 -34 143 -34q40 0 74 7.5t71 26.5l22 -81q-37 -23 -76 -34t-91 -11z" />
    <glyph glyph-name="qadeva" unicode="&#x958;" horiz-adv-x="651" 
d="M663 502h-244v-130q17 14 36 21t43 7q57 0 92.5 -42.5t35.5 -122.5q0 -49 -13 -100t-42 -107l-117 58q16 33 27 69.5t11 72.5q0 28 -7.5 40t-20.5 12q-24 0 -45 -39v-241h-135v114q-20 -15 -42.5 -22t-51.5 -7q-73 0 -118.5 44.5t-45.5 136.5q0 82 42.5 131.5t124.5 49.5
q19 0 35.5 -2t33.5 -6l-10 -118q-8 2 -18 3.5t-22 1.5q-52 0 -52 -61q0 -37 14.5 -48.5t34.5 -11.5q24 0 42 13.5t33 35.5v248h-284v120h663v-120zM79 -31q0 32 18 52.5t50 20.5t49.5 -20.5t17.5 -52.5t-17.5 -52.5t-49.5 -20.5t-50 20.5t-18 52.5z" />
    <glyph glyph-name="khhadeva" unicode="&#x959;" horiz-adv-x="690" 
d="M633 502v-502h-134v27q-29 -13 -59.5 -18.5t-65.5 -5.5q-74 0 -133 29.5t-104 76.5t-77 100q-38 63 -38 114q0 30 16.5 52t51.5 22q26 0 47 -17q9 29 9 61q0 33 -7 61h-139v120h702v-120h-69zM444 273q30 0 55 28v201h-230q4 -16 7 -35t3 -42q0 -64 -25.5 -110t-66.5 -75
q42 -60 87 -89.5t109 -29.5q32 0 59 5.5t57 20.5v40q-32 -19 -73 -19q-58 0 -96.5 37t-38.5 114q0 67 33.5 107t100.5 40q13 0 28 -1.5t25 -4.5l-8 -101q-6 1 -12.5 2.5t-12.5 1.5q-35 0 -35 -46q0 -25 9.5 -34.5t24.5 -9.5zM78 -28q0 32 18 52.5t50 20.5t49.5 -20.5
t17.5 -52.5t-17.5 -52.5t-49.5 -20.5t-50 20.5t-18 52.5z" />
    <glyph glyph-name="ghhadeva" unicode="&#x95a;" horiz-adv-x="494" 
d="M216 502v-285q0 -77 -60 -77q-34 0 -64 25.5t-49 62t-19 70.5q0 28 12 46.5t46 21.5v136h-82v120h506v-120h-68v-502h-134v502h-88zM50 1q0 32 18 52.5t50 20.5t49.5 -20.5t17.5 -52.5t-17.5 -52.5t-49.5 -20.5t-50 20.5t-18 52.5z" />
    <glyph glyph-name="zadeva" unicode="&#x95b;" horiz-adv-x="666" 
d="M609 502v-502h-134v315h-50q-9 0 -22 0.5t-26 1.5q42 -50 42 -117q0 -65 -39.5 -103t-112.5 -38q-60 0 -106.5 27.5t-82.5 96t-64 192.5l122 32q20 -84 37.5 -133.5t36.5 -71.5t42 -22q34 0 34 40q0 33 -18.5 65.5t-46.5 61.5l44 85h210v70h-475v120h678v-120h-69z
M177 -73q0 32 18 52.5t50 20.5t49.5 -20.5t17.5 -52.5t-17.5 -52.5t-49.5 -20.5t-50 20.5t-18 52.5z" />
    <glyph glyph-name="dddhadeva" unicode="&#x95c;" horiz-adv-x="492" 
d="M278 193q-22 0 -43 -3.5t-39 -9.5q-36 30 -61.5 68t-25.5 84q0 53 34 84q16 14 43 24t81 10h29v52h-296v120h504v-120h-77v-153h-151q-15 0 -21.5 -1.5t-10.5 -5.5q-5 -5 -5 -15q0 -19 13 -36q27 7 59 7q80 0 118 -42t38 -104q0 -64 -44 -108t-143 -44q-88 0 -153.5 35
t-115.5 83l88 94q46 -45 86 -70t90 -25q30 0 44 8.5t14 29.5q0 18 -12 28t-43 10zM199 -134q0 32 18 52.5t50 20.5t49.5 -20.5t17.5 -52.5t-17.5 -52.5t-49.5 -20.5t-50 20.5t-18 52.5z" />
    <glyph glyph-name="rhadeva" unicode="&#x95d;" horiz-adv-x="475" 
d="M263 0q-72 0 -125 28.5t-82 80t-29 122.5q0 69 28 116t76.5 72.5t109.5 28.5v54h-241v120h487v-120h-114v-168h-61q-42 0 -71 -6.5t-48 -22.5q-17 -13 -26 -32t-9 -49q0 -37 12 -61.5t32 -37.5q-6 27 -6 54q0 50 31 86t96 36q47 0 76.5 -20t43 -51.5t13.5 -67.5
q0 -76 -52 -119t-141 -43zM290 157q0 -23 9 -45q21 2 35 15t14 36q0 36 -27 36q-17 0 -24 -13t-7 -29zM174 -134q0 32 18 52.5t50 20.5t49.5 -20.5t17.5 -52.5t-17.5 -52.5t-49.5 -20.5t-50 20.5t-18 52.5z" />
    <glyph glyph-name="fadeva" unicode="&#x95e;" horiz-adv-x="653" 
d="M419 502v-130q17 14 36.5 21t42.5 7q58 0 93.5 -42.5t35.5 -122.5q0 -49 -13 -100t-42 -107l-118 58q16 33 27.5 69.5t11.5 72.5q0 28 -7.5 40t-21.5 12q-24 0 -45 -39v-241h-134v143q-20 -11 -40.5 -16t-42.5 -5q-43 0 -71.5 15t-47.5 38q-18 23 -27 56t-9 97v174h-47
v120h665v-120h-246zM181 502v-176q0 -32 2.5 -46t10.5 -25q11 -14 31 -14q19 0 34 8.5t26 21.5v231h-104zM79 -1q0 32 18 52.5t50 20.5t49.5 -20.5t17.5 -52.5t-17.5 -52.5t-49.5 -20.5t-50 20.5t-18 52.5z" />
    <glyph glyph-name="yyadeva" unicode="&#x95f;" horiz-adv-x="505" 
d="M517 622v-120h-68v-502h-135v128q-21 -13 -44.5 -18t-54.5 -5q-85 0 -132 64.5t-64 180.5q43 13 61 36t18 61q0 13 -3 27.5t-8 27.5h-87v120h517zM161 294q9 -33 26 -51.5t43 -18.5q28 0 48 11.5t36 31.5v235h-96q6 -17 10.5 -36.5t4.5 -40.5q0 -50 -20 -81t-52 -50z
M75 -7q0 32 18 52.5t50 20.5t49.5 -20.5t17.5 -52.5t-17.5 -52.5t-49.5 -20.5t-50 20.5t-18 52.5z" />
    <glyph glyph-name="rrvocalicdeva" unicode="&#x960;" horiz-adv-x="732" 
d="M115 37l-77 99l177 123q-23 34 -38 43.5t-35 9.5q-21 0 -41.5 -8t-42.5 -20l-42 116q32 16 63 25.5t63 9.5q35 0 59.5 -11t45 -34.5t44.5 -61.5v174h-291v120h744v-120h-319v-173q16 1 32.5 4t31.5 7q-1 10 -1 19q0 40 23 60t52 20q44 0 63.5 -28.5t19.5 -61.5
q0 -25 -8 -43.5t-22 -28.5q10 -23 20 -43.5t23 -44.5l-23 -39q-22 -7 -36 -17.5t-14 -28.5q0 -19 12 -26.5t30 -7.5q20 0 38.5 6t38.5 17l41 -94q-23 -11 -52.5 -20t-61.5 -11q-5 -10 -5 -22q0 -18 11.5 -25t29.5 -7q21 0 39 6t39 17l40 -94q-26 -13 -59 -22.5t-72 -9.5
q-72 0 -111 36.5t-39 99.5q0 26 10 47q-51 36 -51 109q0 78 70 119q-4 9 -7 18q-45 -17 -102 -23v-217h-134v179z" />
    <glyph glyph-name="llvocalicdeva" unicode="&#x961;" horiz-adv-x="599" 
d="M172 425q38 0 65 -11t55 -34q27 25 62 35v87h-354v120h611v-120h-125v-92q42 -18 62 -57t20 -93q0 -42 -7 -75t-18 -64q-45 -8 -63.5 -21.5t-18.5 -32.5t11.5 -26t30.5 -7q20 0 38 5.5t39 16.5l40 -94q-23 -11 -52 -20t-63 -11q-4 -10 -4 -21q0 -19 11.5 -25.5t29.5 -6.5
q38 0 78 22l40 -94q-26 -13 -59 -22.5t-71 -9.5q-73 0 -112 37t-39 100q0 25 10 47q-50 36 -50 109q0 45 23 77t66 52q4 14 6 28.5t2 30.5q0 29 -10 40t-24 11q-11 0 -24 -8.5t-24.5 -35t-20.5 -79.5l-120 32q7 37 18 68q-18 20 -37 20t-27 -14.5t-8 -34.5q0 -47 29 -95
t74 -104l-103 -72q-61 72 -97.5 143.5t-36.5 134.5q0 61 23 96.5t57.5 51.5t66.5 16z" />
    <glyph glyph-name="dandadeva" unicode="&#x964;" horiz-adv-x="374" 
d="M158 622h135v-622h-135v622z" />
    <glyph glyph-name="dbldandadeva" unicode="&#x965;" horiz-adv-x="583" 
d="M368 622h135v-622h-135v622zM158 622h135v-622h-135v622z" />
    <glyph glyph-name="zerodeva" unicode="&#x966;" horiz-adv-x="474" 
d="M237 99q-89 0 -144 58.5t-55 163.5q0 103 55 161.5t142 58.5q89 0 144.5 -58t55.5 -164q0 -105 -52.5 -162.5t-145.5 -57.5zM234 219q63 0 63 103q0 98 -61 98q-28 0 -45 -26t-17 -76q0 -48 16 -73.5t44 -25.5z" />
    <glyph glyph-name="onedeva" unicode="&#x967;" horiz-adv-x="474" 
d="M236 632q82 0 124.5 -46t42.5 -113q0 -37 -12 -72.5t-43.5 -74t-88.5 -81.5l60 -55q49 -45 68.5 -83t19.5 -81q0 -35 -16 -70t-45 -67l-102 77q9 10 17 22.5t8 29.5q0 20 -9 34t-33 37l-148 141l6 48q83 59 132.5 109.5t49.5 90.5q0 18 -8.5 30t-26.5 12
q-16 0 -24.5 -9.5t-8.5 -22.5q0 -16 9 -27.5t25 -20.5l-74 -76q-38 24 -60.5 56t-22.5 79q0 55 41.5 94t118.5 39z" />
    <glyph glyph-name="twodeva" unicode="&#x968;" horiz-adv-x="474" 
d="M439 52l-107 -68q-33 52 -70 102t-72 91h-15q-27 0 -52 9.5t-40.5 29.5t-15.5 52q0 35 22.5 56t56.5 21q14 0 33.5 -6t38.5 -23q21 16 35 42t14 63q0 46 -22 68.5t-61 22.5q-26 0 -49 -6.5t-43 -14.5l-40 111q35 14 72 22t82 8q89 0 144 -52t55 -157q0 -68 -26.5 -122
t-73.5 -86q34 -36 68 -77t66 -86z" />
    <glyph glyph-name="threedeva" unicode="&#x969;" horiz-adv-x="474" 
d="M59 602q34 13 70.5 21.5t80.5 8.5q58 0 94.5 -20.5t54.5 -55t18 -75.5q0 -34 -10 -59t-25 -45q29 -21 46 -53.5t17 -72.5q0 -50 -24 -91t-70 -66l51 -55.5t48 -59.5l-104 -66l-58.5 79t-58.5 73h-15q-50 0 -80.5 23.5t-30.5 67.5q0 37 22 57t57 20q15 0 37.5 -7.5
t43.5 -30.5q25 9 35.5 24t10.5 36q0 38 -33 52q-35 -10 -80 -12l-5 114q49 2 69.5 18t20.5 40q0 25 -15 35t-38 10q-24 0 -46.5 -6t-46.5 -16z" />
    <glyph glyph-name="fourdeva" unicode="&#x96a;" horiz-adv-x="474" 
d="M400 149q0 -68 -41 -109.5t-124 -41.5q-85 0 -128.5 42.5t-43.5 110.5q0 43 17 85.5t68 97.5q-54 56 -78.5 98t-30.5 74t-6 58q0 20 3.5 37t7.5 31l133 -21q-3 -9 -5 -20.5t-2 -25.5q0 -35 13 -69.5t54 -81.5q32 36 46.5 63t18.5 48.5t4 39.5q0 13 -2.5 25l-4.5 22
l133 20q11 -30 11 -68q0 -26 -7 -59t-33 -76t-82 -98q48 -54 63.5 -95.5t15.5 -86.5zM195 163q0 -21 10.5 -33t28.5 -12q15 0 26.5 11t11.5 37q0 18 -8 37t-30 46q-22 -28 -30.5 -47t-8.5 -39z" />
    <glyph glyph-name="fivedeva" unicode="&#x96b;" horiz-adv-x="474" 
d="M363 -68q-27 58 -52.5 124t-42.5 121h-14q-38 0 -75 11.5t-68 38.5t-49.5 74t-18.5 117q0 47 14 101.5t40 112.5l139 -46q-28 -52 -42.5 -93t-14.5 -89q0 -45 17 -73.5t51 -34.5v11q0 41 21 61.5t58 20.5q43 0 67.5 -30.5t24.5 -71.5q0 -29 -10.5 -49t-30.5 -33l31 -74
t36 -79l35 -69z" />
    <glyph glyph-name="sixdeva" unicode="&#x96c;" horiz-adv-x="474" 
d="M354 -111q-22 51 -40 99.5t-30 84.5h-14q-64 0 -109 25t-68.5 67.5t-23.5 94.5q0 59 35 99q-54 44 -54 122q0 73 47 112t126 39q56 0 111 -11l-12 -117q-18 4 -38 6.5t-42 2.5q-31 0 -44.5 -11.5t-13.5 -30.5q0 -25 27 -42q23 5 51 5q16 0 35 -2.5t27 -4.5l-12 -116
q-18 3 -41 3q-27 0 -47.5 -13.5t-20.5 -43.5q0 -53 61 -62v7q0 38 23 56.5t54 18.5q46 0 70.5 -28t24.5 -70q0 -56 -43 -82q14 -34 34.5 -77l41.5 -83z" />
    <glyph glyph-name="sevendeva" unicode="&#x96d;" horiz-adv-x="474" 
d="M448 272q0 -128 -45 -184.5t-126 -56.5q-55 0 -100 25.5t-78 87.5t-53 171.5t-26 277.5l120 14q3 -79 9 -143q10 41 42 66t79 25q56 0 96 -35.5t61 -99.5t21 -148zM288 260q-91 21 -125 84q31 -191 104 -191q29 0 38.5 30t9.5 100t-10.5 115t-34.5 45q-10 0 -16 -8
t-6 -21q0 -24 17.5 -37t39.5 -18z" />
    <glyph glyph-name="eightdeva" unicode="&#x96e;" horiz-adv-x="474" 
d="M238 0q-48 0 -91 20t-70 60.5t-27 103.5q0 50 17 94.5t56 107.5l154 247l134 -84l-191 -295q-16 -26 -23.5 -43t-7.5 -33q0 -25 16 -40t47 -15q34 0 67 11t79 41l52 -120q-52 -28 -100 -41.5t-112 -13.5z" />
    <glyph glyph-name="ninedeva" unicode="&#x96f;" horiz-adv-x="474" 
d="M43 448q0 51 20 92.5t59.5 66.5t98.5 25q82 0 129.5 -49.5t47.5 -131.5q0 -59 -27.5 -106t-99.5 -62q12 -9 23 -19l20 -18l54 -50q50 -45 69 -83.5t19 -80.5q0 -36 -16 -71.5t-45 -65.5l-102 77q10 10 17.5 22.5t7.5 29.5q0 20 -8.5 34.5t-32.5 37.5l-100 97
q-73 70 -103.5 129.5t-30.5 125.5zM168 449q0 -61 46 -61q22 0 36 16.5t14 46.5t-13.5 45t-33.5 15q-22 0 -35.5 -15.5t-13.5 -46.5z" />
    <glyph glyph-name="abbreviationsigndeva" unicode="&#x970;" horiz-adv-x="383" 
d="M196 262q-64 0 -105.5 41.5t-41.5 115.5q0 68 38.5 112.5t108.5 44.5q67 0 107 -43t40 -114t-39.5 -114t-107.5 -43zM196 358q22 0 34 16.5t12 44.5q0 27 -12 44t-34 17t-34 -17.5t-12 -43.5q0 -29 13 -45t33 -16z" />
    <glyph glyph-name="uni0971" unicode="&#x971;" horiz-adv-x="271" 
d="M73 568q0 34 19.5 54.5t51.5 20.5t50.5 -21.5t18.5 -53.5q0 -33 -18.5 -54t-50.5 -21q-33 0 -52 21t-19 54z" />
    <glyph glyph-name="acandradeva" unicode="&#x972;" horiz-adv-x="682" 
d="M423 209q0 -72 -41 -111t-119 -39q-59 0 -104 27t-80 90.5t-63 171.5l122 31q25 -103 53 -151t63 -48q19 0 27.5 12t8.5 28q0 26 -8.5 46.5t-21.5 38.5q-19 -5 -40 -7l-14 114q74 8 74 54q0 45 -50 45q-16 0 -35 -5t-38 -16l-41 112q32 14 63.5 22t72.5 8
q76 0 118.5 -44.5t42.5 -114.5q0 -37 -11.5 -65.5t-32.5 -49.5q3 -3 5 -6q23 -4 46 -4q19 0 36 2.5t36 9.5v142h-43v120h245v-120h-68v-502h-134v244q-15 -6 -30 -7.5t-30 -1.5h-10q1 -13 1 -26zM716 870q-14 -114 -58 -163.5t-127 -49.5q-75 0 -120 51.5t-70 157.5l92 28
q17 -74 39 -104.5t60 -30.5q42 0 61.5 30.5t25.5 104.5z" />
    <glyph glyph-name="oedeva" unicode="&#x973;" horiz-adv-x="682" 
d="M423 209q0 -72 -41 -111t-119 -39q-59 0 -104 27t-80 90.5t-63 171.5l122 31q25 -103 53 -151t63 -48q19 0 27.5 12t8.5 28q0 26 -8.5 46.5t-21.5 38.5q-19 -5 -40 -7l-14 114q74 8 74 54q0 45 -50 45q-16 0 -35 -5t-38 -16l-41 112q32 14 63.5 22t72.5 8
q76 0 118.5 -44.5t42.5 -114.5q0 -37 -11.5 -65.5t-32.5 -49.5q3 -3 5 -6q23 -4 46 -4q19 0 36 2.5t36 9.5v142h-43v120h245v-120h-68v-502h-134v244q-15 -6 -30 -7.5t-30 -1.5h-10q1 -13 1 -26zM491 616v189h135v-189h-135z" />
    <glyph glyph-name="ooedeva" unicode="&#x974;" horiz-adv-x="915" 
d="M423 209q0 -72 -41 -111t-119 -39q-59 0 -104 27t-80 90.5t-63 171.5l122 31q25 -103 53 -151t63 -48q19 0 27.5 12t8.5 28q0 26 -8.5 46.5t-21.5 38.5q-19 -5 -40 -7l-14 114q74 8 74 54q0 45 -50 45q-16 0 -35 -5t-38 -16l-41 112q32 14 63.5 22t72.5 8
q76 0 118.5 -44.5t42.5 -114.5q0 -37 -11.5 -65.5t-32.5 -49.5q3 -3 5 -6q23 -4 46 -4q19 0 36 2.5t36 9.5v142h-43v120h478v-120h-68v-502h-135v502h-98v-502h-134v244q-15 -6 -30 -7.5t-30 -1.5h-10q1 -13 1 -26zM724 616v189h135v-189h-135z" />
    <glyph glyph-name="awdeva" unicode="&#x975;" horiz-adv-x="915" 
d="M423 209q0 -72 -41 -111t-119 -39q-59 0 -104 27t-80 90.5t-63 171.5l122 31q25 -103 53 -151t63 -48q19 0 27.5 12t8.5 28q0 26 -8.5 46.5t-21.5 38.5q-19 -5 -40 -7l-14 114q74 8 74 54q0 45 -50 45q-16 0 -35 -5t-38 -16l-41 112q32 14 63.5 22t72.5 8
q76 0 118.5 -44.5t42.5 -114.5q0 -37 -11.5 -65.5t-32.5 -49.5q3 -3 5 -6q23 -4 46 -4q19 0 36 2.5t36 9.5v142h-43v120h478v-120h-68v-502h-135v502h-98v-502h-134v244q-15 -6 -30 -7.5t-30 -1.5h-10q1 -13 1 -26zM692 615q-9 54 -49 54q-9 0 -21 -1.5t-26 -1.5
q-19 0 -37.5 11.5t-35 41.5t-30.5 85l93 26q11 -35 21 -53t30 -18q15 0 27.5 1.5t25.5 1.5q36 0 60.5 -30t36.5 -106q10 30 10 58q0 26 -10.5 38.5t-23.5 18.5l-49 26q-30 16 -44.5 39.5t-14.5 75.5v6.5t1 7.5h107q-1 -3 -1 -6v-5q0 -19 6 -28.5t19 -14.5l34 -15
q75 -30 75 -117q0 -26 -5 -51.5t-12 -43.5h-187z" />
    <glyph glyph-name="uedeva" unicode="&#x976;" horiz-adv-x="682" 
d="M423 209q0 -72 -41 -111t-119 -39q-59 0 -104 27t-80 90.5t-63 171.5l122 31q25 -103 53 -151t63 -48q19 0 27.5 12t8.5 28q0 26 -8.5 46.5t-21.5 38.5q-19 -5 -40 -7l-14 114q74 8 74 54q0 45 -50 45q-16 0 -35 -5t-38 -16l-41 112q32 14 63.5 22t72.5 8
q76 0 118.5 -44.5t42.5 -114.5q0 -37 -11.5 -65.5t-32.5 -49.5q3 -3 5 -6q23 -4 46 -4q19 0 36 2.5t36 9.5v142h-43v120h245v-120h-68v-502h-134v244q-15 -6 -30 -7.5t-30 -1.5h-10q1 -13 1 -26zM442 -206q-53 0 -97.5 16.5t-77.5 43.5l37 102q31 -22 64 -32.5t74 -10.5
q35 0 67.5 8.5t69.5 34.5l37 -102q-33 -26 -76.5 -43t-97.5 -17z" />
    <glyph glyph-name="uuedeva" unicode="&#x977;" horiz-adv-x="682" 
d="M423 209q0 -72 -41 -111t-119 -39q-59 0 -104 27t-80 90.5t-63 171.5l122 31q25 -103 53 -151t63 -48q19 0 27.5 12t8.5 28q0 26 -8.5 46.5t-21.5 38.5q-19 -5 -40 -7l-14 114q74 8 74 54q0 45 -50 45q-16 0 -35 -5t-38 -16l-41 112q32 14 63.5 22t72.5 8
q76 0 118.5 -44.5t42.5 -114.5q0 -37 -11.5 -65.5t-32.5 -49.5q3 -3 5 -6q23 -4 46 -4q19 0 36 2.5t36 9.5v142h-43v120h245v-120h-68v-502h-134v244q-15 -6 -30 -7.5t-30 -1.5h-10q1 -13 1 -26zM449 -147q-44 0 -83.5 12.5t-81.5 37.5l25 82q33 -19 64.5 -29.5t75.5 -10.5
t76 9.5t66 30.5l25 -82q-81 -50 -167 -50zM449 -268q-50 0 -91 12.5t-74 32.5l22 81q67 -34 143 -34q40 0 74 7.5t71 26.5l22 -81q-37 -23 -76 -34t-91 -11z" />
    <glyph glyph-name="marwariddadeva" unicode="&#x978;" horiz-adv-x="479" 
d="M216 502v-87q28 4 55 4q71 0 111 -27t56 -69.5t16 -91.5q0 -55 -13 -107t-42 -108l-117 58q16 33 27 70.5t11 79.5q0 34 -15.5 55t-49.5 21q-19 0 -39 -4v-52q0 -77 -60 -77q-26 0 -49.5 15t-42 38.5t-29.5 50.5t-11 51q0 28 12.5 45t45.5 28v107h-82v120h491v-120h-275z
" />
    <glyph glyph-name="zhadeva" unicode="&#x979;" horiz-adv-x="662" 
d="M605 502v-520h-134v346h-49q-10 0 -23.5 0.5t-27.5 1.5q23 -25 35 -52t12 -57q0 -64 -42 -96t-105 -32q-65 0 -112.5 28.5t-82.5 95t-62 180.5l122 32q26 -108 52.5 -162t64.5 -54q33 0 33 35q0 30 -19 60t-45 55l41 81h208v58h-471v120h674v-120h-69zM288 28
q0 26 14 42.5t40 16.5t40 -16.5t14 -42.5t-14 -41.5t-40 -15.5t-40 15.5t-14 41.5zM146 28q0 26 14.5 42.5t40.5 16.5q25 0 39 -16.5t14 -42.5t-14 -41.5t-39 -15.5q-26 0 -40.5 15.5t-14.5 41.5zM218 -78q0 26 14 42.5t40 16.5t40 -16.5t14 -42.5t-14 -42t-40 -16t-40 16
t-14 42z" />
    <glyph glyph-name="heavyyadeva" unicode="&#x97a;" horiz-adv-x="509" 
d="M453 502v-502h-134v125q-23 -15 -47.5 -21t-56.5 -6q-85 0 -132 65t-64 181q43 15 61 38t18 62q0 28 -11 58h-87v120h521v-120h-68zM318 502h-102l102 -201v201zM242 302q-10 20 -24 52q-9 -24 -25 -40t-32 -26q19 -71 69 -71q27 0 49 13zM318 247v5l-1 -1z" />
    <glyph glyph-name="gabardeva" unicode="&#x97b;" horiz-adv-x="494" 
d="M68 77h236v425h-88v-264q0 -77 -60 -77q-34 0 -64 25.5t-49 62t-19 70.5q0 27 12 46t46 22v115h-82v120h506v-120h-68v-520h-370v95z" />
    <glyph glyph-name="jabardeva" unicode="&#x97c;" horiz-adv-x="658" 
d="M67 77h400v251h-45q-10 0 -23.5 0.5t-26.5 1.5q22 -25 34 -52t12 -57q0 -64 -42 -96t-105 -32q-65 0 -112.5 28.5t-82.5 95t-62 180.5l122 32q26 -108 52.5 -162t64.5 -54q33 0 33 35q0 30 -19 60t-45 55l41 81h204v58h-467v120h670v-120h-68v-520h-535v95z" />
    <glyph glyph-name="uni097D" unicode="&#x97d;" horiz-adv-x="398" 
d="M185 632q61 0 101.5 -27t60.5 -72t20 -99q0 -58 -17.5 -97t-46 -64t-61.5 -40v-233h-134v328q123 12 123 105q0 35 -17.5 56t-54.5 21q-22 0 -42 -6t-39 -14l-42 112q35 14 70 22t79 8z" />
    <glyph glyph-name="ddabardeva" unicode="&#x97e;" horiz-adv-x="496" 
d="M281 243q-25 0 -45 -4t-39 -9q-31 26 -54 61t-23 70q0 22 6 38.5t21 31.5q15 14 41.5 22t75.5 8h35v41h-299v120h508v-120h-77v-128h-151q-15 0 -23 -3.5t-8 -15.5q0 -7 3.5 -14.5t7.5 -13.5q14 4 29 5.5t29 1.5q82 0 116.5 -36t34.5 -89q0 -35 -17.5 -64t-58 -46
t-110.5 -17q-79 0 -144 26.5t-129 88.5l88 76q42 -46 85.5 -70t93.5 -24q35 0 48 8.5t13 23.5q0 16 -13 24t-44 8zM59 77h408v-95h-408v95z" />
    <glyph glyph-name="babardeva" unicode="&#x97f;" horiz-adv-x="488" 
d="M66 77h231v58q-42 -23 -96 -23q-83 0 -129.5 46t-46.5 134q0 80 44 127.5t131 47.5q20 0 38.5 -1.5t36.5 -6.5l-10 -104q-22 5 -47 5l65 -112q7 7 14 15v239h-297v120h500v-120h-68v-520h-366v95zM146 289q0 -40 18 -55.5t46 -15.5h10l-65 110q-9 -16 -9 -39z" />
    <glyph glyph-name="uni200C" unicode="&#x200c;" 
d="M-26 788h52v-954h-52v954z" />
    <glyph glyph-name="uni200D" unicode="&#x200d;" 
d="M146 539l-37 -36l-83 82v-750h-52v750l-83 -82l-37 36l110 107l-110 106l37 36l109 -108l109 108l37 -37l-110 -105z" />
    <glyph glyph-name="uni25CC" unicode="&#x25cc;" horiz-adv-x="510" 
d="M254 457q-28 0 -28 29q0 28 28 28q30 0 30 -28q0 -29 -30 -29zM384 407q-29 0 -29 29t29 29t29 -29t-29 -29zM125 407q-28 0 -28 29t28 29q29 0 29 -29t-29 -29zM81 283q-29 0 -29 29q0 28 29 28q28 0 28 -28q0 -29 -28 -29zM429 283q-29 0 -29 29q0 28 29 28t29 -28
q0 -29 -29 -29zM125 158q-28 0 -28 29t28 29q29 0 29 -29t-29 -29zM384 158q-29 0 -29 29t29 29t29 -29t-29 -29zM254 108q-28 0 -28 29t28 29q30 0 30 -29t-30 -29z" />
    <glyph glyph-name="uni02BC" unicode="&#x2bc;" horiz-adv-x="329" 
d="M267 729l5 -11q-14 -73 -34 -142.5t-44 -123.5h-117l18.5 93.5t17 97t11.5 86.5h143z" />
    <glyph glyph-name="ashortnuktadeva" horiz-adv-x="682" 
d="M423 209q0 -72 -41 -111t-119 -39q-59 0 -104 27t-80 90.5t-63 171.5l122 31q25 -103 53 -151t63 -48q19 0 27.5 12t8.5 28q0 26 -8.5 46.5t-21.5 38.5q-19 -5 -40 -7l-14 114q74 8 74 54q0 45 -50 45q-16 0 -35 -5t-38 -16l-41 112q32 14 63.5 22t72.5 8
q76 0 118.5 -44.5t42.5 -114.5q0 -37 -11.5 -65.5t-32.5 -49.5q3 -3 5 -6q23 -4 46 -4q19 0 36 2.5t36 9.5v142h-43v120h245v-120h-68v-502h-134v244q-15 -6 -30 -7.5t-30 -1.5h-10q1 -13 1 -26zM496 615q-14 61 -26.5 81.5t-36.5 20.5q-8 0 -20 -1t-20 -1q-39 0 -69 32.5
t-53 120.5l99 28q13 -42 25.5 -56.5t35.5 -14.5q11 0 23.5 1.5t30.5 1.5q29 0 51.5 -16.5t41.5 -62t35 -134.5h-117zM174 -70q0 32 18 52.5t50 20.5t49.5 -20.5t17.5 -52.5t-17.5 -52.5t-49.5 -20.5t-50 20.5t-18 52.5z" />
    <glyph glyph-name="anuktadeva" horiz-adv-x="682" 
d="M423 209q0 -72 -41 -111t-119 -39q-59 0 -104 27t-80 90.5t-63 171.5l122 31q25 -103 53 -151t63 -48q19 0 27.5 12t8.5 28q0 26 -8.5 46.5t-21.5 38.5q-19 -5 -40 -7l-14 114q74 8 74 54q0 45 -50 45q-16 0 -35 -5t-38 -16l-41 112q32 14 63.5 22t72.5 8
q76 0 118.5 -44.5t42.5 -114.5q0 -37 -11.5 -65.5t-32.5 -49.5q3 -3 5 -6q23 -4 46 -4q19 0 36 2.5t36 9.5v142h-43v120h245v-120h-68v-502h-134v244q-15 -6 -30 -7.5t-30 -1.5h-10q1 -13 1 -26zM174 -71q0 32 18 52.5t50 20.5t49.5 -20.5t17.5 -52.5t-17.5 -52.5
t-49.5 -20.5t-50 20.5t-18 52.5z" />
    <glyph glyph-name="aanuktadeva" horiz-adv-x="915" 
d="M423 209q0 -72 -41 -111t-119 -39q-59 0 -104 27t-80 90.5t-63 171.5l122 31q25 -103 53 -151t63 -48q19 0 27.5 12t8.5 28q0 26 -8.5 46.5t-21.5 38.5q-19 -5 -40 -7l-14 114q74 8 74 54q0 45 -50 45q-16 0 -35 -5t-38 -16l-41 112q32 14 63.5 22t72.5 8
q76 0 118.5 -44.5t42.5 -114.5q0 -37 -11.5 -65.5t-32.5 -49.5q3 -3 5 -6q23 -4 46 -4q19 0 36 2.5t36 9.5v142h-43v120h478v-120h-68v-502h-135v502h-98v-502h-134v244q-15 -6 -30 -7.5t-30 -1.5h-10q1 -13 1 -26zM174 -71q0 32 18 52.5t50 20.5t49.5 -20.5t17.5 -52.5
t-17.5 -52.5t-49.5 -20.5t-50 20.5t-18 52.5z" />
    <glyph glyph-name="inuktadeva" horiz-adv-x="409" 
d="M194 193q-22 0 -43 -3.5t-39 -8.5q-36 30 -61 67.5t-25 83.5q0 53 34 84q16 14 43 24t81 10h29v52h-213v120h421v-120h-76v-153h-153q-15 0 -21.5 -1.5t-10.5 -5.5q-5 -5 -5 -15q0 -11 3.5 -19t9.5 -16q28 6 59 6q81 0 119 -41.5t38 -101.5q0 -51 -25 -89.5t-85 -54.5
q54 -24 96 -39l-55 -98q-44 28 -87.5 60.5l-86.5 67.5q-53 3 -84 21t-31 62q0 31 18 48t44 17q40 0 74 -38q12 -1 24 -1q34 0 48.5 11t14.5 32q0 19 -12 29t-43 10zM104 -158q0 32 18 52.5t50 20.5t49.5 -20.5t17.5 -52.5t-17.5 -52.5t-49.5 -20.5t-50 20.5t-18 52.5z" />
    <glyph glyph-name="iinuktadeva" horiz-adv-x="409" 
d="M194 193q-22 0 -43 -3.5t-39 -8.5q-36 30 -61 67.5t-25 83.5q0 53 34 84q16 14 43 24t81 10h29v52h-213v120h421v-120h-76v-153h-153q-15 0 -21.5 -1.5t-10.5 -5.5q-5 -5 -5 -15q0 -11 3.5 -19t9.5 -16q28 6 59 6q81 0 119 -41.5t38 -101.5q0 -51 -25 -89.5t-85 -54.5
q54 -24 96 -39l-55 -98q-44 28 -87.5 60.5l-86.5 67.5q-53 3 -84 21t-31 62q0 31 18 48t44 17q40 0 74 -38q12 -1 24 -1q34 0 48.5 11t14.5 32q0 19 -12 29t-43 10zM205 615q-16 28 -29 65t-13 73q0 74 47 108.5t114 34.5q31 0 56 -4t43 -10l-25 -102q-9 2 -21.5 4t-24.5 2
q-30 0 -43 -16.5t-13 -42.5q0 -31 11 -59.5t24 -52.5h-126zM104 -158q0 32 18 52.5t50 20.5t49.5 -20.5t17.5 -52.5t-17.5 -52.5t-49.5 -20.5t-50 20.5t-18 52.5z" />
    <glyph glyph-name="unuktadeva" horiz-adv-x="459" 
d="M0 622h471v-120h-69q16 -31 16 -66q0 -76 -52 -117q28 -30 49 -70t21 -97q0 -73 -44 -112.5t-118 -39.5q-62 0 -108.5 28.5t-83 96t-66.5 183.5l122 32q29 -114 57.5 -165.5t67.5 -51.5q20 0 28.5 11.5t8.5 30.5q0 31 -13.5 57t-35.5 50q-18 -3 -39 -6l-13 115
q41 3 62.5 17t21.5 47q0 20 -7.5 33.5t-20.5 23.5h-255v120zM172 -134q0 32 18 52.5t50 20.5t49.5 -20.5t17.5 -52.5t-17.5 -52.5t-49.5 -20.5t-50 20.5t-18 52.5z" />
    <glyph glyph-name="uunuktadeva" horiz-adv-x="655" 
d="M0 622h667v-120h-265q16 -31 16 -66q0 -76 -52 -117q8 -8 14 -16q28 21 57 34.5t67 13.5q57 0 93 -40.5t36 -117.5q0 -44 -14.5 -94t-40.5 -100l-118 58q16 30 27 63.5t11 65.5q0 27 -8 36.5t-18 9.5q-12 0 -22.5 -7.5t-19.5 -19.5q6 -25 6 -53q0 -73 -44 -112.5
t-118 -39.5q-62 0 -108.5 28.5t-83 96t-66.5 183.5l122 32q29 -114 57.5 -165.5t67.5 -51.5q20 0 28.5 11.5t8.5 30.5q0 31 -13.5 57t-35.5 50q-18 -3 -39 -6l-13 115q41 3 62.5 17t21.5 47q0 20 -7.5 33.5t-20.5 23.5h-255v120zM172 -134q0 32 18 52.5t50 20.5t49.5 -20.5
t17.5 -52.5t-17.5 -52.5t-49.5 -20.5t-50 20.5t-18 52.5z" />
    <glyph glyph-name="rvocalicnuktadeva" horiz-adv-x="732" 
d="M115 37l-77 99l177 123q-23 34 -38 43.5t-35 9.5q-21 0 -41.5 -8t-42.5 -20l-42 116q32 16 63 25.5t63 9.5q35 0 59.5 -11t45 -34.5t44.5 -61.5v174h-291v120h744v-120h-319v-173q16 1 32.5 4t31.5 7q-1 10 -1 19q0 40 23 60t52 20q44 0 63.5 -28.5t19.5 -61.5
q0 -25 -8 -43.5t-22 -28.5l21 -46t25 -47l-24 -39q-20 -7 -36 -20t-16 -36q0 -25 15 -33t30 -8q33 0 72 20l43 -98q-27 -13 -59.5 -22t-72.5 -9q-67 0 -108.5 41.5t-41.5 111.5q0 48 20 79t48 50l-7 18q-24 -9 -47.5 -14t-52.5 -8v-217h-134v179zM96 -80q0 32 18 52.5
t50 20.5t49.5 -20.5t17.5 -52.5t-17.5 -52.5t-49.5 -20.5t-50 20.5t-18 52.5z" />
    <glyph glyph-name="lvocalicnuktadeva" horiz-adv-x="599" 
d="M339 30q0 48 21 82t60 56q7 20 11.5 41.5t4.5 45.5q0 29 -10 40t-24 11q-11 0 -24 -8.5t-24.5 -35t-20.5 -79.5l-120 32q7 37 18 68q-18 20 -37 20t-27 -14.5t-8 -34.5q0 -47 29 -95t74 -104l-103 -72q-61 72 -97.5 143.5t-36.5 134.5q0 61 23 96.5t57.5 51.5t66.5 16
q38 0 65 -11t55 -34q27 25 62 35v87h-354v120h611v-120h-125v-92q42 -18 62 -57t20 -93q0 -52 -11 -92t-25 -79q-71 -15 -71 -61q0 -24 15 -32.5t30 -8.5q34 0 72 21l43 -99q-27 -12 -59 -21.5t-73 -9.5q-67 0 -108.5 42t-41.5 110zM143 -134q0 32 18 52.5t50 20.5
t49.5 -20.5t17.5 -52.5t-17.5 -52.5t-49.5 -20.5t-50 20.5t-18 52.5z" />
    <glyph glyph-name="ecandranuktadeva" horiz-adv-x="483" 
d="M495 502h-59v-122q0 -50 -7.5 -80t-28.5 -51q-38 -37 -110 -53l-39 120q12 3 22 7.5t15 10.5q14 13 14 49v119h-116v-201q0 -31 3.5 -51t15 -36t36.5 -32l106 -70q60 -39 79.5 -77.5t19.5 -79.5q0 -49 -16.5 -85t-39.5 -70l-110 66q12 16 20.5 35t8.5 43q0 20 -9 37.5
t-39 36.5l-86 56q-43 28 -65 48t-34 42q-14 26 -19 54.5t-5 75.5v208h-52v120h495v-120zM485 870q-14 -114 -58 -163.5t-127 -49.5q-75 0 -120 51.5t-70 157.5l92 28q17 -74 39 -104.5t60 -30.5q42 0 61.5 30.5t25.5 104.5zM96 -82q0 32 18 52.5t50 20.5t49.5 -20.5
t17.5 -52.5t-17.5 -52.5t-49.5 -20.5t-50 20.5t-18 52.5z" />
    <glyph glyph-name="eshortnuktadeva" horiz-adv-x="483" 
d="M495 502h-59v-122q0 -50 -7.5 -80t-28.5 -51q-38 -37 -110 -53l-39 120q12 3 22 7.5t15 10.5q14 13 14 49v119h-116v-201q0 -31 3.5 -51t15 -36t36.5 -32l106 -70q60 -39 79.5 -77.5t19.5 -79.5q0 -49 -16.5 -85t-39.5 -70l-110 66q12 16 20.5 35t8.5 43q0 20 -9 37.5
t-39 36.5l-86 56q-43 28 -65 48t-34 42q-14 26 -19 54.5t-5 75.5v208h-52v120h495v-120zM309 615q-14 61 -26.5 81.5t-36.5 20.5q-8 0 -20 -1t-20 -1q-39 0 -69 32.5t-53 120.5l99 28q13 -42 25.5 -56.5t35.5 -14.5q11 0 23.5 1.5t30.5 1.5q29 0 51.5 -16.5t41.5 -62
t35 -134.5h-117zM96 -82q0 32 18 52.5t50 20.5t49.5 -20.5t17.5 -52.5t-17.5 -52.5t-49.5 -20.5t-50 20.5t-18 52.5z" />
    <glyph glyph-name="enuktadeva" horiz-adv-x="483" 
d="M495 502h-59v-122q0 -50 -7.5 -80t-28.5 -51q-38 -37 -110 -53l-39 120q12 3 22 7.5t15 10.5q14 13 14 49v119h-116v-201q0 -31 3.5 -51t15 -36t36.5 -32l106 -70q60 -39 79.5 -77.5t19.5 -79.5q0 -49 -16.5 -85t-39.5 -70l-110 66q12 16 20.5 35t8.5 43q0 20 -9 37.5
t-39 36.5l-86 56q-43 28 -65 48t-34 42q-14 26 -19 54.5t-5 75.5v208h-52v120h495v-120zM96 -82q0 32 18 52.5t50 20.5t49.5 -20.5t17.5 -52.5t-17.5 -52.5t-49.5 -20.5t-50 20.5t-18 52.5z" />
    <glyph glyph-name="ainuktadeva" horiz-adv-x="483" 
d="M495 502h-59v-122q0 -50 -7.5 -80t-28.5 -51q-38 -37 -110 -53l-39 120q12 3 22 7.5t15 10.5q14 13 14 49v119h-116v-201q0 -31 3.5 -51t15 -36t36.5 -32l106 -70q60 -39 79.5 -77.5t19.5 -79.5q0 -49 -16.5 -85t-39.5 -70l-110 66q12 16 20.5 35t8.5 43q0 20 -9 37.5
t-39 36.5l-86 56q-43 28 -65 48t-34 42q-14 26 -19 54.5t-5 75.5v208h-52v120h495v-120zM310 615q-19 84 -37 121t-51 37q-24 0 -45 -9l-35 114q43 18 86 18q33 0 62 -11.5t54.5 -42t46.5 -85.5t36 -142h-117zM96 -82q0 32 18 52.5t50 20.5t49.5 -20.5t17.5 -52.5
t-17.5 -52.5t-49.5 -20.5t-50 20.5t-18 52.5z" />
    <glyph glyph-name="ocandranuktadeva" horiz-adv-x="915" 
d="M423 209q0 -72 -41 -111t-119 -39q-59 0 -104 27t-80 90.5t-63 171.5l122 31q25 -103 53 -151t63 -48q19 0 27.5 12t8.5 28q0 26 -8.5 46.5t-21.5 38.5q-19 -5 -40 -7l-14 114q74 8 74 54q0 45 -50 45q-16 0 -35 -5t-38 -16l-41 112q32 14 63.5 22t72.5 8
q76 0 118.5 -44.5t42.5 -114.5q0 -37 -11.5 -65.5t-32.5 -49.5q3 -3 5 -6q23 -4 46 -4q19 0 36 2.5t36 9.5v142h-43v120h478v-120h-68v-502h-135v502h-98v-502h-134v244q-15 -6 -30 -7.5t-30 -1.5h-10q1 -13 1 -26zM174 -70q0 32 18 52.5t50 20.5t49.5 -20.5t17.5 -52.5
t-17.5 -52.5t-49.5 -20.5t-50 20.5t-18 52.5zM948 870q-14 -114 -58 -163.5t-127 -49.5q-75 0 -120 51.5t-70 157.5l92 28q17 -74 39 -104.5t60 -30.5q42 0 61.5 30.5t25.5 104.5z" />
    <glyph glyph-name="oshortnuktadeva" horiz-adv-x="915" 
d="M423 209q0 -72 -41 -111t-119 -39q-59 0 -104 27t-80 90.5t-63 171.5l122 31q25 -103 53 -151t63 -48q19 0 27.5 12t8.5 28q0 26 -8.5 46.5t-21.5 38.5q-19 -5 -40 -7l-14 114q74 8 74 54q0 45 -50 45q-16 0 -35 -5t-38 -16l-41 112q32 14 63.5 22t72.5 8
q76 0 118.5 -44.5t42.5 -114.5q0 -37 -11.5 -65.5t-32.5 -49.5q3 -3 5 -6q23 -4 46 -4q19 0 36 2.5t36 9.5v142h-43v120h478v-120h-68v-502h-135v502h-98v-502h-134v244q-15 -6 -30 -7.5t-30 -1.5h-10q1 -13 1 -26zM729 615q-14 61 -26.5 81.5t-36.5 20.5q-8 0 -20 -1
t-20 -1q-39 0 -69 32.5t-53 120.5l99 28q13 -42 25.5 -56.5t35.5 -14.5q11 0 23.5 1.5t30.5 1.5q29 0 51.5 -16.5t41.5 -62t35 -134.5h-117zM174 -71q0 32 18 52.5t50 20.5t49.5 -20.5t17.5 -52.5t-17.5 -52.5t-49.5 -20.5t-50 20.5t-18 52.5z" />
    <glyph glyph-name="onuktadeva" horiz-adv-x="915" 
d="M423 209q0 -72 -41 -111t-119 -39q-59 0 -104 27t-80 90.5t-63 171.5l122 31q25 -103 53 -151t63 -48q19 0 27.5 12t8.5 28q0 26 -8.5 46.5t-21.5 38.5q-19 -5 -40 -7l-14 114q74 8 74 54q0 45 -50 45q-16 0 -35 -5t-38 -16l-41 112q32 14 63.5 22t72.5 8
q76 0 118.5 -44.5t42.5 -114.5q0 -37 -11.5 -65.5t-32.5 -49.5q3 -3 5 -6q23 -4 46 -4q19 0 36 2.5t36 9.5v142h-43v120h478v-120h-68v-502h-135v502h-98v-502h-134v244q-15 -6 -30 -7.5t-30 -1.5h-10q1 -13 1 -26zM729 615q-19 84 -37 121t-51 37q-24 0 -45 -9l-35 114
q43 18 86 18q33 0 62 -11.5t54.5 -42t46.5 -85.5t36 -142h-117zM174 -71q0 32 18 52.5t50 20.5t49.5 -20.5t17.5 -52.5t-17.5 -52.5t-49.5 -20.5t-50 20.5t-18 52.5z" />
    <glyph glyph-name="aunuktadeva" horiz-adv-x="915" 
d="M423 209q0 -72 -41 -111t-119 -39q-59 0 -104 27t-80 90.5t-63 171.5l122 31q25 -103 53 -151t63 -48q19 0 27.5 12t8.5 28q0 26 -8.5 46.5t-21.5 38.5q-19 -5 -40 -7l-14 114q74 8 74 54q0 45 -50 45q-16 0 -35 -5t-38 -16l-41 112q32 14 63.5 22t72.5 8
q76 0 118.5 -44.5t42.5 -114.5q0 -37 -11.5 -65.5t-32.5 -49.5q3 -3 5 -6q23 -4 46 -4q19 0 36 2.5t36 9.5v142h-43v120h478v-120h-68v-502h-135v502h-98v-502h-134v244q-15 -6 -30 -7.5t-30 -1.5h-10q1 -13 1 -26zM724 615q-27 38 -47 49t-41 11q-26 0 -57 -14l-29 90
q19 7 39 12t37 5q27 0 48 -11t46 -49h4q-23 59 -41 77t-43 18q-26 0 -53 -11l-26 88q20 7 42.5 11.5t43.5 4.5q33 0 62 -11.5t54.5 -42t46.5 -85.5t36 -142h-122zM175 -71q0 32 18 52.5t50 20.5t49.5 -20.5t17.5 -52.5t-17.5 -52.5t-49.5 -20.5t-50 20.5t-18 52.5z" />
    <glyph glyph-name="rrvocalicnuktadeva" horiz-adv-x="732" 
d="M115 37l-77 99l177 123q-23 34 -38 43.5t-35 9.5q-21 0 -41.5 -8t-42.5 -20l-42 116q32 16 63 25.5t63 9.5q35 0 59.5 -11t45 -34.5t44.5 -61.5v174h-291v120h744v-120h-319v-173q16 1 32.5 4t31.5 7q-1 10 -1 19q0 40 23 60t52 20q44 0 63.5 -28.5t19.5 -61.5
q0 -25 -8 -43.5t-22 -28.5q10 -23 20 -43.5t23 -44.5l-23 -39q-22 -7 -36 -17.5t-14 -28.5q0 -19 12 -26.5t30 -7.5q20 0 38.5 6t38.5 17l41 -94q-23 -11 -52.5 -20t-61.5 -11q-5 -10 -5 -22q0 -18 11.5 -25t29.5 -7q21 0 39 6t39 17l40 -94q-26 -13 -59 -22.5t-72 -9.5
q-72 0 -111 36.5t-39 99.5q0 26 10 47q-51 36 -51 109q0 78 70 119q-4 9 -7 18q-45 -17 -102 -23v-217h-134v179zM96 -80q0 32 18 52.5t50 20.5t49.5 -20.5t17.5 -52.5t-17.5 -52.5t-49.5 -20.5t-50 20.5t-18 52.5z" />
    <glyph glyph-name="llvocalicnuktadeva" horiz-adv-x="599" 
d="M172 425q38 0 65 -11t55 -34q27 25 62 35v87h-354v120h611v-120h-125v-92q42 -18 62 -57t20 -93q0 -42 -7 -75t-18 -64q-45 -8 -63.5 -21.5t-18.5 -32.5t11.5 -26t30.5 -7q20 0 38 5.5t39 16.5l40 -94q-23 -11 -52 -20t-63 -11q-4 -10 -4 -21q0 -19 11.5 -25.5t29.5 -6.5
q38 0 78 22l40 -94q-26 -13 -59 -22.5t-71 -9.5q-73 0 -112 37t-39 100q0 25 10 47q-50 36 -50 109q0 45 23 77t66 52q4 14 6 28.5t2 30.5q0 29 -10 40t-24 11q-11 0 -24 -8.5t-24.5 -35t-20.5 -79.5l-120 32q7 37 18 68q-18 20 -37 20t-27 -14.5t-8 -34.5q0 -47 29 -95
t74 -104l-103 -72q-61 72 -97.5 143.5t-36.5 134.5q0 61 23 96.5t57.5 51.5t66.5 16zM143 -134q0 32 18 52.5t50 20.5t49.5 -20.5t17.5 -52.5t-17.5 -52.5t-49.5 -20.5t-50 20.5t-18 52.5z" />
    <glyph glyph-name="acandranuktadeva" horiz-adv-x="682" 
d="M423 209q0 -72 -41 -111t-119 -39q-59 0 -104 27t-80 90.5t-63 171.5l122 31q25 -103 53 -151t63 -48q19 0 27.5 12t8.5 28q0 26 -8.5 46.5t-21.5 38.5q-19 -5 -40 -7l-14 114q74 8 74 54q0 45 -50 45q-16 0 -35 -5t-38 -16l-41 112q32 14 63.5 22t72.5 8
q76 0 118.5 -44.5t42.5 -114.5q0 -37 -11.5 -65.5t-32.5 -49.5q3 -3 5 -6q23 -4 46 -4q19 0 36 2.5t36 9.5v142h-43v120h245v-120h-68v-502h-134v244q-15 -6 -30 -7.5t-30 -1.5h-10q1 -13 1 -26zM716 870q-14 -114 -58 -163.5t-127 -49.5q-75 0 -120 51.5t-70 157.5l92 28
q17 -74 39 -104.5t60 -30.5q42 0 61.5 30.5t25.5 104.5zM175 -77q0 32 18 52.5t50 20.5t49.5 -20.5t17.5 -52.5t-17.5 -52.5t-49.5 -20.5t-50 20.5t-18 52.5z" />
    <glyph glyph-name="ghanuktadeva" horiz-adv-x="515" 
d="M527 502h-68v-502h-134v118q-22 -14 -46.5 -22t-62.5 -8q-77 0 -120.5 45t-43.5 119q0 52 27 92q-25 19 -39 47t-14 63q0 26 9 48h-35v120h527v-120zM187 252q0 -24 13 -34t35 -10q28 0 51 14.5t39 38.5v241h-152q-13 -17 -13 -38q0 -34 27 -48q15 2 31 2q8 0 22 -1.5
t24 -3.5l-11 -117q-5 1 -10.5 1.5t-12.5 0.5q-19 0 -31 -11t-12 -35zM61 -23q0 32 18 52.5t50 20.5t49.5 -20.5t17.5 -52.5t-17.5 -52.5t-49.5 -20.5t-50 20.5t-18 52.5z" />
    <glyph glyph-name="nganuktadeva" horiz-adv-x="555" 
d="M278 193q-22 0 -43 -3.5t-39 -9.5q-36 30 -61.5 68t-25.5 84q0 53 34 84q16 14 43 24t81 10h11v52h-278v120h567v-120h-157v-153h-134q-15 0 -21.5 -1.5t-10.5 -5.5q-5 -5 -5 -15q0 -19 13 -36q27 7 59 7q80 0 118 -42t38 -104q0 -64 -44 -108t-143 -44q-88 0 -153.5 35
t-115.5 83l88 94q46 -45 86 -70t90 -25q30 0 44 8.5t14 30.5q0 17 -12 27t-43 10zM422 334q0 28 15.5 47t45.5 19q29 0 44 -19t15 -47q0 -30 -15 -48.5t-44 -18.5q-28 0 -44.5 18.5t-16.5 48.5zM199 -134q0 32 18 52.5t50 20.5t49.5 -20.5t17.5 -52.5t-17.5 -52.5
t-49.5 -20.5t-50 20.5t-18 52.5z" />
    <glyph glyph-name="canuktadeva" horiz-adv-x="549" 
d="M561 502h-68v-502h-134v106q-39 -21 -96 -21q-77 0 -119.5 40.5t-42.5 110.5q0 27 7.5 48.5t20.5 36.5l-99 -5v120h241q10 0 21.5 -1l22.5 -2l-8 -116h-10q-33 0 -47.5 -15.5t-14.5 -44.5q0 -24 12 -38t39 -14q23 0 41 10t32 27v260h-359v120h561v-120zM122 -31
q0 32 18 52.5t50 20.5t49.5 -20.5t17.5 -52.5t-17.5 -52.5t-49.5 -20.5t-50 20.5t-18 52.5z" />
    <glyph glyph-name="chanuktadeva" horiz-adv-x="595" 
d="M255 118q54 0 95.5 23.5t65.5 63.5t24 91q0 33 -8.5 52.5t-29.5 19.5q-11 0 -20 -8.5t-9 -23.5q0 -20 10 -33t38 -23l-45 -96q-115 47 -115 153q0 45 22 77t67 45v43h-350v120h607v-120h-128v-49q45 -19 68.5 -61.5t23.5 -103.5q0 -78 -37 -143.5t-107 -105t-168 -39.5
q-97 0 -145 43.5t-48 114.5q0 18 4.5 35.5t14.5 33.5q-28 20 -44.5 49t-16.5 66q0 60 40 93t112 33q15 0 33.5 -2t33.5 -6l-8 -102q-25 6 -44 6q-39 0 -39 -33q0 -22 23 -35q17 4 36 4q13 0 24 -1.5t21 -3.5l-9 -102q-4 1 -9.5 1h-11.5q-35 0 -35 -33q0 -23 17.5 -33
t46.5 -10zM222 -134q0 32 18 52.5t50 20.5t49.5 -20.5t17.5 -52.5t-17.5 -52.5t-49.5 -20.5t-50 20.5t-18 52.5z" />
    <glyph glyph-name="jhanuktadeva" horiz-adv-x="635" 
d="M193 193q-22 0 -42.5 -3.5t-38.5 -9.5q-36 30 -61 68t-25 84q0 53 34 84q16 14 43 24t81 10h29v52h-213v120h647v-120h-68v-502h-135v172q-15 -5 -28.5 -6.5t-25.5 -1.5h-8v-9q0 -51 -24 -90t-84 -54q54 -24 96 -39l-55 -98q-44 28 -87.5 60.5l-86.5 67.5q-53 3 -84 21
t-31 62q0 31 18 48t44 17q40 0 74 -38q12 -1 24 -1q34 0 48.5 11t14.5 32q0 19 -12.5 29t-43.5 10zM371 278q40 0 73 12v212h-99v-153h-153q-15 0 -21.5 -1.5t-10.5 -5.5q-5 -5 -5 -15q0 -11 3.5 -19t9.5 -17q27 7 59 7q31 0 57 -7v0l6 -2h1q14 -5 32.5 -8t47.5 -3z
M103 -158q0 32 18 52.5t50 20.5t49.5 -20.5t17.5 -52.5t-17.5 -52.5t-49.5 -20.5t-50 20.5t-18 52.5z" />
    <glyph glyph-name="nyanuktadeva" horiz-adv-x="674" 
d="M166 420q24 10 52 16.5t56 6.5q66 0 104.5 -32.5t50.5 -88.5q8 -1 18 -1q18 0 37 5v176h-484v120h686v-120h-68v-502h-134v219q-19 -3 -40 -3h-12q-12 -75 -59.5 -104.5t-112.5 -29.5q-80 0 -140.5 56t-103.5 181l119 37q29 -87 56 -120t61 -33q28 0 40 15.5t12 43.5
q0 61 -49 61q-13 0 -25 -3.5t-24 -8.5zM167 -49q0 32 18 52.5t50 20.5t49.5 -20.5t17.5 -52.5t-17.5 -52.5t-49.5 -20.5t-50 20.5t-18 52.5z" />
    <glyph glyph-name="ttanuktadeva" horiz-adv-x="421" 
d="M433 502h-100v-189h-20q-39 0 -68 -5t-48 -19q-15 -11 -25 -29t-10 -45q0 -49 26 -71t64 -22q32 0 58 8.5t58 25.5l43 -117q-78 -39 -169 -39q-96 0 -155.5 57.5t-59.5 160.5q0 63 24 107t63 69.5t86 33.5v74h-200v120h433v-120zM155 -134q0 32 18 52.5t50 20.5
t49.5 -20.5t17.5 -52.5t-17.5 -52.5t-49.5 -20.5t-50 20.5t-18 52.5z" />
    <glyph glyph-name="tthanuktadeva" horiz-adv-x="472" 
d="M484 502h-152v-82q59 -38 87.5 -94t28.5 -124q0 -104 -56.5 -153t-147.5 -49q-100 0 -158.5 57.5t-58.5 160.5q0 62 23.5 106t62.5 69.5t86 33.5v75h-199v120h484v-120zM239 120q37 0 57 21t20 64q0 35 -13.5 63.5t-35.5 44.5q-45 -3 -69 -22q-16 -11 -26.5 -30
t-10.5 -51q0 -50 24.5 -70t53.5 -20zM177 -134q0 32 18 52.5t50 20.5t49.5 -20.5t17.5 -52.5t-17.5 -52.5t-49.5 -20.5t-50 20.5t-18 52.5z" />
    <glyph glyph-name="nnanuktadeva" horiz-adv-x="644" 
d="M588 502v-502h-135v502h-65v-190q0 -52 -7.5 -85.5t-26.5 -56.5q-20 -24 -52.5 -37t-81.5 -13q-44 0 -76 13.5t-53 37.5q-22 25 -32 59t-10 86v186h-49v120h656v-120h-68zM218 239q18 0 26 12q10 14 10 55v196h-70v-196q0 -20 1.5 -33t6.5 -22q8 -12 26 -12zM165 -30
q0 32 18 52.5t50 20.5t49.5 -20.5t17.5 -52.5t-17.5 -52.5t-49.5 -20.5t-50 20.5t-18 52.5z" />
    <glyph glyph-name="tanuktadeva" horiz-adv-x="489" 
d="M434 502v-502h-135v285h-57q-31 0 -45 -4.5t-24 -14.5q-13 -16 -13 -44q0 -38 21.5 -79t63.5 -91l-104 -72q-49 62 -82.5 127t-33.5 130q0 39 11 68t31 48q25 26 65 38.5t116 12.5h51v98h-299v120h501v-120h-67zM93 -149q0 32 18 52.5t50 20.5t49.5 -20.5t17.5 -52.5
t-17.5 -52.5t-49.5 -20.5t-50 20.5t-18 52.5z" />
    <glyph glyph-name="thanuktadeva" horiz-adv-x="586" 
d="M530 502v-502h-134v133q-24 -16 -49 -22t-57 -6q-86 0 -133.5 56.5t-67.5 159.5q64 19 93 57.5t29 88.5q0 26 -9.5 46t-32.5 20q-12 0 -20 -8.5t-8 -22.5q0 -34 40 -41l-33 -93q-50 12 -82.5 44t-32.5 91q0 62 41.5 95.5t100.5 33.5q81 0 124.5 -48t43.5 -128
q0 -61 -25 -108t-80 -84q10 -19 26 -29.5t37 -10.5q31 0 54 14t41 39v225h-33v120h235v-120h-68zM121 -7q0 32 18 52.5t50 20.5t49.5 -20.5t17.5 -52.5t-17.5 -52.5t-49.5 -20.5t-50 20.5t-18 52.5z" />
    <glyph glyph-name="danuktadeva" horiz-adv-x="439" 
d="M311 -67q-14 35 -25.5 67.5t-19.5 62.5q-12 -1 -23 -1q-56 0 -106 20t-81 64.5t-31 116.5q0 47 14.5 79t38.5 55q42 38 110 50v55h-188v120h451v-120h-130v-167h-43q-39 0 -61.5 -5.5t-36.5 -19.5q-19 -19 -19 -51q0 -36 21.5 -57t65.5 -21q-1 6 -1 11q0 39 22.5 58
t54.5 19q43 0 67.5 -28.5t24.5 -70.5q0 -33 -12.5 -52.5t-30.5 -30.5q10 -28 23.5 -57t27.5 -55zM101 -68q0 32 18 52.5t50 20.5t49.5 -20.5t17.5 -52.5t-17.5 -52.5t-49.5 -20.5t-50 20.5t-18 52.5z" />
    <glyph glyph-name="dhanuktadeva" horiz-adv-x="560" 
d="M572 502h-68v-502h-134v111q-22 -14 -46.5 -22t-62.5 -8q-77 0 -120 45t-43 119q0 48 23 86q-40 21 -66.5 58t-26.5 92q0 64 42 107.5t112 43.5q58 0 93 -32.5t35 -81.5q0 -33 -9 -53.5t-20 -39.5l-87 40q4 5 8.5 15.5t4.5 22.5q0 10 -5.5 17t-19.5 7q-16 0 -27.5 -14
t-11.5 -35q0 -31 23.5 -48t52.5 -24q21 4 45 4q8 0 21 -1t24 -3l-10 -117q-5 1 -10.5 1.5t-12.5 0.5q-20 0 -32 -11t-12 -34q0 -25 13 -35t35 -10q28 0 50.5 14.5t39.5 38.5v248h-33v120h235v-120zM141 -50q0 32 18 52.5t50 20.5t49.5 -20.5t17.5 -52.5t-17.5 -52.5
t-49.5 -20.5t-50 20.5t-18 52.5z" />
    <glyph glyph-name="panuktadeva" horiz-adv-x="486" 
d="M430 502v-502h-134v143q-38 -21 -87 -21q-47 0 -77 15t-49 38q-18 23 -27 56t-9 97v174h-47v120h498v-120h-68zM296 502h-115v-176q0 -32 2.5 -46t10.5 -25q11 -14 32 -14q39 0 70 33v228zM83 -1q0 32 18 52.5t50 20.5t49.5 -20.5t17.5 -52.5t-17.5 -52.5t-49.5 -20.5
t-50 20.5t-18 52.5z" />
    <glyph glyph-name="banuktadeva" horiz-adv-x="488" 
d="M500 502h-68v-502h-135v108q-42 -23 -96 -23q-83 0 -129.5 47t-46.5 136q0 82 44 130.5t131 48.5q20 0 38.5 -2t36.5 -6l-10 -108q-22 5 -47 5l65 -112q7 7 14 15v263h-297v120h500v-120zM146 265q0 -40 18 -55.5t46 -15.5h10l-65 110q-9 -16 -9 -39zM84 -31
q0 32 18 52.5t50 20.5t49.5 -20.5t17.5 -52.5t-17.5 -52.5t-49.5 -20.5t-50 20.5t-18 52.5z" />
    <glyph glyph-name="bhanuktadeva" horiz-adv-x="626" 
d="M175 632q71 0 113 -39q23 -22 36 -55t13 -95v-113h98v172h-51v120h254v-120h-68v-502h-135v211h-98v-18q0 -77 -61 -77q-34 0 -64 25t-48 60t-18 67q0 26 13 44t46 18v124q0 51 -10 66q-9 13 -26 13q-12 0 -20 -8.5t-8 -24.5q0 -33 39 -39l-8 -97q-58 7 -98.5 40.5
t-40.5 99.5t41 97t101 31zM203 -8q0 32 18 52.5t50 20.5t49.5 -20.5t17.5 -52.5t-17.5 -52.5t-49.5 -20.5t-50 20.5t-18 52.5z" />
    <glyph glyph-name="manuktadeva" horiz-adv-x="517" 
d="M461 502v-502h-133v211h-113v-18q0 -77 -60 -77q-35 0 -64.5 25t-48 60t-18.5 67q0 26 13 44t44 18v172h-81v120h529v-120h-68zM327 502h-112v-172h112v172zM95 -9q0 32 18 52.5t50 20.5t49.5 -20.5t17.5 -52.5t-17.5 -52.5t-49.5 -20.5t-50 20.5t-18 52.5z" />
    <glyph glyph-name="lanuktadeva" horiz-adv-x="582" 
d="M0 502v120h594v-120h-68v-502h-134v307q-19 -7 -34.5 -34.5t-25.5 -89.5l-119 32q7 37 18 68q-18 20 -37 20t-27 -14.5t-8 -34.5q0 -47 29 -95t74 -104l-103 -72q-61 72 -97.5 143.5t-36.5 134.5q0 61 23 96.5t57.5 51.5t66.5 16q38 0 65 -11t54 -33q42 37 101 41v80
h-392zM205 -131q0 32 18 52.5t50 20.5t49.5 -20.5t17.5 -52.5t-17.5 -52.5t-49.5 -20.5t-50 20.5t-18 52.5z" />
    <glyph glyph-name="vanuktadeva" horiz-adv-x="477" 
d="M489 502h-68v-502h-135v106q-37 -21 -89 -21q-80 0 -126 45.5t-46 137.5q0 82 43 130.5t125 48.5q20 0 36.5 -2t34.5 -6l-11 -118q-9 2 -18.5 3.5t-21.5 1.5q-53 0 -53 -62q0 -35 14 -47t34 -12q24 0 43.5 11t34.5 30v256h-286v120h489v-120zM87 -31q0 32 18 52.5
t50 20.5t49.5 -20.5t17.5 -52.5t-17.5 -52.5t-49.5 -20.5t-50 20.5t-18 52.5z" />
    <glyph glyph-name="shanuktadeva" horiz-adv-x="609" 
d="M121 150q-41 0 -70.5 22.5t-29.5 69.5q0 35 21.5 55t58.5 20q40 0 77 -24q27 23 40 59.5t13 82.5q0 49 -13 72.5t-33 23.5q-13 0 -22.5 -9t-9.5 -25q0 -42 56 -53l-27 -97q-146 26 -146 152q0 55 39 94t112 39q79 0 129 -54.5t50 -152.5q0 -73 -26 -130.5t-71 -93.5
q28 -32 56.5 -68.5t52.5 -71.5l-107 -67q-26 44 -53.5 84.5t-54.5 75.5q-20 -4 -42 -4zM553 502v-502h-134v502h-48v120h250v-120h-68zM102 -56q0 32 18 52.5t50 20.5t49.5 -20.5t17.5 -52.5t-17.5 -52.5t-49.5 -20.5t-50 20.5t-18 52.5z" />
    <glyph glyph-name="ssanuktadeva" horiz-adv-x="499" 
d="M511 622v-120h-68v-502h-134v146q-20 -12 -43 -18t-54 -6q-50 0 -80 15t-49 38q-18 23 -27 56t-9 97v174h-47v120h511zM309 502h-91l91 -179v179zM189 258q5 -8 14 -12.5t25 -4.5q23 0 41 9l-91 178v-100q0 -30 2.5 -45t8.5 -25zM82 -1q0 32 18 52.5t50 20.5t49.5 -20.5
t17.5 -52.5t-17.5 -52.5t-49.5 -20.5t-50 20.5t-18 52.5z" />
    <glyph glyph-name="sanuktadeva" horiz-adv-x="582" 
d="M526 502v-502h-135v224q-17 -4 -34 -6t-32 -2q-38 0 -69.5 9.5t-55.5 23.5q-7 -5 -13 -10q29 -42 68 -90l74 -89l-107 -77l-62.5 81.5l-50 68t-48.5 76.5q-39 63 -39 114q0 30 16.5 52t51.5 22q26 0 47 -17q9 29 9 61q0 33 -7 61h-139v120h594v-120h-68zM312 335
q24 0 42 2t37 7v158h-122q4 -16 7 -35t3 -42q0 -26 -4.5 -47.5t-11.5 -38.5q23 -4 49 -4zM29 19q0 30 16.5 48t43.5 18t44 -18t17 -48q0 -29 -17 -48t-44 -19t-43.5 19t-16.5 48z" />
    <glyph glyph-name="hanuktadeva" horiz-adv-x="443" 
d="M242 74q19 8 31 18.5t12 29.5q0 40 -49 40q-32 0 -52 -19.5t-20 -54.5q0 -42 20.5 -79t68.5 -90l-103 -72q-40 47 -67 86.5t-40.5 78t-13.5 84.5q0 37 12 66.5t32 51.5q-14 21 -25 48t-11 62q0 28 10.5 50t27.5 38q21 20 52 29t95 9h32v52h-254v120h455v-120h-68v-167
h-174q-17 0 -25 -2.5t-12 -7.5q-7 -6 -7 -19q0 -17 11 -34q26 5 53 5q67 0 107.5 -22t58.5 -57.5t18 -76.5q0 -60 -31.5 -94.5t-89.5 -59.5zM10 -195q0 30 16.5 48t43.5 18t44 -18t17 -48q0 -29 -17 -48t-44 -19t-43.5 19t-16.5 48z" />
    <glyph glyph-name="kassadeva" horiz-adv-x="636" 
d="M579 502v-502h-134v285q-25 -10 -52 -14.5t-57 -4.5q-73 0 -130 24q-26 -23 -35.5 -42.5t-9.5 -40.5q0 -25 14.5 -40t38.5 -15h1v9q0 30 17.5 51t52.5 21q43 0 68.5 -27.5t25.5 -69.5q0 -48 -34 -72l25 -41t26 -40l-98 -56q-34 55 -56 108q-9 -1 -20 -1q-73 0 -116 23
t-62 61t-19 83t19.5 81t64.5 72q-26 27 -42 60.5t-16 77.5q0 58 40.5 99t116.5 41q80 0 119 -38t39 -96q0 -31 -13 -61t-46 -58q12 -1 27 -1q20 0 50 5.5t61 25.5v93h-45v120h247v-120h-68zM177 482q0 -20 9 -37t22 -29q20 17 27 34t7 32q0 18 -8 29.5t-24 11.5t-24.5 -11
t-8.5 -30z" />
    <glyph glyph-name="janyadeva" horiz-adv-x="570" 
d="M183 225q0 76 -113 117l33 90h277v70h-380v120h582v-120h-68v-502h-134v315h-51q-14 0 -30.5 1t-30.5 2q24 -21 37 -48t13 -64q0 -41 -19.5 -73.5t-53.5 -50.5q24 -12 50 -23t45 -18l-53 -94q-37 22 -78 52.5t-76 62.5q-51 3 -83 20.5t-32 63.5q0 33 18.5 50.5t47.5 17.5
q43 0 76 -41q23 14 23 52z" />
    <glyph glyph-name="rephdeva" 
d="M-196 615q-16 28 -29 65t-13 73q0 74 47 108.5t114 34.5q31 0 56 -4t43 -10l-25 -102q-9 2 -21.5 4t-24.5 2q-30 0 -43 -16.5t-13 -42.5q0 -31 11 -59.5t24 -52.5h-126z" />
    <glyph glyph-name="vattudeva" 
d="M-392 -158l177 141h97l117 -180l-102 -53l-74 126l-131 -126z" />
    <glyph glyph-name="kaprehalfdeva" horiz-adv-x="510" 
d="M522 502h-103v-160q12 8 26.5 12t39.5 4h39v-119h-43q-22 0 -36.5 -4t-25.5 -13v-222h-135v114q-20 -15 -42.5 -22t-51.5 -7q-73 0 -118.5 44.5t-45.5 136.5q0 82 42.5 131.5t124.5 49.5q19 0 35.5 -2t33.5 -6l-10 -118q-8 2 -18 3.5t-22 1.5q-52 0 -52 -61
q0 -37 14.5 -48.5t34.5 -11.5q24 0 42 13.5t33 35.5v248h-284v120h522v-120z" />
    <glyph glyph-name="khaprehalfdeva" horiz-adv-x="499" 
d="M548 46q-42 -23 -80 -33t-94 -10q-74 0 -133 30t-104 77t-77 99q-38 63 -38 114q0 30 16.5 52t51.5 22q26 0 47 -17q9 29 9 61q0 33 -7 61h-139v120h511v-120h-242q4 -16 7 -35t3 -42q0 -64 -25.5 -110t-66.5 -75q42 -60 87 -89.5t109 -29.5q35 0 65 7.5t64 26.5z
M532 204q-26 -21 -52 -28.5t-54 -7.5q-58 0 -96.5 37t-38.5 114q0 67 33.5 107t100.5 40q13 0 28 -1.5t25 -4.5l-8 -101q-6 1 -12.5 2.5t-12.5 1.5q-35 0 -35 -46q0 -25 9.5 -34.5t24.5 -9.5q16 0 29 6.5t27 20.5z" />
    <glyph glyph-name="gaprehalfdeva" horiz-adv-x="252" 
d="M216 502v-285q0 -77 -60 -77q-34 0 -64 25.5t-49 62t-19 70.5q0 28 12 46.5t46 21.5v136h-82v120h264v-120h-48z" />
    <glyph glyph-name="ghaprehalfdeva" horiz-adv-x="303" 
d="M187 252q0 -24 13 -34t34 -10q30 0 52 15.5t38 35.5l69 -99q-41 -34 -81 -53t-96 -19q-78 0 -121 45t-43 119q0 52 27 92q-25 20 -39 47.5t-14 62.5q0 26 9 48h-35v120h315v-120h-142q-13 -17 -13 -38q0 -34 27 -48q15 2 31 2q9 0 22.5 -1.5t23.5 -3.5l-11 -117
q-5 1 -10.5 1.5t-12.5 0.5q-19 0 -31 -11t-12 -35z" />
    <glyph glyph-name="ngaprehalfdeva" horiz-adv-x="555" 
d="M278 193q-22 0 -43 -3.5t-39 -9.5q-36 30 -61.5 68t-25.5 84q0 53 34 84q16 14 43 24t81 10h11v52h-278v120h567v-120h-157v-153h-134q-15 0 -21.5 -1.5t-10.5 -5.5q-5 -5 -5 -15q0 -19 13 -36q27 7 59 7q80 0 118 -42t38 -104q0 -64 -44 -108t-143 -44q-88 0 -153.5 35
t-115.5 83l88 94q46 -45 86 -70t90 -25q30 0 44 8.5t14 30.5q0 17 -12 27t-43 10zM422 334q0 28 15.5 47t45.5 19q29 0 44 -19t15 -47q0 -30 -15 -48.5t-44 -18.5q-28 0 -44.5 18.5t-16.5 48.5zM202 -32q16 4 32.5 6t37.5 2q53 0 93 -23.5t73 -67t65 -103.5l-99 -50
q-29 49 -50 77t-42 40t-48 12q-9 0 -20 -1t-21 -4z" />
    <glyph glyph-name="caprehalfdeva" horiz-adv-x="337" 
d="M0 622h349v-120h-349v120zM427 142q-38 -28 -75 -42.5t-89 -14.5q-77 0 -119.5 40.5t-42.5 110.5q0 27 7.5 48.5t20.5 36.5l-99 -5v120h241q10 0 21.5 -1l22.5 -2l-8 -116h-10q-33 0 -47.5 -15.5t-14.5 -44.5q0 -24 12 -38t39 -14q40 0 74 34z" />
    <glyph glyph-name="chaprehalfdeva" horiz-adv-x="595" 
d="M0 502v120h607v-120h-607zM255 118q54 0 95.5 23.5t65.5 63.5t24 91q0 33 -8.5 52.5t-29.5 19.5q-11 0 -20 -8.5t-9 -23.5q0 -20 10 -33t38 -23l-45 -96q-115 47 -115 153q0 58 36 94.5t110 36.5q79 0 121.5 -48.5t42.5 -131.5q0 -78 -37 -143.5t-107 -105t-168 -39.5
q-97 0 -145 43.5t-48 114.5q0 18 4.5 35.5t14.5 33.5q-28 20 -44.5 49t-16.5 66q0 60 40 93t112 33q15 0 33.5 -2t33.5 -6l-8 -102q-25 6 -44 6q-39 0 -39 -33q0 -22 23 -35q17 4 36 4q13 0 24 -1.5t21 -3.5l-9 -102q-4 1 -9.5 1h-11.5q-35 0 -35 -33q0 -23 17.5 -33
t46.5 -10z" />
    <glyph glyph-name="japrehalfdeva" horiz-adv-x="474" 
d="M0 622h486v-120h-486v120zM475 315h-50q-9 0 -22 0.5t-26 1.5q42 -50 42 -117q0 -65 -39.5 -103t-112.5 -38q-60 0 -106.5 27.5t-82.5 96t-64 192.5l122 32q20 -84 37.5 -133.5t36.5 -71.5t42 -22q34 0 34 40q0 33 -18.5 65.5t-46.5 61.5l44 85h210v-117z" />
    <glyph glyph-name="jhaprehalfdeva" horiz-adv-x="398" 
d="M193 193q-22 0 -42 -3.5t-39 -9.5q-36 30 -61 68t-25 84q0 53 34 84q16 14 43 24t81 10h29v52h-213v120h410v-120h-65v-153h-153q-15 0 -21.5 -1.5t-10.5 -5.5q-5 -5 -5 -15q0 -11 3.5 -19t9.5 -17q27 7 59 7q31 0 57 -7v0l6 -2h1q14 -5 32.5 -8t47.5 -3q20 0 41 3t38 11
l17 -111q-23 -11 -41 -14t-36 -3h-8v-9q0 -51 -24 -90t-84 -54q54 -24 96 -39l-55 -98q-44 28 -87.5 60.5l-86.5 67.5q-53 3 -84 21t-31 62q0 31 18 48t44 17q40 0 74 -38q12 -1 24 -1q34 0 48.5 11t14.5 32q0 19 -12.5 29t-43.5 10z" />
    <glyph glyph-name="nyaprehalfdeva" horiz-adv-x="476" 
d="M0 622h488v-120h-488v120zM166 420q24 10 52 16.5t56 6.5q66 0 104.5 -32.5t50.5 -88.5q8 -1 18 -1q19 0 38 6l9 -106q-11 -2 -23.5 -3.5t-26.5 -1.5h-12q-12 -75 -59.5 -104.5t-112.5 -29.5q-80 0 -140.5 56t-103.5 181l119 37q29 -87 56 -120t61 -33q28 0 40 15.5
t12 43.5q0 61 -49 61q-13 0 -25 -3.5t-24 -8.5z" />
    <glyph glyph-name="ttaprehalfdeva" horiz-adv-x="421" 
d="M433 502h-100v-189h-20q-39 0 -68 -5t-48 -19q-15 -11 -25 -29t-10 -45q0 -49 26 -71t64 -22q32 0 58 8.5t58 25.5l43 -117q-78 -39 -169 -39q-96 0 -155.5 57.5t-59.5 160.5q0 63 24 107t63 69.5t86 33.5v74h-200v120h433v-120zM163 -32q16 4 32.5 6t37.5 2
q53 0 93 -23.5t73 -67t65 -103.5l-99 -50q-29 49 -50 77t-42 40t-48 12q-9 0 -20 -1t-21 -4z" />
    <glyph glyph-name="tthaprehalfdeva" horiz-adv-x="472" 
d="M484 502h-152v-82q59 -38 87.5 -94t28.5 -124q0 -104 -56.5 -153t-147.5 -49q-100 0 -158.5 57.5t-58.5 160.5q0 62 23.5 106t62.5 69.5t86 33.5v75h-199v120h484v-120zM239 120q37 0 57 21t20 64q0 35 -13.5 63.5t-35.5 44.5q-45 -3 -69 -22q-16 -11 -26.5 -30
t-10.5 -51q0 -50 24.5 -70t53.5 -20zM163 -32q16 4 32.5 6t37.5 2q53 0 93 -23.5t73 -67t65 -103.5l-99 -50q-29 49 -50 77t-42 40t-48 12q-9 0 -20 -1t-21 -4z" />
    <glyph glyph-name="ddaprehalfdeva" horiz-adv-x="492" 
d="M278 193q-22 0 -43 -3.5t-39 -9.5q-36 30 -61.5 68t-25.5 84q0 53 34 84q16 14 43 24t81 10h29v52h-296v120h504v-120h-77v-153h-151q-15 0 -21.5 -1.5t-10.5 -5.5q-5 -5 -5 -15q0 -19 13 -36q27 7 59 7q80 0 118 -42t38 -104q0 -64 -44 -108t-143 -44q-88 0 -153.5 35
t-115.5 83l88 94q46 -45 86 -70t90 -25q30 0 44 8.5t14 29.5q0 18 -12 28t-43 10zM202 -32q16 4 32.5 6t37.5 2q53 0 93 -23.5t73 -67t65 -103.5l-99 -50q-29 49 -50 77t-42 40t-48 12q-9 0 -20 -1t-21 -4z" />
    <glyph glyph-name="ddhaprehalfdeva" horiz-adv-x="475" 
d="M263 0q-72 0 -125 28.5t-82 80t-29 122.5q0 69 28 116t76.5 72.5t109.5 28.5v54h-241v120h487v-120h-114v-168h-61q-42 0 -71 -6.5t-48 -22.5q-17 -13 -26 -32t-9 -49q0 -37 12 -61.5t32 -37.5q-6 27 -6 54q0 50 31 86t96 36q47 0 76.5 -20t43 -51.5t13.5 -67.5
q0 -76 -52 -119t-141 -43zM290 157q0 -23 9 -45q21 2 35 15t14 36q0 36 -27 36q-17 0 -24 -13t-7 -29zM180 -32q16 4 32.5 6t37.5 2q53 0 93 -23.5t73 -67t65 -103.5l-99 -50q-29 49 -50 77t-42 40t-48 12q-9 0 -20 -1t-21 -4z" />
    <glyph glyph-name="nnaprehalfdeva" horiz-adv-x="408" 
d="M220 120q-44 0 -76 13.5t-53 37.5q-22 25 -32 59t-10 86v186h-49v120h420v-120h-32v-190q0 -52 -7.5 -85.5t-26.5 -56.5q-20 -24 -52.5 -37t-81.5 -13zM218 239q18 0 26 12q10 14 10 55v196h-70v-196q0 -20 1.5 -33t6.5 -22q8 -12 26 -12z" />
    <glyph glyph-name="taprehalfdeva" horiz-adv-x="279" 
d="M0 622h291v-120h-291v120zM25 237q0 39 11 68t31 48q25 26 65 38.5t116 12.5h40v-119h-46q-31 0 -45 -4.5t-24 -14.5q-13 -16 -13 -44q0 -38 21.5 -79t63.5 -91l-104 -72q-49 62 -82.5 127t-33.5 130z" />
    <glyph glyph-name="thaprehalfdeva" horiz-adv-x="369" 
d="M148 368q-50 12 -82.5 44t-32.5 91q0 62 41.5 95.5t100.5 33.5q81 0 124.5 -48t43.5 -128q0 -66 -27.5 -112t-77.5 -79q20 -41 64 -41q30 0 53 14t42 39l68 -99q-43 -37 -82.5 -55t-93.5 -18q-85 0 -132.5 56.5t-67.5 159.5q64 19 93 57.5t29 88.5q0 26 -9.5 46t-32.5 20
q-12 0 -20 -8.5t-8 -22.5q0 -34 40 -41z" />
    <glyph glyph-name="daprehalfdeva" horiz-adv-x="439" 
d="M311 -67q-14 35 -25.5 67.5t-19.5 62.5q-12 -1 -23 -1q-56 0 -106 20t-81 64.5t-31 116.5q0 47 14.5 79t38.5 55q42 38 110 50v55h-188v120h451v-120h-130v-167h-43q-39 0 -61.5 -5.5t-36.5 -19.5q-19 -19 -19 -51q0 -36 21.5 -57t65.5 -21q-1 6 -1 11q0 39 22.5 58
t54.5 19q43 0 67.5 -28.5t24.5 -70.5q0 -33 -12.5 -52.5t-30.5 -30.5q10 -28 23.5 -57t27.5 -55zM237 -32q16 4 32.5 6t37.5 2q53 0 93 -23.5t73 -67t65 -103.5l-99 -50q-29 49 -50 77t-42 40t-48 12q-9 0 -20 -1t-21 -4z" />
    <glyph glyph-name="dhaprehalfdeva" horiz-adv-x="340" 
d="M438 153q-40 -35 -80.5 -53.5t-96.5 -18.5q-77 0 -120 44.5t-43 118.5q0 49 23 87q-40 21 -66.5 58t-26.5 92q0 64 42 107.5t112 43.5q58 0 93 -32.5t35 -81.5q0 -33 -9 -53.5t-20 -39.5l-87 40q4 5 8.5 15.5t4.5 22.5q0 10 -5.5 17t-19.5 7q-16 0 -27.5 -14t-11.5 -35
q0 -31 23.5 -48t52.5 -24q21 4 45 4q8 0 21 -1t24 -3l-10 -117q-5 1 -10.5 1.5t-12.5 0.5q-20 0 -32 -11t-12 -34q0 -25 13 -35t35 -10q31 0 53 15.5t37 35.5z" />
    <glyph glyph-name="naprehalfdeva" horiz-adv-x="290" 
d="M0 622h302v-120h-302v120zM215 255v-32q0 -76 -61 -76q-25 0 -48.5 15t-42 39.5t-29.5 52t-11 52.5q0 30 14.5 49t57.5 19h207v-119h-87z" />
    <glyph glyph-name="paprehalfdeva" horiz-adv-x="269" 
d="M181 502v-176q0 -32 2.5 -46t10.5 -25q9 -14 32 -14q22 0 40 10t34 27l60 -101q-38 -28 -73 -41.5t-78 -13.5q-47 0 -77 15t-49 38q-18 23 -27 56t-9 97v174h-47v120h281v-120h-100z" />
    <glyph glyph-name="phaprehalfdeva" horiz-adv-x="511" 
d="M523 502h-104v-161q12 8 27 12.5t39 4.5h41v-119h-45q-22 0 -36.5 -4t-25.5 -13v-222h-134v143q-20 -11 -40.5 -16t-42.5 -5q-43 0 -71.5 15t-47.5 38q-18 23 -27 56t-9 97v174h-47v120h523v-120zM181 502v-176q0 -32 2.5 -46t10.5 -25q11 -14 31 -14q19 0 34 8.5
t26 21.5v231h-104z" />
    <glyph glyph-name="baprehalfdeva" horiz-adv-x="306" 
d="M0 622h318v-120h-318v120zM361 150q-34 -32 -72 -48.5t-88 -16.5q-83 0 -129.5 47t-46.5 136q0 82 44 130.5t131 48.5q22 0 39.5 -2t35.5 -6l-10 -108q-22 5 -47 5l66 -113q10 9 18 20zM146 265q0 -40 18 -55.5t46 -15.5q5 0 10 1l-65 109q-9 -16 -9 -39z" />
    <glyph glyph-name="bhaprehalfdeva" horiz-adv-x="425" 
d="M337 211v-18q0 -77 -61 -77q-34 0 -64 25t-48 60t-18 67q0 26 13 44t46 18v124q0 51 -10 66q-9 13 -26 13q-12 0 -20 -8.5t-8 -24.5q0 -33 39 -39l-8 -97q-58 7 -98.5 40.5t-40.5 99.5t41 97t101 31q71 0 113 -39q23 -22 36 -55t13 -95v-113h99v-119h-99zM384 622h53
v-120h-53v120z" />
    <glyph glyph-name="maprehalfdeva" horiz-adv-x="314" 
d="M215 330h113v-119h-113v-18q0 -77 -60 -77q-35 0 -64.5 25t-48 60t-18.5 67q0 26 13 44t44 18v172h-81v120h326v-120h-111v-172z" />
    <glyph glyph-name="yaprehalfdeva" horiz-adv-x="290" 
d="M384 170q-38 -32 -76 -48.5t-93 -16.5q-85 0 -132 64.5t-64 180.5q43 13 61 36t18 61q0 13 -3 27.5t-8 27.5h-87v120h302v-120h-84q6 -17 10.5 -36.5t4.5 -40.5q0 -50 -20 -81t-52 -50q9 -33 26 -51.5t43 -18.5q24 0 44.5 9.5t39.5 32.5z" />
    <glyph glyph-name="raprehalfdeva" horiz-adv-x="313" 
d="M0 502v120h325v-120h-325zM345 228q-55 -30 -130 -30q-47 0 -97.5 15t-103.5 50l44 106q31 -19 70 -33.5t77 -14.5q37 0 61 5.5t54 21.5z" />
    <glyph glyph-name="laprehalfdeva" horiz-adv-x="430" 
d="M0 622h442v-120h-442v120zM437 303q-11 3 -22 3q-17 0 -32.5 -8.5t-28.5 -35t-21 -79.5l-120 32q7 37 18 68q-18 20 -37 20t-27 -14.5t-8 -34.5q0 -47 29 -95t74 -104l-103 -72q-61 72 -97.5 143.5t-36.5 134.5q0 61 23 96.5t57.5 51.5t66.5 16q38 0 65 -11t55 -33
q46 42 117 42q17 0 28 -2t21 -5z" />
    <glyph glyph-name="llaprehalfdeva" horiz-adv-x="612" 
d="M0 622h624v-120h-624v120zM603 234q0 -96 -44.5 -148.5t-120.5 -52.5q-67 0 -123 50q-26 -31 -56 -40.5t-60 -9.5q-73 0 -122 50t-49 158q0 97 44 150t121 53q36 0 64 -11.5t57 -38.5q27 31 58 40.5t62 9.5q79 0 124 -53.5t45 -156.5zM366 185q-1 -4 -2 -7q23 -25 47 -25
q26 0 42.5 22t16.5 76q0 41 -10 57t-27 16t-26 -13.5t-17 -42.5zM161 225q0 -41 10.5 -56.5t27.5 -15.5q16 0 25 13.5t17 42.5l23 83l2 7q-22 25 -47 25t-41.5 -22.5t-16.5 -76.5z" />
    <glyph glyph-name="vaprehalfdeva" horiz-adv-x="297" 
d="M0 622h309v-120h-309v120zM351 147q-32 -29 -69.5 -45.5t-84.5 -16.5q-80 0 -126 45.5t-46 137.5q0 82 43.5 130.5t125.5 48.5q20 0 36 -2t34 -6l-11 -118q-9 2 -18.5 3.5t-21.5 1.5q-53 0 -53 -62q0 -35 14 -47t34 -12q25 0 44 11.5t37 30.5z" />
    <glyph glyph-name="shaprehalfdeva" horiz-adv-x="378" 
d="M121 150q-41 0 -70.5 22.5t-29.5 69.5q0 35 21.5 55t58.5 20q40 0 77 -24q27 23 40 59.5t13 82.5q0 49 -13 72.5t-33 23.5q-13 0 -22.5 -9t-9.5 -25q0 -42 56 -53l-27 -97q-146 26 -146 152q0 55 39 94t112 39q79 0 129 -54.5t50 -152.5q0 -73 -26 -130.5t-71 -93.5
q28 -32 56.5 -68.5t52.5 -71.5l-107 -67q-26 44 -53.5 84.5t-54.5 75.5q-20 -4 -42 -4z" />
    <glyph glyph-name="ssaprehalfdeva" horiz-adv-x="315" 
d="M320 303l45 -132q-37 -25 -72.5 -37t-80.5 -12q-50 0 -80 15t-49 38q-18 23 -27 56t-9 97v174h-47v120h327v-120h-109zM228 241q22 0 41 9l-91 179v-101q0 -30 2.5 -45t8.5 -25q5 -8 14 -12.5t25 -4.5z" />
    <glyph glyph-name="saprehalfdeva" horiz-adv-x="370" 
d="M312 335q21 0 38 1t33 5l12 -116q-17 -5 -35.5 -7t-34.5 -2q-38 0 -69.5 9.5t-55.5 23.5q-7 -5 -13 -10q29 -42 68 -90l74 -89l-107 -77l-62.5 81.5l-50 68t-48.5 76.5q-39 63 -39 114q0 30 16.5 52t51.5 22q26 0 47 -17q9 29 9 61q0 33 -7 61h-139v120h382v-120h-113
q4 -16 7 -35t3 -42q0 -26 -4.5 -47.5t-11.5 -38.5q23 -4 49 -4z" />
    <glyph glyph-name="haprehalfdeva" horiz-adv-x="395" 
d="M417 156h-165q-32 0 -46 -4t-25 -14q-17 -17 -17 -50q0 -42 20.5 -79t68.5 -90l-103 -72q-40 47 -67 86.5t-40.5 78.5t-13.5 84q0 38 12 67t32 51q-14 20 -25 47t-11 63q0 28 10.5 50t27.5 38q21 20 51.5 29t83.5 9h6v52h-216v120h407v-120h-58v-167h-136q-17 0 -25 -2.5
t-12 -7.5q-7 -6 -7 -19q0 -18 12 -36q31 5 72 5h164v-119z" />
    <glyph glyph-name="zhaprehalfdeva" horiz-adv-x="471" 
d="M0 622h483v-120h-483v120zM271 93q-65 0 -112.5 28.5t-82.5 95t-62 180.5l122 32q26 -108 52.5 -162t64.5 -54q33 0 33 35q0 30 -19 60t-45 55l41 81h208v-116h-50q-10 0 -23.5 0.5t-26.5 1.5q23 -25 35 -52t12 -57q0 -64 -42 -96t-105 -32zM201 -29q-26 0 -40.5 15.5
t-14.5 41.5t14.5 42.5t40.5 16.5q25 0 39 -16.5t14 -42.5t-14 -41.5t-39 -15.5zM342 -29q-26 0 -40 15.5t-14 41.5t14 42.5t40 16.5t40 -16.5t14 -42.5t-14 -41.5t-40 -15.5zM272 -136q-26 0 -40 16t-14 42t14 42.5t40 16.5t40 -16.5t14 -42.5t-14 -42t-40 -16z" />
    <glyph glyph-name="heavyyaprehalfdeva" horiz-adv-x="304" 
d="M215 98q-85 0 -132 65t-64 181q43 15 61 38t18 62q0 28 -11 58h-87v120h316v-120h-100l121 -236l25 -119q-33 -24 -65 -36.5t-82 -12.5zM242 302q-10 20 -24 52q-10 -24 -25.5 -40t-31.5 -26q18 -71 69 -71q28 0 49 13z" />
    <glyph glyph-name="kassaprehalfdeva" horiz-adv-x="420" 
d="M451 287q-28 -11 -55.5 -16t-59.5 -5q-73 0 -130 24q-26 -23 -35.5 -42.5t-9.5 -40.5q0 -25 14.5 -40t38.5 -15h1v9q0 30 17.5 51t52.5 21q43 0 68.5 -27.5t25.5 -69.5q0 -48 -34 -72l25 -41t26 -40l-98 -56q-34 55 -56 108q-9 -1 -20 -1q-73 0 -116 23t-62 61t-19 83
t19.5 81t64.5 72q-26 27 -42 60.5t-16 77.5q0 58 40.5 99t116.5 41q80 0 119 -38t39 -96q0 -31 -13 -61t-46 -58q12 -1 27 -1q20 0 43 3.5t48 15.5zM177 482q0 -20 9 -37t22 -29q20 17 27 34t7 32q0 18 -8 29.5t-24 11.5t-24.5 -11t-8.5 -30z" />
    <glyph glyph-name="janyaprehalfdeva" horiz-adv-x="366" 
d="M0 622h378v-120h-378v120zM183 225q0 76 -113 117l33 90h276v-117h-50q-14 0 -30.5 1t-30.5 2q24 -21 37 -48t13 -64q0 -41 -19.5 -73.5t-53.5 -50.5q24 -12 50 -23t45 -18l-53 -94q-37 22 -78 52.5t-76 62.5q-51 3 -83 20.5t-32 63.5q0 33 18.5 50.5t47.5 17.5
q43 0 76 -41q23 14 23 52z" />
    <glyph glyph-name="kanuktaprehalfdeva" horiz-adv-x="510" 
d="M522 502h-103v-160q12 8 26.5 12t39.5 4h39v-119h-43q-22 0 -36.5 -4t-25.5 -13v-222h-135v114q-20 -15 -42.5 -22t-51.5 -7q-73 0 -118.5 44.5t-45.5 136.5q0 82 42.5 131.5t124.5 49.5q19 0 35.5 -2t33.5 -6l-10 -118q-8 2 -18 3.5t-22 1.5q-52 0 -52 -61
q0 -37 14.5 -48.5t34.5 -11.5q24 0 42 13.5t33 35.5v248h-284v120h522v-120zM79 -31q0 32 18 52.5t50 20.5t49.5 -20.5t17.5 -52.5t-17.5 -52.5t-49.5 -20.5t-50 20.5t-18 52.5z" />
    <glyph glyph-name="khanuktaprehalfdeva" horiz-adv-x="499" 
d="M548 46q-42 -23 -80 -33t-94 -10q-74 0 -133 30t-104 77t-77 99q-38 63 -38 114q0 30 16.5 52t51.5 22q26 0 47 -17q9 29 9 61q0 33 -7 61h-139v120h511v-120h-242q4 -16 7 -35t3 -42q0 -64 -25.5 -110t-66.5 -75q42 -60 87 -89.5t109 -29.5q35 0 65 7.5t64 26.5z
M532 204q-26 -21 -52 -28.5t-54 -7.5q-58 0 -96.5 37t-38.5 114q0 67 33.5 107t100.5 40q13 0 28 -1.5t25 -4.5l-8 -101q-6 1 -12.5 2.5t-12.5 1.5q-35 0 -35 -46q0 -25 9.5 -34.5t24.5 -9.5q16 0 29 6.5t27 20.5zM79 -28q0 32 18 52.5t50 20.5t49.5 -20.5t17.5 -52.5
t-17.5 -52.5t-49.5 -20.5t-50 20.5t-18 52.5z" />
    <glyph glyph-name="ganuktaprehalfdeva" horiz-adv-x="252" 
d="M216 502v-285q0 -77 -60 -77q-34 0 -64 25.5t-49 62t-19 70.5q0 28 12 46.5t46 21.5v136h-82v120h264v-120h-48zM50 1q0 32 18 52.5t50 20.5t49.5 -20.5t17.5 -52.5t-17.5 -52.5t-49.5 -20.5t-50 20.5t-18 52.5z" />
    <glyph glyph-name="ghanuktaprehalfdeva" horiz-adv-x="303" 
d="M187 252q0 -24 13 -34t34 -10q30 0 52 15.5t38 35.5l69 -99q-41 -34 -81 -53t-96 -19q-78 0 -121 45t-43 119q0 52 27 92q-25 20 -39 47.5t-14 62.5q0 26 9 48h-35v120h315v-120h-142q-13 -17 -13 -38q0 -34 27 -48q15 2 31 2q9 0 22.5 -1.5t23.5 -3.5l-11 -117
q-5 1 -10.5 1.5t-12.5 0.5q-19 0 -31 -11t-12 -35zM61 -23q0 32 18 52.5t50 20.5t49.5 -20.5t17.5 -52.5t-17.5 -52.5t-49.5 -20.5t-50 20.5t-18 52.5z" />
    <glyph glyph-name="nganuktaprehalfdeva" horiz-adv-x="555" 
d="M278 193q-22 0 -43 -3.5t-39 -9.5q-36 30 -61.5 68t-25.5 84q0 53 34 84q16 14 43 24t81 10h11v52h-278v120h567v-120h-157v-153h-134q-15 0 -21.5 -1.5t-10.5 -5.5q-5 -5 -5 -15q0 -19 13 -36q27 7 59 7q80 0 118 -42t38 -104q0 -64 -44 -108t-143 -44q-88 0 -153.5 35
t-115.5 83l88 94q46 -45 86 -70t90 -25q30 0 44 8.5t14 30.5q0 17 -12 27t-43 10zM422 334q0 28 15.5 47t45.5 19q29 0 44 -19t15 -47q0 -30 -15 -48.5t-44 -18.5q-28 0 -44.5 18.5t-16.5 48.5zM223 -32q15 4 32 6t38 2q53 0 92.5 -23.5t73 -67t65.5 -103.5l-100 -50
q-28 49 -49.5 77t-42 40t-47.5 12q-10 0 -20.5 -1t-20.5 -4zM78 -137q0 32 18 52.5t50 20.5t49.5 -20.5t17.5 -52.5t-17.5 -52.5t-49.5 -20.5t-50 20.5t-18 52.5z" />
    <glyph glyph-name="canuktaprehalfdeva" horiz-adv-x="337" 
d="M0 622h349v-120h-349v120zM427 142q-38 -28 -75 -42.5t-89 -14.5q-77 0 -119.5 40.5t-42.5 110.5q0 27 7.5 48.5t20.5 36.5l-99 -5v120h241q10 0 21.5 -1l22.5 -2l-8 -116h-10q-33 0 -47.5 -15.5t-14.5 -44.5q0 -24 12 -38t39 -14q40 0 74 34zM122 -31q0 32 18 52.5
t50 20.5t49.5 -20.5t17.5 -52.5t-17.5 -52.5t-49.5 -20.5t-50 20.5t-18 52.5z" />
    <glyph glyph-name="chanuktaprehalfdeva" horiz-adv-x="595" 
d="M0 502v120h607v-120h-607zM255 118q54 0 95.5 23.5t65.5 63.5t24 91q0 33 -8.5 52.5t-29.5 19.5q-11 0 -20 -8.5t-9 -23.5q0 -20 10 -33t38 -23l-45 -96q-115 47 -115 153q0 58 36 94.5t110 36.5q79 0 121.5 -48.5t42.5 -131.5q0 -78 -37 -143.5t-107 -105t-168 -39.5
q-97 0 -145 43.5t-48 114.5q0 18 4.5 35.5t14.5 33.5q-28 20 -44.5 49t-16.5 66q0 60 40 93t112 33q15 0 33.5 -2t33.5 -6l-8 -102q-25 6 -44 6q-39 0 -39 -33q0 -22 23 -35q17 4 36 4q13 0 24 -1.5t21 -3.5l-9 -102q-4 1 -9.5 1h-11.5q-35 0 -35 -33q0 -23 17.5 -33
t46.5 -10zM222 -134q0 32 18 52.5t50 20.5t49.5 -20.5t17.5 -52.5t-17.5 -52.5t-49.5 -20.5t-50 20.5t-18 52.5z" />
    <glyph glyph-name="januktaprehalfdeva" horiz-adv-x="474" 
d="M0 622h486v-120h-486v120zM475 315h-50q-9 0 -22 0.5t-26 1.5q42 -50 42 -117q0 -65 -39.5 -103t-112.5 -38q-60 0 -106.5 27.5t-82.5 96t-64 192.5l122 32q20 -84 37.5 -133.5t36.5 -71.5t42 -22q34 0 34 40q0 33 -18.5 65.5t-46.5 61.5l44 85h210v-117zM177 -73
q0 32 18 52.5t50 20.5t49.5 -20.5t17.5 -52.5t-17.5 -52.5t-49.5 -20.5t-50 20.5t-18 52.5z" />
    <glyph glyph-name="jhanuktaprehalfdeva" horiz-adv-x="398" 
d="M193 193q-22 0 -42 -3.5t-39 -9.5q-36 30 -61 68t-25 84q0 53 34 84q16 14 43 24t81 10h29v52h-213v120h410v-120h-65v-153h-153q-15 0 -21.5 -1.5t-10.5 -5.5q-5 -5 -5 -15q0 -11 3.5 -19t9.5 -17q27 7 59 7q31 0 57 -7v0l6 -2h1q14 -5 32.5 -8t47.5 -3q20 0 41 3t38 11
l17 -111q-23 -11 -41 -14t-36 -3h-8v-9q0 -51 -24 -90t-84 -54q54 -24 96 -39l-55 -98q-44 28 -87.5 60.5l-86.5 67.5q-53 3 -84 21t-31 62q0 31 18 48t44 17q40 0 74 -38q12 -1 24 -1q34 0 48.5 11t14.5 32q0 19 -12.5 29t-43.5 10zM103 -158q0 32 18 52.5t50 20.5
t49.5 -20.5t17.5 -52.5t-17.5 -52.5t-49.5 -20.5t-50 20.5t-18 52.5z" />
    <glyph glyph-name="nyanuktaprehalfdeva" horiz-adv-x="476" 
d="M0 622h488v-120h-488v120zM166 420q24 10 52 16.5t56 6.5q66 0 104.5 -32.5t50.5 -88.5q8 -1 18 -1q19 0 38 6l9 -106q-11 -2 -23.5 -3.5t-26.5 -1.5h-12q-12 -75 -59.5 -104.5t-112.5 -29.5q-80 0 -140.5 56t-103.5 181l119 37q29 -87 56 -120t61 -33q28 0 40 15.5
t12 43.5q0 61 -49 61q-13 0 -25 -3.5t-24 -8.5zM167 -49q0 32 18 52.5t50 20.5t49.5 -20.5t17.5 -52.5t-17.5 -52.5t-49.5 -20.5t-50 20.5t-18 52.5z" />
    <glyph glyph-name="ttanuktaprehalfdeva" horiz-adv-x="421" 
d="M433 502h-100v-189h-20q-39 0 -68 -5t-48 -19q-15 -11 -25 -29t-10 -45q0 -49 26 -71t64 -22q32 0 58 8.5t58 25.5l43 -117q-78 -39 -169 -39q-96 0 -155.5 57.5t-59.5 160.5q0 63 24 107t63 69.5t86 33.5v74h-200v120h433v-120zM178 -32q15 4 32 6t38 2q53 0 92.5 -23.5
t73 -67t65.5 -103.5l-100 -50q-28 49 -49.5 77t-42 40t-47.5 12q-10 0 -20.5 -1t-20.5 -4zM33 -137q0 32 18 52.5t50 20.5t49.5 -20.5t17.5 -52.5t-17.5 -52.5t-49.5 -20.5t-50 20.5t-18 52.5z" />
    <glyph glyph-name="tthanuktaprehalfdeva" horiz-adv-x="472" 
d="M484 502h-152v-82q59 -38 87.5 -94t28.5 -124q0 -104 -56.5 -153t-147.5 -49q-100 0 -158.5 57.5t-58.5 160.5q0 62 23.5 106t62.5 69.5t86 33.5v75h-199v120h484v-120zM239 120q37 0 57 21t20 64q0 35 -13.5 63.5t-35.5 44.5q-45 -3 -69 -22q-16 -11 -26.5 -30
t-10.5 -51q0 -50 24.5 -70t53.5 -20zM178 -32q15 4 32 6t38 2q53 0 92.5 -23.5t73 -67t65.5 -103.5l-100 -50q-28 49 -49.5 77t-42 40t-47.5 12q-10 0 -20.5 -1t-20.5 -4zM33 -137q0 32 18 52.5t50 20.5t49.5 -20.5t17.5 -52.5t-17.5 -52.5t-49.5 -20.5t-50 20.5t-18 52.5z
" />
    <glyph glyph-name="ddanuktaprehalfdeva" horiz-adv-x="492" 
d="M278 193q-22 0 -43 -3.5t-39 -9.5q-36 30 -61.5 68t-25.5 84q0 53 34 84q16 14 43 24t81 10h29v52h-296v120h504v-120h-77v-153h-151q-15 0 -21.5 -1.5t-10.5 -5.5q-5 -5 -5 -15q0 -19 13 -36q27 7 59 7q80 0 118 -42t38 -104q0 -64 -44 -108t-143 -44q-88 0 -153.5 35
t-115.5 83l88 94q46 -45 86 -70t90 -25q30 0 44 8.5t14 29.5q0 18 -12 28t-43 10zM223 -32q15 4 32 6t38 2q53 0 92.5 -23.5t73 -67t65.5 -103.5l-100 -50q-28 49 -49.5 77t-42 40t-47.5 12q-10 0 -20.5 -1t-20.5 -4zM78 -137q0 32 18 52.5t50 20.5t49.5 -20.5t17.5 -52.5
t-17.5 -52.5t-49.5 -20.5t-50 20.5t-18 52.5z" />
    <glyph glyph-name="ddhanuktaprehalfdeva" horiz-adv-x="475" 
d="M263 0q-72 0 -125 28.5t-82 80t-29 122.5q0 69 28 116t76.5 72.5t109.5 28.5v54h-241v120h487v-120h-114v-168h-61q-42 0 -71 -6.5t-48 -22.5q-17 -13 -26 -32t-9 -49q0 -37 12 -61.5t32 -37.5q-6 27 -6 54q0 50 31 86t96 36q47 0 76.5 -20t43 -51.5t13.5 -67.5
q0 -76 -52 -119t-141 -43zM290 157q0 -23 9 -45q21 2 35 15t14 36q0 36 -27 36q-17 0 -24 -13t-7 -29zM190 -32q15 4 32 6t38 2q53 0 92.5 -23.5t73 -67t65.5 -103.5l-100 -50q-28 49 -49.5 77t-42 40t-47.5 12q-10 0 -20.5 -1t-20.5 -4zM45 -137q0 32 18 52.5t50 20.5
t49.5 -20.5t17.5 -52.5t-17.5 -52.5t-49.5 -20.5t-50 20.5t-18 52.5z" />
    <glyph glyph-name="nnanuktaprehalfdeva" horiz-adv-x="408" 
d="M220 120q-44 0 -76 13.5t-53 37.5q-22 25 -32 59t-10 86v186h-49v120h420v-120h-32v-190q0 -52 -7.5 -85.5t-26.5 -56.5q-20 -24 -52.5 -37t-81.5 -13zM218 239q18 0 26 12q10 14 10 55v196h-70v-196q0 -20 1.5 -33t6.5 -22q8 -12 26 -12zM165 -30q0 32 18 52.5t50 20.5
t49.5 -20.5t17.5 -52.5t-17.5 -52.5t-49.5 -20.5t-50 20.5t-18 52.5z" />
    <glyph glyph-name="tanuktaprehalfdeva" horiz-adv-x="279" 
d="M0 622h291v-120h-291v120zM25 237q0 39 11 68t31 48q25 26 65 38.5t116 12.5h40v-119h-46q-31 0 -45 -4.5t-24 -14.5q-13 -16 -13 -44q0 -38 21.5 -79t63.5 -91l-104 -72q-49 62 -82.5 127t-33.5 130zM93 -149q0 32 18 52.5t50 20.5t49.5 -20.5t17.5 -52.5t-17.5 -52.5
t-49.5 -20.5t-50 20.5t-18 52.5z" />
    <glyph glyph-name="thanuktaprehalfdeva" horiz-adv-x="369" 
d="M148 368q-50 12 -82.5 44t-32.5 91q0 62 41.5 95.5t100.5 33.5q81 0 124.5 -48t43.5 -128q0 -66 -27.5 -112t-77.5 -79q20 -41 64 -41q30 0 53 14t42 39l68 -99q-43 -37 -82.5 -55t-93.5 -18q-85 0 -132.5 56.5t-67.5 159.5q64 19 93 57.5t29 88.5q0 26 -9.5 46t-32.5 20
q-12 0 -20 -8.5t-8 -22.5q0 -34 40 -41zM121 -7q0 32 18 52.5t50 20.5t49.5 -20.5t17.5 -52.5t-17.5 -52.5t-49.5 -20.5t-50 20.5t-18 52.5z" />
    <glyph glyph-name="danuktaprehalfdeva" horiz-adv-x="439" 
d="M311 -67q-14 35 -25.5 67.5t-19.5 62.5q-12 -1 -23 -1q-56 0 -106 20t-81 64.5t-31 116.5q0 47 14.5 79t38.5 55q42 38 110 50v55h-188v120h451v-120h-130v-167h-43q-39 0 -61.5 -5.5t-36.5 -19.5q-19 -19 -19 -51q0 -36 21.5 -57t65.5 -21q-1 6 -1 11q0 39 22.5 58
t54.5 19q43 0 67.5 -28.5t24.5 -70.5q0 -33 -12.5 -52.5t-30.5 -30.5q10 -28 23.5 -57t27.5 -55zM237 -32q16 4 32.5 6t37.5 2q53 0 93 -23.5t73 -67t65 -103.5l-99 -50q-29 49 -50 77t-42 40t-48 12q-9 0 -20 -1t-21 -4zM70 -66q0 32 18 52.5t50 20.5t49.5 -20.5
t17.5 -52.5t-17.5 -52.5t-49.5 -20.5t-50 20.5t-18 52.5z" />
    <glyph glyph-name="dhanuktaprehalfdeva" horiz-adv-x="340" 
d="M438 153q-40 -35 -80.5 -53.5t-96.5 -18.5q-77 0 -120 44.5t-43 118.5q0 49 23 87q-40 21 -66.5 58t-26.5 92q0 64 42 107.5t112 43.5q58 0 93 -32.5t35 -81.5q0 -33 -9 -53.5t-20 -39.5l-87 40q4 5 8.5 15.5t4.5 22.5q0 10 -5.5 17t-19.5 7q-16 0 -27.5 -14t-11.5 -35
q0 -31 23.5 -48t52.5 -24q21 4 45 4q8 0 21 -1t24 -3l-10 -117q-5 1 -10.5 1.5t-12.5 0.5q-20 0 -32 -11t-12 -34q0 -25 13 -35t35 -10q31 0 53 15.5t37 35.5zM140 -50q0 32 18 52.5t50 20.5t49.5 -20.5t17.5 -52.5t-17.5 -52.5t-49.5 -20.5t-50 20.5t-18 52.5z" />
    <glyph glyph-name="nanuktaprehalfdeva" horiz-adv-x="290" 
d="M0 622h302v-120h-302v120zM215 255v-32q0 -76 -61 -76q-25 0 -48.5 15t-42 39.5t-29.5 52t-11 52.5q0 30 14.5 49t57.5 19h207v-119h-87zM72 7q0 32 18 52.5t50 20.5t49.5 -20.5t17.5 -52.5t-17.5 -52.5t-49.5 -20.5t-50 20.5t-18 52.5z" />
    <glyph glyph-name="panuktaprehalfdeva" horiz-adv-x="269" 
d="M181 502v-176q0 -32 2.5 -46t10.5 -25q9 -14 32 -14q22 0 40 10t34 27l60 -101q-38 -28 -73 -41.5t-78 -13.5q-47 0 -77 15t-49 38q-18 23 -27 56t-9 97v174h-47v120h281v-120h-100zM83 -1q0 32 18 52.5t50 20.5t49.5 -20.5t17.5 -52.5t-17.5 -52.5t-49.5 -20.5t-50 20.5
t-18 52.5z" />
    <glyph glyph-name="phanuktaprehalfdeva" horiz-adv-x="511" 
d="M523 502h-104v-161q12 8 27 12.5t39 4.5h41v-119h-45q-22 0 -36.5 -4t-25.5 -13v-222h-134v143q-20 -11 -40.5 -16t-42.5 -5q-43 0 -71.5 15t-47.5 38q-18 23 -27 56t-9 97v174h-47v120h523v-120zM181 502v-176q0 -32 2.5 -46t10.5 -25q11 -14 31 -14q19 0 34 8.5
t26 21.5v231h-104zM79 -1q0 32 18 52.5t50 20.5t49.5 -20.5t17.5 -52.5t-17.5 -52.5t-49.5 -20.5t-50 20.5t-18 52.5z" />
    </font>
</defs>
</svg>
