<svg xmlns="http://www.w3.org/2000/svg" width="47.005" height="43.472" viewBox="0 0 47.005 43.472">
  <g id="Group_125" data-name="Group 125" opacity="0.23">
    <path id="Path_31" data-name="Path 31" d="M1604.931,300.778V281.849h17.48v14.944q0,12.135-2.9,17.569a24.365,24.365,0,0,1-12.046,10.959l-3.985-6.34a14.583,14.583,0,0,0,7.336-6.2q2.356-4.122,2.626-12Zm-28.076,0V281.849h17.48v14.944q0,12.135-2.9,17.569a24.365,24.365,0,0,1-12.046,10.959l-3.985-6.34a14.582,14.582,0,0,0,7.336-6.2q2.357-4.122,2.626-12Z" transform="translate(-1575.406 -281.849)" fill="#fff"/>
  </g>
</svg>
