<svg id="Logo" xmlns="http://www.w3.org/2000/svg" width="150" height="24" viewBox="0 0 150 24">
  <g id="Layer_1" data-name="Layer 1" transform="translate(0 0)">
    <path id="Path_5" data-name="Path 5" d="M64.006,8.093a2.062,2.062,0,0,1,2.029-1.954,2.028,2.028,0,0,1,2.049,1.954Zm5.519,1.7c.783,0,1.12-.372,1.12-1.137a4.606,4.606,0,1,0-9.2.293,4.658,4.658,0,0,0,4.805,4.913c1.9,0,4.181-1.064,4.181-2.165a1.135,1.135,0,0,0-1.038-1.091c-.677,0-1.586,1.031-2.9,1.031A2.21,2.21,0,0,1,64.072,9.8ZM60.866,5.843c0-1.259-1.94-1.845-3.2-1.845C55.635,4,54.191,5.2,54.191,6.963c0,2.926,4.452,2.748,4.452,3.921,0,.478-.231.728-1.015.728-1.21,0-1.652-.87-2.644-.87a1.2,1.2,0,0,0-1.1,1.134c0,1.157,2.135,1.977,3.576,1.977,2.208,0,3.635-1.3,3.635-3,0-2.91-4.448-2.732-4.448-3.921,0-.5.406-.708.869-.708.839,0,1.818.745,2.313.745a1.105,1.105,0,0,0,1.038-1.114ZM51.729.283a1.479,1.479,0,0,0-1.444,1.4A1.5,1.5,0,0,0,51.729,3.16,1.465,1.465,0,0,0,53.17,1.687a1.462,1.462,0,0,0-1.441-1.4ZM50.446,12.351a1.287,1.287,0,1,0,2.561,0V5.536a1.287,1.287,0,1,0-2.561,0Zm-9.851,0a1.289,1.289,0,1,0,2.564,0V7.909a1.657,1.657,0,1,1,3.308,0v4.442a1.289,1.289,0,1,0,2.564,0v-4.9A3.28,3.28,0,0,0,45.526,4.01a3.07,3.07,0,0,0-2.333.886h-.033V1.42a1.289,1.289,0,1,0-2.564,0Zm-.879-6.726c0-1.242-2.118-1.615-3.133-1.615a4.758,4.758,0,0,0-4.594,4.943,4.654,4.654,0,0,0,4.594,4.913c.925,0,3.133-.442,3.133-1.756a1.122,1.122,0,0,0-1.1-1.117,14.325,14.325,0,0,1-1.9.531,2.357,2.357,0,0,1-2.155-2.57c0-1.318.694-2.61,2.155-2.61.816,0,1.388.5,2.026.5S39.716,6.159,39.716,5.625ZM22.465,12.351a1.289,1.289,0,1,0,2.564,0V7.909a1.665,1.665,0,1,1,3.325,0v4.442a1.289,1.289,0,1,0,2.564,0v-4.9a3.288,3.288,0,0,0-3.5-3.444,2.771,2.771,0,0,0-2.475,1.048,1.08,1.08,0,0,0-1.173-.942,1.3,1.3,0,0,0-1.282,1.42Zm-8-3.388c0-1.226.625-2.61,2.029-2.61,1.352,0,1.983,1.384,1.983,2.61s-.635,2.57-1.983,2.57C15.1,11.534,14.461,10.186,14.461,8.963Zm6.567-3.177c0-.659,0-1.671-1.226-1.671a1.218,1.218,0,0,0-1.229,1.068A2.924,2.924,0,0,0,16.133,4.01c-2.35,0-4.233,2.149-4.233,4.943,0,2.874,1.831,4.913,4.233,4.913a3.067,3.067,0,0,0,2.439-1.19c.178.659.482,1.084,1.229,1.084,1.226,0,1.226-1.012,1.226-1.667ZM6.318,12.351a1.289,1.289,0,1,0,2.564,0V8.429c0-1.012.783-1.348,1.547-1.7s1.533-.409,1.533-1.242a1.25,1.25,0,0,0-1.246-1.368,2.015,2.015,0,0,0-1.8,1.068H8.883c0-.814-.568-1.064-1.246-1.064A1.261,1.261,0,0,0,6.315,5.4Zm-4.627,0a1.287,1.287,0,1,0,2.561,0V6.459h.8c.75,0,1.3-.33,1.3-1.117s-.535-1.117-1.3-1.117H4.246V3.177c0-.939.426-.939.856-.939.711,0,1.048-.33,1.048-1.084C6.149.267,5.28,0,4.372,0A2.6,2.6,0,0,0,1.685,2.91V4.228H1.113A1.092,1.092,0,0,0-.007,5.342a1.036,1.036,0,0,0,1.12,1.117h.572Z" transform="translate(0.011 0)" fill="#ed1c24" fill-rule="evenodd"/>
    <path id="Path_6" data-name="Path 6" d="M277.174,12.351a1.284,1.284,0,1,0,2.555,0V7.909c0-1.028.463-1.756,1.514-1.756.925,0,1.494.728,1.494,1.756v4.442a1.287,1.287,0,1,0,2.561,0V7.909a1.551,1.551,0,0,1,1.514-1.756c.942,0,1.51.715,1.51,1.756v4.442a1.289,1.289,0,1,0,2.565,0v-4.9a3.208,3.208,0,0,0-3.506-3.444,3.854,3.854,0,0,0-2.693,1.3,3.285,3.285,0,0,0-2.644-1.3,3.19,3.19,0,0,0-2.383,1.064,1.083,1.083,0,0,0-1.176-.959,1.3,1.3,0,0,0-1.282,1.42Zm-5.668-6c1.408,0,2.029,1.384,2.029,2.61s-.641,2.57-2.029,2.57-2.023-1.348-2.023-2.57.618-2.61,2.023-2.61Zm0-2.343a4.758,4.758,0,0,0-4.59,4.943,4.6,4.6,0,1,0,9.177.01,4.756,4.756,0,0,0-4.587-4.953Zm-5.1,1.615c0-1.242-2.115-1.615-3.13-1.615a4.758,4.758,0,0,0-4.594,4.943,4.654,4.654,0,0,0,4.594,4.913c.925,0,3.13-.442,3.13-1.756a1.122,1.122,0,0,0-1.1-1.117,14.037,14.037,0,0,1-1.9.531,2.355,2.355,0,0,1-2.151-2.57c0-1.318.694-2.61,2.151-2.61.82,0,1.388.5,2.029.5s.978-.682.978-1.216Zm-11.841,6.867a1.388,1.388,0,1,0,1.388-1.384,1.386,1.386,0,0,0-1.388,1.384Zm-8.285-3.529c0-1.226.621-2.61,2.029-2.61,1.352,0,1.983,1.384,1.983,2.61s-.638,2.57-1.983,2.57C246.922,11.534,246.281,10.186,246.281,8.963Zm6.566-3.177c0-.659,0-1.671-1.229-1.671a1.215,1.215,0,0,0-1.226,1.068,2.934,2.934,0,0,0-2.439-1.173c-2.35,0-4.237,2.149-4.237,4.943,0,2.874,1.834,4.913,4.237,4.913a3.076,3.076,0,0,0,2.439-1.19c.178.659.479,1.084,1.226,1.084,1.229,0,1.229-1.012,1.229-1.667ZM241.393.283a1.478,1.478,0,0,0-1.444,1.4,1.5,1.5,0,0,0,1.444,1.473,1.465,1.465,0,0,0,1.441-1.473,1.462,1.462,0,0,0-1.441-1.4Zm-1.282,12.068a1.287,1.287,0,1,0,2.561,0V5.536a1.287,1.287,0,1,0-2.561,0Zm-3.966-3.477c0,1.242-.6,2.659-2.009,2.659-1.322,0-1.983-1.384-1.983-2.57s.661-2.61,1.983-2.61,2,1.279,2,2.521ZM238.71,1.42a1.289,1.289,0,1,0-2.564,0V4.9a3.721,3.721,0,0,0-2.439-.886c-2.756,0-4.128,2.574-4.128,5.058,0,2.412,1.652,4.808,4.217,4.808a2.79,2.79,0,0,0,2.35-1.17,1.228,1.228,0,0,0,1.282,1.064,1.293,1.293,0,0,0,1.282-1.42ZM220.058,12.351a1.287,1.287,0,1,0,2.561,0V7.909a1.665,1.665,0,1,1,3.325,0v4.442a1.287,1.287,0,1,0,2.561,0v-4.9A3.278,3.278,0,0,0,225,4.01a2.761,2.761,0,0,0-2.472,1.048,1.08,1.08,0,0,0-1.173-.942,1.293,1.293,0,0,0-1.282,1.42ZM217.361.283a1.475,1.475,0,0,0-1.441,1.4,1.5,1.5,0,0,0,1.441,1.473A1.465,1.465,0,0,0,218.8,1.687a1.462,1.462,0,0,0-1.441-1.4Zm-1.282,12.068a1.289,1.289,0,1,0,2.565,0V5.536a1.289,1.289,0,1,0-2.565,0Z" transform="translate(-144.56 0)" fill="#231f20" fill-rule="evenodd"/>
    <path id="Path_7" data-name="Path 7" d="M235.065,53.378c0-2.152-1.418-2.152-1.791-2.152a2.135,2.135,0,0,0,.261,4.248,3.943,3.943,0,0,0,1.322-.237l-.023-.942a2.554,2.554,0,0,1-1.167.33.921.921,0,0,1-1.025-.942h2.436ZM232.63,53c0-.224,0-1.015.661-1.015.516,0,.661.491.661,1.015Zm-1.983-1.608a3.89,3.89,0,0,0-1.15-.165c-1.229,0-1.547.791-1.547,1.232a1.275,1.275,0,0,0,.872,1.265c.542.224.866.3.866.484s-.04.386-.628.386a2.083,2.083,0,0,1-1.031-.283l-.03.966a4.307,4.307,0,0,0,1.355.2c.833,0,1.523-.356,1.523-1.275a1.15,1.15,0,0,0-.866-1.2c-.681-.254-.863-.33-.863-.593,0-.145.142-.3.466-.3a2.58,2.58,0,0,1,1.008.224ZM224.8,53.339c0-.807.2-1.259.641-1.259s.645.451.645,1.259-.208,1.282-.645,1.282-.631-.475-.631-1.282Zm-1.3,0a1.95,1.95,0,1,0,1.943-2.112,1.869,1.869,0,0,0-1.933,2.112Zm-3.8-2.485h.33c.991,0,1.441.705,1.441,1.842,0,.989-.42,1.75-1.362,1.75H219.7Zm-1.3,4.557h1.8a2.483,2.483,0,0,0,2.644-2.715c0-2.079-1.229-2.808-2.475-2.808H218.4ZM215.786,51.3h-1.223l-.73,2.791h0l-.783-2.791h-1.3l1.438,4.122c0,.356-.2.821-.621.821a.765.765,0,0,1-.4-.1l-.04.926a3.075,3.075,0,0,0,.753.1c.7,0,1.137-.409,1.444-1.374Zm-5.8,4.113h1.253V49.48h-1.253Zm-2.2-4.824h1.253V49.48h-1.253Zm0,4.824h1.253V51.3h-1.253Zm-2.039-1.75c0,.989-.635,1.022-.747,1.022a.485.485,0,0,1-.539-.537c0-.689.787-.722,1.286-.722Zm-1.92-1.249a2.126,2.126,0,0,1,1.15-.362c.182,0,.77,0,.77.791h-.383c-.436,0-2.046,0-2.046,1.384a1.188,1.188,0,0,0,1.276,1.249,1.212,1.212,0,0,0,1.133-.633h.017l.033.57h1.14c-.023-.277-.03-.554-.03-1.163v-1.5c0-.919-.331-1.519-1.785-1.519a4.97,4.97,0,0,0-1.322.26Zm-4.243-1.559h.33c1.008,0,1.444.705,1.444,1.842,0,.989-.42,1.75-1.365,1.75h-.413Zm-1.3,4.557h1.791a2.482,2.482,0,0,0,2.644-2.715c0-2.079-1.229-2.808-2.475-2.808h-1.966Zm-3.04-4.02a3.874,3.874,0,0,0-1.15-.165c-1.229,0-1.547.791-1.547,1.232a1.279,1.279,0,0,0,.866,1.265c.539.224.866.3.866.484s-.04.386-.628.386a2.063,2.063,0,0,1-1.031-.283l-.033.966a4.307,4.307,0,0,0,1.358.2c.833,0,1.524-.356,1.524-1.275A1.15,1.15,0,0,0,194.6,53c-.681-.254-.866-.33-.866-.593,0-.145.145-.3.469-.3a2.594,2.594,0,0,1,.991.224Zm-4.448.145h.935l.635-2.056h-1.19ZM187.9,55.412h1.253V53.566c0-.6.089-1.232.816-1.232a1.785,1.785,0,0,1,.423.046V51.227H190.2c-.72,0-.9.362-1.15.807h0c0-.247-.026-.5-.033-.745h-1.176a7.275,7.275,0,0,1,.033.863Zm-.879-4.113h-1.253v2.307c0,.531-.142.877-.549.877-.254,0-.482-.132-.482-.659V51.3h-1.253V54c0,.821.3,1.486,1.213,1.486a1.13,1.13,0,0,0,1.167-.761h0a4.2,4.2,0,0,0,.033.689h1.143a7.285,7.285,0,0,1-.033-.863Zm-4.276,2.089c0-2.152-1.418-2.152-1.791-2.152a2.135,2.135,0,0,0,.261,4.248,3.943,3.943,0,0,0,1.322-.237l-.023-.942a2.554,2.554,0,0,1-1.167.33.921.921,0,0,1-1.021-.942h2.432Zm-2.432-.379c0-.224,0-1.015.641-1.015.516,0,.661.491.661,1.015ZM177.1,55.422h1.252V52.713c0-.821-.3-1.486-1.213-1.486a1.124,1.124,0,0,0-1.167.751h0c0-.277-.017-.507-.033-.689H174.8a8.285,8.285,0,0,1,.03.863v3.259h1.256V53.1c0-.531.142-.88.545-.88.254,0,.486.135.486.659Zm-3.024-2.033c0-2.152-1.418-2.152-1.791-2.152a2.135,2.135,0,0,0,.261,4.248,3.943,3.943,0,0,0,1.322-.237l-.023-.942a2.553,2.553,0,0,1-1.167.33.921.921,0,0,1-1.024-.942h2.436ZM171.65,53c0-.224,0-1.015.644-1.015.516,0,.661.491.661,1.015Zm-4.028,2.412h1.253V53.566c0-.6.089-1.232.82-1.232a1.776,1.776,0,0,1,.42.046V51.227h-.182c-.724,0-.9.362-1.15.807h-.017c0-.247-.023-.5-.033-.745h-1.14a8.268,8.268,0,0,1,.03.863Zm-2.069-2.066c0,.659-.05,1.275-.6,1.275-.506,0-.625-.62-.625-1.275,0-.475.109-1.216.625-1.216.558,0,.592.791.592,1.216Zm-2.5,3.773h1.253V54.812h.017a1.061,1.061,0,0,0,1.061.659c1.041,0,1.451-.919,1.451-2.027,0-1.318-.522-2.221-1.451-2.221a1.186,1.186,0,0,0-1.127.735h0a6.182,6.182,0,0,0-.033-.659h-1.19c0,.191.033.405.033.926Zm-.74-3.74c0-2.152-1.418-2.152-1.791-2.152a2.135,2.135,0,0,0,.261,4.248,3.942,3.942,0,0,0,1.322-.237l-.043-.942a2.553,2.553,0,0,1-1.167.33.921.921,0,0,1-1.021-.942h2.432ZM159.885,53c0-.224,0-1.015.641-1.015.516,0,.661.491.661,1.015Zm-4.032,2.412h1.256V53.566c0-.6.086-1.232.816-1.232a1.756,1.756,0,0,1,.42.046V51.227h-.182c-.724,0-.9.362-1.15.807H157c0-.247-.023-.5-.033-.745h-1.14a8.277,8.277,0,0,1,.03.863Zm-3.411-3.243h.7v2.1a1.1,1.1,0,0,0,1.213,1.219,2.913,2.913,0,0,0,.872-.112v-.886a.921.921,0,0,1-.413.086c-.238,0-.42-.109-.42-.514V52.169h.81V51.3h-.81V50.057l-1.253.386V51.3h-.714Zm-1.8,3.243H151.9v-2.7c0-.821-.3-1.486-1.213-1.486a1.124,1.124,0,0,0-1.176.751h0a4.179,4.179,0,0,0-.033-.689h-1.14a8.272,8.272,0,0,1,.03.863v3.259h1.256V53.1c0-.531.142-.88.545-.88.255,0,.486.135.486.659Zm-6.315,0h3.3v-.966H145.6V53.052h1.851V52.09H145.6V50.854h1.93v-.966h-3.2Z" transform="translate(-96.629 -33.175)" fill="#231f20" fill-rule="evenodd"/>
    <path id="Path_8" data-name="Path 8" d="M443.915,5.33h.4a.662.662,0,0,0,.387-.082.273.273,0,0,0,.1-.224.283.283,0,0,0-.049-.161.294.294,0,0,0-.139-.1.921.921,0,0,0-.33-.036h-.37Zm-.33,1.134V4.45h.694a1.721,1.721,0,0,1,.512.056.5.5,0,0,1,.254.194.536.536,0,0,1-.046.679.629.629,0,0,1-.42.185.566.566,0,0,1,.172.105,2.572,2.572,0,0,1,.3.4l.248.4h-.4l-.178-.33a1.648,1.648,0,0,0-.33-.465.4.4,0,0,0-.261-.069h-.192v.857Zm.823-2.593a1.59,1.59,0,0,0-.77.2,1.468,1.468,0,0,0-.585.577,1.545,1.545,0,0,0,0,1.555,1.451,1.451,0,0,0,.578.577,1.564,1.564,0,0,0,1.557,0,1.432,1.432,0,0,0,.578-.577,1.553,1.553,0,0,0,.225-.774,1.591,1.591,0,0,0-.208-.781,1.426,1.426,0,0,0-.585-.577,1.6,1.6,0,0,0-.783-.2Zm0-.31a1.924,1.924,0,0,1,.922.241,1.745,1.745,0,0,1,.7.692,1.92,1.92,0,0,1,.251.936,1.885,1.885,0,0,1-.248.929,1.749,1.749,0,0,1-.694.692,1.882,1.882,0,0,1-1.864,0,1.739,1.739,0,0,1-.7-.692,1.884,1.884,0,0,1-.248-.929,1.919,1.919,0,0,1,.251-.936,1.732,1.732,0,0,1,.7-.692,1.917,1.917,0,0,1,.929-.241Z" transform="translate(-296.281 -2.387)" fill="#231f20" fill-rule="evenodd"/>
  </g>
</svg>
