<?xml version="1.0" encoding="UTF-8"?>
<!DOCTYPE svg PUBLIC "-//W3C//DTD SVG 1.1//EN" "http://www.w3.org/Graphics/SVG/1.1/DTD/svg11.dtd">
<!-- Creator: CorelDRAW 2021.5 -->
<svg xmlns="http://www.w3.org/2000/svg" xml:space="preserve" width="52.916mm" height="9.2365mm" version="1.1" style="shape-rendering:geometricPrecision; text-rendering:geometricPrecision; image-rendering:optimizeQuality; fill-rule:evenodd; clip-rule:evenodd"
viewBox="0 0 2459.42 429.29"
 xmlns:xlink="http://www.w3.org/1999/xlink"
 xmlns:xodm="http://www.corel.com/coreldraw/odm/2003">
 <defs>
  <style type="text/css">
   <![CDATA[
    .fil0 {fill:#020202}
    .fil1 {fill:#F6A30A;fill-rule:nonzero}
    .fil2 {fill:#E63F23;fill-rule:nonzero}
   ]]>
  </style>
    <clipPath id="id0">
     <rect x="1550.21" y="7.22" width="82.92" height="83.19"/>
    </clipPath>
    <clipPath id="id1">
     <rect x="1561.93" y="103.89" width="54.63" height="159.8"/>
    </clipPath>
    <clipPath id="id2">
     <rect x="1156.56" y="7.22" width="82.93" height="83.19"/>
    </clipPath>
    <clipPath id="id3">
     <rect x="1168.28" y="103.89" width="54.63" height="159.8"/>
    </clipPath>
    <clipPath id="id4">
     <rect x="807.53" y="7.22" width="82.92" height="83.19"/>
    </clipPath>
    <clipPath id="id5">
     <rect x="819.25" y="103.89" width="54.63" height="159.8"/>
    </clipPath>
 </defs>
 <g id="Layer_x0020_1">
  <metadata id="CorelCorpID_0Corel-Layer"/>
  <g id="_1548328960976">
   <path class="fil0" d="M27.86 240.74c-1.6,11.53 6.59,21.32 19.66,22.99 11.52,1.6 21.32,-6.59 22.98,-19.66l0 -4.93 0 -95.11 13.13 0c13.07,0 21.26,-4.94 21.26,-18.07 0,-13.13 -9.79,-19.65 -21.26,-19.65l-13.13 0 0 -16.39c0,-14.73 6.53,-14.73 14.72,-14.73 11.47,0 16.4,-4.95 16.4,-18.07 0.01,-14.73 -14.71,-19.66 -29.51,-19.66 -24.6,-1.68 -44.26,18.06 -44.26,40.98l0 6.54 0 21.32 -9.8 0c-9.94,0.07 -17.98,8.13 -18.06,18.07l0 1.6c0,8.2 6.52,16.4 16.39,18.07l3.26 0 9.87 0 -1.67 96.69zm75.45 0c-1.67,11.53 6.52,21.32 18.01,22.99 11.47,1.65 21.34,-6.59 22.99,-18.07l0 -4.94 0 -65.59c0,-16.39 13.13,-21.26 24.59,-27.85 11.46,-6.6 27.84,-6.51 27.84,-19.65 1.68,-11.46 -6.52,-21.32 -18.06,-22.91l-1.6 0c-13.12,0 -22.98,6.53 -29.5,17.98 0,-13.13 -9.88,-18.01 -19.67,-18.01 -13.13,0 -22.98,8.2 -24.59,19.67l0 1.59 0 114.78zm241 -108.17c0,-11.46 0,-27.85 -19.65,-27.85 -9.87,0 -19.66,8.19 -19.66,17.99 -9.88,-13.14 -24.61,-19.67 -41,-19.67 -39.39,0 -68.91,34.46 -68.91,80.31 0,47.58 29.53,80.37 68.91,80.37 16.39,0 31.12,-6.59 39.32,-19.66 3.27,11.46 8.2,18 19.66,18 19.66,0 19.66,-16.38 19.66,-27.85l1.67 -101.64zm-106.57 52.45c0,-19.66 9.87,-42.66 32.79,-42.66 22.93,0 32.8,22.98 32.8,42.66 0,19.67 -9.87,42.67 -32.8,42.67 -22.91,-1.68 -32.79,-22.99 -32.79,-42.67zm131.17 55.71c-1.66,11.53 6.54,21.32 18.07,22.99 11.54,1.65 21.26,-6.59 22.93,-18.07l0 -4.94 0 -73.78c0,-14.72 11.46,-27.86 26.26,-27.86 14.72,-1.6 27.86,11.46 29.47,26.26l0 3.29 0 72.11c-1.6,11.53 6.6,21.32 18.07,22.99 11.48,1.65 21.34,-6.59 22.93,-18.07l0 -4.94 0 -80.29c1.65,-31.12 -21.27,-55.71 -50.8,-57.39l-6.59 0c-16.39,-1.66 -31.12,4.94 -41,16.39 -1.59,-9.87 -9.8,-16.39 -19.65,-14.71 -11.46,0 -21.32,9.81 -21.32,21.26l0 1.65 1.64 113.1zm282.01 -111.44c-0.01,-19.73 -34.4,-26.26 -50.79,-26.26 -42.66,1.68 -77.12,37.73 -75.46,80.31 -1.66,42.66 29.53,78.71 72.11,80.37l3.33 0c14.73,0 50.8,-6.59 50.8,-29.52 -0.07,-9.92 -8.08,-17.97 -18.01,-18.07 -9.87,3.33 -21.32,6.6 -31.18,8.19 -21.32,-1.59 -37.73,-19.65 -36.05,-40.98 0,-21.26 11.46,-42.6 36.05,-42.6 13.13,0 22.99,8.2 32.8,8.2 9.8,0 16.39,-9.87 16.39,-19.66l0.01 0.02zm14.8 111.44c-1.68,11.53 6.51,21.32 17.99,22.99 11.48,1.65 21.34,-6.59 22.99,-18.07l0 -4.94 0 -73.78c-1.67,-14.71 9.78,-27.85 26.19,-29.44 16.39,-1.59 27.85,9.82 29.53,26.21l0 3.25 0 72.18c-1.68,11.46 6.53,21.33 18.07,22.92 11.54,1.59 21.26,-6.51 22.92,-18l0 -4.93 0 -78.7c1.68,-29.53 -21.33,-55.71 -50.86,-55.71l-6.52 0c-14.73,0 -27.87,4.87 -37.74,14.71l0 -59.06c0,-11.46 -8.2,-21.25 -19.66,-22.91 -11.46,-1.68 -21.34,6.52 -22.92,18.06l0 4.88 0 180.33zm162.28 0c-1.66,11.53 6.53,21.32 19.66,22.99 11.46,1.6 21.33,-6.59 22.99,-19.66l0 -4.93 0 -111.5c1.6,-11.46 -6.6,-21.32 -19.72,-22.91 -11.46,-1.68 -21.25,6.53 -22.93,19.66l0 4.93 0 111.43zm19.66 -198.34c-12.31,-0.35 -22.56,9.35 -22.91,21.66 -0.01,0.41 -0.01,0.84 0,1.25 0,13.13 9.8,22.99 22.91,24.61 13.14,0 22.99,-11.48 22.99,-24.61 0,-13.13 -9.85,-22.92 -22.99,-22.92zm150.83 90.18c0,-21.32 -31.11,-29.53 -52.45,-29.53 -32.78,0 -57.37,19.66 -57.37,49.19 0,47.52 73.78,44.26 73.78,63.92 0,8.19 -3.27,11.52 -16.41,11.52 -19.66,0 -27.85,-14.79 -42.6,-14.79 -9.94,0.09 -17.97,8.13 -18.05,18.08 0,19.64 34.46,32.78 59.05,32.78 36.06,0 58.99,-21.32 58.99,-49.18 0,-47.59 -72.1,-44.26 -72.1,-63.98 0,-8.19 6.53,-11.46 14.72,-11.46 13.13,0 29.53,11.46 37.72,11.46 6.52,0 14.72,-8.19 14.72,-18.01l-0.01 0zm141.04 65.59c13.14,0 18.06,-6.6 18.06,-18.07 0,-41 -32.79,-75.4 -75.45,-75.4 -41,0 -75.45,32.79 -75.45,75.4l0 6.59c-1.61,42.6 29.53,78.65 72.17,80.32l6.54 0c31.18,0 68.85,-18.08 68.85,-36.06 0,-9.87 -8.22,-16.39 -16.41,-18.07 -11.46,0 -26.2,16.4 -47.52,16.4 -19.65,1.67 -36.05,-11.47 -39.31,-29.53l88.52 -1.58zm-90.17 -27.86c1.66,-18.07 14.72,-31.18 32.79,-32.8 18.07,0 32.79,14.73 32.79,32.8l-65.58 0zm1124.8 70.44c-1.66,11.52 6.54,21.33 18.02,22.98 11.47,1.65 21.32,-6.59 22.98,-18.07l0 -4.92 0 -73.8c0,-16.39 8.2,-29.46 24.58,-29.46 14.73,0 24.61,11.46 24.61,29.46l0 72.18c-1.68,11.47 6.53,21.33 19.66,22.93 11.46,1.68 21.34,-6.54 22.93,-19.67l0 -4.93 0 -70.52c-1.38,-13.46 7.97,-25.65 21.33,-27.83l3.25 0c14.79,0 24.6,11.46 24.6,29.53l0 72.11c-1.6,11.52 6.6,21.33 19.66,22.98 13.07,1.65 21.34,-6.59 22.99,-19.66l0 -4.92 0 -78.72c1.62,-29.51 -19.66,-54.12 -47.58,-55.71l-9.79 0c-16.4,1.61 -32.81,8.2 -44.27,21.26 -10.21,-13.25 -25.93,-21.09 -42.67,-21.26 -15.09,0.05 -29.41,6.61 -39.3,18.01 -1.68,-9.81 -9.88,-16.39 -19.74,-16.39 -11.46,0 -21.26,9.87 -21.26,21.32l0 1.68 0.01 111.41zm-93.5 -98.37c22.99,0 32.78,22.98 32.78,42.65 0,19.68 -9.79,42.68 -32.78,42.68 -22.99,0 -32.79,-21.34 -32.79,-42.68 0,-21.32 9.88,-42.65 32.79,-42.65zm0 -39.32c-42.59,1.67 -77.04,37.73 -75.38,80.3 -3.27,40.99 27.85,77.11 70.52,80.37 40.99,3.27 77.04,-27.85 80.31,-70.52l0 -11.46c1.66,-41 -31.13,-77.06 -75.46,-78.73l0.01 0.02zm-83.59 26.26c0,-19.72 -34.46,-26.26 -50.85,-26.26 -42.6,1.67 -77.05,37.73 -75.4,80.3 -1.67,42.67 29.47,78.72 72.11,80.37l3.27 0c14.8,0 50.87,-6.59 50.87,-29.53 -0.07,-9.94 -8.13,-17.99 -18.07,-18.07 -9.8,3.33 -21.34,6.6 -31.12,8.2 -21.33,-1.6 -37.73,-19.66 -36.05,-40.98 0,-21.28 11.46,-42.6 36.05,-42.6 13.13,0 22.92,8.19 32.79,8.19 9.59,-0.46 16.98,-8.6 16.52,-18.18 -0.02,-0.49 -0.07,-0.98 -0.13,-1.47l0.01 0.02zm423.05 -44.33l6.53 0c1.66,0 4.93,0 6.53,-1.6 1.59,-1.62 1.66,-1.68 1.66,-3.27l0 -3.33 -1.66 -1.6 -4.87 0 -6.59 0 -1.59 9.8zm-4.95 19.72l0 -32.79 11.47 0c3.25,0 4.93,0 8.19,1.61 1.68,0 3.27,1.66 4.95,3.25 1.59,3.69 1.59,7.85 0,11.53 -1.68,1.61 -4.95,3.26 -6.59,3.26 1.65,0 1.65,1.6 3.32,1.6 1.6,1.68 3.27,4.94 4.87,6.6l3.33 6.53 -6.6 0 -3.27 -4.94c-1.65,-3.27 -3.25,-4.87 -4.92,-8.2 -1.62,-1.6 -3.27,-1.6 -4.95,-1.6l-3.26 0 0 14.72 -6.55 -1.58zm13.13 -42.66c-4.94,0 -8.19,1.68 -13.13,3.27 -3.25,1.66 -6.59,4.93 -9.87,9.87 -4.92,8.2 -4.92,17.99 0,26.19 1.68,3.33 4.95,6.6 9.87,9.87 8.2,4.94 18.02,4.94 26.21,0 3.33,-1.66 6.59,-4.93 9.87,-9.87 2.05,-4.06 3.17,-8.52 3.27,-13.06 0,-4.87 -1.6,-8.2 -3.27,-13.13 -1.68,-3.27 -4.93,-6.59 -9.87,-9.87 -3.27,-1.62 -8.19,-3.27 -13.07,-3.27zm0 -4.93c4.88,0 9.81,1.66 14.73,3.27 4.6,2.98 8.5,6.9 11.47,11.52 3.26,4.87 3.26,9.8 4.92,14.72 0,4.94 -1.66,9.87 -3.26,14.73 -2.98,4.6 -6.87,8.51 -11.46,11.52 -9.83,4.88 -21.37,4.88 -31.2,0 -4.6,-2.97 -8.49,-6.91 -11.46,-11.52 -3.25,-4.87 -3.25,-9.8 -3.25,-14.73 0,-4.92 1.59,-11.47 4.92,-14.72 2.96,-4.62 6.87,-8.54 11.48,-11.52 4.08,-2.04 8.56,-3.16 13.13,-3.27l-0.03 0zm-624.73 185.31c0,13.13 9.87,22.91 22.93,22.91 13.05,0 22.98,-9.8 22.98,-22.91 0,-13.13 -9.87,-22.92 -22.98,-22.92 -12.31,-0.35 -22.57,9.34 -22.93,21.65 -0.01,0.42 -0.01,0.84 0,1.26zm-136.11 -57.39c0,-19.65 9.88,-42.65 32.79,-42.65 22.92,0 32.79,22.98 32.79,42.65 0,19.68 -9.8,42.68 -32.79,42.68 -21.32,-1.68 -32.79,-22.99 -32.79,-42.68zm108.26 -52.45c0,-11.46 0,-27.86 -19.66,-27.86 -9.87,0 -19.73,8.2 -19.73,18.01 -9.8,-13.13 -24.59,-19.66 -39.31,-19.66 -41,0 -70.53,36.05 -70.53,81.99 0,47.51 29.53,80.3 68.85,80.3 16.39,0 31.18,-6.52 39.37,-19.66 3.27,11.46 8.21,18.07 19.67,18.07 19.65,0 19.65,-16.39 19.65,-27.85l0 -103.33 1.68 0zm-188.57 -90.17c-13.13,0 -22.97,9.79 -22.97,22.91 0,13.13 9.86,22.99 22.97,24.6 13.14,0 22.93,-11.46 22.93,-24.6 0.34,-12.31 -9.35,-22.56 -21.65,-22.91 -0.44,-0.01 -0.85,-0.01 -1.28,0zm-19.65 198.35c-1.68,11.52 6.51,21.34 19.65,22.98 11.47,1.61 21.34,-6.59 22.93,-19.65l0 -4.94 0 -111.51c1.68,-11.47 -6.52,-21.33 -19.66,-22.92 -13.14,-1.59 -21.33,6.52 -22.92,19.66l0 4.93 0 111.45zm-65.59 -57.39c0,19.73 -9.86,44.33 -32.79,44.33 -21.33,0 -32.79,-22.99 -32.79,-42.68 0,-19.67 11.46,-42.65 32.79,-42.65 21.34,0 32.79,19.73 32.79,40.98l0 0.01zm42.6 -122.97c-0.01,-11.47 -8.21,-21.26 -19.67,-22.94 -11.48,-1.66 -21.34,6.54 -22.93,18.07l0 4.87 0 57.39c-11.53,-9.8 -26.26,-14.74 -40.98,-14.74 -44.34,0 -67.26,42.67 -67.26,83.65 0,39.32 27.86,78.65 68.85,78.65 15.5,0.07 30.12,-7.24 39.39,-19.66 1.6,9.86 9.8,18.07 21.26,18.07 11.67,-0.25 21.07,-9.65 21.34,-21.34l0 -1.66 0.01 -180.36zm-306.6 180.36c-1.66,11.52 6.53,21.34 19.67,22.98 11.46,1.61 21.32,-6.59 22.97,-19.65l0 -4.94 0 -72.18c-1.66,-14.73 9.81,-27.86 24.6,-27.86 14.71,-1.6 27.85,11.46 29.47,26.27l0 3.24 0 72.11c-1.62,11.52 6.58,21.33 19.72,22.98 11.46,1.6 21.28,-6.59 22.92,-19.66l0 -4.92 0 -78.72c0,-31.12 -21.33,-55.71 -52.45,-57.38l-6.59 0c-14.73,-1.68 -31.13,4.94 -41,16.39 -1.6,-9.87 -9.81,-16.39 -19.65,-14.72 -11.47,0 -21.34,9.8 -21.34,21.26l0 1.66 1.66 113.12zm-44.27 -198.35c-13.13,0 -22.99,9.79 -22.99,22.91 0,13.13 9.87,22.99 22.99,24.6 13.14,0 22.92,-11.46 22.92,-24.6 0.36,-12.31 -9.34,-22.56 -21.65,-22.91 -0.41,-0.01 -0.85,-0.01 -1.26,0zm-21.32 198.34c-1.67,11.52 6.53,21.33 19.65,22.98 11.47,1.6 21.34,-6.59 22.99,-19.66l0 -4.92 0 -111.5c1.6,-11.47 -6.59,-21.33 -19.72,-22.92 -11.46,-1.67 -21.25,6.52 -22.92,19.66l0 4.93 0 111.44zm1096.86 127.89c0,-36.04 -22.91,-36.04 -29.45,-36.04 -19.73,3.26 -32.79,19.66 -29.51,39.31 1.6,16.4 16.39,29.54 34.4,29.54 8.19,0 14.79,-1.6 21.32,-3.27l0 -14.72c-6.53,3.26 -13.13,4.87 -19.66,4.87 -8.19,1.66 -16.39,-4.87 -16.39,-13.06l0 -1.68 39.32 0 -0.03 -4.95zm-39.32 -6.51c0,-3.27 0,-16.41 11.47,-16.41 8.2,0 11.46,8.2 11.46,16.41l-22.93 0zm-32.78 -26.27c-6.53,-1.6 -13.14,-3.26 -18.08,-3.26 -19.66,0 -24.59,13.12 -24.59,19.66 0,9.87 4.93,18.06 14.79,21.32 8.2,3.27 14.71,4.94 14.71,8.19 0,3.27 0,6.53 -9.79,6.53 -5.85,0.15 -11.6,-1.55 -16.39,-4.87l0 16.41c6.51,1.6 14.71,3.24 22.92,3.24 13.12,0 24.59,-6.59 24.59,-21.33 0,-9.86 -4.93,-18.06 -14.73,-19.66 -11.52,-4.94 -14.78,-4.94 -14.78,-9.87 0,-1.61 1.67,-4.94 8.19,-4.94 4.95,0 11.47,1.68 16.4,3.33l-3.24 -14.77zm-95.12 32.78c0,-13.13 3.27,-21.32 9.88,-21.32 6.6,0 9.81,8.2 9.81,21.32 0,13.13 -3.27,21.35 -9.81,21.35 -6.55,0 -9.88,-8.22 -9.88,-21.35zm-21.32 0c1.66,18.08 16.39,31.21 34.46,29.54 18.07,-1.65 31.13,-16.41 29.54,-34.46 -1.68,-16.41 -14.8,-29.47 -31.21,-29.47 -16.37,0 -31.13,13.06 -31.13,29.47 -1.66,0 -1.66,3.32 -1.66,4.92zm-62.25 -40.97l4.86 0c16.4,0 22.99,11.46 22.99,29.52 0,16.4 -6.59,29.54 -22.99,29.54l-6.53 0 0 -59.05 1.66 0zm-21.34 73.78l29.53 0c22.92,1.66 42.59,-14.73 42.59,-37.73l0 -6.54c0,-34.46 -19.65,-45.92 -40.98,-45.92l-32.79 0 0 90.19 1.65 0zm-42.66 -67.19l-19.65 0 -11.46 45.85 -13.13 -45.85 -21.33 0 22.99 67.19c0,6.59 -3.34,13.13 -9.87,13.13 -1.68,0 -4.95,0 -6.53,-1.67l0 14.79c3.27,1.6 8.2,1.6 13.06,1.6 11.53,0 18.08,-6.52 22.99,-22.91l22.93 -72.13zm-95.11 67.19l21.32 0 0 -96.71 -21.32 0 0 96.71zm-36.07 -78.73l21.34 0 0 -17.99 -21.34 0 0 17.99zm0 78.73l21.34 0 0 -67.18 -21.34 0 0 67.18zm-34.38 -27.86c0,16.41 -9.89,16.41 -11.54,16.41 -4.87,0 -8.2,-3.27 -8.2,-6.53l0 -1.68c0,-11.46 13.14,-11.46 21.34,-11.46l0 3.27 -1.6 0zm-31.21 -21.32c4.95,-3.27 11.47,-6.54 18.08,-6.54 3.26,0 13.13,0 13.13,13.14l-6.6 0c-6.52,0 -32.79,0 -32.79,22.91 0,11.47 8.2,19.67 18.07,21.34l3.27 0c8.19,0 14.73,-3.25 18.07,-9.87l0 9.87 17.99 0 0 -19.66 0 -24.6c0,-14.78 -4.93,-24.59 -29.51,-24.59 -8.21,0 -14.72,1.6 -21.27,4.87l1.57 13.12zm-68.85 -24.6l4.94 0c16.39,0 22.92,11.46 22.92,29.52 0,16.4 -6.53,29.54 -22.92,29.54l-4.92 0 -0.02 -59.05zm-21.33 73.78l29.54 0c22.91,1.66 42.66,-14.73 42.66,-37.73l0 -6.54c0,-34.46 -19.72,-45.92 -41,-45.92l-32.79 0 1.59 90.19zm-50.79 -65.59c-6.6,-1.6 -13.13,-3.26 -18.07,-3.26 -19.66,0 -24.59,13.12 -24.59,19.66 0,9.87 4.93,18.06 14.72,21.32 8.19,3.27 14.79,4.94 14.79,8.19 0,3.27 0,6.53 -9.87,6.53 -5.85,0.13 -11.58,-1.56 -16.41,-4.87l0 16.41c6.59,1.6 14.8,3.24 22.99,3.24 13.07,0 24.6,-6.59 24.6,-21.33 0,-9.86 -4.94,-18.06 -14.79,-19.66 -11.46,-4.94 -14.73,-4.94 -14.73,-9.87 0,-1.61 1.6,-4.94 8.2,-4.94 4.93,0 11.46,1.68 16.39,3.33l-3.24 -14.77zm-72.18 3.26l14.8 0 9.8 -34.39 -19.66 0 -4.95 34.39zm-47.51 62.33l21.33 0 0 -29.54c0,-9.8 1.61,-19.65 13.07,-19.65l6.58 0 0 -19.66 -3.25 0c-11.53,0 -14.79,6.52 -18.08,13.12l0 -11.45 -19.65 0 0 14.72 0 52.45zm-14.8 -67.19l-21.26 0 0 37.65c0,8.2 -1.67,14.8 -8.19,14.8 -4.95,0 -8.2,-1.68 -8.2,-11.47l0 -40.98 -21.34 0 0 44.25c0,13.12 4.95,24.58 19.67,24.58 8.19,0 16.39,-4.92 19.65,-13.13l0 11.48 18.07 0 0 -14.73 1.6 -52.45zm-70.45 34.38c0.01,-36.04 -22.99,-36.04 -29.5,-36.04 -19.66,3.26 -32.79,19.66 -29.54,39.31 1.68,16.4 16.41,29.54 34.46,29.54 8.21,0 14.73,-1.6 21.28,-3.27l0 -14.72c-6.53,3.26 -13.06,4.87 -19.66,4.87 -8.2,1.66 -16.39,-4.87 -16.39,-13.06l0 -1.68 39.37 0 -0.01 -4.95zm-39.37 -6.51c0,-3.27 0,-16.41 9.87,-16.41 8.19,0 11.46,8.2 11.46,16.41l-21.32 0zm-52.47 39.32l21.33 0 0 -44.27c0,-13.13 -4.93,-24.58 -19.66,-24.58 -8.19,0 -16.39,4.93 -19.72,13.12l0 -11.45 -18.01 0 0 14.72 0 54.12 21.34 0 0 -37.72c0,-8.21 1.6,-14.72 8.2,-14.72 4.87,0 8.19,1.6 8.19,11.46l-1.68 39.32zm-50.86 -32.81c0,-36.04 -22.91,-36.04 -29.45,-36.04 -19.73,3.26 -32.79,19.66 -29.51,39.31 1.6,16.4 16.37,29.54 34.39,29.54 8.19,0 14.79,-1.6 21.32,-3.27l0 -14.72c-6.52,3.26 -13.13,4.87 -19.66,4.87 -8.2,1.66 -16.39,-4.87 -16.39,-13.06l0 -1.68 39.32 0 -0.03 -4.95zm-39.32 -6.51c0,-3.27 0,-16.41 9.87,-16.41 8.21,0 11.47,8.2 11.47,16.41l-21.33 0zm-65.58 39.32l21.32 0 0 -29.54c0,-9.8 1.62,-19.65 13.13,-19.65l6.53 0 0 -19.66 -3.26 0c-11.46,0 -14.78,6.52 -18.07,13.12l0 -11.45 -19.66 0 0 14.72 0 52.45zm-34.46 -32.81c0,11.47 -1.62,21.35 -9.81,21.35 -8.2,0 -9.87,-9.88 -9.87,-21.35 0,-8.19 1.66,-19.65 9.87,-19.65 9.81,0 9.81,11.46 9.81,19.65zm-41 60.66l21.34 0 0 -37.67c3.26,6.54 9.87,11.46 18.07,11.46 16.41,0 24.6,-14.78 24.6,-32.78 0,-21.33 -8.19,-36.05 -24.6,-36.05 -8.2,0 -14.8,4.87 -18.07,11.46l0 -11.46 -19.66 0 0 14.74 -1.68 80.3zm-11.45 -60.66c0,-36.04 -22.93,-36.04 -29.53,-36.04 -19.66,3.26 -32.8,19.66 -29.47,39.31 1.6,16.4 16.39,29.54 34.41,29.54 8.18,0 14.78,-1.6 21.32,-3.27l0 -14.72c-6.53,3.26 -13.14,4.87 -19.67,4.87 -8.18,1.66 -16.37,-4.87 -16.37,-13.06l0 -1.68 39.31 0 0 -4.95zm-39.31 -6.51c0,-3.27 0,-16.41 9.79,-16.41 8.2,0 11.53,8.2 11.53,16.41l-21.32 0zm-67.28 39.32l21.34 0 0 -29.54c0,-9.8 1.68,-19.65 13.13,-19.65l6.53 0 0 -19.66 -3.27 0c-11.46,0 -14.71,6.52 -18.06,13.12l0 -11.45 -18.01 0 0 14.72 -1.67 52.45zm-55.71 -52.45l11.48 0 0 34.46c-1.68,9.8 6.53,18.01 16.39,19.66l3.25 0c4.94,0 9.87,0 14.79,-1.66l0 -14.73c-1.66,1.61 -4.94,1.61 -6.59,1.61 -3.27,0 -6.53,-1.61 -6.53,-8.21l0 -31.13 13.13 0 0 -14.72 -13.13 0 0 -19.73 -21.32 6.59 0 14.73 -11.48 0 0 13.13zm-29.52 52.45l21.34 0 0 -44.27c0,-13.13 -4.94,-24.58 -19.66,-24.58 -8.2,-1.68 -16.41,4.93 -19.73,13.12l0 -11.45 -18.01 0 0 14.72 0 54.12 19.66 0 0 -37.72c0,-8.21 1.66,-14.72 8.19,-14.72 4.94,0 8.2,1.6 8.2,11.46l0 39.32zm-103.31 0l54.12 0 0 -16.4 -32.8 0 0 -22.92 31.14 0 0 -16.41 -31.14 0 0 -19.66 31.14 0 0 -16.39 -52.46 0 0 91.78z"/>
   <g style="clip-path:url(#id0)">
    <image x="1550.21" y="7.22" width="82.92" height="83.19" xlink:href="Franchiseindia.com_Diwali Logos_Images\Franchiseindia.com_Diwali Logos_ImgID1.png"/>
   </g>
   <g style="clip-path:url(#id1)">
    <image x="1561.93" y="103.9" width="54.63" height="159.8" xlink:href="Franchiseindia.com_Diwali Logos_Images\Franchiseindia.com_Diwali Logos_ImgID2.png"/>
   </g>
   <g style="clip-path:url(#id2)">
    <image x="1156.56" y="7.22" width="82.92" height="83.19" xlink:href="Franchiseindia.com_Diwali Logos_Images\Franchiseindia.com_Diwali Logos_ImgID3.png"/>
   </g>
   <g style="clip-path:url(#id3)">
    <image x="1168.28" y="103.9" width="54.63" height="159.8" xlink:href="Franchiseindia.com_Diwali Logos_Images\Franchiseindia.com_Diwali Logos_ImgID4.png"/>
   </g>
   <g style="clip-path:url(#id4)">
    <image x="807.53" y="7.22" width="82.92" height="83.19" xlink:href="Franchiseindia.com_Diwali Logos_Images\Franchiseindia.com_Diwali Logos_ImgID5.png"/>
   </g>
   <g style="clip-path:url(#id5)">
    <image x="819.25" y="103.9" width="54.63" height="159.8" xlink:href="Franchiseindia.com_Diwali Logos_Images\Franchiseindia.com_Diwali Logos_ImgID6.png"/>
   </g>
   <g>
    <path class="fil1" d="M1622.95 52.71c0,17.74 -14.38,32.13 -32.12,32.13 -17.75,0 -32.13,-14.38 -32.13,-32.13 0,-14.45 21.29,-41.7 29.21,-51.33 1.51,-1.84 4.32,-1.84 5.83,0 7.92,9.63 29.21,36.88 29.21,51.33z"/>
    <path class="fil2" d="M1608.87 66.79c0,9.96 -8.08,18.04 -18.04,18.04 -9.96,0 -18.04,-8.07 -18.04,-18.04 0,-9.96 18.04,-30.77 18.04,-30.77 0,0 18.04,20.81 18.04,30.77z"/>
   </g>
   <g>
    <path class="fil1" d="M1229.05 52.71c0,17.74 -14.38,32.13 -32.13,32.13 -17.74,0 -32.13,-14.38 -32.13,-32.13 0,-14.45 21.3,-41.7 29.21,-51.33 1.52,-1.84 4.32,-1.84 5.84,0 7.91,9.63 29.21,36.88 29.21,51.33z"/>
    <path class="fil2" d="M1214.96 66.79c0,9.96 -8.07,18.04 -18.04,18.04 -9.96,0 -18.04,-8.07 -18.04,-18.04 0,-9.96 18.04,-30.77 18.04,-30.77 0,0 18.04,20.81 18.04,30.77z"/>
   </g>
   <g>
    <path class="fil1" d="M879.85 52.71c0,17.74 -14.38,32.13 -32.13,32.13 -17.75,0 -32.13,-14.38 -32.13,-32.13 0,-14.45 21.3,-41.7 29.21,-51.33 1.51,-1.84 4.32,-1.84 5.84,0 7.91,9.63 29.21,36.88 29.21,51.33z"/>
    <path class="fil2" d="M865.76 66.79c0,9.96 -8.07,18.04 -18.04,18.04 -9.96,0 -18.04,-8.07 -18.04,-18.04 0,-9.96 18.04,-30.77 18.04,-30.77 0,0 18.04,20.81 18.04,30.77z"/>
   </g>
  </g>
 </g>
</svg>
