<?xml version="1.0" encoding="UTF-8"?>
<svg xmlns="http://www.w3.org/2000/svg" xmlns:xlink="http://www.w3.org/1999/xlink" width="150pt" height="24pt" viewBox="0 0 150 24" version="1.1">
<g id="surface1">
<path style=" stroke:none;fill-rule:evenodd;fill:rgb(0%,0%,0%);fill-opacity:1;" d="M 64 8.101562 C 64.101562 7 64.898438 6.199219 66 6.101562 C 67.101562 6.101562 68 7 68 8.101562 Z M 69.5 9.800781 C 70.300781 9.800781 70.601562 9.398438 70.601562 8.699219 C 70.601562 6.199219 68.601562 4.101562 66 4.101562 C 63.5 4.101562 61.398438 6.101562 61.398438 8.699219 C 61.398438 8.800781 61.398438 8.898438 61.398438 9.101562 C 61.300781 11.699219 63.199219 13.898438 65.800781 14 C 65.898438 14 66.101562 14 66.199219 14 C 68.101562 14 70.398438 12.898438 70.398438 11.800781 C 70.398438 11.199219 69.898438 10.800781 69.398438 10.699219 C 68.699219 10.699219 67.800781 11.699219 66.5 11.699219 C 65.300781 11.800781 64.300781 11 64.101562 9.898438 Z M 60.898438 5.800781 C 60.898438 4.5 59 4 57.699219 4 C 55.699219 4 54.199219 5.199219 54.199219 7 C 54.199219 9.898438 58.699219 9.699219 58.699219 10.898438 C 58.699219 11.398438 58.5 11.601562 57.699219 11.601562 C 56.5 11.601562 56 10.699219 55.101562 10.699219 C 54.5 10.699219 54 11.199219 54 11.800781 C 54 13 56.101562 13.800781 57.601562 13.800781 C 59.800781 13.800781 61.199219 12.5 61.199219 10.800781 C 61.199219 7.898438 56.800781 8.101562 56.800781 6.898438 C 56.800781 6.398438 57.199219 6.199219 57.699219 6.199219 C 58.5 6.199219 59.5 6.898438 60 6.898438 C 60.398438 6.898438 60.898438 6.398438 60.898438 5.800781 Z M 51.699219 0.300781 C 50.898438 0.300781 50.300781 0.898438 50.300781 1.699219 C 50.300781 2.5 50.898438 3.101562 51.699219 3.199219 C 52.5 3.199219 53.101562 2.5 53.101562 1.699219 C 53.101562 0.898438 52.5 0.300781 51.699219 0.300781 Z M 50.5 12.398438 C 50.398438 13.101562 50.898438 13.699219 51.699219 13.800781 C 52.398438 13.898438 53 13.398438 53.101562 12.601562 C 53.101562 12.5 53.101562 12.398438 53.101562 12.300781 L 53.101562 5.5 C 53.199219 4.800781 52.699219 4.199219 51.898438 4.101562 C 51.199219 4 50.601562 4.5 50.5 5.300781 C 50.5 5.398438 50.5 5.5 50.5 5.601562 Z M 40.601562 12.398438 C 40.5 13.101562 41 13.699219 41.699219 13.800781 C 42.398438 13.898438 43 13.398438 43.101562 12.699219 C 43.101562 12.601562 43.101562 12.5 43.101562 12.398438 L 43.101562 7.898438 C 43 7 43.699219 6.199219 44.699219 6.101562 C 45.699219 6 46.398438 6.699219 46.5 7.699219 C 46.5 7.800781 46.5 7.800781 46.5 7.898438 L 46.5 12.300781 C 46.398438 13 46.898438 13.601562 47.601562 13.699219 C 48.300781 13.800781 48.898438 13.300781 49 12.601562 C 49 12.5 49 12.398438 49 12.300781 L 49 7.5 C 49.101562 5.699219 47.699219 4.101562 45.898438 4.101562 C 45.800781 4.101562 45.601562 4.101562 45.5 4.101562 C 44.601562 4.101562 43.800781 4.398438 43.199219 5 L 43.199219 1.398438 C 43.199219 0.699219 42.699219 0.101562 42 0 C 41.300781 -0.101562 40.699219 0.398438 40.601562 1.101562 C 40.601562 1.199219 40.601562 1.300781 40.601562 1.398438 Z M 39.699219 5.601562 C 39.699219 4.398438 37.601562 4 36.601562 4 C 34 4.101562 31.898438 6.300781 32 8.898438 C 31.898438 11.5 33.800781 13.699219 36.398438 13.800781 C 36.5 13.800781 36.5 13.800781 36.601562 13.800781 C 37.5 13.800781 39.699219 13.398438 39.699219 12 C 39.699219 11.398438 39.199219 10.898438 38.601562 10.898438 C 38 11.101562 37.300781 11.300781 36.699219 11.398438 C 35.398438 11.300781 34.398438 10.199219 34.5 8.898438 C 34.5 7.601562 35.199219 6.300781 36.699219 6.300781 C 37.5 6.300781 38.101562 6.800781 38.699219 6.800781 C 39.300781 6.800781 39.699219 6.199219 39.699219 5.601562 Z M 22.5 12.398438 C 22.398438 13.101562 22.898438 13.699219 23.601562 13.800781 C 24.300781 13.898438 24.898438 13.398438 25 12.699219 C 25 12.601562 25 12.5 25 12.398438 L 25 7.898438 C 25 7 25.699219 6.199219 26.601562 6.199219 C 27.5 6.101562 28.300781 6.898438 28.398438 7.800781 C 28.398438 7.898438 28.398438 7.898438 28.398438 8 L 28.398438 12.398438 C 28.300781 13.101562 28.800781 13.699219 29.5 13.800781 C 30.199219 13.898438 30.800781 13.398438 30.898438 12.699219 C 30.898438 12.601562 30.898438 12.5 30.898438 12.398438 L 30.898438 7.5 C 31 5.601562 29.601562 4.101562 27.800781 4 C 27.699219 4 27.5 4 27.398438 4 C 26.398438 3.898438 25.5 4.300781 24.898438 5 C 24.800781 4.398438 24.300781 4 23.699219 4.101562 C 23 4.101562 22.398438 4.699219 22.398438 5.398438 C 22.398438 5.398438 22.398438 5.5 22.398438 5.5 Z M 14.5 9 C 14.5 7.800781 15.101562 6.398438 16.5 6.398438 C 17.898438 6.398438 18.5 7.800781 18.5 9 C 18.5 10.199219 17.898438 11.601562 16.5 11.601562 C 15.101562 11.5 14.5 10.199219 14.5 9 Z M 21 5.800781 C 21 5.101562 21 4.101562 19.800781 4.101562 C 19.199219 4.101562 18.601562 4.601562 18.601562 5.199219 C 18 4.398438 17.101562 4 16.101562 4 C 13.699219 4 11.898438 6.101562 11.898438 8.898438 C 11.898438 11.800781 13.699219 13.800781 16.101562 13.800781 C 17.101562 13.800781 18 13.398438 18.5 12.601562 C 18.699219 13.300781 19 13.699219 19.699219 13.699219 C 20.898438 13.699219 20.898438 12.699219 20.898438 12 Z M 6.300781 12.398438 C 6.199219 13.101562 6.699219 13.699219 7.398438 13.800781 C 8.101562 13.898438 8.699219 13.398438 8.800781 12.699219 C 8.800781 12.601562 8.800781 12.5 8.800781 12.398438 L 8.800781 8.398438 C 8.800781 7.398438 9.601562 7.101562 10.300781 6.699219 C 11 6.300781 12 6.300781 12 5.5 C 12.101562 4.800781 11.601562 4.199219 10.898438 4.101562 C 10.898438 4.101562 10.800781 4.101562 10.800781 4.101562 C 10 4.101562 9.398438 4.5 9 5.199219 C 9 4.398438 8.398438 4.101562 7.800781 4.101562 C 7 4.101562 6.398438 4.601562 6.300781 5.300781 C 6.300781 5.300781 6.300781 5.398438 6.300781 5.398438 Z M 1.699219 12.398438 C 1.601562 13.101562 2.101562 13.699219 2.898438 13.800781 C 3.601562 13.898438 4.199219 13.398438 4.300781 12.601562 C 4.300781 12.5 4.300781 12.398438 4.300781 12.300781 L 4.300781 6.5 L 5.101562 6.5 C 5.898438 6.5 6.398438 6.199219 6.398438 5.398438 C 6.398438 4.601562 5.800781 4.199219 5.101562 4.199219 L 4.300781 4.199219 L 4.300781 3.199219 C 4.300781 2.300781 4.699219 2.300781 5.199219 2.300781 C 5.898438 2.300781 6.199219 2 6.199219 1.199219 C 6.199219 0.300781 5.300781 0 4.398438 0 C 2.898438 -0.101562 1.699219 1.101562 1.699219 2.5 C 1.699219 2.601562 1.699219 2.800781 1.699219 2.898438 L 1.699219 4.199219 L 1.101562 4.199219 C 0.5 4.199219 0 4.699219 0 5.300781 C 0 5.300781 0 5.300781 0 5.398438 C 0 5.898438 0.398438 6.398438 1 6.5 C 1.101562 6.5 1.101562 6.5 1.199219 6.5 L 1.800781 6.5 Z M 1.699219 12.398438 "/>
<path style=" stroke:none;fill-rule:evenodd;fill:rgb(13.72549%,12.156863%,12.54902%);fill-opacity:1;" d="M 132.601562 12.398438 C 132.5 13.101562 133 13.699219 133.699219 13.800781 C 134.398438 13.898438 135 13.398438 135.101562 12.699219 C 135.101562 12.601562 135.101562 12.5 135.101562 12.398438 L 135.101562 7.898438 C 135.101562 6.898438 135.601562 6.101562 136.601562 6.101562 C 137.5 6.101562 138.101562 6.800781 138.101562 7.898438 L 138.101562 12.300781 C 138 13 138.5 13.601562 139.300781 13.699219 C 140 13.800781 140.601562 13.300781 140.699219 12.5 C 140.699219 12.398438 140.699219 12.300781 140.699219 12.199219 L 140.699219 7.898438 C 140.601562 7.101562 141.199219 6.300781 142 6.199219 C 142.101562 6.199219 142.101562 6.199219 142.199219 6.199219 C 143.101562 6.199219 143.699219 6.898438 143.699219 8 L 143.699219 12.398438 C 143.601562 13.101562 144.101562 13.699219 144.898438 13.800781 C 145.699219 13.898438 146.199219 13.398438 146.300781 12.601562 C 146.300781 12.5 146.300781 12.398438 146.300781 12.300781 L 146.300781 7.5 C 146.398438 5.699219 145.101562 4.199219 143.398438 4.101562 C 143.199219 4.101562 143 4.101562 142.800781 4.101562 C 141.800781 4.199219 140.800781 4.601562 140.101562 5.398438 C 139.5 4.601562 138.5 4.101562 137.5 4.101562 C 136.601562 4.101562 135.699219 4.5 135.101562 5.199219 C 135 4.601562 134.5 4.199219 133.898438 4.199219 C 133.199219 4.199219 132.601562 4.800781 132.601562 5.5 C 132.601562 5.5 132.601562 5.601562 132.601562 5.601562 Z M 126.898438 6.398438 C 128.300781 6.398438 128.898438 7.800781 128.898438 9 C 128.898438 10.199219 128.300781 11.601562 126.898438 11.601562 C 125.5 11.601562 124.898438 10.300781 124.898438 9 C 124.898438 7.699219 125.5 6.398438 126.898438 6.398438 Z M 126.898438 4 C 124.300781 4.101562 122.199219 6.300781 122.300781 8.898438 C 122.101562 11.398438 124 13.601562 126.601562 13.800781 C 129.101562 14 131.300781 12.101562 131.5 9.5 C 131.5 9.300781 131.5 9.101562 131.5 8.800781 C 131.601562 6.300781 129.601562 4.101562 126.898438 4 C 127 4 127 4 126.898438 4 Z M 121.800781 5.601562 C 121.800781 4.398438 119.699219 4 118.699219 4 C 116.101562 4.101562 114 6.300781 114.101562 8.898438 C 114 11.5 115.898438 13.699219 118.5 13.800781 C 118.601562 13.800781 118.601562 13.800781 118.699219 13.800781 C 119.601562 13.800781 121.800781 13.398438 121.800781 12 C 121.800781 11.398438 121.300781 10.898438 120.699219 10.898438 C 120.101562 11.101562 119.398438 11.300781 118.800781 11.398438 C 117.5 11.300781 116.5 10.199219 116.601562 8.898438 C 116.601562 7.601562 117.300781 6.300781 118.800781 6.300781 C 119.601562 6.300781 120.199219 6.800781 120.800781 6.800781 C 121.398438 6.800781 121.898438 6.199219 121.800781 5.601562 Z M 110 12.5 C 110 13.300781 110.601562 13.898438 111.398438 13.898438 C 112.199219 13.898438 112.800781 13.300781 112.800781 12.5 C 112.800781 11.699219 112.199219 11.101562 111.398438 11.101562 C 110.601562 11.101562 110 11.699219 110 12.5 Z M 101.699219 9 C 101.699219 7.800781 102.300781 6.398438 103.699219 6.398438 C 105.101562 6.398438 105.699219 7.800781 105.699219 9 C 105.699219 10.199219 105.101562 11.601562 103.699219 11.601562 C 102.398438 11.5 101.699219 10.199219 101.699219 9 Z M 108.300781 5.800781 C 108.300781 5.101562 108.300781 4.101562 107.101562 4.101562 C 106.5 4.101562 105.898438 4.601562 105.898438 5.199219 C 105.300781 4.398438 104.398438 4 103.5 4 C 101 4 99.199219 6.199219 99.199219 9 C 99.199219 11.898438 101 13.898438 103.398438 13.898438 C 104.398438 13.898438 105.300781 13.5 105.800781 12.699219 C 106 13.398438 106.300781 13.800781 107 13.800781 C 108.199219 13.800781 108.199219 12.800781 108.199219 12.101562 L 108.199219 5.800781 Z M 96.800781 0.300781 C 96 0.300781 95.398438 0.898438 95.398438 1.699219 C 95.398438 2.5 96 3.101562 96.800781 3.199219 C 97.601562 3.199219 98.199219 2.5 98.199219 1.699219 C 98.199219 0.898438 97.601562 0.300781 96.800781 0.300781 Z M 95.601562 12.398438 C 95.5 13.101562 96 13.699219 96.800781 13.800781 C 97.5 13.898438 98.101562 13.398438 98.199219 12.601562 C 98.199219 12.5 98.199219 12.398438 98.199219 12.300781 L 98.199219 5.5 C 98.300781 4.800781 97.800781 4.199219 97 4.101562 C 96.199219 4 95.699219 4.5 95.601562 5.300781 C 95.601562 5.398438 95.601562 5.5 95.601562 5.601562 Z M 91.601562 8.898438 C 91.601562 10.101562 91 11.601562 89.601562 11.601562 C 88.300781 11.601562 87.601562 10.199219 87.601562 9 C 87.601562 7.800781 88.300781 6.398438 89.601562 6.398438 C 90.898438 6.398438 91.601562 7.601562 91.601562 8.898438 Z M 94.199219 1.398438 C 94.199219 0.699219 93.699219 0.101562 93 0 C 92.300781 -0.101562 91.699219 0.398438 91.601562 1.101562 C 91.601562 1.199219 91.601562 1.300781 91.601562 1.398438 L 91.601562 4.898438 C 90.898438 4.300781 90 4 89.101562 4 C 86.398438 4 85 6.601562 85 9.101562 C 85 11.5 86.699219 13.898438 89.199219 13.898438 C 90.101562 13.898438 91 13.5 91.601562 12.699219 C 91.699219 13.300781 92.199219 13.800781 92.898438 13.800781 C 93.601562 13.800781 94.199219 13.199219 94.199219 12.5 C 94.199219 12.5 94.199219 12.398438 94.199219 12.398438 Z M 75.5 12.398438 C 75.398438 13.101562 75.898438 13.699219 76.699219 13.800781 C 77.398438 13.898438 78 13.398438 78.101562 12.601562 C 78.101562 12.5 78.101562 12.398438 78.101562 12.300781 L 78.101562 7.898438 C 78 7 78.699219 6.199219 79.601562 6.199219 C 80.5 6.101562 81.300781 6.898438 81.398438 7.800781 C 81.398438 7.898438 81.398438 7.898438 81.398438 8 L 81.398438 12.398438 C 81.300781 13.101562 81.800781 13.699219 82.601562 13.800781 C 83.300781 13.898438 83.898438 13.398438 84 12.601562 C 84 12.5 84 12.398438 84 12.300781 L 84 7.5 C 84 5.601562 82.699219 4.101562 80.800781 4 C 80.699219 4 80.5 4 80.398438 4 C 79.5 3.898438 78.5 4.300781 77.898438 5 C 77.800781 4.398438 77.300781 4 76.699219 4.101562 C 76 4.101562 75.398438 4.699219 75.398438 5.398438 C 75.398438 5.398438 75.398438 5.5 75.398438 5.5 Z M 72.800781 0.300781 C 72 0.300781 71.398438 0.898438 71.398438 1.699219 C 71.398438 2.5 72 3.101562 72.800781 3.199219 C 73.601562 3.199219 74.199219 2.5 74.199219 1.699219 C 74.199219 0.898438 73.601562 0.300781 72.800781 0.300781 Z M 71.5 12.398438 C 71.398438 13.101562 71.898438 13.699219 72.699219 13.800781 C 73.398438 13.898438 74 13.398438 74.101562 12.601562 C 74.101562 12.5 74.101562 12.398438 74.101562 12.300781 L 74.101562 5.5 C 74.199219 4.800781 73.699219 4.199219 72.898438 4.101562 C 72.199219 4 71.601562 4.5 71.5 5.300781 C 71.5 5.398438 71.5 5.5 71.5 5.601562 Z M 71.5 12.398438 "/>
<path style=" stroke:none;fill-rule:evenodd;fill:rgb(13.72549%,12.156863%,12.54902%);fill-opacity:1;" d="M 138.398438 20.199219 C 138.398438 18 137 18 136.601562 18 C 135.398438 18.199219 134.601562 19.199219 134.800781 20.398438 C 134.898438 21.398438 135.800781 22.199219 136.898438 22.199219 C 137.398438 22.199219 137.800781 22.101562 138.199219 22 L 138.199219 21.101562 C 137.800781 21.300781 137.398438 21.398438 137 21.398438 C 136.5 21.5 136 21.101562 136 20.601562 C 136 20.601562 136 20.5 136 20.5 L 138.398438 20.5 Z M 136 19.800781 C 136 19.601562 136 18.800781 136.699219 18.800781 C 137.199219 18.800781 137.398438 19.300781 137.398438 19.800781 Z M 134 18.199219 C 133.601562 18.101562 133.199219 18 132.898438 18 C 131.699219 18 131.398438 18.800781 131.398438 19.199219 C 131.398438 19.800781 131.699219 20.300781 132.300781 20.5 C 132.800781 20.699219 133.199219 20.800781 133.199219 21 C 133.199219 21.199219 133.199219 21.398438 132.601562 21.398438 C 132.199219 21.398438 131.898438 21.300781 131.601562 21.101562 L 131.601562 22.101562 C 132 22.199219 132.5 22.300781 133 22.300781 C 133.800781 22.300781 134.5 21.898438 134.5 21 C 134.5 20.398438 134.199219 19.898438 133.601562 19.800781 C 132.898438 19.5 132.699219 19.5 132.699219 19.199219 C 132.699219 19.101562 132.800781 18.898438 133.199219 18.898438 C 133.5 18.898438 133.898438 19 134.199219 19.101562 Z M 128.199219 20.199219 C 128.199219 19.398438 128.398438 18.898438 128.800781 18.898438 C 129.199219 18.898438 129.398438 19.398438 129.398438 20.199219 C 129.398438 21 129.199219 21.5 128.800781 21.5 C 128.398438 21.5 128.199219 21 128.199219 20.199219 Z M 126.898438 20.199219 C 127 21.300781 127.898438 22.101562 129 22 C 130.101562 21.898438 130.898438 21 130.800781 19.898438 C 130.699219 18.898438 129.898438 18.101562 128.898438 18.101562 C 127.898438 18.101562 127 18.898438 127 19.898438 C 126.898438 19.898438 126.898438 20.101562 126.898438 20.199219 Z M 123.101562 17.699219 L 123.398438 17.699219 C 124.398438 17.699219 124.800781 18.398438 124.800781 19.5 C 124.800781 20.5 124.398438 21.300781 123.398438 21.300781 L 123 21.300781 L 123 17.699219 Z M 121.800781 22.199219 L 123.601562 22.199219 C 125 22.300781 126.199219 21.300781 126.199219 19.898438 C 126.199219 19.800781 126.199219 19.601562 126.199219 19.5 C 126.199219 17.398438 125 16.699219 123.699219 16.699219 L 121.699219 16.699219 L 121.699219 22.199219 Z M 119.199219 18.101562 L 118 18.101562 L 117.300781 20.898438 L 116.5 18.101562 L 115.199219 18.101562 L 116.601562 22.199219 C 116.601562 22.601562 116.398438 23 116 23 C 115.898438 23 115.699219 23 115.601562 22.898438 L 115.601562 23.800781 C 115.800781 23.898438 116.101562 23.898438 116.398438 23.898438 C 117.101562 23.898438 117.5 23.5 117.800781 22.5 Z M 113.398438 22.199219 L 114.699219 22.199219 L 114.699219 16.300781 L 113.398438 16.300781 Z M 111.199219 17.398438 L 112.5 17.398438 L 112.5 16.300781 L 111.199219 16.300781 Z M 111.199219 22.199219 L 112.5 22.199219 L 112.5 18.101562 L 111.199219 18.101562 Z M 109.101562 20.5 C 109.101562 21.5 108.5 21.5 108.398438 21.5 C 108.101562 21.5 107.898438 21.300781 107.898438 21.101562 C 107.898438 21.101562 107.898438 21 107.898438 21 C 107.898438 20.300781 108.699219 20.300781 109.199219 20.300781 L 109.199219 20.5 Z M 107.199219 19.199219 C 107.5 19 107.898438 18.800781 108.300781 18.800781 C 108.5 18.800781 109.101562 18.800781 109.101562 19.601562 L 108.699219 19.601562 C 108.300781 19.601562 106.699219 19.601562 106.699219 21 C 106.699219 21.699219 107.199219 22.199219 107.800781 22.300781 C 107.898438 22.300781 107.898438 22.300781 108 22.300781 C 108.5 22.300781 108.898438 22.101562 109.101562 21.699219 L 109.101562 22.300781 L 110.199219 22.300781 C 110.199219 22 110.199219 21.699219 110.199219 21.101562 L 110.199219 19.601562 C 110.199219 18.699219 109.898438 18.101562 108.398438 18.101562 C 107.898438 18.101562 107.5 18.199219 107.101562 18.398438 Z M 103 17.699219 L 103.300781 17.699219 C 104.300781 17.699219 104.699219 18.398438 104.699219 19.5 C 104.699219 20.5 104.300781 21.300781 103.300781 21.300781 L 103 21.300781 Z M 101.699219 22.199219 L 103.5 22.199219 C 104.898438 22.300781 106.101562 21.300781 106.101562 19.898438 C 106.101562 19.800781 106.101562 19.601562 106.101562 19.5 C 106.101562 17.398438 104.898438 16.699219 103.601562 16.699219 L 101.601562 16.699219 Z M 98.601562 18.199219 C 98.199219 18.101562 97.800781 18 97.5 18 C 96.300781 18 96 18.800781 96 19.199219 C 96 19.800781 96.300781 20.300781 96.898438 20.5 C 97.398438 20.699219 97.800781 20.800781 97.800781 21 C 97.800781 21.199219 97.800781 21.398438 97.199219 21.398438 C 96.800781 21.398438 96.5 21.300781 96.199219 21.101562 L 96.199219 22.101562 C 96.601562 22.199219 97.101562 22.300781 97.601562 22.300781 C 98.398438 22.300781 99.101562 21.898438 99.101562 21 C 99.101562 20.398438 98.800781 19.898438 98.199219 19.800781 C 97.5 19.5 97.300781 19.5 97.300781 19.199219 C 97.300781 19.101562 97.398438 18.898438 97.800781 18.898438 C 98.101562 18.898438 98.5 19 98.800781 19.101562 Z M 94.199219 18.398438 L 95.101562 18.398438 L 95.699219 16.300781 L 94.5 16.300781 Z M 91.300781 22.199219 L 92.601562 22.199219 L 92.601562 20.398438 C 92.601562 19.800781 92.699219 19.199219 93.398438 19.199219 C 93.5 19.199219 93.699219 19.199219 93.800781 19.199219 L 93.800781 18 L 93.601562 18 C 92.898438 18 92.699219 18.398438 92.5 18.800781 C 92.5 18.601562 92.5 18.300781 92.5 18.101562 L 91.300781 18.101562 C 91.300781 18.398438 91.300781 18.699219 91.300781 19 Z M 90.398438 18.101562 L 89.101562 18.101562 L 89.101562 20.398438 C 89.101562 20.898438 89 21.300781 88.601562 21.300781 C 88.300781 21.300781 88.101562 21.199219 88.101562 20.601562 L 88.101562 18.101562 L 86.800781 18.101562 L 86.800781 20.800781 C 86.800781 21.601562 87.101562 22.300781 88 22.300781 C 88.5 22.300781 89 22 89.199219 21.5 C 89.199219 21.699219 89.199219 22 89.199219 22.199219 L 90.300781 22.199219 C 90.300781 21.898438 90.300781 21.601562 90.300781 21.300781 Z M 86.101562 20.199219 C 86.101562 18 84.699219 18 84.300781 18 C 83.101562 18.199219 82.300781 19.199219 82.5 20.398438 C 82.601562 21.398438 83.5 22.199219 84.601562 22.199219 C 85.101562 22.199219 85.5 22.101562 85.898438 22 L 85.898438 21.101562 C 85.5 21.300781 85.101562 21.398438 84.699219 21.398438 C 84.199219 21.5 83.699219 21.101562 83.699219 20.601562 C 83.699219 20.601562 83.699219 20.5 83.699219 20.5 L 86.101562 20.5 Z M 83.699219 19.800781 C 83.699219 19.601562 83.699219 18.800781 84.300781 18.800781 C 84.800781 18.800781 85 19.300781 85 19.800781 Z M 80.5 22.199219 L 81.800781 22.199219 L 81.800781 19.5 C 81.800781 18.699219 81.5 18 80.601562 18 C 80.101562 18 79.601562 18.300781 79.398438 18.800781 C 79.398438 18.5 79.398438 18.300781 79.398438 18.101562 L 78.300781 18.101562 C 78.300781 18.398438 78.300781 18.699219 78.300781 19 L 78.300781 22.300781 L 79.601562 22.300781 L 79.601562 20 C 79.601562 19.5 79.699219 19.101562 80.101562 19.101562 C 80.398438 19.101562 80.601562 19.199219 80.601562 19.800781 Z M 77.398438 20.199219 C 77.398438 18 76 18 75.601562 18 C 74.398438 18.199219 73.601562 19.199219 73.800781 20.398438 C 73.898438 21.398438 74.800781 22.199219 75.898438 22.199219 C 76.398438 22.199219 76.800781 22.101562 77.199219 22 L 77.199219 21.101562 C 76.800781 21.300781 76.398438 21.398438 76 21.398438 C 75.5 21.5 75 21.101562 75 20.601562 C 75 20.601562 75 20.5 75 20.5 L 77.398438 20.5 Z M 75 19.800781 C 75 19.601562 75 18.800781 75.601562 18.800781 C 76.101562 18.800781 76.300781 19.300781 76.300781 19.800781 Z M 71 22.199219 L 72.300781 22.199219 L 72.300781 20.398438 C 72.300781 19.800781 72.398438 19.199219 73.101562 19.199219 C 73.199219 19.199219 73.398438 19.199219 73.5 19.199219 L 73.5 18 L 73.300781 18 C 72.601562 18 72.398438 18.398438 72.199219 18.800781 C 72.199219 18.601562 72.199219 18.300781 72.199219 18.101562 L 71 18.101562 C 71 18.398438 71 18.699219 71 19 Z M 68.898438 20.199219 C 68.898438 20.898438 68.800781 21.5 68.300781 21.5 C 67.800781 21.5 67.699219 20.898438 67.699219 20.199219 C 67.699219 19.699219 67.800781 19 68.300781 19 C 68.898438 19 68.898438 19.699219 68.898438 20.199219 Z M 66.398438 23.898438 L 67.699219 23.898438 L 67.699219 21.601562 C 67.898438 22 68.300781 22.300781 68.800781 22.300781 C 69.800781 22.300781 70.300781 21.398438 70.300781 20.300781 C 70.300781 19 69.800781 18.101562 68.800781 18.101562 C 68.300781 18.101562 67.898438 18.398438 67.699219 18.800781 C 67.699219 18.601562 67.699219 18.398438 67.699219 18.101562 L 66.5 18.101562 C 66.5 18.300781 66.5 18.5 66.5 19 Z M 65.699219 20.199219 C 65.699219 18 64.300781 18 63.898438 18 C 62.699219 18.199219 61.898438 19.199219 62.101562 20.398438 C 62.199219 21.398438 63.101562 22.199219 64.199219 22.199219 C 64.699219 22.199219 65.101562 22.101562 65.5 22 L 65.5 21.101562 C 65.101562 21.300781 64.699219 21.398438 64.300781 21.398438 C 63.800781 21.5 63.300781 21.101562 63.300781 20.601562 C 63.300781 20.601562 63.300781 20.5 63.300781 20.5 L 65.699219 20.5 Z M 63.300781 19.800781 C 63.300781 19.601562 63.300781 18.800781 63.898438 18.800781 C 64.398438 18.800781 64.601562 19.300781 64.601562 19.800781 Z M 59.199219 22.199219 L 60.5 22.199219 L 60.5 20.398438 C 60.5 19.800781 60.601562 19.199219 61.300781 19.199219 C 61.398438 19.199219 61.601562 19.199219 61.699219 19.199219 L 61.699219 18 L 61.5 18 C 60.800781 18 60.601562 18.398438 60.398438 18.800781 C 60.398438 18.601562 60.398438 18.300781 60.398438 18.101562 L 59.300781 18.101562 C 59.300781 18.398438 59.300781 18.699219 59.300781 19 Z M 55.800781 19 L 56.5 19 L 56.5 21.101562 C 56.398438 21.699219 56.898438 22.199219 57.5 22.300781 C 57.601562 22.300781 57.699219 22.300781 57.699219 22.300781 C 58 22.300781 58.300781 22.300781 58.601562 22.199219 L 58.601562 21.300781 C 58.5 21.398438 58.300781 21.398438 58.199219 21.398438 C 58 21.398438 57.800781 21.300781 57.800781 20.898438 L 57.800781 19 L 58.601562 19 L 58.601562 18.101562 L 57.800781 18.101562 L 57.800781 16.898438 L 56.5 17.300781 L 56.5 18.199219 L 55.800781 18.199219 Z M 54 22.199219 L 55.300781 22.199219 L 55.300781 19.5 C 55.300781 18.699219 55 18 54.101562 18 C 53.601562 17.898438 53.101562 18.300781 52.898438 18.800781 C 52.898438 18.601562 52.898438 18.300781 52.898438 18.101562 L 51.800781 18.101562 C 51.800781 18.398438 51.800781 18.699219 51.800781 19 L 51.800781 22.300781 L 53 22.300781 L 53 20 C 53 19.5 53.101562 19.101562 53.5 19.101562 C 53.800781 19.101562 54 19.199219 54 19.800781 Z M 47.699219 22.199219 L 51 22.199219 L 51 21.199219 L 49 21.199219 L 49 19.800781 L 50.898438 19.800781 L 50.898438 18.800781 L 49 18.800781 L 49 17.601562 L 50.898438 17.601562 L 50.898438 16.601562 L 47.699219 16.601562 Z M 47.699219 22.199219 "/>
<path style=" stroke:none;fill-rule:evenodd;fill:rgb(13.72549%,12.156863%,12.54902%);fill-opacity:1;" d="M 147.601562 2.898438 L 148 2.898438 C 148.101562 2.898438 148.300781 2.898438 148.398438 2.800781 C 148.5 2.699219 148.5 2.699219 148.5 2.601562 C 148.5 2.5 148.5 2.5 148.5 2.398438 C 148.5 2.398438 148.398438 2.300781 148.398438 2.300781 C 148.300781 2.300781 148.199219 2.300781 148.101562 2.300781 L 147.699219 2.300781 Z M 147.300781 4.101562 L 147.300781 2.101562 L 148 2.101562 C 148.199219 2.101562 148.300781 2.101562 148.5 2.199219 C 148.601562 2.199219 148.699219 2.300781 148.800781 2.398438 C 148.898438 2.601562 148.898438 2.898438 148.800781 3.101562 C 148.699219 3.199219 148.5 3.300781 148.398438 3.300781 C 148.5 3.300781 148.5 3.398438 148.601562 3.398438 C 148.699219 3.5 148.800781 3.699219 148.898438 3.800781 L 149.101562 4.199219 L 148.699219 4.199219 L 148.5 3.898438 C 148.398438 3.699219 148.300781 3.601562 148.199219 3.398438 C 148.101562 3.300781 148 3.300781 147.898438 3.300781 L 147.699219 3.300781 L 147.699219 4.199219 Z M 148.101562 1.5 C 147.800781 1.5 147.601562 1.601562 147.300781 1.699219 C 147.101562 1.800781 146.898438 2 146.699219 2.300781 C 146.398438 2.800781 146.398438 3.398438 146.699219 3.898438 C 146.800781 4.101562 147 4.300781 147.300781 4.5 C 147.800781 4.800781 148.398438 4.800781 148.898438 4.5 C 149.101562 4.398438 149.300781 4.199219 149.5 3.898438 C 149.601562 3.699219 149.699219 3.398438 149.699219 3.101562 C 149.699219 2.800781 149.601562 2.601562 149.5 2.300781 C 149.398438 2.101562 149.199219 1.898438 148.898438 1.699219 C 148.699219 1.601562 148.398438 1.5 148.101562 1.5 Z M 148.101562 1.199219 C 148.398438 1.199219 148.699219 1.300781 149 1.398438 C 149.300781 1.601562 149.5 1.800781 149.699219 2.101562 C 149.898438 2.398438 149.898438 2.699219 150 3 C 150 3.300781 149.898438 3.601562 149.800781 3.898438 C 149.601562 4.199219 149.398438 4.398438 149.101562 4.601562 C 148.5 4.898438 147.800781 4.898438 147.199219 4.601562 C 146.898438 4.398438 146.699219 4.199219 146.5 3.898438 C 146.300781 3.601562 146.300781 3.300781 146.300781 3 C 146.300781 2.699219 146.398438 2.300781 146.601562 2.101562 C 146.800781 1.800781 147 1.601562 147.300781 1.398438 C 147.5 1.300781 147.800781 1.199219 148.101562 1.199219 Z M 148.101562 1.199219 "/>
</g>
</svg>
