<svg xmlns="http://www.w3.org/2000/svg" width="47.005" height="43.472" viewBox="0 0 47.005 43.472">
  <g id="Group_128" data-name="Group 128" opacity="0.23">
    <path id="Path_31" data-name="Path 31" d="M1592.886,306.393v18.928h-17.48V310.377q0-12.135,2.9-17.569a24.365,24.365,0,0,1,12.046-10.959l3.985,6.34a14.583,14.583,0,0,0-7.336,6.2q-2.356,4.122-2.626,12Zm28.076,0v18.928h-17.48V310.377q0-12.135,2.9-17.569a24.365,24.365,0,0,1,12.046-10.959l3.985,6.34a14.582,14.582,0,0,0-7.336,6.2q-2.357,4.122-2.626,12Z" transform="translate(-1575.406 -281.849)" fill="#fff"/>
  </g>
</svg>
