<?xml version="1.0" encoding="utf-8"?>
<!-- Generator: Adobe Illustrator 25.4.1, SVG Export Plug-In . SVG Version: 6.00 Build 0)  -->
<svg version="1.1" id="Social_Icons" xmlns="http://www.w3.org/2000/svg" xmlns:xlink="http://www.w3.org/1999/xlink" x="0px"
	 y="0px" viewBox="0 0 128 128" style="enable-background:new 0 0 128 128;" xml:space="preserve">
<style type="text/css">
	.st0{fill:#CE1312;}
	.st1{fill:#FFFFFF;}
</style>
<g>
	<path class="st0" d="M126.72,38.22c0,0-1.25-8.88-5.09-12.79c-4.87-5.14-10.32-5.16-12.82-5.46c-17.91-1.3-44.78-1.3-44.78-1.3
		h-0.06c0,0-26.87,0-44.78,1.3c-2.5,0.3-7.96,0.32-12.83,5.46c-3.84,3.91-5.08,12.79-5.08,12.79S0,48.66,0,59.09v9.78
		C0,79.3,1.28,89.73,1.28,89.73s1.25,8.88,5.08,12.79c4.87,5.14,11.27,4.97,14.12,5.51c10.24,0.99,43.52,1.3,43.52,1.3
		s26.9-0.04,44.81-1.35c2.5-0.3,7.96-0.33,12.82-5.46c3.84-3.91,5.09-12.79,5.09-12.79S128,79.3,128,68.87v-9.78
		C128,48.66,126.72,38.22,126.72,38.22z"/>
	<polygon class="st1" points="85.36,62.67 50.78,44.5 50.78,80.72 	"/>
</g>
</svg>
