<svg xmlns="http://www.w3.org/2000/svg" width="34.938" height="26" viewBox="0 0 34.938 26">
  <g id="Automotive" transform="translate(-111 -391.096)">
    <rect id="Rectangle_3470" data-name="Rectangle 3470" width="26" height="26" rx="13" transform="translate(119.938 391.096)" fill="#fdd8d8"/>
    <g id="XMLID_1_" transform="translate(111 391.096)">
      <g id="XMLID_3866_" transform="translate(0 0)">
        <g id="XMLID_371_" transform="translate(2.939 13.098)">
          <path id="XMLID_3570_" d="M60.506,322.012a3.506,3.506,0,1,1,3.506-3.506A3.51,3.51,0,0,1,60.506,322.012Zm0-6.5a2.99,2.99,0,1,0,2.99,2.99A2.993,2.993,0,0,0,60.506,315.516Z" transform="translate(-57 -315)" fill="#333"/>
        </g>
        <g id="XMLID_379_" transform="translate(4.537 14.696)">
          <path id="XMLID_3567_" d="M89.908,349.815a1.908,1.908,0,1,1,1.908-1.908A1.91,1.91,0,0,1,89.908,349.815Zm0-3.3a1.392,1.392,0,1,0,1.392,1.392A1.393,1.393,0,0,0,89.908,346.516Z" transform="translate(-88 -346)" fill="#333"/>
        </g>
        <g id="XMLID_372_" transform="translate(0 15.006)">
          <path id="XMLID_3564_" d="M3.2,355.2H.258A.255.255,0,0,1,0,354.939v-2.681A.255.255,0,0,1,.258,352H3.2a.255.255,0,0,1,.258.258v2.681A.255.255,0,0,1,3.2,355.2Zm-2.681-.516H2.939v-2.165H.516Z" transform="translate(0 -352)" fill="#333"/>
        </g>
        <g id="XMLID_381_" transform="translate(0.928 3.761)">
          <path id="XMLID_3563_" d="M18.516,145.4H18v-2.526a.243.243,0,0,1,.062-.165,8.141,8.141,0,0,1,6.264-2.929H26.9l1.361-1.691a11.276,11.276,0,0,1,8.765-4.192v.516a10.713,10.713,0,0,0-8.363,4L27.224,140.2a.254.254,0,0,1-.2.1h-2.7a7.638,7.638,0,0,0-5.811,2.671Z" transform="translate(-18 -133.9)" fill="#333"/>
        </g>
        <g id="XMLID_378_" transform="translate(11.394 8.303)">
          <path id="XMLID_3560_" d="M223.681,223.856h-2.423A.255.255,0,0,1,221,223.6v-.67a.931.931,0,0,1,.928-.928h1.753a.928.928,0,1,1,0,1.856Zm-2.165-.516h2.165a.412.412,0,1,0,0-.825h-1.753a.414.414,0,0,0-.412.412Z" transform="translate(-221 -222)" fill="#333"/>
        </g>
        <g id="XMLID_382_" transform="translate(0.929 11.242)">
          <path id="XMLID_3556_" d="M20.139,280.753H18.283a.258.258,0,0,1-.2-.423A3.7,3.7,0,0,1,20.933,279h.443a.255.255,0,0,1,.258.258A1.5,1.5,0,0,1,20.139,280.753Zm-1.232-.516h1.232a.979.979,0,0,0,.944-.722h-.155A3.189,3.189,0,0,0,18.907,280.237Z" transform="translate(-18.026 -279)" fill="#333"/>
        </g>
        <g id="XMLID_377_" transform="translate(12.168 0)">
          <path id="XMLID_2818_" d="M248.168,81.067a.25.25,0,0,1-.134-.036.255.255,0,0,1-.124-.222V78.732l-1.031-.526-1.031.526V80.81a.259.259,0,0,1-.376.232l-1.356-.7.237-.459.985.505V78.577a.269.269,0,0,1,.139-.232l1.289-.66a.273.273,0,0,1,.237,0l1.289.66a.259.259,0,0,1,.139.232v1.815l1.289-.66V76.881l-1.665-.851a.259.259,0,0,1-.139-.232V66.229a.269.269,0,0,1,.139-.232l1.665-.851V62.3l-1.289-.66v1.815a.269.269,0,0,1-.139.232l-1.289.66a.273.273,0,0,1-.237,0l-1.289-.66a.259.259,0,0,1-.139-.232V61.64l-1.294.66v2.851l1.665.851a.259.259,0,0,1,.139.232V75.8a.269.269,0,0,1-.139.232l-1.665.846v.629a.255.255,0,0,1-.258.258h-.052a3.587,3.587,0,0,1-.268.65l.474.474a.262.262,0,0,1,.077.18.242.242,0,0,1-.077.18l-1.093,1.093a.255.255,0,0,1-.366,0l-.474-.474a3.588,3.588,0,0,1-.65.268v.67a.255.255,0,0,1-.258.258h-1.547a.255.255,0,0,1-.258-.258v-.67a3.588,3.588,0,0,1-.65-.268l-.474.474a.255.255,0,0,1-.366,0l-1.083-1.093a.255.255,0,0,1,0-.366l.474-.474a3.589,3.589,0,0,1-.268-.65h-.67A.255.255,0,0,1,236,77.5V75.958a.255.255,0,0,1,.258-.258h.67a3.589,3.589,0,0,1,.268-.65l-.474-.474a.255.255,0,0,1,0-.366l1.093-1.093a.255.255,0,0,1,.366,0l.474.474a3.589,3.589,0,0,1,.65-.268v-.67a.255.255,0,0,1,.258-.258h1.547a.255.255,0,0,1,.258.258v.67a3.587,3.587,0,0,1,.65.268l.474-.474a.255.255,0,0,1,.366,0l1.093,1.093a.263.263,0,0,1,.077.18.242.242,0,0,1-.077.18l-.474.474a3.585,3.585,0,0,1,.268.65h.67a.255.255,0,0,1,.258.258v.021l.67-.345V66.389l-1.665-.851a.259.259,0,0,1-.139-.232V62.14a.269.269,0,0,1,.139-.232l1.8-.923a.26.26,0,0,1,.253.01.255.255,0,0,1,.124.222V63.3l1.031.526,1.031-.526V61.218a.259.259,0,0,1,.376-.232l1.8.923a.259.259,0,0,1,.139.232v3.166a.269.269,0,0,1-.139.232l-1.676.851v9.255l1.665.851a.259.259,0,0,1,.139.232v3.166a.269.269,0,0,1-.139.232l-1.8.923a.439.439,0,0,1-.119.021Zm-8.352-.516h1.031v-.608a.265.265,0,0,1,.2-.253,2.939,2.939,0,0,0,.871-.361.256.256,0,0,1,.315.036l.428.428.727-.727-.428-.428a.257.257,0,0,1-.036-.315,2.94,2.94,0,0,0,.361-.871.253.253,0,0,1,.237-.2v-.531a.269.269,0,0,1,.139-.232l.479-.242v-.031h-.608a.265.265,0,0,1-.253-.2,2.939,2.939,0,0,0-.361-.871.256.256,0,0,1,.036-.314l.428-.428-.727-.727-.428.428a.257.257,0,0,1-.315.036,2.939,2.939,0,0,0-.871-.361.256.256,0,0,1-.2-.253v-.614H239.81v.608a.265.265,0,0,1-.2.253,2.94,2.94,0,0,0-.871.361.256.256,0,0,1-.315-.036L238,73.679l-.727.727.428.428a.257.257,0,0,1,.036.314,2.939,2.939,0,0,0-.361.871.26.26,0,0,1-.253.2h-.608v1.031h.608a.265.265,0,0,1,.253.2,2.939,2.939,0,0,0,.361.871.257.257,0,0,1-.036.315l-.428.428.727.727.428-.428a.257.257,0,0,1,.315-.036,2.939,2.939,0,0,0,.871.361.256.256,0,0,1,.2.253v.619Zm.516-1.753a2.062,2.062,0,1,1,2.062-2.062A2.062,2.062,0,0,1,240.331,78.8Zm0-3.609a1.547,1.547,0,1,0,1.547,1.547A1.551,1.551,0,0,0,240.331,75.19Z" transform="translate(-236 -60.958)" fill="#333"/>
        </g>
        <g id="XMLID_1091_" transform="translate(12.56 5.055)">
          <path id="XMLID_2600_" d="M244,162.671l-.4-.33.309-.371a8.139,8.139,0,0,1,6.3-2.97H252.8v.516H250.21a7.628,7.628,0,0,0-5.9,2.784Z" transform="translate(-243.6 -159)" fill="#333"/>
        </g>
        <g id="XMLID_1090_" transform="translate(11.652 9.644)">
          <path id="XMLID_2449_" d="M226,248h9.074v.516H226Z" transform="translate(-226 -248)" fill="#333"/>
        </g>
        <g id="XMLID_984_" transform="translate(9.435 15.006)">
          <path id="XMLID_959_" d="M186.8,355.2h-3.547a.255.255,0,0,1-.258-.258v-2.681a.255.255,0,0,1,.258-.258h2.733v.516h-2.475v2.165H186.8Z" transform="translate(-183 -352)" fill="#333"/>
        </g>
        <g id="XMLID_1109_" transform="translate(14.771 15.006)">
          <path id="XMLID_957_" d="M286.5,352h3.46v.516H286.5Z" transform="translate(-286.5 -352)" fill="#333"/>
        </g>
      </g>
    </g>
  </g>
</svg>
