<svg xmlns="http://www.w3.org/2000/svg" width="35.309" height="29" viewBox="0 0 35.309 29">
  <g id="Beauty_Health" data-name="Beauty &amp; Health" transform="translate(-113.691 -391.096)">
    <rect id="Rectangle_3471" data-name="Rectangle 3471" width="29" height="29" rx="14.5" transform="translate(120 391.096)" fill="#fdd8d8"/>
    <g id="_002-skin-care" data-name="002-skin-care" transform="translate(113.691 391.096)">
      <path id="Path_92" data-name="Path 92" d="M45.016,20.275v1.937a.337.337,0,0,0,.337.337h4.262a.337.337,0,0,0,.337-.337V20.275a.337.337,0,0,0-.337-.337H45.353A.337.337,0,0,0,45.016,20.275Zm.674.337h3.588v1.263H45.69Z" transform="translate(-26.257 -12.443)" fill="#333"/>
      <path id="Path_93" data-name="Path 93" d="M27.216,24.509a.337.337,0,0,0,.335-.3L29.075,8.647V7.124a.337.337,0,0,0-.337-.337H20.215a.337.337,0,0,0-.337.337l0,1.555.966,9.848a4.525,4.525,0,0,0-1.159-1.865l-1.23-1.186a.332.332,0,0,0-.254-.094.336.336,0,0,0-.241.123,4.964,4.964,0,0,1-2.41,1.614.337.337,0,0,0,.2.645,5.634,5.634,0,0,0,2.5-1.558l.975.94a3.857,3.857,0,0,1,1.156,2.425H11.967a1.725,1.725,0,0,1,.873-1.19l.022-.01a1.747,1.747,0,0,1,.538-.182l.958-.152a.337.337,0,0,0-.105-.665l-.958.152a2.42,2.42,0,0,0-.239.06V10.773a1.236,1.236,0,0,0-1.235-1.235H10.4V6.731a.337.337,0,0,0-.337-.337H9.725V5.142h3.294a.337.337,0,0,0,.337-.337V3.587a.337.337,0,0,0-.337-.337H6.244a.337.337,0,0,0-.337.337V4.8a.337.337,0,0,0,.337.337h.337V6.394H6.244a.337.337,0,0,0-.337.337V9.538H4.485A1.236,1.236,0,0,0,3.25,10.773v.9a.337.337,0,0,0,.674,0v-.9a.562.562,0,0,1,.561-.561h7.336a.562.562,0,0,1,.561.561v7.1a2.388,2.388,0,0,0-1.093,1.7h-.517a.337.337,0,0,0-.337.337V21.1H9.77a.337.337,0,0,0-.337.337v3.825H3.924v-11.9H9.433v6.729a.337.337,0,1,0,.674,0V13.019a.337.337,0,0,0-.337-.337H3.587a.337.337,0,0,0-.337.337V27.167a1.911,1.911,0,0,0,1.909,1.909H21.882a1.012,1.012,0,0,0,1.011-1.011V25.727h3.65a.337.337,0,0,1,.337.337v2a.337.337,0,0,1-.337.337H23.9a.337.337,0,1,0,0,.674h2.64a1.012,1.012,0,0,0,1.011-1.011v-2a1.011,1.011,0,0,0-.831-.992v-.562ZM6.581,3.924h6.1v.544h-6.1Zm.674,1.218h1.8V6.394h-1.8ZM6.581,7.068H9.725v2.47H6.581ZM28.4,7.461V8.31H23.338a.337.337,0,0,0,0,.674h5.03L26.911,23.835H22.893v-2.4a.337.337,0,0,0-.337-.337h-.666V19.91a.332.332,0,0,0-.263-.322l-1.041-10.6h1.47a.337.337,0,0,0,0-.674h-1.5V7.461ZM11.11,20.247H21.216V21.1H11.11Zm-1,3.106H18.97v3.466H10.107ZM3.924,27.167V25.932H9.433v2.133a1,1,0,0,0,.062.337H5.159A1.236,1.236,0,0,1,3.924,27.167Zm18.3.9a.337.337,0,0,1-.337.337H10.443a.337.337,0,0,1-.337-.337v-.573h9.2a.337.337,0,0,0,.337-.337V23.016a.337.337,0,0,0-.337-.337h-9.2v-.91H22.219Zm3.83-3.012H22.893v-.544h3.156Z" transform="translate(-3.25 -3.25)" fill="#333"/>
    </g>
  </g>
</svg>
