<svg xmlns="http://www.w3.org/2000/svg" width="35.722" height="28.608" viewBox="0 0 35.722 28.608">
  <g id="Business_Services" data-name="Business Services" transform="translate(-110.482 -389.949)">
    <rect id="Rectangle_3472" data-name="Rectangle 3472" width="28.565" height="28.565" rx="14.283" transform="translate(117.638 389.949)" fill="#fdd8d8"/>
    <g id="Outline_final" transform="translate(110.482 389.949)">
      <path id="Path_94" data-name="Path 94" d="M32.613,30.921a.461.461,0,0,1-.461-.461V24.923H22.923v2.769a.461.461,0,0,1-.923,0v-3.23A.461.461,0,0,1,22.461,24H32.613a.461.461,0,0,1,.461.461v6A.461.461,0,0,1,32.613,30.921Z" transform="translate(-12.31 -13.387)" fill="#333"/>
      <path id="Path_95" data-name="Path 95" d="M32.613,28.923H22.461a.461.461,0,1,1,0-.923H32.613a.461.461,0,1,1,0,.923Z" transform="translate(-12.31 -15.542)" fill="#333"/>
      <path id="Path_96" data-name="Path 96" d="M40.815,32.923H37.691a.461.461,0,1,1,0-.923h3.124a.461.461,0,1,1,0,.923Z" transform="translate(-20.513 -17.696)" fill="#333"/>
      <path id="Path_97" data-name="Path 97" d="M27.537,12.074a5.537,5.537,0,1,1,5.537-5.537,5.537,5.537,0,0,1-5.537,5.537Zm0-10.151a4.614,4.614,0,1,0,4.614,4.614,4.614,4.614,0,0,0-4.614-4.614Z" transform="translate(-12.31 -1)" fill="#333"/>
      <path id="Path_98" data-name="Path 98" d="M32.307,12.614H30.461a.461.461,0,0,1,0-.923h1.846a.461.461,0,0,0,0-.923h-.923a1.384,1.384,0,0,1,0-2.769H33.23a.461.461,0,1,1,0,.923H31.384a.461.461,0,1,0,0,.923h.923a1.384,1.384,0,1,1,0,2.769Z" transform="translate(-16.619 -4.77)" fill="#333"/>
      <path id="Path_99" data-name="Path 99" d="M33.461,7.846A.461.461,0,0,1,33,7.384V6.461a.461.461,0,0,1,.923,0v.923A.461.461,0,0,1,33.461,7.846Z" transform="translate(-18.235 -3.693)" fill="#333"/>
      <path id="Path_100" data-name="Path 100" d="M33.461,17.846A.461.461,0,0,1,33,17.384v-.923a.461.461,0,0,1,.923,0v.923A.461.461,0,0,1,33.461,17.846Z" transform="translate(-18.235 -9.079)" fill="#333"/>
      <path id="Path_101" data-name="Path 101" d="M9.306,49a.461.461,0,0,1-.326-.135L1.135,41.018a.461.461,0,0,1,0-.652l3.23-3.23a.461.461,0,0,1,.652,0l7.844,7.844a.461.461,0,0,1,0,.652l-3.23,3.23A.461.461,0,0,1,9.306,49ZM2.114,40.691l7.192,7.192,2.577-2.577L4.691,38.114Z" transform="translate(-1 -20.389)" fill="#333"/>
      <path id="Path_102" data-name="Path 102" d="M10.462,35.614a.461.461,0,0,1-.326-.788l3.691-3.691A.461.461,0,0,1,14.153,31H22a1.846,1.846,0,0,1,0,3.691h-3.23a.461.461,0,0,1,0-.923H22a.923.923,0,1,0,0-1.846H14.344l-3.556,3.556A.461.461,0,0,1,10.462,35.614Z" transform="translate(-5.847 -17.157)" fill="#333"/>
      <path id="Path_103" data-name="Path 103" d="M23.462,37.872a.461.461,0,0,1-.326-.788l2.307-2.307a.461.461,0,0,1,.326-.135h6.722L40.3,26.38A.847.847,0,0,0,39.087,25.2l-5.609,5.615a.461.461,0,0,1-.327.135H28.537a.461.461,0,0,1,0-.923H32.96l5.473-5.48a1.77,1.77,0,0,1,2.538,2.466l-7.946,8.407a.461.461,0,0,1-.335.144H25.96l-2.172,2.172a.461.461,0,0,1-.326.135Z" transform="translate(-12.849 -13.417)" fill="#333"/>
    </g>
  </g>
</svg>
