<svg xmlns="http://www.w3.org/2000/svg" width="35.465" height="28" viewBox="0 0 35.465 28">
  <g id="Dealers_Distributors" data-name="Dealers &amp; Distributors" transform="translate(-110 -385.502)">
    <rect id="Rectangle_3473" data-name="Rectangle 3473" width="28" height="28" rx="14" transform="translate(117.465 385.502)" fill="#fdd8d8"/>
    <g id="Distributed" transform="translate(110 385.502)">
      <path id="Path_104" data-name="Path 104" d="M29,52.334A1.334,1.334,0,1,0,30.334,51,1.334,1.334,0,0,0,29,52.334Zm1.779,0a.445.445,0,1,1-.445-.445A.445.445,0,0,1,30.779,52.334Z" transform="translate(-16.547 -28.765)" fill="#333"/>
      <path id="Path_105" data-name="Path 105" d="M7,52.334A1.334,1.334,0,1,0,8.334,51,1.334,1.334,0,0,0,7,52.334Zm1.779,0a.445.445,0,1,1-.445-.445A.445.445,0,0,1,8.779,52.334Z" transform="translate(-4.332 -28.765)" fill="#333"/>
      <path id="Path_106" data-name="Path 106" d="M28.129,20.571H25.016V18.347h.445a.445.445,0,0,0,.445-.445V16.123a.445.445,0,0,0-.445-.445H23.682a.445.445,0,0,0-.445.445v.445H16.121v-.445a.445.445,0,0,0-.445-.445h-.445V12.894L20.7,11.212a.445.445,0,0,0,.314-.425V3.671a.445.445,0,0,0-.181-.356.784.784,0,0,0-.1-.058L14.946,1.033a.449.449,0,0,0-.319,0L8.846,3.257a.784.784,0,0,0-.1.058.445.445,0,0,0-.181.356v7.116a.445.445,0,0,0,.314.425l5.468,1.682v2.785H13.9a.445.445,0,0,0-.445.445v.445H6.337v-.445a.445.445,0,0,0-.445-.445H4.113a.445.445,0,0,0-.445.445V17.9a.445.445,0,0,0,.445.445h.445v2.224H1.445A.445.445,0,0,0,1,21.015v7.116a.445.445,0,0,0,.445.445H8.561a.445.445,0,0,0,.445-.445V21.015a.445.445,0,0,0-.445-.445H5.447V18.347h.445a.445.445,0,0,0,.445-.445v-.445h7.116V17.9a.445.445,0,0,0,.445.445h.445v2.224H11.229a.445.445,0,0,0-.445.445v7.116a.445.445,0,0,0,.445.445h7.116a.445.445,0,0,0,.445-.445V21.015a.445.445,0,0,0-.445-.445H15.232V18.347h.445a.445.445,0,0,0,.445-.445v-.445h7.116V17.9a.445.445,0,0,0,.445.445h.445v2.224H21.013a.445.445,0,0,0-.445.445v7.116a.445.445,0,0,0,.445.445h7.116a.445.445,0,0,0,.445-.445V21.015A.445.445,0,0,0,28.129,20.571ZM20.124,10.458l-4.892,1.505V5.778l4.892-1.505ZM14.787,1.923l4.421,1.7L14.787,4.984,10.366,3.626ZM9.45,4.273l4.892,1.505v6.185L9.45,10.458ZM8.116,27.686H1.889V21.46H8.116ZM5.447,17.457H4.558v-.889h.889ZM17.9,27.686H11.674V21.46H17.9ZM15.232,17.457h-.889v-.889h.889Zm8.895-.889h.889v.889h-.889Zm3.558,11.118H21.458V21.46h6.226Z" transform="translate(-1 -1.004)" fill="#333"/>
      <path id="Path_107" data-name="Path 107" d="M51,52.334A1.334,1.334,0,1,0,52.334,51,1.334,1.334,0,0,0,51,52.334Zm1.779,0a.445.445,0,1,1-.445-.445A.445.445,0,0,1,52.779,52.334Z" transform="translate(-28.763 -28.765)" fill="#333"/>
      <path id="Path_108" data-name="Path 108" d="M51.113,58H48.445a.445.445,0,1,0,0,.889h2.668a.445.445,0,1,0,0-.889Z" transform="translate(-27.097 -32.652)" fill="#333"/>
      <path id="Path_109" data-name="Path 109" d="M57.445,58.889h.445a.445.445,0,1,0,0-.889h-.445a.445.445,0,0,0,0,.889Z" transform="translate(-32.095 -32.652)" fill="#333"/>
    </g>
  </g>
</svg>
