<svg xmlns="http://www.w3.org/2000/svg" width="35.018" height="29.382" viewBox="0 0 35.018 29.382">
  <g id="Education" transform="translate(-115.083 -390)">
    <rect id="Rectangle_3474" data-name="Rectangle 3474" width="29.382" height="29.382" rx="14.691" transform="translate(120.719 390)" fill="#fdd8d8"/>
    <g id="_005-learning" data-name="005-learning" transform="translate(115.083 390)">
      <path id="Path_110" data-name="Path 110" d="M47.372,168.77H45.781v-.179a.808.808,0,0,0-.807-.807H41.836a.392.392,0,1,0,0,.783h3.139a.023.023,0,0,1,.023.023v4.776a.392.392,0,1,0,.783,0v-3.814h1.591a.1.1,0,0,1,.1.1v13.665a1.627,1.627,0,0,1-1.626,1.626H26.473a1.627,1.627,0,0,1-1.626-1.626V169.65a.1.1,0,0,1,.1-.1h1.644v13.4a1,1,0,0,0,1,1H44.779a1,1,0,0,0,1-1v-7.912a.392.392,0,1,0-.783,0v5.637H38.661a2.86,2.86,0,0,0-2.085.9V176.51a.392.392,0,1,0-.783,0v5.067a2.86,2.86,0,0,0-2.085-.9h-1.78a.392.392,0,1,0,0,.783h1.78a2.088,2.088,0,0,1,2.05,1.71H27.589a.219.219,0,0,1-.218-.218v-1.492h2.887a.392.392,0,1,0,0-.783H27.37V168.592a.023.023,0,0,1,.023-.023h3.139a.392.392,0,1,0,0-.783H27.394a.808.808,0,0,0-.807.807v.179H24.943a.88.88,0,0,0-.879.879v13.665a2.412,2.412,0,0,0,2.409,2.409h19.37a2.412,2.412,0,0,0,2.409-2.409V169.65A.88.88,0,0,0,47.372,168.77Zm-8.712,12.688H45v1.492a.219.219,0,0,1-.218.218H36.61A2.088,2.088,0,0,1,38.661,181.458Z" transform="translate(-24.064 -159.022)" fill="#333"/>
      <path id="Path_111" data-name="Path 111" d="M149.7,5.5a.392.392,0,0,0,.427-.353,4.817,4.817,0,1,1,8.736,3.23l-.009.014-2.506,3.9a.392.392,0,0,0-.062.212v.507a.187.187,0,0,1-.187.187h-.026l.25-4.234h.446A1.159,1.159,0,0,0,157.928,7.8V7.755a1.158,1.158,0,0,0-2.314-.068l-.029.49h-1.374l-.029-.49a1.158,1.158,0,0,0-2.314.068V7.8a1.159,1.159,0,0,0,1.158,1.158h.446l.249,4.231a.186.186,0,0,1-.16-.184V12.5a.392.392,0,0,0-.062-.212l-2.507-3.9-.009-.014a4.773,4.773,0,0,1-.754-1.689.392.392,0,1,0-.763.176,5.552,5.552,0,0,0,.873,1.957l2.44,3.8v.392a.971.971,0,0,0,.578.887v.662a1.265,1.265,0,0,0,1.264,1.264h.606a1.265,1.265,0,0,0,1.264-1.264v-.662a.971.971,0,0,0,.578-.887v-.392l2.44-3.8a5.6,5.6,0,1,0-10.161-3.748A.392.392,0,0,0,149.7,5.5ZM156.4,7.733a.375.375,0,0,1,.748.022V7.8a.375.375,0,0,1-.375.375h-.4Zm-3.369.444a.375.375,0,0,1-.375-.375V7.755a.375.375,0,0,1,.748-.022l.026.444Zm2.512.783-.249,4.234h-.782l-.249-4.234Zm.169,5.6a.481.481,0,0,1-.481.481h-.606a.481.481,0,0,1-.481-.481v-.579h1.567v.579Z" transform="translate(-142.804 0)" fill="#333"/>
      <path id="Path_112" data-name="Path 112" d="M380.4,29.117a.39.39,0,0,0,.258-.1l.855-.75a.392.392,0,1,0-.517-.589l-.855.75a.392.392,0,0,0,.258.686Z" transform="translate(-361.421 -26.143)" fill="#333"/>
      <path id="Path_113" data-name="Path 113" d="M380.144,89.733l.855.75a.392.392,0,0,0,.517-.589l-.855-.75a.392.392,0,0,0-.517.589Z" transform="translate(-361.421 -84.397)" fill="#333"/>
      <path id="Path_114" data-name="Path 114" d="M101.036,28.269l.855.75a.392.392,0,0,0,.517-.589l-.855-.75a.392.392,0,0,0-.517.589Z" transform="translate(-96.89 -26.142)" fill="#333"/>
      <path id="Path_115" data-name="Path 115" d="M101.3,90.582a.391.391,0,0,0,.258-.1l.855-.75a.392.392,0,0,0-.517-.589l-.855.75a.392.392,0,0,0,.259.686Z" transform="translate(-96.891 -84.398)" fill="#333"/>
      <path id="Path_116" data-name="Path 116" d="M105.545,253.046a.392.392,0,0,0-.392-.392h-3.858a.392.392,0,1,0,0,.783h3.858A.392.392,0,0,0,105.545,253.046Z" transform="translate(-96.89 -239.459)" fill="#333"/>
      <path id="Path_117" data-name="Path 117" d="M119.187,290.8h-4.344a.392.392,0,1,0,0,.783h4.344a.392.392,0,0,0,0-.783Z" transform="translate(-109.731 -275.618)" fill="#333"/>
      <path id="Path_118" data-name="Path 118" d="M119.187,327.346h-4.344a.392.392,0,0,0,0,.783h4.344a.392.392,0,0,0,0-.783Z" transform="translate(-109.731 -310.25)" fill="#333"/>
      <path id="Path_119" data-name="Path 119" d="M119.187,363.887h-4.344a.392.392,0,0,0,0,.783h4.344a.392.392,0,0,0,0-.783Z" transform="translate(-109.731 -344.883)" fill="#333"/>
      <path id="Path_120" data-name="Path 120" d="M327.138,253.046a.392.392,0,0,0-.392-.392h-3.858a.392.392,0,1,0,0,.783h3.858A.392.392,0,0,0,327.138,253.046Z" transform="translate(-306.91 -239.459)" fill="#333"/>
      <path id="Path_121" data-name="Path 121" d="M304.383,290.8h-4.344a.392.392,0,1,0,0,.783h4.344a.392.392,0,0,0,0-.783Z" transform="translate(-285.255 -275.618)" fill="#333"/>
      <path id="Path_122" data-name="Path 122" d="M304.383,327.346h-4.344a.392.392,0,1,0,0,.783h4.344a.392.392,0,0,0,0-.783Z" transform="translate(-285.255 -310.25)" fill="#333"/>
      <path id="Path_123" data-name="Path 123" d="M304.383,363.887h-4.344a.392.392,0,0,0,0,.783h4.344a.392.392,0,0,0,0-.783Z" transform="translate(-285.255 -344.883)" fill="#333"/>
    </g>
  </g>
</svg>
