<svg xmlns="http://www.w3.org/2000/svg" width="35" height="32.18" viewBox="0 0 35 32.18">
  <g id="Fashion" transform="translate(-112 -386)">
    <rect id="Rectangle_3475" data-name="Rectangle 3475" width="32" height="31" rx="15.5" transform="translate(115 386)" fill="#fdd8d8"/>
    <g id="_006-fashion" data-name="006-fashion" transform="translate(112 386)">
      <path id="Path_124" data-name="Path 124" d="M25.57,15.072c-2.029,0-3.116,1.472-4.124,3.683-1.343,2.947-2.722,4.637-3.783,4.637-.2,0-.79,0-1.307-1.155a.843.843,0,0,0-.945-.478,6.363,6.363,0,0,0-4.159,2.578,5.321,5.321,0,0,0-.858,2.729.843.843,0,0,0,.844.871H17.55c.089.7.163,1.4.221,2.066a7.073,7.073,0,0,1-5.219,1.141,23.156,23.156,0,0,1-4.806-1.453c-.624-.239-1.27-.485-1.911-.707a13.373,13.373,0,0,0-4.83-.9C1.752,22.06,3.512,15.76,4.728,13.551H6.882c-.164.862-.349,2.148-.533,3.706a.471.471,0,1,0,.936.11c.195-1.653.39-2.988.557-3.816h2.986c.166.83.36,2.16.555,3.816a.471.471,0,1,0,.936-.11c-.184-1.559-.368-2.841-.532-3.706h2.056a36.81,36.81,0,0,1,2.509,7.763.471.471,0,1,0,.918-.213A36.693,36.693,0,0,0,14.616,13c.13-.611.279-1.28.423-1.929.372-1.669.756-3.394.86-4.363.15-1.407.048-4.909.013-5.949A.781.781,0,0,0,15.128,0H14.022a.785.785,0,0,0-.784.784V1.918A4.028,4.028,0,0,1,9.265,5.971H9.251A3.986,3.986,0,0,1,5.264,1.984V.784A.785.785,0,0,0,4.48,0H3.374A.781.781,0,0,0,2.59.758c-.02.6-.067,2.146-.067,3.57a.471.471,0,1,0,.943,0c0-1.3.039-2.708.061-3.385h.794V1.984a4.929,4.929,0,0,0,4.947,4.93,4.972,4.972,0,0,0,4.913-5V.943h.794c.038,1.179.123,4.378-.013,5.664-.1.916-.476,2.615-.842,4.258-.13.583-.263,1.182-.383,1.743H4.765c-.115-.534-.242-1.1-.365-1.659-.374-1.678-.761-3.413-.86-4.343-.012-.113-.023-.251-.033-.423a.471.471,0,0,0-.941.057c.011.186.023.338.037.465.1.983.5,2.745.877,4.448.146.654.3,1.328.425,1.938a30.318,30.318,0,0,0-2.114,6.025A68,68,0,0,0,0,28.538a.472.472,0,0,0,.517.522,11.6,11.6,0,0,1,5.009.817c.627.216,1.265.46,1.882.7a23.836,23.836,0,0,0,5.008,1.506,9.67,9.67,0,0,0,1.378.1,7.559,7.559,0,0,0,4.758-1.585.471.471,0,0,0,.179-.409c-.059-.725-.137-1.479-.232-2.248h.288a.966.966,0,0,0,.92-.662,10.66,10.66,0,0,1,2.347-3.733A6.472,6.472,0,0,1,24.1,21.956a10.779,10.779,0,0,1,.111,1.929v3.2a.849.849,0,0,0,.848.848h.781a.85.85,0,0,0,.848-.848v-3.2a4.414,4.414,0,0,1,.589-1.926,5.427,5.427,0,0,0,.708-2.455C27.988,16.936,26.971,15.072,25.57,15.072Zm.861,6.478a5.214,5.214,0,0,0-.682,2.335V27h-.592v-3.11c0-1.506-.07-2.4-.439-2.786a.471.471,0,0,0-.342-.147c-1.092,0-2.577,1.488-3.006,1.944a11.632,11.632,0,0,0-2.556,4.083.026.026,0,0,1-.025.015H11.341c.059-1.1.612-3.476,4.189-4.3a2.37,2.37,0,0,0,2.133,1.636c1.51,0,3.071-1.746,4.64-5.189,1.054-2.312,1.909-3.132,3.266-3.132.619,0,1.476,1.212,1.476,3.489A4.614,4.614,0,0,1,26.431,21.55Zm0,0" transform="translate(0 0)" fill="#333"/>
      <path id="Path_125" data-name="Path 125" d="M272.268,63.423l-.01-.024-1.4-3.3a.876.876,0,0,0-.807-.534h-7.51a.876.876,0,0,0-.807.534l-.176.413a.471.471,0,0,0,.868.369l.159-.373h1.8l-.377,2.609h-2.532l.188-.443a.471.471,0,1,0-.868-.369l-.463,1.089-.01.024a.881.881,0,0,0,.158.912l5.159,5.791a.877.877,0,0,0,.65.294h.01a.878.878,0,0,0,.65-.294l5.159-5.791A.881.881,0,0,0,272.268,63.423Zm-8.278.735,1.236,4.084L261.5,64.065h2.462Q263.977,64.113,263.99,64.158Zm3.57,1.819a.472.472,0,0,0-.588.315l-.676,2.233-1.35-4.46h2.7l-.111.368a.471.471,0,1,0,.9.273l.165-.547c.009-.03.017-.061.024-.094h2.462l-3.722,4.178.508-1.677A.472.472,0,0,0,267.56,65.977Zm3.556-2.855h-2.532l-.376-2.609h1.8Zm-5.778-2.609h1.917l.376,2.609h-2.67Zm0,0" transform="translate(-243.904 -55.826)" fill="#333"/>
    </g>
  </g>
</svg>
