<svg xmlns="http://www.w3.org/2000/svg" width="36.705" height="29.342" viewBox="0 0 36.705 29.342">
  <g id="Food_And_Beverage" data-name="Food And Beverage" transform="translate(-108.467 -384.518)">
    <rect id="Rectangle_3476" data-name="Rectangle 3476" width="29.342" height="29.342" rx="14.671" transform="translate(115.831 384.518)" fill="#fdd8d8"/>
    <g id="_007-fast-food" data-name="007-fast-food" transform="translate(108.467 384.518)">
      <g id="Group_48" data-name="Group 48" transform="translate(0 0)">
        <path id="Path_126" data-name="Path 126" d="M454.858,303.173a.43.43,0,1,0,0,.611.428.428,0,0,0,0-.611Z" transform="translate(-428.099 -285.681)" fill="#333"/>
        <path id="Path_127" data-name="Path 127" d="M407.7,303.171a.43.43,0,1,0,.006.611.428.428,0,0,0-.006-.611Z" transform="translate(-383.641 -285.68)" fill="#333"/>
        <path id="Path_128" data-name="Path 128" d="M360.535,303.173a.43.43,0,1,0,0,.611.428.428,0,0,0,0-.611Z" transform="translate(-339.182 -285.681)" fill="#333"/>
        <path id="Path_129" data-name="Path 129" d="M313.374,303.173a.43.43,0,1,0,0,.611.428.428,0,0,0,0-.611Z" transform="translate(-294.724 -285.681)" fill="#333"/>
        <path id="Path_130" data-name="Path 130" d="M266.213,303.173a.43.43,0,1,0,0,.611.428.428,0,0,0,0-.611Z" transform="translate(-250.266 -285.681)" fill="#333"/>
        <path id="Path_131" data-name="Path 131" d="M219.051,303.173a.43.43,0,1,0,0,.611.428.428,0,0,0,0-.611Z" transform="translate(-205.807 -285.681)" fill="#333"/>
        <path id="Path_132" data-name="Path 132" d="M431.3,267.354a.43.43,0,1,0-.715.478l0,0a.43.43,0,1,0,.715-.478Z" transform="translate(-405.842 -251.852)" fill="#333"/>
        <path id="Path_133" data-name="Path 133" d="M384.061,267.29a.43.43,0,0,0-.608.608l0,0a.43.43,0,0,0,.608-.608Z" transform="translate(-361.357 -251.853)" fill="#333"/>
        <path id="Path_134" data-name="Path 134" d="M336.883,267.245a.43.43,0,1,0,0,.611.428.428,0,0,0,0-.611Z" transform="translate(-316.885 -251.812)" fill="#333"/>
        <path id="Path_135" data-name="Path 135" d="M289.721,267.245a.43.43,0,1,0,0,.611.428.428,0,0,0,0-.611Z" transform="translate(-272.426 -251.812)" fill="#333"/>
        <path id="Path_136" data-name="Path 136" d="M242.515,267.21a.43.43,0,1,0-.717.475l0,0a.43.43,0,1,0,.717-.475Z" transform="translate(-227.873 -251.715)" fill="#333"/>
        <path id="Path_137" data-name="Path 137" d="M359.892,232.111a.43.43,0,0,0,.6-.115l0,0a.43.43,0,1,0-.712-.482l0,0A.43.43,0,0,0,359.892,232.111Z" transform="translate(-339.086 -218.064)" fill="#333"/>
        <path id="Path_138" data-name="Path 138" d="M312.732,232.114a.43.43,0,0,0,.6-.118l0,0a.43.43,0,1,0-.714-.479l0,0A.43.43,0,0,0,312.732,232.114Z" transform="translate(-294.628 -218.066)" fill="#333"/>
        <path id="Path_139" data-name="Path 139" d="M28.245,20.4a1.1,1.1,0,0,0,1.1-1.1v-.588a6.515,6.515,0,0,0-3.07-5.585A11.886,11.886,0,0,0,19.7,11.316l-.233,0,.242-1.775a1.132,1.132,0,0,0,1.082-1.129V7.43A1.134,1.134,0,0,0,19.659,6.3H12.115V3.66l3.418-.89a1.393,1.393,0,0,0-.7-2.7L10.372,1.237A1.377,1.377,0,0,0,9.331,2.584V6.3h-8.2A1.134,1.134,0,0,0,0,7.43v.985A1.132,1.132,0,0,0,1.082,9.544L3.6,27.993a1.485,1.485,0,0,0,1.432,1.378H27.523a1.824,1.824,0,0,0,1.822-1.822V26.462a.736.736,0,0,0-.736-.734H27.8V24.554a1.735,1.735,0,0,0,.015-3.338,3.083,3.083,0,0,0,.2-.811h.231ZM10.19,2.584a.521.521,0,0,1,.4-.516L15.046.907a.533.533,0,0,1,.271,1.032l-3.739.973a.43.43,0,0,0-.322.416V6.3H10.19V2.584ZM1.95,9.546h7.8a.43.43,0,0,0,0-.86H1.132A.276.276,0,0,1,.86,8.415V7.43a.276.276,0,0,1,.272-.274H19.659a.276.276,0,0,1,.272.274v.985a.276.276,0,0,1-.272.272H11.792a.43.43,0,0,0,0,.86h7.049l-.247,1.813a11.439,11.439,0,0,0-5.47,1.773,7.113,7.113,0,0,0-2.169,2.23L3.1,18Zm1.229,9.022a.075.075,0,0,1,0,.025Zm.04.294,7.222-2.422a6.647,6.647,0,0,0-.387,2.276V19.3a1.1,1.1,0,0,0,1.1,1.1h.231a3.084,3.084,0,0,0,.2.811,1.734,1.734,0,0,0-1.2,2.091l-6.264,2.17Zm7.11,9.649h-5.3a.65.65,0,0,1-.58-.635l-.209-1.532,6.567-2.275a1.736,1.736,0,0,0,.8.483v1.174H10.79a.736.736,0,0,0-.736.734V27.55A1.81,1.81,0,0,0,10.33,28.512Zm18.155-1.925v.962a.963.963,0,0,1-.962.962H11.876a.963.963,0,0,1-.962-.962v-.962h8.4a.43.43,0,1,0,0-.86H12.461v-1.11H26.938v1.11h-5.6a.43.43,0,1,0,0,.86Zm-.278-3.706a.876.876,0,0,1-.874.876H12.066a.875.875,0,0,1,0-1.751H12.1a2.183,2.183,0,0,0,.66.456,2.463,2.463,0,0,0,2.452-.289,2.2,2.2,0,0,0,2.994.009,2.2,2.2,0,0,0,2.982,0,2.2,2.2,0,0,0,3-.009,2.461,2.461,0,0,0,2.451.289,2.185,2.185,0,0,0,.661-.456h.036a.875.875,0,0,1,.874.875ZM12.252,20.4H27.147a1.547,1.547,0,0,1-.861,1.273A1.61,1.61,0,0,1,24.6,21.4a.572.572,0,0,0-.88.025,1.365,1.365,0,0,1-2.077,0l-.023-.022a.566.566,0,0,0-.883.021,1.424,1.424,0,0,1-1.039.479,1.44,1.44,0,0,1-1.037-.478.569.569,0,0,0-.884-.023l-.025.024a1.364,1.364,0,0,1-2.076,0,.57.57,0,0,0-.882-.021,1.61,1.61,0,0,1-1.683.271,1.547,1.547,0,0,1-.86-1.273Zm-1.1-.86a.241.241,0,0,1-.241-.241v-.588a5.721,5.721,0,0,1,2.69-4.871,11.024,11.024,0,0,1,6.1-1.67,11.024,11.024,0,0,1,6.1,1.67,5.721,5.721,0,0,1,2.69,4.871V19.3a.241.241,0,0,1-.24.241H11.154Z" transform="translate(0 -0.03)" fill="#333"/>
      </g>
    </g>
  </g>
</svg>
