<svg xmlns="http://www.w3.org/2000/svg" width="35.606" height="30" viewBox="0 0 35.606 30">
  <g id="Home_Based_Business" data-name="Home Based Business" transform="translate(-119.394 -383)">
    <rect id="Rectangle_3477" data-name="Rectangle 3477" width="30" height="30" rx="15" transform="translate(125 383)" fill="#fdd8d8"/>
    <g id="_008-work-from-home" data-name="008-work-from-home" transform="translate(119.394 383)">
      <g id="Group_49" data-name="Group 49" transform="translate(0 0)">
        <path id="Path_140" data-name="Path 140" d="M11.124,18.355H1.482A.455.455,0,0,1,1,17.873V1.482A.455.455,0,0,1,1.482,1h9.642a.455.455,0,0,1,.482.482V17.873A.455.455,0,0,1,11.124,18.355Zm-9.159-.964h8.677V1.964H1.964Z" transform="translate(-1 -1)" fill="#333"/>
      </g>
      <g id="Group_50" data-name="Group 50" transform="translate(3.857 13.498)">
        <path id="Path_141" data-name="Path 141" d="M11.41,32.857a.455.455,0,0,1-.482-.482v-2.41H9.964v2.41a.482.482,0,0,1-.964,0V29.482A.455.455,0,0,1,9.482,29H11.41a.455.455,0,0,1,.482.482v2.892A.455.455,0,0,1,11.41,32.857Z" transform="translate(-9 -29)" fill="#333"/>
      </g>
      <g id="Group_51" data-name="Group 51" transform="translate(7.713 13.498)">
        <path id="Path_142" data-name="Path 142" d="M17.482,30.928A.455.455,0,0,1,17,30.446v-.964a.482.482,0,1,1,.964,0v.964A.455.455,0,0,1,17.482,30.928Z" transform="translate(-17 -29)" fill="#333"/>
      </g>
      <g id="Group_52" data-name="Group 52" transform="translate(1.928 13.498)">
        <path id="Path_143" data-name="Path 143" d="M5.482,30.928A.455.455,0,0,1,5,30.446v-.964A.455.455,0,0,1,5.482,29a.455.455,0,0,1,.482.482v.964A.455.455,0,0,1,5.482,30.928Z" transform="translate(-5 -29)" fill="#333"/>
      </g>
      <g id="Group_53" data-name="Group 53" transform="translate(7.713 10.606)">
        <path id="Path_144" data-name="Path 144" d="M17.482,24.928A.455.455,0,0,1,17,24.446v-.964a.482.482,0,0,1,.964,0v.964A.455.455,0,0,1,17.482,24.928Z" transform="translate(-17 -23)" fill="#333"/>
      </g>
      <g id="Group_54" data-name="Group 54" transform="translate(1.928 10.606)">
        <path id="Path_145" data-name="Path 145" d="M5.482,24.928A.455.455,0,0,1,5,24.446v-.964A.455.455,0,0,1,5.482,23a.455.455,0,0,1,.482.482v.964A.455.455,0,0,1,5.482,24.928Z" transform="translate(-5 -23)" fill="#333"/>
      </g>
      <g id="Group_55" data-name="Group 55" transform="translate(3.857 10.606)">
        <path id="Path_146" data-name="Path 146" d="M9.482,24.928A.455.455,0,0,1,9,24.446v-.964a.482.482,0,0,1,.964,0v.964A.455.455,0,0,1,9.482,24.928Z" transform="translate(-9 -23)" fill="#333"/>
      </g>
      <g id="Group_56" data-name="Group 56" transform="translate(5.785 10.606)">
        <path id="Path_147" data-name="Path 147" d="M13.482,24.928A.455.455,0,0,1,13,24.446v-.964a.482.482,0,0,1,.964,0v.964A.455.455,0,0,1,13.482,24.928Z" transform="translate(-13 -23)" fill="#333"/>
      </g>
      <g id="Group_57" data-name="Group 57" transform="translate(7.713 7.713)">
        <path id="Path_148" data-name="Path 148" d="M17.482,18.928A.455.455,0,0,1,17,18.446v-.964a.482.482,0,1,1,.964,0v.964A.455.455,0,0,1,17.482,18.928Z" transform="translate(-17 -17)" fill="#333"/>
      </g>
      <g id="Group_58" data-name="Group 58" transform="translate(1.928 7.713)">
        <path id="Path_149" data-name="Path 149" d="M5.482,18.928A.455.455,0,0,1,5,18.446v-.964A.455.455,0,0,1,5.482,17a.455.455,0,0,1,.482.482v.964A.455.455,0,0,1,5.482,18.928Z" transform="translate(-5 -17)" fill="#333"/>
      </g>
      <g id="Group_59" data-name="Group 59" transform="translate(3.857 7.713)">
        <path id="Path_150" data-name="Path 150" d="M9.482,18.928A.455.455,0,0,1,9,18.446v-.964a.482.482,0,1,1,.964,0v.964A.455.455,0,0,1,9.482,18.928Z" transform="translate(-9 -17)" fill="#333"/>
      </g>
      <g id="Group_60" data-name="Group 60" transform="translate(5.785 7.713)">
        <path id="Path_151" data-name="Path 151" d="M13.482,18.928A.455.455,0,0,1,13,18.446v-.964a.482.482,0,1,1,.964,0v.964A.455.455,0,0,1,13.482,18.928Z" transform="translate(-13 -17)" fill="#333"/>
      </g>
      <g id="Group_61" data-name="Group 61" transform="translate(7.713 4.821)">
        <path id="Path_152" data-name="Path 152" d="M17.482,12.928A.455.455,0,0,1,17,12.446v-.964a.482.482,0,1,1,.964,0v.964A.455.455,0,0,1,17.482,12.928Z" transform="translate(-17 -11)" fill="#333"/>
      </g>
      <g id="Group_62" data-name="Group 62" transform="translate(1.928 4.821)">
        <path id="Path_153" data-name="Path 153" d="M5.482,12.928A.455.455,0,0,1,5,12.446v-.964A.455.455,0,0,1,5.482,11a.455.455,0,0,1,.482.482v.964A.455.455,0,0,1,5.482,12.928Z" transform="translate(-5 -11)" fill="#333"/>
      </g>
      <g id="Group_63" data-name="Group 63" transform="translate(3.857 4.821)">
        <path id="Path_154" data-name="Path 154" d="M9.482,12.928A.455.455,0,0,1,9,12.446v-.964a.482.482,0,0,1,.964,0v.964A.455.455,0,0,1,9.482,12.928Z" transform="translate(-9 -11)" fill="#333"/>
      </g>
      <g id="Group_64" data-name="Group 64" transform="translate(5.785 4.821)">
        <path id="Path_155" data-name="Path 155" d="M13.482,12.928A.455.455,0,0,1,13,12.446v-.964a.482.482,0,0,1,.964,0v.964A.455.455,0,0,1,13.482,12.928Z" transform="translate(-13 -11)" fill="#333"/>
      </g>
      <g id="Group_65" data-name="Group 65" transform="translate(7.713 1.928)">
        <path id="Path_156" data-name="Path 156" d="M17.482,6.928A.455.455,0,0,1,17,6.446V5.482a.482.482,0,1,1,.964,0v.964A.455.455,0,0,1,17.482,6.928Z" transform="translate(-17 -5)" fill="#333"/>
      </g>
      <g id="Group_66" data-name="Group 66" transform="translate(1.928 1.928)">
        <path id="Path_157" data-name="Path 157" d="M5.482,6.928A.455.455,0,0,1,5,6.446V5.482A.455.455,0,0,1,5.482,5a.455.455,0,0,1,.482.482v.964A.455.455,0,0,1,5.482,6.928Z" transform="translate(-5 -5)" fill="#333"/>
      </g>
      <g id="Group_67" data-name="Group 67" transform="translate(3.857 1.928)">
        <path id="Path_158" data-name="Path 158" d="M9.482,6.928A.455.455,0,0,1,9,6.446V5.482a.482.482,0,1,1,.964,0v.964A.455.455,0,0,1,9.482,6.928Z" transform="translate(-9 -5)" fill="#333"/>
      </g>
      <g id="Group_68" data-name="Group 68" transform="translate(5.785 1.928)">
        <path id="Path_159" data-name="Path 159" d="M13.482,6.928A.455.455,0,0,1,13,6.446V5.482a.482.482,0,0,1,.964,0v.964A.455.455,0,0,1,13.482,6.928Z" transform="translate(-13 -5)" fill="#333"/>
      </g>
      <g id="Group_69" data-name="Group 69" transform="translate(11.57 3.857)">
        <path id="Path_160" data-name="Path 160" d="M26.928,11.41a.455.455,0,0,1-.482-.482.967.967,0,0,0-.964-.964.482.482,0,0,1,0-.964,1.934,1.934,0,0,1,1.928,1.928A.455.455,0,0,1,26.928,11.41Z" transform="translate(-25 -9)" fill="#333"/>
      </g>
      <g id="Group_70" data-name="Group 70" transform="translate(11.57 1.928)">
        <path id="Path_161" data-name="Path 161" d="M28.857,9.339a.455.455,0,0,1-.482-.482,2.9,2.9,0,0,0-2.892-2.892A.455.455,0,0,1,25,5.482.455.455,0,0,1,25.482,5a3.868,3.868,0,0,1,3.857,3.857A.455.455,0,0,1,28.857,9.339Z" transform="translate(-25 -5)" fill="#333"/>
      </g>
      <g id="Group_71" data-name="Group 71" transform="translate(11.57 0)">
        <path id="Path_162" data-name="Path 162" d="M30.785,7.267a.455.455,0,0,1-.482-.482,4.835,4.835,0,0,0-4.821-4.821A.455.455,0,0,1,25,1.482.455.455,0,0,1,25.482,1a5.8,5.8,0,0,1,5.785,5.785A.455.455,0,0,1,30.785,7.267Z" transform="translate(-25 -1)" fill="#333"/>
      </g>
      <g id="Group_72" data-name="Group 72" transform="translate(16.391 17.837)">
        <path id="Path_163" data-name="Path 163" d="M35.482,40.41A.455.455,0,0,1,35,39.928,1.934,1.934,0,0,1,36.928,38a.482.482,0,1,1,0,.964.967.967,0,0,0-.964.964A.455.455,0,0,1,35.482,40.41Z" transform="translate(-35 -38)" fill="#333"/>
      </g>
      <g id="Group_73" data-name="Group 73" transform="translate(14.462 15.909)">
        <path id="Path_164" data-name="Path 164" d="M31.482,38.339A.455.455,0,0,1,31,37.857,3.868,3.868,0,0,1,34.857,34a.482.482,0,1,1,0,.964,2.9,2.9,0,0,0-2.892,2.892A.455.455,0,0,1,31.482,38.339Z" transform="translate(-31 -34)" fill="#333"/>
      </g>
      <g id="Group_74" data-name="Group 74" transform="translate(12.534 13.98)">
        <path id="Path_165" data-name="Path 165" d="M27.482,36.267A.455.455,0,0,1,27,35.785,5.8,5.8,0,0,1,32.785,30a.482.482,0,1,1,0,.964,4.835,4.835,0,0,0-4.821,4.821A.455.455,0,0,1,27.482,36.267Z" transform="translate(-27 -30)" fill="#333"/>
      </g>
      <g id="Group_75" data-name="Group 75" transform="translate(16.389 17.355)">
        <path id="Path_166" data-name="Path 166" d="M46.086,49.534H43.193a.455.455,0,0,1-.482-.482V45.677H40.783v3.375a.455.455,0,0,1-.482.482H37.408a.455.455,0,0,1-.482-.482V44.231H35.48a.422.422,0,0,1-.434-.289.44.44,0,0,1,.1-.53l6.267-6.267a.466.466,0,0,1,.675,0l6.267,6.267a.44.44,0,0,1,.1.53.422.422,0,0,1-.434.289H46.568v4.821A.455.455,0,0,1,46.086,49.534Zm-2.41-.964H45.6V43.749a.455.455,0,0,1,.482-.482h.771l-5.11-5.11-5.11,5.11h.771a.455.455,0,0,1,.482.482V48.57h1.928V45.2a.455.455,0,0,1,.482-.482h2.892a.455.455,0,0,1,.482.482Z" transform="translate(-34.996 -37)" fill="#333"/>
      </g>
      <g id="Group_76" data-name="Group 76" transform="translate(17.355 7.713)">
        <path id="Path_167" data-name="Path 167" d="M37,17h1.446v.964H37Z" transform="translate(-37 -17)" fill="#333"/>
      </g>
      <g id="Group_77" data-name="Group 77" transform="translate(14.944 7.713)">
        <path id="Path_168" data-name="Path 168" d="M32,17h1.446v.964H32Z" transform="translate(-32 -17)" fill="#333"/>
      </g>
      <g id="Group_78" data-name="Group 78" transform="translate(19.765 7.713)">
        <path id="Path_169" data-name="Path 169" d="M42,17h1.446v.964H42Z" transform="translate(-42 -17)" fill="#333"/>
      </g>
      <g id="Group_79" data-name="Group 79" transform="translate(22.176 7.713)">
        <path id="Path_170" data-name="Path 170" d="M47,17h1.446v.964H47Z" transform="translate(-47 -17)" fill="#333"/>
      </g>
      <g id="Group_80" data-name="Group 80" transform="translate(24.586 7.713)">
        <path id="Path_171" data-name="Path 171" d="M55.375,25.2H54.41V18.928a.967.967,0,0,0-.964-.964H52V17h1.446a1.934,1.934,0,0,1,1.928,1.928Z" transform="translate(-52 -17)" fill="#333"/>
      </g>
      <g id="Group_81" data-name="Group 81" transform="translate(25.55 13.98)">
        <path id="Path_172" data-name="Path 172" d="M55.928,32.41a.438.438,0,0,1-.337-.145L54.145,30.82a.477.477,0,1,1,.675-.675l1.109,1.109,1.109-1.109a.477.477,0,1,1,.675.675l-1.446,1.446A.438.438,0,0,1,55.928,32.41Z" transform="translate(-54 -30)" fill="#333"/>
      </g>
      <g id="Group_82" data-name="Group 82" transform="translate(12.052 26.996)">
        <path id="Path_173" data-name="Path 173" d="M26,57h1.446v.964H26Z" transform="translate(-26 -57)" fill="#333"/>
      </g>
      <g id="Group_83" data-name="Group 83" transform="translate(14.462 26.996)">
        <path id="Path_174" data-name="Path 174" d="M31,57h1.446v.964H31Z" transform="translate(-31 -57)" fill="#333"/>
      </g>
      <g id="Group_84" data-name="Group 84" transform="translate(9.642 26.996)">
        <path id="Path_175" data-name="Path 175" d="M21,57h1.446v.964H21Z" transform="translate(-21 -57)" fill="#333"/>
      </g>
      <g id="Group_85" data-name="Group 85" transform="translate(7.231 26.996)">
        <path id="Path_176" data-name="Path 176" d="M16,57h1.446v.964H16Z" transform="translate(-16 -57)" fill="#333"/>
      </g>
      <g id="Group_86" data-name="Group 86" transform="translate(2.892 19.765)">
        <path id="Path_177" data-name="Path 177" d="M10.375,50.2H8.928A1.934,1.934,0,0,1,7,48.267V42h.964v6.267a.967.967,0,0,0,.964.964h1.446Z" transform="translate(-7 -42)" fill="#333"/>
      </g>
      <g id="Group_87" data-name="Group 87" transform="translate(1.446 19.283)">
        <path id="Path_178" data-name="Path 178" d="M7.375,43.41a.438.438,0,0,1-.337-.145L5.928,42.157,4.82,43.266a.477.477,0,0,1-.675-.675l1.446-1.446a.466.466,0,0,1,.675,0l1.446,1.446a.466.466,0,0,1,0,.675A.438.438,0,0,1,7.375,43.41Z" transform="translate(-4 -41)" fill="#333"/>
      </g>
    </g>
  </g>
</svg>
