<svg xmlns="http://www.w3.org/2000/svg" width="36.939" height="27" viewBox="0 0 36.939 27">
  <g id="Hotel_Travel_Tourism" data-name="Hotel, Travel &amp; Tourism" transform="translate(-116.061 -381.119)">
    <rect id="Rectangle_3478" data-name="Rectangle 3478" width="27" height="27" rx="13.5" transform="translate(126 381.119)" fill="#fdd8d8"/>
    <g id="OUTLINE" transform="translate(116.061 381.119)">
      <path id="Path_179" data-name="Path 179" d="M217.471,17.1a15.623,15.623,0,0,1,1.592.081l.113-1.093a16.683,16.683,0,0,0-4.546.157l.188,1.083a15.537,15.537,0,0,1,2.653-.228Z" transform="translate(-202.245 -16)" fill="#333"/>
      <path id="Path_180" data-name="Path 180" d="M23.465,62.434l-.645-.89A16.5,16.5,0,0,0,17.7,82.211l.985-.488a15.4,15.4,0,0,1,4.776-19.289Z" transform="translate(-15.999 -58.416)" fill="#333"/>
      <path id="Path_181" data-name="Path 181" d="M263.729,469.751l.037,1.1a16.454,16.454,0,0,0,4.548-.8L267.974,469A15.355,15.355,0,0,1,263.729,469.751Z" transform="translate(-248.285 -444.282)" fill="#333"/>
      <path id="Path_182" data-name="Path 182" d="M112,248h1.1v12.638H112Z" transform="translate(-105.948 -238.457)" fill="#333"/>
      <path id="Path_183" data-name="Path 183" d="M160,248h1.1v12.638H160Z" transform="translate(-150.923 -238.457)" fill="#333"/>
      <path id="Path_184" data-name="Path 184" d="M208,248h1.1v12.638H208Z" transform="translate(-195.897 -238.457)" fill="#333"/>
      <path id="Path_185" data-name="Path 185" d="M90.767,29.716l-9.029-3.84a1.6,1.6,0,0,0-2.006.622l-2.708,4.978v-4.4a2.376,2.376,0,0,0-2.5-2.215h-2V17.772a2.019,2.019,0,0,0-4.008,0v7.087h-2A2.376,2.376,0,0,0,64,27.074V38.591a2.251,2.251,0,0,0,1.651,2.082,1.226,1.226,0,0,0,.376,1.585,1.66,1.66,0,0,0,1.828.087,1.249,1.249,0,0,0,.567-1.54H72.6a1.249,1.249,0,0,0,.567,1.539A1.66,1.66,0,0,0,75,42.257a1.226,1.226,0,0,0,.376-1.584,2.337,2.337,0,0,0,1.588-1.591l7.074,3.009a.561.561,0,0,0,.383.019.485.485,0,0,0,.286-.226L91,30.307A.422.422,0,0,0,90.767,29.716Zm-9.679-3.086a.553.553,0,0,1,.216.044l8.577,3.648-.434.8L80.87,27.473a.422.422,0,0,1-.235-.591h0A.511.511,0,0,1,81.088,26.631ZM69.51,17.772a1.009,1.009,0,0,1,2,0v7.087h-2Zm-2,23.477a.5.5,0,1,1-.5-.443.475.475,0,0,1,.5.443Zm6.512.443a.446.446,0,1,1,.5-.443A.475.475,0,0,1,74.019,41.692Zm.5-1.772H66.5A1.426,1.426,0,0,1,65,38.591V27.074a1.426,1.426,0,0,1,1.5-1.329h2V27.96h1V25.745h2V27.96h1V25.745h2a1.426,1.426,0,0,1,1.5,1.329v6.244L74.3,36.477a1.265,1.265,0,0,0,.7,1.774l1.012.43a1.44,1.44,0,0,1-1.5,1.239Zm9.5,1.181-8.577-3.648a.422.422,0,0,1-.234-.591l4.815-8.851a1.507,1.507,0,0,0,.414.261l8.577,3.648Z" transform="translate(-60.703 -16)" fill="#333"/>
      <path id="Path_188" data-name="Path 188" d="M226,109.208a1.717,1.717,0,0,0-2.426,0,.617.617,0,0,1-.871,0l-.137-.137a3.857,3.857,0,0,0-5.448,0,1.577,1.577,0,0,1-1.123.465v1.1a2.669,2.669,0,0,0,1.9-.787,2.756,2.756,0,0,1,3.894,0l.137.137a1.717,1.717,0,0,0,2.426,0,.617.617,0,0,1,.871,0L226.24,111a11.082,11.082,0,0,0,7.405,3.258,15.354,15.354,0,0,1,.452,2.8l1.1-.075a16.331,16.331,0,0,0-1.707-6.254l-.982.493a15.327,15.327,0,0,1,.8,1.918,9.988,9.988,0,0,1-6.292-2.914Z" transform="translate(-204.884 -103.32)" fill="#333"/>
      <path id="Path_189" data-name="Path 189" d="M288.263,18.667l9.153,5.593a1.644,1.644,0,0,0,2.025-.241l2.136-2.136a.549.549,0,0,0,0-.777l-1.1-1.1a.55.55,0,0,0-.693-.069l-1.344.9-2.509-1.673,1.3-1.733a.549.549,0,0,0-.051-.718l-.549-.549a.55.55,0,0,0-.634-.1l-3.027,1.514-1.017-.61a2.744,2.744,0,0,0-3.356.413l-.435.435a.55.55,0,0,0,.1.857Zm3.124-.763,1.276.766a.55.55,0,0,0,.528.02l2.754-1.377L294.7,18.967a.549.549,0,0,0,.135.787l3.3,2.2a.55.55,0,0,0,.61,0l1.274-.849.392.392-1.747,1.747a.548.548,0,0,1-.675.08l-8.555-5.228A1.646,1.646,0,0,1,291.387,17.9Z" transform="translate(-271.939 -16)" fill="#333"/>
    </g>
  </g>
</svg>
