<svg xmlns="http://www.w3.org/2000/svg" width="35" height="30.341" viewBox="0 0 35 30.341">
  <g id="Retail" transform="translate(-112.917 -385.918)">
    <rect id="Rectangle_3479" data-name="Rectangle 3479" width="34" height="25.259" rx="12.63" transform="translate(113.917 385.918)" fill="#fdd8d8"/>
    <g id="_010-shopping-cart" data-name="010-shopping-cart" transform="translate(112.917 385.918)">
      <path id="Path_190" data-name="Path 190" d="M137.862,437a2.862,2.862,0,1,0,2.862,2.862A2.866,2.866,0,0,0,137.862,437Zm0,4.58a1.717,1.717,0,1,1,1.717-1.717A1.719,1.719,0,0,1,137.862,441.58Z" transform="translate(-127.81 -412.383)" fill="#333"/>
      <circle id="Ellipse_91" data-name="Ellipse 91" cx="0.5" cy="0.5" r="0.5" transform="translate(8.884 27.341)" fill="#333"/>
      <circle id="Ellipse_92" data-name="Ellipse 92" cx="0.5" cy="0.5" r="0.5" transform="translate(23 27.341)" fill="#333"/>
      <path id="Path_191" data-name="Path 191" d="M394.862,437a2.862,2.862,0,1,0,2.862,2.862A2.866,2.866,0,0,0,394.862,437Zm0,4.58a1.717,1.717,0,1,1,1.717-1.717A1.719,1.719,0,0,1,394.862,441.58Z" transform="translate(-372.16 -412.383)" fill="#333"/>
      <path id="Path_192" data-name="Path 192" d="M7.015,20.187l3.092-1.722h6.942A2.119,2.119,0,0,0,19.13,16.8h4.424a2.963,2.963,0,0,0,2.881-2.2l2.551-9.8a.411.411,0,0,0-.076-.359.428.428,0,0,0-.335-.161H7.718L7.5,3.451A4.655,4.655,0,0,0,2.974,0h-1.7A1.265,1.265,0,0,0,0,1.251,1.265,1.265,0,0,0,1.274,2.5h1.7A2.115,2.115,0,0,1,5.032,4.071L8.294,16.6,5.758,18.01a2.918,2.918,0,0,0-1.51,2.542,2.951,2.951,0,0,0,2.974,2.92h18.8a1.252,1.252,0,1,0,0-2.5H7.222a.416.416,0,0,1-.207-.781ZM22.76,12.069H20.15l.159-3.059h2.929ZM24.1,9.01h2.916l-.8,3.059h-2.6ZM22.63,12.9l-.478,3.059h-2.2l.159-3.059ZM19.3,12.069H16.684L16.525,9.01h2.934Zm1.053-3.893.159-3.059h3.335l-.478,3.059Zm-.851,0h-3.02l-.159-3.059h3.339Zm-3.871,0H13.949a.417.417,0,1,0,0,.834h1.725l.159,3.059h-2.61L12.136,5.117h3.335Zm-3.267,3.893H9.746l-.8-3.059h2.936Zm.13.834.478,3.059H10.76l-.8-3.059Zm1.338,3.059L13.353,12.9h2.524l.159,3.059Zm3.056,0L16.728,12.9h2.528L19.1,15.963Zm8.725-1.569a2.116,2.116,0,0,1-2.058,1.569h-.543l.478-3.059H26Zm1.619-6.218h-3l.478-3.059h3.322ZM11.277,5.117l.478,3.059H8.732l-.8-3.059Zm-8.3-3.448h-1.7a.417.417,0,1,1,0-.834h1.7a3.863,3.863,0,0,1,2.387.821l-.606.595a3.006,3.006,0,0,0-1.781-.581ZM7.222,21.8h18.8a.417.417,0,1,1,0,.834H7.222A2.107,2.107,0,0,1,5.1,20.551a2.085,2.085,0,0,1,1.079-1.816L9,17.166a.414.414,0,0,0,.2-.466L5.855,3.864a2.887,2.887,0,0,0-.5-1.025l.606-.595a3.716,3.716,0,0,1,.717,1.413l3.341,12.826a.423.423,0,0,0,.412.314h7.82a1.275,1.275,0,0,1-1.2.834H9.995a.43.43,0,0,0-.21.054L6.6,19.462a1.251,1.251,0,0,0-.649,1.09A1.265,1.265,0,0,0,7.222,21.8Z" transform="translate(0 0)" fill="#333"/>
    </g>
  </g>
</svg>
