<svg xmlns="http://www.w3.org/2000/svg" width="34.379" height="28.86" viewBox="0 0 34.379 28.86">
  <g id="Sports_Fitness_Entertainment" data-name="Sports, Fitness &amp; Entertainment" transform="translate(-127.498 -384.727)">
    <rect id="Rectangle_3480" data-name="Rectangle 3480" width="28.86" height="28.86" rx="14.43" transform="translate(133.017 384.727)" fill="#fdd8d8"/>
    <g id="_011-fitness" data-name="011-fitness" transform="translate(127.498 384.727)">
      <path id="Path_193" data-name="Path 193" d="M27.9,37.291h-.962v-.962A1.443,1.443,0,0,0,25.5,34.886h-.962a1.427,1.427,0,0,0-.481.089V33.443A1.443,1.443,0,0,0,22.609,32h-.962A1.443,1.443,0,0,0,20.2,33.443v3.848H8.659V33.443A1.443,1.443,0,0,0,7.216,32H6.253A1.443,1.443,0,0,0,4.81,33.443v1.532a1.427,1.427,0,0,0-.481-.089H3.367a1.443,1.443,0,0,0-1.443,1.443v.962H.962A.962.962,0,0,0,0,38.253v.962a.962.962,0,0,0,.962.962h.962v.962a1.443,1.443,0,0,0,1.443,1.443h.962a1.427,1.427,0,0,0,.481-.089v1.532a1.443,1.443,0,0,0,1.443,1.443h.962a1.443,1.443,0,0,0,1.443-1.443V40.178H20.2v3.848a1.443,1.443,0,0,0,1.443,1.443h.962a1.443,1.443,0,0,0,1.443-1.443V42.494a1.427,1.427,0,0,0,.481.089H25.5a1.443,1.443,0,0,0,1.443-1.443v-.962H27.9a.962.962,0,0,0,.962-.962v-.962A.962.962,0,0,0,27.9,37.291Zm-3.367-1.443H25.5a.481.481,0,0,1,.481.481V37.3a2.38,2.38,0,0,0-1.443-.494h-.481v-.481A.481.481,0,0,1,24.533,35.848Zm-2.886-2.886h.962a.481.481,0,0,1,.481.481v.975a2.38,2.38,0,0,0-1.443-.494h-.481v-.481A.481.481,0,0,1,21.647,32.962Zm-15.393,0h.962a.481.481,0,0,1,.481.481v.975a2.38,2.38,0,0,0-1.443-.494H5.772v-.481A.481.481,0,0,1,6.253,32.962ZM3.367,35.848h.962a.481.481,0,0,1,.481.481V37.3a2.38,2.38,0,0,0-1.443-.494H2.886v-.481A.481.481,0,0,1,3.367,35.848ZM.962,39.216v-.962h.962v.962Zm3.367,2.405H3.367a.481.481,0,0,1-.481-.481V37.772h.481A1.443,1.443,0,0,1,4.81,39.216V41.14A.481.481,0,0,1,4.329,41.621ZM7.7,44.026a.481.481,0,0,1-.481.481H6.253a.481.481,0,0,1-.481-.481v-9.14h.481A1.443,1.443,0,0,1,7.7,36.329Zm.962-4.81v-.962H20.2v.962Zm14.431,4.81a.481.481,0,0,1-.481.481h-.962a.481.481,0,0,1-.481-.481v-9.14h.481a1.443,1.443,0,0,1,1.443,1.443Zm2.886-2.886a.481.481,0,0,1-.481.481h-.962a.481.481,0,0,1-.481-.481V37.772h.481a1.443,1.443,0,0,1,1.443,1.443ZM27.9,39.216h-.962v-.962H27.9Z" transform="translate(0 -16.609)" fill="#333"/>
      <path id="Path_194" data-name="Path 194" d="M16.66,18.875a1.236,1.236,0,0,0,.885.369h0a1.236,1.236,0,0,0,.886-.37l9-9.1a5.763,5.763,0,0,0,0-8.1,5.608,5.608,0,0,0-4-1.677h0a5.619,5.619,0,0,0-4.014,1.677l-1.86,1.88L15.686,1.686a5.632,5.632,0,0,0-8.025,0,5.763,5.763,0,0,0,0,8.095ZM8.346,2.36A4.669,4.669,0,0,1,15,2.36l1.93,1.95a.883.883,0,0,0,1.226,0l1.929-1.95A4.663,4.663,0,0,1,23.42.968h0a4.654,4.654,0,0,1,3.324,1.4,4.8,4.8,0,0,1,0,6.741l-9,9.095a.281.281,0,0,1-.2.084h0a.281.281,0,0,1-.2-.084l-9-9.1a4.8,4.8,0,0,1,0-6.74Z" transform="translate(-3.114 -0.005)" fill="#333"/>
      <path id="Path_195" data-name="Path 195" d="M19.481,17.826h2.242a.722.722,0,0,0,.671-.454l.44-1.1.751,2a.722.722,0,0,0,.676.469h.031a.722.722,0,0,0,.666-.523l.421-1.476.343.685a.717.717,0,0,0,.643.4H29.1a.481.481,0,0,0,0-.962H26.512l-.552-1.106a.722.722,0,0,0-1.34.124l-.391,1.37-.713-1.9a.717.717,0,0,0-.669-.469H22.84a.717.717,0,0,0-.67.454l-.609,1.526h-2.08a.481.481,0,0,0,0,.962Z" transform="translate(-9.86 -7.727)" fill="#333"/>
    </g>
  </g>
</svg>
