<?xml version="1.0" encoding="utf-8"?>
<!-- Generator: Adobe Illustrator 27.8.0, SVG Export Plug-In . SVG Version: 6.00 Build 0)  -->
<svg version="1.1" id="Layer_1" xmlns="http://www.w3.org/2000/svg" xmlns:xlink="http://www.w3.org/1999/xlink" x="0px" y="0px"
	 viewBox="0 0 25 25" style="enable-background:new 0 0 25 25;" xml:space="preserve">
<style type="text/css">
	.st0{fill:url(#SVGID_1_);}
	.st1{fill:#FFFFFF;}
</style>
<linearGradient id="SVGID_1_" gradientUnits="userSpaceOnUse" x1="-422.4756" y1="494.7457" x2="-421.9625" y2="495.2973" gradientTransform="matrix(0 -42.2827 39.3387 0 -19461.0059 -17840.0352)">
	<stop  offset="0" style="stop-color:#FFDD55"/>
	<stop  offset="0.5" style="stop-color:#FF543E"/>
	<stop  offset="1" style="stop-color:#C837AB"/>
</linearGradient>
<path class="st0" d="M1.6,1.7c-2,2-1.6,4.2-1.6,10.8c0,5.5-0.9,10.9,4,12.2c1.6,0.4,15.3,0.4,16.9,0c2.1-0.5,3.8-2.2,4-5.1
	c0-0.4,0-13.7,0-14.1c-0.2-3.1-2.2-4.9-4.7-5.3C19.6,0.1,19.5,0,16.5,0C6,0,3.7-0.4,1.6,1.7L1.6,1.7z"/>
<path class="st1" d="M12.4,3.1C8.6,3.1,5,2.7,3.6,6.3C3,7.7,3.1,9.7,3.1,12.4c0,2.4-0.1,4.6,0.5,6.1c1.4,3.5,5,3.2,8.8,3.2
	c3.6,0,7.4,0.4,8.8-3.2c0.6-1.5,0.5-3.4,0.5-6.1c0-3.6,0.2-6-1.6-7.7C18.3,2.9,15.9,3.1,12.4,3.1L12.4,3.1z M11.5,4.8
	c7.9,0,8.9-0.9,8.4,11.4c-0.2,4.3-3.5,3.9-7.5,3.9c-7.4,0-7.6-0.2-7.6-7.6C4.8,4.9,5.4,4.8,11.5,4.8L11.5,4.8z M17.3,6.3
	c-0.6,0-1.1,0.5-1.1,1.1s0.5,1.1,1.1,1.1c0.6,0,1.1-0.5,1.1-1.1S17.9,6.3,17.3,6.3z M12.4,7.6c-2.6,0-4.8,2.1-4.8,4.8
	s2.1,4.8,4.8,4.8s4.8-2.1,4.8-4.8S15,7.6,12.4,7.6L12.4,7.6z M12.4,9.3c4.1,0,4.1,6.2,0,6.2C8.3,15.5,8.3,9.3,12.4,9.3z"/>
</svg>
