<svg xmlns="http://www.w3.org/2000/svg" width="25" height="25" viewBox="0 0 25 25">
  <g id="linkedin" transform="translate(-844 -523)">
    <rect id="Rectangle_3520" data-name="Rectangle 3520" width="25" height="25" transform="translate(844 523)" fill="#0b63bd"/>
    <g id="_x31_0.Linkedin" transform="translate(841 520)">
      <path id="Path_105" data-name="Path 105" d="M45.246,42.649V38.713c0-1.935-.416-3.413-2.674-3.413a2.333,2.333,0,0,0-2.109,1.155h-.027v-.981H38.3v7.174h2.23v-3.56c0-.94.175-1.841,1.33-1.841s1.155,1.061,1.155,1.894v3.493h2.23Z" transform="translate(-24.498 -21.901)" fill="#fff"/>
      <path id="Path_106" data-name="Path 106" d="M11.3,36.6h2.23v7.174H11.3Z" transform="translate(-1.125 -23.026)" fill="#fff"/>
      <path id="Path_107" data-name="Path 107" d="M11.29,10a1.3,1.3,0,1,0,1.29,1.29A1.29,1.29,0,0,0,11.29,10Z" fill="#fff"/>
    </g>
  </g>
</svg>
