<svg xmlns="http://www.w3.org/2000/svg" width="30" height="30" viewBox="0 0 30 30"><defs><style>.a{fill:#0b63bd;}.b{fill:#fff;}</style></defs><g transform="translate(-844 -523)"><rect class="a" width="30" height="30" transform="translate(844 523)"/><g transform="translate(841 520)"><path class="b" d="M47.671,45.214V39.9c0-2.61-.562-4.6-3.607-4.6a3.147,3.147,0,0,0-2.846,1.559h-.036V35.536H38.3v9.679h3.009v-4.8c0-1.269.236-2.483,1.794-2.483,1.541,0,1.559,1.432,1.559,2.556V45.2h3.009Z" transform="translate(-23.171 -20.714)"/><path class="b" d="M11.3,36.6h3.009v9.679H11.3Z" transform="translate(-1.064 -21.779)"/><path class="b" d="M11.74,10a1.749,1.749,0,1,0,1.74,1.74A1.74,1.74,0,0,0,11.74,10Z"/></g></g></svg>