<svg xmlns="http://www.w3.org/2000/svg" width="25" height="25" viewBox="0 0 25 25">
  <g id="mail" transform="translate(-844 -523)">
    <rect id="Rectangle_3520" data-name="Rectangle 3520" width="25" height="25" transform="translate(844 523)" fill="#e81616"/>
    <g id="email" transform="translate(851 452)">
      <g id="Group_33" data-name="Group 33" transform="translate(7.521 81.438)">
        <g id="Group_32" data-name="Group 32">
          <path id="Path_109" data-name="Path 109" d="M339.392,147.416l3.825,2.418V144.9Z" transform="translate(-339.392 -144.896)" fill="#fff"/>
        </g>
      </g>
      <g id="Group_35" data-name="Group 35" transform="translate(0 81.438)">
        <g id="Group_34" data-name="Group 34">
          <path id="Path_110" data-name="Path 110" d="M0,144.9v4.938l3.825-2.418Z" transform="translate(0 -144.896)" fill="#fff"/>
        </g>
      </g>
      <g id="Group_37" data-name="Group 37" transform="translate(0.021 80)">
        <g id="Group_36" data-name="Group 36" transform="translate(0 0)">
          <path id="Path_111" data-name="Path 111" d="M11.575,80H1.648a.7.7,0,0,0-.688.6l5.652,3.723L12.263,80.6A.7.7,0,0,0,11.575,80Z" transform="translate(-0.96 -80)" fill="#fff"/>
        </g>
      </g>
      <g id="Group_39" data-name="Group 39" transform="translate(0.023 84.386)">
        <g id="Group_38" data-name="Group 38" transform="translate(0 0)">
          <path id="Path_112" data-name="Path 112" d="M7.872,277.921l-1,.661a.356.356,0,0,1-.39,0l-1-.662-4.452,2.816a.7.7,0,0,0,.686.6h9.927a.7.7,0,0,0,.686-.6Z" transform="translate(-1.024 -277.92)" fill="#fff"/>
        </g>
      </g>
    </g>
  </g>
</svg>
