<svg xmlns="http://www.w3.org/2000/svg" width="30" height="30" viewBox="0 0 30 30"><defs><style>.a{fill:#fff;stroke:#e3e0e0;}.b{fill:#787878;}.c{stroke:none;}.d{fill:none;}</style></defs><g transform="translate(-59.891 4.805)"><g class="a" transform="translate(59.891 -4.805)"><rect class="c" width="30" height="30" rx="2"/><rect class="d" x="0.5" y="0.5" width="29" height="29" rx="1.5"/></g><path class="b" d="M79.906,172.228H78.469v.958h.958v8.621H69.849v-8.621h.958v-.958H69.37a.479.479,0,0,0-.479.479v9.578a.479.479,0,0,0,.479.479H79.906a.479.479,0,0,0,.479-.479v-9.578a.479.479,0,0,0-.479-.479Z" transform="translate(0 -167.439)"/><path class="b" d="M162.784,1.833V8.62h.958V1.833L165.8,3.889l.677-.677L163.263,0l-3.212,3.212.677.677Z" transform="translate(-88.625 0)"/></g></svg>