<svg xmlns="http://www.w3.org/2000/svg" width="33" height="33" viewBox="0 0 33 33"><defs><style>.a{fill:#55acee;}.b{fill:#fff;}</style></defs><g transform="translate(0.354 0.17)"><rect class="a" width="33" height="33" rx="4" transform="translate(-0.354 -0.17)"/><path class="b" d="M20.284,49.951a8.67,8.67,0,0,1-2.4.657,4.135,4.135,0,0,0,1.829-2.3,8.311,8.311,0,0,1-2.637,1.007A4.158,4.158,0,0,0,9.887,52.16a4.282,4.282,0,0,0,.1.948,11.771,11.771,0,0,1-8.571-4.35A4.16,4.16,0,0,0,2.69,54.316,4.107,4.107,0,0,1,.811,53.8v.046a4.178,4.178,0,0,0,3.332,4.086,4.151,4.151,0,0,1-1.09.137A3.677,3.677,0,0,1,2.265,58a4.2,4.2,0,0,0,3.886,2.9A8.356,8.356,0,0,1,1,62.672a7.788,7.788,0,0,1-1-.057,11.707,11.707,0,0,0,6.379,1.866A11.754,11.754,0,0,0,18.215,52.648c0-.184-.006-.361-.015-.538A8.3,8.3,0,0,0,20.284,49.951Z" transform="translate(6.183 -40.483)"/></g></svg>