<svg xmlns="http://www.w3.org/2000/svg" width="30" height="30" viewBox="0 0 30 30"><defs><style>.a{fill:#00a611;}.b{fill:#fff;}</style></defs><g transform="translate(-844 -523)"><rect class="a" width="30" height="30" transform="translate(844 523)"/><path class="b" d="M19.117,10a9.124,9.124,0,0,0-7.385,14.473l-1.254,3.3L14.1,26.729a9.02,9.02,0,0,0,5.014,1.5,9.117,9.117,0,0,0,0-18.233Zm4.855,12.9-.98.957c-1.026,1.026-3.738-.091-6.131-2.507-2.393-2.393-3.464-5.105-2.507-6.108l.98-.98a.991.991,0,0,1,1.368,0L18.137,15.7a.949.949,0,0,1-.365,1.573.922.922,0,0,0-.615,1.117,4.377,4.377,0,0,0,2.667,2.644.952.952,0,0,0,1.117-.615.949.949,0,0,1,1.573-.365l1.436,1.436A1.074,1.074,0,0,1,23.971,22.9Z" transform="translate(840 519)"/></g></svg>