<?xml version="1.0" encoding="UTF-8"?>
<svg xmlns="http://www.w3.org/2000/svg" xmlns:xlink="http://www.w3.org/1999/xlink" width="25px" height="25px" viewBox="0 0 25 25" version="1.1">
<g id="surface1">
<path style=" stroke:none;fill-rule:nonzero;fill:rgb(92.941176%,16.470588%,18.431373%);fill-opacity:1;" d="M 3.03125 0 L 21.96875 0 C 23.644531 0 25 1.355469 25 3.03125 L 25 21.96875 C 25 23.644531 23.644531 25 21.96875 25 L 3.03125 25 C 1.355469 25 0 23.644531 0 21.96875 L 0 3.03125 C 0 1.355469 1.355469 0 3.03125 0 Z M 3.03125 0 "/>
<path style=" stroke:none;fill-rule:nonzero;fill:rgb(100%,99.215686%,99.215686%);fill-opacity:1;" d="M 20.007812 8.726562 C 19.828125 8.066406 19.3125 7.550781 18.652344 7.371094 C 17.449219 7.042969 12.640625 7.042969 12.640625 7.042969 C 12.640625 7.042969 7.832031 7.042969 6.628906 7.359375 C 5.96875 7.546875 5.457031 8.066406 5.273438 8.722656 C 5.054688 9.945312 4.949219 11.183594 4.957031 12.421875 C 4.949219 13.664062 5.054688 14.898438 5.273438 16.121094 C 5.453125 16.78125 5.96875 17.296875 6.628906 17.472656 C 7.839844 17.804688 12.640625 17.804688 12.640625 17.804688 C 12.640625 17.804688 17.449219 17.804688 18.652344 17.488281 C 19.3125 17.308594 19.828125 16.792969 20.007812 16.136719 C 20.226562 14.914062 20.332031 13.679688 20.324219 12.4375 C 20.339844 11.195312 20.230469 9.953125 20.007812 8.726562 Z M 20.007812 8.726562 "/>
<path style=" stroke:none;fill-rule:nonzero;fill:rgb(92.941176%,16.470588%,18.431373%);fill-opacity:1;" d="M 11.109375 14.726562 L 15.109375 12.421875 L 11.109375 10.121094 Z M 11.109375 14.726562 "/>
</g>
</svg>
