<svg xmlns="http://www.w3.org/2000/svg" width="20.284" height="14.202" viewBox="0 0 20.284 14.202"><defs><style>.a{fill:#fffdfd;}.b{fill:#ed2a2f;}</style></defs><path class="a" d="M19.866,2.222A2.541,2.541,0,0,0,18.079.434C16.491,0,10.142,0,10.142,0S3.793,0,2.205.418a2.593,2.593,0,0,0-1.788,1.8A26.779,26.779,0,0,0,0,7.1,26.681,26.681,0,0,0,.418,11.98a2.542,2.542,0,0,0,1.788,1.788c1.6.434,7.937.434,7.937.434s6.349,0,7.937-.418A2.541,2.541,0,0,0,19.867,12a26.78,26.78,0,0,0,.418-4.879A25.418,25.418,0,0,0,19.866,2.222Zm0,0" transform="translate(0 0)"/><path class="b" d="M204.969,108.566l5.28-3.041-5.28-3.041Zm0,0" transform="translate(-196.848 -98.424)"/></svg>