<?xml version="1.0" encoding="UTF-8"?>
<svg id="Layer_1" xmlns="http://www.w3.org/2000/svg" version="1.1" viewBox="0 0 248.63 52.47">
  <!-- Generator: Adobe Illustrator 29.4.0, SVG Export Plug-In . SVG Version: 2.1.0 Build 152)  -->
  <defs>
    <style>
      .st0 {
        fill: #fe4101;
      }

      .st1 {
        fill: #00a611;
      }

      .st2, .st3 {
        fill: #fff;
      }

      .st4, .st3 {
        isolation: isolate;
      }

      .st5 {
        fill: #444;
      }

      .st6 {
        fill: #ffa300;
      }

      .st7 {
        fill: #4832c3;
      }

      .st8 {
        fill: #ec7d23;
      }

      .st3 {
        font-family: FranklinGothic-Book, 'Franklin Gothic Book';
        font-size: 11px;
        letter-spacing: .05em;
      }
    </style>
  </defs>
  <g>
    <path class="st2" d="M-1298.59-239.55h.13c1.03.05,1.79.08,2.27.08.55,0,1.2,0,1.95-.04s1.22-.04,1.41-.04c2.04,0,3.53.32,4.47.95.93.63,1.4,1.64,1.4,3.01,0,1.46-.45,2.54-1.34,3.25s-2.25,1.06-4.06,1.06c-.22,0-.48,0-.78-.02s-.68-.04-1.14-.08v4.04c-.01.77.1,1.25.3,1.44.21.19.71.29,1.5.29h.24v.8c-.9-.04-1.6-.07-2.09-.08s-.89-.02-1.19-.02c-.27,0-.63,0-1.08.02-.45,0-1.11.04-2.01.08v-.8c.74,0,1.21-.1,1.41-.29.2-.2.29-.67.29-1.43v-9.67c0-.76-.1-1.23-.29-1.42-.2-.19-.67-.29-1.41-.3v-.81l.02-.02ZM-1294.3-232.19s.12,0,.21,0c.54.02.91.03,1.1.03,1.12,0,1.95-.27,2.49-.8s.81-1.36.81-2.46c0-1.19-.27-2.05-.81-2.57s-1.43-.78-2.68-.78c-.05,0-.21,0-.48.02-.26,0-.48.02-.66.03v6.52h.02Z"/>
    <path class="st2" d="M-1281.86-234.88c1.5,0,2.68.46,3.55,1.38.86.92,1.29,2.17,1.29,3.75,0,1.48-.46,2.7-1.38,3.67-.92.96-2.07,1.44-3.46,1.44-1.48,0-2.66-.45-3.53-1.35-.87-.9-1.31-2.12-1.31-3.65s.46-2.8,1.37-3.78c.91-.97,2.07-1.46,3.47-1.46ZM-1281.84-234.16c-.77,0-1.36.38-1.78,1.15-.42.76-.63,1.85-.63,3.26s.2,2.51.61,3.28c.4.76.98,1.14,1.74,1.14s1.37-.38,1.78-1.14.62-1.85.62-3.28-.2-2.5-.61-3.27c-.4-.76-.98-1.14-1.74-1.14h.01Z"/>
    <path class="st2" d="M-1276.26-234.67c.42.03.83.05,1.22.06s.77.02,1.14.02.74,0,1.14-.02c.4,0,.8-.03,1.22-.06v.69c-.48.03-.79.08-.93.17-.14.08-.21.24-.21.48,0,.09,0,.17.01.24s.03.15.06.24l1.78,5.61,2.21-6.05c-.03-.24-.13-.41-.29-.52-.16-.1-.42-.16-.78-.16v-.7c.4.03.78.05,1.15.06.36,0,.71.02,1.04.02s.67,0,1.04-.02.75-.03,1.15-.06v.69c-.38.03-.64.08-.77.17s-.2.24-.2.45c0,.06,0,.13.02.21s.05.18.09.29l1.64,5.67,1.9-5.66c.04-.13.07-.24.09-.34.02-.09.03-.16.03-.21,0-.19-.05-.33-.16-.39-.11-.07-.4-.13-.88-.19v-.69c.25.03.5.05.75.06.24,0,.48.02.71.02.26,0,.52,0,.79-.02s.54-.03.81-.06v.7c-.35,0-.61.07-.79.2-.18.13-.35.42-.51.86l-1.78,4.97c-.1.28-.3.81-.6,1.58-.3.77-.52,1.34-.66,1.72l-1.09-.12-2.29-7.57-1.89,4.98c-.06.16-.21.54-.45,1.15s-.44,1.13-.61,1.57l-1.11-.12-2.74-8.28c-.12-.38-.26-.63-.42-.75s-.39-.18-.7-.18h-.14v-.7h0Z"/>
    <path class="st2" d="M-1257.34-230.08c0,1.42.28,2.49.82,3.23s1.33,1.1,2.35,1.1c.73,0,1.36-.18,1.89-.54s.93-.88,1.21-1.57l.58.18c-.3,1-.82,1.76-1.57,2.27-.75.51-1.71.77-2.88.77-1.52,0-2.7-.45-3.57-1.35-.86-.9-1.29-2.14-1.29-3.73s.45-2.8,1.35-3.74,2.08-1.42,3.55-1.42c1.37,0,2.45.41,3.24,1.22s1.18,1.93,1.18,3.36v.15l-6.85.08h-.01ZM-1257.35-230.78l4.77-.12c0-1.06-.2-1.87-.59-2.43s-.96-.84-1.7-.84-1.31.3-1.76.9c-.44.6-.69,1.43-.73,2.48h0Z"/>
    <path class="st2" d="M-1247.65-232.66c0-.52-.09-.85-.26-.98s-.64-.2-1.4-.21v-.72c.65-.02,1.3-.06,1.94-.1.64-.05,1.27-.12,1.89-.21v2.63c.32-.84.72-1.49,1.2-1.95.48-.46.99-.69,1.55-.69s.98.15,1.3.46.48.71.48,1.22c0,.37-.1.67-.29.9-.19.22-.45.34-.77.34-.36,0-.64-.1-.83-.3s-.28-.49-.28-.88c0-.17.02-.33.06-.5.04-.16.11-.33.19-.5h-.02c-.65,0-1.23.45-1.72,1.34s-.74,1.97-.74,3.22v2.66c0,.59.11.97.33,1.13s.86.25,1.9.28v.69c-.82-.03-1.5-.06-2.04-.07-.54-.02-1-.03-1.39-.03-.18,0-.45,0-.8.02s-1,.04-1.94.08v-.69c.77-.07,1.24-.17,1.4-.3s.24-.5.24-1.1v-5.74h0Z"/>
    <path class="st2" d="M-1237.37-230.08c0,1.42.28,2.49.82,3.23s1.33,1.1,2.35,1.1c.73,0,1.36-.18,1.89-.54s.93-.88,1.21-1.57l.58.18c-.3,1-.82,1.76-1.57,2.27-.75.51-1.71.77-2.88.77-1.52,0-2.7-.45-3.57-1.35-.86-.9-1.29-2.14-1.29-3.73s.45-2.8,1.35-3.74,2.08-1.42,3.55-1.42c1.37,0,2.45.41,3.24,1.22s1.18,1.93,1.18,3.36v.15l-6.85.08h-.01ZM-1237.38-230.78l4.77-.12c0-1.06-.2-1.87-.59-2.43s-.96-.84-1.7-.84-1.31.3-1.76.9c-.44.6-.69,1.43-.73,2.48h0Z"/>
    <path class="st2" d="M-1221.77-238.02c0-.49-.08-.8-.23-.93s-.63-.21-1.44-.24v-.69c.61,0,1.25-.04,1.91-.07s1.36-.08,2.06-.14v13.27c0,.57.08.92.23,1.05s.51.21,1.08.24v.7c-.53.02-1.09.05-1.68.07-.58.03-1.21.07-1.87.11l-.02-1.35c-.37.45-.81.79-1.31,1.02-.5.22-1.06.33-1.69.33-1.29,0-2.31-.43-3.05-1.3-.74-.87-1.12-2.06-1.12-3.58,0-1.64.4-2.94,1.21-3.91.8-.97,1.88-1.45,3.22-1.45.51,0,.99.09,1.42.27.43.18.85.46,1.27.85v-4.25h.01ZM-1221.77-232.7c-.28-.41-.59-.71-.94-.92s-.72-.31-1.12-.31c-.84,0-1.48.37-1.91,1.1s-.65,1.82-.65,3.25c0,1.27.21,2.24.63,2.91s1.02,1.01,1.81,1.01c.45,0,.86-.09,1.22-.29.36-.19.68-.49.98-.89v-5.86h-.02Z"/>
    <path class="st2" d="M-1210.24-238.02c0-.47-.08-.78-.24-.92s-.58-.22-1.28-.25v-.69c.45,0,.97-.03,1.56-.06.59-.03,1.34-.08,2.25-.15v6.91c.38-.55.83-.98,1.36-1.27.53-.29,1.11-.44,1.75-.44,1.16,0,2.12.45,2.86,1.36.75.91,1.12,2.08,1.12,3.53,0,1.63-.42,2.93-1.25,3.9s-1.95,1.45-3.35,1.45c-.71,0-1.4-.17-2.07-.5-.66-.33-1.01-.5-1.03-.5-.11,0-.26.09-.46.25-.2.17-.44.42-.71.75h-.51v-13.37h0ZM-1207.94-226.96c0,.38.22.72.66,1.02s.95.45,1.52.45c.85,0,1.47-.34,1.86-1.01.38-.67.58-1.79.58-3.34,0-1.3-.19-2.29-.57-2.97-.38-.68-.93-1.03-1.64-1.03-.44,0-.87.15-1.28.46-.41.3-.79.74-1.12,1.31v5.11h-.01Z"/>
    <path class="st2" d="M-1200.35-234.67c.42.03.82.05,1.21.06s.76.02,1.11.02c.41,0,.83,0,1.26-.02s.86-.03,1.3-.06v.7c-.4,0-.69.04-.86.12s-.25.23-.25.43c0,.08.01.18.05.29.03.12.08.27.16.47l2.04,4.98c.83-2.17,1.35-3.6,1.58-4.29.22-.69.33-1.16.33-1.41,0-.21-.09-.35-.28-.45-.19-.09-.52-.14-.99-.15v-.69c.32.03.63.05.92.06s.57.02.83.02c.22,0,.47,0,.75-.02s.58-.03.89-.06v.69c-.32,0-.58.1-.77.25-.19.16-.36.43-.51.82l-3.37,8.87c-.57,1.52-1.1,2.55-1.57,3.07s-1.06.79-1.77.79c-.41,0-.75-.1-1.02-.31-.26-.21-.4-.47-.4-.78,0-.28.11-.52.32-.71s.48-.29.79-.29c.33,0,.63.13.89.39s.44.39.55.39c.22,0,.48-.3.79-.9.3-.6.62-1.46.96-2.57l-3.47-7.75s-.03-.06-.05-.11c-.31-.69-.78-1.07-1.43-1.14v-.7h.01Z"/>
  </g>
  <g>
    <g>
      <g id="India" class="st4">
        <g class="st4">
          <path class="st6" d="M84.11,37.7h2.89v12.63h-2.89v-12.63Z"/>
          <path class="st6" d="M94.36,41.05c.96,0,1.76.33,2.41.99s.96,1.58.96,2.74v5.54h-2.71v-5.14c0-.53-.15-.93-.44-1.22-.29-.28-.67-.42-1.13-.42-.52,0-.93.16-1.23.47s-.45.77-.45,1.39v4.92h-2.71v-9.02h2.71v.85c.54-.73,1.4-1.1,2.58-1.1h0Z"/>
          <path class="st6" d="M106.14,37.7h2.71v12.63h-2.71v-.85c-.64.73-1.53,1.1-2.69,1.1s-2.21-.46-3.05-1.38c-.84-.92-1.26-2.05-1.26-3.38s.42-2.46,1.26-3.38c.84-.92,1.86-1.38,3.05-1.38s2.05.37,2.69,1.1c0,0,0-4.46,0-4.46ZM102.44,47.42c.4.4.91.6,1.55.6s1.15-.2,1.55-.6c.4-.4.6-.93.6-1.6s-.2-1.21-.6-1.61-.91-.6-1.55-.6-1.15.2-1.55.6c-.4.4-.6.93-.6,1.61s.2,1.21.6,1.6Z"/>
          <path class="st6" d="M113.32,40.03c-.32.32-.7.48-1.15.48s-.83-.16-1.15-.48-.48-.7-.48-1.15.16-.83.48-1.15.7-.48,1.15-.48.83.16,1.15.48.48.7.48,1.15-.16.83-.48,1.15ZM110.82,50.33v-9.02h2.71v9.02h-2.71Z"/>
          <path class="st6" d="M122.06,41.31h2.71v9.02h-2.71v-.85c-.64.73-1.53,1.1-2.69,1.1s-2.21-.46-3.05-1.38c-.84-.92-1.26-2.05-1.26-3.38s.42-2.46,1.26-3.38c.84-.92,1.86-1.38,3.05-1.38s2.05.37,2.69,1.1c0,0,0-.85,0-.85ZM118.37,47.42c.4.4.91.6,1.55.6s1.15-.2,1.55-.6c.4-.4.6-.93.6-1.6s-.2-1.21-.6-1.61-.91-.6-1.55-.6-1.15.2-1.55.6c-.4.4-.6.93-.6,1.61s.2,1.21.6,1.6Z"/>
        </g>
      </g>
      <g>
        <path class="st7" d="M38.19,25.1c.74,2.66,2.73,3.99,5.98,3.99,2.09,0,3.68-.71,4.75-2.12l4.41,2.55c-2.09,3.03-5.17,4.54-9.25,4.54-3.51,0-6.32-1.06-8.44-3.18s-3.18-4.79-3.18-8.02,1.05-5.86,3.14-7.99c2.09-2.13,4.78-3.2,8.06-3.2,3.11,0,5.68,1.07,7.7,3.22,2.02,2.15,3.03,4.81,3.03,7.97,0,.71-.07,1.46-.21,2.25h-15.99ZM38.1,20.86h10.82c-.31-1.44-.95-2.52-1.93-3.22-.98-.71-2.09-1.06-3.33-1.06-1.47,0-2.69.37-3.65,1.12-.96.75-1.6,1.8-1.91,3.16Z"/>
        <path class="st7" d="M74.16,12.25h5.47v21.21h-5.47v-2.5c-1.64,2.06-3.94,3.1-6.91,3.1s-5.25-1.08-7.27-3.24c-2.02-2.16-3.03-4.81-3.03-7.95s1.01-5.79,3.03-7.95c2.02-2.16,4.45-3.24,7.27-3.24,2.97,0,5.27,1.03,6.91,3.1v-2.53ZM64.06,27.16c1.1,1.12,2.5,1.68,4.2,1.68s3.1-.56,4.22-1.68,1.68-2.55,1.68-4.31-.56-3.19-1.68-4.31c-1.12-1.12-2.52-1.68-4.22-1.68s-3.1.56-4.2,1.68-1.65,2.55-1.65,4.31.55,3.19,1.65,4.31Z"/>
        <path class="st7" d="M84.59,33.45V2.49h5.47v30.96h-5.47Z"/>
        <path class="st7" d="M99.69,25.1c.73,2.66,2.73,3.99,5.98,3.99,2.09,0,3.68-.71,4.75-2.12l4.41,2.55c-2.09,3.03-5.18,4.54-9.25,4.54-3.51,0-6.32-1.06-8.44-3.18s-3.18-4.79-3.18-8.02,1.05-5.86,3.14-7.99c2.09-2.13,4.78-3.2,8.06-3.2,3.11,0,5.68,1.07,7.7,3.22,2.02,2.15,3.03,4.81,3.03,7.97,0,.71-.07,1.46-.21,2.25h-15.99,0ZM99.6,20.86h10.82c-.31-1.44-.95-2.52-1.93-3.22-.98-.71-2.09-1.06-3.33-1.06-1.47,0-2.69.37-3.65,1.12s-1.6,1.8-1.91,3.16Z"/>
        <path class="st7" d="M125.18,15.89c.51-1.36,1.35-2.38,2.52-3.05,1.17-.68,2.48-1.02,3.92-1.02v6.11c-1.67-.2-3.16.14-4.47,1.02s-1.97,2.33-1.97,4.37v10.14h-5.47V12.25h5.47v3.65h0Z"/>
      </g>
      <g id="Path_905">
        <path class="st1" d="M29.95,21.44c-.71-1.36-2.4-1.88-3.76-1.17s-1.88,2.4-1.17,3.76,2.4,1.88,3.76,1.17h0c1.36-.72,1.88-2.4,1.17-3.76"/>
      </g>
      <g id="Path_906">
        <path class="st0" d="M28.54,14.45l-3.35,4.37,5.46.72s-2.11-5.09-2.11-5.09Z"/>
      </g>
      <polygon class="st6" points="26.97 28.28 22.52 31.88 19.12 27.45 23.46 23.94 26.97 28.28"/>
      <path class="st7" d="M18.51,27.68c-.61.12-1.25.18-1.92.18h-5.94V9.36h5.94c2.57,0,4.67.86,6.28,2.57.61.64,1.1,1.36,1.48,2.15l5.53-1.22c-.68-1.77-1.71-3.38-3.08-4.82-2.73-2.86-6.13-4.28-10.2-4.28H4.8v29.69h11.79c1.98,0,3.8-.34,5.46-1.02l-3.54-4.76h0Z"/>
    </g>
    <g>
      <path class="st8" d="M173.26,41.93h-1.26l-.05.41.52.05-.23,1.74c-.14-.25-.42-.45-.95-.45-.85,0-1.31.45-1.48,1.64-.15,1.18.14,1.81,1.08,1.81.53,0,.87-.28,1.09-.68,0,.35.13.67.66.67s.84-.09.92-1.01h-.33c-.08.6-.15.65-.38.65-.21,0-.23-.13-.17-.52l.59-4.31h-.01ZM171.12,46.68c-.63,0-.65-.43-.54-1.28.13-.93.29-1.28.89-1.28.51,0,.69.33.67.7l-.09.74c-.07.5-.4,1.12-.93,1.12h0ZM201.43,42.2h-3.88l-.21,1.25h.46l.18-.85h1.08l-.54,4.06-.67.04-.06.4h2.09l.06-.4-.66-.04.53-4.06h1.08l-.05.85h.46l.13-1.25ZM189.62,42.2h-3.49l-.05.4.61.04-.54,4.03-.62.04-.06.4h2.05l.05-.4-.66-.04.26-1.99h.7l-.1.76h.38l.25-1.87h-.38l-.1.72h-.7l.23-1.7h1.61l-.03.86h.45l.13-1.25h.01ZM170.18,42.2h-2.06l-.06.4.64.04-.54,4.03-.65.04-.05.4h2.06l.06-.4-.64-.04.53-4.03.65-.04.06-.4ZM221.06,43.68c-.92,0-1.53.43-1.69,1.64-.16,1.22.33,1.81,1.42,1.81.95,0,1.54-.43,1.7-1.64.16-1.22-.3-1.81-1.43-1.81ZM220.78,46.74c-.64,0-.77-.31-.63-1.36s.34-1.31.93-1.31c.64,0,.75.31.61,1.36s-.33,1.31-.92,1.31h.01ZM218.78,43.68c-.36,0-.69.3-.94.72v-.65h-1.1l-.06.41.47.05-.38,2.88h.72l.24-1.78c.08-.52.49-1.1.88-1.21l-.11.34c-.04.26.04.4.35.4.25,0,.37-.13.41-.45.07-.5-.13-.69-.49-.69v-.02ZM215.82,43.68c-.36,0-.69.3-.94.72v-.65h-1.1l-.05.41.47.05-.38,2.88h.71l.24-1.78c.08-.52.49-1.1.88-1.21l-.11.34c-.03.26.04.4.35.4.25,0,.37-.13.41-.45.07-.5-.13-.69-.49-.69v-.02ZM211.94,43.68c-.92,0-1.53.43-1.69,1.64-.16,1.22.32,1.81,1.42,1.81.95,0,1.54-.43,1.7-1.64.16-1.22-.31-1.81-1.43-1.81ZM211.66,46.74c-.64,0-.77-.31-.62-1.36.14-1.05.34-1.31.93-1.31.64,0,.75.31.61,1.36s-.33,1.31-.91,1.31h0ZM208.54,43.68c-.49,0-.82.26-1.05.63-.02-.38-.23-.63-.79-.63-.52,0-.89.28-1.12.68l-.02-.61h-1.07l-.06.41.47.05-.38,2.88h.72l.25-1.88c.07-.48.49-1.07.99-1.07.38,0,.37.13.32.45l-.4,2.51h.71l.3-1.98c.11-.47.45-.98.9-.98.38,0,.37.16.33.45l-.27,1.62c-.08.45-.02.92.6.92s.85-.05.97-1.01h-.33c-.11.6-.14.65-.37.65s-.24-.11-.16-.54l.24-1.49c.1-.61.09-1.05-.77-1.05h-.01ZM202.5,43.68c-.92,0-1.53.43-1.69,1.64-.16,1.22.33,1.81,1.42,1.81.95,0,1.54-.43,1.7-1.64.16-1.22-.3-1.81-1.43-1.81ZM202.22,46.74c-.64,0-.77-.31-.63-1.36s.34-1.31.93-1.31c.64,0,.75.31.61,1.36s-.32,1.31-.91,1.31h0ZM194.72,43.68c-.36,0-.69.3-.94.72v-.65h-1.1l-.05.41.47.05-.38,2.88h.72l.23-1.78c.08-.52.49-1.1.89-1.21l-.12.34c-.03.26.04.4.36.4.25,0,.37-.13.41-.45.07-.5-.13-.69-.49-.69v-.02ZM190.69,43.68c-.92,0-1.53.43-1.69,1.64-.16,1.22.33,1.81,1.42,1.81.95,0,1.54-.43,1.7-1.64.16-1.22-.3-1.81-1.43-1.81ZM190.41,46.74c-.64,0-.76-.31-.62-1.36.15-1.05.34-1.31.93-1.31.64,0,.75.31.61,1.36s-.33,1.31-.92,1.31ZM182.42,43.68c-.64,0-1.15.24-1.24.89-.1.72.34.88.93,1.1.44.16.69.26.65.62-.06.41-.22.48-.67.48l-.6-.11.14-.39c.04-.3-.04-.42-.31-.42-.25,0-.34.06-.38.41-.06.6.42.87,1.19.87.72,0,1.18-.29,1.27-.95.1-.72-.3-.88-.91-1.1-.43-.16-.69-.24-.65-.58.04-.37.21-.47.6-.47l.58.12-.14.34c-.04.29.05.4.32.4.23,0,.3-.06.34-.4.06-.57-.36-.81-1.13-.81h.01ZM178.57,43.68c-.85,0-1.32.45-1.48,1.64-.16,1.18.14,1.81,1.08,1.81.51,0,.8-.26,1.01-.62,0,.33.15.6.66.6.55,0,.81-.08.92-1.01h-.32c-.11.55-.12.65-.39.65-.21,0-.23-.13-.16-.52l.42-2.48h-.6l-.16.47c-.12-.3-.38-.54-.97-.54h0ZM178.4,46.68c-.63,0-.65-.43-.53-1.28.13-.93.29-1.28.89-1.28.55,0,.7.41.63.78l-.09.61c-.09.51-.35,1.17-.9,1.17h0ZM175.42,43.68c-.78,0-1.39.4-1.56,1.63-.18,1.35.23,1.82,1.35,1.82.87,0,1.16-.26,1.32-1.03h-.42c-.13.51-.25.63-.85.63-.68,0-.79-.27-.65-1.33h1.98c.14-1.25.04-1.73-1.18-1.73h0ZM174.68,45.04c.14-.77.35-.99.8-.99s.57.11.47.99h-1.27ZM227.45,43.71c-.29,0-.4.15-.4.47s.11.47.31.64c-.28,1.13-.49,1.88-1.14,1.88-.45,0-.54-.21-.46-.94.09-.76.26-1.52.44-2.01h-1.23l-.06.41.44.05c-.09.28-.24.83-.31,1.56l-.02.4c-.2.32-.43.53-.7.53-.43,0-.53-.18-.47-.73.09-.79.32-1.71.47-2.22h-1.25l-.05.41.46.05c-.09.3-.28.99-.33,1.67-.06.81.04,1.24,1.02,1.24.4,0,.69-.18.94-.46.12.28.39.46.96.46,1.12,0,1.42-.92,1.72-2.28.12-.57.25-1.13-.32-1.13h-.02Z"/>
      <path class="st8" d="M230.54,43.05h-.88v1.99h.26v-.88h.45l.12.06.14.14.19.27.26.41h.33l-.35-.54-.22-.27-.16-.1.42-.19.14-.36-.08-.3-.22-.19-.4-.05h0ZM229.92,43.92v-.66h.63l.32.09.1.23-.05.18-.15.12-.28.04h-.57Z"/>
      <path class="st8" d="M230.46,42.26h0c-.98,0-1.78.8-1.78,1.78s.8,1.78,1.78,1.78,1.78-.8,1.78-1.78-.8-1.78-1.78-1.78M230.46,45.6c-.85,0-1.55-.69-1.55-1.55s.7-1.55,1.55-1.55,1.55.69,1.55,1.55-.69,1.55-1.55,1.55Z"/>
      <path class="st5" d="M222.26,30.81h1.41l3.42,8.64h.03v-8.64h1.09v10.47h-1.42l-3.41-8.58h-.03v8.58h-1.09v-10.47ZM230.86,40.14h.69c1.01-.02,1.77-.39,2.28-1.1s.76-1.76.77-3.17c0-.56-.05-1.08-.16-1.54-.11-.47-.28-.88-.51-1.25-.24-.37-.55-.65-.95-.84s-.87-.29-1.43-.3h-.69v8.19h0ZM229.72,30.81h1.98c.3,0,.57.02.82.05l.65.15.51.24.42.3.61.61c.19.26.37.56.55.91.17.34.3.75.38,1.22.09.47.14,1,.14,1.59,0,1.54-.33,2.82-1.05,3.83-.36.52-.84.91-1.44,1.17-.61.26-1.33.4-2.17.4h-1.41v-10.47h.01ZM236.94,30.81h1.14v10.47h-1.14s0-10.47,0-10.47ZM243.41,37.41l-1.4-5.22h-.03l-1.42,5.22h2.85,0ZM242.66,30.81l2.97,10.47h-1.19l-.73-2.73h-3.46l-.71,2.73h-1.15l3.05-10.47h1.23,0ZM154.29,41.28h2.47v-4.2h2.93v-2.07h-2.93v-2.13h3.06v-2.07h-5.53v10.47ZM162.74,35.17v-2.35h.7l.61.16.35.43.12.64-.15.59-.38.39-.51.14h-.74ZM172.35,37.05h-1.85l1-4.11h.03l.82,4.11ZM173.32,41.28h2.6l-2.98-10.47h-2.78l-2.96,9.94-.71-2.74c-.09-.36-.19-.66-.28-.89l-.29-.55-.32-.31-.37-.18v-.04l.63-.25.58-.45c.18-.19.32-.43.43-.7.11-.28.16-.61.17-1,0-.64-.12-1.17-.35-1.59-.23-.42-.56-.73-1.01-.93-.44-.2-.98-.3-1.61-.3h-3.75v10.47h2.52v-4.09h.14l.3.03.29.15.26.34.21.6.7,2.97h4.73l.6-2.22h2.75l.5,2.22h0ZM180.74,41.28h2.95v-10.47h-2.2v7.22h-.03l-2.45-7.22h-2.93v10.47h2.2v-7.26h.05l2.4,7.26h0ZM191.25,38.62l-.38.23-.61.24c-.24.07-.51.11-.81.11-.4,0-.75-.08-1.05-.24-.31-.16-.57-.39-.78-.67-.21-.29-.37-.62-.48-1.01-.11-.38-.16-.8-.16-1.25,0-.68.08-1.26.26-1.74.17-.48.43-.84.78-1.09s.79-.37,1.33-.38c.27,0,.52.04.76.11l.64.24.43.24.14-2.31-.42-.17c-.2-.08-.46-.14-.77-.21-.31-.06-.68-.1-1.08-.1-.77,0-1.44.14-2.02.4s-1.07.63-1.46,1.11c-.39.48-.68,1.04-.88,1.69-.2.65-.3,1.36-.3,2.14,0,.92.12,1.72.35,2.41.23.69.55,1.26.97,1.72.42.46.91.8,1.48,1.03.57.23,1.19.34,1.88.34.36,0,.73-.04,1.12-.11s.79-.17,1.19-.3l-.11-2.43h-.02ZM196.43,41.28h2.52v-10.47h-2.52v4.02h-1.96v-4.02h-2.52v10.47h2.52v-4.26h1.96v4.26ZM199.98,41.28h2.52v-10.47h-2.52v10.47ZM203.4,41.05l.61.16c.25.06.52.12.84.16.32.05.67.07,1.05.08.55,0,1.05-.07,1.5-.22s.83-.36,1.15-.65c.32-.29.57-.65.75-1.08s.26-.93.26-1.51c0-.39-.05-.73-.13-1.01-.08-.29-.2-.53-.34-.74l-.51-.53-.6-.38-1.13-.57c-.27-.14-.49-.26-.65-.38l-.33-.36-.09-.46c0-.33.11-.57.32-.74.21-.17.51-.25.88-.25l.72.08.67.19.54.25.11-2.05c-.26-.12-.52-.2-.8-.26-.27-.06-.54-.1-.81-.12s-.52-.04-.76-.03c-.5,0-.96.07-1.37.21-.41.14-.78.34-1.08.6-.31.26-.54.59-.71.98-.17.39-.25.82-.25,1.32s.05.93.18,1.31c.12.38.33.72.63,1.01.3.29.7.55,1.21.77l.55.24.62.3.39.35.14.55-.13.59-.41.39c-.19.09-.44.14-.76.15l-.67-.07-.61-.17-.5-.21-.34-.18-.15,2.3v-.02ZM210.31,41.28h5.92v-2.07h-3.45v-2.25h3.12v-2.07h-3.12v-2.01h3.28v-2.07h-5.74v10.47h0ZM219.64,30.81h1.14v10.47h-1.14s0-10.47,0-10.47Z"/>
    </g>
    <rect class="st5" x="142.77" y="10.04" width="1.36" height="38.73"/>
    <g class="st4">
      <g class="st4">
        <path class="st5" d="M155.17,14.86h2.89c1.61,0,2.67.98,2.67,2.5s-1.08,2.52-2.72,2.52h-1.62v3.15h-1.22v-8.17ZM157.95,18.82c1.01,0,1.55-.59,1.55-1.44s-.52-1.44-1.55-1.44h-1.56v2.88h1.56Z"/>
        <path class="st5" d="M161.2,20.04c0-1.82,1.2-3.15,3-3.15s3,1.33,3,3.14-1.2,3.17-3,3.17-3-1.34-3-3.15ZM166.04,20.03c0-1.18-.7-2.1-1.83-2.1s-1.83.92-1.83,2.11.71,2.11,1.83,2.11,1.83-.95,1.83-2.12Z"/>
        <path class="st5" d="M167.59,17.07h1.17l1.4,4.23,1.52-4.23h.88l1.55,4.28,1.38-4.28h1.19l-2.06,6.01h-.92l-1.56-4.39-1.57,4.39h-.92l-2.05-6.01Z"/>
        <path class="st5" d="M177.04,20.04c0-1.82,1.19-3.17,2.93-3.17s2.76,1.22,2.76,3.03c0,.16-.01.28-.02.43h-4.52c.11,1.06.78,1.82,1.81,1.82.74,0,1.29-.37,1.63-1.06l.98.48c-.53,1.07-1.45,1.61-2.64,1.61-1.75,0-2.93-1.32-2.93-3.15ZM181.6,19.44c-.13-.92-.67-1.54-1.63-1.54s-1.55.64-1.74,1.54h3.37Z"/>
        <path class="st5" d="M183.8,17.07h1.14c0,.37,0,.66-.01,1.02h.07c.34-.72.97-1.08,1.73-1.08.12,0,.22.01.35.04v1.05h-.5c-1.04,0-1.61.68-1.61,1.69v3.24h-1.16v-5.96Z"/>
        <path class="st5" d="M187.33,20.04c0-1.82,1.19-3.17,2.93-3.17s2.76,1.22,2.76,3.03c0,.16-.01.28-.02.43h-4.52c.11,1.06.78,1.82,1.81,1.82.74,0,1.29-.37,1.63-1.06l.98.48c-.53,1.07-1.45,1.61-2.64,1.61-1.75,0-2.93-1.32-2.93-3.15ZM191.88,19.44c-.13-.92-.67-1.54-1.63-1.54s-1.55.64-1.74,1.54h3.37Z"/>
        <path class="st5" d="M193.81,20.06c0-1.79,1.03-3.13,2.7-3.13.86,0,1.56.36,1.98,1.15h.08c-.05-.5-.05-.84-.05-1.36v-2.38h1.18v8.68h-1.15c0-.37,0-.66.02-1.03h-.08c-.43.78-1.15,1.16-2.04,1.16-1.61,0-2.64-1.36-2.64-3.11ZM198.57,20.04c0-1.22-.71-2.06-1.83-2.06-1.09.01-1.76.9-1.76,2.07s.67,2.06,1.76,2.06,1.83-.85,1.83-2.08Z"/>
        <path class="st5" d="M203.8,14.86h3.48c1.39,0,2.31.78,2.31,2.08,0,.83-.43,1.52-1.14,1.88.83.26,1.44.85,1.44,1.91,0,1.43-1.04,2.3-2.52,2.3h-3.57v-8.17ZM207.03,18.39c.89,0,1.38-.58,1.38-1.29s-.5-1.15-1.34-1.15h-2.04v2.45h2ZM207.17,21.95c.85,0,1.49-.47,1.49-1.36s-.66-1.21-1.54-1.21h-2.1v2.57h2.15Z"/>
        <path class="st5" d="M212.92,22.9l-2.42-5.83h1.26l1.76,4.57,1.79-4.57h1.26l-3.51,8.49h-1.26l1.13-2.66Z"/>
      </g>
    </g>
  </g>
  <g class="st4">
    <text class="st3" transform="translate(-1163.76 -201.67)"><tspan x="0" y="0">Powered by</tspan></text>
  </g>
</svg>