<?xml version="1.0" encoding="UTF-8"?>
<svg version="1.1" xmlns="http://www.w3.org/2000/svg" width="2994" height="611">
<path d="M0 0 C181.34250533 0 181.34250533 0 201 5.625 C202.345177 6.00350098 202.345177 6.00350098 203.7175293 6.38964844 C230.48779009 14.25816371 253.45547415 28.40905159 273.52050781 47.58789062 C274.5016484 48.5243456 275.48795247 49.45542231 276.47949219 50.38085938 C292.14258219 65.02177013 303.75959998 82.48218642 313.4375 101.5 C313.76790283 102.14654541 314.09830566 102.79309082 314.4387207 103.45922852 C316.47048532 107.56585094 317.86154553 111.56059966 319 116 C314.89515327 117.42858065 310.82225998 118.57236738 306.58325195 119.52807617 C304.70649529 119.95312691 304.70649529 119.95312691 302.79182434 120.38676453 C301.44071126 120.6891364 300.08952852 120.99119714 298.73828125 121.29296875 C297.34155766 121.6063433 295.94484456 121.91976465 294.54814148 122.23323059 C291.63116598 122.88692466 288.71358907 123.53785806 285.7956543 124.18725586 C282.05470425 125.02038117 278.31614901 125.86377494 274.5780611 126.70963573 C271.69939491 127.35923836 268.81917269 128.0017146 265.93846703 128.64220619 C264.55876786 128.95020896 263.17965113 129.26083288 261.80114174 129.57411766 C259.87863308 130.01027031 257.95364546 130.43545249 256.02856445 130.86010742 C254.93413528 131.10500412 253.83970612 131.34990082 252.71211243 131.60221863 C250 132 250 132 247 131 C245.68831288 128.89299128 244.52029034 126.81923177 243.375 124.625 C230.34222571 100.83973208 208.16028392 84.1001067 182.32397461 76.49560547 C148.79984405 67.42770704 103.78876399 72.32714505 75 72 C75 149.22 75 226.44 75 306 C125.10074386 306.13802513 125.10074386 306.13802513 175 303 C178.92334209 305.98499764 180.04242545 307.13579774 182.25 311.1875 C183.38112158 312.96592035 184.51398285 314.74323521 185.6484375 316.51953125 C186.20112305 317.43557129 186.75380859 318.35161133 187.32324219 319.29541016 C189.9325035 323.50411673 192.89932305 327.42127109 195.875 331.375 C197.02272225 332.93446411 198.16984782 334.49436752 199.31640625 336.0546875 C201.97850757 339.64841486 204.68030372 343.20928042 207.40234375 346.7578125 C208.50376709 348.19374756 208.50376709 348.19374756 209.62744141 349.65869141 C211.05941916 351.52074248 212.49516133 353.37990601 213.93505859 355.23583984 C214.58168457 356.0758252 215.22831055 356.91581055 215.89453125 357.78125 C216.47050049 358.52439453 217.04646973 359.26753906 217.63989258 360.03320312 C219 362 219 362 220 365 C211.05318391 368.77869881 202.11842118 371.66510449 192.625 373.75 C191.30133423 374.04716919 191.30133423 374.04716919 189.95092773 374.3503418 C127.97144255 387.35275911 63.32866207 378 0 378 C0 253.26 0 128.52 0 0 Z " fill="#4F4A9F" transform="translate(0,16)"/>
<path d="M0 0 C10.92804559 9.39206839 10.92804559 9.39206839 14 14 C14.33 4.1 14.66 -5.8 15 -16 C38.1 -16 61.2 -16 85 -16 C85 73.43 85 162.86 85 255 C61.9 255 38.8 255 15 255 C14.67 245.43 14.34 235.86 14 226 C12.06125 228.000625 10.1225 230.00125 8.125 232.0625 C-5.0274302 245.31318042 -20.99203149 254.12899212 -39 259 C-40.7634375 259.47953125 -40.7634375 259.47953125 -42.5625 259.96875 C-63.41209448 264.58300452 -88.57884019 264.14187913 -109 258 C-110.04679932 257.68651611 -110.04679932 257.68651611 -111.11474609 257.36669922 C-134.33335222 250.10578585 -155.73586312 234.83659444 -171 216 C-171.77085937 215.06671875 -172.54171875 214.1334375 -173.3359375 213.171875 C-185.94446163 197.5872583 -194.58844428 179.69418652 -199.8125 160.375 C-200.10495605 159.30318481 -200.10495605 159.30318481 -200.40332031 158.2097168 C-203.61078358 145.54532812 -204.38144694 132.75055906 -204.3125 119.75 C-204.31067719 119.03110596 -204.30885437 118.31221191 -204.30697632 117.5715332 C-204.25849132 106.17392695 -203.69541439 95.1129963 -201 84 C-200.82839355 83.29069336 -200.65678711 82.58138672 -200.47998047 81.85058594 C-195.1982208 60.86514939 -186.27420686 41.3919601 -172 25 C-171.27941406 24.16984375 -170.55882812 23.3396875 -169.81640625 22.484375 C-167.57856587 19.95565415 -165.3007043 17.47156835 -163 15 C-161.98873047 13.89011719 -161.98873047 13.89011719 -160.95703125 12.7578125 C-120.95756685 -29.41798298 -45.72138608 -37.52665685 0 0 Z M-116 68 C-130.30284803 85.77020512 -135.5459422 106.85240156 -133.7265625 129.38671875 C-131.29433077 149.87712376 -121.94541107 166.83545628 -106.3125 180.1875 C-97.3518133 187.06107024 -87.06475735 191.75247116 -76 194 C-75.11054687 194.18175781 -74.22109375 194.36351562 -73.3046875 194.55078125 C-51.85753031 197.46617496 -30.93606428 193.38998869 -13.38671875 180.421875 C3.07302828 167.50522156 11.42644837 149.83140333 14.53515625 129.5 C16.4697504 110.28747874 12.70392036 88.96089771 0.76757812 73.39257812 C-12.27813004 57.55551487 -28.53354884 47.44241653 -49 44.25 C-50.33116341 44.13718954 -51.66532595 44.05802931 -53 44 C-54.0003125 43.9484375 -55.000625 43.896875 -56.03125 43.84375 C-78.93565141 43.22471212 -100.12926187 51.10368914 -116 68 Z " fill="#4F4A9F" transform="translate(866,139)"/>
<path d="M0 0 C1.50983957 1.32176662 3.00911191 2.65557681 4.50756836 3.99023438 C5.16370117 4.57289063 5.81983398 5.15554687 6.49584961 5.75585938 C29.23372241 27.24559118 43.29994962 59.16376857 46.50756836 89.99023438 C46.61713867 90.94414062 46.72670898 91.89804688 46.83959961 92.88085938 C48.38864271 108.32998255 48.29369328 124.8457347 44.50756836 139.99023438 C-22.15243164 140.32023438 -88.81243164 140.65023437 -157.49243164 140.99023438 C-150.64412697 158.79582652 -142.09923645 172.51110464 -124.49243164 180.99023438 C-100.89244662 190.28095912 -73.08863172 192.1432644 -49.40258789 182.33007812 C-39.84921815 178.097417 -32.76499673 172.45576968 -25.49243164 164.99023438 C-24.49361665 163.98905077 -23.49387646 162.98878746 -22.49243164 161.99023438 C-9.69505333 169.10863143 3.07756295 176.25148179 15.67163086 183.72460938 C21.57257619 187.22348018 27.54090765 190.60502909 33.50756836 193.99023438 C32.56222192 199.74109188 28.15695954 203.68295975 24.50756836 207.99023438 C23.81147461 208.82296875 23.11538086 209.65570313 22.39819336 210.51367188 C7.05191704 228.26830543 -12.98513093 240.31443694 -35.24243164 247.24023438 C-36.34675537 247.59154419 -36.34675537 247.59154419 -37.47338867 247.94995117 C-52.73332002 252.4365576 -68.36070699 253.5481306 -84.17993164 253.42773438 C-85.04784332 253.42436066 -85.915755 253.42098694 -86.80996704 253.41751099 C-127.58225027 253.18895999 -163.85844366 240.87116975 -193.55493164 212.24023438 C-221.31834023 183.73002523 -232.93029992 146.6624566 -232.72705078 107.46118164 C-232.05957505 66.09497827 -216.06254986 31.64718304 -187.10180664 2.59179688 C-137.07267913 -44.62112147 -51.25802744 -44.15892845 0 0 Z M-142.49243164 51.99023438 C-143.11891602 52.58191406 -143.74540039 53.17359375 -144.39086914 53.78320312 C-148.49139055 57.98577371 -151.15492225 62.73988213 -153.80493164 67.92773438 C-154.14282715 68.58394775 -154.48072266 69.24016113 -154.82885742 69.91625977 C-157.34282377 75.06829966 -158.18977679 79.12828753 -159.49243164 84.99023438 C-114.61243164 84.99023438 -69.73243164 84.99023438 -23.49243164 84.99023438 C-28.18911229 66.20351176 -35.47905725 52.1371143 -51.96899414 41.44726562 C-81.12464463 24.61281108 -118.43885269 28.06064294 -142.49243164 51.99023438 Z " fill="#4F4A9F" transform="translate(1364.492431640625,148.009765625)"/>
<path d="M0 0 C24.99977994 22.90862029 40.22705938 55.61095482 43.4765625 89.22265625 C43.57561016 91.89194912 43.64018673 94.53466342 43.64453125 97.203125 C43.64785965 97.93783524 43.65118805 98.67254547 43.65461731 99.42951965 C43.65964491 100.97489809 43.66202694 102.52028722 43.66186523 104.06567383 C43.66404086 106.38707121 43.68221133 108.70798389 43.70117188 111.02929688 C43.70410913 112.54557133 43.7060917 114.06184799 43.70703125 115.578125 C43.71421677 116.25151413 43.72140228 116.92490326 43.72880554 117.61869812 C43.69772527 124.42670122 42.54884474 130.25282172 41.4765625 137.22265625 C-25.5134375 137.22265625 -92.5034375 137.22265625 -161.5234375 137.22265625 C-155.09726714 152.68187869 -155.09726714 152.68187869 -145.5234375 165.22265625 C-144.85957031 165.92519531 -144.19570313 166.62773437 -143.51171875 167.3515625 C-126.43570655 183.98568159 -102.88980721 185.64054178 -80.39453125 185.4375 C-73.07575805 185.27880337 -66.5039654 184.56212761 -59.5234375 182.22265625 C-58.02103516 181.72958984 -58.02103516 181.72958984 -56.48828125 181.2265625 C-44.37666205 176.71010063 -34.57870579 169.26167455 -26.5234375 159.22265625 C-19.25262036 162.72895315 -12.27937509 166.61080326 -5.3359375 170.72265625 C6.52334481 177.69661669 18.47929148 184.48942485 30.4765625 191.22265625 C28.2057889 197.18482911 24.55996697 201.37044028 20.4765625 206.22265625 C19.84363281 206.99222656 19.21070313 207.76179687 18.55859375 208.5546875 C3.35788998 226.45077379 -18.13036811 238.645271 -40.5234375 245.03515625 C-41.16128174 245.21796143 -41.79912598 245.4007666 -42.45629883 245.58911133 C-57.25371714 249.48715247 -71.90645146 250.77233733 -87.1484375 250.66015625 C-88.01718506 250.6574472 -88.88593262 250.65473816 -89.78100586 250.65194702 C-103.97784394 250.58506371 -117.69582731 249.67392866 -131.5234375 246.22265625 C-132.27367187 246.03541992 -133.02390625 245.84818359 -133.796875 245.65527344 C-155.52639106 239.97775097 -175.07142417 229.43417847 -191.5234375 214.22265625 C-192.03503418 213.7548877 -192.54663086 213.28711914 -193.07373047 212.80517578 C-218.12996396 189.65617224 -232.981604 157.17629935 -235.5234375 123.22265625 C-236.18506033 106.4171804 -236.07667366 89.71846979 -232.5234375 73.22265625 C-232.37890137 72.54750977 -232.23436523 71.87236328 -232.08544922 71.17675781 C-226.32227602 45.32863881 -213.50268195 24.32560348 -195.5234375 5.22265625 C-194.62625 4.22878906 -194.62625 4.22878906 -193.7109375 3.21484375 C-143.92262376 -49.79254199 -51.99246781 -46.61856933 0 0 Z M-147.75 50.5 C-155.7297215 59.75832552 -159.8895818 70.37030561 -162.5234375 82.22265625 C-117.6434375 82.22265625 -72.7634375 82.22265625 -26.5234375 82.22265625 C-32.23319809 62.23849419 -39.79901506 47.33451759 -58.140625 36.90625 C-87.99273115 22.04913943 -124.20452649 26.41752446 -147.75 50.5 Z " fill="#4F4A9F" transform="translate(586.5234375,150.77734375)"/>
<path d="M0 0 C23.43 0 46.86 0 71 0 C71 130.02 71 260.04 71 394 C47.57 394 24.14 394 0 394 C0 263.98 0 133.96 0 0 Z " fill="#4F4A9F" transform="translate(1013,0)"/>
<path d="M0 0 C0 26.07 0 52.14 0 79 C-6.93 79 -13.86 79 -21 79 C-37.89849893 81.50837094 -56.52767922 87.31392335 -67.73828125 101.14453125 C-78.37919523 115.61343998 -81.4522965 130.88928403 -81.43237305 148.62451172 C-81.44141865 150.02558235 -81.45175257 151.42664515 -81.46325684 152.82769775 C-81.49052522 156.58296901 -81.50006963 160.33808895 -81.50611091 164.09344625 C-81.5155743 168.03591858 -81.54178322 171.97828128 -81.56611633 175.92068481 C-81.60956809 183.36463285 -81.63824533 190.80855935 -81.66143972 198.25259507 C-81.69369949 208.32694027 -81.74913706 218.40115728 -81.80318546 228.47540474 C-81.88757179 244.31689805 -81.94129721 260.15834245 -82 276 C-105.43 276 -128.86 276 -153 276 C-153 186.57 -153 97.14 -153 5 C-129.57 5 -106.14 5 -82 5 C-81.505 24.8 -81.505 24.8 -81 45 C-78.69 41.04 -76.38 37.08 -74 33 C-58.26306762 14.16001053 -39.24886461 3.93631286 -14.875 0.3125 C-9.93162153 -0.08615955 -4.9594274 0 0 0 Z " fill="#4F4A9F" transform="translate(1612,118)"/>
<path d="M0 0 C57.74577068 0 57.74577068 0 66.3125 7.12109375 C73.41748985 15.03197365 74.39572763 24.11980998 74.20703125 34.30078125 C73.73123562 42.80226174 70.23190705 48.26309168 64 54 C61.71417564 55.58010383 59.50559909 56.77276779 57 58 C57.721875 58.433125 58.44375 58.86625 59.1875 59.3125 C66.88464298 66.66754774 68.77271632 78.6709959 71.3125 88.6875 C71.67421539 90.08291975 72.03684029 91.47810406 72.40039062 92.87304688 C73.2773963 96.24605708 74.14216537 99.62205631 75 103 C77.17212591 99.74181114 78.01396231 97.03174436 79.11962891 93.27905273 C79.32164917 92.59861404 79.52366943 91.91817535 79.73181152 91.21711731 C80.40148807 88.95732003 81.06396122 86.69547472 81.7265625 84.43359375 C82.19729881 82.84092593 82.66852952 81.24840416 83.14022827 79.65602112 C84.38768456 75.44061106 85.62926805 71.22349469 86.86938477 67.00592041 C88.82606206 60.35495616 90.7913551 53.70652862 92.75640106 47.05803299 C93.2358131 45.43576063 93.71500584 43.81342344 94.19397736 42.19102097 C98.35681222 28.0933063 102.64283153 14.03919008 107 0 C117.56 0 128.12 0 139 0 C142.87968115 13.66448059 146.75719287 27.32957171 150.6309185 40.99574184 C152.42984305 47.34186457 154.22970655 53.68771781 156.03173828 60.03295898 C157.77165375 66.15961171 159.50907348 72.28696718 161.24478531 78.41481209 C161.90651246 80.74935014 162.56912944 83.08363617 163.2326622 85.41766167 C164.16383252 88.69370698 165.0917983 91.9706445 166.01904297 95.24780273 C166.29237457 96.20662354 166.56570618 97.16544434 166.84732056 98.15332031 C167.10249451 99.05759262 167.35766846 99.96186493 167.62057495 100.89353943 C167.83996168 101.66692374 168.05934841 102.44030806 168.28538322 103.23712826 C169.29303457 107.13293861 170.12706851 111.07180828 171 115 C161.1 115 151.2 115 141 115 C140.175 111.41125 139.35 107.8225 138.5 104.125 C138.23896484 102.99465332 137.97792969 101.86430664 137.70898438 100.69970703 C137.50595703 99.81138184 137.30292969 98.92305664 137.09375 98.0078125 C136.88427734 97.09660645 136.67480469 96.18540039 136.45898438 95.24658203 C136 93 136 93 136 91 C126.43 91 116.86 91 107 91 C105.77173687 96.27896781 105.77173687 96.27896781 104.54736328 101.55883789 C104.31122314 102.56805298 104.31122314 102.56805298 104.0703125 103.59765625 C103.83465576 104.61098022 103.83465576 104.61098022 103.59423828 105.64477539 C102.80256261 108.78253019 101.88902132 111.88842538 101 115 C83.51 115 66.02 115 48 115 C45.50613445 105.64800418 43.04621975 96.32367003 40.84570312 86.90429688 C38.85847863 78.26262104 38.85847863 78.26262104 33 72 C31.35 71.67 29.7 71.34 28 71 C28 85.52 28 100.04 28 115 C18.76 115 9.52 115 0 115 C0 77.05 0 39.1 0 0 Z M27 23 C27 31.25 27 39.5 27 48 C34.47848861 48.2442577 34.47848861 48.2442577 41 46 C44.28701139 42.53998801 45.30272992 39.66181981 45.5625 35 C45.4184077 31.46173347 44.93581217 29.24589644 42.75 26.4375 C37.67913875 21.94287299 34.05768973 23 27 23 Z M122 26 C120.57285318 31.65924443 119.14876524 37.31924626 117.72753906 42.97998047 C117.24335938 44.90662565 116.75833621 46.83305907 116.27246094 48.75927734 C115.57526704 51.52386459 114.8810844 54.2891928 114.1875 57.0546875 C113.96876221 57.9193161 113.75002441 58.7839447 113.5246582 59.67477417 C113.32445068 60.47545319 113.12424316 61.2761322 112.91796875 62.10107422 C112.74031982 62.8072287 112.5626709 63.51338318 112.37963867 64.24093628 C111.92967951 66.02590412 111.92967951 66.02590412 112 68 C118.27 68 124.54 68 131 68 C130.02164717 62.82213789 129.04313337 57.64430674 128.06420898 52.46655273 C127.73143192 50.70615398 127.39874866 48.94573749 127.06616211 47.18530273 C126.58732534 44.65083186 126.10814817 42.11642554 125.62890625 39.58203125 C125.48095108 38.79850784 125.33299591 38.01498444 125.18055725 37.2077179 C124.47301367 33.46773566 123.75648478 29.73047646 123 26 C122.67 26 122.34 26 122 26 Z " fill="#444444" transform="translate(2064,311)"/>
<path d="M0 0 C11.55 0 23.1 0 35 0 C35 53.13 35 106.26 35 161 C23.45 161 11.9 161 0 161 C-0.33 158.36 -0.66 155.72 -1 153 C-1.70962891 153.58007812 -1.70962891 153.58007812 -2.43359375 154.171875 C-15.572179 164.51883103 -28.73438733 165.21452935 -45 164 C-58.39495637 161.99953053 -70.40311399 152.32246341 -78.2890625 141.69140625 C-88.4395075 125.72415373 -91.67839767 107.36557049 -88.34375 88.76953125 C-84.23933375 71.69728262 -75.09743974 58.18160343 -60.2265625 48.91894531 C-48.32626132 41.88520049 -35.09482789 40.86918437 -21.578125 43.06640625 C-14.03666564 45.03410143 -6.53554752 48.46445248 -1 54 C-0.67 36.18 -0.34 18.36 0 0 Z M-49 86 C-54.0479679 92.63822368 -54.61360938 101.27927253 -53.74609375 109.3671875 C-52.0069443 117.42054622 -47.82955368 123.54594325 -41 128 C-33.46850022 131.72375268 -25.43340505 132.16671514 -17.375 129.9375 C-11.06394513 127.54711815 -5.98475693 123.19776089 -2.5625 117.375 C0.90770383 109.44751215 0.91216784 100.04313022 -2 92 C-5.31005698 84.88950723 -9.86213753 79.9419215 -17.3125 77.125 C-29.46868846 73.65770006 -40.57359299 76.56318672 -49 86 Z " fill="#FAA21A" transform="translate(1287,447)"/>
<path d="M0 0 C0.495 0.495 0.495 0.495 1 1 C1.33 -1.64 1.66 -4.28 2 -7 C13.55 -7 25.1 -7 37 -7 C37 30.95 37 68.9 37 108 C25.45 108 13.9 108 2 108 C1.505 104.04 1.505 104.04 1 100 C0.05125 100.9075 -0.8975 101.815 -1.875 102.75 C-10.23335169 109.95077956 -20.03266225 111.1937326 -30.625 111.25 C-31.57246094 111.270625 -32.51992187 111.29125 -33.49609375 111.3125 C-47.16760828 111.38730993 -58.7841258 106.33476254 -68.6875 96.9375 C-82.25707081 82.61191024 -87.38762305 66.44303059 -87.21484375 46.9765625 C-86.42627852 32.38093703 -81.75889874 18.93155663 -72 8 C-71.37738281 7.24976563 -70.75476562 6.49953125 -70.11328125 5.7265625 C-61.43205919 -3.96333489 -49.2648962 -9.67197913 -36.37109375 -10.88671875 C-22.78759335 -11.34317473 -10.40241533 -9.26242461 0 0 Z M-46 32 C-51.71907518 40.16485331 -51.5580674 48.37080064 -51 58 C-49.93006205 63.50133451 -47.24474172 68.30801334 -43 72 C-35.47102018 76.98340346 -29.02366232 78.88467278 -20 78 C-12.4530153 76.28383636 -6.52903369 73.39972152 -2 67 C2.72538724 59.01184538 3.4531383 50.17368815 1.33984375 41.1953125 C-1.08814783 34.27921527 -4.91639224 29.34842289 -11.2890625 25.68359375 C-23.4490925 20.14402453 -36.63466903 22.41168496 -46 32 Z " fill="#FAA21A" transform="translate(1487,500)"/>
<path d="M0 0 C12.33644428 13.44389126 12.99119598 29.50763362 12.8828125 46.7578125 C12.87907594 48.514718 12.87623201 50.2716256 12.87423706 52.02853394 C12.86665122 56.62176405 12.8470469 61.2148649 12.8248291 65.80804443 C12.80063606 71.33567637 12.79156562 76.86335185 12.77992249 82.39102173 C12.76061894 90.76077067 12.72226136 99.13023676 12.6875 107.5 C1.1375 107.5 -10.4125 107.5 -22.3125 107.5 C-22.36857422 100.29349609 -22.36857422 100.29349609 -22.42578125 92.94140625 C-22.45608546 89.88342884 -22.48724922 86.8255079 -22.52148438 83.76757812 C-22.57564863 78.92231215 -22.62676422 74.07715789 -22.65893555 69.23168945 C-22.68509614 65.32167856 -22.72558666 61.41204648 -22.77568626 57.50227165 C-22.79226931 56.01652708 -22.80383659 54.53071712 -22.81011391 53.04489326 C-22.85312628 43.7932098 -23.23003389 35.75160893 -28 27.625 C-32.08942811 23.86714714 -36.79499498 22.3748083 -42.3125 22.125 C-48.24234448 22.40459974 -52.73095277 24.05903475 -57.125 28.0625 C-63.21425074 36.46381764 -62.78087789 47.0045514 -62.82421875 56.9140625 C-62.84109822 58.3795214 -62.85925276 59.84496611 -62.87861633 61.31039429 C-62.92576854 65.13413048 -62.95580122 68.95780914 -62.98205566 72.78173828 C-63.01732664 77.38759973 -63.07423857 81.99324031 -63.12744904 86.59892273 C-63.20555437 93.56591888 -63.25646738 100.53263412 -63.3125 107.5 C-74.8625 107.5 -86.4125 107.5 -98.3125 107.5 C-98.3125 69.55 -98.3125 31.6 -98.3125 -7.5 C-86.7625 -7.5 -75.2125 -7.5 -63.3125 -7.5 C-62.8175 -3.54 -62.8175 -3.54 -62.3125 0.5 C-61.343125 -0.4075 -60.37375 -1.315 -59.375 -2.25 C-42.84910294 -16.20812819 -15.74039456 -14.02490223 0 0 Z " fill="#FAA21A" transform="translate(1168.3125,500.5)"/>
<path d="M0 0 C5.94 0 11.88 0 18 0 C18 162.69 18 325.38 18 493 C12.06 493 6.12 493 0 493 C0 330.31 0 167.62 0 0 Z " fill="#040707" transform="translate(1804,67)"/>
<path d="M0 0 C10.89 0 21.78 0 33 0 C34.63710937 4.85074219 36.27421875 9.70148438 37.9609375 14.69921875 C38.99984669 17.77544259 40.03883793 20.85163824 41.078125 23.92773438 C42.72704009 28.80824168 44.3756535 33.68884941 46.02246094 38.57006836 C47.35044092 42.506204 48.67978155 46.4418777 50.01005936 50.37723732 C50.51687543 51.87733463 51.02320435 53.37759663 51.52903366 54.87802696 C52.23859989 56.98252033 52.94990942 59.08641694 53.66162109 61.19018555 C54.0657724 62.38709518 54.46992371 63.58400482 54.88632202 64.81718445 C55.85017922 67.57182245 56.91613392 70.29033479 58 73 C58.33 48.91 58.66 24.82 59 0 C67.25 0 75.5 0 84 0 C84 37.95 84 75.9 84 115 C72.78 115 61.56 115 50 115 C42.08 91.24 34.16 67.48 26 43 C25.67 66.76 25.34 90.52 25 115 C16.75 115 8.5 115 0 115 C0 77.05 0 39.1 0 0 Z " fill="#444444" transform="translate(2236,311)"/>
<path d="M0 0 C9.24 0 18.48 0 28 0 C28 14.52 28 29.04 28 44 C34.6 44 41.2 44 48 44 C48 29.48 48 14.96 48 0 C57.57 0 67.14 0 77 0 C77 37.95 77 75.9 77 115 C67.43 115 57.86 115 48 115 C48 99.82 48 84.64 48 69 C41.4 69 34.8 69 28 69 C28 84.18 28 99.36 28 115 C18.76 115 9.52 115 0 115 C0 77.05 0 39.1 0 0 Z " fill="#444444" transform="translate(2409,311)"/>
<path d="M0 0 C12.54 0 25.08 0 38 0 C38 53.13 38 106.26 38 161 C25.46 161 12.92 161 0 161 C0 107.87 0 54.74 0 0 Z " fill="#FAA21A" transform="translate(1007,447)"/>
<path d="M0 0 C20.79 0 41.58 0 63 0 C63 7.92 63 15.84 63 24 C51.45 24 39.9 24 28 24 C28 30.93 28 37.86 28 45 C38.89 45 49.78 45 61 45 C61 52.59 61 60.18 61 68 C50.11 68 39.22 68 28 68 C28 75.92 28 83.84 28 92 C40.21 92 52.42 92 65 92 C65 99.59 65 107.18 65 115 C43.55 115 22.1 115 0 115 C0 77.05 0 39.1 0 0 Z " fill="#444444" transform="translate(2609,311)"/>
<path d="M0 0 C-0.33 7.26 -0.66 14.52 -1 22 C-4.70040365 23.23346788 -5.59745231 22.58224905 -9.125 21.125 C-16.93689103 18.17498325 -23.19509683 16.90019458 -31.17578125 19.9921875 C-33.20152404 20.94209968 -33.20152404 20.94209968 -34.625 23.25 C-35.11649132 26.85426967 -34.96061696 29.47773783 -34 33 C-30.78836152 35.94680118 -27.43317523 37.95509585 -23.54296875 39.8828125 C-22.51236328 40.41132813 -21.48175781 40.93984375 -20.41992188 41.484375 C-18.28370599 42.5686175 -16.14050734 43.63922242 -13.99023438 44.6953125 C-5.73764738 48.97328906 0.70386149 54.16278318 4.18920898 63.02319336 C7.44061486 74.9606796 5.73894229 88.57356824 -0.25 99.22265625 C-5.93339381 107.86076899 -15.20641699 111.80848511 -25 114 C-28.43096187 114.38432296 -31.80035464 114.42947487 -35.25 114.375 C-36.15733887 114.36847412 -37.06467773 114.36194824 -37.99951172 114.35522461 C-46.67803195 114.18392792 -54.7469004 112.7510332 -63 110 C-62.86004486 106.79138226 -62.71197743 103.58318712 -62.5625 100.375 C-62.52318359 99.47136719 -62.48386719 98.56773437 -62.44335938 97.63671875 C-62.22421542 93.01783854 -61.8991149 88.54846364 -61 84 C-59.625 84.45833333 -58.25 84.91666667 -56.875 85.375 C-56.04484375 85.64828125 -55.2146875 85.9215625 -54.359375 86.203125 C-52.59842081 86.79788436 -50.85588409 87.44769753 -49.125 88.125 C-43.20076381 89.78378613 -36.79147694 91.11236911 -30.9375 88.6875 C-27.99048769 87.16442704 -27.99048769 87.16442704 -26 85 C-24.80709312 78.92761541 -24.80709312 78.92761541 -26 73 C-27.7447267 71.47644827 -27.7447267 71.47644827 -30.0625 70.25 C-30.95710938 69.73824219 -31.85171875 69.22648437 -32.7734375 68.69921875 C-35.16015074 67.4422935 -37.54429047 66.24370477 -39.9765625 65.08203125 C-50.60414488 60.00299083 -58.57976897 55.52587123 -63 44 C-65.64559145 34.74347363 -65.621478 21.72514341 -61.32421875 13.0703125 C-55.08394529 3.31413276 -47.57075359 -1.99580903 -36.2734375 -4.5 C-23.70606912 -6.41959803 -11.6202889 -4.98012382 0 0 Z " fill="#444444" transform="translate(2596,314)"/>
<path d="M0 0 C4.19449624 1.53669332 6.2956275 4.60811071 8.875 8.0625 C9.84569389 9.33093123 10.81844918 10.59778687 11.79296875 11.86328125 C12.30907715 12.53439941 12.82518555 13.20551758 13.35693359 13.89697266 C16.22910073 17.57317588 19.2102946 21.15874848 22.1875 24.75 C26.54328774 30.01448611 30.87494043 35.29235958 35.11328125 40.65234375 C36.5455262 42.43449533 38.00653513 44.1935763 39.48046875 45.94140625 C40.31191406 46.93011719 41.14335937 47.91882813 42 48.9375 C42.763125 49.83339844 43.52625 50.72929687 44.3125 51.65234375 C46 54 46 54 46 57 C44.375 58.5859375 44.375 58.5859375 42 60.375 C41.08734375 61.07753906 40.1746875 61.78007812 39.234375 62.50390625 C38.72068359 62.89723145 38.20699219 63.29055664 37.67773438 63.69580078 C34.48768313 66.1756107 31.37663007 68.75356359 28.25 71.3125 C22.58623143 75.93092651 16.87029099 80.47311562 11.09887695 84.95605469 C6.38289915 88.64216856 1.8246611 92.49879679 -2.65112305 96.47314453 C-5.61319078 99.04848056 -8.25846115 100.78485803 -12 102 C-12.34144043 101.55309814 -12.68288086 101.10619629 -13.03466797 100.64575195 C-19.47494609 92.21729418 -25.92251616 83.79474247 -32.39453125 75.390625 C-35.50189495 71.35117372 -38.59381166 67.29992728 -41.6875 63.25 C-46.09709102 57.47808588 -50.52025956 51.7177778 -55 46 C-52.00072804 41.90808373 -48.58308171 38.90596833 -44.5625 35.875 C-39.77309693 32.19277065 -35.08329442 28.43590055 -30.5 24.5 C-24.35545923 19.23955906 -18.01996935 14.24917358 -11.63818359 9.28125 C-7.72964203 6.22431615 -3.86678302 3.10946377 0 0 Z " fill="#FAA21A" transform="translate(236,272)"/>
<path d="M0 0 C-0.14032492 3.18776711 -0.28826644 6.3751385 -0.4375 9.5625 C-0.47681641 10.45775391 -0.51613281 11.35300781 -0.55664062 12.27539062 C-0.79332783 17.2458219 -1.19821672 22.08823519 -2 27 C-2.81984375 26.65066406 -3.6396875 26.30132812 -4.484375 25.94140625 C-5.56203125 25.48636719 -6.6396875 25.03132813 -7.75 24.5625 C-8.81734375 24.11003906 -9.8846875 23.65757812 -10.984375 23.19140625 C-18.17933193 20.34883907 -24.79776058 19.96987806 -32.1875 22.5 C-38.30904958 25.21857637 -41.39446885 29.24533266 -43.9921875 35.3203125 C-48.21586849 47.83045333 -48.32621718 62.38074045 -42.8125 74.5 C-39.0036668 81.2626222 -33.94623558 85.45286126 -26.453125 87.59375 C-19.04508684 88.82055887 -12.50320183 87.25160092 -5.875 83.9375 C-4 83 -4 83 -1 82 C-0.00736571 91.35912329 0.10731538 100.60394198 0 110 C-1.56159059 110.48212214 -3.12431928 110.96055873 -4.6875 111.4375 C-5.55761719 111.70433594 -6.42773438 111.97117187 -7.32421875 112.24609375 C-21.53523005 116.25007212 -38.54044583 115.71517555 -51.609375 108.57421875 C-63.46017533 101.08033031 -71.28576383 89.89067661 -74.9765625 76.44140625 C-79.67247959 54.65147322 -78.19949377 32.09415448 -66 13 C-59.22960854 3.79487162 -48.55468198 -2.10045737 -37.4375 -4.4375 C-24.67036839 -6.11738574 -11.92546083 -5.11726864 0 0 Z " fill="#444444" transform="translate(2403,314)"/>
<path d="M0 0 C20.13 0 40.26 0 61 0 C61 7.92 61 15.84 61 24 C50.11 24 39.22 24 28 24 C28 31.26 28 38.52 28 46 C38.56 46 49.12 46 60 46 C60 53.59 60 61.18 60 69 C49.44 69 38.88 69 28 69 C28 84.18 28 99.36 28 115 C18.76 115 9.52 115 0 115 C0 77.05 0 39.1 0 0 Z " fill="#444444" transform="translate(1998,311)"/>
<path d="M0 0 C5.28 0 10.56 0 16 0 C18.76095079 5.3594042 21.17612689 10.7155428 23.328125 16.34375 C23.79542023 17.54952698 23.79542023 17.54952698 24.27215576 18.77966309 C25.26845812 21.3517013 26.25967909 23.92565348 27.25 26.5 C35.30898129 47.41174017 43.67547884 68.18869711 52 89 C52.33 59.63 52.66 30.26 53 0 C57.29 0 61.58 0 66 0 C66 37.95 66 75.9 66 115 C60.39 115 54.78 115 49 115 C44.87515543 105.18252761 40.89822219 95.31105053 36.94921875 85.421875 C36.35868072 83.9447927 35.76806392 82.46774189 35.17736816 80.99072266 C33.01312924 75.57752797 30.85040187 70.16372906 28.6875 64.75 C23.840625 52.6225 18.99375 40.495 14 28 C13.67 56.71 13.34 85.42 13 115 C8.71 115 4.42 115 0 115 C0 77.05 0 39.1 0 0 Z " fill="#444444" transform="translate(2739,311)"/>
<path d="M0 0 C11.88 0 23.76 0 36 0 C36 37.95 36 75.9 36 115 C24.12 115 12.24 115 0 115 C0 77.05 0 39.1 0 0 Z " fill="#FAA21A" transform="translate(1346,493)"/>
<path d="M0 0 C8.01766286 6.26804575 12.82780223 13.36166742 14.84375 23.44140625 C15.79790518 35.24279924 13.61440085 45.2934628 5.84375 54.44140625 C-1.63910001 61.8221511 -10.21171332 65.58258559 -20.71875 65.87890625 C-32.76853534 65.43631935 -40.73173142 61.34145047 -48.90625 52.62890625 C-53.57183841 47.05789543 -56.53619538 40.72704806 -57.15625 33.44140625 C-57.259375 32.26578125 -57.3625 31.09015625 -57.46875 29.87890625 C-57.30506794 20.40353388 -53.64581408 11.27499542 -47.15625 4.44140625 C-46.63160156 3.88839844 -46.10695313 3.33539063 -45.56640625 2.765625 C-33.1919985 -8.96822517 -13.80587691 -9.47739501 0 0 Z " fill="#17A84A" transform="translate(309.15625,227.55859375)"/>
<path d="M0 0 C38.72857143 0 38.72857143 0 50 9 C50.61617187 9.47953125 51.23234375 9.9590625 51.8671875 10.453125 C60.67233639 18.20165602 65.98918024 31.4807082 67 43 C68.18086561 64.30252671 67.05756424 83.82745863 54.12109375 101.578125 C46.78052971 109.60830361 37.37007259 112.69553942 27 115 C18.09 115 9.18 115 0 115 C0 77.05 0 39.1 0 0 Z M14 14 C14 43.04 14 72.08 14 102 C26.04818717 102 34.26819763 101.24344653 43 93 C53.67856453 81.89429289 53.37267564 65.02208663 53.21484375 50.671875 C52.93499272 40.05491775 50.46790842 30.01939275 43.1796875 21.99609375 C33.87206577 13.25422941 27.62544252 14 14 14 Z " fill="#444444" transform="translate(2820,311)"/>
<path d="M0 0 C1.93166016 0.01740234 1.93166016 0.01740234 3.90234375 0.03515625 C5.19269531 0.04417969 6.48304688 0.05320312 7.8125 0.0625 C8.81152344 0.07410156 9.81054688 0.08570313 10.83984375 0.09765625 C13.88109507 7.65301937 16.00616912 15.45118183 18.19140625 23.28515625 C18.61365736 24.78898554 19.03622072 26.29272718 19.45907593 27.79638672 C20.57328033 31.7616157 21.68333786 35.72799374 22.79248047 39.69464111 C23.88788668 43.60960463 24.98699746 47.52352725 26.0859375 51.4375 C27.38708488 56.07185557 28.68735191 60.70644892 29.98321533 65.34228516 C31.91959207 72.26744875 33.86170906 79.19068246 35.83745003 86.10473633 C36.68844983 89.08281979 37.5359918 92.06188326 38.38352585 95.04095459 C38.7829501 96.44062879 39.18424384 97.83977101 39.58751297 99.23834229 C40.1415929 101.16016801 40.68888508 103.08394682 41.23583984 105.0078125 C41.54685638 106.09199463 41.85787292 107.17617676 42.17831421 108.29321289 C42.83984375 111.09765625 42.83984375 111.09765625 42.83984375 115.09765625 C38.21984375 115.09765625 33.59984375 115.09765625 28.83984375 115.09765625 C27.66860898 110.82802745 26.50266783 106.55707562 25.33984375 102.28515625 C25.00597656 101.07021484 24.67210938 99.85527344 24.328125 98.60351562 C24.01230469 97.44013672 23.69648438 96.27675781 23.37109375 95.078125 C23.07783203 94.00457764 22.78457031 92.93103027 22.48242188 91.82495117 C21.83984375 89.09765625 21.83984375 89.09765625 21.83984375 86.09765625 C9.62984375 86.42765625 -2.58015625 86.75765625 -15.16015625 87.09765625 C-17.42261397 95.93738737 -17.42261397 95.93738737 -19.67749023 104.77905273 C-19.95923096 105.87290283 -20.24097168 106.96675293 -20.53125 108.09375 C-20.8192749 109.21966553 -21.1072998 110.34558105 -21.40405273 111.50561523 C-22.16015625 114.09765625 -22.16015625 114.09765625 -23.16015625 115.09765625 C-25.5132918 115.17037366 -27.86849293 115.18136493 -30.22265625 115.16015625 C-32.15818359 115.14662109 -32.15818359 115.14662109 -34.1328125 115.1328125 C-35.13183594 115.12121094 -36.13085938 115.10960937 -37.16015625 115.09765625 C-30.01403504 89.86483169 -22.73970852 64.66923435 -15.41317749 39.48828125 C-14.44999653 36.17766532 -13.48835206 32.86660895 -12.52798462 29.55517578 C-11.38129148 25.601771 -10.23133965 21.64932859 -9.07887268 17.69760323 C-8.64796265 16.21815601 -8.21816335 14.7383848 -7.789505 13.25828362 C-7.19970297 11.22264008 -6.6058809 9.18821285 -6.01098633 7.15405273 C-5.67633865 6.00388168 -5.34169098 4.85371063 -4.99690247 3.66868591 C-3.84155746 0.11871315 -3.84155746 0.11871315 0 0 Z M2.83984375 18.09765625 C0.8406687 25.30443205 -1.15255273 32.51283498 -3.14160156 39.72241211 C-3.81925978 42.1759182 -4.49829084 44.62904553 -5.17871094 47.08178711 C-6.15528934 50.60302135 -7.12695698 54.12557869 -8.09765625 57.6484375 C-8.40388916 58.74851639 -8.71012207 59.84859528 -9.02563477 60.98200989 C-9.30592529 62.00284164 -9.58621582 63.0236734 -9.875 64.07543945 C-10.24806274 65.42446098 -10.24806274 65.42446098 -10.62866211 66.80073547 C-11.27287503 69.19184984 -11.27287503 69.19184984 -11.16015625 72.09765625 C-1.59015625 72.09765625 7.97984375 72.09765625 17.83984375 72.09765625 C15.0212234 59.82875507 11.90920788 47.6769777 8.58984375 35.53515625 C8.12603787 33.83014998 7.66249501 32.12507213 7.19921875 30.41992188 C6.08244097 26.31167309 4.96216599 22.20439366 3.83984375 18.09765625 C3.50984375 18.09765625 3.17984375 18.09765625 2.83984375 18.09765625 Z " fill="#444444" transform="translate(2951.16015625,310.90234375)"/>
<path d="M0 0 C9.57 0 19.14 0 29 0 C29 37.95 29 75.9 29 115 C19.43 115 9.86 115 0 115 C0 77.05 0 39.1 0 0 Z " fill="#444444" transform="translate(2496,311)"/>
<path d="M0 0 C3.34589418 1.67294709 4.01414646 5.45279934 5.34375 8.78515625 C5.83228455 9.98558563 5.83228455 9.98558563 6.33068848 11.21026611 C7.39340172 13.82518133 8.44673343 16.44376719 9.5 19.0625 C10.58506519 21.74055209 11.67227301 24.41772808 12.75952148 27.09489441 C13.48251791 28.87581848 14.20468563 30.6570792 14.92602539 32.43867493 C17.01390573 37.59200485 19.12546658 42.73407915 21.28125 47.859375 C21.74853516 48.97046631 22.21582031 50.08155762 22.69726562 51.22631836 C23.54776468 53.24115317 24.40052828 55.25503399 25.25585938 57.26782227 C25.62517578 58.14494873 25.99449219 59.0220752 26.375 59.92578125 C26.69210937 60.67255127 27.00921875 61.41932129 27.3359375 62.1887207 C28 64 28 64 28 66 C19.37931516 65.41465739 10.8403382 64.55482505 2.27734375 63.40625 C1.12883438 63.25466431 -0.01967499 63.10307861 -1.20298767 62.94689941 C-3.60389298 62.62921686 -6.00457256 62.30982394 -8.4050293 61.98876953 C-12.08389221 61.49714123 -15.7635533 61.01185685 -19.44335938 60.52734375 C-21.78650766 60.21651745 -24.1296084 59.9053325 -26.47265625 59.59375 C-27.5705397 59.44893188 -28.66842316 59.30411377 -29.79957581 59.15490723 C-31.32783241 58.94964417 -31.32783241 58.94964417 -32.88696289 58.74023438 C-33.78040909 58.62111694 -34.67385529 58.50199951 -35.59437561 58.37927246 C-37.77637182 58.03525738 -39.86880252 57.57544596 -42 57 C-40.40629299 51.81283896 -37.15207088 48.10095577 -33.8125 43.9375 C-32.54006743 42.32808601 -31.26929267 40.71736023 -30 39.10546875 C-29.34128906 38.26935059 -28.68257813 37.43323242 -28.00390625 36.57177734 C-24.7104023 32.34495344 -21.51274711 28.04760411 -18.3125 23.75 C-12.33193503 15.73272213 -6.23078584 7.82410529 0 0 Z " fill="#EF4523" transform="translate(301,151)"/>
<path d="M0 0 C4.62 0 9.24 0 14 0 C14 37.95 14 75.9 14 115 C9.38 115 4.76 115 0 115 C0 77.05 0 39.1 0 0 Z " fill="#444444" transform="translate(2710,311)"/>
<path d="M0 0 C4.29 0 8.58 0 13 0 C13 37.95 13 75.9 13 115 C8.71 115 4.42 115 0 115 C0 77.05 0 39.1 0 0 Z " fill="#444444" transform="translate(2899,311)"/>
<path d="M0 0 C4.01916831 3.89089698 6.61591214 8.01215377 7.3359375 13.61328125 C7.44269162 20.98999104 6.4309041 26.18694074 1.421875 31.75390625 C-3.00468032 35.89133972 -7.22510281 37.95731134 -13.41796875 38.02734375 C-19.91818222 37.64382132 -24.68115254 36.2129268 -29.46875 31.578125 C-34.39535003 26.02137845 -35.47368272 21.00632006 -35.30859375 13.78125 C-34.64440143 7.79511163 -32.03787483 3.69122872 -27.6875 -0.375 C-19.11761104 -7.03845179 -8.49752365 -6.1648701 0 0 Z " fill="#FAA21A" transform="translate(1378,446)"/>
<path d="M0 0 C4.83801979 -0.07463717 9.67569804 -0.12883014 14.51416016 -0.16479492 C16.15712326 -0.17980136 17.80004686 -0.20021312 19.44287109 -0.22631836 C21.81618042 -0.26306359 24.18895625 -0.27980772 26.5625 -0.29296875 C27.28679199 -0.30845261 28.01108398 -0.32393646 28.75732422 -0.33988953 C35.25459945 -0.34199236 40.51621977 1.21815766 45.875 5.0625 C49.20691475 9.66838215 50.24362911 14.54655737 49.84375 20.21484375 C48.85236819 25.18128531 46.73507282 28.50851888 43 32 C35.46307031 36.26618662 27.43559671 35.21088992 19 35 C19.33 42.26 19.66 49.52 20 57 C22.64 57.33 25.28 57.66 28 58 C28 59.32 28 60.64 28 62 C18.76 62 9.52 62 0 62 C0 60.68 0 59.36 0 58 C2.97 57.505 2.97 57.505 6 57 C6 40.17 6 23.34 6 6 C4.02 5.34 2.04 4.68 0 4 C0 2.68 0 1.36 0 0 Z M19 4 C19 12.58 19 21.16 19 30 C24.74597191 30.95766198 26.7909694 31.02573412 32 29 C35.37836691 26.24396384 36.77590716 24.1343925 37.23828125 19.73046875 C37.40607891 13.98119089 37.08913294 10.42068425 33 6 C28.30835888 3.05096844 25.03147378 4 19 4 Z " fill="#040707" transform="translate(1998,160)"/>
<path d="M0 0 C0.33 19.8 0.66 39.6 1 60 C2.32 60.33 3.64 60.66 5 61 C5 62.32 5 63.64 5 65 C-2.92 65.495 -2.92 65.495 -11 66 C-11.33 65.01 -11.66 64.02 -12 63 C-12.99 63.495 -13.98 63.99 -15 64.5 C-19.79913765 66.51814843 -24.19152185 66.90546563 -29.14453125 65.30859375 C-33.96837958 63.16963317 -36.47354269 60.74973974 -39 56 C-41.32903009 49.01290973 -41.51427808 37.97836803 -38.3125 31.1875 C-34.95710108 26.56249068 -31.55358841 23.54983862 -26 22 C-19.32146506 21.46140847 -17.76959871 22.09874341 -11 25 C-11.33 19.06 -11.66 13.12 -12 7 C-13.98 6.34 -15.96 5.68 -18 5 C-18 3.68 -18 2.36 -18 1 C-15.37504621 0.83257698 -12.75004205 0.6660283 -10.125 0.5 C-9.00544922 0.42845703 -9.00544922 0.42845703 -7.86328125 0.35546875 C-2.2265625 0 -2.2265625 0 0 0 Z M-26 30 C-29.86161595 37.19059521 -30.45367004 45.65345087 -28.30859375 53.54296875 C-26.76553615 57.08748181 -25.53978155 58.67613107 -22.1875 60.6875 C-17.86437124 61.11133615 -15.81866388 60.02164559 -12 58 C-9.32094224 55.32094224 -10.61790367 47.78491752 -10.5625 44.1875 C-10.49385742 42.38442383 -10.49385742 42.38442383 -10.42382812 40.54492188 C-10.38168159 37.25932447 -10.41738006 34.2345452 -11 31 C-13.55804379 27.99440377 -13.55804379 27.99440377 -17 27 C-21.4066945 27 -22.6535137 27.25416509 -26 30 Z " fill="#040707" transform="translate(2329,157)"/>
<path d="M0 0 C0.33 8.58 0.66 17.16 1 26 C3.31 24.68 5.62 23.36 8 22 C11.93462459 21.12179732 15.3922713 21.78550752 19.1875 23.125 C24.10021833 26.40014555 27.20980292 30.39969321 29 36 C29.78511671 44.15243284 30.15537799 52.21572407 25 59 C21.69588671 62.99971608 19.08328896 64.90360434 14 66 C8.14161454 66.48819879 3.66167892 65.51536013 -1.8984375 63.65625 C-3.95124064 62.90064235 -3.95124064 62.90064235 -6 63 C-6.33 63.99 -6.66 64.98 -7 66 C-8.32 66 -9.64 66 -11 66 C-11.33 46.53 -11.66 27.06 -12 7 C-14.475 6.01 -14.475 6.01 -17 5 C-17 3.68 -17 2.36 -17 1 C-14.54171921 0.83252588 -12.08338135 0.6659856 -9.625 0.5 C-8.92632813 0.45230469 -8.22765625 0.40460938 -7.5078125 0.35546875 C-2.2265625 0 -2.2265625 0 0 0 Z M1 32 C-0.99778712 35.99557425 -0.22876505 41.04451995 -0.25 45.4375 C-0.270625 46.50033203 -0.29125 47.56316406 -0.3125 48.65820312 C-0.31765625 49.67720703 -0.3228125 50.69621094 -0.328125 51.74609375 C-0.3374707 52.68122803 -0.34681641 53.6163623 -0.35644531 54.57983398 C0.06447878 57.43779328 0.74333483 58.26423579 3 60 C6.09173752 61.54586876 8.59429552 61.29359521 12 61 C15.81249243 58.32095126 16.76694034 55.38421213 18 51 C18.72477909 43.41335137 18.37065337 36.87094725 15 30 C13.07553704 27.66015237 13.07553704 27.66015237 9.6875 27.625 C5.45454323 28.05547018 3.96639625 29.03360375 1 32 Z " fill="#040707" transform="translate(2377,157)"/>
<path d="M0 0 C6.93 0 13.86 0 21 0 C21 1.32 21 2.64 21 4 C19.68 4.33 18.36 4.66 17 5 C18.52463563 12.49612516 20.68006154 19.71359134 23 27 C26.14169523 19.7728592 28.92957946 12.60837466 31 5 C30.01 4.67 29.02 4.34 28 4 C28 2.68 28 1.36 28 0 C34.27 0 40.54 0 47 0 C47 1.32 47 2.64 47 4 C46.01 4.33 45.02 4.66 44 5 C44.61130551 9.95412171 45.60544585 14.56583901 47 19.375 C47.350625 20.59960938 47.70125 21.82421875 48.0625 23.0859375 C48.71142496 25.86361599 48.71142496 25.86361599 50 27 C51.00990692 24.08666921 52.00615952 21.16884681 53 18.25 C53.42925781 17.0125 53.42925781 17.0125 53.8671875 15.75 C54.13789063 14.95078125 54.40859375 14.1515625 54.6875 13.328125 C55.06455078 12.22839355 55.06455078 12.22839355 55.44921875 11.10644531 C56.16864641 8.71789426 56.16864641 8.71789426 56 5 C55.01 4.67 54.02 4.34 53 4 C53 2.68 53 1.36 53 0 C57.62 0 62.24 0 67 0 C67 1.32 67 2.64 67 4 C66.40598389 4.16951172 65.81196777 4.33902344 65.19995117 4.51367188 C61.84915011 6.77753569 61.07928703 10.10639514 59.80078125 13.78125 C59.52026413 14.55053833 59.23974701 15.31982666 58.95072937 16.11242676 C58.05773112 18.57028699 57.18478814 21.03472298 56.3125 23.5 C55.71423543 25.16064135 55.1146413 26.82080435 54.51367188 28.48046875 C53.66849489 30.81477131 52.82539957 33.1496002 51.99275208 35.48840332 C50.10163731 40.79672537 50.10163731 40.79672537 49 43 C46.03 42.505 46.03 42.505 43 42 C42.76289307 41.25838623 42.52578613 40.51677246 42.28149414 39.75268555 C41.20868564 36.39756306 40.13559614 33.0425305 39.0625 29.6875 C38.68931641 28.52025391 38.31613281 27.35300781 37.93164062 26.15039062 C37.57392578 25.03212891 37.21621094 23.91386719 36.84765625 22.76171875 C36.51773682 21.73006592 36.18781738 20.69841309 35.84790039 19.63549805 C35.24244543 17.75358434 34.62515397 15.87546192 34 14 C33.53944214 15.26444946 33.53944214 15.26444946 33.06958008 16.55444336 C31.92071766 19.67870189 30.75417421 22.79509842 29.57495117 25.90795898 C29.06833961 27.25648985 28.56892768 28.6077483 28.0769043 29.96166992 C27.36822622 31.90785835 26.63420817 33.8427594 25.89453125 35.77734375 C25.45987549 36.94515381 25.02521973 38.11296387 24.57739258 39.31616211 C23 42 23 42 20.4440918 42.95141602 C18 43 18 43 16 42 C15.01857887 39.37296555 14.1466187 36.77374852 13.3203125 34.09765625 C12.79859507 32.46926706 12.2764462 30.84101605 11.75390625 29.21289062 C10.93631746 26.63598647 10.12352617 24.05777275 9.31884766 21.47680664 C8.54082866 18.99185104 7.7443377 16.51342338 6.9453125 14.03515625 C6.7097464 13.26115982 6.4741803 12.48716339 6.23147583 11.68971252 C4.91027988 7.47629564 4.91027988 7.47629564 1.81591797 4.49780273 C1.21666504 4.33352783 0.61741211 4.16925293 0 4 C0 2.68 0 1.36 0 0 Z " fill="#040707" transform="translate(2091,180)"/>
<path d="M0 0 C4.29 0 8.58 0 13 0 C13.33 1.32 13.66 2.64 14 4 C14.598125 3.34 15.19625 2.68 15.8125 2 C20.36666468 -0.85751509 24.73781303 -0.70053882 30 0 C30.99 0.66 31.98 1.32 33 2 C33 2.66 33 3.32 33 4 C33.7425 3.34 34.485 2.68 35.25 2 C39.87329578 -1.11545831 45.65910534 -0.85546798 51 0 C53.24369238 1.51961331 53.87708194 2.37335889 54.3984375 5.03125 C54.30864418 14.48947936 52.61816292 23.70519511 51 33 C51.99 32.67 52.98 32.34 54 32 C55.22520264 28.99152582 55.22520264 28.99152582 56 26 C57.65 26 59.3 26 61 26 C59.71678879 34.0538388 59.71678879 34.0538388 57.4375 37.0625 C53.71250628 38.49518989 49.91149633 38.87457752 46 38 C43.7109375 36.33984375 43.7109375 36.33984375 42 34 C41.7578125 31.2578125 41.7578125 31.2578125 42.125 28.125 C42.31255859 26.42150391 42.31255859 26.42150391 42.50390625 24.68359375 C42.66761719 23.46800781 42.83132812 22.25242187 43 21 C43.17402344 19.69160156 43.34804687 18.38320313 43.52734375 17.03515625 C43.99320411 13.68572231 44.48391699 10.34201327 45 7 C42.04716131 5.63923098 42.04716131 5.63923098 39.5 7.125 C35.03637641 10.47271769 33.66795402 14.34802065 32.83203125 19.73828125 C32.57583008 21.33833008 32.57583008 21.33833008 32.31445312 22.97070312 C32.14880859 24.07349609 31.98316406 25.17628906 31.8125 26.3125 C31.63525391 27.43462891 31.45800781 28.55675781 31.27539062 29.71289062 C30.84067629 32.47391413 30.41590486 35.23609139 30 38 C27.03 38 24.06 38 21 38 C21.76604495 27.58178867 23.38885642 17.31404708 25 7 C21.15510125 5.71836708 19.62830387 6.30164499 16 8 C14.58754454 10.10516181 14.58754454 10.10516181 14 13 C13.76023437 13.89138672 13.76023437 13.89138672 13.515625 14.80078125 C11.95112392 21.09434241 11.23646266 27.50946812 10.46484375 33.9375 C10 37 10 37 9 38 C6.32941149 38.14115161 3.67567762 38.04247107 1 38 C1.52067791 27.57273982 2.471171 17.33072801 4 7 C2.68 6.67 1.36 6.34 0 6 C0 4.02 0 2.04 0 0 Z " fill="#ED7D24" transform="translate(2545,452)"/>
<path d="M0 0 C4.95 0 9.9 0 15 0 C13.78684491 12.81794133 12.14947568 25.55269623 10.32128906 38.29760742 C10.15081055 39.49748291 9.98033203 40.6973584 9.8046875 41.93359375 C9.64983887 43.00665771 9.49499023 44.07972168 9.33544922 45.18530273 C8.92110648 48.1895461 8.92110648 48.1895461 9 52 C9.99 52.33 10.98 52.66 12 53 C12.33 50.69 12.66 48.38 13 46 C14.65 46 16.3 46 18 46 C17.525 53.125 17.525 53.125 15.5 56.5 C11.73960488 58.75623707 8.27242937 58.7906275 4 58 C0.9375 56 0.9375 56 -1 54 C-1.78375 54.66 -2.5675 55.32 -3.375 56 C-7.64387467 58.82231287 -12.05631569 58.94546961 -17 58 C-20.6160434 56.09375579 -22.6863844 53.9408468 -24 50 C-24.60687279 41.0252851 -24.8668822 31.78290491 -19.69921875 24.0546875 C-16.91448317 21.08338154 -14.82133248 20.10885129 -10.7578125 19.5703125 C-1.91054054 19.39297297 -1.91054054 19.39297297 2 22 C2.99 16.72 3.98 11.44 5 6 C3.02 6 1.04 6 -1 6 C-0.67 4.02 -0.34 2.04 0 0 Z M-11 27 C-14.29950547 33.47680703 -15.44139708 40.74573494 -15 48 C-13.81819746 50.38486614 -13.81819746 50.38486614 -12 52 C-9.08617271 52.75060849 -9.08617271 52.75060849 -6 52 C-0.1506618 47.48005684 0.91206139 42.4462318 1.9375 35.4375 C2.2660589 31.27953045 2.26448049 30.38538585 -0.1875 26.8125 C-4.05599531 24.31946969 -7.36608993 24.18665027 -11 27 Z " fill="#ED7D24" transform="translate(2191,432)"/>
<path d="M0 0 C1.93166016 0.01740234 1.93166016 0.01740234 3.90234375 0.03515625 C5.19269531 0.04417969 6.48304688 0.05320312 7.8125 0.0625 C8.81152344 0.07410156 9.81054688 0.08570313 10.83984375 0.09765625 C10.17202092 6.64231997 8.85743879 12.99282928 7.4609375 19.4140625 C6.8452262 23.06573389 6.65810847 26.40237225 6.83984375 30.09765625 C7.16984375 30.42765625 7.49984375 30.75765625 7.83984375 31.09765625 C11.32040249 30.92198267 11.32040249 30.92198267 14.83984375 30.09765625 C16.72651619 27.2676476 17.17212337 26.17197713 17.65625 22.97265625 C17.78064453 22.18375 17.90503906 21.39484375 18.03320312 20.58203125 C18.15501953 19.7621875 18.27683594 18.94234375 18.40234375 18.09765625 C18.65150974 16.47232735 18.90272943 14.84731162 19.15625 13.22265625 C19.26396729 12.50335938 19.37168457 11.7840625 19.48266602 11.04296875 C19.83984375 9.09765625 19.83984375 9.09765625 20.83984375 6.09765625 C19.51984375 6.09765625 18.19984375 6.09765625 16.83984375 6.09765625 C16.83984375 4.11765625 16.83984375 2.13765625 16.83984375 0.09765625 C21.78984375 0.09765625 26.73984375 0.09765625 31.83984375 0.09765625 C31.55109375 1.33 31.26234375 2.56234375 30.96484375 3.83203125 C28.88144723 13.01513063 27.15848704 21.61544206 27.83984375 31.09765625 C31.17126653 31.59890908 31.17126653 31.59890908 34.83984375 31.09765625 C38.66153535 26.95749035 40.63928883 21.56572993 41.83984375 16.09765625 C41.59686961 13.24271012 41.10335625 11.62468124 39.83984375 9.09765625 C39.65234375 5.59765625 39.65234375 5.59765625 39.83984375 2.09765625 C41.83984375 0.09765625 41.83984375 0.09765625 44.83984375 -0.15234375 C47.83984375 0.09765625 47.83984375 0.09765625 49.83984375 2.09765625 C50.19726789 7.71951388 49.55480679 12.66508911 48.15234375 18.09765625 C47.97445312 18.79463623 47.7965625 19.49161621 47.61328125 20.2097168 C45.87814011 26.60356231 43.61844379 31.5642268 38.71484375 36.03515625 C34.28431956 38.54578662 29.80204779 38.64121924 24.83984375 38.09765625 C23.16650336 37.1088642 21.49832552 36.11117289 19.83984375 35.09765625 C17.13943985 35.74429192 17.13943985 35.74429192 14.83984375 37.09765625 C11.38775575 38.82370025 7.62142808 38.45749559 3.83984375 38.09765625 C0.61700145 36.79480511 -0.69822325 35.98210817 -2.3046875 32.90625 C-4.74890721 24.88162001 -2.21792868 15.05437633 -0.16015625 7.09765625 C-1.48015625 6.76765625 -2.80015625 6.43765625 -4.16015625 6.09765625 C-4.20287725 4.4315372 -4.20079457 2.7638274 -4.16015625 1.09765625 C-3.16015625 0.09765625 -3.16015625 0.09765625 0 0 Z " fill="#ED7D24" transform="translate(2751.16015625,451.90234375)"/>
<path d="M0 0 C12.87 0 25.74 0 39 0 C39 5.51738922 38.87401535 9.75590789 38 15 C36.02 15 34.04 15 32 15 C32 12.03 32 9.06 32 6 C24.08 6.495 24.08 6.495 16 7 C15.34 11.95 14.68 16.9 14 22 C15.98 22.33 17.96 22.66 20 23 C19.979375 22.05125 19.95875 21.1025 19.9375 20.125 C20 17 20 17 21 15 C22.65 15 24.3 15 26 15 C25.69305541 18.10474234 25.378486 21.20866586 25.0625 24.3125 C24.97548828 25.19357422 24.88847656 26.07464844 24.79882812 26.98242188 C24.71181641 27.82998047 24.62480469 28.67753906 24.53515625 29.55078125 C24.456604 30.33106689 24.37805176 31.11135254 24.29711914 31.9152832 C24 34 24 34 23 37 C21.35 37 19.7 37 18 37 C18.33 34.03 18.66 31.06 19 28 C17.02 28.33 15.04 28.66 13 29 C12.01 35.6 11.02 42.2 10 49 C12.31 49 14.62 49 17 49 C17.042721 50.66611905 17.04063832 52.33382885 17 54 C16 55 16 55 13.77514648 55.11352539 C12.81680908 55.10828857 11.85847168 55.10305176 10.87109375 55.09765625 C9.31938477 55.09282227 9.31938477 55.09282227 7.73632812 55.08789062 C6.64771484 55.07951172 5.55910156 55.07113281 4.4375 55.0625 C2.7987793 55.05573242 2.7987793 55.05573242 1.12695312 55.04882812 C-1.58208495 55.03699826 -4.29101599 55.02051543 -7 55 C-6.505 52.03 -6.505 52.03 -6 49 C-3.03 48.505 -3.03 48.505 0 48 C1.98 34.14 3.96 20.28 6 6 C4.02 6 2.04 6 0 6 C0 4.02 0 2.04 0 0 Z " fill="#ED7D24" transform="translate(2345,435)"/>
<path d="M0 0 C4.94597668 4.34280879 7.65396222 8.91046261 8.21484375 15.5390625 C8.45653236 22.5576997 8.08365203 28.62266683 3.1953125 33.9765625 C-2.46396547 39.16601362 -6.93927023 41.45554771 -14.66015625 41.25 C-21.20065405 40.5511822 -25.81405198 38.14273614 -30 33 C-34.03577821 26.21166432 -33.73478951 19.6946497 -33 12 C-31.39543547 6.01687801 -28.04037953 2.42745808 -23 -1 C-15.71454219 -4.39988031 -6.94415345 -4.1518728 0 0 Z M-17.625 3.125 C-23.29211358 9.98519013 -22.75288737 18.51867842 -22 27 C-20.66997495 31.50111927 -18.98383522 34.34410985 -15 37 C-11.33001169 36.92191514 -9.54815956 36.47202629 -6.75 34.0625 C-2.47624868 26.58343519 -2.40492918 18.31528721 -4 10 C-5.55613589 5.85030429 -7.05577377 3.15139613 -11 1 C-15.04472242 0.58053451 -15.04472242 0.58053451 -17.625 3.125 Z " fill="#040707" transform="translate(2081,182)"/>
<path d="M0 0 C1.14250465 0.00333092 1.14250465 0.00333092 2.30809021 0.00672913 C3.16890701 0.00680466 4.02972382 0.00688019 4.91662598 0.00695801 C5.8520372 0.01211929 6.78744843 0.01728058 7.75120544 0.02259827 C8.70422043 0.02401321 9.65723541 0.02542816 10.63912964 0.02688599 C13.69605085 0.032503 16.75289996 0.04505836 19.80979919 0.05775452 C21.87685543 0.06276733 23.94391281 0.06733061 26.01097107 0.07142639 C31.08977507 0.08247795 36.16852489 0.09975397 41.24729919 0.12025452 C40.91729919 5.07025452 40.58729919 10.02025452 40.24729919 15.12025452 C37.93729919 15.12025452 35.62729919 15.12025452 33.24729919 15.12025452 C33.57729919 12.15025452 33.90729919 9.18025452 34.24729919 6.12025452 C30.61729919 6.12025452 26.98729919 6.12025452 23.24729919 6.12025452 C23.19903992 6.87524231 23.15078064 7.6302301 23.10105896 8.40809631 C22.48070753 17.30249435 21.40342717 26.10492357 20.18479919 34.93275452 C19.99630551 36.31877567 19.80815274 37.70484323 19.62034607 39.09095764 C19.16599361 42.43452573 18.70825671 45.77759177 18.24729919 49.12025452 C20.55729919 49.12025452 22.86729919 49.12025452 25.24729919 49.12025452 C24.91729919 51.10025452 24.58729919 53.08025452 24.24729919 55.12025452 C16.32729919 55.12025452 8.40729919 55.12025452 0.24729919 55.12025452 C0.74229919 52.15025452 0.74229919 52.15025452 1.24729919 49.12025452 C3.55729919 49.12025452 5.86729919 49.12025452 8.24729919 49.12025452 C8.32770447 48.44671936 8.40810974 47.7731842 8.49095154 47.07923889 C9.27771359 40.49333341 10.0686776 33.90794533 10.86253357 27.32289124 C11.19707996 24.53825956 11.52761119 21.75319409 11.85667419 18.96791077 C12.02834604 17.53950092 12.20020368 16.11111338 12.37229919 14.68275452 C12.51925232 13.44654358 12.66620544 12.21033264 12.81761169 10.93666077 C13.24729919 8.12025452 13.24729919 8.12025452 14.24729919 6.12025452 C10.61729919 6.12025452 6.98729919 6.12025452 3.24729919 6.12025452 C3.10292419 7.41962952 2.95854919 8.71900452 2.80979919 10.05775452 C2.37229919 13.99525452 2.37229919 13.99525452 1.24729919 15.12025452 C-0.75228444 15.16106235 -2.75315335 15.16279808 -4.75270081 15.12025452 C-4.44527177 12.80707491 -4.13162379 10.49472099 -3.81520081 8.18275452 C-3.64117737 6.89498108 -3.46715393 5.60720764 -3.28785706 4.28041077 C-2.5931207 0.17791655 -2.5931207 0.17791655 0 0 Z " fill="#ED7D24" transform="translate(2471.752700805664,434.87974548339844)"/>
<path d="M0 0 C1.1446875 -0.02578125 2.289375 -0.0515625 3.46875 -0.078125 C6.5 0.25 6.5 0.25 8.40625 1.765625 C8.7671875 2.25546875 9.128125 2.7453125 9.5 3.25 C10.16 2.26 10.82 1.27 11.5 0.25 C14.14 0.25 16.78 0.25 19.5 0.25 C17.85 11.14 16.2 22.03 14.5 33.25 C15.49 32.92 16.48 32.59 17.5 32.25 C18.72520264 29.24152582 18.72520264 29.24152582 19.5 26.25 C20.82 26.25 22.14 26.25 23.5 26.25 C23.16073415 34.34149055 23.16073415 34.34149055 21 37.3125 C17.163672 38.751123 13.53692139 38.95368354 9.5 38.25 C6.9375 36.25 6.9375 36.25 5.5 34.25 C5.066875 34.724375 4.63375 35.19875 4.1875 35.6875 C0.84913508 38.77857863 -2.9830734 38.53071309 -7.28125 38.4609375 C-10.43117421 38.16147287 -12.12985959 37.34130036 -14.5 35.25 C-18.3205049 29.98033807 -18.10400316 24.488608 -17.5 18.25 C-16.31604161 11.32980912 -14.64232995 6.13521345 -9.5 1.25 C-6.16334135 0.13778045 -3.51220338 0.04746221 0 0 Z M-3.125 6.75 C-8.50938858 12.41777745 -7.73138521 20.11351324 -7.765625 27.4921875 C-7.78132016 30.3927176 -7.78132016 30.3927176 -5.5 32.25 C-2.6284035 32.91790364 -2.6284035 32.91790364 0.5 32.25 C6.02658188 27.62309424 7.60633194 21.25343947 8.5 14.25 C8.15639399 9.83657596 8.15639399 9.83657596 5.6875 6.375 C2.2745042 4.61974502 0.15343978 4.87660584 -3.125 6.75 Z " fill="#ED7D24" transform="translate(2263.5,451.75)"/>
<path d="M0 0 C4.13458764 3.95482296 5.88240198 7.41200988 7 13 C7 14.65 7 16.3 7 18 C-2.57 18 -12.14 18 -22 18 C-20.09564016 28.56587843 -20.09564016 28.56587843 -15 33 C-11.78501861 34.6074907 -8.48701742 34.47314549 -5 34 C-1.06377171 31.95899274 1.48209259 30.25014075 3 26 C4.32 26.33 5.64 26.66 7 27 C5.71685009 32.01594966 4.0457656 34.74579723 0 38 C-6.12605813 41.34391819 -12.34370746 41.94487838 -19.13671875 40.56640625 C-24.58127979 38.89674087 -27.94890741 35.76125914 -31 31 C-34.02564032 24.84545518 -34.01322746 17.44078598 -32.5 10.80859375 C-30.6419292 6.08951621 -27.65449459 1.54506687 -23.21484375 -1.0390625 C-15.61357223 -4.27300307 -7.2187198 -4.19253159 0 0 Z M-19 4 C-20.82820864 7.53033392 -22 10.01080638 -22 14 C-15.73 14 -9.46 14 -3 14 C-3.29643337 6.61449722 -3.29643337 6.61449722 -5.6875 3.5625 C-10.53833934 0.28490585 -14.52691523 0.13138615 -19 4 Z " fill="#040707" transform="translate(2276,182)"/>
<path d="M0 0 C2.89320693 2.62757751 4.75198152 5.25594455 6 9 C6 11.97 6 14.94 6 18 C-3.24 18 -12.48 18 -22 18 C-20.31883394 26.45779972 -20.31883394 26.45779972 -16 33 C-11.22635638 34.59121454 -6.84983145 34.79879085 -2.25 32.8125 C0.265046 30.78649072 2.10009368 28.60357533 4 26 C4.66 26.33 5.32 26.66 6 27 C5.92647157 30.08819397 5.62286468 32.2670156 3.5859375 34.6640625 C-1.99537192 39.65527753 -7.23273306 41.45101224 -14.6953125 41.25 C-21.22022909 40.54221244 -25.82393834 38.13059004 -30 33 C-34.03577821 26.21166432 -33.73478951 19.6946497 -33 12 C-31.39543547 6.01687801 -28.04037953 2.42745808 -23 -1 C-15.6862561 -4.41308049 -6.98821728 -4.11071605 0 0 Z M-19 4 C-21.30128295 7.72966548 -22 9.56661697 -22 14 C-15.73 14 -9.46 14 -3 14 C-4.08180055 5.55853933 -4.08180055 5.55853933 -7.375 2.4375 C-12.03084033 -0.11212685 -15.02017771 0.93859824 -19 4 Z " fill="#040707" transform="translate(2193,182)"/>
<path d="M0 0 C7.26 0 14.52 0 22 0 C22 1.32 22 2.64 22 4 C20.68 4.33 19.36 4.66 18 5 C19.82705114 10.73029676 21.88311602 16.29724006 24.23046875 21.8359375 C25 24 25 24 25 27 C25.66 27 26.32 27 27 27 C27.0825 26.236875 27.165 25.47375 27.25 24.6875 C28.10954018 20.46142744 29.56653241 16.6818315 31.16015625 12.68359375 C32.01294408 9.95863914 32.15890661 7.83468889 32 5 C30.68 4.67 29.36 4.34 28 4 C28 2.68 28 1.36 28 0 C32.95 0 37.9 0 43 0 C43 1.32 43 2.64 43 4 C42.41661865 4.38849121 41.8332373 4.77698242 41.23217773 5.17724609 C37.70288066 8.059203 36.79424628 11.95419337 35.28515625 16.1640625 C34.94753769 17.07070648 34.60991913 17.97735046 34.2620697 18.91146851 C33.18358017 21.81171807 32.12186116 24.71771436 31.0625 27.625 C30.00491139 30.51012299 28.94356116 33.39368726 27.87364197 36.27426147 C27.20926492 38.06460836 26.55202046 39.85762496 25.90333557 41.65371704 C20.22293559 57.01838062 20.22293559 57.01838062 14 61 C11.7109375 61.3984375 11.7109375 61.3984375 9.375 61.375 C8.21097656 61.38660156 8.21097656 61.38660156 7.0234375 61.3984375 C6.35570313 61.26695312 5.68796875 61.13546875 5 61 C3 58 3 58 3.3125 55.375 C4 53 4 53 5 52 C9.0379986 51.73080009 11.48077851 52.06862682 15 54 C15.89870373 52.13624529 16.76810238 50.25834183 17.625 48.375 C18.11226562 47.33085937 18.59953125 46.28671875 19.1015625 45.2109375 C21.08625834 38.11780715 15.45642377 29.86258945 12.56958008 23.32202148 C11.98041076 21.97979823 11.39773964 20.63470421 10.8215332 19.28686523 C9.98301721 17.32635428 9.12474875 15.37560373 8.26171875 13.42578125 C7.75600342 12.26473877 7.25028809 11.10369629 6.72924805 9.9074707 C4.81083895 6.68195412 3.16077729 5.85613748 0 4 C0 2.68 0 1.36 0 0 Z " fill="#040707" transform="translate(2407,180)"/>
<path d="M0 0 C1.28648437 -0.02835937 2.57296875 -0.05671875 3.8984375 -0.0859375 C8.20963821 0.44731374 10.29873046 1.62935147 13.625 4.375 C17.77036633 11.56030163 17.22161662 18.49973491 15.3203125 26.265625 C13.7246405 31.10642771 10.95173744 34.72312866 6.625 37.375 C0.44020243 39.43659919 -6.8735977 39.23755252 -13 37.125 C-16.47364332 34.56547334 -18.01481862 32.45554414 -19.375 28.375 C-20.11904427 19.7755653 -19.52772689 11.25527926 -13.9375 4.375 C-9.20963107 0.68495596 -6.06802654 0.06055915 0 0 Z M-5.6875 6.9375 C-9.7277322 12.77339095 -10.4287497 20.40903839 -10.375 27.375 C-9.63469228 30.56115941 -9.63469228 30.56115941 -7.375 32.375 C-4.01907137 33.71160145 -4.01907137 33.71160145 -0.375 33.375 C3.68708156 30.57667715 5.38358329 27.60338805 6.34375 22.765625 C7.66671126 14.30000385 7.66671126 14.30000385 5.3203125 6.546875 C1.72736264 4.06326911 -2.20510406 4.58452977 -5.6875 6.9375 Z " fill="#ED7D24" transform="translate(2395.375,451.625)"/>
<path d="M0 0 C1.28648437 -0.02835937 2.57296875 -0.05671875 3.8984375 -0.0859375 C8.20963821 0.44731374 10.29873046 1.62935147 13.625 4.375 C17.77036633 11.56030163 17.22161662 18.49973491 15.3203125 26.265625 C13.7246405 31.10642771 10.95173744 34.72312866 6.625 37.375 C0.44020243 39.43659919 -6.8735977 39.23755252 -13 37.125 C-16.47364332 34.56547334 -18.01481862 32.45554414 -19.375 28.375 C-20.11904427 19.7755653 -19.52772689 11.25527926 -13.9375 4.375 C-9.20963107 0.68495596 -6.06802654 0.06055915 0 0 Z M-5.6875 7 C-9.80833172 12.79968909 -10.72405511 20.36559605 -10.375 27.375 C-9.22082861 30.19550795 -9.22082861 30.19550795 -7.375 32.375 C-4.01907137 33.71160145 -4.01907137 33.71160145 -0.375 33.375 C3.68708156 30.57667715 5.38358329 27.60338805 6.34375 22.765625 C7.66671126 14.30000385 7.66671126 14.30000385 5.3203125 6.546875 C1.70842949 4.05018167 -2.23061418 4.57083699 -5.6875 7 Z " fill="#ED7D24" transform="translate(2726.375,451.625)"/>
<path d="M0 0 C0.70382813 -0.02900391 1.40765625 -0.05800781 2.1328125 -0.08789062 C7.27753938 -0.15004811 10.21391438 0.86249268 14.25 4.3125 C18.06121891 9.36483631 16.65558679 17.29207114 16.25 23.3125 C15.17090246 28.89345759 12.68249288 32.72429148 8.25 36.3125 C2.71152254 39.00153931 -2.71162957 38.85251687 -8.75 38.3125 C-12.45788871 36.94643574 -15.28073206 35.4315753 -17.75 32.3125 C-20.06786585 25.35890245 -19.87572749 15.91985188 -17.0625 9.125 C-13.12135953 1.6775068 -7.91967444 0.10644724 0 0 Z M-6.125 7.25 C-9.66932316 13.92968596 -10.79781756 21.81657435 -9.75 29.3125 C-8.47482126 32.17248345 -8.47482126 32.17248345 -5.75 33.3125 C-2.86562155 33.57946461 -0.47964906 33.28446459 2.25 32.3125 C6.98390026 27.57859974 7.05701454 18.74411677 7.5625 12.375 C7.40016229 9.35033281 7.40016229 9.35033281 6.25 6.875 C3.65604448 4.84847225 1.42944213 4.68441808 -1.81640625 4.875 C-3.99222246 5.21637253 -3.99222246 5.21637253 -6.125 7.25 Z " fill="#ED7D24" transform="translate(2626.75,451.6875)"/>
<path d="M0 0 C0.70382813 -0.02900391 1.40765625 -0.05800781 2.1328125 -0.08789062 C7.27753938 -0.15004811 10.21391438 0.86249268 14.25 4.3125 C18.0948472 9.37209602 16.97266546 18.25055881 16.25 24.3125 C14.79805765 29.72858261 12.57461082 33.97870639 7.6875 36.9375 C1.31961192 39.48707189 -5.80344809 39.25960597 -12.25 37.1875 C-15.38608435 34.83543673 -17.52522425 33.04875412 -18.75 29.3125 C-19.78145483 20.81878526 -19.27025581 12.73967272 -14.75 5.3125 C-9.99152548 0.66732249 -6.44869815 0.08667605 0 0 Z M-6.125 7.1875 C-9.49381572 13.66599177 -10.93354101 22.04851705 -9.75 29.3125 C-8.30985074 32.00388543 -8.30985074 32.00388543 -5.75 33.3125 C-2.45998006 33.79229457 -0.58235015 33.78343495 2.328125 32.13671875 C6.92296439 27.77535697 7.4023229 19.40575507 7.625 13.3125 C7.50392836 10.74671252 7.19656245 9.17556627 6.25 6.75 C3.64220857 4.87564991 1.35498054 4.68687733 -1.81640625 4.87890625 C-3.98287853 5.21820072 -3.98287853 5.21820072 -6.125 7.1875 Z " fill="#ED7D24" transform="translate(2523.75,451.6875)"/>
<path d="M0 0 C0.33 2.31 0.66 4.62 1 7 C1.78375 6.030625 2.5675 5.06125 3.375 4.0625 C4.91288705 2.16037654 5.79259913 1.10370043 8 0 C10.09375 0.015625 10.09375 0.015625 12.5 0.25 C13.2940625 0.31703125 14.088125 0.3840625 14.90625 0.453125 C17 1 17 1 19 4 C19.25 7.5625 19.25 7.5625 19 11 C17 13 17 13 14 13.25 C11 13 11 13 9 11 C8.875 7.875 8.875 7.875 9 5 C4.40261551 8.80473199 2.33918919 13.66393641 1.74487305 19.50927734 C1.67083028 22.15847293 1.68807117 24.7881073 1.75 27.4375 C1.75515625 28.34693359 1.7603125 29.25636719 1.765625 30.19335938 C1.44276516 34.42660963 1.44276516 34.42660963 3 38 C5.32817964 38.36760731 7.6618385 38.70241581 10 39 C10 40.32 10 41.64 10 43 C1.09 43 -7.82 43 -17 43 C-17 41.68 -17 40.36 -17 39 C-13.535 38.505 -13.535 38.505 -10 38 C-10.33 27.77 -10.66 17.54 -11 7 C-12.98 6.34 -14.96 5.68 -17 5 C-17 3.68 -17 2.36 -17 1 C-14.72926348 0.83201949 -12.45840707 0.66565887 -10.1875 0.5 C-8.29064453 0.36078125 -8.29064453 0.36078125 -6.35546875 0.21875 C-4.24021483 0.08085219 -2.11974408 0 0 0 Z " fill="#040707" transform="translate(2220,179)"/>
<path d="M0 0 C1.29808594 -0.02835937 2.59617187 -0.05671875 3.93359375 -0.0859375 C8.08341807 0.44116613 9.68518474 1.39549971 12.5625 4.375 C13.55033094 7.33849281 13.69660525 9.3462663 13.6875 12.4375 C13.69136719 13.75427734 13.69136719 13.75427734 13.6953125 15.09765625 C13.5625 17.375 13.5625 17.375 12.5625 19.375 C5.6325 19.375 -1.2975 19.375 -8.4375 19.375 C-8.91184165 27.47902133 -8.91184165 27.47902133 -7.4375 31.375 C-4.42510403 31.9671804 -1.51300533 32.42272336 1.5625 32.375 C4.11401968 30.52514823 5.17226715 29.1554657 6.5625 26.375 C8.5425 26.375 10.5225 26.375 12.5625 26.375 C11.44994102 31.19608893 10.50880932 34.2657866 6.5625 37.375 C0.37949115 39.43600295 -6.88106448 39.16837654 -13.0625 37.25 C-16.22614761 34.75238346 -17.21117787 33.25835341 -18.4375 29.375 C-19.3616607 20.47995323 -18.41124979 11.9795158 -13.5 4.375 C-9.29742746 0.29977814 -5.80462021 0.05752845 0 0 Z M-5.3125 6.5 C-6.84180823 9.04884706 -7.11220941 11.44738473 -7.4375 14.375 C-3.4775 14.375 0.4825 14.375 4.5625 14.375 C4.583125 13.075625 4.60375 11.77625 4.625 10.4375 C4.63660156 9.70660156 4.64820312 8.97570312 4.66015625 8.22265625 C4.76811184 6.35767859 4.76811184 6.35767859 3.5625 5.375 C-1.07410465 4.93691013 -1.07410465 4.93691013 -5.3125 6.5 Z " fill="#ED7D24" transform="translate(2229.4375,451.625)"/>
<path d="M0 0 C7.59 0 15.18 0 23 0 C23 1.98 23 3.96 23 6 C20.69 6.33 18.38 6.66 16 7 C15.85377197 8.13018555 15.70754395 9.26037109 15.55688477 10.42480469 C15.01319552 14.62205511 14.46641349 18.81889783 13.91870117 23.015625 C13.68218091 24.83127057 13.446497 26.64702529 13.21166992 28.46289062 C12.87378793 31.07451124 12.53288991 33.68572319 12.19140625 36.296875 C12.08719864 37.10743347 11.98299103 37.91799194 11.87562561 38.75311279 C11.41822702 42.23058547 10.89739909 45.61004199 10 49 C12.31 49 14.62 49 17 49 C16.67 50.98 16.34 52.96 16 55 C8.41 55 0.82 55 -7 55 C-7 53.02 -7 51.04 -7 49 C-3.535 48.505 -3.535 48.505 0 48 C1.98 34.14 3.96 20.28 6 6 C3.69 6 1.38 6 -1 6 C-0.67 4.02 -0.34 2.04 0 0 Z " fill="#ED7D24" transform="translate(2149,435)"/>
<path d="M0 0 C1.29808594 -0.01933594 2.59617187 -0.03867187 3.93359375 -0.05859375 C8.07736348 0.507885 9.74630083 1.38037124 12.5625 4.4375 C13.34640911 7.34289742 12.90873323 9.37086281 12.5625 12.4375 C11.9025 13.0975 11.2425 13.7575 10.5625 14.4375 C7.4375 14.0625 7.4375 14.0625 4.5625 13.4375 C4.4375 7.6875 4.4375 7.6875 5.5625 5.4375 C0.47946314 5.32429144 0.47946314 5.32429144 -4.4375 6.4375 C-5.44228037 8.2897367 -5.44228037 8.2897367 -5.4375 10.4375 C-3.2102531 13.28424604 -0.78759299 14.24103822 2.5625 15.4375 C8.50896775 17.56123848 8.50896775 17.56123848 10.5625 20.4375 C11.38100236 24.78238336 11.56884315 29.4440923 9.54296875 33.45703125 C7.42703446 36.0843696 5.77120437 37.36793188 2.5625 38.4375 C-10.55366011 39.42168517 -10.55366011 39.42168517 -15.4375 35.4375 C-17.13339534 31.62173548 -17.76382023 29.53300362 -16.5625 25.5 C-16.005625 24.4790625 -16.005625 24.4790625 -15.4375 23.4375 C-13.43795254 23.39495644 -11.43708364 23.39669217 -9.4375 23.4375 C-8.4375 24.4375 -8.4375 24.4375 -8.3125 27.375 C-8.4375 30.4375 -8.4375 30.4375 -9.4375 32.4375 C-6.1375 32.4375 -2.8375 32.4375 0.5625 32.4375 C1.5525 28.9725 1.5525 28.9725 2.5625 25.4375 C1.7375 25.19 0.9125 24.9425 0.0625 24.6875 C-4.82136967 22.94326083 -9.55720062 21.14152131 -13.4375 17.625 C-14.91420499 14.39470784 -14.80686103 11.94642978 -14.4375 8.4375 C-11.27397624 1.47774772 -7.44876099 0.00738232 0 0 Z " fill="#ED7D24" transform="translate(2305.4375,451.5625)"/>
<path d="M0 0 C4.29 0 8.58 0 13 0 C13.33 1.32 13.66 2.64 14 4 C14.7115625 3.01 14.7115625 3.01 15.4375 2 C18.77934955 -0.60827282 20.95734439 -0.36630189 25.07421875 -0.23828125 C27 0 27 0 28 1 C28.1245486 2.64230364 28.17568524 4.29052276 28.1875 5.9375 C28.20167969 6.83339844 28.21585938 7.72929687 28.23046875 8.65234375 C28 11 28 11 26 13 C22.875 13.125 22.875 13.125 20 13 C19.34 11.02 18.68 9.04 18 7 C12.35437471 13.39837533 11.51847322 20.19566603 10.375 28.375 C10.2409375 29.30183594 10.106875 30.22867187 9.96875 31.18359375 C9.64091461 33.45502468 9.31978126 35.72742118 9 38 C6.03 38 3.06 38 0 38 C1.0639634 27.28113466 2.20680316 16.6256451 4 6 C2.35 6 0.7 6 -1 6 C-0.67 4.02 -0.34 2.04 0 0 Z " fill="#ED7D24" transform="translate(2679,452)"/>
<path d="M0 0 C4.29 0 8.58 0 13 0 C13.33 1.32 13.66 2.64 14 4 C14.66 3.34 15.32 2.68 16 2 C20.07112242 -0.71408161 22.1775917 -0.47433524 27 0 C29.60704898 2.60704898 29.23905333 4.47338241 29.265625 8.02734375 C29 10 29 10 27 13 C23.875 13.1875 23.875 13.1875 21 13 C20.34 11.02 19.68 9.04 19 7 C14.91042123 11.77117524 12.98682496 15.87034233 12.1484375 22.08203125 C12.01953125 23.01337891 11.890625 23.94472656 11.7578125 24.90429688 C11.63148438 25.86400391 11.50515625 26.82371094 11.375 27.8125 C11.2409375 28.79154297 11.106875 29.77058594 10.96875 30.77929688 C10.6401084 33.18542291 10.31928195 35.59261411 10 38 C7.03 38 4.06 38 1 38 C1.56260889 27.19402929 3.21035678 16.65907 5 6 C3.35 6 1.7 6 0 6 C0 4.02 0 2.04 0 0 Z " fill="#ED7D24" transform="translate(2646,452)"/>
<path d="M0 0 C4.29 0 8.58 0 13 0 C13.33 1.32 13.66 2.64 14 4 C14.66 3.34 15.32 2.68 16 2 C20.07112242 -0.71408161 22.1775917 -0.47433524 27 0 C29.60704898 2.60704898 29.23905333 4.47338241 29.265625 8.02734375 C29 10 29 10 27 13 C23.875 13.1875 23.875 13.1875 21 13 C20.34 11.02 19.68 9.04 19 7 C14.91042123 11.77117524 12.98682496 15.87034233 12.1484375 22.08203125 C12.01953125 23.01337891 11.890625 23.94472656 11.7578125 24.90429688 C11.63148438 25.86400391 11.50515625 26.82371094 11.375 27.8125 C11.2409375 28.79154297 11.106875 29.77058594 10.96875 30.77929688 C10.6401084 33.18542291 10.31928195 35.59261411 10 38 C7.03 38 4.06 38 1 38 C1.56260889 27.19402929 3.21035678 16.65907 5 6 C3.35 6 1.7 6 0 6 C0 4.02 0 2.04 0 0 Z " fill="#ED7D24" transform="translate(2416,452)"/>
<path d="M0 0 C5.563128 4.80451963 8.4764805 9.26850628 9.0625 16.59375 C8.91687351 22.20036995 7.17350258 26.57944425 3.625 30.875 C-1.91208754 35.3574042 -6.48935898 37.38876852 -13.59375 37.2734375 C-20.34595815 36.50614112 -24.69540738 32.79226727 -28.87109375 27.68359375 C-32.1371241 22.81280108 -31.51582948 16.60147226 -31 11 C-29.03816443 4.77817861 -24.19550738 0.81366635 -18.6875 -2.3125 C-11.92656648 -4.04204113 -6.14501216 -3.42702601 0 0 Z M-25.375 7.75 C-28.04574084 13.09148169 -28.62844561 16.94009495 -26.875 22.6875 C-24.16539223 27.47447373 -21.10541954 30.86723694 -16 33 C-10.38638479 33.78590613 -5.75543593 33.24234268 -1 30 C2.94372499 26.08833782 4.84440892 22.86709292 5.3125 17.25 C5.24231581 12.47747505 3.75765893 9.87562877 1 6 C-3.8987134 1.56783074 -6.91354476 0.63848759 -13.39453125 0.72265625 C-18.72793149 1.29037951 -21.86863078 3.68999354 -25.375 7.75 Z " fill="#ED7D24" transform="translate(2840,439)"/>
<path d="M0 0 C2.578125 -0.0825 5.15625 -0.165 7.8125 -0.25 C8.62050049 -0.28641602 9.42850098 -0.32283203 10.26098633 -0.36035156 C15.51065728 -0.4420175 15.51065728 -0.4420175 18.01953125 1.82421875 C19.41591382 4.92296412 18.95749023 6.7855685 18 10 C16.4375 11.875 16.4375 11.875 15 13 C15.61875 13.7425 16.2375 14.485 16.875 15.25 C18.60437281 17.48801188 19.86106661 19.43739987 21 22 C18.68359375 22.24609375 18.68359375 22.24609375 16 22 C14.41015625 20.28515625 14.41015625 20.28515625 13.0625 18.0625 C10.68673271 14.50246957 10.68673271 14.50246957 6.625 13 C5.75875 13 4.8925 13 4 13 C4 15.97 4 18.94 4 22 C2.68 22 1.36 22 0 22 C0 14.74 0 7.48 0 0 Z M4 3 C4 4.98 4 6.96 4 9 C5.45742463 9.08096803 6.91612807 9.13917774 8.375 9.1875 C9.59316406 9.23970703 9.59316406 9.23970703 10.8359375 9.29296875 C11.55007812 9.19628906 12.26421875 9.09960938 13 9 C13.66 8.01 14.32 7.02 15 6 C14.009245 4.33358994 14.009245 4.33358994 12 3 C9.28153765 2.72654521 6.74322801 2.86508715 4 3 Z " fill="#ED7D24" transform="translate(2819,445)"/>
</svg>
