<?xml version="1.0" encoding="UTF-8"?>
<svg id="Layer_1" xmlns="http://www.w3.org/2000/svg" version="1.1" viewBox="0 0 3582.4 611">
  <!-- Generator: Adobe Illustrator 29.3.1, SVG Export Plug-In . SVG Version: 2.1.0 Build 151)  -->
  <defs>
    <style>
      .st0 {
        fill: #f9a320;
      }

      .st1 {
        fill: #ed7d24;
      }

      .st2 {
        fill: #faa21a;
      }

      .st3 {
        fill: #231f20;
      }

      .st4 {
        fill: #444;
      }

      .st5 {
        fill: #4832c3;
      }

      .st6 {
        fill: #17a84a;
      }

      .st7 {
        fill: #ef4523;
      }
    </style>
  </defs>
  <path class="st5" d="M62.5,16q181.3,0,201,5.6,1.3.4,2.7.8c26.8,7.9,49.7,22,69.8,41.2,1,.9,2,1.9,3,2.8,15.7,14.6,27.3,32.1,37,51.1.3.6.7,1.3,1,2,2,4.1,3.4,8.1,4.6,12.5-4.1,1.4-8.2,2.6-12.4,3.5q-1.9.4-3.8.9c-1.4.3-2.7.6-4.1.9-1.4.3-2.8.6-4.2.9-2.9.7-5.8,1.3-8.8,2-3.7.8-7.5,1.7-11.2,2.5-2.9.6-5.8,1.3-8.6,1.9-1.4.3-2.8.6-4.1.9-1.9.4-3.8.9-5.8,1.3-1.1.2-2.2.5-3.3.7q-2.7.4-5.7-.6c-1.3-2.1-2.5-4.2-3.6-6.4-13-23.8-35.2-40.5-61.1-48.1-33.5-9.1-78.5-4.2-107.3-4.5v234q50.1.1,100-3c3.9,3,5,4.1,7.2,8.2,1.1,1.8,2.3,3.6,3.4,5.3.6.9,1.1,1.8,1.7,2.8,2.6,4.2,5.6,8.1,8.6,12.1,1.1,1.6,2.3,3.1,3.4,4.7,2.7,3.6,5.4,7.2,8.1,10.7q1.1,1.4,2.2,2.9c1.4,1.9,2.9,3.7,4.3,5.6.6.8,1.3,1.7,2,2.5.6.7,1.2,1.5,1.7,2.3q1.4,2,2.4,5c-8.8,3.7-17.5,6.6-26.8,8.8q-1.2.3-2.5.6c-62.1,13.8-127.1,3.6-190.7,3.6V16Z"/>
  <path class="st5" d="M928.5,139q10.9,9.4,14,14c.3-9.9.7-19.8,1-30h70v271h-70c-.3-9.6-.7-19.1-1-29-1.9,2-3.9,4-5.9,6.1-13.2,13.3-29.1,22.1-47.1,26.9q-1.8.5-3.6,1c-20.8,4.6-46,4.2-66.4-2q-1-.3-2.1-.6c-23.2-7.3-44.6-22.5-59.9-41.4-.8-.9-1.5-1.9-2.3-2.8-12.6-15.6-21.3-33.5-26.5-52.8q-.3-1.1-.6-2.2c-3.2-12.7-4-25.5-3.9-38.5,0-.7,0-1.4,0-2.2,0-11.4.6-22.5,3.3-33.6.2-.7.3-1.4.5-2.1,5.3-21,14.2-40.5,28.5-56.9.7-.8,1.4-1.7,2.2-2.5,2.2-2.5,4.5-5,6.8-7.5q1-1.1,2-2.2c40-42.2,115.2-50.3,161-12.8ZM812.5,207c-10.6,12.8-17.3,29.3-18,46,0,.9,0,1.8-.1,2.7-.5,21.4,5.9,41.3,20.8,57,10.6,10.3,22.8,17.4,37.4,20.3.9.2,1.8.4,2.7.6,21.4,2.9,42.4-1.2,59.9-14.1,16.5-12.9,24.8-30.6,27.9-50.9,1.9-19.2-1.8-40.5-13.8-56.1-13-15.8-29.3-26-49.8-29.1-1.3-.1-2.7-.2-4-.2-1,0-2-.1-3-.2-23.1-.6-43.8,7.4-60,24.2Z"/>
  <path class="st5" d="M1427,148c1.5,1.3,3,2.7,4.5,4,.7.6,1.3,1.2,2,1.8,22.7,21.5,36.8,53.4,40,84.2.1,1,.2,1.9.3,2.9,1.5,15.4,1.5,32-2.3,47.1-66.7.3-133.3.7-202,1,6.8,17.8,15.4,31.5,33,40,23.6,9.3,51.4,11.2,75.1,1.3,9.6-4.2,16.6-9.9,23.9-17.3,1-1,2-2,3-3,12.8,7.1,25.6,14.3,38.2,21.7,5.9,3.5,11.9,6.9,17.8,10.3-.9,5.8-5.4,9.7-9,14-.7.8-1.4,1.7-2.1,2.5-15.3,17.8-35.4,29.8-57.6,36.7q-1.1.4-2.2.7c-15.3,4.5-30.9,5.6-46.7,5.5-.9,0-1.7,0-2.6,0-40.8-.2-77-12.5-106.7-41.2-27.8-28.5-39.4-65.6-39.2-104.8.7-41.4,16.7-75.8,45.6-104.9,50-47.2,135.8-46.8,187.1-2.6ZM1284.5,200c-.6.6-1.3,1.2-1.9,1.8-4.1,4.2-6.8,9-9.4,14.1-.3.7-.7,1.3-1,2-2.5,5.2-3.4,9.2-4.7,15.1h136c-4.7-18.8-12-32.9-28.5-43.5-29.2-16.8-66.5-13.4-90.5,10.5Z"/>
  <path class="st5" d="M649,150.8c25,22.9,40.2,55.6,43.5,89.2,0,2.7.2,5.3.2,8,0,.7,0,1.5,0,2.2,0,1.5,0,3.1,0,4.6,0,2.3,0,4.6,0,7,0,1.5,0,3,0,4.5,0,.7,0,1.3,0,2,0,6.8-1.2,12.6-2.3,19.6h-203q6.4,15.5,16,28c.7.7,1.3,1.4,2,2.1,17.1,16.6,40.6,18.3,63.1,18.1,7.3-.2,13.9-.9,20.9-3.2q1.5-.5,3-1c12.1-4.5,21.9-12,30-22,7.3,3.5,14.2,7.4,21.2,11.5,11.9,7,23.8,13.8,35.8,20.5-2.3,6-5.9,10.1-10,15-.6.8-1.3,1.5-1.9,2.3-15.2,17.9-36.7,30.1-59.1,36.5-.6.2-1.3.4-1.9.6-14.8,3.9-29.5,5.2-44.7,5.1-.9,0-1.7,0-2.6,0-14.2,0-27.9-1-41.7-4.4-.8-.2-1.5-.4-2.3-.6-21.7-5.7-41.3-16.2-57.7-31.4-.5-.5-1-.9-1.6-1.4-25.1-23.1-39.9-55.6-42.4-89.6-.7-16.8-.6-33.5,3-50,.1-.7.3-1.4.4-2,5.8-26,19.3-47.9,37.6-67q.9-.9,1.7-1.9c49.1-52.9,141.8-48,192.8-2.3ZM501.2,201.3c-8,9.3-12.1,19.9-14.8,31.7h136c-5.7-20-13.3-34.9-31.6-45.3-29.9-14.9-66.1-10.5-89.6,13.6Z"/>
  <path class="st5" d="M1075.5,0h71v394h-71V0Z"/>
  <path class="st5" d="M1674.5,118v79h-21c-16.9,2.5-35.5,8.3-46.7,22.1-10.6,14.5-13.7,29.7-13.7,47.5,0,1.4,0,2.8,0,4.2,0,3.8,0,7.5,0,11.3,0,3.9,0,7.9,0,11.8,0,7.4,0,14.9,0,22.3,0,10.1,0,20.1-.1,30.2,0,15.8-.1,31.7-.2,47.5h-71V123h71q.5,19.8,1,40c2.3-4,4.6-7.9,7-12,15.7-18.8,34.8-29.1,59.1-32.7,4.9-.4,9.9-.3,14.9-.3Z"/>
  <path class="st0" d="M1349.5,447h35v161h-35c-.3-2.6-.7-5.3-1-8q-.7.6-1.4,1.2c-13.1,10.3-26.3,11-42.6,9.8-13.4-2-25.4-11.7-33.3-22.3-10.2-16-13.4-34.3-10.1-52.9,4.1-17.1,13.2-30.6,28.1-39.9,11.9-7,25.1-8,38.6-5.9,7.5,2,15,5.4,20.6,10.9.3-17.8.7-35.6,1-54ZM1300.5,533c-5,6.6-5.6,15.3-4.7,23.4,1.7,8.1,5.9,14.2,12.7,18.6,7.5,3.7,15.6,4.2,23.6,1.9,6.3-2.4,11.4-6.7,14.8-12.6,3.5-7.9,3.5-17.3.6-25.4-3.3-7.1-7.9-12.1-15.3-14.9-12.2-3.5-23.3-.6-31.7,8.9Z"/>
  <path class="st0" d="M1549.5,500l1,1c.3-2.6.7-5.3,1-8h35v115h-35q-.5-4-1-8c-.9.9-1.9,1.8-2.9,2.8-8.4,7.2-18.2,8.4-28.8,8.5-.9,0-1.9,0-2.9,0-13.7,0-25.3-5-35.2-14.4-13.6-14.3-18.7-30.5-18.5-50,.8-14.6,5.5-28,15.2-39,.6-.8,1.2-1.5,1.9-2.3,8.7-9.7,20.8-15.4,33.7-16.6,13.6-.5,26,1.6,36.4,10.9ZM1503.5,532c-5.7,8.2-5.6,16.4-5,26,1.1,5.5,3.8,10.3,8,14,7.5,5,14,6.9,23,6,7.5-1.7,13.5-4.6,18-11,4.7-8,5.5-16.8,3.3-25.8-2.4-6.9-6.3-11.8-12.6-15.5-12.2-5.5-25.3-3.3-34.7,6.3Z"/>
  <path class="st0" d="M1230.8,500.5c12.3,13.4,13,29.5,12.9,46.8,0,1.8,0,3.5,0,5.3,0,4.6,0,9.2,0,13.8,0,5.5,0,11.1,0,16.6,0,8.4,0,16.7,0,25.1h-35q0-7.2-.1-14.6c0-3.1,0-6.1,0-9.2,0-4.8-.1-9.7-.1-14.5,0-3.9,0-7.8-.1-11.7,0-1.5,0-3,0-4.5,0-9.3-.4-17.3-5.2-25.4-4.1-3.8-8.8-5.3-14.3-5.5-5.9.3-10.4,1.9-14.8,5.9-6.1,8.4-5.7,18.9-5.7,28.9,0,1.5,0,2.9,0,4.4,0,3.8,0,7.6-.1,11.5,0,4.6,0,9.2-.1,13.8,0,7-.1,13.9-.2,20.9h-35v-115h35q.5,4,1,8c1-.9,1.9-1.8,2.9-2.8,16.5-14,43.6-11.8,59.4,2.2Z"/>
  <path class="st3" d="M1866.5,67h18v493h-18V67Z"/>
  <path class="st0" d="M1069.5,447h38v161h-38v-161Z"/>
  <path class="st2" d="M298.5,272c4.2,1.5,6.3,4.6,8.9,8.1,1,1.3,1.9,2.5,2.9,3.8.5.7,1,1.3,1.6,2,2.9,3.7,5.9,7.3,8.8,10.9,4.4,5.3,8.7,10.5,12.9,15.9,1.4,1.8,2.9,3.5,4.4,5.3.8,1,1.7,2,2.5,3,.8.9,1.5,1.8,2.3,2.7q1.7,2.3,1.7,5.3-1.6,1.6-4,3.4c-.9.7-1.8,1.4-2.8,2.1-.5.4-1,.8-1.6,1.2-3.2,2.5-6.3,5.1-9.4,7.6-5.7,4.6-11.4,9.2-17.2,13.6-4.7,3.7-9.3,7.5-13.8,11.5-3,2.6-5.6,4.3-9.3,5.5-.3-.4-.7-.9-1-1.4-6.4-8.4-12.9-16.9-19.4-25.3-3.1-4-6.2-8.1-9.3-12.1-4.4-5.8-8.8-11.5-13.3-17.2,3-4.1,6.4-7.1,10.4-10.1,4.8-3.7,9.5-7.4,14.1-11.4,6.1-5.3,12.5-10.3,18.9-15.2,3.9-3.1,7.8-6.2,11.6-9.3Z"/>
  <path class="st0" d="M1408.5,493h36v115h-36v-115Z"/>
  <path class="st6" d="M371.6,227.6c8,6.3,12.8,13.4,14.8,23.4,1,11.8-1.2,21.9-9,31-7.5,7.4-16.1,11.1-26.6,11.4-12-.4-20-4.5-28.2-13.2-6.5-7.9-8.5-16-8.2-26.2,1.4-11,6.2-19.4,14.8-26.5,12.9-8.7,29.5-8.8,42.4,0Z"/>
  <path class="st7" d="M363.5,151c3.3,1.7,4,5.5,5.3,8.8q.5,1.2,1,2.4c1.1,2.6,2.1,5.2,3.2,7.9,1.1,2.7,2.2,5.4,3.3,8,.7,1.8,1.4,3.6,2.2,5.3,2.1,5.2,4.2,10.3,6.4,15.4.5,1.1.9,2.2,1.4,3.4.9,2,1.7,4,2.6,6,.4.9.7,1.8,1.1,2.7.3.7.6,1.5,1,2.3q.7,1.8.7,3.8c-8.6-.6-17.2-1.4-25.7-2.6-1.1-.2-2.3-.3-3.5-.5-2.4-.3-4.8-.6-7.2-1-3.7-.5-7.4-1-11-1.5-2.3-.3-4.7-.6-7-.9-1.1-.1-2.2-.3-3.3-.4q-1.5-.2-3.1-.4c-.9-.1-1.8-.2-2.7-.4-2.2-.3-4.3-.8-6.4-1.4,1.6-5.2,4.8-8.9,8.2-13.1,1.3-1.6,2.5-3.2,3.8-4.8.7-.8,1.3-1.7,2-2.5,3.3-4.2,6.5-8.5,9.7-12.8,6-8,12.1-15.9,18.3-23.8Z"/>
  <path class="st0" d="M1440.5,446c4,3.9,6.6,8,7.3,13.6.1,7.4-.9,12.6-5.9,18.1-4.4,4.1-8.6,6.2-14.8,6.3-6.5-.4-11.3-1.8-16.1-6.4-4.9-5.6-6-10.6-5.8-17.8.7-6,3.3-10.1,7.6-14.2,8.6-6.7,19.2-5.7,27.8.4Z"/>
  <path class="st3" d="M2060.5,89.1c7.1-.1,14.2-.2,21.3-.2,2.4,0,4.8,0,7.2,0,3.5,0,7,0,10.4,0,1.1,0,2.1,0,3.2,0,9.5,0,17.2,2.3,25.1,7.9,4.9,6.7,6.4,13.9,5.8,22.2-1.5,7.3-4.6,12.2-10,17.3-11,6.3-22.8,4.7-35.2,4.4.5,10.6,1,21.3,1.5,32.2,3.9.5,7.7,1,11.7,1.5v5.9h-41v-5.9q4.4-.7,8.8-1.5v-74.7c-2.9-1-5.8-1.9-8.8-2.9v-5.9ZM2088.3,94.9v38.1c8.4,1.4,11.4,1.5,19-1.5,5-4,7-7.1,7.7-13.6.2-8.4-.2-13.6-6.2-20.1-6.9-4.3-11.7-2.9-20.5-2.9Z"/>
  <path class="st3" d="M2545.5,84.7c.5,29,1,58,1.5,87.9,1.9.5,3.9,1,5.9,1.5v5.9q-11.6.7-23.4,1.5c-.5-1.5-1-2.9-1.5-4.4-1.5.7-2.9,1.5-4.4,2.2-7,3-13.5,3.5-20.7,1.2-7.1-3.1-10.7-6.7-14.4-13.6-3.4-10.2-3.7-26.4,1-36.4,4.9-6.8,9.9-11.2,18-13.5,9.8-.8,12.1.1,22,4.4-.5-8.7-1-17.4-1.5-26.4-2.9-1-5.8-1.9-8.8-2.9v-5.9c3.8-.2,7.7-.5,11.5-.7q1.6-.1,3.3-.2,8.3-.5,11.5-.5ZM2507.4,128.6c-5.7,10.5-6.5,22.9-3.4,34.5,2.3,5.2,4.1,7.5,9,10.5,6.3.6,9.3-1,14.9-3.9,3.9-3.9,2-15,2.1-20.2q.1-2.6.2-5.3c0-4.8,0-9.2-.8-14q-3.7-4.4-8.8-5.9c-6.5,0-8.3.4-13.2,4.4Z"/>
  <path class="st3" d="M2615.8,84.7c.5,12.6,1,25.1,1.5,38.1,3.4-1.9,6.8-3.9,10.3-5.9,5.8-1.3,10.8-.3,16.4,1.6,7.2,4.8,11.8,10.7,14.4,18.9,1.2,11.9,1.7,23.8-5.9,33.7-4.8,5.9-8.7,8.7-16.1,10.3-8.6.7-15.1-.7-23.3-3.4q-3-1.1-6-1c-.5,1.5-1,2.9-1.5,4.4h-5.9c-.5-28.5-1-57.1-1.5-86.5q-3.6-1.5-7.3-2.9v-5.9c3.6-.2,7.2-.5,10.8-.7,1,0,2-.1,3.1-.2q7.7-.5,11-.5ZM2617.3,131.6c-2.9,5.9-1.8,13.3-1.8,19.7,0,1.6,0,3.1,0,4.7,0,1.5,0,3,0,4.5,0,1.4,0,2.7,0,4.2.6,4.2,1.6,5.4,4.9,7.9,4.5,2.3,8.2,1.9,13.2,1.5,5.6-3.9,7-8.2,8.8-14.7,1.1-11.1.5-20.7-4.4-30.8q-2.8-3.4-7.8-3.5c-6.2.6-8.4,2.1-12.7,6.4Z"/>
  <path class="st3" d="M2196.7,118.4h30.8v5.9l-5.9,1.5c2.2,11,5.4,21.6,8.8,32.2,4.6-10.6,8.7-21.1,11.7-32.2l-4.4-1.5v-5.9h27.8v5.9c-1.5.5-2.9,1-4.4,1.5.9,7.3,2.4,14,4.4,21.1.5,1.8,1,3.6,1.6,5.4q1,4.1,2.8,5.7c1.5-4.3,2.9-8.5,4.4-12.8q.6-1.8,1.3-3.7c.4-1.2.8-2.3,1.2-3.5q.6-1.6,1.1-3.3,1.1-3.5.8-8.9c-1.5-.5-2.9-1-4.4-1.5v-5.9h20.5v5.9c-.9.2-1.7.5-2.6.8-4.9,3.3-6,8.2-7.9,13.6-.4,1.1-.8,2.3-1.2,3.4-1.3,3.6-2.6,7.2-3.9,10.8-.9,2.4-1.8,4.9-2.6,7.3-1.2,3.4-2.5,6.8-3.7,10.3q-2.8,7.8-4.4,11-4.4-.7-8.8-1.5c-.3-1.1-.7-2.2-1.1-3.3-1.6-4.9-3.1-9.8-4.7-14.7-.5-1.7-1.1-3.4-1.7-5.2-.5-1.6-1-3.3-1.6-5-.5-1.5-1-3-1.5-4.6-.9-2.8-1.8-5.5-2.7-8.3-5.3,14-10.6,28-16.1,42.5q-5.1-.7-10.3-1.5-.8-2.4-1.5-4.8c-1.9-5.9-3.8-11.7-5.7-17.6-.8-2.5-1.6-5.1-2.4-7.6-1.2-3.7-2.3-7.3-3.5-10.9-.4-1.1-.7-2.3-1.1-3.5q-2-6.2-6.6-10.6-1.3-.4-2.7-.7v-5.9Z"/>
  <path class="st3" d="M2182.1,121.3c7.2,6.4,11.2,13.1,12,22.8.4,10.3-.2,19.2-7.4,27-8.3,7.6-14.9,11-26.2,10.7-9.6-1-16.3-4.6-22.5-12.1-5.9-9.9-5.5-19.5-4.4-30.8,2.4-8.8,7.3-14,14.7-19,10.7-5,23.5-4.6,33.7,1.5ZM2156.3,125.9c-8.3,10.1-7.5,22.6-6.4,35,1.9,6.6,4.4,10.8,10.3,14.7,5.4-.1,8-.8,12.1-4.3,6.3-11,6.4-23.1,4-35.3-2.3-6.1-4.5-10-10.3-13.2q-5.9-.6-9.7,3.1Z"/>
  <path class="st3" d="M2467.8,121.3c6.1,5.8,8.6,10.9,10.3,19v7.3h-42.5q2.8,15.5,10.3,22c4.7,2.4,9.5,2.2,14.7,1.5,5.8-3,9.5-5.5,11.7-11.7,1.9.5,3.9,1,5.9,1.5-1.9,7.4-4.3,11.4-10.3,16.1-9,4.9-18.1,5.8-28,3.8-8-2.4-12.9-7-17.4-14-4.4-9-4.4-19.9-2.2-29.6,2.7-6.9,7.1-13.6,13.6-17.4,11.1-4.7,23.4-4.6,34,1.5ZM2440,127.2c-2.7,5.2-4.4,8.8-4.4,14.7h27.8q-.4-10.8-3.9-15.3c-7.1-4.8-13-5-19.5.6Z"/>
  <path class="st3" d="M2346.2,121.3c4.2,3.9,7,7.7,8.8,13.2v13.2h-41q2.5,12.4,8.8,22c7,2.3,13.4,2.6,20.1-.3,3.7-3,6.4-6.2,9.2-10,1,.5,1.9,1,2.9,1.5-.1,4.5-.6,7.7-3.5,11.2-8.2,7.3-15.9,9.9-26.8,9.7-9.6-1-16.3-4.6-22.4-12.1-5.9-9.9-5.5-19.5-4.4-30.8,2.4-8.8,7.3-14,14.7-19,10.7-5,23.5-4.6,33.7,1.5ZM2318.4,127.2c-3.4,5.5-4.4,8.2-4.4,14.7h27.8q-1.6-12.4-6.4-16.9c-6.8-3.7-11.2-2.2-17,2.3Z"/>
  <path class="st3" d="M2659.8,118.4h32.2v5.9l-5.9,1.5c2.7,8.4,5.7,16.6,9.1,24.7q1.1,3.2,1.1,7.6h2.9c.1-1.1.2-2.2.4-3.4,1.3-6.2,3.4-11.7,5.7-17.6,1.2-4,1.5-7.1,1.2-11.3l-5.9-1.5v-5.9h22v5.9c-.9.6-1.7,1.1-2.6,1.7-5.2,4.2-6.5,9.9-8.7,16.1-.5,1.3-1,2.7-1.5,4-1.6,4.2-3.1,8.5-4.7,12.8-1.5,4.2-3.1,8.5-4.7,12.7-1,2.6-1.9,5.3-2.9,7.9q-8.3,22.5-17.4,28.3-3.4.6-6.8.5-1.7,0-3.4,0c-1-.2-2-.4-3-.6q-2.9-4.4-2.5-8.2t2.5-4.9c5.9-.4,9.5.1,14.7,2.9,1.3-2.7,2.6-5.5,3.8-8.2.7-1.5,1.4-3.1,2.2-4.6,2.9-10.4-5.3-22.5-9.6-32.1-.9-2-1.7-3.9-2.6-5.9-1.2-2.9-2.5-5.7-3.8-8.6-.7-1.7-1.5-3.4-2.2-5.2-2.8-4.7-5.2-5.9-9.9-8.7v-5.9Z"/>
  <path class="st3" d="M2385.8,116.9c.5,3.4,1,6.8,1.5,10.3,1.1-1.4,2.3-2.8,3.5-4.3,2.3-2.8,3.5-4.3,6.8-6q3.1,0,6.6.4c1.2,0,2.3.2,3.5.3q3.1.8,6,5.2.4,5.2,0,10.3-2.9,2.9-7.3,3.3t-7.3-3.3q-.9-3.8-1.5-7.3c-5.9,5.4-8.4,11.9-9.2,19.8-.1,3.9,0,7.7,0,11.6,0,1.3,0,2.7,0,4q-.5,6.2,1.8,11.4c3.4.5,6.8,1,10.3,1.5v5.9h-39.6v-5.9q5.1-.7,10.3-1.5c-.5-15-1-30-1.5-45.4-2.9-1-5.8-1.9-8.8-2.9v-5.9c3.3-.2,6.7-.5,10-.7q2.8-.2,5.6-.4c3.1-.2,6.2-.3,9.3-.3Z"/>
  <g>
    <path class="st4" d="M2157.2,259.4q84.6,0,97.2,10.4c10.4,11.6,11.8,24.9,11.6,39.8-.7,12.5-5.8,20.5-15,28.9-3.3,2.3-6.6,4.1-10.3,5.9l3.2,1.9c11.3,10.8,14,28.4,17.8,43,.5,2,1.1,4.1,1.6,6.1,1.3,4.9,2.6,9.9,3.8,14.8,3.4-5,4.8-10.1,6.5-15.8.3-1.2.7-2.3,1-3.5,1.1-3.9,2.3-7.7,3.4-11.6.8-2.7,1.6-5.4,2.4-8.1,2.1-7.1,4.2-14.2,6.3-21.4,3.3-11.3,6.7-22.7,10.1-34,1.2-3.9,2.3-7.9,3.5-11.8,4.4-15,9-29.9,13.7-44.8h46.9q11.6,40.9,16.5,58.3c.3,1.1.6,2.2,1,3.4,1.3,4.5,2.6,9,3.8,13.5,3.7,13.1,7.4,26.2,11.2,39.4,1.8,6.3,3.6,12.6,5.4,18.9.8,2.9,1.6,5.8,2.5,8.7,1.1,3.9,2.2,7.9,3.4,11.9.3,1.1.7,2.3,1,3.5q2.2,7.8,2.2,11h-44c-1.2-5.3-2.4-10.5-3.7-15.9-.4-1.7-.8-3.3-1.2-5-.3-1.3-.6-2.6-.9-3.9-.3-1.3-.6-2.7-.9-4q-.7-3.3-.7-6.2h-42.5c-1,4.8-1.9,9.7-2.9,14.7-1.9,6.8-3.9,13.5-5.9,20.5h-77.7c-3.7-13.7-7.3-27.4-10.5-41.2q-2.9-12.7-11.5-21.8c-2.4-.5-4.8-1-7.3-1.5v64.5h-41v-168.5ZM2196.7,293.1v36.6q11,.4,20.5-2.9c4.8-5.1,6.3-9.3,6.7-16.1-.2-5.2-.9-8.4-4.1-12.5-7.4-6.6-12.7-5-23.1-5ZM2336,297.5c-2.1,8.5-4.2,17.1-6.3,25.6-.7,2.9-1.4,5.8-2.1,8.7-1,4.2-2,8.3-3.1,12.5-.3,1.3-.6,2.6-1,4q-1.5,5.3-2.2,10.8h27.8c-1.4-7.6-2.9-15.2-4.3-22.8-.5-2.6-1-5.2-1.5-7.7-.7-3.7-1.4-7.4-2.1-11.1-.2-1.1-.4-2.3-.7-3.5-1-5.5-2.1-11-3.2-16.4h-1.5Z"/>
    <path class="st4" d="M2409.2,259.4h48.4c2.4,7.1,4.8,14.2,7.3,21.5,1.5,4.5,3,9,4.6,13.5,2.4,7.2,4.8,14.3,7.2,21.5,1.9,5.8,3.9,11.5,5.8,17.3.7,2.2,1.5,4.4,2.2,6.6,1,3.1,2.1,6.2,3.1,9.2.6,1.8,1.2,3.5,1.8,5.3,1.4,4,3,8,4.6,12,.5-35.3,1-70.6,1.5-107h36.6v168.5h-49.8c-11.6-34.8-23.2-69.6-35.2-105.5-.5,34.8-1,69.6-1.5,105.5h-36.6v-168.5Z"/>
    <path class="st4" d="M2662.7,259.4h41v64.5h29.3v-64.5h42.5v168.5h-42.5v-67.4h-29.3v67.4h-41v-168.5Z"/>
    <path class="st4" d="M2955.8,259.4h92.3v35.2h-51.3v30.8h48.4v33.7h-48.4v35.2h54.2v33.7h-95.2v-168.5Z"/>
    <path class="st4" d="M2936.8,263.8c-.5,10.6-1,21.3-1.5,32.2-5.4,1.8-6.7.9-11.9-1.3-11.4-4.3-20.6-6.2-32.3-1.7q-3,1.4-5.1,4.8c-.7,5.3-.5,9.1.9,14.3,4.7,4.3,9.6,7.3,15.3,10.1,1.5.8,3,1.5,4.6,2.3,3.1,1.6,6.3,3.2,9.4,4.7,12.1,6.3,21.5,13.9,26.6,26.9,4.8,17.5,2.3,37.4-6.5,53-8.3,12.7-21.9,18.4-36.3,21.7-5,.6-10,.6-15,.5-1.3,0-2.7,0-4,0-12.7-.3-24.5-2.4-36.6-6.4.2-4.7.4-9.4.6-14.1,0-1.3.1-2.6.2-4,.3-6.8.8-13.3,2.1-20,2,.7,4,1.3,6,2,1.2.4,2.4.8,3.7,1.2,2.6.9,5.1,1.8,7.7,2.8,8.7,2.4,18.1,4.4,26.7.8q4.3-2.2,7.2-5.4,1.7-8.9,0-17.6-2.6-2.2-6-4c-1.3-.7-2.6-1.5-4-2.3-3.5-1.8-7-3.6-10.6-5.3-15.6-7.4-27.3-14-33.7-30.9-3.9-13.6-3.8-32.6,2.5-45.3,9.1-14.3,20.2-22.1,36.7-25.7,18.4-2.8,36.1-.7,53.2,6.6Z"/>
    <path class="st4" d="M2653.9,263.8c-.2,4.7-.4,9.3-.6,14,0,1.3-.1,2.6-.2,4-.3,7.3-.9,14.4-2.1,21.6-1.2-.5-2.4-1-3.6-1.6-1.6-.7-3.2-1.3-4.8-2-1.6-.7-3.1-1.3-4.7-2-10.5-4.2-20.2-4.7-31.1-1-9,4-13.5,9.9-17.3,18.8-6.2,18.3-6.4,39.7,1.7,57.4,5.6,9.9,13,16,24,19.2,10.9,1.8,20.4-.5,30.2-5.4q2.7-1.4,7.1-2.8c1.5,13.7,1.6,27.3,1.5,41-2.3.7-4.6,1.4-6.9,2.1-1.3.4-2.6.8-3.9,1.2-20.8,5.9-45.7,5.1-64.9-5.4-17.4-11-28.8-27.4-34.2-47.1-6.9-31.9-4.7-65,13.2-93,9.9-13.5,25.6-22.1,41.9-25.6,18.7-2.5,37.4-1,54.9,6.5Z"/>
    <path class="st4" d="M2060.5,259.4h89.4v35.2h-48.4v32.2h46.9v33.7h-46.9v67.4h-41v-168.5Z"/>
    <path class="st4" d="M3146.3,259.4h23.4c4.4,8.4,8.1,16.9,11.5,25.8.5,1.4,1.1,2.7,1.6,4.1,1.7,4.3,3.4,8.7,5,13,11.3,29.2,23,58.3,34.6,87.5.5-43,1-86.1,1.5-130.4h19v168.5h-24.9c-5.8-13.8-11.4-27.6-16.9-41.5-.9-2.3-1.8-4.5-2.7-6.8-2.4-5.9-4.7-11.8-7.1-17.7-2.4-6-4.8-12-7.2-18-4.2-10.5-8.4-21.1-12.6-31.6-1.6-4-3.2-8-4.8-12-.5,42.1-1,84.1-1.5,127.5h-19v-168.5Z"/>
    <path class="st4" d="M3265,259.4q56.8,0,73.3,13.2c.9.7,1.8,1.4,2.7,2.1,12.9,11.4,20.7,30.8,22.2,47.7,1.7,31.2,0,59.8-18.9,85.8-10.8,11.8-24.5,16.3-39.7,19.7h-39.6v-168.5ZM3285.5,279.9v129c17.7,0,29.7-1.1,42.5-13.2,15.6-16.3,15.2-41,15-62-.4-15.6-4-30.3-14.7-42-13.6-12.8-22.8-11.7-42.8-11.7Z"/>
    <path class="st4" d="M3457.2,259.3q2.8,0,5.7,0c1.9,0,3.8,0,5.7,0,1.5,0,2.9,0,4.4,0,4.5,11.1,7.6,22.5,10.8,34,.6,2.2,1.2,4.4,1.9,6.6,1.6,5.8,3.3,11.6,4.9,17.4,1.6,5.7,3.2,11.5,4.8,17.2,1.9,6.8,3.8,13.6,5.7,20.4,2.8,10.1,5.7,20.3,8.6,30.4,1.2,4.4,2.5,8.7,3.7,13.1.6,2.1,1.2,4.1,1.8,6.2.8,2.8,1.6,5.6,2.4,8.5.5,1.6.9,3.2,1.4,4.8q1,4.1,1,10h-20.5c-1.7-6.3-3.4-12.5-5.1-18.8-.5-1.8-1-3.6-1.5-5.4-.5-1.7-.9-3.4-1.4-5.2-.4-1.6-.9-3.1-1.3-4.8q-.9-4-.9-8.4c-17.9.5-35.8,1-54.2,1.5q-3.3,13-6.6,25.9-.6,2.4-1.3,4.9l-1.3,5q-1.1,3.8-2.6,5.3c-3.2.1-6.4.1-9.6,0-1.8,0-3.5,0-5.3,0q-2,0-4.1,0c.9-11.3,4.2-21.9,7.5-32.7.6-2.1,1.2-4.1,1.8-6.2,1.6-5.5,3.3-11,4.9-16.5,1.7-5.7,3.4-11.3,5-17,.7-2.3,1.3-4.5,2-6.8.3-1.1.7-2.2,1-3.4,1-3.4,2-6.7,3-10.1,3.7-12.5,7.4-25.1,11-37.7.4-1.3.8-2.7,1.2-4.1,1.7-5.9,3.4-11.9,5.1-17.8.6-2,1.2-4,1.7-6.1.5-1.7,1-3.4,1.5-5.1q1.6-5.1,7.3-5.3ZM3461.4,285.8c-2.9,10.6-5.9,21.1-8.8,31.7-1,3.6-2,7.2-3,10.8-1.4,5.2-2.9,10.3-4.3,15.5-.4,1.6-.9,3.2-1.4,4.9-.4,1.5-.8,3-1.2,4.5q-.5,2-1.1,4t-.8,7.8h42.5c-4.1-18-8.7-35.8-13.6-53.6-.7-2.5-1.4-5-2-7.5-1.6-6-3.3-12-4.9-18.1h-1.5Z"/>
    <path class="st4" d="M2790.2,259.4h42.5v168.5h-42.5v-168.5Z"/>
    <path class="st4" d="M3103.8,259.4h20.5v168.5h-20.5v-168.5Z"/>
    <path class="st4" d="M3380.8,259.4h19v168.5h-19v-168.5Z"/>
    <path class="st1" d="M2862,466h19c.5,1.9,1,3.9,1.5,5.9.9-1,1.8-1.9,2.7-2.9,6.7-4.2,13.1-4,20.8-2.9,1.5,1,2.9,1.9,4.4,2.9v2.9c1.1-1,2.2-1.9,3.3-2.9,6.8-4.6,15.3-4.2,23.1-2.9,3.3,2.2,4.2,3.5,5,7.4-.1,13.9-2.6,27.4-5,41,1.5-.5,2.9-1,4.4-1.5q1.8-4.4,2.9-8.8h7.3q-1.9,11.8-5.2,16.2c-5.5,2.1-11,2.7-16.8,1.4q-3.4-2.4-5.9-5.9-.4-4,.2-8.6.3-2.5.6-5c.2-1.8.5-3.6.7-5.4.3-1.9.5-3.8.8-5.8.7-4.9,1.4-9.8,2.2-14.7q-4.3-2-8.1,0c-9.1,7-9.6,18.4-11.3,29q-.4,2.4-.8,4.8c-.6,3.8-1.3,7.7-1.9,11.6h-13.2c1.1-15.3,3.5-30.3,5.9-45.4-5.6-1.9-7.9-1-13.2,1.5q-2.1,3.1-2.9,7.3-.4,1.3-.7,2.6c-2.3,9.2-3.3,18.6-4.5,28q-.7,4.5-2.1,6c-3.9.2-7.8,0-11.7,0,.8-15.3,2.2-30.3,4.4-45.4-1.9-.5-3.9-1-5.9-1.5v-8.8Z"/>
    <path class="st1" d="M2343.3,436.7h22c-1.8,18.8-4.2,37.4-6.9,56.1-.2,1.8-.5,3.5-.8,5.3-.2,1.6-.5,3.1-.7,4.8q-.6,4.4-.5,10c1.5.5,2.9,1,4.4,1.5.5-3.4,1-6.8,1.5-10.3h7.3q-.7,10.4-3.7,15.4c-5.5,3.3-10.6,3.4-16.9,2.2q-4.5-2.9-7.3-5.9c-1.1,1-2.3,1.9-3.5,2.9-6.3,4.1-12.7,4.3-20,2.9-5.3-2.8-8.3-5.9-10.3-11.7-.9-13.2-1.3-26.7,6.3-38,4.1-4.4,7.1-5.8,13.1-6.6q13-.3,18.7,3.6c1.5-7.7,2.9-15.5,4.4-23.4h-8.8c.5-2.9,1-5.8,1.5-8.8ZM2327.2,476.3c-4.8,9.5-6.5,20.1-5.9,30.8q1.7,3.5,4.4,5.9,4.3,1.1,8.8,0c8.6-6.6,10.1-14,11.6-24.3.5-6.1.5-7.4-3.1-12.6-5.7-3.7-10.5-3.8-15.8.3Z"/>
    <path class="st1" d="M3164.1,465.9q2.8,0,5.7,0c1.9,0,3.8,0,5.7,0,1.5,0,2.9,0,4.4,0-1,9.6-2.9,18.9-5,28.3-.9,5.4-1.2,10.2-.9,15.7l1.5,1.5q5.1-.3,10.3-1.5c2.8-4.1,3.4-5.8,4.1-10.4.2-1.2.4-2.3.6-3.5.2-1.2.4-2.4.5-3.6.4-2.4.7-4.8,1.1-7.1.2-1.1.3-2.1.5-3.2q.5-2.9,2-7.2h-5.9v-8.8h22c-.4,1.8-.8,3.6-1.3,5.5-3.1,13.5-5.6,26.1-4.6,40q4.9.7,10.3,0c5.6-6.1,8.5-14,10.3-22-.4-4.2-1.1-6.6-2.9-10.3q-.3-5.1,0-10.3,2.9-2.9,7.3-3.3t7.3,3.3c.5,8.2-.4,15.5-2.5,23.4-.3,1-.5,2-.8,3.1-2.5,9.4-5.9,16.6-13,23.2-6.5,3.7-13.1,3.8-20.3,3-2.5-1.4-4.9-2.9-7.3-4.4q-4,.9-7.3,2.9c-5.1,2.5-10.6,2-16.1,1.5-4.7-1.9-6.6-3.1-9-7.6-3.6-11.8.1-26.2,3.1-37.8-1.9-.5-3.9-1-5.9-1.5,0-2.4,0-4.9,0-7.3q1.5-1.5,6.1-1.6Z"/>
    <path class="st1" d="M2569,441.1h57.1c0,8.1-.2,14.3-1.5,22h-8.8v-13.2q-11.6.7-23.4,1.5c-1,7.3-1.9,14.5-2.9,22,2.9.5,5.8,1,8.8,1.5,0-1.4,0-2.8,0-4.2q0-4.6,1.6-7.5h7.3c-.4,4.5-.9,9.1-1.4,13.6-.1,1.3-.3,2.6-.4,3.9-.1,1.2-.3,2.5-.4,3.8-.1,1.1-.2,2.3-.3,3.5q-.4,3.1-1.9,7.5h-7.3c.5-4.4,1-8.7,1.5-13.2-2.9.5-5.8,1-8.8,1.5-1.5,9.7-2.9,19.3-4.4,29.3h10.3c0,2.4,0,4.9,0,7.3q-1.5,1.5-4.7,1.6c-1.4,0-2.8,0-4.3,0q-2.3,0-4.6,0c-1.6,0-3.2,0-4.8,0q-2.4,0-4.9,0c-4,0-7.9,0-11.9,0q.7-4.4,1.5-8.8,4.4-.7,8.8-1.5c2.9-20.3,5.8-40.6,8.8-61.5h-8.8v-8.8Z"/>
    <path class="st1" d="M2754.7,440.9q1.7,0,3.4,0c1.3,0,2.5,0,3.8,0,1.4,0,2.7,0,4.2,0,1.4,0,2.8,0,4.2,0,4.5,0,9,0,13.4,0,3,0,6.1,0,9.1,0,7.4,0,14.9,0,22.3,0-.5,7.3-1,14.5-1.5,22h-10.3c.5-4.4,1-8.7,1.5-13.2h-16.1c0,1.1-.1,2.2-.2,3.4-.9,13-2.5,25.9-4.3,38.9-.3,2-.6,4.1-.8,6.1-.7,4.9-1.3,9.8-2,14.7h10.3l-1.5,8.8h-35.2q.7-4.4,1.5-8.8h10.3c.1-1,.2-2,.4-3,1.2-9.7,2.3-19.3,3.5-29,.5-4.1,1-8.2,1.5-12.2.3-2.1.5-4.2.8-6.3.2-1.8.4-3.6.7-5.5q.6-4.1,2.1-7.1h-16.1c-.2,1.9-.4,3.8-.6,5.8q-.6,5.8-2.3,7.4c-2.9,0-5.9,0-8.8,0,.5-3.4.9-6.8,1.4-10.2.3-1.9.5-3.8.8-5.7q1-6,4.8-6.3Z"/>
    <path class="st1" d="M2449.5,465.6c1.7,0,3.4,0,5.1-.1q4.4.5,7.2,2.7c.5.7,1.1,1.4,1.6,2.2,1-1.5,1.9-2.9,2.9-4.4h11.7c-2.4,16-4.8,31.9-7.3,48.4,1.5-.5,2.9-1,4.4-1.5q1.8-4.4,2.9-8.8h5.9q-.5,11.9-3.7,16.2c-5.6,2.1-10.9,2.4-16.9,1.4q-3.8-2.9-5.9-5.9c-.6.7-1.3,1.4-1.9,2.1-4.9,4.5-10.5,4.2-16.8,4.1-4.6-.4-7.1-1.6-10.6-4.7-5.6-7.7-5.3-15.8-4.4-24.9,1.7-10.1,4.2-17.8,11.7-24.9,4.9-1.6,8.8-1.8,13.9-1.8ZM2444.9,475.5c-7.9,8.3-6.8,19.6-6.8,30.4q0,4.3,3.3,7,4.2,1,8.8,0c8.1-6.8,10.4-16.1,11.7-26.4q-.5-6.5-4.1-11.5c-5-2.6-8.1-2.2-12.9.5Z"/>
    <path class="st1" d="M2642.8,465.5c1.9,0,3.8,0,5.7-.1,6.3.8,9.4,2.5,14.3,6.5,6.1,10.5,5.3,20.7,2.5,32.1-2.3,7.1-6.4,12.4-12.7,16.3-9.1,3-19.8,2.7-28.8-.4-5.1-3.8-7.3-6.8-9.3-12.8-1.1-12.6-.2-25.1,8-35.2,6.9-5.4,11.5-6.3,20.4-6.4ZM2634.4,475.6c-5.9,8.6-6.9,19.7-6.9,29.9q1.1,4.7,4.4,7.3,4.9,2,10.3,1.5c6-4.1,8.4-8.5,9.8-15.5q1.9-12.4-1.5-23.8c-5.3-3.6-11-2.9-16.1.6Z"/>
    <path class="st1" d="M3127.8,465.5c1.9,0,3.8,0,5.7-.1,6.3.8,9.4,2.5,14.3,6.5,6.1,10.5,5.3,20.7,2.5,32.1-2.3,7.1-6.4,12.4-12.7,16.3-9.1,3-19.8,2.7-28.8-.4-5.1-3.8-7.3-6.8-9.3-12.8-1.1-12.6-.2-25.1,8-35.2,6.9-5.4,11.5-6.3,20.4-6.4ZM3119.5,475.7c-6,8.5-7.4,19.6-6.9,29.9q1.7,4.1,4.4,7.3,4.9,2,10.3,1.5c6-4.1,8.4-8.5,9.8-15.5q1.9-12.4-1.5-23.8c-5.3-3.7-11.1-2.9-16.1.7Z"/>
    <path class="st1" d="M2981.8,465.6c1,0,2.1,0,3.1-.1,7.5,0,11.8,1.4,17.8,6.4,5.6,7.4,3.5,19,2.9,27.8-1.6,8.2-5.2,13.8-11.7,19-8.1,3.9-16.1,3.7-24.9,2.9-5.4-2-9.6-4.2-13.2-8.8-3.4-10.2-3.1-24,1-34,5.8-10.9,13.4-13.2,25-13.4ZM2972.8,476.2c-5.2,9.8-6.8,21.3-5.3,32.3q1.9,4.2,5.9,5.9c4.2.4,7.7,0,11.7-1.5,6.9-6.9,7-19.9,7.8-29.2q-.2-4.4-1.9-8.1c-3.8-3-7.1-3.2-11.8-2.9q-3.2.5-6.3,3.5Z"/>
    <path class="st1" d="M2830.9,465.6c1,0,2.1,0,3.1-.1,7.5,0,11.8,1.4,17.8,6.4,5.6,7.4,4,20.4,2.9,29.3-2.1,7.9-5.4,14.2-12.5,18.5-9.3,3.7-19.8,3.4-29.2.4-4.6-3.4-7.7-6.1-9.5-11.5-1.5-12.4-.8-24.3,5.9-35.2,7-6.8,12.2-7.7,21.6-7.8ZM2821.9,476.1c-4.9,9.5-7,21.8-5.3,32.4q2.1,3.9,5.9,5.9c4.8.7,7.6.7,11.8-1.7,6.7-6.4,7.4-18.7,7.8-27.6-.2-3.8-.6-6.1-2-9.6-3.8-2.7-7.2-3-11.8-2.7q-3.2.5-6.3,3.4Z"/>
    <path class="st1" d="M2399.6,465.5c1.9,0,3.8,0,5.8-.1,6.1.8,8.4,2.2,12.6,6.5,1.4,4.3,1.7,7.3,1.6,11.8q0,1.9,0,3.9t-1.7,6.3h-30.8q-.7,11.9,1.5,17.6c4.4.9,8.7,1.5,13.2,1.5,3.7-2.7,5.3-4.7,7.3-8.8h8.8q-2.8,11.8-7.9,16.2c-9.9,2.5-19.9,2.8-29.7-.3-4.6-3.7-6.1-5.8-7.9-11.5-1.4-13,0-25.5,7.2-36.6,6.2-6,11.3-6.3,19.8-6.4ZM2391.8,475c-2.2,3.7-2.6,7.2-3.1,11.5h17.6c0-1.9,0-3.8,0-5.8,0-1.1,0-2.1,0-3.2q.2-2.7-1.6-4.2-6.8-.6-13,1.6Z"/>
    <path class="st1" d="M2281.7,441.1h33.7v8.8c-3.4.5-6.8,1-10.3,1.5-.2,1.7-.4,3.3-.6,5-.8,6.2-1.6,12.3-2.4,18.5-.3,2.7-.7,5.3-1,8-.5,3.8-1,7.7-1.5,11.5-.2,1.2-.3,2.4-.5,3.6-.7,5.1-1.4,10-2.7,15h10.3l-1.5,8.8h-33.7v-8.8q5.1-.7,10.3-1.5c2.9-20.3,5.8-40.6,8.8-61.5h-10.3c.5-2.9,1-5.8,1.5-8.8Z"/>
    <path class="st1" d="M2511,465.4c1.9,0,3.8,0,5.8,0,6.1.8,8.5,2.1,12.6,6.6,1.1,4.3.5,7.2,0,11.7-1,1-1.9,1.9-2.9,2.9q-4.6-.5-8.8-1.5-.2-8.4,1.5-11.7-7.4-.2-14.7,1.5-1.5,2.7-1.5,5.9c3.3,4.2,6.8,5.6,11.7,7.3q8.7,3.1,11.7,7.3c1.2,6.4,1.5,13.2-1.5,19.1-3.1,3.9-5.5,5.7-10.2,7.3q-19.2,1.4-26.4-4.4c-2.5-5.6-3.4-8.7-1.6-14.6q.8-1.5,1.6-3c2.9,0,5.9,0,8.8,0q1.5,1.5,1.6,5.8t-1.6,7.4h14.7q1.5-5.1,2.9-10.3c-1.2-.4-2.4-.7-3.7-1.1-7.2-2.6-14.1-5.2-19.8-10.3-2.2-4.7-2-8.3-1.5-13.5,4.6-10.2,10.2-12.4,21.2-12.4Z"/>
    <path class="st1" d="M3058.4,466h19c.5,1.9,1,3.9,1.5,5.9q1-1.5,2.1-2.9c4.9-3.8,8.1-3.5,14.1-3.3q2.8.3,4.3,1.8c.2,2.4.3,4.8.3,7.2,0,1.3,0,2.6,0,4q-.3,3.4-3.3,6.4-4.6.2-8.8,0c-1-2.9-1.9-5.8-2.9-8.8-8.3,9.4-9.5,19.3-11.2,31.3-.2,1.4-.4,2.7-.6,4.1-.5,3.3-1,6.7-1.4,10h-13.2c1.6-15.7,3.2-31.3,5.9-46.9h-7.3c.5-2.9,1-5.8,1.5-8.8Z"/>
    <path class="st1" d="M3010,466h19c.5,1.9,1,3.9,1.5,5.9,1-1,1.9-1.9,2.9-2.9,6-4,9.1-3.6,16.1-2.9,3.8,3.8,3.3,6.6,3.3,11.8q-.4,2.9-3.3,7.3-4.6.3-8.8,0c-1-2.9-1.9-5.8-2.9-8.8-6,7-8.8,13-10,22.1-.2,1.4-.4,2.7-.6,4.1-.2,1.4-.4,2.8-.6,4.3-.2,1.4-.4,2.9-.6,4.3-.5,3.5-1,7.1-1.4,10.6h-13.2c.8-15.8,3.2-31.3,5.9-46.9h-7.3v-8.8Z"/>
    <path class="st1" d="M2673,466h19c.5,1.9,1,3.9,1.5,5.9,1-1,1.9-1.9,2.9-2.9,6-4,9.1-3.6,16.1-2.9,3.8,3.8,3.3,6.6,3.3,11.8q-.4,2.9-3.3,7.3-4.6.3-8.8,0c-1-2.9-1.9-5.8-2.9-8.8-6,7-8.8,13-10,22.1-.2,1.4-.4,2.7-.6,4.1-.2,1.4-.4,2.8-.6,4.3-.2,1.4-.4,2.9-.6,4.3-.5,3.5-1,7.1-1.4,10.6h-13.2c.8-15.8,3.2-31.3,5.9-46.9h-7.3v-8.8Z"/>
    <path class="st1" d="M3294.3,447c8.2,7,12.4,13.6,13.3,24.3-.2,8.2-2.8,14.6-8,20.9-8.1,6.6-14.8,9.5-25.2,9.4-8-.9-14.2-4.6-19.5-10.7-6.6-9.3-7.2-16.6-6-27.8,2.9-9.1,10-14.9,18-19.5,9.9-2.5,18.4-1.6,27.4,3.4ZM3257.1,458.3c-3.9,7.8-4.8,13.5-2.2,21.9,4,7,8.5,12,15.9,15.1,8.2,1.2,15,.4,22-4.4,5.8-5.7,8.6-10.5,9.3-18.7-.1-7-2.3-10.8-6.3-16.5-7.2-6.5-11.6-7.9-21.1-7.7-7.8.8-12.4,4.3-17.6,10.3Z"/>
    <path class="st1" d="M3263.5,455.8c3.8-.1,7.6-.2,11.4-.4,1.2,0,2.4-.1,3.6-.2q7.7-.1,11.4,3.2c2,4.5,1.4,7.3,0,12q-2.3,2.7-4.4,4.4c.9,1.1,1.8,2.2,2.7,3.3,2.5,3.3,4.4,6.1,6,9.9q-3.4.4-7.3,0-2.3-2.5-4.3-5.8-3.5-5.2-9.4-7.4h-3.8v13.2h-5.9v-32.2ZM3269.4,460.1v8.8c2.1.1,4.3.2,6.4.3q1.8,0,3.6.2c1-.1,2.1-.3,3.2-.4,1-1.5,1.9-2.9,2.9-4.4q-1.5-2.4-4.4-4.4c-4-.4-7.7-.2-11.7,0Z"/>
  </g>
</svg>