<svg xmlns="http://www.w3.org/2000/svg" width="38.324" height="38.325" viewBox="0 0 38.324 38.325"><defs><style>.a{fill:#0072cb;}</style></defs><g transform="translate(-31.999 43.999)"><g transform="translate(31.999 -43.999)"><path class="a" d="M36.768,6.387H14.094l-1.469-4.86A2.161,2.161,0,0,0,9.947.09l-3.253.958a2.172,2.172,0,0,0-.943.571l-3.665,3.8a2.152,2.152,0,0,0-.549,1.037A33.164,33.164,0,0,0,2.577,22.515a33.507,33.507,0,0,0,8.042,14,2.165,2.165,0,0,0,1.03.565l5.169,1.192a2.165,2.165,0,0,0,.487.056,2.191,2.191,0,0,0,.616-.089l1.8-.531,1.451-.428a2.134,2.134,0,0,0,1.289-1.04,2.112,2.112,0,0,0,.165-1.626l-.809-2.676H36.768a2.555,2.555,0,0,0,2.555-2.555V8.942a2.555,2.555,0,0,0-2.555-2.555ZM26.708,18.97,37.967,8.517a1.254,1.254,0,0,1,.079.425V29.382a1.27,1.27,0,0,1-.071.4ZM36.768,7.665a1.268,1.268,0,0,1,.216.022L23.611,20.1a1.277,1.277,0,0,1-1.737,0l-9.2-8.515.678-.2a2.14,2.14,0,0,0,1.287-1.04A2.108,2.108,0,0,0,14.8,8.72l-.321-1.055ZM11.049,26.335a15.544,15.544,0,0,1-2.883-5.478,14.4,14.4,0,0,1-.325-7.8.114.114,0,0,1,.079-.07L11.246,12l7.5,6.942ZM21.333,35.63a.867.867,0,0,1-.524.422l-.847.25-1.555-5.147a.639.639,0,1,0-1.223.37l1.556,5.139-1.179.347a.894.894,0,0,1-.456.014l-5.169-1.192a.894.894,0,0,1-.424-.234A32.166,32.166,0,0,1,3.8,22.146,31.873,31.873,0,0,1,2.784,6.721a.877.877,0,0,1,.224-.42L6.669,2.507a.888.888,0,0,1,.383-.234l1.189-.35L9.8,7.069a.639.639,0,0,0,.611.454.613.613,0,0,0,.185-.027.639.639,0,0,0,.427-.8L9.469,1.562l.839-.247a.883.883,0,0,1,1.1.582l2.172,7.192a.839.839,0,0,1-.064.648.872.872,0,0,1-.524.422l-.848.25-.251-.83a.639.639,0,0,0-1.223.369l.248.823-3.358.99a1.393,1.393,0,0,0-.95.958,15.7,15.7,0,0,0,.335,8.506,15.851,15.851,0,0,0,4.438,7.294,1.387,1.387,0,0,0,1.319.287l3.367-.993.251.83a.639.639,0,1,0,1.223-.37l-.248-.823.839-.247a.886.886,0,0,1,1.1.582L21.4,34.978a.839.839,0,0,1-.066.651Zm.1-4.971-.979-3.239a2.162,2.162,0,0,0-2.683-1.438l-5.429,1.6a.128.128,0,0,1-.114-.02c-.089-.079-.192-.176-.31-.287l7.769-7.46L21,21.035a2.564,2.564,0,0,0,3.476,0l1.29-1.2L37.017,30.632a1.269,1.269,0,0,1-.248.027Z" transform="translate(-0.999 -0.001)"/><path class="a" d="M26.639,15.277h10.22a.639.639,0,1,0,0-1.277H26.639a.639.639,0,0,0,0,1.277Z" transform="translate(-10.031 -5.058)"/><path class="a" d="M55.639,22a.639.639,0,0,0-.639.639v8.942a.639.639,0,0,0,1.277,0V22.639A.639.639,0,0,0,55.639,22Z" transform="translate(-20.508 -7.948)"/></g></g></svg>