<svg xmlns="http://www.w3.org/2000/svg" width="40" height="40" viewBox="0 0 40 40"><defs><style>.a{fill:#f8f8f8;}.b{fill:#fe4101;}.c{fill:#ffa300;}.d{fill:#31373d;}</style></defs><g transform="translate(-91 -293)"><rect class="a" width="40" height="40" transform="translate(91 293)"/><g transform="translate(-9.838 213.115)"><path d="M139.966,107v5.282a2.71,2.71,0,0,1-2.709,2.709H135a2.71,2.71,0,0,1-2.709-2.709v-2.573h4.966A2.7,2.7,0,0,0,139.966,107Z"/><path class="b" d="M139.966,106.32V107a2.71,2.71,0,0,1-2.709,2.709H104.41A2.71,2.71,0,0,1,101.7,107v-6.735a4.042,4.042,0,0,1,1.436-3.094l1.41-1.308h33.12V95.9l1.025,1.1a4.07,4.07,0,0,1,1.274,2.949v6.367ZM136,105.414V101h-6.453v4.418Zm-23.872,0V101h-6.453v4.418Z"/><path class="c" d="M134.581,87.508l3.094,8.342h-4.017a5.009,5.009,0,0,0-10.017,0H104.547l3.094-8.342a2.7,2.7,0,0,1,2.539-1.76h21.863A2.716,2.716,0,0,1,134.581,87.508Z"/><rect class="c" width="6.453" height="4.419" transform="translate(129.547 100.996)"/><path class="c" d="M133.65,95.85H123.633a5.008,5.008,0,0,1,10.017,0Z"/><rect class="c" width="6.453" height="4.419" transform="translate(105.675 100.996)"/><path d="M109.376,109.748v2.53a2.71,2.71,0,0,1-2.709,2.709H104.41a2.71,2.71,0,0,1-2.709-2.709V107a2.71,2.71,0,0,0,2.709,2.709h4.966Z"/><path class="d" d="M138.436,95.466l-3.06-8.257a3.567,3.567,0,0,0-3.342-2.324H110.18a3.576,3.576,0,0,0-3.342,2.324l-3.017,8.146-1.257,1.162a4.928,4.928,0,0,0-1.726,3.744v12.017a3.572,3.572,0,0,0,3.572,3.555h2.257a3.566,3.566,0,0,0,3.572-3.555v-1.744h21.2v1.744a3.567,3.567,0,0,0,3.573,3.555h2.256a3.567,3.567,0,0,0,3.573-3.555V99.944a4.941,4.941,0,0,0-1.53-3.555ZM108.445,87.8a1.84,1.84,0,0,1,1.735-1.2h21.863a1.852,1.852,0,0,1,1.735,1.2l2.667,7.18h-2a5.867,5.867,0,0,0-11.607,0h-17.06Zm24.265,7.18h-8.129a4.153,4.153,0,0,1,8.129,0Zm-24.18,17.3a1.854,1.854,0,0,1-1.863,1.846H104.41a1.864,1.864,0,0,1-1.863-1.846v-2.24a3.465,3.465,0,0,0,1.863.5h4.12Zm28.735,1.846h-2.256a1.859,1.859,0,0,1-1.864-1.846v-1.744h4.12a3.463,3.463,0,0,0,1.863-.5v2.24A1.864,1.864,0,0,1,137.265,114.124Zm0-5.3H104.41A1.844,1.844,0,0,1,102.547,107v-6.735a3.209,3.209,0,0,1,1.137-2.445l.034-.034,1.171-1.094h32.368l.82.88a.194.194,0,0,0,.043.043,3.206,3.206,0,0,1,1.008,2.333V107A1.844,1.844,0,0,1,137.265,108.825Z"/><path d="M112.975,100.961a.857.857,0,0,0-.855-.854h-6.41a.856.856,0,0,0-.855.854v4.445a.857.857,0,0,0,.855.855h6.41a.858.858,0,0,0,.855-.855Zm-1.71,3.59h-4.7v-2.735h4.7Z"/><path d="M136.821,100.961a.857.857,0,0,0-.855-.854h-6.41a.857.857,0,0,0-.855.854v4.445a.858.858,0,0,0,.855.855h6.41a.858.858,0,0,0,.855-.855Zm-1.71,3.59h-4.7v-2.735h4.7Z"/><path d="M124.966,103.7H116.71a.854.854,0,1,0,0,1.709h8.256a.854.854,0,1,0,0-1.709Z"/><path d="M124.966,101.047H116.71a.854.854,0,1,0,0,1.709h8.256a.854.854,0,1,0,0-1.709Z"/></g></g></svg>