<svg xmlns="http://www.w3.org/2000/svg" width="40" height="40" viewBox="0 0 40 40"><defs><style>.a{fill:#ffd93b;}.b{fill:#f4c534;}.c{fill:#3e4347;}.d{fill:#fff;}</style></defs><circle class="a" cx="20" cy="20" r="20"/><path class="b" d="M91.945,72.138A19.808,19.808,0,0,1,56.72,84.573,19.808,19.808,0,0,0,84.573,56.72,19.785,19.785,0,0,1,91.945,72.138Z" transform="translate(-52.332 -52.332)"/><path class="c" d="M134.825,343c-1.62,4.173-4.534-1.968-10.806-1.968s-9.187,6.143-10.807,1.968c-1.536-3.958,3.932-4.213,10.812-4.213S136.362,339.039,134.825,343Z" transform="translate(-104.212 -312.572)"/><path class="b" d="M78.687,127.527a7.031,7.031,0,1,1-7.031-7.031A7.027,7.027,0,0,1,78.687,127.527Z" transform="translate(-59.624 -111.173)"/><path class="d" d="M94.752,145.065a5.56,5.56,0,1,1-5.561-5.561A5.556,5.556,0,0,1,94.752,145.065Z" transform="translate(-77.161 -128.711)"/><path class="c" d="M139.181,184.095a2.959,2.959,0,1,1-2.959-2.959A2.975,2.975,0,0,1,139.181,184.095Z" transform="translate(-122.953 -167.122)"/><ellipse class="d" cx="0.879" cy="0.582" rx="0.879" ry="0.582" transform="translate(14.476 17.008) rotate(-135)"/><path class="b" d="M279.695,127.527a7.031,7.031,0,1,1-7.031-7.031A7.027,7.027,0,0,1,279.695,127.527Z" transform="translate(-245.08 -111.173)"/><path class="d" d="M295.745,145.065a5.561,5.561,0,1,1-5.561-5.561A5.556,5.556,0,0,1,295.745,145.065Z" transform="translate(-262.603 -128.711)"/><path class="c" d="M302.272,184.095a2.959,2.959,0,1,0,2.959-2.959A2.975,2.975,0,0,0,302.272,184.095Z" transform="translate(-278.885 -167.122)"/><ellipse class="d" cx="0.582" cy="0.879" rx="0.582" ry="0.879" transform="translate(25.136 17.006) rotate(-135)"/></svg>