<svg xmlns="http://www.w3.org/2000/svg" width="25" height="19.767" viewBox="0 0 25 19.767"><defs><style>.a{fill:#fff;}</style></defs><g transform="translate(-2.5 -7.001)"><path class="a" d="M26.5,7.012,15,8.733,3.5,7.012a.872.872,0,0,0-.7.2.858.858,0,0,0-.3.657V24.152a.869.869,0,0,0,.744.86l11.628,1.744a.709.709,0,0,0,.256,0l11.628-1.744a.875.875,0,0,0,.744-.86V7.873a.879.879,0,0,0-.3-.663.868.868,0,0,0-.7-.2ZM14.128,24.884,4.244,23.4V8.884l9.884,1.483ZM25.756,23.4l-9.884,1.483V10.367l9.884-1.483Z" transform="translate(0 0)"/><path class="a" d="M8.207,17.227l5.814,1.163a.887.887,0,0,0,.174.017.872.872,0,0,0,.169-1.727L8.55,15.518a.872.872,0,0,0-.343,1.709Z" transform="translate(-2.096 -3.558)"/><path class="a" d="M8.207,23.226l5.814,1.163a.887.887,0,0,0,.174.017.872.872,0,0,0,.169-1.727L8.55,21.517a.872.872,0,0,0-.343,1.709Z" transform="translate(-2.096 -6.068)"/><path class="a" d="M8.207,29.226l5.814,1.163a.887.887,0,0,0,.174.017.872.872,0,0,0,.169-1.727L8.55,27.517a.872.872,0,0,0-.343,1.709Z" transform="translate(-2.096 -8.58)"/><path class="a" d="M28.377,18.408a.887.887,0,0,0,.174-.017l5.814-1.163a.871.871,0,0,0-.337-1.709l-5.814,1.163a.873.873,0,0,0-.686,1.023A.859.859,0,0,0,28.377,18.408Z" transform="translate(-10.47 -3.558)"/><path class="a" d="M28.377,24.408a.887.887,0,0,0,.174-.017l5.814-1.163a.871.871,0,0,0-.337-1.709l-5.814,1.163a.873.873,0,0,0-.686,1.023A.859.859,0,0,0,28.377,24.408Z" transform="translate(-10.47 -6.07)"/><path class="a" d="M28.377,30.408a.887.887,0,0,0,.174-.017l5.814-1.163a.871.871,0,0,0-.337-1.709l-5.814,1.163a.873.873,0,0,0-.686,1.023A.859.859,0,0,0,28.377,30.408Z" transform="translate(-10.47 -8.581)"/></g></svg>