<svg xmlns="http://www.w3.org/2000/svg" width="47.069" height="47.32" viewBox="0 0 47.069 47.32"><defs><style>.a{fill:#ff9811;}.b{fill:#ffd422;}.c{fill:#c6c5ca;}.d{fill:#ee8700;}.e{fill:#4832c3;}.f{fill:#ffc477;}.g{fill:#ffb655;}.h{fill:#57565c;}</style></defs><g transform="translate(-2 -1.68)"><path class="a" d="M50.119,39.2a9.876,9.876,0,0,1-.839,2.04L51.429,44.1,48.1,47.429l-2.863-2.149a9.876,9.876,0,0,1-2.04.839l-.51,3.554H37.983l-.51-3.554a9.876,9.876,0,0,1-2.04-.839L32.57,47.429,29.244,44.1l2.149-2.863a9.876,9.876,0,0,1-.839-2.04L27,38.69V33.983l3.554-.51a9.876,9.876,0,0,1,.839-2.04L29.244,28.57l3.326-3.326L34.3,26.538l1.138.855a10.257,10.257,0,0,1,.981-.471,9.94,9.94,0,0,1,1.059-.369L37.983,23H42.69l.51,3.554a9.941,9.941,0,0,1,1.059.369,10.256,10.256,0,0,1,.981.471L47.4,25.777l.706-.533,3.326,3.326-2.149,2.863a9.876,9.876,0,0,1,.839,2.04l3.554.51V38.69Z" transform="translate(-5.388 -4.595)"/><path class="b" d="M46.2,33.381a6.276,6.276,0,0,0-3.138-1.334A6.482,6.482,0,0,0,42.276,32a6.276,6.276,0,0,0,0,12.552,6.464,6.464,0,0,0,1.569-.2A6.276,6.276,0,0,0,46.2,33.381Z" transform="translate(-7.328 -6.534)"/><path class="c" d="M47.491,22.543a9.94,9.94,0,0,0-1.059-.369l-.51-3.554H44.353v-6.48a5.485,5.485,0,0,1,.784-9.461V7.638l2.353.784,2.353-.784V2.68a5.485,5.485,0,0,1,.784,9.461V21.4l-2.157,1.616a10.257,10.257,0,0,0-.981-.471Z" transform="translate(-8.621 -0.215)"/><path class="a" d="M48.138,26.922v4.519A6.276,6.276,0,0,0,45,30.107V23h1.569l.51,3.554A9.941,9.941,0,0,1,48.138,26.922Z" transform="translate(-9.267 -4.595)"/><path class="d" d="M34.347,21H32.778a1.569,1.569,0,0,0-.784.212v4.5c0,.188-.008.377-.024.557a.894.894,0,0,0,.149.078,1.56,1.56,0,0,0,.659.149h1.569a1.522,1.522,0,0,0,1.02-.384,1.547,1.547,0,0,0,.549-1.185V22.569A1.574,1.574,0,0,0,34.347,21Z" transform="translate(-6.459 -4.164)"/><path class="e" d="M31.72,45.025a7.8,7.8,0,0,0-3.844-3.287l-6.048-2.424L21.043,39a3.138,3.138,0,0,1-6.276,0L7.934,41.738A7.831,7.831,0,0,0,3,49.018v7.241H32.81V49.018A7.838,7.838,0,0,0,31.72,45.025Z" transform="translate(-0.216 -8.043)"/><path class="f" d="M24.276,36.16v2.228a3.138,3.138,0,0,1-6.276,0V36.16A7.8,7.8,0,0,0,24.276,36.16Z" transform="translate(-3.448 -7.431)"/><path class="d" d="M10.922,25.707c0,.188.008.377.024.557a1.491,1.491,0,0,1-.808.228H8.569A1.574,1.574,0,0,1,7,24.922V22.569A1.574,1.574,0,0,1,8.569,21h1.569a1.569,1.569,0,0,1,.784.212Z" transform="translate(-1.078 -4.164)"/><path class="g" d="M24.276,36.16v1.569a7.8,7.8,0,0,1-6.276,0V36.16A7.8,7.8,0,0,0,24.276,36.16Z" transform="translate(-3.448 -7.431)"/><path class="h" d="M27.69,18.841v.573h-.784a3.138,3.138,0,0,1-2.51-1.255l-1.412-1.883-2.636,2.11a4.688,4.688,0,0,1-2.934,1.028H12V17.845a7.845,7.845,0,0,1,15.69,0Z" transform="translate(-2.155 -1.793)"/><path class="f" d="M26.905,21.138a3.138,3.138,0,0,1-2.51-1.255L22.983,18l-2.636,2.11a4.688,4.688,0,0,1-2.934,1.028H12V25.06c0,.188.008.377.024.557a7.838,7.838,0,0,0,14.089,4.15,6.636,6.636,0,0,0,.73-1.169,7.7,7.7,0,0,0,.808-2.738v-.008c.008-.078.016-.157.016-.235.016-.18.024-.369.024-.557V21.138Z" transform="translate(-2.155 -3.517)"/><rect width="1.569" height="1.569" transform="translate(12.983 19.974)"/><rect width="1.569" height="1.569" transform="translate(20.828 19.974)"/><path d="M48.4,28.611l-3.065-.438a10.982,10.982,0,0,0-.515-1.255l1.855-2.473A.784.784,0,0,0,46.6,23.42l-3.329-3.329a.776.776,0,0,0-.475-.222V12.318a6.276,6.276,0,0,0,2.353-4.9,6.211,6.211,0,0,0-3.587-5.667.784.784,0,0,0-1.119.709V6.858l-1.569.523L37.3,6.858V2.465a.784.784,0,0,0-1.119-.706,6.211,6.211,0,0,0-3.587,5.664,6.276,6.276,0,0,0,2.353,4.9v5.3H32.595a.785.785,0,0,0-.777.673l-.508,3.553,1.553.222.411-2.879h3.347l.411,2.879a.784.784,0,0,0,.557.642,9.366,9.366,0,0,1,1.883.774.784.784,0,0,0,.848-.06l2.323-1.742,2.366,2.366-1.745,2.323a.784.784,0,0,0-.06.848,9.366,9.366,0,0,1,.774,1.883.784.784,0,0,0,.642.557l2.879.411v3.347l-2.879.411a.784.784,0,0,0-.642.557,9.366,9.366,0,0,1-.774,1.883.784.784,0,0,0,.06.848l1.742,2.323L42.639,41.8l-2.321-1.748A.784.784,0,0,0,39.47,40a9.366,9.366,0,0,1-1.883.774.784.784,0,0,0-.557.642l-.409,2.881H33.379V40.976a8.708,8.708,0,0,0-.353-2.448,7.147,7.147,0,1,0-5.016-5.54c-.019-.008-.037-.017-.056-.024l-6.343-2.537V29.22a8.7,8.7,0,0,0,2.729-2.186h1.978a2.353,2.353,0,0,0,2.353-2.353V22.968a2.353,2.353,0,0,0,1.569-2.209V18.405A2.353,2.353,0,0,0,28.672,16.2v-.929a10.983,10.983,0,1,0-21.966,0V16.2a2.353,2.353,0,0,0-1.569,2.209v2.353a2.353,2.353,0,0,0,2.353,2.353H9.06c.05,0,.1-.008.148-.011a8.647,8.647,0,0,0,4.559,6.119v1.206L7.425,32.963A8.589,8.589,0,0,0,2,40.976v7.24A.784.784,0,0,0,2.784,49h29.81a.784.784,0,0,0,.784-.784V45.862H37.3a.785.785,0,0,0,.777-.673l.438-3.065a10.983,10.983,0,0,0,1.255-.515l2.473,1.855a.784.784,0,0,0,1.025-.073L46.6,40.062a.784.784,0,0,0,.073-1.025l-1.855-2.473a10.983,10.983,0,0,0,.515-1.255l3.065-.438a.784.784,0,0,0,.672-.776V29.388a.785.785,0,0,0-.673-.777Zm-8.629-6.737c-.037-.018-.078-.03-.115-.047v-9.7H38.086V18.35l-.008-.056a.784.784,0,0,0-.777-.673h-.784v-5.7a.784.784,0,0,0-.337-.644,4.707,4.707,0,0,1-.448-7.372V7.422a.785.785,0,0,0,.537.745l2.353.784a.784.784,0,0,0,.5,0l2.353-.784a.784.784,0,0,0,.537-.744V3.91a4.707,4.707,0,0,1-.448,7.374.784.784,0,0,0-.337.642v8.859Zm-10.31,9.867A5.531,5.531,0,1,1,32.072,36.4a8.563,8.563,0,0,0-2.048-2.257,5.363,5.363,0,0,1-.566-2.4Zm-3.138-6.276h-.952a8.551,8.551,0,0,0,.8-2.364c.049,0,.1.011.148.011H27.1v1.569A.784.784,0,0,1,26.319,25.466ZM24.75,16.836a2.365,2.365,0,0,1-1.883-.941l-1.412-1.883a.784.784,0,0,0-.529-.308.793.793,0,0,0-.589.166l-2.633,2.1a3.937,3.937,0,0,1-2.447.863H10.629v-.784a7.06,7.06,0,0,1,14.121,0Zm3.922,3.922a.784.784,0,0,1-.784.784H26.319V17.621h1.569a.784.784,0,0,1,.784.784ZM17.69,5.854A9.424,9.424,0,0,1,27.1,15.267v.784h-.784a8.629,8.629,0,0,0-17.259,0H8.276v-.784A9.424,9.424,0,0,1,17.69,5.854Zm-10.2,15.69a.784.784,0,0,1-.784-.784V18.405a.784.784,0,0,1,.784-.784H9.06v3.922Zm3.138,0V18.405h4.628a5.51,5.51,0,0,0,3.43-1.2l2-1.6.923,1.236a3.942,3.942,0,0,0,3.138,1.569v3.138a7.019,7.019,0,0,1-1.194,3.922H17.69v1.569h4.428a7.053,7.053,0,0,1-11.488-5.491Zm7.06,8.629a8.6,8.6,0,0,0,2.353-.334v1.119a2.353,2.353,0,0,1-4.707,0V29.838a8.6,8.6,0,0,0,2.353.334ZM31.81,47.431H27.1V38.8H25.534v8.629H9.845V38.8H8.276v8.629H3.569V40.976A7.027,7.027,0,0,1,8.008,34.42l5.933-2.373a3.9,3.9,0,0,0,7.5,0l5.933,2.373a7.027,7.027,0,0,1,4.439,6.556Z" transform="translate(0)"/><rect width="1.569" height="1.569" transform="translate(34.164 20.759)"/><rect width="1.569" height="1.569" transform="translate(34.164 41.155)"/><rect width="1.569" height="1.569" transform="translate(41.05 38.953) rotate(-45)"/><rect width="1.569" height="1.569" transform="translate(44.362 30.957)"/><rect width="1.569" height="1.569" transform="translate(41.05 24.531) rotate(-45)"/></g></svg>