<svg xmlns="http://www.w3.org/2000/svg" xmlns:xlink="http://www.w3.org/1999/xlink" width="51.5" height="51.5" viewBox="0 0 51.5 51.5"><defs><style>.a{fill:url(#a);}</style><linearGradient id="a" x1="0.5" x2="0.5" y2="1" gradientUnits="objectBoundingBox"><stop offset="0" stop-color="#0e377a"/><stop offset="1" stop-color="#0072cb"/></linearGradient></defs><g transform="translate(-252.25 -771.5)"><g transform="translate(251.25 770.5)"><path class="a" d="M52.153,13.306H50.492a.832.832,0,0,1-.831-.831H48a2.5,2.5,0,0,0,2.492,2.492v1.661h1.661V14.968a2.492,2.492,0,0,0,0-4.984H50.492a.831.831,0,0,1,0-1.661h1.661a.832.832,0,0,1,.831.831h1.661a2.5,2.5,0,0,0-2.492-2.492V5H50.492V6.661a2.492,2.492,0,1,0,0,4.984h1.661a.831.831,0,0,1,0,1.661Z" transform="translate(-7.96 -0.677)"/><path class="a" d="M40.871,25.919v1.617l-1,9.5a13.328,13.328,0,0,0-8.847-5.97l-.276-.05-.326-1.306a5.822,5.822,0,0,0,3.738-4.618h.066a3.32,3.32,0,0,0,1.881-6.057l.574-1.148a8.235,8.235,0,0,0,.441-1.1,9.124,9.124,0,1,0-2.6-8.947,8.185,8.185,0,0,0-5.2-1.856H27.581a9.186,9.186,0,0,0-7.111,3.4l-.056.012a5.55,5.55,0,0,0-3.875,7.925l.856,1.712a3.341,3.341,0,0,0-.98,1.073H14.29V12.142L17.37,9.063,16.195,7.889l-6.058,6.058L6.815,10.624,1.243,16.195,2.418,17.37l.243-.243V20.1H1v1.661H15.952a3.326,3.326,0,0,0,3.323,3.323h.066a5.823,5.823,0,0,0,3.738,4.618l-.326,1.306-.276.05a13.33,13.33,0,0,0-8.848,5.97l-1-9.5V25.919a2.5,2.5,0,0,0-2.492-2.492H2.661v.831a4.154,4.154,0,0,0,3.415,4.078L6.62,42.494a6.081,6.081,0,0,0,10.993,3.352V52.5H35.887V45.846a6.081,6.081,0,0,0,10.992-3.352l.545-14.158a4.153,4.153,0,0,0,3.415-4.078v-.831H43.363a2.5,2.5,0,0,0-2.492,2.492ZM5.984,20.1H4.323v-4.64L5.984,13.8Zm3.323,0H7.645V13.8l1.661,1.661Zm3.323,0H10.968v-4.64L12.629,13.8ZM30.727,32.7l.01,0-.5,5.5-2.373-2.373,2.548-3.186Zm-3.977,1.86-2.417-3.021.371-1.484c.128.009.255.02.385.02h3.323c.13,0,.257-.011.385-.019l.371,1.484Zm7.476-11.13V20.1a1.661,1.661,0,1,1,0,3.323ZM43.363,2.661a7.476,7.476,0,1,1-5.848,12.115c.013-.19.033-.38.033-.57a8.167,8.167,0,0,0-1.611-4.868A7.489,7.489,0,0,1,43.363,2.661ZM19.274,23.427a1.661,1.661,0,0,1,0-3.323Zm0-5.957v.973c-.1,0-.2.022-.3.031l-.949-1.9a3.889,3.889,0,0,1,2.715-5.554l.67-.134.19-.254a7.512,7.512,0,0,1,5.981-2.99h1.745a6.561,6.561,0,0,1,5.869,9.5l-.667,1.333c-.1-.008-.2-.03-.3-.03a2.5,2.5,0,0,0-2.492-2.492h-.285a10.444,10.444,0,0,1-7.434-3.079l-.587-.587L20,15.708A2.474,2.474,0,0,0,19.274,17.471Zm1.661,6.787V17.471a.827.827,0,0,1,.243-.588l2.268-2.268a12.089,12.089,0,0,0,8,3h.285a.832.832,0,0,1,.831.831v5.815a4.158,4.158,0,0,1-4.153,4.153H25.089a4.158,4.158,0,0,1-4.153-4.153ZM22.774,32.7l.315-.057,2.548,3.186L23.264,38.2l-.5-5.5ZM4.465,25.089h5.672a.832.832,0,0,1,.831.831v.831H6.815a2.5,2.5,0,0,1-2.35-1.661Zm14.81,25.75V40.04H17.613v2.3l-.952,1.9a4.425,4.425,0,0,1-8.38-1.809L7.742,28.411h3.309l1.583,15.038,1.652-.174-.335-3.184a11.661,11.661,0,0,1,7.183-6.967l.8,8.757,2.631-2.631L23.384,46.9l2.95,3.935Zm5.858-4.373,1.416-9.2.2-.2.2.2,1.416,9.2L26.75,48.623ZM45.219,42.43a4.425,4.425,0,0,1-8.38,1.809l-.952-1.9v-2.3H34.226v10.8h-7.06l2.95-3.934L28.938,39.25l2.631,2.631.8-8.757a11.665,11.665,0,0,1,7.183,6.967l-.335,3.183,1.652.174,1.583-15.038h3.309Zm1.466-15.68H42.532v-.831a.832.832,0,0,1,.831-.831h5.672A2.5,2.5,0,0,1,46.685,26.75Z" transform="translate(0)"/><ellipse class="a" cx="0.5" cy="1" rx="0.5" ry="1" transform="translate(23 18.5)"/><circle class="a" cx="1" cy="1" r="1" transform="translate(29 18.5)"/><path class="a" d="M35.008,27.937,35.492,26H26.719l.484,1.937a4.022,4.022,0,0,0,7.8,0Zm-6.157-.276h4.51a2.361,2.361,0,0,1-4.51,0Z" transform="translate(-4.356 -4.234)"/></g></g></svg>