<svg xmlns="http://www.w3.org/2000/svg" width="14.293" height="14.293" viewBox="0 0 14.293 14.293"><defs><style>.a{fill:#676f7c;}</style></defs><path class="a" d="M12.451,1.117H11.166V.447a.447.447,0,0,0-.893,0v.67H4.02V.447a.447.447,0,0,0-.893,0v.67H1.842A1.845,1.845,0,0,0,0,2.959v9.491a1.845,1.845,0,0,0,1.842,1.842H12.451a1.845,1.845,0,0,0,1.842-1.842V2.959A1.845,1.845,0,0,0,12.451,1.117ZM13.4,12.451a.949.949,0,0,1-.949.949H1.842a.949.949,0,0,1-.949-.949v-7.4a.14.14,0,0,1,.14-.14H13.26a.14.14,0,0,1,.14.14Z"/></svg>