<svg xmlns="http://www.w3.org/2000/svg" width="49" height="49" viewBox="0 0 49 49"><defs><style>.a{fill:#fff;}.b{fill:#676f7c;}</style></defs><circle class="a" cx="24.5" cy="24.5" r="24.5"/><g transform="translate(1.302 13.232)"><g transform="translate(9.698 0)"><g transform="translate(0 0)"><path class="b" d="M133.124,382.711a3.18,3.18,0,1,0,3.18,3.18A3.183,3.183,0,0,0,133.124,382.711Zm0,4.452a1.272,1.272,0,1,1,1.272-1.272A1.273,1.273,0,0,1,133.124,387.163Z" transform="translate(-124.029 -363.886)"/><path class="b" d="M324.475,382.711a3.18,3.18,0,1,0,3.18,3.18A3.183,3.183,0,0,0,324.475,382.711Zm0,4.452a1.272,1.272,0,1,1,1.272-1.272A1.273,1.273,0,0,1,324.475,387.163Z" transform="translate(-305.968 -363.886)"/><path class="b" d="M33.721,6.211a.954.954,0,0,0-.747-.36h-16.7L15.4,1.468A.954.954,0,0,0,14.64.715l-3.816-.7a.954.954,0,0,0-.344,1.877l3.178.583,2.8,14.15a.954.954,0,0,0,.936.769H30.749a.954.954,0,0,0,.929-.74L33.9,7.019A.953.953,0,0,0,33.721,6.211ZM29.99,15.486H18.177L16.649,7.759H31.775Z" transform="translate(-9.698 0)"/></g></g></g></svg>