<svg xmlns="http://www.w3.org/2000/svg" width="25.899" height="39" viewBox="0 0 25.899 39"><defs><style>.a{fill:#0072cb;}</style></defs><g transform="translate(-85.996)"><g transform="translate(98.253 3.047)"><path class="a" d="M247.668,40a.762.762,0,1,0,.756.768A.762.762,0,0,0,247.668,40Z" transform="translate(-246.9 -40.005)"/></g><g transform="translate(93.614 7.617)"><g transform="translate(0)"><path class="a" d="M191.371,100a5.332,5.332,0,0,0-.08,10.664h.041A5.332,5.332,0,0,0,191.371,100Zm-.039,9.141H191.3a3.809,3.809,0,0,1,.028-7.617h.029a3.809,3.809,0,0,1-.028,7.617Z" transform="translate(-185.999 -100.002)"/></g></g><g transform="translate(101.253 3.581)"><g transform="translate(0)"><path class="a" d="M287.3,47.055a.762.762,0,0,0-.509,1.436,8.369,8.369,0,0,1,5.564,7.952.762.762,0,0,0,.756.767h.006a.762.762,0,0,0,.762-.756A9.894,9.894,0,0,0,287.3,47.055Z" transform="translate(-286.287 -47.011)"/></g></g><g transform="translate(85.996)"><path class="a" d="M103.619,28.674c5.066-6.521,8.233-9.922,8.275-15.628A12.949,12.949,0,1,0,86,12.852c-.044,5.86,3.181,9.256,8.283,15.821C89.2,29.432,86,31.337,86,33.668c0,1.561,1.443,2.962,4.064,3.945a29.154,29.154,0,0,0,17.771,0c2.621-.983,4.064-2.384,4.064-3.945C111.895,31.338,108.69,29.433,103.619,28.674Zm-16.1-15.81a11.426,11.426,0,1,1,22.851.171c-.041,5.418-3.4,8.758-8.759,15.746-.956,1.246-1.834,2.424-2.665,3.576-.829-1.153-1.689-2.31-2.66-3.577C90.7,21.5,87.479,18.413,87.52,12.864ZM98.946,37.477c-6.539,0-11.426-2.011-11.426-3.809,0-1.333,2.921-3.018,7.832-3.6,1.086,1.424,2.038,2.719,2.971,4.04a.762.762,0,0,0,.621.322h0a.762.762,0,0,0,.621-.321c.925-1.3,1.9-2.631,2.979-4.041,4.907.584,7.825,2.268,7.825,3.6C110.371,35.466,105.485,37.477,98.946,37.477Z" transform="translate(-85.996)"/></g></g></svg>