<svg xmlns="http://www.w3.org/2000/svg" width="36.465" height="36.459" viewBox="0 0 36.465 36.459"><defs><style>.a{fill:#ffa300;}.b{fill:#fffdfa;}.c{fill:#f2faff;}.d{fill:#787878;}.e{fill:#4832c3;}.f{fill:#fdbf67;}.g{fill:#ffd4cf;}.h{fill:#fbb8b0;}.i{fill:#4dccff;}</style></defs><g transform="translate(-15.995 -16)"><g transform="translate(16.761 16.788)"><circle class="a" cx="6" cy="6" r="6" transform="translate(-0.349 -0.329)"/><path class="b" d="M60.912,67.91a1.516,1.516,0,0,0,.556-1.175V65.519A1.519,1.519,0,0,0,59.95,64h-.608a1.519,1.519,0,0,0-1.519,1.519v1.215a1.516,1.516,0,0,0,.556,1.175A4.278,4.278,0,0,0,56,71.9a6.078,6.078,0,0,0,7.292,0A4.278,4.278,0,0,0,60.912,67.91Z" transform="translate(-53.727 -61.143)"/></g><g transform="translate(16.761 39.488)"><circle class="a" cx="6" cy="6" r="6" transform="translate(-0.349 -0.029)"/><path class="b" d="M60.912,371.91a1.516,1.516,0,0,0,.556-1.175v-1.215A1.519,1.519,0,0,0,59.95,368h-.608a1.519,1.519,0,0,0-1.519,1.519v1.215a1.516,1.516,0,0,0,.556,1.175A4.278,4.278,0,0,0,56,375.9a6.078,6.078,0,0,0,7.292,0A4.278,4.278,0,0,0,60.912,371.91Z" transform="translate(-53.727 -364.751)"/></g><g transform="translate(39.461 16.788)"><circle class="a" cx="6" cy="6" r="6" transform="translate(-0.048 -0.329)"/><path class="b" d="M364.912,67.91a1.516,1.516,0,0,0,.556-1.175V65.519A1.519,1.519,0,0,0,363.95,64h-.608a1.519,1.519,0,0,0-1.519,1.519v1.215a1.516,1.516,0,0,0,.556,1.175A4.278,4.278,0,0,0,360,71.9a6.078,6.078,0,0,0,7.292,0A4.278,4.278,0,0,0,364.912,67.91Z" transform="translate(-357.335 -61.143)"/></g><g transform="translate(39.461 39.488)"><circle class="a" cx="6" cy="6" r="6" transform="translate(-0.048 -0.029)"/><path class="b" d="M364.912,371.91a1.516,1.516,0,0,0,.556-1.175v-1.215A1.519,1.519,0,0,0,363.95,368h-.608a1.519,1.519,0,0,0-1.519,1.519v1.215a1.516,1.516,0,0,0,.556,1.175A4.278,4.278,0,0,0,360,375.9a6.078,6.078,0,0,0,7.292,0A4.278,4.278,0,0,0,364.912,371.91Z" transform="translate(-357.335 -364.751)"/></g><g transform="translate(22.706 21.748)"><circle class="c" cx="11.5" cy="11.5" r="11.5" transform="translate(-0.294 0.711)"/><g transform="translate(4.903)"><path class="d" d="M189.469,88a5.469,5.469,0,0,1,5.469,5.469v12.153H184V93.469A5.469,5.469,0,0,1,189.469,88Z" transform="translate(-182.853 -88)"/><path class="e" d="M182.125,265.424c-.371-4.22-2.291-9.424-6.616-9.424s-6.246,5.206-6.616,9.427c-.046.523,2.97,1.511,2.97,1.511h7.292S182.172,265.948,182.125,265.424Z" transform="translate(-168.893 -243.519)"/><path class="f" d="M207.985,258.377a5.078,5.078,0,0,0-8.6,0l4.3,4.914Z" transform="translate(-197.068 -243.457)"/><path class="g" d="M235.038,224h-2.431L232,227.038l1.823,2.431,1.823-2.431Z" transform="translate(-227.207 -213.828)"/><path class="h" d="M237.911,224H235.48l-.372,1.858.1.061a2.886,2.886,0,0,0,2.97,0l.1-.061Z" transform="translate(-230.079 -213.805)"/><path class="g" d="M221.469,138.588a3.647,3.647,0,0,1-3.434-2.418A2.279,2.279,0,0,0,216,138.436v2.938a1.519,1.519,0,0,0,.738,1.3l1.519.911a1.519,1.519,0,0,0,1.563,0l1.519-.911a1.519,1.519,0,0,0,.738-1.3v-2.786Z" transform="translate(-212.422 -132.575)"/><path class="i" d="M228.861,64.748l-2.431.187L224,64.748V64h4.861Z" transform="translate(-219.814 -64)"/></g></g><path d="M60.57,21.589l1.191-.242A6.7,6.7,0,0,0,55.211,16,6.628,6.628,0,0,0,51.2,17.337l.73.972a5.421,5.421,0,0,1,3.281-1.093A5.483,5.483,0,0,1,60.57,21.589Z" transform="translate(-32.531 0)"/><path d="M18.645,323.4a5.454,5.454,0,0,1,3.5-1.761l-.12-1.209a6.684,6.684,0,1,0,7.319,7.319l-1.209-.12A5.446,5.446,0,0,1,26.8,330.7a4.89,4.89,0,0,0-1.924-2.921,2.113,2.113,0,0,0,.246-.993v-1.215a2.129,2.129,0,0,0-2.127-2.127h-.608a2.129,2.129,0,0,0-2.127,2.127v1.215a2.113,2.113,0,0,0,.246.993,4.889,4.889,0,0,0-1.923,2.918,5.464,5.464,0,0,1,.063-7.288Zm2.829,2.162a.912.912,0,0,1,.911-.911h.608a.912.912,0,0,1,.911.911v1.215a.912.912,0,0,1-.911.911h-.608a.912.912,0,0,1-.911-.911Zm-.092,3.09a2.115,2.115,0,0,0,1,.252h.608a2.115,2.115,0,0,0,1-.252,3.719,3.719,0,0,1,1.72,2.984,5.466,5.466,0,0,1-6.055,0,3.718,3.718,0,0,1,1.72-2.982Z" transform="translate(-0.01 -281.31)"/><path d="M45.771,16a6.685,6.685,0,0,0-6.651,6.016l1.209.121a5.469,5.469,0,1,1,9.55,4.157,4.89,4.89,0,0,0-1.924-2.921,2.113,2.113,0,0,0,.246-.993V21.165a2.129,2.129,0,0,0-2.127-2.127h-.608a2.129,2.129,0,0,0-2.127,2.127V22.38a2.114,2.114,0,0,0,.245.991A4.575,4.575,0,0,0,42.143,25a12.185,12.185,0,0,0-3.313-2.022,6.069,6.069,0,0,0-1.567-1.305H31.187a6.072,6.072,0,0,0-1.566,1.3,12.123,12.123,0,0,0-3.311,2.026,4.58,4.58,0,0,0-1.444-1.633,2.114,2.114,0,0,0,.245-.991V21.165a2.129,2.129,0,0,0-2.127-2.127h-.608a2.129,2.129,0,0,0-2.127,2.127V22.38a2.113,2.113,0,0,0,.246.993,4.89,4.89,0,0,0-1.924,2.921A5.47,5.47,0,0,1,18.3,19.4l-.972-.73a6.685,6.685,0,0,0,4.68,10.663l.12-1.209a5.44,5.44,0,0,1-2.48-.886,3.72,3.72,0,0,1,1.72-2.985,2.114,2.114,0,0,0,1,.252h.608a2.114,2.114,0,0,0,1-.252,3.383,3.383,0,0,1,1.4,1.633,12.284,12.284,0,0,0-1.163,1.438,12.154,12.154,0,1,0,22.156,6.9,12.339,12.339,0,0,0-.066-1.278l-1.209.126a11.107,11.107,0,0,1,.06,1.152,10.918,10.918,0,0,1-3.839,8.315A17.287,17.287,0,0,0,40.3,38.623V26.938a6.035,6.035,0,0,0-.354-2.034,10.9,10.9,0,0,1,4.972,7.023l1.188-.255a12.115,12.115,0,0,0-3.041-5.79,3.379,3.379,0,0,1,1.4-1.627,2.114,2.114,0,0,0,1,.253h.608a2.114,2.114,0,0,0,1-.252A3.719,3.719,0,0,1,48.8,27.24a5.44,5.44,0,0,1-2.48.886l.12,1.209A6.684,6.684,0,0,0,45.771,16ZM34.226,22.058ZM22.984,23.292h-.608a.912.912,0,0,1-.911-.911V21.165a.912.912,0,0,1,.911-.911h.608a.912.912,0,0,1,.911.911V22.38A.912.912,0,0,1,22.984,23.292Zm.3,10.938A10.945,10.945,0,0,1,28.5,24.9a6.033,6.033,0,0,0-.354,2.033v3.038h1.215V26.938a4.891,4.891,0,0,1,2.46-4.228l2.254.564a.607.607,0,0,0,.295,0l2.254-.564a4.89,4.89,0,0,1,2.46,4.228v9.4a6.482,6.482,0,0,0-2.562-2.223l-.317-1.584.631-.379a2.138,2.138,0,0,0,1.033-1.824V27.545a.608.608,0,0,0-.608-.608h-.608a3.046,3.046,0,0,1-2.862-2.015.608.608,0,0,0-.636-.4,2.879,2.879,0,0,0-2.579,2.87v2.938a2.138,2.138,0,0,0,1.033,1.824l.631.379-.317,1.585a6.548,6.548,0,0,0-2.562,2.236V31.191H28.149v7.443a17.2,17.2,0,0,0-1.022,3.91,10.918,10.918,0,0,1-3.839-8.315Zm8.785,1.181,1.666,2.222a.608.608,0,0,0,.972,0l1.666-2.221a5.251,5.251,0,0,1,1.359,1.175L34.226,40.6l-3.514-4.016a5.213,5.213,0,0,1,1.361-1.172Zm2.153-2.04a2.121,2.121,0,0,0,.872-.188l.3,1.508-1.174,1.565-1.174-1.565.3-1.508A2.122,2.122,0,0,0,34.226,33.37Zm.469-1.346a.91.91,0,0,1-.938,0l-1.519-.911a.916.916,0,0,1-.443-.782V27.394a1.667,1.667,0,0,1,1.071-1.561,4.266,4.266,0,0,0,3.79,2.321v2.178a.916.916,0,0,1-.443.782Zm3.785,12.282V41.522H37.264v3.217a10.966,10.966,0,0,1-6.077,0V41.522H29.972v2.785a10.93,10.93,0,0,1-1.726-.922,15.83,15.83,0,0,1,1.286-4.9q.219-.469.461-.878l3.775,4.314a.608.608,0,0,0,.915,0l3.773-4.312A14.873,14.873,0,0,1,40.2,43.385a10.927,10.927,0,0,1-1.726.922Zm7.6-21.015h-.608a.912.912,0,0,1-.911-.911V21.165a.912.912,0,0,1,.911-.911h.608a.912.912,0,0,1,.911.911V22.38A.912.912,0,0,1,46.075,23.292Z" transform="translate(0 0)"/><path d="M420.1,326.538l1.209-.12a6.694,6.694,0,0,0-5.984-5.984l-.12,1.209A5.476,5.476,0,0,1,420.1,326.538Z" transform="translate(-368.89 -281.31)"/><path d="M322.977,367.256a5.446,5.446,0,0,1-1.333-3.062l-1.209.12a6.685,6.685,0,0,0,13.3,0l-1.209-.12a5.445,5.445,0,0,1-1.333,3.062,4.89,4.89,0,0,0-1.924-2.921,2.113,2.113,0,0,0,.246-.993v-1.215A2.129,2.129,0,0,0,327.389,360h-.608a2.129,2.129,0,0,0-2.127,2.127v1.215a2.114,2.114,0,0,0,.246.993A4.89,4.89,0,0,0,322.977,367.256Zm7.136.945a5.472,5.472,0,0,1-6.055,0,3.719,3.719,0,0,1,1.72-2.984,2.114,2.114,0,0,0,1,.252h.608a2.114,2.114,0,0,0,1-.252A3.719,3.719,0,0,1,330.113,368.2Zm-4.243-6.074a.912.912,0,0,1,.911-.911h.608a.912.912,0,0,1,.911.911v1.215a.913.913,0,0,1-.911.911h-.608a.913.913,0,0,1-.911-.911Z" transform="translate(-281.314 -317.871)"/></g></svg>