<svg xmlns="http://www.w3.org/2000/svg" width="25.5" height="17.531" viewBox="0 0 25.5 17.531"><defs><style>.a{fill:#fff;}</style></defs><g transform="translate(0 -80)"><g transform="translate(16.903 83.232)"><path class="a" d="M339.392,150.56l8.6,5.435V144.9Z" transform="translate(-339.392 -144.896)"/></g><g transform="translate(0 83.232)"><path class="a" d="M0,144.9v11.1l8.6-5.435Z" transform="translate(0 -144.896)"/></g><g transform="translate(0.048 80)"><g transform="translate(0 0)"><path class="a" d="M24.818,80H2.506A1.574,1.574,0,0,0,.96,81.356l12.7,8.369,12.7-8.369A1.574,1.574,0,0,0,24.818,80Z" transform="translate(-0.96 -80)"/></g></g><g transform="translate(0.051 89.857)"><g transform="translate(0 0)"><path class="a" d="M16.416,277.922l-2.255,1.485a.8.8,0,0,1-.877,0L11.03,277.92,1.024,284.249a1.571,1.571,0,0,0,1.543,1.345H24.879a1.571,1.571,0,0,0,1.543-1.345Z" transform="translate(-1.024 -277.92)"/></g></g></g></svg>