<svg xmlns="http://www.w3.org/2000/svg" xmlns:xlink="http://www.w3.org/1999/xlink" width="54" height="55" viewBox="0 0 54 55"><defs><style>.a{fill:#fff;}.b{fill:#676f7c;}.c{filter:url(#a);}</style><filter id="a" x="0" y="0" width="54" height="55" filterUnits="userSpaceOnUse"><feOffset dy="3" input="SourceAlpha"/><feGaussianBlur stdDeviation="3" result="b"/><feFlood flood-opacity="0.161"/><feComposite operator="in" in2="b"/><feComposite in="SourceGraphic"/></filter></defs><g transform="translate(8.896 6.002)"><g class="c" transform="matrix(1, 0, 0, 1, -8.9, -6)"><ellipse class="a" cx="18" cy="18.5" rx="18" ry="18.5" transform="translate(9 6)"/></g><g transform="translate(13.436 8.957)"><path class="b" d="M31.2,20.633H28.89c-.374,0-.49-.14-.49-.49V17.317c0-.374.14-.49.49-.49H31.2V14.771a5.188,5.188,0,0,1,.631-2.639A3.875,3.875,0,0,1,33.912,10.4a5.2,5.2,0,0,1,1.8-.3H38c.327,0,.467.14.467.467V13.23c0,.327-.14.467-.467.467-.631,0-1.261,0-1.892.023a.843.843,0,0,0-.958.958c-.023.7,0,1.378,0,2.1h2.709c.374,0,.514.14.514.514v2.826c0,.374-.117.49-.514.49H35.15v7.614c0,.4-.117.537-.537.537H31.693c-.35,0-.49-.14-.49-.49V20.633Z" transform="translate(-28.4 -10.1)"/></g></g></svg>