<svg xmlns="http://www.w3.org/2000/svg" width="51.398" height="46.258" viewBox="0 0 51.398 46.258"><defs><style>.a{fill:#4832c3;}.b{fill:#ffa300;}.c{fill:#ffe28f;}</style></defs><g transform="translate(-16 -40)"><path class="a" d="M58.265,92.544H24L35.993,61.706,32.566,51.426l1.784-2.378a2.62,2.62,0,0,1,4.143-.064l2.639,3.3,2.639-3.3a2.62,2.62,0,0,1,4.143.064L49.7,51.426,46.272,61.706Z" transform="translate(-7.143 -7.143)"/><path class="b" d="M238.919,296a2.57,2.57,0,0,1,2.465,1.845l3.619,12.3a2.994,2.994,0,0,1,.122.845h0a3,3,0,0,1-3,3H219a3,3,0,0,1-3-3h0a3,3,0,0,1,.122-.845l3.619-12.3A2.57,2.57,0,0,1,222.206,296Z" transform="translate(-178.584 -228.588)"/><path class="c" d="M307.993,244.849V238a6,6,0,0,0-6-6h0a6,6,0,0,0-6,6v6.853l1.713,1.713,1.713-1.713V238a2.57,2.57,0,0,1,2.57-2.57h0a2.57,2.57,0,0,1,2.57,2.57v6.853l1.713,1.713Z" transform="translate(-250.018 -171.441)"/><path d="M235.063,233.313a3.445,3.445,0,0,0-3.287-2.46h-1.5a6.853,6.853,0,0,0-13.706,0h-1.5a3.445,3.445,0,0,0-3.287,2.46l-3.619,12.3a3.852,3.852,0,0,0,3.7,4.939h23.135a3.852,3.852,0,0,0,3.7-4.939Zm-16.784-2.46a5.14,5.14,0,0,1,10.28,0v6.5l-.857.857-.857-.857v-6.5a3.426,3.426,0,0,0-6.853,0v6.5l-.857.857-.857-.857Zm6.853,0h-3.426a1.713,1.713,0,1,1,3.426,0Zm9.854,17.989H211.852A2.139,2.139,0,0,1,209.8,246.1l3.619-12.3a1.723,1.723,0,0,1,1.644-1.23h1.5v5.14a.857.857,0,0,0,.251.606l1.713,1.713a.857.857,0,0,0,1.211,0l1.713-1.713a.857.857,0,0,0,.251-.606v-5.14h3.426v5.14a.857.857,0,0,0,.251.606l1.713,1.713a.857.857,0,0,0,1.211,0l1.713-1.713a.857.857,0,0,0,.251-.606v-5.14h1.5a1.723,1.723,0,0,1,1.644,1.23l3.619,12.3a2.139,2.139,0,0,1-2.052,2.742Z" transform="translate(-171.441 -164.298)"/><rect width="2.194" height="1.713" transform="translate(25.824 75.792) rotate(-77.472)"/><path d="M16.15,85.885a.857.857,0,0,0,.707.373H34.846V84.544H25.634l.72-3.241-1.672-.372-.8,3.612h-5.77L29.435,55.419h.916l-3.576,16.09,1.672.372,3.658-16.462h1.026V69.982h1.713V55.419h1.026l2.516,11.322,1.672-.372-2.433-10.95h.916L41.995,64.3l1.6-.621L40.039,54.54l3.329-9.986a.857.857,0,0,0-.127-.785l-1.784-2.378a3.477,3.477,0,0,0-5.5-.086l-1.971,2.464-1.971-2.463a3.477,3.477,0,0,0-5.5.086l-1.784,2.378a.857.857,0,0,0-.127.785l3.329,9.986L16.058,85.091a.857.857,0,0,0,.091.794ZM26.377,44.438l1.514-2.019a1.764,1.764,0,0,1,2.789-.043l2.64,3.3a.857.857,0,0,0,1.338,0l2.64-3.3a1.764,1.764,0,0,1,2.789.044L41.6,44.438s-.056,6.951-3.089,9.268-9.045,0-9.045,0Z" transform="translate(0 0)"/><rect width="1.862" height="9.932" transform="translate(33.254 71.98)"/></g></svg>