<svg xmlns="http://www.w3.org/2000/svg" width="40" height="40" viewBox="0 0 40 40"><defs><style>.a{fill:#f8f8f8;}.b{fill:#fe4101;}.c{fill:#f9fbfc;}.d{fill:#ffa300;}.e{fill:#31373d;}</style></defs><g transform="translate(-90 -292)"><rect class="a" width="40" height="40" transform="translate(90 292)"/><g transform="translate(-11.532 208.292)"><path class="b" d="M128.707,121.488H118.164a1.116,1.116,0,0,1-1.114-1.058l-1.23-23.984h15.319l-1.318,23.988a1.116,1.116,0,0,1-1.114,1.054Z"/><path class="c" d="M130.9,95.712h-.8L129.8,94.2a1.43,1.43,0,0,0-1.4-1.145l-4.332.162-.993-4.5a2.423,2.423,0,0,0-1.5-1.985l-5.99-2.55a.993.993,0,0,0-1.3.527c-.1.244-.074.26.025.506s.326.305.57.409l6.079,2.516a1.164,1.164,0,0,1,.681.813l.972,4.105h-4.083a1.431,1.431,0,0,0-1.407,1.171l-.275,1.489h-.784a1.61,1.61,0,0,0-1.611,1.61v.541a1.61,1.61,0,0,0,1.611,1.61H130.9a1.61,1.61,0,0,0,1.61-1.61v-.541A1.61,1.61,0,0,0,130.9,95.712Z"/><path class="d" d="M129.516,112.754H136.9l.572-10.639a.673.673,0,0,0-.636-.708l-1.13-.06a.672.672,0,0,0-.708.635l-.536,9.744V101.542a.965.965,0,0,0-.965-.965h-.547a.965.965,0,0,0-.965.965v10.13l-.567-9.69a.672.672,0,0,0-.708-.635l-1.13.06a.673.673,0,0,0-.636.708Z"/><path class="d" d="M139.549,112.754l.835-9.616a.672.672,0,0,0-.612-.728l-1.127-.1a.673.673,0,0,0-.729.612l-.854,9.83Z"/><path class="d" d="M129.352,112.754l-.854-9.83a.673.673,0,0,0-.728-.612l-1.128.1a.673.673,0,0,0-.612.728l.835,9.616Z"/><path class="c" d="M137.1,106.839v1.731a3.2,3.2,0,0,1-3.259,3.148H132.6a3.2,3.2,0,0,1-3.259-3.148v-1.731a.866.866,0,0,0-.88-.85h-2.037a.862.862,0,0,0-.876.928l1.176,12.259a2.035,2.035,0,0,0,2.052,1.808h8.892a2.036,2.036,0,0,0,2.053-1.808l1.176-12.259a.862.862,0,0,0-.876-.928h-2.037A.866.866,0,0,0,137.1,106.839Z"/><path class="d" d="M140.667,107.386a.241.241,0,0,0,.163.227l.045-.466A.241.241,0,0,0,140.667,107.386Z"/><path class="d" d="M140.667,108.948a.232.232,0,0,0,.025.105l.024-.25A.246.246,0,0,0,140.667,108.948Z"/><path class="d" d="M139.347,106.065a.239.239,0,0,0,.175-.076h-.351a.242.242,0,0,0,.176.076Z"/><path class="d" d="M140.157,106.332a.243.243,0,1,0,.243.243A.243.243,0,0,0,140.157,106.332Z"/><path class="d" d="M139.347,107.143a.243.243,0,1,0,.242.242A.243.243,0,0,0,139.347,107.143Z"/><path class="d" d="M138.59,106.338a.242.242,0,1,0,.243.242A.242.242,0,0,0,138.59,106.338Z"/><path class="d" d="M138.59,106.338a.242.242,0,1,0,.243.242A.242.242,0,0,0,138.59,106.338Z"/><path class="d" d="M138.6,107.9a.243.243,0,1,0,.243.243A.243.243,0,0,0,138.6,107.9Z"/><path class="d" d="M140.157,107.895a.243.243,0,1,0,.243.242A.243.243,0,0,0,140.157,107.895Z"/><path class="d" d="M139.347,108.706a.242.242,0,1,0,.242.242A.242.242,0,0,0,139.347,108.706Z"/><path class="d" d="M140.157,109.458a.242.242,0,1,0,.243.242A.242.242,0,0,0,140.157,109.458Z"/><path class="d" d="M139.347,110.268a.243.243,0,1,0,.242.243A.243.243,0,0,0,139.347,110.268Z"/><path class="d" d="M140.157,111.02a.243.243,0,1,0,.243.243A.243.243,0,0,0,140.157,111.02Z"/><path class="d" d="M139.347,111.831a.243.243,0,1,0,.242.242A.242.242,0,0,0,139.347,111.831Z"/><path class="d" d="M140.157,112.583a.243.243,0,0,0,0,.485.246.246,0,0,0,.156-.058l.032-.337A.243.243,0,0,0,140.157,112.583Z"/><path class="d" d="M139.347,113.394a.242.242,0,1,0,.242.242A.242.242,0,0,0,139.347,113.394Z"/><path class="d" d="M140.157,114.145a.243.243,0,0,0,0,.485l.046-.48a.232.232,0,0,0-.046-.005Z"/><path class="d" d="M139.347,114.956a.243.243,0,1,0,.242.243A.243.243,0,0,0,139.347,114.956Z"/><path class="d" d="M139.915,115.951a.241.241,0,0,0,.1.192l.04-.41A.243.243,0,0,0,139.915,115.951Z"/><path class="d" d="M139.347,116.519a.243.243,0,1,0,.242.242A.242.242,0,0,0,139.347,116.519Z"/><path class="d" d="M139.347,118.081a.243.243,0,1,0,.242.243A.243.243,0,0,0,139.347,118.081Z"/><path class="d" d="M139.347,119.644a.243.243,0,1,0,0,.485l.016,0a1.974,1.974,0,0,0,.2-.349.242.242,0,0,0-.216-.134Z"/><path class="d" d="M138.6,109.458a.242.242,0,1,0,.242.242A.242.242,0,0,0,138.6,109.458Z"/><path class="d" d="M138.6,111.02a.243.243,0,1,0,.242.243A.242.242,0,0,0,138.6,111.02Z"/><path class="d" d="M138.6,112.583a.243.243,0,1,0,.242.242A.242.242,0,0,0,138.6,112.583Z"/><path class="d" d="M138.6,114.145a.243.243,0,1,0,.242.243A.242.242,0,0,0,138.6,114.145Z"/><path class="d" d="M138.6,115.708a.243.243,0,1,0,.242.242A.242.242,0,0,0,138.6,115.708Z"/><path class="d" d="M137.775,114.952a.242.242,0,1,0,.243.242A.242.242,0,0,0,137.775,114.952Z"/><path class="d" d="M137.782,116.514a.242.242,0,1,0,.243.242A.242.242,0,0,0,137.782,116.514Z"/><path class="d" d="M138.6,117.271a.242.242,0,1,0,.242.242A.242.242,0,0,0,138.6,117.271Z"/><path class="d" d="M137.784,118.081a.243.243,0,1,0,.243.243A.242.242,0,0,0,137.784,118.081Z"/><path class="d" d="M138.6,118.833a.243.243,0,1,0,.242.243A.242.242,0,0,0,138.6,118.833Z"/><path class="d" d="M137.784,120.129a.243.243,0,1,0-.242-.243A.243.243,0,0,0,137.784,120.129Z"/><path class="d" d="M138.6,120.4a.242.242,0,0,0-.142.438,2.094,2.094,0,0,0,.384-.2.242.242,0,0,0-.242-.237Z"/><path class="d" d="M137.032,118.833a.243.243,0,1,0,.243.243A.242.242,0,0,0,137.032,118.833Z"/><path class="d" d="M135.979,119.886a.243.243,0,1,0,.243-.242A.243.243,0,0,0,135.979,119.886Z"/><path class="d" d="M137.032,120.4a.242.242,0,1,0,.243.242A.242.242,0,0,0,137.032,120.4Z"/><path class="d" d="M134.417,119.886a.242.242,0,1,0,.242-.242A.242.242,0,0,0,134.417,119.886Z"/><path class="d" d="M135.227,120.638a.243.243,0,1,0,.243-.242A.243.243,0,0,0,135.227,120.638Z"/><path class="d" d="M132.854,119.886a.243.243,0,1,0,.242-.242A.242.242,0,0,0,132.854,119.886Z"/><path class="d" d="M133.665,120.638a.242.242,0,1,0,.242-.242A.242.242,0,0,0,133.665,120.638Z"/><path class="d" d="M131.291,119.886a.243.243,0,1,0,.243-.242A.243.243,0,0,0,131.291,119.886Z"/><path class="d" d="M132.1,120.638a.243.243,0,1,0,.242-.242A.243.243,0,0,0,132.1,120.638Z"/><path class="d" d="M129.729,119.886a.242.242,0,1,0,.242-.242A.242.242,0,0,0,129.729,119.886Z"/><path class="d" d="M130.539,120.638a.243.243,0,1,0,.243-.242A.243.243,0,0,0,130.539,120.638Z"/><path class="d" d="M128.408,119.644a.243.243,0,1,0,.243.242A.243.243,0,0,0,128.408,119.644Z"/><path class="d" d="M129.219,120.881a.242.242,0,1,0-.242-.243A.243.243,0,0,0,129.219,120.881Z"/><path class="d" d="M126.846,119.644l-.015,0a2.005,2.005,0,0,0,.2.4.239.239,0,0,0,.061-.16A.242.242,0,0,0,126.846,119.644Z"/><path class="d" d="M127.657,120.4a.244.244,0,0,0-.208.118,2.065,2.065,0,0,0,.409.259.239.239,0,0,0,.041-.135.242.242,0,0,0-.242-.242Z"/><path class="d" d="M121.645,121H103.973a1.144,1.144,0,0,1-1.141-1.053l-.231-2.854a1.146,1.146,0,0,1,1.142-1.237h18.138a1.145,1.145,0,0,1,1.141,1.24l-.236,2.853A1.145,1.145,0,0,1,121.645,121Z"/><path class="c" d="M122.083,116.284a.267.267,0,0,0,.075.012.242.242,0,0,0,.242-.242.233.233,0,0,0-.016-.084,1.057,1.057,0,0,0-.267-.093Z"/><path class="c" d="M122.726,116.806a.242.242,0,0,0,.243.242.2.2,0,0,0,.055-.007,1.128,1.128,0,0,0-.082-.475A.242.242,0,0,0,122.726,116.806Z"/><path class="c" d="M122.726,118.369a.243.243,0,0,0,.171.23l.039-.469A.241.241,0,0,0,122.726,118.369Z"/><path class="c" d="M122.158,118.937a.243.243,0,1,0,.242.242A.242.242,0,0,0,122.158,118.937Z"/><path class="c" d="M122.158,117.371a.243.243,0,1,0,.242.243A.242.242,0,0,0,122.158,117.371Z"/><path class="c" d="M122.726,119.931a.24.24,0,0,0,.043.137c.007-.04.013-.081.017-.123l.016-.189a.239.239,0,0,0-.076.175Z"/><path class="c" d="M122.158,120.5a.241.241,0,0,0-.146.434,1.121,1.121,0,0,0,.385-.222.24.24,0,0,0-.239-.212Z"/><path class="c" d="M120.6,118.937a.243.243,0,1,0,.243.242A.242.242,0,0,0,120.6,118.937Z"/><path class="c" d="M121.406,119.689a.243.243,0,1,0,.242.242.242.242,0,0,0-.242-.242Z"/><path class="c" d="M120.6,120.5a.242.242,0,1,0,.243.242A.242.242,0,0,0,120.6,120.5Z"/><path class="c" d="M119.033,118.937a.243.243,0,1,0,.242.242A.242.242,0,0,0,119.033,118.937Z"/><path class="c" d="M119.6,119.931a.243.243,0,1,0,.242-.242A.243.243,0,0,0,119.6,119.931Z"/><path class="c" d="M119.033,120.5a.242.242,0,1,0,.242.242A.242.242,0,0,0,119.033,120.5Z"/><path class="c" d="M117.47,118.937a.243.243,0,1,0,.243.242A.242.242,0,0,0,117.47,118.937Z"/><path class="c" d="M118.039,119.931a.242.242,0,1,0,.242-.242A.242.242,0,0,0,118.039,119.931Z"/><path class="c" d="M117.47,120.5a.242.242,0,1,0,.243.242A.242.242,0,0,0,117.47,120.5Z"/><path class="c" d="M115.908,118.937a.243.243,0,1,0,.242.242A.242.242,0,0,0,115.908,118.937Z"/><circle class="c" cx="0.242" cy="0.242" r="0.242" transform="translate(116.476 119.689)"/><path class="c" d="M115.908,120.5a.242.242,0,1,0,.242.242A.242.242,0,0,0,115.908,120.5Z"/><path class="c" d="M114.345,118.937a.243.243,0,1,0,.242.242A.242.242,0,0,0,114.345,118.937Z"/><circle class="c" cx="0.242" cy="0.242" r="0.242" transform="translate(114.913 119.689)"/><path class="c" d="M114.345,120.5a.242.242,0,1,0,.242.242A.242.242,0,0,0,114.345,120.5Z"/><path class="c" d="M112.782,118.937a.243.243,0,1,0,.243.242A.242.242,0,0,0,112.782,118.937Z"/><circle class="c" cx="0.242" cy="0.242" r="0.242" transform="translate(113.351 119.689)"/><path class="c" d="M112.782,120.5a.242.242,0,1,0,.243.242A.242.242,0,0,0,112.782,120.5Z"/><path class="c" d="M111.22,118.937a.243.243,0,1,0,.242.242A.242.242,0,0,0,111.22,118.937Z"/><path class="c" d="M111.788,119.931a.243.243,0,1,0,.242-.242A.243.243,0,0,0,111.788,119.931Z"/><path class="c" d="M111.22,120.5a.242.242,0,1,0,.242.242A.242.242,0,0,0,111.22,120.5Z"/><path class="c" d="M109.657,118.937a.243.243,0,1,0,.243.242A.242.242,0,0,0,109.657,118.937Z"/><path class="c" d="M110.225,119.931a.243.243,0,1,0,.243-.242A.243.243,0,0,0,110.225,119.931Z"/><path class="c" d="M109.657,120.5a.242.242,0,1,0,.243.242A.242.242,0,0,0,109.657,120.5Z"/><path class="c" d="M108.094,118.937a.243.243,0,1,0,.243.242A.242.242,0,0,0,108.094,118.937Z"/><path class="c" d="M108.663,119.931a.243.243,0,1,0,.242-.242A.242.242,0,0,0,108.663,119.931Z"/><path class="c" d="M108.094,120.5a.242.242,0,1,0,.243.242A.242.242,0,0,0,108.094,120.5Z"/><path class="c" d="M106.532,118.937a.243.243,0,1,0,.242.242A.242.242,0,0,0,106.532,118.937Z"/><path class="c" d="M107.1,119.931a.243.243,0,1,0,.243-.242A.243.243,0,0,0,107.1,119.931Z"/><path class="c" d="M106.532,120.5a.242.242,0,1,0,.242.242A.242.242,0,0,0,106.532,120.5Z"/><path class="c" d="M104.969,118.937a.243.243,0,1,0,.243.242A.242.242,0,0,0,104.969,118.937Z"/><path class="c" d="M105.538,119.931a.242.242,0,1,0,.242-.242A.242.242,0,0,0,105.538,119.931Z"/><path class="c" d="M104.969,120.5a.242.242,0,1,0,.243.242A.242.242,0,0,0,104.969,120.5Z"/><path class="c" d="M103.407,118.937a.243.243,0,1,0,.242.242A.242.242,0,0,0,103.407,118.937Z"/><path class="c" d="M104.217,120.174a.243.243,0,1,0-.242-.243A.243.243,0,0,0,104.217,120.174Z"/><path class="c" d="M103.407,120.5a.241.241,0,0,0-.231.171,1.146,1.146,0,0,0,.392.25.238.238,0,0,0,.081-.179A.242.242,0,0,0,103.407,120.5Z"/><path class="c" d="M102.816,119.752l.016.191a1.13,1.13,0,0,0,.018.13.242.242,0,0,0,.047-.142A.238.238,0,0,0,102.816,119.752Z"/><path class="d" d="M112.851,102.412c8.474,0,10.169,5.342,10.461,8.041a1.561,1.561,0,0,1-1.549,1.732H103.935a1.562,1.562,0,0,1-1.549-1.733c.294-2.7,1.992-8.04,10.465-8.04Z"/><g transform="translate(0 0.001)"><path class="b" d="M128.642,121.327H118.194a1.106,1.106,0,0,1-1.1-1.049L115.872,96.51h15.18l-1.306,23.772a1.106,1.106,0,0,1-1.1,1.045Z"/><path class="c" d="M130.82,95.783h-.788l-.307-1.5a1.418,1.418,0,0,0-1.389-1.134l-4.293.161-.984-4.463a2.4,2.4,0,0,0-1.492-1.966l-5.935-2.528a.984.984,0,0,0-1.29.522c-.1.242-.073.258.025.5s.323.3.564.4l6.025,2.493a1.156,1.156,0,0,1,.675.806l.963,4.068h-4.046a1.417,1.417,0,0,0-1.394,1.161l-.273,1.475H116.1a1.6,1.6,0,0,0-1.6,1.6v.536a1.6,1.6,0,0,0,1.6,1.6H130.82a1.6,1.6,0,0,0,1.6-1.6v-.536A1.6,1.6,0,0,0,130.82,95.783Z"/><path class="d" d="M129.444,112.672h7.316l.567-10.543a.667.667,0,0,0-.63-.7l-1.12-.06a.667.667,0,0,0-.7.63l-.53,9.656V101.561a.956.956,0,0,0-.957-.956h-.542a.957.957,0,0,0-.957.956V111.6l-.561-9.6a.667.667,0,0,0-.7-.63l-1.119.06a.668.668,0,0,0-.631.7Z"/><path class="d" d="M139.386,112.672l.828-9.529a.666.666,0,0,0-.606-.722l-1.118-.1a.668.668,0,0,0-.722.607l-.846,9.742Z"/><path class="d" d="M129.282,112.672l-.847-9.742a.668.668,0,0,0-.722-.607l-1.117.1a.666.666,0,0,0-.607.722l.828,9.529Z"/><path class="c" d="M136.964,106.81v1.716a3.176,3.176,0,0,1-3.23,3.119H132.5a3.176,3.176,0,0,1-3.23-3.119V106.81a.857.857,0,0,0-.871-.842H126.38a.853.853,0,0,0-.868.919l1.165,12.149a2.017,2.017,0,0,0,2.034,1.791h8.812a2.017,2.017,0,0,0,2.034-1.791l1.165-12.149a.854.854,0,0,0-.868-.919h-2.019A.857.857,0,0,0,136.964,106.81Z"/><path class="d" d="M140.494,107.351a.239.239,0,0,0,.162.226l.044-.462A.239.239,0,0,0,140.494,107.351Z"/><path class="d" d="M140.494,108.9a.238.238,0,0,0,.025.1l.024-.247A.237.237,0,0,0,140.494,108.9Z"/><path class="d" d="M139.186,106.043a.239.239,0,0,0,.174-.075h-.348a.241.241,0,0,0,.174.075Z"/><path class="d" d="M139.989,106.308a.24.24,0,1,0,.241.24A.24.24,0,0,0,139.989,106.308Z"/><path class="d" d="M139.186,107.111a.241.241,0,1,0,.24.24A.24.24,0,0,0,139.186,107.111Z"/><path class="d" d="M138.437,106.313a.24.24,0,1,0,.24.24A.241.241,0,0,0,138.437,106.313Z"/><path class="d" d="M138.437,106.313a.24.24,0,1,0,.24.24A.241.241,0,0,0,138.437,106.313Z"/><path class="d" d="M138.443,107.861a.24.24,0,1,0,.241.24A.24.24,0,0,0,138.443,107.861Z"/><path class="d" d="M139.989,107.856a.24.24,0,1,0,.241.241A.241.241,0,0,0,139.989,107.856Z"/><path class="d" d="M139.186,108.66a.24.24,0,1,0,.24.24A.239.239,0,0,0,139.186,108.66Z"/><path class="d" d="M139.989,109.4a.24.24,0,1,0,.241.24A.24.24,0,0,0,139.989,109.4Z"/><path class="d" d="M139.186,110.208a.241.241,0,1,0,.24.241A.24.24,0,0,0,139.186,110.208Z"/><path class="d" d="M139.989,110.953a.24.24,0,1,0,.241.241A.241.241,0,0,0,139.989,110.953Z"/><path class="d" d="M139.186,111.757a.24.24,0,1,0,.24.24A.239.239,0,0,0,139.186,111.757Z"/><path class="d" d="M139.989,112.5a.24.24,0,1,0,.154.423l.032-.333A.236.236,0,0,0,139.989,112.5Z"/><path class="d" d="M139.186,113.305a.241.241,0,1,0,.24.241A.24.24,0,0,0,139.186,113.305Z"/><path class="d" d="M139.989,114.05a.24.24,0,0,0,0,.481l.046-.476a.232.232,0,0,0-.046,0Z"/><path class="d" d="M139.186,114.854a.24.24,0,1,0,.24.24A.239.239,0,0,0,139.186,114.854Z"/><path class="d" d="M139.749,115.839a.235.235,0,0,0,.1.191l.038-.406A.24.24,0,0,0,139.749,115.839Z"/><path class="d" d="M139.186,116.4a.241.241,0,1,0,.24.241A.24.24,0,0,0,139.186,116.4Z"/><path class="d" d="M139.186,117.951a.24.24,0,1,0,.24.24A.239.239,0,0,0,139.186,117.951Z"/><path class="d" d="M139.186,119.5a.24.24,0,1,0,0,.48l.016,0a1.928,1.928,0,0,0,.2-.345.238.238,0,0,0-.214-.133Z"/><path class="d" d="M138.441,109.4a.24.24,0,1,0,.24.24A.239.239,0,0,0,138.441,109.4Z"/><path class="d" d="M138.441,110.953a.24.24,0,1,0,.24.241A.24.24,0,0,0,138.441,110.953Z"/><path class="d" d="M138.441,112.5a.24.24,0,1,0,.24.24A.24.24,0,0,0,138.441,112.5Z"/><path class="d" d="M138.441,114.05a.24.24,0,1,0,.24.241A.24.24,0,0,0,138.441,114.05Z"/><path class="d" d="M138.441,115.6a.24.24,0,1,0,.24.24A.24.24,0,0,0,138.441,115.6Z"/><path class="d" d="M137.629,114.849a.241.241,0,1,0,.24.241A.24.24,0,0,0,137.629,114.849Z"/><path class="d" d="M137.636,116.4a.24.24,0,1,0,.24.24A.24.24,0,0,0,137.636,116.4Z"/><path class="d" d="M138.441,117.148a.24.24,0,1,0,.24.24A.239.239,0,0,0,138.441,117.148Z"/><path class="d" d="M137.638,117.951a.24.24,0,1,0,.24.24A.24.24,0,0,0,137.638,117.951Z"/><path class="d" d="M138.441,118.7a.241.241,0,1,0,.24.24A.24.24,0,0,0,138.441,118.7Z"/><path class="d" d="M137.638,119.98a.24.24,0,1,0-.241-.24A.241.241,0,0,0,137.638,119.98Z"/><path class="d" d="M138.441,120.245a.24.24,0,0,0-.141.434,2.153,2.153,0,0,0,.381-.2.24.24,0,0,0-.24-.235Z"/><path class="d" d="M136.892,118.7a.241.241,0,1,0,.241.24A.241.241,0,0,0,136.892,118.7Z"/><path class="d" d="M135.849,119.74a.24.24,0,1,0,.24-.24A.24.24,0,0,0,135.849,119.74Z"/><path class="d" d="M136.892,120.245a.24.24,0,1,0,.241.24A.24.24,0,0,0,136.892,120.245Z"/><path class="d" d="M134.3,119.74a.241.241,0,1,0,.241-.24A.241.241,0,0,0,134.3,119.74Z"/><path class="d" d="M135.1,120.485a.24.24,0,1,0,.24-.24A.239.239,0,0,0,135.1,120.485Z"/><path class="d" d="M132.752,119.74a.24.24,0,1,0,.24-.24A.24.24,0,0,0,132.752,119.74Z"/><path class="d" d="M133.555,120.485a.241.241,0,1,0,.24-.24A.24.24,0,0,0,133.555,120.485Z"/><path class="d" d="M131.2,119.74a.241.241,0,1,0,.24-.24A.241.241,0,0,0,131.2,119.74Z"/><path class="d" d="M132.007,120.485a.24.24,0,1,0,.24-.24A.239.239,0,0,0,132.007,120.485Z"/><path class="d" d="M129.655,119.74a.24.24,0,1,0,.24-.24A.24.24,0,0,0,129.655,119.74Z"/><path class="d" d="M130.458,120.485a.24.24,0,1,0,.24-.24A.24.24,0,0,0,130.458,120.485Z"/><path class="d" d="M128.346,119.5a.24.24,0,1,0,.241.24A.24.24,0,0,0,128.346,119.5Z"/><path class="d" d="M129.15,120.725a.24.24,0,1,0-.24-.24A.24.24,0,0,0,129.15,120.725Z"/><path class="d" d="M126.8,119.5h-.015a1.974,1.974,0,0,0,.194.4.239.239,0,0,0-.179-.4Z"/><path class="d" d="M127.6,120.245a.239.239,0,0,0-.2.117,2.09,2.09,0,0,0,.4.257.249.249,0,0,0,.041-.134.241.241,0,0,0-.241-.24Z"/><path class="d" d="M121.644,120.839H104.131A1.135,1.135,0,0,1,103,119.8l-.228-2.828a1.134,1.134,0,0,1,1.131-1.226h17.975a1.136,1.136,0,0,1,1.131,1.228l-.235,2.828A1.134,1.134,0,0,1,121.644,120.839Z"/><path class="c" d="M122.078,116.169a.23.23,0,0,0,.074.013.239.239,0,0,0,.24-.24.255.255,0,0,0-.015-.084,1.155,1.155,0,0,0-.265-.092Z"/><path class="c" d="M122.715,116.687a.24.24,0,0,0,.241.24.19.19,0,0,0,.054-.007,1.118,1.118,0,0,0-.081-.47A.239.239,0,0,0,122.715,116.687Z"/><path class="c" d="M122.715,118.236a.24.24,0,0,0,.17.228l.039-.465A.239.239,0,0,0,122.715,118.236Z"/><path class="c" d="M122.152,118.8a.24.24,0,1,0,.24.24A.24.24,0,0,0,122.152,118.8Z"/><path class="c" d="M122.152,117.247a.24.24,0,1,0,.24.24A.241.241,0,0,0,122.152,117.247Z"/><path class="c" d="M122.715,119.784a.24.24,0,0,0,.042.135.953.953,0,0,0,.017-.121l.016-.187a.239.239,0,0,0-.075.173Z"/><path class="c" d="M122.152,120.347a.24.24,0,0,0-.145.431,1.119,1.119,0,0,0,.382-.22.239.239,0,0,0-.237-.211Z"/><path class="c" d="M120.6,118.8a.24.24,0,1,0,.24.24A.239.239,0,0,0,120.6,118.8Z"/><path class="c" d="M121.407,119.544a.24.24,0,1,0,.24.24.239.239,0,0,0-.24-.24Z"/><path class="c" d="M120.6,120.347a.241.241,0,1,0,.24.241A.24.24,0,0,0,120.6,120.347Z"/><path class="c" d="M119.055,118.8a.24.24,0,1,0,.24.24A.24.24,0,0,0,119.055,118.8Z"/><path class="c" d="M119.618,119.784a.241.241,0,1,0,.241-.24A.24.24,0,0,0,119.618,119.784Z"/><path class="c" d="M119.055,120.347a.241.241,0,1,0,.24.241A.241.241,0,0,0,119.055,120.347Z"/><path class="c" d="M117.507,118.8a.24.24,0,1,0,.24.24A.24.24,0,0,0,117.507,118.8Z"/><path class="c" d="M118.07,119.784a.24.24,0,1,0,.24-.24A.239.239,0,0,0,118.07,119.784Z"/><path class="c" d="M117.507,120.347a.241.241,0,1,0,.24.241A.241.241,0,0,0,117.507,120.347Z"/><path class="c" d="M115.958,118.8a.24.24,0,1,0,.24.24A.24.24,0,0,0,115.958,118.8Z"/><circle class="c" cx="0.24" cy="0.24" r="0.24" transform="translate(116.521 119.544)"/><path class="c" d="M115.958,120.347a.241.241,0,1,0,.24.241A.241.241,0,0,0,115.958,120.347Z"/><path class="c" d="M114.41,118.8a.24.24,0,1,0,.24.24A.24.24,0,0,0,114.41,118.8Z"/><circle class="c" cx="0.24" cy="0.24" r="0.24" transform="translate(114.973 119.544)"/><path class="c" d="M114.41,120.347a.241.241,0,1,0,.24.241A.241.241,0,0,0,114.41,120.347Z"/><path class="c" d="M112.861,118.8a.24.24,0,1,0,.24.24A.239.239,0,0,0,112.861,118.8Z"/><circle class="c" cx="0.24" cy="0.24" r="0.24" transform="translate(113.424 119.544)"/><path class="c" d="M112.861,120.347a.241.241,0,1,0,.24.241A.24.24,0,0,0,112.861,120.347Z"/><path class="c" d="M111.312,118.8a.24.24,0,1,0,.241.24A.24.24,0,0,0,111.312,118.8Z"/><path class="c" d="M111.876,119.784a.24.24,0,1,0,.24-.24A.239.239,0,0,0,111.876,119.784Z"/><path class="c" d="M111.312,120.347a.241.241,0,1,0,.241.241A.241.241,0,0,0,111.312,120.347Z"/><path class="c" d="M109.764,118.8a.24.24,0,1,0,.24.24A.239.239,0,0,0,109.764,118.8Z"/><path class="c" d="M110.327,119.784a.24.24,0,1,0,.24-.24A.24.24,0,0,0,110.327,119.784Z"/><path class="c" d="M109.764,120.347a.241.241,0,1,0,.24.241A.24.24,0,0,0,109.764,120.347Z"/><path class="c" d="M108.215,118.8a.24.24,0,1,0,.241.24A.24.24,0,0,0,108.215,118.8Z"/><path class="c" d="M108.779,119.784a.24.24,0,1,0,.24-.24A.239.239,0,0,0,108.779,119.784Z"/><path class="c" d="M108.215,120.347a.241.241,0,1,0,.241.241A.241.241,0,0,0,108.215,120.347Z"/><path class="c" d="M106.667,118.8a.24.24,0,1,0,.24.24A.239.239,0,0,0,106.667,118.8Z"/><path class="c" d="M107.23,119.784a.24.24,0,1,0,.24-.24A.24.24,0,0,0,107.23,119.784Z"/><path class="c" d="M106.667,120.347a.241.241,0,1,0,.24.241A.24.24,0,0,0,106.667,120.347Z"/><path class="c" d="M105.118,118.8a.24.24,0,1,0,.241.24A.24.24,0,0,0,105.118,118.8Z"/><path class="c" d="M105.682,119.784a.24.24,0,1,0,.24-.24A.239.239,0,0,0,105.682,119.784Z"/><path class="c" d="M105.118,120.347a.241.241,0,1,0,.241.241A.241.241,0,0,0,105.118,120.347Z"/><path class="c" d="M103.57,118.8a.24.24,0,1,0,.24.24A.239.239,0,0,0,103.57,118.8Z"/><path class="c" d="M104.373,120.024a.24.24,0,1,0-.24-.24A.239.239,0,0,0,104.373,120.024Z"/><path class="c" d="M103.57,120.347a.24.24,0,0,0-.229.171,1.141,1.141,0,0,0,.389.247.238.238,0,0,0,.08-.177A.241.241,0,0,0,103.57,120.347Z"/><path class="c" d="M102.985,119.606l.015.19a1.115,1.115,0,0,0,.019.129.245.245,0,0,0,.046-.141A.238.238,0,0,0,102.985,119.606Z"/><path class="d" d="M112.929,102.422c8.4,0,10.078,5.3,10.367,7.969a1.547,1.547,0,0,1-1.535,1.717H104.093a1.547,1.547,0,0,1-1.534-1.717c.29-2.675,1.974-7.969,10.37-7.969Z"/><path class="e" d="M140.109,120.841h-1.422a2.269,2.269,0,0,0,1.179-1.776l1.164-12.148a1.138,1.138,0,0,0-.291-.871,1.177,1.177,0,0,0-.44-.3l.224-2.576a.976.976,0,0,0-.889-1.057l-1.117-.1a.974.974,0,0,0-.9.431l.016-.3a.976.976,0,0,0-.922-1.027l-1.12-.06a.966.966,0,0,0-.7.248.981.981,0,0,0-.235.318v-.063a1.267,1.267,0,0,0-1.266-1.266h-.542a1.268,1.268,0,0,0-1.266,1.266v.138a.981.981,0,0,0-.473-.534l.076-1.38a1.909,1.909,0,0,0,1.543-1.87v-.536a1.907,1.907,0,0,0-1.906-1.9h-.535l-.256-1.255a1.735,1.735,0,0,0-1.693-1.382h-4.087l-.9-3.955a3.26,3.26,0,0,0-1.9-2.275l-6.192-2.637a1.026,1.026,0,0,0-.8,1.889l6.193,2.637a1.209,1.209,0,0,1,.7.841l.793,3.5h-3.6a1.728,1.728,0,0,0-1.7,1.415l-.226,1.222H116.1a1.907,1.907,0,0,0-1.906,1.9v.536a1.909,1.909,0,0,0,1.531,1.868l.132,2.574a16.61,16.61,0,0,0-2.932-.244c-8.829,0-10.409,5.765-10.678,8.244a1.857,1.857,0,0,0,1.842,2.06h.145a1.895,1.895,0,0,0-.319,3.015H103.9a1.444,1.444,0,0,0-1.44,1.561l.228,2.828a1.448,1.448,0,0,0,.554,1.02h-.289a1.243,1.243,0,1,0,0,2.487h37.153a1.243,1.243,0,0,0,0-2.487Zm-2.032-17.884a.356.356,0,0,1,.355-.326h.031l1.118.1a.358.358,0,0,1,.325.387l-.221,2.542h-1.843Zm-2.892-.943a.356.356,0,0,1,.356-.338h.019l1.12.06a.359.359,0,0,1,.338.376l-.224,4.154a1.126,1.126,0,0,0-.14.544v1.716a2.824,2.824,0,0,1-1.963,2.653Zm-2.986-.453a.647.647,0,0,1,.647-.647h.542a.647.647,0,0,1,.647.647v9.759a2.988,2.988,0,0,1-.3.015H132.5a2.988,2.988,0,0,1-.3-.015Zm.3,10.393h1.234a3.489,3.489,0,0,0,3.539-3.428V106.81a.548.548,0,0,1,.562-.532h2.019a.574.574,0,0,1,.426.185.509.509,0,0,1,.134.4l-1.165,12.148a1.7,1.7,0,0,1-1.726,1.511h-8.812a1.7,1.7,0,0,1-1.726-1.511l-1.165-12.148a.509.509,0,0,1,.134-.4.574.574,0,0,1,.426-.185H128.4a.548.548,0,0,1,.562.532v1.716a3.489,3.489,0,0,0,3.539,3.428Zm-6.2-8.838a.357.357,0,0,1,.325-.387l1.117-.1.032,0a.358.358,0,0,1,.355.327l.234,2.7h-1.842Zm5.214,8.053a2.823,2.823,0,0,1-1.932-2.643V106.81a1.116,1.116,0,0,0-.174-.6l-.22-4.1a.357.357,0,0,1,.337-.376l1.12-.06h.019a.357.357,0,0,1,.357.338ZM121.955,89.2a1.828,1.828,0,0,0-1.066-1.274L114.7,85.289a.406.406,0,0,1-.218-.222.4.4,0,0,1,0-.311.408.408,0,0,1,.374-.249.393.393,0,0,1,.158.033l6.193,2.637a2.64,2.64,0,0,1,1.542,1.842l.865,3.818h-.834Zm-4.5,5.164a1.108,1.108,0,0,1,1.09-.907h9.788a1.113,1.113,0,0,1,1.086.886l.23,1.131h-12.4Zm-2.64,3.551v-.536a1.288,1.288,0,0,1,1.286-1.286H130.82a1.288,1.288,0,0,1,1.286,1.286v.536A1.287,1.287,0,0,1,130.82,99.2H116.1a1.286,1.286,0,0,1-1.286-1.285ZM104.093,111.8a1.213,1.213,0,0,1-.916-.41,1.244,1.244,0,0,1-.31-.964c.251-2.313,1.734-7.692,10.062-7.692s9.809,5.38,10.059,7.693a1.245,1.245,0,0,1-.31.964,1.218,1.218,0,0,1-.917.409Zm17.551,8.731H104.131a.828.828,0,0,1-.822-.758l-.228-2.828a.824.824,0,0,1,.822-.891h17.975a.824.824,0,0,1,.822.893l-.234,2.827a.829.829,0,0,1-.822.757Zm1.439-.705.234-2.828a1.445,1.445,0,0,0-1.439-1.564h-.417a1.894,1.894,0,0,0-.318-3.015h.618a1.855,1.855,0,0,0,1.843-2.059,8.7,8.7,0,0,0-7.116-7.873l-.137-2.665H130.56l-.068,1.244-1,.054a.978.978,0,0,0-.923,1.027l.016.3a.974.974,0,0,0-.9-.431l-1.117.1a.977.977,0,0,0-.888,1.057l.224,2.587a1.18,1.18,0,0,0-.41.29,1.138,1.138,0,0,0-.291.871l1.164,12.148a2.269,2.269,0,0,0,1.179,1.776h-5.018a1.441,1.441,0,0,0,.554-1.017Z"/><path class="e" d="M140.109,123.508H102.956a1.423,1.423,0,0,1-.13-2.841,1.617,1.617,0,0,1-.314-.832l-.228-2.828a1.623,1.623,0,0,1,1.267-1.716,2.068,2.068,0,0,1,.2-2.722,2.039,2.039,0,0,1-1.68-2.231c.274-2.527,1.881-8.4,10.857-8.4a17.238,17.238,0,0,1,2.741.208l-.114-2.214a2.092,2.092,0,0,1-1.538-2.012v-.536a2.089,2.089,0,0,1,2.086-2.086h.37l.2-1.074a1.908,1.908,0,0,1,1.876-1.562h3.37l-.743-3.28a1.025,1.025,0,0,0-.6-.715l-6.193-2.637a1.206,1.206,0,1,1,.942-2.221l6.193,2.637a3.441,3.441,0,0,1,2.009,2.4l.865,3.815h3.943a1.914,1.914,0,0,1,1.869,1.526l.227,1.11h.388a2.089,2.089,0,0,1,2.086,2.086v.536a2.088,2.088,0,0,1-1.551,2.015l-.062,1.134a1.233,1.233,0,0,1,.156.122,1.448,1.448,0,0,1,1.4-1.071h.543a1.448,1.448,0,0,1,1.39,1.048,1.146,1.146,0,0,1,.825-.285l1.119.06a1.156,1.156,0,0,1,1.092,1.071,1.155,1.155,0,0,1,.718-.174l1.117.1a1.157,1.157,0,0,1,1.052,1.253l-.212,2.449a1.354,1.354,0,0,1,.382.291,1.318,1.318,0,0,1,.338,1.009l-1.165,12.149a2.444,2.444,0,0,1-.8,1.578h.86a1.424,1.424,0,0,1,0,2.847Zm-37.153-2.487a1.063,1.063,0,0,0,0,2.127h37.153a1.063,1.063,0,0,0,0-2.127h-2.124l.615-.338a2.092,2.092,0,0,0,1.086-1.635l1.165-12.148a.952.952,0,0,0-.246-.732,1,1,0,0,0-.372-.256l-.125-.049.235-2.709a.8.8,0,0,0-.724-.863l-1.117-.1a.793.793,0,0,0-.582.184.8.8,0,0,0-.15.168l-.365.546.051-.956a.795.795,0,0,0-.752-.838l-1.12-.06a.793.793,0,0,0-.766.462l-.344.744v-.883a1.087,1.087,0,0,0-1.085-1.086h-.543a1.087,1.087,0,0,0-1.086,1.086v1.157l-.35-.957a.79.79,0,0,0-.386-.436l-.1-.054.09-1.636.138-.027a1.726,1.726,0,0,0,1.4-1.693v-.536a1.727,1.727,0,0,0-1.725-1.725h-.683l-.285-1.4a1.552,1.552,0,0,0-1.516-1.238h-4.231l-.928-4.1a3.085,3.085,0,0,0-1.8-2.15l-6.193-2.637a.846.846,0,1,0-.66,1.558l6.193,2.637a1.39,1.39,0,0,1,.809.967l.843,3.721h-3.822a1.548,1.548,0,0,0-1.522,1.266l-.253,1.37H116.1a1.727,1.727,0,0,0-1.725,1.725v.536a1.729,1.729,0,0,0,1.385,1.691l.138.028.151,2.94-.224-.04a16.543,16.543,0,0,0-2.9-.241c-8.684,0-10.235,5.653-10.5,8.084a1.676,1.676,0,0,0,1.664,1.86h.794l-.558.335a1.714,1.714,0,0,0-.288,2.728l.335.313h-.458a1.264,1.264,0,0,0-1.276,1.365l.228,2.828a1.269,1.269,0,0,0,.485.893l.412.322Zm25.293,0h-6.243l.412-.322a1.268,1.268,0,0,0,.486-.89l.234-2.828a1.263,1.263,0,0,0-1.26-1.368H121l.335-.313a1.713,1.713,0,0,0-.289-2.728l-.558-.335h1.269a1.677,1.677,0,0,0,1.664-1.859,8.577,8.577,0,0,0-6.977-7.718l-.133-.03-.153-2.99h14.589l-.088,1.6-1.163.063a.8.8,0,0,0-.753.838l.052.956-.366-.546a.775.775,0,0,0-.15-.168.792.792,0,0,0-.581-.184l-1.117.1a.8.8,0,0,0-.725.863l.236,2.716-.12.051a1.011,1.011,0,0,0-.347.246.954.954,0,0,0-.246.733l1.165,12.148a2.1,2.1,0,0,0,1.086,1.635Zm-5.3-.36h4.032a2.449,2.449,0,0,1-.8-1.579l-1.165-12.148a1.318,1.318,0,0,1,.338-1.009,1.336,1.336,0,0,1,.353-.277l-.214-2.463a1.159,1.159,0,0,1,1.052-1.253l1.118-.1a1.138,1.138,0,0,1,.717.174,1.158,1.158,0,0,1,1.092-1.071l.841-.045.049-.893H116.541l.12,2.34a8.912,8.912,0,0,1,7.122,8,2.037,2.037,0,0,1-2.022,2.259h-.1a2.068,2.068,0,0,1,.2,2.654h.02a1.625,1.625,0,0,1,1.619,1.759l-.234,2.828A1.621,1.621,0,0,1,122.953,120.661Zm-1.309.049H104.131a1.012,1.012,0,0,1-1-.925l-.228-2.828a1.006,1.006,0,0,1,1-1.086h17.975a1.007,1.007,0,0,1,1,1.088l-.234,2.828A1.012,1.012,0,0,1,121.644,120.71ZM103.9,116.232a.646.646,0,0,0-.643.7l.228,2.828a.648.648,0,0,0,.643.593h17.513a.648.648,0,0,0,.642-.591l.234-2.828a.644.644,0,0,0-.642-.7Zm33.62,4.465h-8.812a1.878,1.878,0,0,1-1.9-1.674l-1.165-12.148a.687.687,0,0,1,.179-.533.761.761,0,0,1,.56-.245H128.4a.729.729,0,0,1,.742.713v1.716a3.309,3.309,0,0,0,3.359,3.248h1.234a3.309,3.309,0,0,0,3.359-3.248V106.81a.729.729,0,0,1,.742-.713h2.019a.761.761,0,0,1,.56.245.687.687,0,0,1,.179.533l-1.164,12.148A1.879,1.879,0,0,1,137.523,120.7ZM126.38,106.458a.4.4,0,0,0-.293.126.337.337,0,0,0-.088.257l1.165,12.148a1.52,1.52,0,0,0,1.547,1.348h8.812a1.52,1.52,0,0,0,1.547-1.348l1.165-12.148a.337.337,0,0,0-.088-.257.4.4,0,0,0-.293-.126h-2.019a.368.368,0,0,0-.381.352v1.716a3.67,3.67,0,0,1-3.72,3.609H132.5a3.67,3.67,0,0,1-3.72-3.609V106.81a.368.368,0,0,0-.381-.352Zm-4.619,5.52H104.094a1.4,1.4,0,0,1-1.051-.469,1.421,1.421,0,0,1-.355-1.1c.256-2.361,1.767-7.853,10.241-7.853s9.983,5.492,10.238,7.853a1.423,1.423,0,0,1-.355,1.1A1.4,1.4,0,0,1,121.761,111.978Zm-8.832-9.066c-8.182,0-9.637,5.267-9.883,7.532a1.061,1.061,0,0,0,.265.824,1.037,1.037,0,0,0,.783.35h17.667a1.038,1.038,0,0,0,.783-.35,1.065,1.065,0,0,0,.265-.824C122.564,108.179,121.112,102.912,112.929,102.912Zm20.8,8.6H132.5a3.069,3.069,0,0,1-.319-.016l-.162-.016v-9.922a.828.828,0,0,1,.827-.827h.542a.828.828,0,0,1,.827.827v9.922l-.162.016A3.055,3.055,0,0,1,133.734,111.515Zm-1.355-.363c.04,0,.081,0,.121,0h1.234c.041,0,.081,0,.121,0v-9.591a.468.468,0,0,0-.467-.467h-.542a.468.468,0,0,0-.467.467Zm2.118.282.508-9.43a.528.528,0,0,1,.177-.371.535.535,0,0,1,.359-.138h.03l1.119.06a.539.539,0,0,1,.508.566l-.226,4.195-.02.036a.94.94,0,0,0-.118.457v1.716a3,3,0,0,1-2.086,2.824Zm.868-9.411-.479,8.887a2.629,2.629,0,0,0,1.588-2.384V106.81a1.318,1.318,0,0,1,.142-.593l.222-4.114a.178.178,0,0,0-.167-.187l-1.12-.06a.185.185,0,0,0-.128.045.175.175,0,0,0-.058.122Zm-3.659,9.4-.254-.088a3.007,3.007,0,0,1-2.052-2.813V106.81a.955.955,0,0,0-.146-.5l-.025-.039-.223-4.146a.538.538,0,0,1,.507-.566l1.149-.061a.538.538,0,0,1,.537.509Zm-2.122-5.27a1.311,1.311,0,0,1,.176.653v1.716a2.632,2.632,0,0,0,1.556,2.37l-.477-8.873a.177.177,0,0,0-.177-.167l-1.129.06a.176.176,0,0,0-.167.187Zm10.266-.318h-2.2l.251-2.9a.537.537,0,0,1,.584-.488l1.115.1a.536.536,0,0,1,.489.581Zm-1.811-.361h1.481l.206-2.378a.177.177,0,0,0-.161-.191l-1.117-.1a.213.213,0,0,0-.129.04.174.174,0,0,0-.063.12h0Zm-9.481.36h-2.2l-.236-2.707a.538.538,0,0,1,.489-.581l1.117-.1a.561.561,0,0,1,.393.124.534.534,0,0,1,.189.365Zm-1.874-.36h1.481l-.218-2.506a.175.175,0,0,0-.176-.161l-1.133.1a.178.178,0,0,0-.161.192Zm-10.58-6.1a1.468,1.468,0,0,1-1.467-1.466v-.536a1.468,1.468,0,0,1,1.467-1.466H130.82a1.468,1.468,0,0,1,1.466,1.466v.536a1.468,1.468,0,0,1-1.466,1.466Zm0-3.108A1.107,1.107,0,0,0,115,97.379v.536a1.106,1.106,0,0,0,1.106,1.1H130.82a1.107,1.107,0,0,0,1.106-1.1v-.536a1.107,1.107,0,0,0-1.106-1.106Zm13.769-.619H117.037l.244-1.323a1.288,1.288,0,0,1,1.267-1.054h9.788a1.293,1.293,0,0,1,1.262,1.03Zm-12.4-.361h11.962l-.187-.914a.931.931,0,0,0-.909-.742h-9.788a.93.93,0,0,0-.913.76Zm6.369-2.275h-1.2l-.856-3.778a1.644,1.644,0,0,0-.96-1.148l-6.193-2.637a.587.587,0,1,1,.458-1.081l6.193,2.637a2.822,2.822,0,0,1,1.647,1.968Zm-.916-.361h.465l-.816-3.6a2.458,2.458,0,0,0-1.436-1.716l-6.193-2.638a.228.228,0,0,0-.172,0,.222.222,0,0,0-.124.122.226.226,0,0,0,.12.3l6.193,2.637a2.008,2.008,0,0,1,1.171,1.4h0Z"/><path class="e" d="M108.04,105.384a.31.31,0,0,1-.066-.612l.489-.108a.309.309,0,1,1,.134.6l-.489.109a.314.314,0,0,1-.068.007Z"/><path class="e" d="M108.04,105.565a.49.49,0,0,1-.106-.969l.49-.108a.49.49,0,0,1,.212.956l-.489.109A.481.481,0,0,1,108.04,105.565Zm.49-.729a.143.143,0,0,0-.029,0l-.488.109a.131.131,0,0,0-.1.155.133.133,0,0,0,.154.1l.49-.109a.129.129,0,0,0,.1-.154A.13.13,0,0,0,108.53,104.836Z"/><path class="e" d="M115.023,105.434a.321.321,0,0,1-.075-.009l-.486-.122a.31.31,0,1,1,.15-.6l.486.122a.31.31,0,0,1-.075.61Z"/><path class="e" d="M115.023,105.614a.53.53,0,0,1-.119-.014l-.486-.122a.489.489,0,0,1-.133-.895.486.486,0,0,1,.371-.055l.485.121a.49.49,0,0,1-.118.965Zm-.486-.741a.133.133,0,0,0-.067.019.13.13,0,0,0,.035.237l.486.121a.129.129,0,1,0,.063-.251l-.486-.122A.165.165,0,0,0,114.537,104.873Z"/><path class="e" d="M111.972,106.967h-.5a.31.31,0,1,1,0-.619h.5a.31.31,0,1,1,0,.619Z"/><path class="e" d="M111.972,107.147h-.5a.49.49,0,0,1,0-.98h.5a.49.49,0,0,1,0,.98Zm-.5-.619a.13.13,0,0,0,0,.259h.5a.13.13,0,0,0,0-.259Z"/><path class="e" d="M118.171,106.5a.31.31,0,0,1-.171-.568l.419-.275a.309.309,0,1,1,.34.517l-.418.275A.307.307,0,0,1,118.171,106.5Z"/><path class="e" d="M118.171,106.68a.49.49,0,0,1-.41-.221.492.492,0,0,1,.14-.679l.419-.275a.491.491,0,0,1,.678.14.49.49,0,0,1-.14.679l-.418.275A.486.486,0,0,1,118.171,106.68Zm.418-.895a.128.128,0,0,0-.071.021l-.419.276a.127.127,0,0,0-.055.082.128.128,0,0,0,.018.1.133.133,0,0,0,.18.037l.418-.275a.129.129,0,0,0,.037-.18.127.127,0,0,0-.082-.055A.115.115,0,0,0,118.589,105.785Z"/></g></g></g></svg>