<svg xmlns="http://www.w3.org/2000/svg" width="40.164" height="40.164" viewBox="0 0 40.164 40.164"><defs><style>.a{fill:#ffd93b;}.b{fill:#f4c534;}.c{fill:#fff;}.d{fill:#3e4347;}.e{fill:#e24b4b;}</style></defs><g transform="translate(0 -49.008)"><path class="a" d="M40.164,69.089A20.082,20.082,0,1,1,20.083,49.008,20.084,20.084,0,0,1,40.164,69.089Z"/><path class="b" d="M86.979,115.9a20.084,20.084,0,0,1-35.715,12.608,20.084,20.084,0,0,0,28.241-28.241A20.058,20.058,0,0,1,86.979,115.9Z" transform="translate(-46.817 -46.817)"/><path class="c" d="M107.759,154.133c0,3.841-2.31,6.943-5.173,6.943s-5.162-3.1-5.162-6.943,2.31-6.933,5.162-6.933S107.759,150.3,107.759,154.133Z" transform="translate(-88.973 -89.674)"/><circle class="d" cx="2.981" cy="2.981" r="2.981" transform="translate(10.817 63.06)"/><g transform="translate(14.122 57.526)"><path class="c" d="M164.219,224.979c-.169.265-.6.214-.981-.107s-.547-.784-.378-1.049.6-.214.981.107S164.384,224.721,164.219,224.979Z" transform="translate(-162.795 -217.023)"/><path class="c" d="M246.4,154.133c0,3.841,2.31,6.943,5.173,6.943s5.162-3.1,5.162-6.943-2.31-6.933-5.162-6.933S246.4,150.3,246.4,154.133Z" transform="translate(-239.147 -147.2)"/></g><circle class="d" cx="2.981" cy="2.981" r="2.981" transform="translate(23.382 63.06)"/><path class="c" d="M309.051,224.979c-.169.265-.6.214-.981-.107s-.547-.784-.378-1.049.6-.214.981.107S309.216,224.721,309.051,224.979Z" transform="translate(-280.94 -159.497)"/><path class="d" d="M89.167,312.257a15.5,15.5,0,0,1-29.772.05c-.3-1.055.867-2.258,1.745-1.607,8.679,6.443,17.457,6.839,26.32-.05C88.309,309.99,89.468,311.216,89.167,312.257Z" transform="translate(-54.198 -238.775)"/><g transform="translate(5.148 71.689)"><path class="d" d="M89.167,312.257a15.5,15.5,0,0,1-29.772.05c-.3-1.055.867-2.258,1.745-1.607,8.679,6.443,17.457,6.839,26.32-.05C88.309,309.99,89.468,311.216,89.167,312.257Z" transform="translate(-59.346 -310.464)"/></g><path class="e" d="M158.838,400.224a15.406,15.406,0,0,0,6.916-1.639,7.231,7.231,0,0,0-.69-1.682,4.677,4.677,0,0,0-5.513-2.151,5.455,5.455,0,0,1-2.432.212,4.723,4.723,0,0,0-5.015,3.063c-.068.189-.118.379-.169.569A15.459,15.459,0,0,0,158.838,400.224Z" transform="translate(-138.756 -315.532)"/><path class="c" d="M107.82,314.144c-8.748,6.7-17.412,6.315-25.98.028,3.761,6.424,5.617,7.939,12.876,7.939S104.077,320.58,107.82,314.144Z" transform="translate(-74.74 -242.136)"/></g></svg>