<svg xmlns="http://www.w3.org/2000/svg" width="49" height="71" viewBox="0 0 49 71"><defs><style>.a{fill:#787878;font-size:12px;font-family:Roboto-Regular, Roboto;}.b{fill:#ffd93b;}.c,.g{fill:#fff;}.d{fill:#e24b4b;}.e{fill:#d03f3f;}.f{fill:#3e4347;}.g{opacity:0.25;}.h{fill:#b7b4b4;}.i{fill:#939090;}.j{fill:#5a5858;}</style></defs><text class="a" transform="translate(0 54)"><tspan x="10.036" y="11">Great</tspan></text><g transform="translate(2)"><circle class="b" cx="20" cy="20" r="20"/><path class="b" d="M92.32,72.3A20.019,20.019,0,0,1,56.72,84.87,20.019,20.019,0,0,0,84.87,56.72,20,20,0,0,1,92.32,72.3Z" transform="translate(-52.285 -52.285)"/><path class="b" d="M109.809,144.663a5.649,5.649,0,1,1-5.642-5.655A5.654,5.654,0,0,1,109.809,144.663Z" transform="translate(-90.809 -128.138)"/><circle class="c" cx="5.004" cy="5.004" r="5.004" transform="translate(8.153 11.04)"/><path class="d" d="M109.46,148.695a.349.349,0,0,1-.4.083c-.962-.453-4.692-2.3-5.047-4.059a2.247,2.247,0,0,1,4.1-1.646,2.248,2.248,0,0,1,4.423-.078C112.9,144.759,110.176,147.9,109.46,148.695Z" transform="translate(-95.837 -130.147)"/><path class="e" d="M112.752,200.8a15.65,15.65,0,0,0,4.406,2.929.349.349,0,0,0,.4-.083,22.991,22.991,0,0,0,1.573-1.95C116.16,203.6,113,201.01,112.752,200.8Z" transform="translate(-103.936 -185.099)"/><ellipse class="c" cx="0.773" cy="0.459" rx="0.773" ry="0.459" transform="translate(15.501 12.886) rotate(-162.248)"/><path class="b" d="M269.008,144.663a5.649,5.649,0,1,0,5.642-5.655A5.654,5.654,0,0,0,269.008,144.663Z" transform="translate(-247.973 -128.138)"/><circle class="c" cx="5.004" cy="5.004" r="5.004" transform="translate(21.873 11.04)"/><path class="d" d="M301.086,148.695a.349.349,0,0,0,.4.083c.962-.453,4.692-2.3,5.047-4.059a2.247,2.247,0,0,0-4.1-1.646,2.248,2.248,0,0,0-4.424-.078C297.65,144.759,300.371,147.9,301.086,148.695Z" transform="translate(-274.674 -130.147)"/><path class="e" d="M324.043,200.8a15.664,15.664,0,0,1-4.405,2.929.349.349,0,0,1-.4-.083,22.985,22.985,0,0,1-1.573-1.95C320.635,203.6,323.794,201.01,324.043,200.8Z" transform="translate(-292.825 -185.099)"/><ellipse class="c" cx="0.459" cy="0.773" rx="0.459" ry="0.773" transform="translate(24.54 12.889) rotate(-107.752)"/><path class="f" d="M119.86,320.381a13.066,13.066,0,0,1-25.172-.05.863.863,0,0,1,1.138-1.013,32.532,32.532,0,0,0,22.883.05A.859.859,0,0,1,119.86,320.381Z" transform="translate(-87.258 -294.299)"/><path class="d" d="M188.683,405.119a13.048,13.048,0,0,0,4.45-.783,5.273,5.273,0,0,0-1.909-3.006,2.206,2.206,0,0,0-2.385-.235,2.451,2.451,0,0,1-1.13.253,2.549,2.549,0,0,1-.713-.09,2.845,2.845,0,0,0-2.936.678,5.228,5.228,0,0,0-1.1,1.859A13.025,13.025,0,0,0,188.683,405.119Z" transform="translate(-168.654 -369.504)"/><path class="g" d="M270.449,409.922c-.1.228-.483.275-.847.109s-.577-.483-.473-.711.478-.264.842-.1S270.547,409.705,270.449,409.922Z" transform="translate(-248.061 -377.132)"/><g transform="translate(7.783 7.224)"><path class="f" d="M290.864,94.379a19.5,19.5,0,0,0-5.626-.589c-1.809.079-4.42,1.035-5.51.946.786-1.963,3.721-2.448,5.5-2.341A9.922,9.922,0,0,1,290.864,94.379Z" transform="translate(-265.638 -92.38)"/><path class="f" d="M99.536,94.378a9.922,9.922,0,0,1,5.637-1.984c1.955-.118,4.757.487,5.5,2.341-1.046.085-3.617-.863-5.51-.946A19.539,19.539,0,0,0,99.536,94.378Z" transform="translate(-99.536 -92.38)"/></g></g><g transform="translate(2)"><circle class="h" cx="20" cy="20" r="20"/><path class="i" d="M92.32,72.3A20.019,20.019,0,0,1,56.72,84.87,20.019,20.019,0,0,0,84.87,56.72,20,20,0,0,1,92.32,72.3Z" transform="translate(-52.285 -52.285)"/><path class="h" d="M109.809,144.663a5.649,5.649,0,1,1-5.642-5.655A5.654,5.654,0,0,1,109.809,144.663Z" transform="translate(-90.809 -128.138)"/><circle class="c" cx="5.004" cy="5.004" r="5.004" transform="translate(8.153 11.04)"/><path class="i" d="M109.46,148.695a.349.349,0,0,1-.4.083c-.962-.453-4.692-2.3-5.047-4.059a2.247,2.247,0,0,1,4.1-1.646,2.248,2.248,0,0,1,4.423-.078C112.9,144.759,110.176,147.9,109.46,148.695Z" transform="translate(-95.837 -130.147)"/><path class="i" d="M112.752,200.8a15.65,15.65,0,0,0,4.406,2.929.349.349,0,0,0,.4-.083,22.991,22.991,0,0,0,1.573-1.95C116.16,203.6,113,201.01,112.752,200.8Z" transform="translate(-103.936 -185.099)"/><ellipse class="c" cx="0.773" cy="0.459" rx="0.773" ry="0.459" transform="translate(15.501 12.886) rotate(-162.248)"/><path class="i" d="M269.008,144.663a5.649,5.649,0,1,0,5.642-5.655A5.654,5.654,0,0,0,269.008,144.663Z" transform="translate(-247.973 -128.138)"/><circle class="c" cx="5.004" cy="5.004" r="5.004" transform="translate(21.873 11.04)"/><path class="i" d="M301.086,148.695a.349.349,0,0,0,.4.083c.962-.453,4.692-2.3,5.047-4.059a2.247,2.247,0,0,0-4.1-1.646,2.248,2.248,0,0,0-4.424-.078C297.65,144.759,300.371,147.9,301.086,148.695Z" transform="translate(-274.674 -130.147)"/><path class="i" d="M324.043,200.8a15.664,15.664,0,0,1-4.405,2.929.349.349,0,0,1-.4-.083,22.985,22.985,0,0,1-1.573-1.95C320.635,203.6,323.794,201.01,324.043,200.8Z" transform="translate(-292.825 -185.099)"/><ellipse class="c" cx="0.459" cy="0.773" rx="0.459" ry="0.773" transform="translate(24.54 12.889) rotate(-107.752)"/><path class="i" d="M119.86,320.381a13.066,13.066,0,0,1-25.172-.05.863.863,0,0,1,1.138-1.013,32.532,32.532,0,0,0,22.883.05A.859.859,0,0,1,119.86,320.381Z" transform="translate(-87.258 -294.299)"/><path class="j" d="M188.683,405.119a13.048,13.048,0,0,0,4.45-.783,5.273,5.273,0,0,0-1.909-3.006,2.206,2.206,0,0,0-2.385-.235,2.451,2.451,0,0,1-1.13.253,2.549,2.549,0,0,1-.713-.09,2.845,2.845,0,0,0-2.936.678,5.228,5.228,0,0,0-1.1,1.859A13.025,13.025,0,0,0,188.683,405.119Z" transform="translate(-168.654 -369.504)"/><path class="g" d="M270.449,409.922c-.1.228-.483.275-.847.109s-.577-.483-.473-.711.478-.264.842-.1S270.547,409.705,270.449,409.922Z" transform="translate(-248.061 -377.132)"/><g transform="translate(7.783 7.224)"><path class="i" d="M290.864,94.379a19.5,19.5,0,0,0-5.626-.589c-1.809.079-4.42,1.035-5.51.946.786-1.963,3.721-2.448,5.5-2.341A9.922,9.922,0,0,1,290.864,94.379Z" transform="translate(-265.638 -92.38)"/><path class="i" d="M99.536,94.378a9.922,9.922,0,0,1,5.637-1.984c1.955-.118,4.757.487,5.5,2.341-1.046.085-3.617-.863-5.51-.946A19.539,19.539,0,0,0,99.536,94.378Z" transform="translate(-99.536 -92.38)"/></g></g></svg>