<svg xmlns="http://www.w3.org/2000/svg" width="34.759" height="18" viewBox="0 0 34.759 18"><defs><style>.a{fill:#0e377a;}</style></defs><g transform="translate(-4 -34)"><path class="a" d="M19.5,43.172A2.172,2.172,0,1,0,21.672,41,2.172,2.172,0,0,0,19.5,43.172Zm3.1,0a.931.931,0,1,1-.931-.931A.931.931,0,0,1,22.6,43.172Z" transform="translate(-5.879 -2.655)"/><path class="a" d="M10.5,43.172A2.172,2.172,0,1,0,12.672,41,2.172,2.172,0,0,0,10.5,43.172Zm3.1,0a.931.931,0,1,1-.931-.931A.931.931,0,0,1,13.6,43.172Z" transform="translate(-2.466 -2.655)"/><path class="a" d="M28.5,43.172A2.172,2.172,0,1,0,30.672,41,2.172,2.172,0,0,0,28.5,43.172Zm3.1,0a.931.931,0,1,1-.931-.931.931.931,0,0,1,.931.931Z" transform="translate(-9.293 -2.655)"/><path class="a" d="M37.5,43.172A2.172,2.172,0,1,0,39.672,41,2.172,2.172,0,0,0,37.5,43.172Zm3.1,0a.931.931,0,1,1-.931-.931A.931.931,0,0,1,40.6,43.172Z" transform="translate(-12.707 -2.655)"/><path class="a" d="M26.172,34a2.172,2.172,0,1,0,2.172,2.172A2.172,2.172,0,0,0,26.172,34Zm0,3.1a.931.931,0,1,1,.931-.931.931.931,0,0,1-.931.931Z" transform="translate(-7.586)"/><path class="a" d="M17.172,34a2.172,2.172,0,1,0,2.172,2.172A2.172,2.172,0,0,0,17.172,34Zm0,3.1a.931.931,0,1,1,.931-.931.931.931,0,0,1-.931.931Z" transform="translate(-4.172)"/><path class="a" d="M35.172,34a2.172,2.172,0,1,0,2.172,2.172A2.172,2.172,0,0,0,35.172,34Zm0,3.1a.931.931,0,1,1,.931-.931.931.931,0,0,1-.931.931Z" transform="translate(-11)"/><path class="a" d="M44.172,34a2.172,2.172,0,1,0,2.172,2.172A2.172,2.172,0,0,0,44.172,34Zm0,3.1a.931.931,0,1,1,.931-.931.931.931,0,0,1-.931.931Z" transform="translate(-14.414)"/><path class="a" d="M46.5,43.172A2.172,2.172,0,1,0,48.672,41,2.172,2.172,0,0,0,46.5,43.172Zm2.172-.931a.931.931,0,1,1-.931.931.931.931,0,0,1,.931-.931Z" transform="translate(-16.121 -2.655)"/><path class="a" d="M38.759,56.69v-3.1a2.484,2.484,0,0,0-1.559-2.3,2.149,2.149,0,0,0,.317-1.114,2.172,2.172,0,1,0-4.345,0,2.149,2.149,0,0,0,.317,1.114,2.48,2.48,0,0,0-.938.675,2.48,2.48,0,0,0-.938-.675,2.149,2.149,0,0,0,.317-1.114,2.172,2.172,0,1,0-4.345,0,2.149,2.149,0,0,0,.317,1.114,2.48,2.48,0,0,0-.938.675,2.48,2.48,0,0,0-.938-.675,2.149,2.149,0,0,0,.317-1.114,2.172,2.172,0,1,0-4.345,0,2.149,2.149,0,0,0,.317,1.114,2.48,2.48,0,0,0-.938.675,2.48,2.48,0,0,0-.938-.675,2.149,2.149,0,0,0,.317-1.114,2.172,2.172,0,1,0-4.345,0,2.149,2.149,0,0,0,.317,1.114,2.48,2.48,0,0,0-.938.675,2.48,2.48,0,0,0-.938-.675,2.149,2.149,0,0,0,.317-1.114,2.172,2.172,0,1,0-4.345,0,2.149,2.149,0,0,0,.317,1.114,2.48,2.48,0,0,0-.938.675,2.48,2.48,0,0,0-.938-.675,2.149,2.149,0,0,0,.317-1.114,2.172,2.172,0,1,0-4.345,0,2.149,2.149,0,0,0,.317,1.114A2.484,2.484,0,0,0,4,53.586v3.1a.621.621,0,0,0,.621.621H38.138A.621.621,0,0,0,38.759,56.69ZM7.414,49.241a.931.931,0,1,1-.931.931.931.931,0,0,1,.931-.931Zm2.172,6.828H5.241V53.586a1.243,1.243,0,0,1,1.241-1.241H8.345a1.243,1.243,0,0,1,1.241,1.241ZM13,49.241a.931.931,0,1,1-.931.931A.931.931,0,0,1,13,49.241Zm2.172,6.828H10.828V53.586a1.243,1.243,0,0,1,1.241-1.241h1.862a1.243,1.243,0,0,1,1.241,1.241Zm3.414-6.828a.931.931,0,1,1-.931.931.931.931,0,0,1,.931-.931Zm2.172,6.828H16.414V53.586a1.243,1.243,0,0,1,1.241-1.241h1.862a1.243,1.243,0,0,1,1.241,1.241Zm3.414-6.828a.931.931,0,1,1-.931.931.931.931,0,0,1,.931-.931Zm2.172,6.828H22V53.586a1.243,1.243,0,0,1,1.241-1.241H25.1a1.243,1.243,0,0,1,1.241,1.241Zm3.414-6.828a.931.931,0,1,1-.931.931.931.931,0,0,1,.931-.931Zm2.172,6.828H27.586V53.586a1.243,1.243,0,0,1,1.241-1.241H30.69a1.243,1.243,0,0,1,1.241,1.241Zm3.414-6.828a.931.931,0,1,1-.931.931.931.931,0,0,1,.931-.931Zm2.172,6.828H33.172V53.586a1.243,1.243,0,0,1,1.241-1.241h1.862a1.243,1.243,0,0,1,1.241,1.241Z" transform="translate(0 -5.31)"/></g></svg>