<svg xmlns="http://www.w3.org/2000/svg" width="40" height="40" viewBox="0 0 40 40"><defs><style>.a{fill:#f8f8f8;}.b{fill:#b8b8b8;}.c{fill:#009047;}.d{fill:#efedee;}.e{fill:#ffa300;}.f{fill:#31373d;}</style></defs><g transform="translate(-222 -210)"><rect class="a" width="40" height="40" transform="translate(222 210)"/><g transform="translate(118.934 125.674)"><rect class="b" width="2.224" height="6.308" transform="translate(130.174 86.587)"/><path class="c" d="M134.089,88.334a13.117,13.117,0,0,1-3.069-.5,13.623,13.623,0,0,0-3.215-.526,3.481,3.481,0,0,0-2.159.473,1.2,1.2,0,1,1-1.5-1.863,5.757,5.757,0,0,1,3.658-1,15.7,15.7,0,0,1,3.787.6c1.764.435,2.889.671,3.755.088a1.2,1.2,0,0,1,1.335,1.983A4.485,4.485,0,0,1,134.089,88.334Z"/><path class="d" d="M132.4,90.631h-2.224a2.661,2.661,0,0,0-2.661,2.661v2.5h7.545v-2.5A2.661,2.661,0,0,0,132.4,90.631Z"/><path class="d" d="M141.3,101.268l-9.49-2.852-9.49,2.852a72.206,72.206,0,0,0-.793,11.494l10.68,2.179,9.888-2.179A72.162,72.162,0,0,0,141.3,101.268Z"/><path class="c" d="M140.775,101.219h-18.98c1.06-5.74,3.475-8.324,8.959-8.324h1.063C137.3,92.895,139.716,95.479,140.775,101.219Z"/><path class="c" d="M141.6,119.867a3.877,3.877,0,0,1-3.876,3.873H124.85a3.877,3.877,0,0,1-3.875-3.873c0-2.586,0-4.968.027-7.153H141.57C141.6,114.9,141.6,117.281,141.6,119.867Z"/><path class="e" d="M113.3,118.824l-5.26,2.1c0,1.158.938,2.815,2.1,2.815h6.328c1.157,0,2.1-1.657,2.1-2.815Z"/><path class="d" d="M121.6,94.712a2.128,2.128,0,0,0-2.1-1.817H107.1a2.127,2.127,0,0,0-2.1,1.817q-.161,1.065-.243,2.115l8.547,1.541,8.546-1.541C121.79,96.127,121.711,95.422,121.6,94.712Z"/><path class="e" d="M118.56,115.424l-5.26,3.4-5.26-3.4a41.056,41.056,0,0,1-3.287-18.6h17.093A41.048,41.048,0,0,1,118.56,115.424Z"/><rect class="d" width="10.521" height="5.502" transform="translate(108.04 115.424)"/><ellipse class="d" cx="2.232" cy="4.57" rx="2.232" ry="4.57" transform="translate(111.068 101.689)"/><path class="f" d="M113.3,111.414c1.606,0,2.818-2.217,2.818-5.156S114.9,101.1,113.3,101.1s-2.818,2.216-2.818,5.155S111.693,111.414,113.3,111.414Zm0-9.139c.777,0,1.646,1.7,1.646,3.983s-.869,3.984-1.646,3.984-1.646-1.7-1.646-3.984S112.522,102.275,113.3,102.275Z"/><path class="f" d="M125.319,105.553a.586.586,0,0,0-.586.586v1.079a.586.586,0,1,0,1.172,0v-1.079A.586.586,0,0,0,125.319,105.553Z"/><path class="f" d="M137.837,107.218v-1.079a.586.586,0,0,0-1.172,0v1.079a.586.586,0,0,0,1.172,0Z"/><path class="f" d="M133.143,106.7a.586.586,0,0,0-.827.056,1.4,1.4,0,0,1-2.062,0,.586.586,0,1,0-.883.771,2.576,2.576,0,0,0,3.828,0A.586.586,0,0,0,133.143,106.7Z"/><path class="f" d="M104.415,94.624c-.106.705-.189,1.431-.246,2.156a39.837,39.837,0,0,0,1.364,13.227,38.662,38.662,0,0,0,1.92,5.544v5.374a4.054,4.054,0,0,0,.715,2.171,2.448,2.448,0,0,0,1.967,1.23h6.328a2.448,2.448,0,0,0,1.967-1.23,4.054,4.054,0,0,0,.715-2.171v-5.374a34.341,34.341,0,0,0,1.278-3.386c0,.178,0,.358-.008.541-.029,2.278-.029,4.787-.027,7.161a4.467,4.467,0,0,0,4.461,4.459H137.72a4.469,4.469,0,0,0,4.462-4.458c0-2.376,0-4.885-.027-7.162a71.213,71.213,0,0,0-.8-11.593c-.576-3.12-1.526-5.227-2.991-6.631a7.2,7.2,0,0,0-2.747-1.629,3.255,3.255,0,0,0-2.63-2.754V88.838a8.009,8.009,0,0,0,1.1.082,5.061,5.061,0,0,0,2.921-.856,1.781,1.781,0,0,0-1.99-2.955,1.6,1.6,0,0,1-.942.247,10.975,10.975,0,0,1-2.345-.418,16.178,16.178,0,0,0-3.927-.612,6.316,6.316,0,0,0-4.026,1.13,1.781,1.781,0,1,0,2.233,2.776,3.051,3.051,0,0,1,1.793-.343,8.989,8.989,0,0,1,1.782.209v2a3.254,3.254,0,0,0-2.63,2.755,7.239,7.239,0,0,0-2.558,1.453,8.173,8.173,0,0,0-1.953,2.7c-.006-.077-.01-.153-.016-.231-.058-.725-.141-1.45-.248-2.155a2.7,2.7,0,0,0-2.68-2.316H107.1A2.7,2.7,0,0,0,104.415,94.624Zm4.21,25.715v-4.33h9.348v4.33Zm7.838,2.815h-6.328c-.583,0-1.2-.837-1.423-1.643h9.174C117.663,122.317,117.046,123.154,116.463,123.154Zm24.547-3.288a3.3,3.3,0,0,1-3.29,3.288H124.849a3.3,3.3,0,0,1-3.289-3.288c0-2.171,0-4.454.02-6.566h14.134a.6.6,0,0,0,.586-.586.586.586,0,0,0-.586-.586H121.6c.03-2,.083-3.633.163-5.093a40.643,40.643,0,0,0,.694-5.23h17.83a71.864,71.864,0,0,1,.692,10.323h-2.917a.586.586,0,0,0-.586.586.6.6,0,0,0,.586.586h2.932C141.012,115.412,141.012,117.695,141.01,119.866ZM125.277,87.319a.609.609,0,0,1-.763-.95,5.216,5.216,0,0,1,3.291-.872,15.259,15.259,0,0,1,3.647.579,11.73,11.73,0,0,0,2.625.452,2.766,2.766,0,0,0,1.6-.447.6.6,0,0,1,.339-.1.614.614,0,0,1,.342,1.115,3.873,3.873,0,0,1-2.267.656c-2.139,0-4.137-1.031-6.283-1.031A4,4,0,0,0,125.277,87.319Zm6.529,1.3h.005v1.425h-1.052V88.368C130.8,88.378,131.5,88.55,131.806,88.619Zm-3.559,3.9a2.079,2.079,0,0,1,1.926-1.3H132.4a2.078,2.078,0,0,1,1.925,1.3,12.86,12.86,0,0,0-1.95-.2c-.721-.025-1.445-.024-2.167,0A13.006,13.006,0,0,0,128.247,92.52Zm-.653,1.353a14.8,14.8,0,0,1,4.218-.392,8.074,8.074,0,0,1,5.737,1.847,9.973,9.973,0,0,1,2.511,5.305H122.512v-.017C123.344,96.764,124.855,94.675,127.594,93.873Zm-6.57.926c.071.473.131.956.18,1.442H110.923a.6.6,0,0,0-.586.586.586.586,0,0,0,.586.586H121.3a41.08,41.08,0,0,1-3.121,17.425H108.42A41.064,41.064,0,0,1,105.3,97.413h3.28a.586.586,0,0,0,.586-.586.6.6,0,0,0-.586-.586h-3.185c.049-.486.109-.969.18-1.442a1.534,1.534,0,0,1,1.522-1.318H119.5A1.534,1.534,0,0,1,121.024,94.8Z"/></g></g></svg>