<svg xmlns="http://www.w3.org/2000/svg" width="37.031" height="37.387" viewBox="0 0 37.031 37.387"><defs><style>.a{fill:#e3e0e0;}.b{fill:#f3f6f9;}.c{fill:#4832c3;}.d{fill:#73d7f9;}.e{fill:#f9d335;}.f{fill:#f2c300;}.g{fill:#f9e27d;}.h{fill:#6f59e5;}.i{fill:#b76c6c;}.j{fill:#ffbb98;}.k{fill:#ffcaa6;}.l{fill:#ffaa80;}.m{fill:#c98585;}.n{fill:#965959;}.o{fill:#ffa300;}.p{fill:#f973a3;}.q{fill:#ea2a6a;}.r{fill:#ff4a73;}.s{fill:#87828e;}.t{fill:#a4a4a5;}.u{fill:#796e84;}.v{fill:#242424;}</style></defs><g transform="translate(-6.229 -5.059)"><g transform="translate(6.837 5.667)"><path class="a" d="M46.044,19.15V45.23H10.229V19.15L28.136,9.059Z" transform="translate(-10.229 -9.059)"/><path class="b" d="M12.511,66.979V94.342H10.23V68.264Z" transform="translate(-10.23 -58.172)"/><path class="c" d="M28.136,9.059,10.229,19.15v3.315l17.907-9.857,17.907,9.857V19.15Z" transform="translate(-10.229 -9.059)"/><path class="d" d="M12.511,66.979v3.344L10.23,71.579V68.264Z" transform="translate(-10.23 -58.172)"/><path class="b" d="M233.051,68.264V94.342H230.77V66.979Z" transform="translate(-197.236 -58.172)"/><g transform="translate(3.534 22.542)"><path class="e" d="M33.474,157.308H62.22v4.52H33.474Z" transform="translate(-33.474 -157.308)"/><path class="f" d="M206.728,157.31h2.4v4.519h-2.4Z" transform="translate(-180.384 -157.31)"/><path class="g" d="M33.474,157.311h2.47v4.519h-2.47Z" transform="translate(-33.474 -157.311)"/></g><path class="h" d="M12.511,66.979v3.344L10.23,71.579V68.264Z" transform="translate(-10.23 -58.172)"/><path class="h" d="M230.77,66.979v3.344l2.281,1.256V68.264Z" transform="translate(-197.236 -58.172)"/></g><g transform="translate(12.555 13.622)"><path class="i" d="M59.513,100.7a6.341,6.341,0,0,0-2.339-4.283H50.182a6.341,6.341,0,0,0-2.339,4.283.762.762,0,0,0,.756.867H58.757A.762.762,0,0,0,59.513,100.7Z" transform="translate(-47.835 -91.089)"/><g transform="translate(2.347 3.383)"><path class="j" d="M65.8,83.621H63.27v3.536a3.55,3.55,0,0,0,3.545,3.559,3.507,3.507,0,0,0,3.448-3.5v-3.6Z" transform="translate(-63.27 -83.621)"/><path class="k" d="M67.356,90.667a3.462,3.462,0,0,1-.542.05,3.55,3.55,0,0,1-3.545-3.559V84.4a.781.781,0,0,1,.781-.781h1.172a.781.781,0,0,0-.781.781v2.754A3.572,3.572,0,0,0,67.356,90.667Z" transform="translate(-63.269 -83.622)"/><path class="l" d="M86.521,84.4V87.22a3.507,3.507,0,0,1-3.448,3.5,3.353,3.353,0,0,1-.63-.05,3.51,3.51,0,0,0,2.906-3.447V84.4a.781.781,0,0,0-.781-.781H85.74A.781.781,0,0,1,86.521,84.4Z" transform="translate(-79.528 -83.622)"/></g><path class="i" d="M67.8,61.375H65.734a2.464,2.464,0,0,0-2.464,2.464V66.7a26.782,26.782,0,0,0,4.75-1.945c-.075.662-1.452,1.76-1.452,1.76a4.646,4.646,0,0,0,3.695-1.76v-.918A2.464,2.464,0,0,0,67.8,61.375Z" transform="translate(-60.923 -61.375)"/><path class="m" d="M66.907,61.377a2.464,2.464,0,0,0-2.465,2.464v2.508a11.184,11.184,0,0,1-1.172.356V63.841a2.464,2.464,0,0,1,2.465-2.464Z" transform="translate(-60.924 -61.377)"/><path class="n" d="M88.656,63.842v.918a4.647,4.647,0,0,1-3.7,1.76s.092-.073.23-.194a4.661,4.661,0,0,0,1.384-.694,2.214,2.214,0,0,0,.91-1.791,2.464,2.464,0,0,0-2.465-2.464h1.172A2.464,2.464,0,0,1,88.656,63.842Z" transform="translate(-79.316 -61.378)"/><path class="o" d="M67.976,134.341H59.985v-.06a4,4,0,0,1,7.991,0Z" transform="translate(-58.138 -119.807)"/><path class="p" d="M64.61,130.336a4,4,0,0,0-3.368,3.947v.06H59.987v-.06a4,4,0,0,1,4-4A4.045,4.045,0,0,1,64.61,130.336Z" transform="translate(-58.139 -119.809)"/><path class="q" d="M87.081,134.283v.06H85.943v-.06a4,4,0,0,0-3.427-3.955,4.028,4.028,0,0,1,.57-.041,4,4,0,0,1,4,4Z" transform="translate(-77.243 -119.809)"/><g transform="translate(1.503 19.107)"><path class="r" d="M66.4,187.033v3.252a.716.716,0,0,1-.715.716H58.439a.715.715,0,0,1-.53-.234,0,0,0,0,0,0,0,.72.72,0,0,1-.186-.481v-3.252H66.4Z" transform="translate(-57.722 -187.033)"/><path class="p" d="M59.45,191H58.439a.715.715,0,0,1-.53-.234,0,0,0,0,0,0,0,.72.72,0,0,1-.186-.481v-3.252h1.012v3.252A.716.716,0,0,0,59.45,191Z" transform="translate(-57.722 -187.034)"/><path class="o" d="M104.825,187.033v3.252a.716.716,0,0,1-.715.716h-1.075a.716.716,0,0,0,.716-.716v-3.252Z" transform="translate(-96.145 -187.033)"/><path class="l" d="M72.387,205.017a.983.983,0,0,1-1.212-.683l-1.547-5.543a.984.984,0,1,1,1.895-.529l1.547,5.543A.983.983,0,0,1,72.387,205.017Z" transform="translate(-67.787 -195.944)"/><path class="k" d="M80.546,205.017a.983.983,0,0,0,1.212-.683L83.3,198.79a.984.984,0,1,0-1.895-.529l-1.547,5.543A.983.983,0,0,0,80.546,205.017Z" transform="translate(-76.465 -195.944)"/></g></g><g transform="translate(24.202 15.931)"><path class="s" d="M162.592,125.738h-2.483l.21-5.662h2.064Z" transform="translate(-154.684 -113.46)"/><path class="s" d="M136.938,85.325H125.262a.827.827,0,0,1-.828-.828V77.39a.827.827,0,0,1,.828-.828h11.677a.827.827,0,0,1,.828.828V84.5A.825.825,0,0,1,136.938,85.325Z" transform="translate(-124.434 -76.562)"/><path class="t" d="M127.55,85.329h-2.289a.826.826,0,0,1-.829-.827V77.394a.826.826,0,0,1,.829-.827h2.289a.826.826,0,0,0-.829.827V84.5A.826.826,0,0,0,127.55,85.329Z" transform="translate(-124.432 -76.566)"/><path class="u" d="M194.729,77.394v7.112a.825.825,0,0,1-.829.823h-2.289a.825.825,0,0,0,.829-.823V77.394a.826.826,0,0,0-.829-.827H193.9A.826.826,0,0,1,194.729,77.394Z" transform="translate(-181.396 -76.566)"/></g><path class="v" d="M42.951,15.228,25.043,5.137a.608.608,0,0,0-.6,0L6.539,15.228a.608.608,0,0,0-.31.53v26.08a.608.608,0,0,0,.608.608H42.652a.608.608,0,0,0,.608-.608V15.758A.608.608,0,0,0,42.951,15.228Zm-35.505,4.2,6.884-3.789a3.078,3.078,0,0,0-.036.443v2.57a7.158,7.158,0,0,0-2.332,4.492,1.372,1.372,0,0,0,1.358,1.562h1.964A4.6,4.6,0,0,0,13.821,27.6H7.445ZM25.03,24.086a.217.217,0,0,1-.22-.22V16.759a.217.217,0,0,1,.22-.22H36.707a.217.217,0,0,1,.22.22v7.113a.217.217,0,0,1-.22.214H25.03ZM31.479,27.6H30.258l.085-2.3h1.051Zm-9.966-2.892h1.965a1.363,1.363,0,0,0,.356-.049,1.436,1.436,0,0,0,1.2.643h4.1l-.085,2.3H22.975A4.6,4.6,0,0,0,21.513,24.709Zm.229,2.839H15.055a3.388,3.388,0,0,1,6.686,0Zm-.435-4.055a4.115,4.115,0,0,0,1.2-3.052,5.675,5.675,0,0,1,1.091,3,.153.153,0,0,1-.116.054Zm3.723-8.169a1.438,1.438,0,0,0-1.436,1.436v3.125A6.326,6.326,0,0,0,22.5,18.656v-2.57a3.075,3.075,0,0,0-3.073-3.071h-.325l5.639-3.1,9.833,5.412Zm-5.6-1.092a1.857,1.857,0,0,1,1.857,1.855v.706a4.116,4.116,0,0,1-1.308.984c.275-.45.451-.974.017-1.273a.608.608,0,0,0-.626-.036c-.018.009-1.165.607-2.454,1.146-.465.2-.949.383-1.4.532V16.086a1.862,1.862,0,0,1,1.857-1.855ZM17.6,18.643a.61.61,0,0,0,.587.73,5.142,5.142,0,0,0,3.1-.966v2.2a2.9,2.9,0,0,1-2.848,2.887,2.942,2.942,0,0,1-2.929-2.95V19.417a19.373,19.373,0,0,0,2.094-.774Zm-2.089,4.849h-2.2a.154.154,0,0,1-.154-.173,6.337,6.337,0,0,1,1.128-2.878A4.23,4.23,0,0,0,15.515,23.492ZM9.763,41.229H7.445V28.817H9.763Zm1.216,0V33.337H13.45v2.644A1.327,1.327,0,0,0,14.776,37.3h.976l1.095,3.925H10.98Zm8.189-7.306a1.591,1.591,0,0,0-.77,1.026,1.593,1.593,0,0,0-2.938-.422,1.817,1.817,0,0,0-.049,1.561h-.636a.112.112,0,0,1-.109-.108V33.336H22.13V35.98a.107.107,0,0,1-.107.108h-.637l.1-.35a1.594,1.594,0,0,0-2.315-1.815Zm-1.791,4.684-.892-3.2a.375.375,0,0,1,.722-.2l.559,2Zm.664,2.145,1.547-5.543a.375.375,0,0,1,.723.2l-1.547,5.543A.375.375,0,0,1,18.042,40.753Zm20.468.477H19.951l1.1-3.925h.977a1.325,1.325,0,0,0,1.323-1.324V33.336H38.509v7.893Zm0-9.109H10.98v-3.3H38.509Zm3.534,9.109H39.726V28.817h2.318Zm0-13.629H32.7l-.085-2.3h4.1a1.435,1.435,0,0,0,1.436-1.43V17.285l3.9,2.147V27.6Zm0-9.557L25.038,8.683a.608.608,0,0,0-.586,0L7.446,18.044V16.113l17.3-9.748,17.3,9.748Z"/></g></svg>