<svg xmlns="http://www.w3.org/2000/svg" width="48.181" height="48" viewBox="0 0 48.181 48"><defs><style>.a{fill:#00a611;}.b{fill:#d3a06c;}.c{fill:#b27946;}.d{fill:#fc6e51;}.e{fill:#ccd1d9;}.f{fill:#da360a;}.g{fill:#4832c3;}</style></defs><g transform="translate(-0.764 -0.998)"><g transform="translate(4.818 1.774)"><g transform="translate(19.432)"><path class="a" d="M51.151,12.838a10.764,10.764,0,0,1-1.626,5.706A10.884,10.884,0,0,1,46.87,21.47a8.324,8.324,0,0,0-1.394-.116c-.17,0-.333.008-.5.015a51.878,51.878,0,0,1-7.146-6.046A48.583,48.583,0,0,1,31.1,7.133a10.837,10.837,0,0,1,20.051,5.706Z" transform="translate(-31.1 -2)"/></g><g transform="translate(17.806 5.133)"><path class="a" d="M44.5,22.867a8.6,8.6,0,0,0-2.833.65A8.693,8.693,0,0,0,39.1,25.151,10.837,10.837,0,0,1,30.626,8.63a48.582,48.582,0,0,0,6.728,8.191A51.878,51.878,0,0,0,44.5,22.867Z" transform="translate(-29 -8.63)"/></g><g transform="translate(0 30.967)"><path class="b" d="M13.85,42a7.736,7.736,0,1,1-2.981.55l-.225,1.773h1.548Z" transform="translate(-6 -42)"/></g><g transform="translate(6.968 40.257)"><circle class="c" cx="1.548" cy="1.548" r="1.548"/></g><g transform="translate(10.064 34.838)"><circle class="c" cx="1.548" cy="1.548" r="1.548"/></g><g transform="translate(3.097 36.386)"><circle class="c" cx="1.548" cy="1.548" r="1.548"/></g><g transform="translate(27.684 33.289)"><path class="d" d="M45.817,45v3.1H41.76L43.223,45Z" transform="translate(-41.76 -45)"/></g><g transform="translate(5.419 22.451)"><path class="e" d="M27.709,37.193v1.548H15.988l1.657-2.323v-.774H13L17.645,31H34.677a3.1,3.1,0,0,0,3.1,3.1H49.742l1.192,3.871v.774H38.184l.364-.774v-.774Z" transform="translate(-13 -31)"/></g><g transform="translate(4.645 16.258)"><path class="f" d="M13.548,23l3.871,6.193-4.645,4.645L12,23Z" transform="translate(-12 -23)"/></g><g transform="translate(4.645 27.096)"><path class="f" d="M15.205,40.871l-1.657,2.323H12l.225-1.773L12.774,37h4.645v.774L15.762,40.1Z" transform="translate(-12 -37)"/></g><g transform="translate(20.128 28.644)"><path class="f" d="M42.838,39v.774l-.364.774-1.455,3.1-1.463,3.1-2.911,6.193H32V39Z" transform="translate(-32 -39)"/></g><g transform="translate(27.096 19.354)"><path class="g" d="M49.106,27.116a8.777,8.777,0,0,1,6.952,6.046l.008.031H44.1A3.1,3.1,0,0,1,41,30.1l.542-.542c.085-.085.178-.17.271-.255a8.693,8.693,0,0,1,2.563-1.633,8.6,8.6,0,0,1,2.833-.65c.17-.008.333-.015.5-.015a8.324,8.324,0,0,1,1.394.116Z" transform="translate(-41 -27)"/></g></g><g transform="translate(0.764 0.998)"><path d="M48.667,27.064a9.506,9.506,0,0,0-2.7-4.253c.217-1.021-.26-2.506-1.442-4.5a11.6,11.6,0,0,0-15.805-15.8c-2.686-1.591-4.46-1.925-5.4-.989-1.033,1.033-.387,3.088.987,5.4a11.586,11.586,0,0,0,5.953,16.535H16.268L12.4,17.257H9.588l.828,11.592-.489,3.913a8.526,8.526,0,1,0,7.108-.022h8.093V45.127h5.911l2.915-6.193h4.335V34.289h-2.15l.728-1.548H49.9V31.192Zm-1.855-.516H35.967a2.318,2.318,0,0,1-2.293-2.031l.283-.283a7.951,7.951,0,0,1,12.855,2.315Zm-2.436-4.9a9.4,9.4,0,0,0-1.772-.807,11.591,11.591,0,0,0,.963-1.087,9.2,9.2,0,0,1,.809,1.894Zm.106-9.034a9.98,9.98,0,0,1-3.746,7.818,9.632,9.632,0,0,0-1.154-.077c-.089,0-.177.011-.265.013a52.155,52.155,0,0,1-6.834-5.82,47.505,47.505,0,0,1-6.351-7.635,10.058,10.058,0,0,1,18.349,5.7Zm-20.065-10c.109-.107.9-.207,2.869.855a11.708,11.708,0,0,0-2.011,2.01C24.409,3.879,24.17,2.859,24.418,2.611Zm-.063,10a9.991,9.991,0,0,1,.926-4.191,56,56,0,0,0,6.109,7.22,56.516,56.516,0,0,0,5.731,5.043,9.414,9.414,0,0,0-3.685,1.933,10.079,10.079,0,0,1-9.081-10.005ZM11.539,18.805l3.317,5.308-3.011,3.011-.594-8.318Zm.03,15.483H11.3l.581-4.645h3.01Zm8.915,6.193a6.968,6.968,0,1,1-10.8-5.805l-.146,1.16h2.823l1.64-2.3A6.991,6.991,0,0,1,20.483,40.482Zm9.573,3.1H26.677V31.192h9.209Zm6.685-7.742v1.548H34.682l.728-1.548Zm.774-4.645V29.644H25.128v1.548H15.684l.929-1.3V28.1h-3.55l3.1-3.1H32.174a3.877,3.877,0,0,0,3.793,3.1h11.4l.953,3.1Z" transform="translate(-1.721 -0.998)"/><path d="M8.066,37.4l-.3-1.517-2.038.407,1-1.5-2.5-1.248,2.5-1.248-1-1.5,2.038.407.3-1.517-5.7-1.141,2.1,3.148-3.7,1.849,3.7,1.849-2.1,3.148Z" transform="translate(-0.764 -7.219)"/><path d="M16.323,53A2.325,2.325,0,0,0,14,55.323h1.548a.774.774,0,1,1,.774.774v1.548a2.323,2.323,0,1,0,0-4.645Z" transform="translate(-3.753 -12.742)"/><path d="M13.645,50.323H12.1a.774.774,0,1,1-.774-.774V48a2.323,2.323,0,1,0,2.323,2.323Z" transform="translate(-2.624 -11.613)"/><path d="M20.323,50.645a2.325,2.325,0,0,0,2.323-2.323H21.1a.774.774,0,1,1-.774-.774V46a2.323,2.323,0,1,0,0,4.645Z" transform="translate(-4.656 -11.161)"/><path d="M35,46h1.548v1.548H35Z" transform="translate(-8.496 -11.161)"/><path d="M35,42h1.548v1.548H35Z" transform="translate(-8.496 -10.258)"/><path d="M35,50h1.548v1.548H35Z" transform="translate(-8.496 -12.064)"/><path d="M49.968,13.516h1.548A8.526,8.526,0,0,0,43,5V6.548A6.976,6.976,0,0,1,49.968,13.516Z" transform="translate(-10.302 -1.902)"/><path d="M1,13H2.548v1.548H1Z" transform="translate(-0.817 -3.709)"/><path d="M5,13H6.548v1.548H5Z" transform="translate(-1.721 -3.709)"/><path d="M3,11H4.548v1.548H3Z" transform="translate(-1.269 -3.257)"/><path d="M3,15H4.548v1.548H3Z" transform="translate(-1.269 -4.16)"/><path d="M15,5h1.548V6.548H15Z" transform="translate(-3.979 -1.902)"/><path d="M19,5h1.548V6.548H19Z" transform="translate(-4.882 -1.902)"/><path d="M17,3h1.548V4.548H17Z" transform="translate(-4.431 -1.45)"/><path d="M17,7h1.548V8.548H17Z" transform="translate(-4.431 -2.354)"/><path d="M20,15h1.548v1.548H20Z" transform="translate(-5.108 -4.16)"/><path d="M24,15h1.548v1.548H24Z" transform="translate(-6.011 -4.16)"/><path d="M22,13h1.548v1.548H22Z" transform="translate(-5.56 -3.709)"/><path d="M22,17h1.548v1.548H22Z" transform="translate(-5.56 -4.612)"/><path d="M45,57h1.548v1.548H45Z" transform="translate(-10.754 -13.645)"/><path d="M49,57h1.548v1.548H49Z" transform="translate(-11.657 -13.645)"/><path d="M47,55h1.548v1.548H47Z" transform="translate(-11.206 -13.194)"/><path d="M47,59h1.548v1.548H47Z" transform="translate(-11.206 -14.097)"/><path d="M55,46h1.548v1.548H55Z" transform="translate(-13.012 -11.161)"/><path d="M59,46h1.548v1.548H59Z" transform="translate(-13.916 -11.161)"/><path d="M57,44h1.548v1.548H57Z" transform="translate(-13.464 -10.709)"/><path d="M57,48h1.548v1.548H57Z" transform="translate(-13.464 -11.613)"/></g></g></svg>