<svg xmlns="http://www.w3.org/2000/svg" xmlns:xlink="http://www.w3.org/1999/xlink" width="54.453" height="54.453" viewBox="0 0 54.453 54.453"><defs><style>.a{fill:url(#a);}</style><linearGradient id="a" x1="0.5" x2="0.5" y2="1" gradientUnits="objectBoundingBox"><stop offset="0" stop-color="#0e377a"/><stop offset="1" stop-color="#0072cb"/></linearGradient></defs><g transform="translate(0 0)"><g transform="translate(0 0.001)"><g transform="translate(0 0)"><path class="a" d="M13.615,1.818A5.277,5.277,0,0,0,12.254,2,7.254,7.254,0,0,0,0,7.263a.907.907,0,0,0,.908.908H18.153a.907.907,0,0,0,.908-.908A5.451,5.451,0,0,0,13.615,1.818ZM1.892,6.357h0A5.44,5.44,0,0,1,11.32,3.641a.907.907,0,0,0,1,.243,3.616,3.616,0,0,1,4.81,2.472H1.892Z" transform="translate(-0.002 -0.003)"/></g></g><g transform="translate(13.613 9.984)"><rect class="a" width="2" height="1" transform="translate(-0.162 0.467)"/></g><g transform="translate(17.244 9.984)"><rect class="a" width="2" height="1" transform="translate(0.208 0.467)"/></g><g transform="translate(20.874 9.984)"><rect class="a" width="2" height="1" transform="translate(-0.423 0.467)"/></g><g transform="translate(0 0)"><g transform="translate(0 0)"><path class="a" d="M42.655,26.949a2.713,2.713,0,0,0-2.275-2.685l-3-.5.577-2.889h7.425v5.445h1.815V8.729l6.759-3.38a.907.907,0,0,0,0-1.624L46.691.1a.908.908,0,0,0-1.313.812V15.429H38.535a5.444,5.444,0,1,0-7.632.459l-7.819,6.95-5.076,2.538-2.6-.434a5.443,5.443,0,1,0-7.136.072.807.807,0,0,0-.041.072L5.416,32.4A4.506,4.506,0,0,0,5.8,36.427a4.617,4.617,0,0,0,.49.641l-2.47,4.118L.266,44.736a.907.907,0,0,0,0,1.283l2.723,2.723a.907.907,0,0,0,1.283,0L8.81,44.2a.907.907,0,0,0,.113-.138l3.486-5.229,1.2.109v3.709h-.908a.907.907,0,0,0-.908.908V50.1L.7,52.661a.908.908,0,0,0-.7.885v.908H1.815v-.185l11.095-2.56a.908.908,0,0,0,.7-.885V44.47H27.227a.906.906,0,0,0,.674-.3l7.9-8.775H54.453V33.58h-11.8ZM47.193,2.377l4.324,2.162L47.193,6.7ZM30.857,11.8a3.63,3.63,0,1,1,3.63,3.63A3.634,3.634,0,0,1,30.857,11.8Zm-1.28,7.7L28.2,23.083l-2.564,1.933-.844-1.266ZM8.168,20.874A3.63,3.63,0,1,1,11.8,24.5,3.634,3.634,0,0,1,8.168,20.874ZM7.463,42.985,3.63,46.817,2.191,45.378,5.18,42.389a.9.9,0,0,0,.136-.174l2.437-4.061a4.566,4.566,0,0,0,1.487.4l1.113.1Zm10.688-.329H15.429V38.118a.908.908,0,0,0-.825-.9l-5.2-.473A2.722,2.722,0,0,1,7.11,33.053L9.7,26.319h2.931L18,27.214a.913.913,0,0,0,.555-.083l4.728-2.364.831,1.247-5.3,3.028h-4.3a.907.907,0,0,0-.88.688l-.908,3.63a.907.907,0,0,0,.731,1.114l3.929.655a.9.9,0,0,1,.758.895v6.631ZM36.3,33.58h-.908a.906.906,0,0,0-.674.3l-7.9,8.775H19.966V36.025a2.713,2.713,0,0,0-2.275-2.685l-2.96-.494.5-1.988h3.829a.91.91,0,0,0,.45-.12l6.353-3.63c.014-.008.022-.023.035-.031s.042-.018.061-.032l1.9-1.429a4.543,4.543,0,0,0,.633,1.736,4.616,4.616,0,0,0,.49.641l-2.47,4.118-3.551,3.551a.907.907,0,0,0,0,1.283l2.723,2.723a.907.907,0,0,0,1.283,0L31.5,35.129a.907.907,0,0,0,.113-.138L35.1,29.762l1.2.109Zm-5.861-4.5a4.566,4.566,0,0,0,1.487.4l1.113.1-2.89,4.334-3.832,3.833L24.88,36.3l2.989-2.989A.9.9,0,0,0,28,33.14Zm10.4,4.5H38.117V29.042a.908.908,0,0,0-.825-.9l-5.2-.473A2.722,2.722,0,0,1,29.8,23.977l2.589-6.733h12.99v1.815H37.21a.907.907,0,0,0-.889.73l-.908,4.538a.906.906,0,0,0,.741,1.074l3.929.655a.9.9,0,0,1,.758.894Z" transform="translate(0 0)"/></g></g></g></svg>