<svg id="like" xmlns="http://www.w3.org/2000/svg" xmlns:xlink="http://www.w3.org/1999/xlink" width="121" height="49" viewBox="0 0 121 49">
  <defs>
    <linearGradient id="linear-gradient" x1="0.5" x2="0.5" y2="1" gradientUnits="objectBoundingBox">
      <stop offset="0" stop-color="#0e377a"/>
      <stop offset="1" stop-color="#0072cb"/>
    </linearGradient>
  </defs>
  <g id="like_hover" data-name="like hover" transform="translate(55 12)">
    <circle id="Ellipse_3" data-name="Ellipse 3" cx="24.5" cy="24.5" r="24.5" transform="translate(17 -12)" fill="url(#linear-gradient)"/>
    <g id="Group_21" data-name="Group 21" transform="translate(31 4.324)">
      <g id="Group_20" data-name="Group 20">
        <path id="Path_97" data-name="Path 97" d="M51.837,101.739a2.137,2.137,0,0,0-1.592-3.564h-4.15a13.821,13.821,0,0,0,.586-3.612v-.712A2.855,2.855,0,0,0,43.83,91h-.713a.713.713,0,0,0-.691.54l-.388,1.553c-.544,2.175-2.271,4.575-4.059,5.012a2.141,2.141,0,0,0-1.989-1.355H31.713a.713.713,0,0,0-.713.713v12.83a.713.713,0,0,0,.713.713h4.277a2.141,2.141,0,0,0,1.93-1.219l2.449.816a7.823,7.823,0,0,0,2.479.4h5.971a2.139,2.139,0,0,0,1.988-2.926,2.137,2.137,0,0,0,1.03-3.489,2.134,2.134,0,0,0,0-2.851ZM36.7,108.867a.714.714,0,0,1-.713.713H32.426v-11.4h3.564a.714.714,0,0,1,.713.713Zm12.117-6.415h1.426a.713.713,0,1,1,0,1.426H48.819a.713.713,0,1,0,0,1.426h1.426a.713.713,0,1,1,0,1.426H48.819a.713.713,0,1,0,0,1.426.713.713,0,0,1,0,1.426H42.848a6.4,6.4,0,0,1-2.029-.329l-2.691-.9v-8.82a5.743,5.743,0,0,0,3.2-2.079,10.4,10.4,0,0,0,2.092-4.015l.253-1.014h.156a1.427,1.427,0,0,1,1.426,1.426v.712a11.279,11.279,0,0,1-.682,3.612H43.117a.713.713,0,1,0,0,1.426h7.128a.713.713,0,1,1,0,1.426H48.819a.713.713,0,1,0,0,1.426Z" transform="translate(-31 -91)" fill="#fff"/>
      </g>
    </g>
    <g id="Group_23" data-name="Group 23" transform="translate(33.877 20.063)">
      <g id="Group_22" data-name="Group 22" transform="translate(0 0)">
        <ellipse id="Ellipse_4" data-name="Ellipse 4" cx="0.692" cy="0.721" rx="0.692" ry="0.721" fill="#fff"/>
      </g>
    </g>
    <g id="Group_25" data-name="Group 25" transform="translate(43.83)">
      <g id="Group_24" data-name="Group 24">
        <path id="Path_98" data-name="Path 98" d="M301.713,0A.713.713,0,0,0,301,.713V2.186a.713.713,0,0,0,1.426,0V.713A.713.713,0,0,0,301.713,0Z" transform="translate(-301)" fill="#fff"/>
      </g>
    </g>
    <g id="Group_27" data-name="Group 27" transform="translate(39.294 1.926)">
      <g id="Group_26" data-name="Group 26">
        <path id="Path_99" data-name="Path 99" d="M207.765,41.758l-1.008-1.008a.713.713,0,0,0-1.008,1.008l1.008,1.008a.713.713,0,1,0,1.008-1.008Z" transform="translate(-205.541 -40.542)" fill="#fff"/>
      </g>
    </g>
    <g id="Group_29" data-name="Group 29" transform="translate(47.358 1.926)">
      <g id="Group_28" data-name="Group 28">
        <path id="Path_100" data-name="Path 100" d="M377.471,40.75a.713.713,0,0,0-1.008,0l-1.008,1.008a.713.713,0,0,0,1.008,1.008l1.008-1.008A.713.713,0,0,0,377.471,40.75Z" transform="translate(-375.247 -40.542)" fill="#fff"/>
      </g>
    </g>
  </g>
  <rect id="Rectangle_29" data-name="Rectangle 29" width="64" height="23" rx="4" transform="translate(0 12)" fill="url(#linear-gradient)"/>
  <path id="Path_104" data-name="Path 104" d="M80,18.129l5.08,4.624L80,27.719Z" transform="translate(-16 1)" fill="url(#linear-gradient)"/>
  <text id="Like_It" data-name="Like It" transform="translate(33 27)" fill="#fff" font-size="10" font-family="Roboto-Regular, Roboto"><tspan x="-13.269" y="0">Like It</tspan></text>
</svg>
