<svg xmlns="http://www.w3.org/2000/svg" width="49" height="49" viewBox="0 0 49 49"><defs><style>.a{fill:#fff;}.b{fill:#676f7c;}</style></defs><circle class="a" cx="24.5" cy="24.5" r="24.5"/><g transform="translate(-17 12)"><g transform="translate(31 4.324)"><path class="b" d="M51.837,101.739a2.137,2.137,0,0,0-1.592-3.564h-4.15a13.821,13.821,0,0,0,.586-3.612v-.712A2.855,2.855,0,0,0,43.83,91h-.713a.713.713,0,0,0-.691.54l-.388,1.553c-.544,2.175-2.271,4.575-4.059,5.012a2.141,2.141,0,0,0-1.989-1.355H31.713a.713.713,0,0,0-.713.713v12.83a.713.713,0,0,0,.713.713h4.277a2.141,2.141,0,0,0,1.93-1.219l2.449.816a7.823,7.823,0,0,0,2.479.4h5.971a2.139,2.139,0,0,0,1.988-2.926,2.137,2.137,0,0,0,1.03-3.489,2.134,2.134,0,0,0,0-2.851ZM36.7,108.867a.714.714,0,0,1-.713.713H32.426v-11.4h3.564a.714.714,0,0,1,.713.713Zm12.117-6.415h1.426a.713.713,0,1,1,0,1.426H48.819a.713.713,0,1,0,0,1.426h1.426a.713.713,0,1,1,0,1.426H48.819a.713.713,0,1,0,0,1.426.713.713,0,0,1,0,1.426H42.848a6.4,6.4,0,0,1-2.029-.329l-2.691-.9v-8.82a5.743,5.743,0,0,0,3.2-2.079,10.4,10.4,0,0,0,2.092-4.015l.253-1.014h.156a1.427,1.427,0,0,1,1.426,1.426v.712a11.279,11.279,0,0,1-.682,3.612H43.117a.713.713,0,1,0,0,1.426h7.128a.713.713,0,1,1,0,1.426H48.819a.713.713,0,1,0,0,1.426Z" transform="translate(-31 -91)"/></g><g transform="translate(33.877 20.063)"><g transform="translate(0 0)"><ellipse class="b" cx="0.692" cy="0.721" rx="0.692" ry="0.721"/></g></g><g transform="translate(43.83)"><path class="b" d="M301.713,0A.713.713,0,0,0,301,.713V2.186a.713.713,0,0,0,1.426,0V.713A.713.713,0,0,0,301.713,0Z" transform="translate(-301)"/></g><g transform="translate(39.294 1.926)"><path class="b" d="M207.765,41.758l-1.008-1.008a.713.713,0,0,0-1.008,1.008l1.008,1.008a.713.713,0,1,0,1.008-1.008Z" transform="translate(-205.541 -40.542)"/></g><g transform="translate(47.358 1.926)"><path class="b" d="M377.471,40.75a.713.713,0,0,0-1.008,0l-1.008,1.008a.713.713,0,0,0,1.008,1.008l1.008-1.008A.713.713,0,0,0,377.471,40.75Z" transform="translate(-375.247 -40.542)"/></g></g></svg>