<svg xmlns="http://www.w3.org/2000/svg" width="248.332" height="41.382" viewBox="0 0 248.332 41.382">
  <g id="GM_Logo" data-name="GM Logo" transform="translate(-269.484 -379.765)">
    <g id="Group_1293" data-name="Group 1293">
      <path id="Path_1021" data-name="Path 1021" d="M270.828,412.585a10.513,10.513,0,0,1,1.75-.134,3.3,3.3,0,0,1,1.766.338,1.3,1.3,0,0,1,.711,1.181,1.36,1.36,0,0,1-.976,1.27v.018a1.49,1.49,0,0,1,1.189,1.473,1.573,1.573,0,0,1-.621,1.271,3.786,3.786,0,0,1-2.354.541,10.36,10.36,0,0,1-1.465-.089Zm1.34,2.282h.445c.72,0,1.093-.293,1.093-.737s-.347-.692-.96-.692a2.608,2.608,0,0,0-.578.043Zm0,2.655a2.83,2.83,0,0,0,.525.027c.612,0,1.154-.24,1.154-.87,0-.6-.542-.844-1.217-.844h-.462Z" fill="#555"/>
      <path id="Path_1022" data-name="Path 1022" d="M277.545,412.5v3.437c0,1.039.4,1.562,1.084,1.562.71,0,1.1-.5,1.1-1.562V412.5h1.35v3.357c0,1.847-.933,2.726-2.5,2.726-1.509,0-2.388-.844-2.388-2.744V412.5Z" fill="#555"/>
      <path id="Path_1023" data-name="Path 1023" d="M282.3,417.087a3.424,3.424,0,0,0,1.5.373c.621,0,.95-.258.95-.648,0-.374-.284-.586-1-.835-1-.355-1.652-.906-1.652-1.776,0-1.021.861-1.794,2.264-1.794a3.5,3.5,0,0,1,1.528.3l-.3,1.083a2.8,2.8,0,0,0-1.243-.284c-.586,0-.87.275-.87.577,0,.382.329.551,1.11.844,1.057.39,1.545.941,1.545,1.785,0,1-.763,1.856-2.406,1.856a3.893,3.893,0,0,1-1.7-.373Z" fill="#555"/>
      <path id="Path_1024" data-name="Path 1024" d="M288.416,412.5v5.985h-1.351V412.5Z" fill="#555"/>
      <path id="Path_1025" data-name="Path 1025" d="M289.589,418.481V412.5h1.581l1.244,2.193a18.8,18.8,0,0,1,.976,2.051h.019a24.634,24.634,0,0,1-.108-2.5V412.5h1.244v5.985h-1.421l-1.279-2.309a21.23,21.23,0,0,1-1.039-2.113h-.035c.044.8.062,1.642.062,2.62v1.8Z" fill="#555"/>
      <path id="Path_1026" data-name="Path 1026" d="M299.283,415.95h-2.2v1.421h2.459v1.11h-3.81V412.5h3.686v1.109h-2.335v1.244h2.2Z" fill="#555"/>
      <path id="Path_1027" data-name="Path 1027" d="M300.512,417.087a3.423,3.423,0,0,0,1.5.373c.622,0,.951-.258.951-.648,0-.374-.284-.586-1-.835-1-.355-1.652-.906-1.652-1.776,0-1.021.862-1.794,2.265-1.794a3.5,3.5,0,0,1,1.528.3l-.3,1.083a2.8,2.8,0,0,0-1.243-.284c-.586,0-.87.275-.87.577,0,.382.328.551,1.11.844,1.057.39,1.545.941,1.545,1.785,0,1-.763,1.856-2.406,1.856a3.893,3.893,0,0,1-1.7-.373Z" fill="#555"/>
      <path id="Path_1028" data-name="Path 1028" d="M305.311,417.087a3.423,3.423,0,0,0,1.5.373c.622,0,.951-.258.951-.648,0-.374-.284-.586-1-.835-.995-.355-1.652-.906-1.652-1.776,0-1.021.862-1.794,2.265-1.794a3.5,3.5,0,0,1,1.528.3l-.3,1.083a2.8,2.8,0,0,0-1.243-.284c-.586,0-.87.275-.87.577,0,.382.328.551,1.11.844,1.057.39,1.545.941,1.545,1.785,0,1-.763,1.856-2.406,1.856a3.889,3.889,0,0,1-1.7-.373Z" fill="#555"/>
      <path id="Path_1029" data-name="Path 1029" d="M313.247,416.945l-.418,1.536h-1.4l1.829-5.985h1.768l1.864,5.985h-1.456l-.462-1.536Zm1.518-1.012-.373-1.271c-.1-.354-.2-.808-.293-1.154h-.026c-.08.355-.178.808-.267,1.154l-.364,1.271Z" fill="#555"/>
      <path id="Path_1030" data-name="Path 1030" d="M317.691,412.585a10.868,10.868,0,0,1,1.82-.134,3.894,3.894,0,0,1,2.46.64,2.636,2.636,0,0,1,1.013,2.256,3.062,3.062,0,0,1-.985,2.424,4.327,4.327,0,0,1-2.772.772,11.508,11.508,0,0,1-1.536-.089Zm1.35,4.875a2.6,2.6,0,0,0,.47.026,1.864,1.864,0,0,0,2.043-2.1,1.73,1.73,0,0,0-1.9-1.9,2.85,2.85,0,0,0-.613.054Z" fill="#555"/>
      <path id="Path_1031" data-name="Path 1031" d="M325.227,418.481l-1.918-5.985h1.483l.728,2.53c.2.72.391,1.395.533,2.141h.027c.151-.72.337-1.43.542-2.113l.763-2.558h1.439l-2.016,5.985Z" fill="#555"/>
      <path id="Path_1032" data-name="Path 1032" d="M330.827,412.5v5.985h-1.351V412.5Z" fill="#555"/>
      <path id="Path_1033" data-name="Path 1033" d="M332.045,417.087a3.423,3.423,0,0,0,1.5.373c.622,0,.952-.258.952-.648,0-.374-.285-.586-1-.835-1-.355-1.653-.906-1.653-1.776,0-1.021.863-1.794,2.265-1.794a3.5,3.5,0,0,1,1.528.3l-.3,1.083a2.807,2.807,0,0,0-1.244-.284c-.586,0-.87.275-.87.577,0,.382.328.551,1.111.844,1.056.39,1.545.941,1.545,1.785,0,1-.764,1.856-2.407,1.856a3.893,3.893,0,0,1-1.7-.373Z" fill="#555"/>
      <path id="Path_1034" data-name="Path 1034" d="M339.339,418.579a2.8,2.8,0,0,1-2.815-3.046,2.9,2.9,0,0,1,2.913-3.135,2.79,2.79,0,0,1,2.842,3.029,2.843,2.843,0,0,1-2.931,3.152Zm.072-1.075c.914,0,1.438-.861,1.438-2.033,0-1.075-.506-2-1.438-2s-1.457.9-1.457,2.024.542,2.007,1.448,2.007Z" fill="#555"/>
      <path id="Path_1035" data-name="Path 1035" d="M343.171,412.585a10.623,10.623,0,0,1,1.8-.134,3,3,0,0,1,1.937.48,1.5,1.5,0,0,1,.559,1.252,1.585,1.585,0,0,1-1.057,1.465v.027a1.491,1.491,0,0,1,.8,1.11c.187.684.365,1.465.48,1.7h-1.386a8.02,8.02,0,0,1-.408-1.394c-.169-.755-.427-.95-.985-.959h-.4v2.353h-1.341Zm1.341,2.566h.533c.675,0,1.075-.338,1.075-.861,0-.542-.373-.826-.995-.826a2.68,2.68,0,0,0-.613.044Z" fill="#555"/>
      <path id="Path_1036" data-name="Path 1036" d="M353.519,410.481v10.666h-.459V410.481Z" fill="#1272b9"/>
      <path id="Path_1037" data-name="Path 1037" d="M362.881,415.95h-2.2v1.421h2.46v1.11h-3.81V412.5h3.685v1.109h-2.335v1.244h2.2Z" fill="#555"/>
      <path id="Path_1038" data-name="Path 1038" d="M364.066,418.481V412.5h1.581l1.243,2.193a18.807,18.807,0,0,1,.977,2.051h.018a24.638,24.638,0,0,1-.107-2.5V412.5h1.244v5.985H367.6l-1.278-2.309a21.019,21.019,0,0,1-1.039-2.113h-.035c.044.8.061,1.642.061,2.62v1.8Z" fill="#555"/>
      <path id="Path_1039" data-name="Path 1039" d="M371.362,413.633h-1.616V412.5h4.6v1.137h-1.634v4.848h-1.35Z" fill="#555"/>
      <path id="Path_1040" data-name="Path 1040" d="M375.069,412.585a10.6,10.6,0,0,1,1.8-.134,3,3,0,0,1,1.936.48,1.5,1.5,0,0,1,.56,1.252,1.584,1.584,0,0,1-1.058,1.465v.027a1.494,1.494,0,0,1,.8,1.11c.186.684.364,1.465.479,1.7H378.2a7.984,7.984,0,0,1-.409-1.394c-.169-.755-.426-.95-.985-.959h-.4v2.353h-1.341Zm1.341,2.566h.533c.675,0,1.074-.338,1.074-.861,0-.542-.373-.826-.994-.826a2.674,2.674,0,0,0-.613.044Z" fill="#555"/>
      <path id="Path_1041" data-name="Path 1041" d="M383.9,415.95h-2.2v1.421h2.459v1.11h-3.81V412.5h3.686v1.109H381.7v1.244h2.2Z" fill="#555"/>
      <path id="Path_1042" data-name="Path 1042" d="M385.084,412.575a11.222,11.222,0,0,1,1.831-.124,2.82,2.82,0,0,1,1.829.488,1.7,1.7,0,0,1,.639,1.377,1.854,1.854,0,0,1-.55,1.421,2.821,2.821,0,0,1-1.946.63,2.38,2.38,0,0,1-.462-.035v2.149h-1.341Zm1.341,2.718a2.074,2.074,0,0,0,.453.035c.72,0,1.164-.363,1.164-.968,0-.55-.382-.879-1.066-.879a2.463,2.463,0,0,0-.551.044Z" fill="#555"/>
      <path id="Path_1043" data-name="Path 1043" d="M390.249,412.585a10.6,10.6,0,0,1,1.8-.134,3,3,0,0,1,1.937.48,1.5,1.5,0,0,1,.559,1.252,1.585,1.585,0,0,1-1.057,1.465v.027a1.494,1.494,0,0,1,.8,1.11c.186.684.364,1.465.479,1.7h-1.386a8.023,8.023,0,0,1-.408-1.394c-.169-.755-.427-.95-.985-.959h-.4v2.353h-1.34Zm1.34,2.566h.534c.674,0,1.074-.338,1.074-.861,0-.542-.373-.826-.994-.826a2.691,2.691,0,0,0-.614.044Z" fill="#555"/>
      <path id="Path_1044" data-name="Path 1044" d="M399.081,415.95h-2.2v1.421h2.46v1.11h-3.81V412.5h3.685v1.109h-2.335v1.244h2.2Z" fill="#555"/>
      <path id="Path_1045" data-name="Path 1045" d="M400.264,418.481V412.5h1.582l1.243,2.193a18.8,18.8,0,0,1,.976,2.051h.018a24.945,24.945,0,0,1-.106-2.5V412.5h1.243v5.985H403.8l-1.279-2.309a21.243,21.243,0,0,1-1.04-2.113h-.035c.044.8.062,1.642.062,2.62v1.8Z" fill="#555"/>
      <path id="Path_1046" data-name="Path 1046" d="M409.959,415.95h-2.2v1.421h2.459v1.11h-3.81V412.5h3.686v1.109h-2.335v1.244h2.2Z" fill="#555"/>
      <path id="Path_1047" data-name="Path 1047" d="M412.493,412.5v3.437c0,1.039.4,1.562,1.084,1.562.71,0,1.1-.5,1.1-1.562V412.5h1.349v3.357c0,1.847-.932,2.726-2.5,2.726-1.51,0-2.388-.844-2.388-2.744V412.5Z" fill="#555"/>
      <path id="Path_1048" data-name="Path 1048" d="M417.2,412.585a10.613,10.613,0,0,1,1.8-.134,3,3,0,0,1,1.936.48,1.5,1.5,0,0,1,.56,1.252,1.584,1.584,0,0,1-1.058,1.465v.027a1.492,1.492,0,0,1,.8,1.11c.187.684.364,1.465.48,1.7h-1.386a8.023,8.023,0,0,1-.408-1.394c-.169-.755-.427-.95-.986-.959h-.4v2.353H417.2Zm1.341,2.566h.533c.675,0,1.074-.338,1.074-.861,0-.542-.373-.826-.994-.826a2.68,2.68,0,0,0-.613.044Z" fill="#555"/>
      <path id="Path_1049" data-name="Path 1049" d="M427.552,410.481v10.666h-.459V410.481Z" fill="#1272b9"/>
      <path id="Path_1050" data-name="Path 1050" d="M434.738,416.945l-.418,1.536h-1.4l1.829-5.985h1.768l1.864,5.985h-1.456l-.462-1.536Zm1.519-1.012-.373-1.271c-.1-.354-.2-.808-.293-1.154h-.027c-.08.355-.177.808-.266,1.154l-.364,1.271Z" fill="#555"/>
      <path id="Path_1051" data-name="Path 1051" d="M440.222,412.5v3.437c0,1.039.4,1.562,1.084,1.562.71,0,1.1-.5,1.1-1.562V412.5h1.35v3.357c0,1.847-.933,2.726-2.5,2.726-1.51,0-2.389-.844-2.389-2.744V412.5Z" fill="#555"/>
      <path id="Path_1052" data-name="Path 1052" d="M446.1,413.633H444.48V412.5h4.6v1.137h-1.634v4.848H446.1Z" fill="#555"/>
      <path id="Path_1053" data-name="Path 1053" d="M451.163,412.5V414.8h2.229V412.5h1.349v5.985h-1.349v-2.5h-2.229v2.5h-1.351V412.5Z" fill="#555"/>
      <path id="Path_1054" data-name="Path 1054" d="M458.467,418.579a2.8,2.8,0,0,1-2.816-3.046,2.9,2.9,0,0,1,2.913-3.135,2.79,2.79,0,0,1,2.842,3.029,2.842,2.842,0,0,1-2.93,3.152Zm.071-1.075c.914,0,1.439-.861,1.439-2.033,0-1.075-.506-2-1.439-2s-1.457.9-1.457,2.024.542,2.007,1.448,2.007Z" fill="#555"/>
      <path id="Path_1055" data-name="Path 1055" d="M462.3,412.585a10.6,10.6,0,0,1,1.8-.134,3,3,0,0,1,1.936.48,1.5,1.5,0,0,1,.56,1.252,1.584,1.584,0,0,1-1.058,1.465v.027a1.494,1.494,0,0,1,.8,1.11c.186.684.364,1.465.479,1.7h-1.385a7.989,7.989,0,0,1-.409-1.394c-.169-.755-.426-.95-.985-.959h-.4v2.353H462.3Zm1.341,2.566h.533c.675,0,1.074-.338,1.074-.861,0-.542-.373-.826-.994-.826a2.674,2.674,0,0,0-.613.044Z" fill="#555"/>
      <path id="Path_1056" data-name="Path 1056" d="M472.646,410.481v10.666h-.459V410.481Z" fill="#1272b9"/>
      <path id="Path_1057" data-name="Path 1057" d="M479.808,412.5v5.985h-1.351V412.5Z" fill="#555"/>
      <path id="Path_1058" data-name="Path 1058" d="M480.98,418.481V412.5h1.582l1.243,2.193a18.8,18.8,0,0,1,.976,2.051h.019a24.634,24.634,0,0,1-.108-2.5V412.5h1.245v5.985h-1.422l-1.279-2.309a21.236,21.236,0,0,1-1.039-2.113h-.035c.044.8.062,1.642.062,2.62v1.8Z" fill="#555"/>
      <path id="Path_1059" data-name="Path 1059" d="M488.525,418.481l-1.918-5.985h1.484l.727,2.53c.2.72.391,1.395.534,2.141h.026c.151-.72.338-1.43.542-2.113l.764-2.558h1.438l-2.016,5.985Z" fill="#555"/>
      <path id="Path_1060" data-name="Path 1060" d="M496.327,415.95h-2.2v1.421h2.46v1.11h-3.811V412.5h3.686v1.109h-2.335v1.244h2.2Z" fill="#555"/>
      <path id="Path_1061" data-name="Path 1061" d="M497.557,417.087a3.417,3.417,0,0,0,1.5.373c.621,0,.95-.258.95-.648,0-.374-.284-.586-1-.835-.995-.355-1.651-.906-1.651-1.776,0-1.021.861-1.794,2.263-1.794a3.5,3.5,0,0,1,1.529.3l-.3,1.083a2.806,2.806,0,0,0-1.243-.284c-.586,0-.87.275-.87.577,0,.382.329.551,1.11.844,1.057.39,1.545.941,1.545,1.785,0,1-.764,1.856-2.406,1.856a3.9,3.9,0,0,1-1.7-.373Z" fill="#555"/>
      <path id="Path_1062" data-name="Path 1062" d="M503.474,413.633h-1.617V412.5h4.6v1.137h-1.634v4.848h-1.35Z" fill="#555"/>
      <path id="Path_1063" data-name="Path 1063" d="M509.463,418.579a2.8,2.8,0,0,1-2.816-3.046,2.9,2.9,0,0,1,2.914-3.135,2.79,2.79,0,0,1,2.841,3.029,2.842,2.842,0,0,1-2.93,3.152Zm.071-1.075c.914,0,1.439-.861,1.439-2.033,0-1.075-.506-2-1.439-2s-1.457.9-1.457,2.024.542,2.007,1.448,2.007Z" fill="#555"/>
      <path id="Path_1064" data-name="Path 1064" d="M513.3,412.585a10.6,10.6,0,0,1,1.8-.134,3,3,0,0,1,1.936.48,1.5,1.5,0,0,1,.56,1.252,1.584,1.584,0,0,1-1.058,1.465v.027a1.492,1.492,0,0,1,.8,1.11c.186.684.364,1.465.479,1.7h-1.385a7.982,7.982,0,0,1-.409-1.394c-.168-.755-.426-.95-.985-.959h-.4v2.353H513.3Zm1.341,2.566h.533c.675,0,1.074-.338,1.074-.861,0-.542-.373-.826-.994-.826a2.674,2.674,0,0,0-.613.044Z" fill="#555"/>
    </g>
    <g id="Group_1294" data-name="Group 1294">
      <path id="Path_1065" data-name="Path 1065" d="M281.156,379.765a9.455,9.455,0,0,1,3.387.534,11.069,11.069,0,0,1,2.694,1.528,1.054,1.054,0,0,0,.645.31q.615,0,.8-1.923h.74q-.126,2.172-.126,7.691h-.74a15.046,15.046,0,0,0-.756-3.488,5.225,5.225,0,0,0-1.67-2.265,5.705,5.705,0,0,0-1.922-1.147,6.594,6.594,0,0,0-2.3-.419,5.181,5.181,0,0,0-3.017.908,6.412,6.412,0,0,0-2.1,2.465,14.069,14.069,0,0,0-1.173,3.474,20.21,20.21,0,0,0-.394,4.07q0,11.009,6.191,11.009a4.02,4.02,0,0,0,2.284-.62,1.76,1.76,0,0,0,.615-.691,2.343,2.343,0,0,0,.173-.968v-3.117a4.23,4.23,0,0,0-.6-2.752,4.164,4.164,0,0,0-2.662-.69v-.636q1.859.108,5.514.108,2.961,0,4.332-.108v.636c-.63.052-1.033.232-1.206.542a5.582,5.582,0,0,0-.259,2.187V402.7h-.647a3.552,3.552,0,0,0-.275-1.241q-.244-.573-.669-.573a4.468,4.468,0,0,0-1.733.651A10.748,10.748,0,0,1,281,403.147q-5.594,0-8.554-2.992t-2.961-8.435a12.908,12.908,0,0,1,1.488-6.28,10.381,10.381,0,0,1,4.143-4.2A12.237,12.237,0,0,1,281.156,379.765Z" fill="#3970b7"/>
      <path id="Path_1066" data-name="Path 1066" d="M303.462,380.152l7.83,19.879a3.835,3.835,0,0,0,.953,1.528,1.825,1.825,0,0,0,1.079.5v.635q-1.923-.093-4.9-.094-3.308,0-4.915.094v-.635a4.863,4.863,0,0,0,1.741-.295.882.882,0,0,0,.528-.869,4.347,4.347,0,0,0-.378-1.5l-1.938-5.21h-7.01l-.867,2.2a10.37,10.37,0,0,0-.881,3.52,1.83,1.83,0,0,0,.716,1.652,4.117,4.117,0,0,0,2.151.5v.635q-2.207-.093-4.018-.094-1.5,0-2.472.094v-.635q1.621-.3,2.8-3.334l7.341-18.577q.52.047,1.118.047T303.462,380.152Zm-.236,13.4-3.2-8.544-3.34,8.544Z" fill="#3970b7"/>
      <path id="Path_1067" data-name="Path 1067" d="M334.732,380.214v.636a2.433,2.433,0,0,0-1.962,1.024,7.457,7.457,0,0,0-.448,3.163v8.42q0,4.559-1.323,6.729-1.8,2.961-6.523,2.961a9.2,9.2,0,0,1-5.812-1.612,5.733,5.733,0,0,1-2.017-2.961,18.868,18.868,0,0,1-.52-5.024v-9.971a9.179,9.179,0,0,0-.079-1.4,1.454,1.454,0,0,0-.37-.791,1.4,1.4,0,0,0-.717-.411,7.033,7.033,0,0,0-1.259-.132v-.636q1.653.093,5.056.093,3.308,0,5.1-.093v.636a5.628,5.628,0,0,0-1.678.248,1.251,1.251,0,0,0-.725.744,5.181,5.181,0,0,0-.211,1.737v11.986a9.458,9.458,0,0,0,.984,4.9,3.772,3.772,0,0,0,3.474,1.566,6.476,6.476,0,0,0,2.354-.4,4.49,4.49,0,0,0,1.678-1.1,5.514,5.514,0,0,0,1.079-1.752,9.878,9.878,0,0,0,.591-2.256,19.344,19.344,0,0,0,.173-2.714v-8.389a17.694,17.694,0,0,0-.1-2.163,3.183,3.183,0,0,0-.457-1.318,1.866,1.866,0,0,0-.938-.767,6.88,6.88,0,0,0-1.638-.326v-.636q1.245.093,3.481.093Q333.739,380.307,334.732,380.214Z" fill="#3970b7"/>
      <path id="Path_1068" data-name="Path 1068" d="M357.825,400.915l.441.388a5.4,5.4,0,0,1-1.867,1.411,6.067,6.067,0,0,1-2.418.433,4.945,4.945,0,0,1-2.93-.775,3.987,3.987,0,0,1-1.433-2.666l-.568-3.164q-.157-.9-.3-1.5a9.968,9.968,0,0,0-.378-1.225,3.391,3.391,0,0,0-.536-.985,2.3,2.3,0,0,0-.755-.581,2.327,2.327,0,0,0-1.04-.225h-2.1v7.3a9.235,9.235,0,0,0,.078,1.388,1.483,1.483,0,0,0,.37.8,1.415,1.415,0,0,0,.725.411,7.134,7.134,0,0,0,1.253.132v.635q-1.749-.093-4.884-.094-3.467,0-5.088.094v-.635a6.945,6.945,0,0,0,1.244-.132,1.412,1.412,0,0,0,.717-.411,1.479,1.479,0,0,0,.37-.791,9.194,9.194,0,0,0,.079-1.4V383.579a9.219,9.219,0,0,0-.079-1.388,1.484,1.484,0,0,0-.37-.8,1.405,1.405,0,0,0-.717-.411,6.945,6.945,0,0,0-1.244-.132v-.636q1.623.093,4.9.093,1.214,0,3.017-.031t2.056-.031q4.44,0,6.686,1.435a4.574,4.574,0,0,1,2.245,4.086,5.941,5.941,0,0,1-.2,1.573,5.042,5.042,0,0,1-.724,1.512,5.784,5.784,0,0,1-1.316,1.357,7.841,7.841,0,0,1-2.079,1.054,13.115,13.115,0,0,1-2.922.644h.016a9.159,9.159,0,0,1,4.34,1.225,4.575,4.575,0,0,1,1.85,2.962l.725,3.271a5.519,5.519,0,0,0,.6,1.783,1.055,1.055,0,0,0,.93.5A1.734,1.734,0,0,0,357.825,400.915ZM345.947,380.85a1.906,1.906,0,0,0-1.614.535,4.155,4.155,0,0,0-.386,2.194v7.815h1.386a6.092,6.092,0,0,0,1.945-.279,3.706,3.706,0,0,0,1.331-.737,3.373,3.373,0,0,0,.811-1.147,5.512,5.512,0,0,0,.418-1.426,11.405,11.405,0,0,0,.111-1.683,6.846,6.846,0,0,0-.938-3.938A3.479,3.479,0,0,0,345.947,380.85Z" fill="#3970b7"/>
      <path id="Path_1069" data-name="Path 1069" d="M369.514,380.152l7.829,19.879a3.857,3.857,0,0,0,.953,1.528,1.83,1.83,0,0,0,1.079.5v.635q-1.923-.093-4.9-.094-3.308,0-4.915.094v-.635a4.852,4.852,0,0,0,1.74-.295.881.881,0,0,0,.529-.869,4.347,4.347,0,0,0-.378-1.5l-1.938-5.21H362.5l-.866,2.2a10.352,10.352,0,0,0-.882,3.52,1.83,1.83,0,0,0,.717,1.652,4.117,4.117,0,0,0,2.151.5v.635q-2.206-.093-4.018-.094-1.5,0-2.473.094v-.635q1.622-.3,2.8-3.334l7.341-18.577q.52.047,1.118.047T369.514,380.152Zm-.236,13.4-3.2-8.544-3.34,8.544Z" fill="#3970b7"/>
      <path id="Path_1070" data-name="Path 1070" d="M396.167,380.307q1.48,0,2.458-.093v.636q-1.828.7-2.947,3.768l-6.821,18.142c-.462-.021-.834-.031-1.118-.031s-.656.01-1.118.031L378.4,382.881q-.8-1.97-2.032-2.031v-.636q1.937.093,4.915.093,3.322,0,4.9-.093v.636a5.014,5.014,0,0,0-1.74.287.889.889,0,0,0-.528.891,4.315,4.315,0,0,0,.379,1.489l5.7,14.219,3.969-10.544a11.715,11.715,0,0,0,.9-3.845,2.352,2.352,0,0,0-.685-1.877,3.154,3.154,0,0,0-2.024-.62v-.636Q394.324,380.307,396.167,380.307Z" fill="#3970b7"/>
      <path id="Path_1071" data-name="Path 1071" d="M434.227,380.214v.636a7.038,7.038,0,0,0-1.261.132,1.405,1.405,0,0,0-.717.411,1.475,1.475,0,0,0-.37.791,9.179,9.179,0,0,0-.079,1.4v15.754a9.21,9.21,0,0,0,.079,1.388,1.483,1.483,0,0,0,.37.8,1.411,1.411,0,0,0,.725.411,7.123,7.123,0,0,0,1.253.132v.635q-1.8-.093-5.074-.094-3.449,0-5.1.094v-.635a8.175,8.175,0,0,0,1.346-.132,1.566,1.566,0,0,0,.781-.411,1.436,1.436,0,0,0,.4-.8,8.419,8.419,0,0,0,.087-1.388V382.8l-7.767,19.94h-.519l-8.711-20.483v15.227q0,1.147.055,1.8a6.232,6.232,0,0,0,.22,1.217,1.587,1.587,0,0,0,.528.845,2.908,2.908,0,0,0,.906.45,7.671,7.671,0,0,0,1.426.264v.635q-1.262-.093-3.5-.094-1.782,0-2.8.094v-.635a2.461,2.461,0,0,0,1.97-1.024,7.364,7.364,0,0,0,.456-3.163v-14.3a9.524,9.524,0,0,0-.078-1.388,1.484,1.484,0,0,0-.37-.8,1.412,1.412,0,0,0-.725-.411,7.134,7.134,0,0,0-1.253-.132v-.636q1.008.093,2.8.093,3.008,0,5.1-.093l6.506,15.444,5.954-15.351h2.284Q432.431,380.307,434.227,380.214Z" fill="#3970b7"/>
      <path id="Path_1072" data-name="Path 1072" d="M447.176,380.152l7.829,19.879a3.846,3.846,0,0,0,.953,1.528,1.827,1.827,0,0,0,1.079.5v.635q-1.923-.093-4.9-.094-3.307,0-4.915.094v-.635a4.861,4.861,0,0,0,1.74-.295.882.882,0,0,0,.528-.869,4.348,4.348,0,0,0-.378-1.5l-1.937-5.21h-7.011l-.866,2.2a10.352,10.352,0,0,0-.882,3.52,1.828,1.828,0,0,0,.717,1.652,4.111,4.111,0,0,0,2.15.5v.635q-2.207-.093-4.017-.094c-1,0-1.823.032-2.473.094v-.635q1.621-.3,2.8-3.334l7.34-18.577q.521.047,1.119.047T447.176,380.152Zm-.237,13.4-3.2-8.544-3.34,8.544Z" fill="#3970b7"/>
      <path id="Path_1073" data-name="Path 1073" d="M478.681,400.915l.441.388a5.4,5.4,0,0,1-1.867,1.411,6.067,6.067,0,0,1-2.418.433,4.945,4.945,0,0,1-2.93-.775,3.987,3.987,0,0,1-1.433-2.666l-.568-3.164q-.158-.9-.3-1.5a9.973,9.973,0,0,0-.378-1.225,3.391,3.391,0,0,0-.536-.985,2.292,2.292,0,0,0-.756-.581,2.321,2.321,0,0,0-1.04-.225H464.8v7.3a9.235,9.235,0,0,0,.078,1.388,1.483,1.483,0,0,0,.37.8,1.411,1.411,0,0,0,.725.411,7.134,7.134,0,0,0,1.253.132v.635q-1.75-.093-4.884-.094-3.467,0-5.088.094v-.635a6.946,6.946,0,0,0,1.244-.132,1.412,1.412,0,0,0,.717-.411,1.479,1.479,0,0,0,.37-.791,9.2,9.2,0,0,0,.079-1.4V383.579a9.224,9.224,0,0,0-.079-1.388,1.484,1.484,0,0,0-.37-.8,1.4,1.4,0,0,0-.717-.411,6.946,6.946,0,0,0-1.244-.132v-.636q1.623.093,4.9.093,1.213,0,3.017-.031t2.056-.031q4.44,0,6.686,1.435a4.574,4.574,0,0,1,2.245,4.086,5.94,5.94,0,0,1-.205,1.573,5.022,5.022,0,0,1-.725,1.512,5.76,5.76,0,0,1-1.315,1.357,7.841,7.841,0,0,1-2.079,1.054,13.127,13.127,0,0,1-2.922.644h.016a9.159,9.159,0,0,1,4.34,1.225,4.574,4.574,0,0,1,1.85,2.962l.725,3.271a5.519,5.519,0,0,0,.6,1.783,1.055,1.055,0,0,0,.93.5A1.735,1.735,0,0,0,478.681,400.915ZM466.8,380.85a1.91,1.91,0,0,0-1.615.535,4.167,4.167,0,0,0-.385,2.194v7.815h1.385a6.094,6.094,0,0,0,1.946-.279,3.705,3.705,0,0,0,1.331-.737,3.372,3.372,0,0,0,.811-1.147,5.512,5.512,0,0,0,.418-1.426,11.4,11.4,0,0,0,.111-1.683,6.846,6.846,0,0,0-.938-3.938A3.479,3.479,0,0,0,466.8,380.85Z" fill="#3970b7"/>
      <path id="Path_1074" data-name="Path 1074" d="M494.732,380.292q1.5,0,2.457-.093v.635q-1.5.574-3.086,3.66l-3.813,7.443v7.4a9.215,9.215,0,0,0,.079,1.388,1.476,1.476,0,0,0,.37.8,1.412,1.412,0,0,0,.717.411,6.946,6.946,0,0,0,1.244.132v.635q-1.732-.093-4.962-.094-3.418,0-5.009.094v-.635a7.059,7.059,0,0,0,1.26-.132,1.416,1.416,0,0,0,.717-.411,1.486,1.486,0,0,0,.37-.791,9.356,9.356,0,0,0,.078-1.4v-5.4l-6.206-11.3q-.993-1.767-1.875-1.767V380.2q1.892.154,3.813.155,2.993,0,6.064-.155v.667a6.545,6.545,0,0,0-1.8.193.764.764,0,0,0-.645.753,1.589,1.589,0,0,0,.2.7l4.914,9.273,2.505-4.931a9.478,9.478,0,0,0,1.276-3.908q0-2.031-2.694-2.109V380.2Q492.9,380.292,494.732,380.292Z" fill="#3970b7"/>
      <path id="Path_1075" data-name="Path 1075" d="M507.445,380.152l7.829,19.879a3.846,3.846,0,0,0,.954,1.528,1.825,1.825,0,0,0,1.079.5v.635q-1.925-.093-4.9-.094-3.307,0-4.915.094v-.635a4.852,4.852,0,0,0,1.74-.295.881.881,0,0,0,.529-.869,4.347,4.347,0,0,0-.378-1.5l-1.938-5.21h-7.01l-.867,2.2a10.346,10.346,0,0,0-.881,3.52,1.83,1.83,0,0,0,.716,1.652,4.117,4.117,0,0,0,2.151.5v.635q-2.206-.093-4.018-.094-1.5,0-2.473.094v-.635q1.623-.3,2.8-3.334l7.341-18.577q.52.047,1.118.047T507.445,380.152Zm-.236,13.4-3.2-8.544-3.34,8.544Z" fill="#3970b7"/>
    </g>
  </g>
</svg>
