<svg xmlns="http://www.w3.org/2000/svg" width="23.131" height="11.524" viewBox="0 0 23.131 11.524"><defs><style>.a{fill:#676f7c;}</style></defs><path class="a" d="M38.167,29.28h-21.2c-.532,0-.964-.287-.964-.64s.432-.64.964-.64h21.2c.532,0,.964.287.964.64S38.7,29.28,38.167,29.28Zm.964,4.482c0-.354-.432-.64-.964-.64h-21.2c-.532,0-.964.287-.964.64s.432.64.964.64h21.2C38.7,34.4,39.131,34.116,39.131,33.762Zm0,5.122c0-.354-.432-.64-.964-.64h-21.2c-.532,0-.964.287-.964.64s.432.64.964.64h21.2C38.7,39.524,39.131,39.237,39.131,38.884Z" transform="translate(-16 -28)"/></svg>