<svg xmlns="http://www.w3.org/2000/svg" width="10.675" height="9.751" viewBox="0 0 10.675 9.751"><defs><style>.a{fill:#f4f7fa;}</style></defs><g transform="translate(10.675 -102.297) rotate(90)"><path class="a" d="M107.927,5.045,103,.116a.411.411,0,0,0-.581.581l4.639,4.639-4.639,4.639a.411.411,0,1,0,.581.581l4.929-4.929A.411.411,0,0,0,107.927,5.045Z"/><path class="a" d="M107.927,5.045,103,.116a.411.411,0,0,0-.581.581l4.639,4.639-4.639,4.639a.411.411,0,1,0,.581.581l4.929-4.929A.411.411,0,0,0,107.927,5.045Z" transform="translate(4)"/></g></svg>