<svg xmlns="http://www.w3.org/2000/svg" width="9.751" height="10.675" viewBox="0 0 9.751 10.675"><defs><style>.a{fill:#0e377a;}</style></defs><g transform="translate(-102.297 0)"><path class="a" d="M107.927,5.045,103,.116a.411.411,0,0,0-.581.581l4.639,4.639-4.639,4.639a.411.411,0,1,0,.581.581l4.929-4.929A.411.411,0,0,0,107.927,5.045Z"/><path class="a" d="M107.927,5.045,103,.116a.411.411,0,0,0-.581.581l4.639,4.639-4.639,4.639a.411.411,0,1,0,.581.581l4.929-4.929A.411.411,0,0,0,107.927,5.045Z" transform="translate(4)"/></g></svg>