<svg xmlns="http://www.w3.org/2000/svg" width="40" height="40" viewBox="0 0 40 40"><defs><style>.a{fill:#ffd93b;}.b{fill:#f4c534;}.c{fill:#3e4347;}.d{fill:#e9b02c;}</style></defs><circle class="a" cx="20" cy="20" r="20"/><path class="b" d="M91.99,72.158A19.833,19.833,0,0,1,56.72,84.609,19.833,19.833,0,0,0,84.609,56.72,19.811,19.811,0,0,1,91.99,72.158Z" transform="translate(-52.326 -52.326)"/><g transform="translate(8.66 12.959)"><path class="c" d="M119.757,171.263a3.845,3.845,0,0,1-.11.916,4.5,4.5,0,0,0-7.744,0,3.845,3.845,0,0,1-.11-.916,3.983,3.983,0,0,1,7.965,0Z" transform="translate(-111.792 -167.28)"/><path class="c" d="M305.341,171.263a3.845,3.845,0,0,1-.11.916,4.5,4.5,0,0,0-7.744,0,3.845,3.845,0,0,1-.11-.916,3.983,3.983,0,1,1,7.965,0Z" transform="translate(-282.999 -167.28)"/><path class="c" d="M136.337,336.586a.93.93,0,1,1,1.347-1.283c3.695,3.881,11.679,3.881,15.374,0a.93.93,0,1,1,1.347,1.283C149.978,341.233,140.764,341.234,136.337,336.586Z" transform="translate(-134.199 -322.02)"/></g><g transform="translate(7.598 7.898)"><path class="d" d="M302.666,103.408h0a1.024,1.024,0,0,0,1.186.921c2.231-.341,5.5-.192,7.425,2.609-.055-.233-1.382-4.224-7.246-4.983A1.286,1.286,0,0,0,302.666,103.408Z" transform="translate(-286.808 -101.946)"/><path class="d" d="M106.691,103.408h0a1.024,1.024,0,0,1-1.186.921c-2.231-.341-5.5-.192-7.425,2.609.055-.233,1.382-4.224,7.246-4.983A1.287,1.287,0,0,1,106.691,103.408Z" transform="translate(-98.08 -101.946)"/></g></svg>