<svg xmlns="http://www.w3.org/2000/svg" xmlns:xlink="http://www.w3.org/1999/xlink" width="49" height="49" viewBox="0 0 49 49"><defs><style>.a{fill:url(#a);}</style><linearGradient id="a" x1="0.5" x2="0.5" y2="1" gradientUnits="objectBoundingBox"><stop offset="0" stop-color="#0e377a"/><stop offset="1" stop-color="#0072cb"/></linearGradient></defs><g transform="translate(-253 -774)"><g transform="translate(253 774)"><path class="a" d="M310.891,201.531h-6.125a.766.766,0,0,1,0-1.531h6.125a.766.766,0,0,1,0,1.531Zm0,0" transform="translate(-274.906 -180.859)"/><path class="a" d="M285.016,177.531h-12.25a.766.766,0,0,1,0-1.531h12.25a.766.766,0,0,1,0,1.531Zm0,0" transform="translate(-245.969 -159.156)"/><path class="a" d="M350.782,103.548a.762.762,0,0,1-.541-.225l-2.707-2.706a.766.766,0,0,1,1.083-1.083l2.706,2.707a.766.766,0,0,1-.541,1.307Zm0,0" transform="translate(-314.071 -89.805)"/><path class="a" d="M336.766,37.359a.765.765,0,0,1-.766-.766V32.766a.766.766,0,1,1,1.531,0v3.828A.765.765,0,0,1,336.766,37.359Zm0,0" transform="translate(-303.844 -28.937)"/><path class="a" d="M322.3,76.594a2.3,2.3,0,1,1,2.3-2.3A2.3,2.3,0,0,1,322.3,76.594Zm0-3.063a.766.766,0,1,0,.766.766A.766.766,0,0,0,322.3,73.531Zm0,0" transform="translate(-289.375 -65.109)"/><path class="a" d="M286.125,44.25a6.125,6.125,0,1,1,6.125-6.125A6.132,6.132,0,0,1,286.125,44.25Zm0-10.719a4.594,4.594,0,1,0,4.594,4.594A4.6,4.6,0,0,0,286.125,33.531Zm0,0" transform="translate(-253.203 -28.937)"/><path class="a" d="M207.391,24.5H176.766a.765.765,0,0,1-.766-.766V19.141a.766.766,0,1,1,1.531,0v3.828h29.094V1.531H177.531V16.078a.766.766,0,1,1-1.531,0V.766A.765.765,0,0,1,176.766,0h30.625a.765.765,0,0,1,.766.766V23.734A.765.765,0,0,1,207.391,24.5Zm0,0" transform="translate(-159.156)"/><path class="a" d="M32.766,205.359a.765.765,0,0,1-.766-.766v-3.828a.766.766,0,0,1,1.531,0v3.828A.765.765,0,0,1,32.766,205.359Zm0,0" transform="translate(-28.937 -180.859)"/><path class="a" d="M35.828,161.547H32.766a.766.766,0,1,1,0-1.531h3.063a.766.766,0,0,1,0,1.531Zm0,0" transform="translate(-28.937 -144.702)"/><path class="a" d="M.766,164.594A.765.765,0,0,1,0,163.828,3.833,3.833,0,0,1,3.828,160a.766.766,0,1,1,0,1.531,2.3,2.3,0,0,0-2.3,2.3A.765.765,0,0,1,.766,164.594Zm0,0" transform="translate(0 -144.687)"/><path class="a" d="M.766,198.125A.765.765,0,0,1,0,197.359v-4.594a.766.766,0,1,1,1.531,0v4.594A.765.765,0,0,1,.766,198.125Zm0,0" transform="translate(0 -173.625)"/><path class="a" d="M144.766,198.125a.765.765,0,0,1-.766-.766v-4.594a.766.766,0,1,1,1.531,0v4.594A.765.765,0,0,1,144.766,198.125Zm0,0" transform="translate(-130.219 -173.625)"/><path class="a" d="M148.594,193.531h-3.828a.766.766,0,1,1,0-1.531h3.828a.766.766,0,0,1,0,1.531Zm0,0" transform="translate(-130.219 -173.625)"/><path class="a" d="M211.828,123.063a.765.765,0,0,1-.766-.766.766.766,0,0,0-1.531,0,.766.766,0,0,1-1.531,0,2.3,2.3,0,0,1,4.594,0A.765.765,0,0,1,211.828,123.063Zm0,0" transform="translate(-188.094 -108.516)"/><path class="a" d="M184.766,142.891a.766.766,0,0,1,0-1.531,4.6,4.6,0,0,0,4.594-4.594.766.766,0,0,1,1.531,0A6.132,6.132,0,0,1,184.766,142.891Zm0,0" transform="translate(-166.391 -122.984)"/><path class="a" d="M184.766,139.828a.766.766,0,0,1,0-1.531,1.533,1.533,0,0,0,1.531-1.531.766.766,0,0,1,1.531,0A3.066,3.066,0,0,1,184.766,139.828Zm0,0" transform="translate(-166.391 -122.984)"/><path class="a" d="M459.064,307.829a.765.765,0,0,1-.766-.766,1.534,1.534,0,0,0-1.533-1.532.766.766,0,0,1,0-1.531,3.067,3.067,0,0,1,3.064,3.063A.765.765,0,0,1,459.064,307.829Zm0,0" transform="translate(-412.359 -274.906)"/><path class="a" d="M456.766,283.828a.765.765,0,0,1-.766-.766v-2.3a.766.766,0,0,1,1.531,0v2.3A.765.765,0,0,1,456.766,283.828Zm0,0" transform="translate(-412.359 -253.203)"/><path class="a" d="M368.766,286.125a.765.765,0,0,1-.766-.766A5.366,5.366,0,0,1,373.359,280a.766.766,0,0,1,0,1.531,3.833,3.833,0,0,0-3.828,3.828A.765.765,0,0,1,368.766,286.125Zm0,0" transform="translate(-332.781 -253.203)"/><path class="a" d="M420.594,281.531h-3.828a.766.766,0,0,1,0-1.531h3.828a.766.766,0,1,1,0,1.531Zm0,0" transform="translate(-376.187 -253.203)"/><path class="a" d="M374.119,372.595a6.814,6.814,0,0,1-6.045-3.486.766.766,0,0,1,1.368-.688,5.459,5.459,0,0,0,9.35,0,.766.766,0,1,1,1.37.685A6.813,6.813,0,0,1,374.119,372.595Zm0,0" transform="translate(-332.775 -332.782)"/><path class="a" d="M368.766,333.331a.765.765,0,0,1-.766-.766v-3.831a.766.766,0,0,1,1.531,0v3.831A.765.765,0,0,1,368.766,333.331Zm0,0" transform="translate(-332.781 -296.581)"/><path class="a" d="M480.766,333.331a.765.765,0,0,1-.766-.766v-3.831a.766.766,0,0,1,1.531,0v3.831A.765.765,0,0,1,480.766,333.331Zm0,0" transform="translate(-434.062 -296.581)"/><path class="a" d="M352.766,451.8a.765.765,0,0,1-.766-.766,3.065,3.065,0,0,1,3.063-3.062.766.766,0,0,1,0,1.531,1.532,1.532,0,0,0-1.531,1.531A.765.765,0,0,1,352.766,451.8Zm0,0" transform="translate(-318.312 -405.097)"/><path class="a" d="M379.063,449.547h-2.3a.766.766,0,0,1,0-1.531h2.3a.766.766,0,0,1,0,1.531Zm0,0" transform="translate(-340.016 -405.139)"/><path class="a" d="M352.766,475.793a.765.765,0,0,1-.766-.766v-2.3a.766.766,0,0,1,1.531,0v2.3A.765.765,0,0,1,352.766,475.793Zm0,0" transform="translate(-318.312 -426.793)"/><path class="a" d="M475.063,451.8a.765.765,0,0,1-.766-.766,1.532,1.532,0,0,0-1.531-1.531.766.766,0,0,1,0-1.531,3.065,3.065,0,0,1,3.063,3.062A.765.765,0,0,1,475.063,451.8Zm0,0" transform="translate(-426.828 -405.097)"/><path class="a" d="M451.063,449.547h-2.3a.766.766,0,0,1,0-1.531h2.3a.766.766,0,0,1,0,1.531Zm0,0" transform="translate(-405.125 -405.139)"/><path class="a" d="M496.766,475.793a.765.765,0,0,1-.766-.766v-2.3a.766.766,0,0,1,1.531,0v2.3A.765.765,0,0,1,496.766,475.793Zm0,0" transform="translate(-448.531 -426.793)"/><path class="a" d="M366.547,497.531H352.766a.766.766,0,0,1,0-1.531h13.781a.766.766,0,0,1,0,1.531Zm0,0" transform="translate(-318.312 -448.531)"/><path class="a" d="M400.766,422.895a.765.765,0,0,1-.766-.766v-2.821a.766.766,0,0,1,1.531,0v2.821A.765.765,0,0,1,400.766,422.895Zm0,0" transform="translate(-361.719 -378.487)"/><path class="a" d="M448.766,422.89a.765.765,0,0,1-.766-.766v-2.815a.766.766,0,0,1,1.531,0v2.815A.765.765,0,0,1,448.766,422.89Zm0,0" transform="translate(-405.125 -378.487)"/><path class="a" d="M374.125,374.849A6.131,6.131,0,0,1,368,368.727a.766.766,0,0,1,1.531,0,4.594,4.594,0,0,0,9.188,0,.766.766,0,0,1,1.531,0A6.131,6.131,0,0,1,374.125,374.849Zm0,0" transform="translate(-332.781 -332.746)"/><path class="a" d="M405.359,449.492h-4.594a.766.766,0,0,1,0-1.531h4.594a.766.766,0,0,1,0,1.531Zm0,0" transform="translate(-361.719 -405.09)"/><path class="a" d="M22.119,372.595a6.814,6.814,0,0,1-6.045-3.486.766.766,0,0,1,1.368-.688,5.459,5.459,0,0,0,9.351,0,.766.766,0,1,1,1.37.685A6.813,6.813,0,0,1,22.119,372.595Zm0,0" transform="translate(-14.462 -332.782)"/><path class="a" d="M16.766,340.565A.765.765,0,0,1,16,339.8v-3.065a.766.766,0,0,1,1.531,0V339.8A.765.765,0,0,1,16.766,340.565Zm0,0" transform="translate(-14.469 -303.815)"/><path class="a" d="M128.766,340.565A.765.765,0,0,1,128,339.8v-3.065a.766.766,0,0,1,1.531,0V339.8A.765.765,0,0,1,128.766,340.565Zm0,0" transform="translate(-115.75 -303.815)"/><path class="a" d="M.766,451.8A.765.765,0,0,1,0,451.031a3.065,3.065,0,0,1,3.063-3.062.766.766,0,1,1,0,1.531,1.532,1.532,0,0,0-1.531,1.531A.765.765,0,0,1,.766,451.8Zm0,0" transform="translate(0 -405.097)"/><path class="a" d="M27.063,449.547h-2.3a.766.766,0,1,1,0-1.531h2.3a.766.766,0,1,1,0,1.531Zm0,0" transform="translate(-21.703 -405.139)"/><path class="a" d="M.766,475.793A.765.765,0,0,1,0,475.027v-2.3a.766.766,0,0,1,1.531,0v2.3A.765.765,0,0,1,.766,475.793Zm0,0" transform="translate(0 -426.793)"/><path class="a" d="M123.063,451.8a.765.765,0,0,1-.766-.766,1.532,1.532,0,0,0-1.531-1.531.766.766,0,0,1,0-1.531,3.065,3.065,0,0,1,3.063,3.062A.765.765,0,0,1,123.063,451.8Zm0,0" transform="translate(-108.516 -405.097)"/><path class="a" d="M99.063,449.547h-2.3a.766.766,0,1,1,0-1.531h2.3a.766.766,0,0,1,0,1.531Zm0,0" transform="translate(-86.812 -405.139)"/><path class="a" d="M144.766,475.793a.765.765,0,0,1-.766-.766v-2.3a.766.766,0,0,1,1.531,0v2.3A.765.765,0,0,1,144.766,475.793Zm0,0" transform="translate(-130.219 -426.793)"/><path class="a" d="M14.547,497.531H.766a.766.766,0,1,1,0-1.531H14.547a.766.766,0,1,1,0,1.531Zm0,0" transform="translate(0 -448.531)"/><path class="a" d="M48.766,422.895a.765.765,0,0,1-.766-.766v-2.821a.766.766,0,0,1,1.531,0v2.821A.765.765,0,0,1,48.766,422.895Zm0,0" transform="translate(-43.406 -378.487)"/><path class="a" d="M96.766,422.89a.765.765,0,0,1-.766-.766v-2.815a.766.766,0,0,1,1.531,0v2.815A.765.765,0,0,1,96.766,422.89Zm0,0" transform="translate(-86.812 -378.487)"/><path class="a" d="M22.125,374.849A6.131,6.131,0,0,1,16,368.727a.766.766,0,0,1,1.531,0,4.594,4.594,0,0,0,9.188,0,.766.766,0,0,1,1.531,0A6.131,6.131,0,0,1,22.125,374.849Zm0,0" transform="translate(-14.469 -332.746)"/><path class="a" d="M27.484,286.888a.765.765,0,0,1-.766-.766,4.594,4.594,0,0,0-9.188,0,.766.766,0,0,1-1.531,0,6.125,6.125,0,0,1,12.25,0A.765.765,0,0,1,27.484,286.888Zm0,0" transform="translate(-14.469 -253.203)"/><path class="a" d="M53.359,449.492H48.766a.766.766,0,1,1,0-1.531h4.594a.766.766,0,0,1,0,1.531Zm0,0" transform="translate(-43.406 -405.09)"/><path class="a" d="M320.766,353.491a.765.765,0,0,1-.766-.766V345.1a.766.766,0,0,1,1.531,0v7.624A.765.765,0,0,1,320.766,353.491Zm0,0" transform="translate(-289.375 -311.382)"/><path class="a" d="M190.547,425.531H176.766a.766.766,0,0,1,0-1.531h13.781a.766.766,0,0,1,0,1.531Zm0,0" transform="translate(-159.156 -383.422)"/><path class="a" d="M176.766,353.491a.765.765,0,0,1-.766-.766V345.1a.766.766,0,0,1,1.531,0v7.624A.765.765,0,0,1,176.766,353.491Zm0,0" transform="translate(-159.156 -311.382)"/><path class="a" d="M190.547,280.758a.765.765,0,0,1-.766-.766,6.125,6.125,0,0,0-12.25,0,.766.766,0,0,1-1.531,0,7.656,7.656,0,0,1,15.313,0A.765.765,0,0,1,190.547,280.758Zm0,0" transform="translate(-159.156 -246.272)"/><path class="a" d="M176.766,451.8a.765.765,0,0,1-.766-.766,3.065,3.065,0,0,1,3.063-3.062.766.766,0,0,1,0,1.531,1.532,1.532,0,0,0-1.531,1.531A.765.765,0,0,1,176.766,451.8Zm0,0" transform="translate(-159.156 -405.097)"/><path class="a" d="M203.063,449.547h-2.3a.766.766,0,0,1,0-1.531h2.3a.766.766,0,0,1,0,1.531Zm0,0" transform="translate(-180.859 -405.139)"/><path class="a" d="M176.766,475.793a.765.765,0,0,1-.766-.766v-2.3a.766.766,0,0,1,1.531,0v2.3A.765.765,0,0,1,176.766,475.793Zm0,0" transform="translate(-159.156 -426.793)"/><path class="a" d="M299.063,451.8a.765.765,0,0,1-.766-.766,1.532,1.532,0,0,0-1.531-1.531.766.766,0,0,1,0-1.531,3.065,3.065,0,0,1,3.063,3.062A.765.765,0,0,1,299.063,451.8Zm0,0" transform="translate(-267.672 -405.097)"/><path class="a" d="M275.063,449.547h-2.3a.766.766,0,0,1,0-1.531h2.3a.766.766,0,1,1,0,1.531Zm0,0" transform="translate(-245.969 -405.139)"/><path class="a" d="M320.766,475.793a.765.765,0,0,1-.766-.766v-2.3a.766.766,0,0,1,1.531,0v2.3A.765.765,0,0,1,320.766,475.793Zm0,0" transform="translate(-289.375 -426.793)"/><path class="a" d="M190.547,497.531H176.766a.766.766,0,0,1,0-1.531h13.781a.766.766,0,0,1,0,1.531Zm0,0" transform="translate(-159.156 -448.531)"/><path class="a" d="M224.766,437.364A.765.765,0,0,1,224,436.6v-1.289a.766.766,0,0,1,1.531,0V436.6A.765.765,0,0,1,224.766,437.364Zm0,0" transform="translate(-202.562 -392.956)"/><path class="a" d="M272.766,437.358a.765.765,0,0,1-.766-.766v-1.284a.766.766,0,0,1,1.531,0v1.284A.765.765,0,0,1,272.766,437.358Zm0,0" transform="translate(-245.969 -392.956)"/><path class="a" d="M227.064,450.246a.762.762,0,0,1-.242-.04l-2.3-.766a.766.766,0,1,1,.485-1.452l2.3.766a.766.766,0,0,1-.243,1.492Zm0,0" transform="translate(-202.564 -405.078)"/><path class="a" d="M248.766,450.246a.766.766,0,0,1-.242-1.492l2.3-.766a.766.766,0,1,1,.484,1.452l-2.3.766A.749.749,0,0,1,248.766,450.246Zm0,0" transform="translate(-224.266 -405.077)"/><path class="a" d="M32.766,68.782A.765.765,0,0,1,32,68.016v-2.2a.766.766,0,0,1,1.531,0v2.2A.765.765,0,0,1,32.766,68.782Zm0,0" transform="translate(-28.937 -58.829)"/><path class="a" d="M144.766,64.2a.765.765,0,0,1-.766-.766v-2.68a.766.766,0,0,1,1.531,0v2.68A.765.765,0,0,1,144.766,64.2Zm0,0" transform="translate(-130.219 -54.251)"/><path class="a" d="M36.25,7.273a.765.765,0,0,1-.766-.766,4.977,4.977,0,0,0-9.953,0,.766.766,0,1,1-1.531,0,6.508,6.508,0,0,1,13.016,0A.765.765,0,0,1,36.25,7.273Zm0,0" transform="translate(-21.703)"/><path class="a" d="M36.254,54.738a.765.765,0,0,1-.609-.3c-1.479-1.931-1.88-1.772-3.38-1.178a12.89,12.89,0,0,1-7.616.8.765.765,0,1,1,.24-1.511,11.415,11.415,0,0,0,6.813-.71c1.846-.732,3.083-1.04,5.159,1.67a.766.766,0,0,1-.607,1.231Zm0,0" transform="translate(-21.707 -46.415)"/><path class="a" d="M112.768,23.882a.766.766,0,0,1-.686-1.1l1.531-3.117a.765.765,0,1,1,1.374.675l-1.531,3.117A.766.766,0,0,1,112.768,23.882Zm0,0" transform="translate(-101.285 -17.392)"/><path class="a" d="M119.656,161.5l-6.891,0a.766.766,0,0,1,0-1.531h0l6.891,0a.766.766,0,0,1,0,1.531Zm0,0" transform="translate(-101.281 -144.652)"/><path class="a" d="M64.766,142.129a.765.765,0,0,1-.766-.766v-2.055a.766.766,0,0,1,1.531,0v2.055A.765.765,0,0,1,64.766,142.129Zm0,0" transform="translate(-57.875 -125.284)"/><path class="a" d="M112.766,142.124a.765.765,0,0,1-.766-.766v-2.05a.766.766,0,0,1,1.531,0v2.05A.765.765,0,0,1,112.766,142.124Zm0,0" transform="translate(-101.281 -125.284)"/><path class="a" d="M38.125,94.849A6.131,6.131,0,0,1,32,88.727a.766.766,0,1,1,1.531,0,4.594,4.594,0,0,0,9.188,0,.766.766,0,1,1,1.531,0A6.131,6.131,0,0,1,38.125,94.849Zm0,0" transform="translate(-28.937 -79.543)"/><path class="a" d="M72.76,162.258a.766.766,0,0,1-.344-1.451l1.531-.766a.766.766,0,1,1,.685,1.37l-1.531.766A.759.759,0,0,1,72.76,162.258Zm0,0" transform="translate(-65.103 -144.652)"/><path class="a" d="M104.763,162.255a.766.766,0,0,1-.541-1.307l.766-.766a.766.766,0,0,1,1.083,1.083l-.766.766A.764.764,0,0,1,104.763,162.255Zm0,0" transform="translate(-94.044 -144.649)"/><path class="a" d="M65.529,162.255a.764.764,0,0,1-.541-.224l-.766-.766a.766.766,0,0,1,1.083-1.083l.766.766a.766.766,0,0,1-.541,1.307Zm0,0" transform="translate(-57.872 -144.649)"/><path class="a" d="M90.3,162.265a.768.768,0,0,1-.341-.08l-1.531-.766a.766.766,0,1,1,.685-1.37l1.531.766a.765.765,0,0,1-.344,1.45Zm0,0" transform="translate(-79.579 -144.659)"/><path class="a" d="M24.766,61.9A.765.765,0,0,1,24,61.138v-.38a.766.766,0,0,1,1.531,0v.38A.765.765,0,0,1,24.766,61.9Zm0,0" transform="translate(-21.703 -54.251)"/></g></g></svg>