<svg xmlns="http://www.w3.org/2000/svg" width="69.03" height="69.021" viewBox="0 0 69.03 69.021"><defs><style>.a{fill:#f2f6f9;}</style></defs><path class="a" d="M29.626,20.508,15.292,10.089a1.728,1.728,0,0,0-2.745,1.394V32.315a1.723,1.723,0,0,0,.944,1.541,1.741,1.741,0,0,0,.786.186,1.718,1.718,0,0,0,1.015-.335L29.626,23.3a1.715,1.715,0,0,0,0-2.789Z" transform="translate(16.275 12.652)"/><path class="a" d="M34.516,0A34.51,34.51,0,1,0,69.03,34.518,34.512,34.512,0,0,0,34.516,0Zm0,63.262A28.75,28.75,0,1,1,63.262,34.518,28.746,28.746,0,0,1,34.516,63.264Z" transform="translate(0 -0.002)"/></svg>