<svg xmlns="http://www.w3.org/2000/svg" width="8.099" height="15.015" viewBox="0 0 8.099 15.015"><defs><style>.a{fill:#fff;}</style></defs><g transform="translate(-28.4 -10.1)"><path class="a" d="M30.655,18.575h-1.86c-.3,0-.395-.113-.395-.395V15.907c0-.3.113-.395.395-.395h1.86V13.858a4.174,4.174,0,0,1,.507-2.124,3.118,3.118,0,0,1,1.673-1.391,4.181,4.181,0,0,1,1.447-.244h1.842c.263,0,.376.113.376.376v2.142c0,.263-.113.376-.376.376-.507,0-1.015,0-1.522.019a.679.679,0,0,0-.77.77c-.019.564,0,1.109,0,1.691h2.18c.3,0,.413.113.413.413v2.274c0,.3-.094.395-.413.395h-2.18v6.126c0,.319-.094.432-.432.432H31.05c-.282,0-.395-.113-.395-.395V18.575Z" transform="translate(0)"/></g></svg>