<svg xmlns="http://www.w3.org/2000/svg" width="41.148" height="45.031" viewBox="0 0 41.148 45.031"><defs><style>.a{fill:#da360a;}.b{fill:#ba365f;}.c{fill:#ed5176;}.d{fill:#ffcd34;}.e{fill:#e69012;}</style></defs><g transform="translate(0)"><path class="a" d="M10.161,99.85l-2.64,24.2a4.734,4.734,0,0,0,4.705,5.247H35.089a4.733,4.733,0,0,0,4.705-5.247l-2.64-24.2a1.935,1.935,0,0,0-1.924-1.725H12.085A1.935,1.935,0,0,0,10.161,99.85Zm0,0" transform="translate(-6.834 -89.495)"/><path class="b" d="M302.706,124.043l-2.64-24.2a1.935,1.935,0,0,0-1.924-1.725H295.9a1.935,1.935,0,0,1,1.924,1.725l2.64,24.2a4.733,4.733,0,0,1-4.705,5.247H298A4.733,4.733,0,0,0,302.706,124.043Zm0,0" transform="translate(-269.745 -89.491)"/><path class="a" d="M7.5,399.148a4.734,4.734,0,0,0,4.733,4.692H35.1a4.734,4.734,0,0,0,4.733-4.692Zm0,0" transform="translate(-6.844 -364.043)"/><path class="c" d="M300.494,399.145a4.733,4.733,0,0,1-4.733,4.692h2.246c.084,0,.168,0,.251-.007l.085-.006c.055,0,.111-.008.165-.014l.1-.012c.049-.007.1-.012.146-.02l.1-.019.137-.026.107-.025.131-.032.107-.031.125-.038.106-.036.121-.044.105-.042.116-.049.1-.047.111-.055.1-.052.106-.059c.034-.019.068-.038.1-.058l.1-.063c.033-.021.067-.042.1-.064l.093-.065c.033-.024.067-.047.1-.071s.056-.043.083-.065.068-.053.1-.08l.054-.047c.091-.077.179-.157.264-.241l.02-.019c.037-.037.073-.076.109-.115l.051-.054c.034-.037.066-.076.1-.114l.053-.062c.032-.038.062-.078.092-.117l.051-.066c.03-.04.058-.08.086-.121l.047-.069c.028-.042.054-.083.081-.126l.043-.07c.026-.043.051-.087.076-.131l.039-.071c.024-.045.047-.091.07-.137l.034-.07c.022-.047.044-.095.065-.143.01-.022.019-.045.029-.068.021-.05.041-.1.06-.151l.023-.064c.019-.053.038-.106.055-.16l.017-.056c.018-.057.035-.115.05-.172,0-.013.007-.027.01-.04.016-.064.032-.128.046-.193h0a4.687,4.687,0,0,0,.1-.937h-2.242Zm0,0" transform="translate(-269.749 -364.039)"/><path class="d" d="M220.812,251.75l-.307-7.581a2.062,2.062,0,0,0-1.977-1.977l-7.581-.307a2.062,2.062,0,0,0-1.542.6L198.372,253.52a2.245,2.245,0,0,0,0,3.175L206,264.324a2.245,2.245,0,0,0,3.175,0l11.033-11.033A2.061,2.061,0,0,0,220.812,251.75Zm-5.493-4.372a1.412,1.412,0,1,1,2,0A1.412,1.412,0,0,1,215.319,247.378Zm0,0" transform="translate(-180.325 -220.609)"/><path class="e" d="M293.32,257.578,293.013,250a2.06,2.06,0,0,0-1.069-1.724,1.716,1.716,0,0,1,.171.826l-.247,7.027a2.229,2.229,0,0,1-.668,1.476l-11.033,11.033a2.106,2.106,0,0,1-2.953.223l1.294,1.294a2.246,2.246,0,0,0,3.176,0l11.033-11.033A2.061,2.061,0,0,0,293.32,257.578Zm0,0" transform="translate(-252.833 -226.437)"/><path d="M26.641,14.461a.659.659,0,0,0,.727-.584l.376-3.45A1.274,1.274,0,0,1,29.012,9.29H33.6V11.5a.66.66,0,0,0,1.319,0V9.29H46.256V11.5a.66.66,0,0,0,1.32,0V9.29h4.583a1.274,1.274,0,0,1,1.268,1.137l.9,8.291a.659.659,0,0,0,.655.588c.024,0,.048,0,.072,0a.66.66,0,0,0,.584-.727l-.9-8.292A2.591,2.591,0,0,0,52.159,7.97H47.576V6.99a6.99,6.99,0,1,0-13.98,0v.98H29.012a2.591,2.591,0,0,0-2.579,2.314l-.376,3.45A.66.66,0,0,0,26.641,14.461ZM34.915,6.99a5.671,5.671,0,1,1,11.342,0v.98H34.915Zm0,0" transform="translate(-23.761)"/><path d="M386.292,270.062a2.072,2.072,0,1,0,2.93,0A2.074,2.074,0,0,0,386.292,270.062Zm2,2a.752.752,0,1,1,0-1.064A.754.754,0,0,1,388.289,272.059Zm0,0" transform="translate(-351.765 -245.757)"/><path d="M41.146,194.521l-.307-7.581a2.736,2.736,0,0,0-2.609-2.609l-7.581-.307a2.728,2.728,0,0,0-2.035.795L17.581,195.852a2.9,2.9,0,0,0-.849,2H1.363L3.321,179.9a.66.66,0,0,0-1.311-.143L.032,197.888a5.393,5.393,0,0,0,5.361,5.978H21.486l3.724,3.724a2.908,2.908,0,0,0,4.108,0l11.033-11.033A2.728,2.728,0,0,0,41.146,194.521ZM5.393,202.546a4.073,4.073,0,0,1-4.012-3.373h15.64a2.885,2.885,0,0,0,.56.787l2.586,2.586Zm34.025-6.923L28.385,206.656a1.588,1.588,0,0,1-2.243,0l-7.629-7.629a1.588,1.588,0,0,1,0-2.243l11.033-11.033a1.406,1.406,0,0,1,.992-.411H30.6l7.581.307a1.41,1.41,0,0,1,1.344,1.344l.307,7.581A1.406,1.406,0,0,1,39.418,195.623Zm0,0" transform="translate(0 -163.407)"/><path d="M282,315.244a2.292,2.292,0,1,0-2.292-2.292A2.295,2.295,0,0,0,282,315.244Zm0-3.264a.972.972,0,1,1-.972.972A.973.973,0,0,1,282,311.98Zm0,0" transform="translate(-255.11 -283.337)"/><path d="M328.538,383.625a2.292,2.292,0,1,0,2.292,2.292A2.294,2.294,0,0,0,328.538,383.625Zm0,3.264a.972.972,0,1,1,.972-.972A.973.973,0,0,1,328.538,386.889Zm0,0" transform="translate(-297.552 -349.885)"/><path d="M291.144,327.648a.659.659,0,0,0-.933,0l-6.727,6.727a.66.66,0,1,0,.933.933l6.727-6.727A.659.659,0,0,0,291.144,327.648Zm0,0" transform="translate(-258.375 -298.655)"/></g></svg>