<svg xmlns="http://www.w3.org/2000/svg" xmlns:xlink="http://www.w3.org/1999/xlink" width="40" height="40" viewBox="0 0 40 40"><defs><style>.a{fill:none;}.b{fill:#f8f8f8;}.c{clip-path:url(#a);}.d{fill:#fff;}.e{clip-path:url(#b);}.f{fill:#ffa300;}.g{clip-path:url(#c);}.h{clip-path:url(#d);}.i{fill:#4731c3;}.j{clip-path:url(#e);}.k{clip-path:url(#f);}.l{clip-path:url(#g);}.m{clip-path:url(#h);}.n{clip-path:url(#i);}.o{clip-path:url(#j);}.p{clip-path:url(#k);}.q{clip-path:url(#l);}.r{clip-path:url(#m);}.s{clip-path:url(#n);}.t{clip-path:url(#o);}.u{clip-path:url(#p);}.v{clip-path:url(#q);}</style><clipPath id="a"><path class="a" d="M27.569-17.338v1.649a1.791,1.791,0,0,1-.408,1.135l-1.946,2.366v10.1a.616.616,0,0,1-.614.614H15.339a.616.616,0,0,1-.614-.614v-10.1l-1.946-2.366a1.785,1.785,0,0,1-.408-1.135v-4.635l8.968-.1a1.563,1.563,0,0,0-1.115.462,1.579,1.579,0,0,0-.462,1.115,1.577,1.577,0,0,0,1.577,1.577Z"/></clipPath><clipPath id="b"><path class="a" d="M5.128-12.494H1.662a1.05,1.05,0,0,1-1.05-1.05V-25.483a1.05,1.05,0,0,1,1.05-1.05H5.128Z"/></clipPath><clipPath id="c"><path class="a" d="M34.81-12.494h3.466a1.05,1.05,0,0,0,1.05-1.05V-25.483a1.05,1.05,0,0,0-1.05-1.05H34.81Z"/></clipPath><clipPath id="d"><path class="a" d="M5.579-17.338v-4.348H34.514v4.415Z"/></clipPath><clipPath id="e"><path class="a" d="M19.871-24.159v2.343a1.677,1.677,0,0,1-1.677,1.677,1.677,1.677,0,0,1-1.677-1.677v-2.343a1.677,1.677,0,0,1,1.677-1.677,1.68,1.68,0,0,1,1.187.49A1.674,1.674,0,0,1,19.871-24.159Z"/></clipPath><clipPath id="f"><path class="a" d="M23.293-24.7v2.733a1.859,1.859,0,0,1-1.745,1.956A1.861,1.861,0,0,1,19.8-21.968V-24.7a1.859,1.859,0,0,1,1.745-1.956,1.649,1.649,0,0,1,1.234.573A2.069,2.069,0,0,1,23.293-24.7Z"/></clipPath><clipPath id="g"><path class="a" d="M26.581-23.924v2.343A1.677,1.677,0,0,1,24.9-19.9a1.677,1.677,0,0,1-1.677-1.677v-2.343A1.677,1.677,0,0,1,24.9-25.6a1.68,1.68,0,0,1,1.187.49A1.674,1.674,0,0,1,26.581-23.924Z"/></clipPath><clipPath id="h"><path class="a" d="M16.516-23.689v1.874a1.677,1.677,0,0,1-1.677,1.677,1.677,1.677,0,0,1-1.677-1.677v-1.874a1.677,1.677,0,0,1,1.677-1.677,1.68,1.68,0,0,1,1.187.49,1.684,1.684,0,0,1,.49,1.187Z"/></clipPath><clipPath id="i"><path class="a" d="M17.879-21.815v-2.343a1.677,1.677,0,0,1,1-1.533,1.683,1.683,0,0,0-.684-.145,1.677,1.677,0,0,0-1.677,1.677v2.343a1.677,1.677,0,0,0,1.677,1.677,1.674,1.674,0,0,0,.684-.145,1.681,1.681,0,0,1-1-1.533Z"/></clipPath><clipPath id="j"><path class="a" d="M21.166-21.968V-24.7a1.972,1.972,0,0,1,1.063-1.8,1.561,1.561,0,0,0-.681-.155A1.861,1.861,0,0,0,19.8-24.7v2.735a1.859,1.859,0,0,0,1.745,1.956,1.561,1.561,0,0,0,.681-.155,1.972,1.972,0,0,1-1.063-1.8Z"/></clipPath><clipPath id="k"><path class="a" d="M24.588-21.581v-2.343a1.681,1.681,0,0,1,1-1.533A1.683,1.683,0,0,0,24.9-25.6a1.677,1.677,0,0,0-1.677,1.677v2.343A1.677,1.677,0,0,0,24.9-19.9a1.671,1.671,0,0,0,.681-.145,1.678,1.678,0,0,1-1-1.533Z"/></clipPath><clipPath id="l"><path class="a" d="M14.524-21.815v-1.874a1.677,1.677,0,0,1,1-1.533,1.683,1.683,0,0,0-.684-.145,1.677,1.677,0,0,0-1.677,1.677v1.874a1.677,1.677,0,0,0,1.677,1.677,1.683,1.683,0,0,0,.684-.145,1.681,1.681,0,0,1-1-1.533Z"/></clipPath><clipPath id="m"><path class="a" d="M27.569-19.217v1.93l-6.23.015a1.577,1.577,0,0,1-1.577-1.577,1.563,1.563,0,0,1,.462-1.115,1.572,1.572,0,0,1,1.115-.462h5.019a1.207,1.207,0,0,1,1.21,1.208Z"/></clipPath><clipPath id="n"><path class="a" d="M7.551-8.7H5.768a1.653,1.653,0,0,1-1.652-1.652V-28.67a1.653,1.653,0,0,1,1.652-1.652H7.551A1.653,1.653,0,0,1,9.2-28.67v18.315A1.653,1.653,0,0,1,7.551-8.7Z"/></clipPath><clipPath id="o"><path class="a" d="M32.39-8.7h1.783a1.653,1.653,0,0,0,1.652-1.652V-28.67a1.653,1.653,0,0,0-1.652-1.652H32.39a1.653,1.653,0,0,0-1.652,1.652v18.315A1.651,1.651,0,0,0,32.39-8.7Z"/></clipPath><clipPath id="p"><path class="a" d="M38.279-27.116H36.408V-28.67A2.237,2.237,0,0,0,34.173-30.9H32.39a2.237,2.237,0,0,0-2.235,2.235v6.4H27.166v-1.719a2.263,2.263,0,0,0-2.261-2.261,2.241,2.241,0,0,0-1.314.423,2.264,2.264,0,0,0-2.041-1.288,2.262,2.262,0,0,0-1.977,1.166,2.25,2.25,0,0,0-1.378-.47A2.261,2.261,0,0,0,16.312-25.4a2.241,2.241,0,0,0-1.471-.545,2.263,2.263,0,0,0-2.261,2.261v1.419H9.786v-1.649A.583.583,0,0,0,9.2-24.5a.583.583,0,0,0-.583.583v13.561A1.071,1.071,0,0,1,7.551-9.286H5.768A1.071,1.071,0,0,1,4.7-10.355V-28.67a1.071,1.071,0,0,1,1.068-1.068H7.551A1.071,1.071,0,0,1,8.619-28.67v2.263a.583.583,0,0,0,.583.583.583.583,0,0,0,.583-.583V-28.67A2.237,2.237,0,0,0,7.551-30.9H5.768A2.237,2.237,0,0,0,3.533-28.67v1.554H1.662A1.636,1.636,0,0,0,.028-25.483v11.938a1.636,1.636,0,0,0,1.634,1.634H3.533v1.556A2.237,2.237,0,0,0,5.768-8.12H7.551a2.237,2.237,0,0,0,2.235-2.235v-6.4h2v1.066a2.379,2.379,0,0,0,.539,1.507l1.814,2.2V-1.47a.583.583,0,0,0,.583.583.583.583,0,0,0,.583-.583V-12.187a.582.582,0,0,0-.134-.372l-1.946-2.366a1.209,1.209,0,0,1-.274-.764v-1.066l11.043.067a.583.583,0,0,0,.583-.583.583.583,0,0,0-.583-.583H21.339a1,1,0,0,1-.994-.994,1,1,0,0,1,.994-.994h5.019a.625.625,0,0,1,.625.625v3.528a1.209,1.209,0,0,1-.274.764l-1.946,2.366a.591.591,0,0,0-.134.372v1.541a.583.583,0,0,0,.583.583.583.583,0,0,0,.583-.583v-1.332l1.814-2.2a2.374,2.374,0,0,0,.539-1.507v-1.066h2v6.4A2.237,2.237,0,0,0,32.385-8.12h1.783A2.237,2.237,0,0,0,36.4-10.355v-1.554h1.871a1.636,1.636,0,0,0,1.634-1.634V-25.483A1.628,1.628,0,0,0,38.279-27.116ZM1.662-13.077a.467.467,0,0,1-.467-.467V-25.483a.467.467,0,0,1,.467-.467H3.533v12.87H1.662ZM24.9-25.083A1.1,1.1,0,0,1,26-23.988v2.173a1.1,1.1,0,0,1-.354.805H24.165a1.09,1.09,0,0,1-.354-.805v-2.173A1.093,1.093,0,0,1,24.9-25.083Zm-4.449.23a1.1,1.1,0,0,1,1.094-1.094,1.1,1.1,0,0,1,1.094,1.094v3.04a1.1,1.1,0,0,1-.354.805h-.95a2.183,2.183,0,0,0-.47.052,1.09,1.09,0,0,1-.415-.857v-3.04Zm-3.355.694a1.1,1.1,0,0,1,1.094-1.094,1.1,1.1,0,0,1,1.094,1.094v2.343a1.1,1.1,0,0,1-1.094,1.094A1.1,1.1,0,0,1,17.1-21.815Zm-3.355.47a1.1,1.1,0,0,1,1.094-1.094,1.1,1.1,0,0,1,1.094,1.094v1.874a1.1,1.1,0,0,1-1.094,1.094,1.1,1.1,0,0,1-1.094-1.094ZM9.786-21.1h2.906a2.267,2.267,0,0,0,2.147,1.548,2.257,2.257,0,0,0,1.677-.746,2.247,2.247,0,0,0,1.677.746,2.248,2.248,0,0,0,1.3-.41,2.153,2.153,0,0,0-.31,1.115,2.148,2.148,0,0,0,.209.926h-9.6V-21.1Zm18.366,3.179v-1.3A1.8,1.8,0,0,0,26.973-20.9q.043-.1.077-.2h3.1v3.179h-2Zm10.591,4.379a.467.467,0,0,1-.467.467H36.405v-1.688a.583.583,0,0,0-.583-.583.583.583,0,0,0-.583.583v4.41A1.071,1.071,0,0,1,34.17-9.286H32.387a1.071,1.071,0,0,1-1.068-1.068V-28.67a1.071,1.071,0,0,1,1.068-1.068H34.17a1.071,1.071,0,0,1,1.068,1.068v11.417a.583.583,0,0,0,.583.583.583.583,0,0,0,.583-.583v-8.694h1.871a.467.467,0,0,1,.467.467Z"/></clipPath><clipPath id="q"><path class="a" d="M25.215-8.745a.583.583,0,0,0-.583.583V-1.47a.583.583,0,0,0,.583.583A.583.583,0,0,0,25.8-1.47V-8.161A.584.584,0,0,0,25.215-8.745Z"/></clipPath></defs><g transform="translate(-236 -236)"><rect class="b" width="40" height="40" transform="translate(236 236)"/><g transform="translate(235.972 271.905)"><g class="c"><path class="d" d="M7.372-25.427h25.2V3.53H7.372Z"/></g><g class="e"><path class="f" d="M-4.388-31.533H10.128V-7.494H-4.388Z"/></g><g class="g"><path class="f" d="M29.81-31.533H44.326V-7.494H29.81Z"/></g><g class="h"><path class="i" d="M.579-26.686H39.514v14.415H.579Z"/></g><g class="j"><path class="d" d="M11.516-30.836H24.871v15.7H11.516Z"/></g><g class="k"><path class="d" d="M14.8-31.659H28.293v16.648H14.8Z"/></g><g class="l"><path class="d" d="M18.226-30.6H31.581v15.7H18.226Z"/></g><g class="m"><path class="d" d="M8.161-30.366H21.516v15.228H8.161Z"/></g><g class="n"><path class="d" d="M11.516-30.836H23.877v15.7H11.516Z"/></g><g class="o"><path class="d" d="M14.8-31.659H27.23v16.648H14.8Z"/></g><g class="p"><path class="d" d="M18.226-30.6H30.587v15.7H18.226Z"/></g><g class="q"><path class="d" d="M8.161-30.366H20.523v15.228H8.161Z"/></g><g class="r"><path class="d" d="M14.763-25.425H32.569v13.154H14.763Z"/></g><g class="s"><path class="f" d="M-.884-35.321H14.2V-3.7H-.884Z"/></g><g class="t"><path class="f" d="M25.738-35.321H40.825V-3.7H25.738Z"/></g><g class="u"><path d="M-4.972-35.9H44.907V4.114H-4.972Z"/></g><g class="v"><path d="M19.632-13.745H30.8V4.114H19.632Z"/></g></g></g></svg>