<svg xmlns="http://www.w3.org/2000/svg" width="40" height="40" viewBox="0 0 40 40"><defs><style>.a{fill:#e24b4b;}.b{fill:#d03f3f;}.c{fill:#fff;}.d{fill:#3e4347;}</style></defs><circle class="a" cx="20" cy="20" r="20"/><path class="b" d="M91.96,72.145a19.816,19.816,0,0,1-35.24,12.44A19.817,19.817,0,0,0,84.585,56.72,19.794,19.794,0,0,1,91.96,72.145Z" transform="translate(-52.33 -52.33)"/><path class="c" d="M90.339,200.951a6.065,6.065,0,0,1-9.04,4.079c-5.062-2.919-2.545-10.377-.585-8.594,3.091,2.783,5.832,3.463,8.306,3.133A1.182,1.182,0,0,1,90.339,200.951Z" transform="translate(-72.264 -180.981)"/><path class="d" d="M134.664,251.158a2.288,2.288,0,0,1-2.275,2.316,2.315,2.315,0,0,1-2.31-2.31,2.287,2.287,0,0,1,2.275-2.316A2.331,2.331,0,0,1,134.664,251.158Z" transform="translate(-120.01 -229.586)"/><ellipse class="c" cx="0.733" cy="0.43" rx="0.733" ry="0.43" transform="translate(13.424 21.548) rotate(-135)"/><path class="d" d="M103.5,156.372a14.838,14.838,0,0,1-8.5-3.686.717.717,0,0,1,1-1.032,13.65,13.65,0,0,0,7.375,3.265l1.562-1.016a.717.717,0,1,1,.783,1.2l-1.771,1.151A.72.72,0,0,1,103.5,156.372Z" transform="translate(-87.446 -139.731)"/><path class="c" d="M278.235,200.951a6.065,6.065,0,0,0,9.04,4.079c5.062-2.919,2.545-10.377.585-8.594-3.091,2.783-5.832,3.463-8.306,3.133A1.182,1.182,0,0,0,278.235,200.951Z" transform="translate(-256.679 -180.981)"/><path class="d" d="M327.272,251.158A2.288,2.288,0,0,1,325,253.474a2.315,2.315,0,0,1-2.31-2.31,2.287,2.287,0,0,1,2.275-2.316A2.331,2.331,0,0,1,327.272,251.158Z" transform="translate(-297.71 -229.586)"/><ellipse class="c" cx="0.733" cy="0.43" rx="0.733" ry="0.43" transform="translate(28.333 21.548) rotate(-135)"/><path class="d" d="M274.284,156.372a14.838,14.838,0,0,0,8.5-3.686.717.717,0,0,0-1-1.032,13.65,13.65,0,0,1-7.375,3.265l-1.562-1.016a.717.717,0,1,0-.783,1.2l1.771,1.151A.72.72,0,0,0,274.284,156.372Z" transform="translate(-250.704 -139.731)"/><g transform="translate(12.126 29.786)"><path class="c" d="M326.591,390.092l-2.415-4.161.173-.062a5.837,5.837,0,0,0,1.647-.879l.235-.173Z" transform="translate(-311.209 -384.816)"/><path class="c" d="M158.86,387.234l.186.062-2.39,4.124.347-5.164.223.161A5.622,5.622,0,0,0,158.86,387.234Z" transform="translate(-156.656 -386.145)"/></g><path class="d" d="M127.547,333.936c-2.349,4.45-6.8,6.61-11.765,6.689-5.073-.135-9.44-2.26-11.765-6.689,2.488,2.888,6.553,4.72,11.765,4.79C120.9,338.674,125.014,336.888,127.547,333.936Z" transform="translate(-95.965 -308.088)"/></svg>