<svg xmlns="http://www.w3.org/2000/svg" width="15.19" height="10.514" viewBox="0 0 15.19 10.514"><defs><style>.a{fill:#676f7c;}</style></defs><path class="a" d="M8.57,14.114c-4.145,0-7.33-4.651-7.481-4.853a.607.607,0,0,1,0-.708C1.24,8.352,4.425,3.6,8.57,3.6s7.33,4.752,7.481,4.954a.607.607,0,0,1,0,.708c-.152.2-3.336,4.853-7.481,4.853ZM2.454,8.908C3.262,9.919,5.739,12.8,8.57,12.8s5.358-2.881,6.116-3.892C13.878,7.846,11.4,4.864,8.57,4.864S3.212,7.846,2.454,8.908Z" transform="translate(-0.975 -3.6)"/><g transform="translate(4.41 2.073)"><path class="a" d="M12.885,14.069a3.185,3.185,0,1,1,3.185-3.185,3.171,3.171,0,0,1-3.185,3.185Zm0-5.105a1.921,1.921,0,1,0,1.921,1.921,1.92,1.92,0,0,0-1.921-1.921Z" transform="translate(-9.7 -7.7)"/></g></svg>