<?xml version="1.0" encoding="utf-8"?>
<!-- Generator: Adobe Illustrator 25.0.0, SVG Export Plug-In . SVG Version: 6.00 Build 0)  -->
<svg version="1.1" id="Layer_1" xmlns="http://www.w3.org/2000/svg" xmlns:xlink="http://www.w3.org/1999/xlink" x="0px" y="0px"
	 viewBox="0 0 498.2 118.5" style="enable-background:new 0 0 498.2 118.5;" xml:space="preserve">
<style type="text/css">
	.st0{fill:#FFFFFF;}
	.st1{fill:#F58220;}
	.st2{fill:#5C5D60;}
</style>
<path class="st0" d="M65.6,61V27.9h17c0.3,0,0.6,0,0.8,0c0.3,0,0.6,0,0.8,0c2.3,0.1,4.4,0.5,6.4,1.3s3.3,2.5,3.9,5.1
	c0.5,2.4,0.4,4.4-0.4,6s-2.2,3-4.2,4.2c2.2,1,3.7,2.4,4.4,4.1c0.7,1.7,0.8,3.7,0.3,6.2c-0.6,2.5-1.8,4.2-3.8,5
	c-1.9,0.8-4,1.2-6.2,1.3h-0.4h-0.4L65.6,61L65.6,61z M72.6,41.5h10.2c1.3,0,2.4-0.2,3.3-0.8c0.9-0.5,1.3-1.5,1.3-3
	c0-1.4-0.4-2.4-1.3-3s-2-0.8-3.3-0.8H72.6V41.5z M86.1,54.4c0.8-0.6,1.3-1.6,1.3-3.1s-0.4-2.5-1.3-3.1c-0.8-0.6-1.9-0.8-3.3-0.8
	H72.5v7.8h10.3C84.2,55.2,85.3,55,86.1,54.4"/>
<path class="st0" d="M109.2,61c-3.1,0-5.6-0.6-7.4-1.8s-2.7-3.6-2.7-7V36.7h6.4v14.9c0,1.6,0.3,2.7,0.9,3.3s1.7,0.8,3.3,0.8h5.2v-19
	h6.4V61H109.2z"/>
<path class="st0" d="M139.6,55.9c0.1,0,0.1,0,0.2,0h0.2c0.8,0,1.5-0.2,2.1-0.5s1-0.9,1-1.9c0-0.9-0.3-1.5-0.9-1.8
	c-0.6-0.3-1.3-0.5-2-0.6h-0.3h-0.3h-5.5c-2.6,0-4.6-0.3-6.1-1.1c-1.5-0.7-2.2-2.6-2.3-5.6c0-2.8,0.7-4.8,2.3-6s3.7-1.7,6.3-1.7h13.8
	v5.1h-11.3c-0.1,0-0.2,0-0.3,0h-0.3h-0.6h-0.7c-0.6,0-1.1,0.2-1.6,0.4s-0.8,0.6-1,1.2c-0.2,1.1,0,1.8,0.6,2.2
	c0.7,0.4,1.5,0.6,2.3,0.6h5.8c2.3,0,4.2,0.6,5.7,1.6s2.3,2.8,2.4,5.3v0.1v0.1c0,2-0.5,3.8-1.7,5.4c-1.2,1.6-2.8,2.4-4.9,2.4H126V56
	h13.6V55.9z"/>
<path class="st0" d="M153.4,27.9h6.7v6h-6.7V27.9z M153.4,36.7h6.7V61h-6.7V36.7z"/>
<path class="st0" d="M177.2,36.7c3.2,0,5.7,0.7,7.5,1.9s2.7,3.6,2.7,7V61H181V46.4c0-1.7-0.3-2.8-0.8-3.4c-0.6-0.6-1.7-0.9-3.4-0.9
	h-5.2V61h-6.4V36.7H177.2z"/>
<path class="st0" d="M198.2,60.4c-1.6-0.4-3-1.3-4.3-2.6c-1-1.1-1.7-2.3-2.1-3.7c-0.4-1.4-0.7-2.8-0.8-4.2v-0.5v-0.5v-0.6
	c0-0.2,0-0.4,0-0.6c0.1-1.4,0.4-2.7,0.8-4.1c0.4-1.3,1.1-2.5,2.1-3.6c1.2-1.3,2.6-2.2,4.3-2.6c1.6-0.4,3.3-0.6,5-0.6h9.3v5.1H204
	c-1.8,0-3.2,0.3-4.3,0.8s-1.6,1.8-1.7,3.8h14.5v5.1H198c0.1,2.1,0.6,3.4,1.6,3.9s2.5,0.7,4.3,0.7h8.5V61h-9.3
	C201.4,61,199.8,60.8,198.2,60.4"/>
<path class="st0" d="M229.3,55.9c0.1,0,0.1,0,0.2,0h0.2c0.8,0,1.5-0.2,2.1-0.5s1-0.9,1-1.9c0-0.9-0.3-1.5-0.9-1.8
	c-0.6-0.3-1.3-0.5-2-0.6h-0.3h-0.3h-5.5c-2.6,0-4.6-0.3-6.1-1.1c-1.5-0.7-2.2-2.6-2.3-5.6c0-2.8,0.7-4.8,2.3-6s3.7-1.7,6.3-1.7h13.8
	v5.1h-11.3c-0.1,0-0.2,0-0.3,0h-0.3h-0.6h-0.7c-0.6,0-1.1,0.2-1.6,0.4s-0.8,0.6-1,1.2c-0.2,1.1,0,1.8,0.6,2.2
	c0.7,0.4,1.5,0.6,2.3,0.6h5.8c2.3,0,4.2,0.6,5.7,1.6s2.3,2.8,2.4,5.3v0.1v0.1c0,2-0.5,3.8-1.7,5.4c-1.2,1.6-2.8,2.4-4.9,2.4h-16.5
	V56h13.6V55.9z"/>
<path class="st0" d="M256.1,55.9c0.1,0,0.1,0,0.2,0h0.2c0.8,0,1.5-0.2,2.1-0.5s1-0.9,1-1.9c0-0.9-0.3-1.5-0.9-1.8s-1.3-0.5-2-0.6
	h-0.3h-0.3h-5.5c-2.6,0-4.6-0.3-6.1-1.1c-1.5-0.7-2.2-2.6-2.3-5.6c0-2.8,0.7-4.8,2.3-6s3.7-1.7,6.3-1.7h13.8v5.1h-11.3
	c-0.1,0-0.2,0-0.3,0h-0.3h-0.6h-0.7c-0.6,0-1.1,0.2-1.6,0.4s-0.8,0.6-1,1.2c-0.2,1.1,0,1.8,0.6,2.2c0.7,0.4,1.5,0.6,2.3,0.6h5.8
	c2.3,0,4.2,0.6,5.7,1.6s2.3,2.8,2.4,5.3v0.1v0.1c0,2-0.5,3.8-1.7,5.4c-1.2,1.6-2.8,2.4-4.9,2.4h-16.5V56h13.6V55.9z"/>
<path class="st1" d="M278.5,35.7c-1.3,1.3-2,3.2-2.1,5.7h19.2v5.8h-19.3c0,1.2,0.1,2.3,0.4,3.4c0.3,1.1,0.8,2.1,1.6,2.9
	c0.7,0.8,1.5,1.3,2.5,1.5s2,0.3,3,0.3h0.2h0.2h11.4V61h-11.7c-1.9,0-3.7-0.2-5.4-0.5c-1.7-0.3-3.4-1.1-4.9-2.3
	c-1.8-1.5-3.1-3.3-3.9-5.5c-0.7-2.2-1.1-4.4-1.2-6.7c0-0.5,0-1,0-1.4c0-0.5,0-0.9,0.1-1.4c0.3-5.2,1.8-9.1,4.3-11.5
	c2.5-2.5,6.3-3.7,11.3-3.7h11.6v5.8h-11.4C281.6,33.7,279.7,34.4,278.5,35.7"/>
<polygon class="st1" points="297.8,36.7 305.3,36.7 310.5,44.1 315.8,36.7 323.2,36.7 314.2,49 323.1,61 315.6,61 310.5,54 
	305.3,61 297.9,61 306.9,48.9 "/>
<rect x="324.6" y="55.2" class="st2" width="5.5" height="5.8"/>
<path class="st0" d="M347.4,55.8h6.8V61h-8.7c-1.7,0-3.3-0.2-4.9-0.5c-1.6-0.4-3-1.1-4.3-2.3c-1-1-1.9-2.2-2.4-3.6
	c-0.6-1.4-1-2.8-1.1-4.2c0-0.2,0-0.4,0-0.7c0-0.2,0-0.5,0-0.7c0-0.3,0-0.6,0-0.8c0-0.3,0-0.6,0.1-0.8c0.1-1.4,0.5-2.8,1.1-4.1
	s1.4-2.5,2.4-3.5c1.3-1.2,2.7-2,4.3-2.3c1.6-0.4,3.2-0.6,4.9-0.6h8.7V42h-6.8c-0.1,0-0.2,0-0.3,0h-0.3h-0.5h-0.5
	c-0.6,0-1.2,0-1.8,0.1c-0.6,0.1-1.1,0.3-1.7,0.6c-1.1,0.7-1.9,1.6-2.3,2.7c-0.4,1.1-0.6,2.3-0.6,3.5s0.2,2.3,0.6,3.4
	c0.4,1.1,1.1,2,2.2,2.6c0.5,0.3,1.1,0.5,1.7,0.6s1.2,0.2,1.8,0.2h0.6h0.6h0.3L347.4,55.8L347.4,55.8z"/>
<path class="st0" d="M410.2,36.7c3.1,0.1,5.6,0.7,7.4,1.9s2.7,3.6,2.7,7V61h-6.4V46.4c0-2.3-0.5-3.6-1.4-3.9c-1-0.4-2.4-0.5-4.4-0.4
	c-0.3,0-0.6,0-0.9,0h-1V61h-6.5V42.1H392V61h-6.4V36.7H410.2z"/>
<g>
	<path class="st0" d="M299,76.6h1.7l3.4,9.5c0.1,0.4,0.3,0.8,0.4,1.1c0.1,0.4,0.2,0.7,0.3,1c0.1-0.3,0.2-0.7,0.3-1
		c0.1-0.3,0.2-0.7,0.3-1l3.6-9.6h1.7l2.2,13.2l-1.6,0.2l-1.3-9.4c0-0.1,0-0.4-0.1-0.7c0-0.4-0.1-0.9-0.1-1.5
		c-0.2,0.6-0.3,1.1-0.4,1.5s-0.2,0.7-0.3,0.8l-3.5,9.3H304l-3.2-8.9c0-0.1-0.1-0.3-0.2-0.6c-0.1-0.3-0.3-1-0.5-2
		c0,0.4-0.1,0.9-0.2,1.4s-0.2,1.1-0.3,1.8l-1.4,8.4l-1.6-0.2L299,76.6z"/>
	<path class="st0" d="M321.7,76.4c1,0,1.9,0.1,2.7,0.4c0.8,0.3,1.5,0.7,2.1,1.3c0.7,0.7,1.2,1.4,1.6,2.4c0.4,0.9,0.6,1.9,0.6,2.9
		s-0.2,1.9-0.6,2.8s-0.9,1.7-1.5,2.3c-0.6,0.6-1.3,1-2.1,1.3c-0.8,0.3-1.7,0.4-2.7,0.4c-1.1,0-2-0.1-2.8-0.4s-1.5-0.8-2.1-1.4
		c-0.7-0.7-1.2-1.4-1.5-2.3c-0.3-0.8-0.5-1.7-0.5-2.7s0.2-1.9,0.5-2.8s0.8-1.6,1.5-2.3c0.6-0.6,1.3-1.1,2.2-1.4
		C319.8,76.5,320.7,76.4,321.7,76.4z M321.7,77.8c-1.5,0-2.8,0.5-3.7,1.5c-0.9,1-1.4,2.4-1.4,4s0.5,3,1.4,4c1,1,2.2,1.5,3.7,1.5
		c1.6,0,2.8-0.5,3.7-1.6c0.9-1,1.4-2.4,1.4-4.1c0-1.6-0.5-2.9-1.4-3.9C324.5,78.3,323.3,77.8,321.7,77.8z"/>
	<path class="st0" d="M340.5,76.4L342,77l-5.5,13H335l-5.2-13l1.6-0.6l3.6,9.3c0.1,0.2,0.2,0.6,0.3,1c0.1,0.4,0.3,0.9,0.4,1.5
		c0.2-0.6,0.4-1.1,0.5-1.5c0.2-0.4,0.3-0.7,0.4-1L340.5,76.4z"/>
	<path class="st0" d="M344.1,76.6h6.9V78h-5.3l-0.1,4.4h5.1v1.4h-5.1l-0.1,4.8h5.5V90h-7.1L344.1,76.6z"/>
	<path class="st0" d="M363,76.6h1.5l5.2,13.1l-1.6,0.6l-1.8-4.7h-5.4l-2,4.7l-1.5-0.5L363,76.6z M363.7,78.1c-0.1,0.4-0.2,0.7-0.3,1
		c-0.1,0.3-0.1,0.5-0.2,0.5l-1.8,4.4h4.4l-1.7-4.4c0-0.1-0.1-0.2-0.2-0.5C363.9,79,363.8,78.6,363.7,78.1z"/>
	<path class="st0" d="M371.9,76.6h1.6l-0.1,5.8h7.2l0.1-5.8h1.6L382.1,90h-1.6l0.1-6.3h-7.2l-0.1,6.3h-1.6L371.9,76.6z"/>
	<path class="st0" d="M385.7,76.6h6.9V78h-5.3l-0.1,4.4h5.1v1.4h-5.1l-0.1,4.8h5.5V90h-7.1L385.7,76.6z"/>
	<path class="st0" d="M399.3,76.6h1.5l5.2,13.1l-1.6,0.6l-1.8-4.7h-5.4l-2,4.7l-1.5-0.5L399.3,76.6z M400,78.1
		c-0.1,0.4-0.2,0.7-0.3,1c-0.1,0.3-0.1,0.5-0.2,0.5l-1.8,4.4h4.4l-1.7-4.4c0-0.1-0.1-0.2-0.2-0.5C400.2,79,400.1,78.6,400,78.1z"/>
	<path class="st0" d="M408.2,76.6h4.2c2,0,3.6,0.6,4.9,1.8c1.2,1.2,1.9,2.7,1.9,4.7c0,2.1-0.7,3.8-2.1,5.1c-1.4,1.2-3.2,1.9-5.6,1.9
		H408L408.2,76.6z M409.7,77.8l-0.2,10.8h2c1.7,0,3.1-0.5,4.2-1.5s1.6-2.3,1.6-4s-0.5-3.1-1.5-4s-2.5-1.4-4.4-1.4L409.7,77.8
		L409.7,77.8z"/>
</g>
<g>
	<path class="st0" d="M364.2,48.9c0,3.1,2.5,5.6,5.6,5.6s5.6-2.5,5.6-5.6s-2.5-5.6-5.6-5.6C366.7,43.3,364.2,45.8,364.2,48.9z
		 M369.7,43.8c2.8,0,5.1,2.3,5.1,5.1s-2.3,5.1-5.1,5.1c-2.8,0-5.1-2.3-5.1-5.1S366.9,43.8,369.7,43.8z"/>
	<path class="st0" d="M368.2,36.2c-0.5,0.2-0.8,0.6-1.1,0.9c-0.4,0.7-0.6,1.5-0.5,2.3c-0.1-0.3-0.3-0.6-0.5-0.8
		c-0.3-0.4-0.7-0.6-1.2-0.8c-0.2-0.1-0.5-0.1-0.7-0.1c-0.1,0-0.2,0-0.3,0c-0.2,0-0.3,0-0.4,0c-0.6,0.1-1.1,0.3-1.4,0.6
		c-0.2,0.2-0.4,0.3-0.6,0.5s-0.3,0.4-0.4,0.6c-0.1,0.3-0.2,0.5-0.3,0.7c0,0.2-0.1,0.5-0.1,0.7c0,0.8,0.3,1.5,0.9,2.1
		c-0.5-0.2-0.9-0.4-1.4-0.4c-0.3,0-0.6,0-0.8,0.1c-0.9,0.3-1.7,1.1-2.1,2.1c-0.2,0.5-0.2,1-0.1,1.6c0.1,0.5,0.3,1,0.6,1.3
		c0.5,0.6,1.2,1,2,1.1c-0.8,0.1-1.5,0.5-2,1.1c-0.3,0.4-0.5,0.8-0.6,1.3c-0.1,0.6,0,1.1,0.1,1.6c0.3,1,1.1,1.8,2.1,2.1
		c0.8,0.2,1.5,0.1,2.3-0.2c-0.6,0.6-0.9,1.3-0.9,2.1c0,0.2,0,0.5,0.1,0.7c0,0.2,0.1,0.4,0.3,0.7c0.1,0.2,0.3,0.5,0.4,0.7
		c0.2,0.2,0.4,0.4,0.6,0.5c0.5,0.4,1.1,0.5,1.4,0.6c0.2,0,0.5,0.1,0.8,0c0.2,0,0.5-0.1,0.7-0.1c0.4-0.1,0.8-0.4,1.2-0.8
		c0.2-0.2,0.4-0.5,0.5-0.8c-0.2,0.8,0,1.6,0.5,2.3c0.3,0.4,0.6,0.7,1.1,0.9c0.4,0.2,0.9,0.3,1.5,0.4c0.6,0,1.1-0.2,1.5-0.4
		c0.5-0.2,0.8-0.6,1.1-0.9c0.4-0.7,0.6-1.4,0.5-2.2c0.1,0.3,0.3,0.6,0.5,0.8c0.3,0.4,0.7,0.6,1.2,0.8c0.2,0.1,0.5,0.1,0.7,0.1
		c0.3,0,0.5,0,0.8,0c0.4-0.1,1-0.2,1.4-0.6c0.2-0.2,0.4-0.3,0.6-0.5s0.3-0.4,0.4-0.6c0.1-0.3,0.2-0.5,0.3-0.7c0-0.2,0.1-0.5,0.1-0.7
		c0-0.8-0.3-1.5-0.9-2.1c0.7,0.4,1.5,0.5,2.3,0.2c0.9-0.3,1.7-1.1,2.1-2.1c0.2-0.5,0.2-1,0.1-1.6c-0.1-0.5-0.3-1-0.6-1.3
		c-0.5-0.6-1.2-1-2-1.1c0.8-0.1,1.5-0.5,2-1.1c0.3-0.4,0.5-0.8,0.6-1.3c0.1-0.6,0-1.1-0.1-1.6c-0.3-1-1.1-1.8-2.1-2.1
		c-0.3-0.1-0.6-0.1-0.8-0.1c-0.5,0-1,0.1-1.4,0.4c0.6-0.6,0.9-1.3,0.9-2.1c0-0.2,0-0.5-0.1-0.7c0-0.2-0.1-0.4-0.3-0.7
		c-0.1-0.2-0.3-0.5-0.4-0.7c-0.2-0.2-0.4-0.4-0.6-0.5c-0.4-0.3-0.8-0.5-1.4-0.6c-0.1,0-0.3,0-0.4,0s-0.2,0-0.3,0
		c-0.2,0-0.5,0.1-0.7,0.1c-0.4,0.1-0.8,0.4-1.2,0.8c-0.2,0.2-0.4,0.5-0.5,0.8c0.1-0.8,0-1.6-0.5-2.2c-0.3-0.4-0.6-0.7-1.1-0.9
		c-0.4-0.2-0.9-0.3-1.5-0.4C369.1,35.9,368.6,36,368.2,36.2z M378.8,48.9c0,5-4.1,9.1-9.1,9.1s-9.1-4.1-9.1-9.1s4.1-9.1,9.1-9.1
		C374.7,39.8,378.8,43.9,378.8,48.9z M361.3,40.3c0-0.2,0.1-0.3,0.2-0.6c0.1-0.2,0.2-0.4,0.3-0.5c0.2-0.2,0.3-0.3,0.5-0.5
		c0.3-0.2,0.7-0.4,1.2-0.5c0.2,0,0.4,0,0.6,0s0.4,0.1,0.6,0.1c0.3,0.1,0.6,0.3,0.9,0.6c0.2,0.3,0.4,0.6,0.6,1
		c-1.6,0.6-2.9,1.6-4,2.9c-0.7-0.5-1-1.2-1-1.9C361.3,40.7,361.3,40.5,361.3,40.3z M358.2,47.4c-0.2-0.3-0.4-0.7-0.5-1.1
		c-0.1-0.5,0-0.9,0.1-1.3c0.3-0.8,0.9-1.5,1.7-1.7c0.7-0.2,1.5-0.1,2.2,0.4c-0.9,1.4-1.4,3-1.5,4.7C359.4,48.3,358.6,48,358.2,47.4z
		 M359.5,54.5c-0.8-0.2-1.4-0.9-1.7-1.7c-0.1-0.4-0.2-0.8-0.1-1.3c0.1-0.4,0.2-0.8,0.5-1.1c0.5-0.6,1.2-0.9,2-0.9
		c0.1,1.7,0.6,3.3,1.5,4.7C361,54.5,360.3,54.7,359.5,54.5z M365.7,58.8c-0.3,0.3-0.6,0.5-0.9,0.6c-0.2,0.1-0.4,0.1-0.6,0.1
		s-0.4,0-0.6,0c-0.5-0.1-0.9-0.3-1.2-0.5c-0.2-0.1-0.4-0.3-0.5-0.5s-0.2-0.3-0.4-0.5c-0.1-0.2-0.2-0.4-0.2-0.6
		c0-0.2-0.1-0.4-0.1-0.6c0-0.7,0.4-1.4,1-1.9c1,1.3,2.4,2.3,4,2.9C366.1,58.2,366,58.5,365.7,58.8z M371.9,60.3
		c-0.2,0.3-0.5,0.6-0.9,0.8c-0.3,0.2-0.8,0.3-1.3,0.3s-1-0.1-1.3-0.3c-0.4-0.2-0.7-0.5-0.9-0.8c-0.4-0.6-0.5-1.4-0.3-2.2
		c0.8,0.2,1.6,0.3,2.5,0.3s1.7-0.1,2.5-0.3C372.4,58.9,372.3,59.7,371.9,60.3z M378.1,57.4c0,0.2-0.1,0.3-0.2,0.6
		c-0.1,0.2-0.2,0.4-0.3,0.5c-0.2,0.2-0.3,0.3-0.5,0.5c-0.3,0.2-0.7,0.4-1.2,0.5c-0.2,0-0.4,0-0.6,0s-0.4-0.1-0.6-0.1
		c-0.3-0.1-0.6-0.3-0.9-0.6c-0.2-0.3-0.4-0.6-0.6-1c1.6-0.6,2.9-1.6,4-2.9c0.7,0.5,1,1.2,1,1.9C378.2,57,378.2,57.2,378.1,57.4z
		 M381.3,50.3c0.2,0.3,0.4,0.7,0.5,1.1c0.1,0.5,0,0.9-0.1,1.3c-0.3,0.8-0.9,1.5-1.7,1.7c-0.7,0.2-1.5,0.1-2.2-0.4
		c0.9-1.4,1.4-3,1.5-4.7C380.1,49.4,380.8,49.7,381.3,50.3z M379.9,43.3c0.8,0.2,1.4,0.9,1.7,1.7c0.1,0.4,0.2,0.8,0.1,1.3
		c-0.1,0.4-0.2,0.8-0.5,1.1c-0.5,0.6-1.2,0.9-2,0.9c-0.1-1.7-0.6-3.3-1.5-4.7C378.4,43.2,379.2,43.1,379.9,43.3z M373.7,39
		c0.3-0.3,0.6-0.5,0.9-0.6c0.2-0.1,0.4-0.1,0.6-0.1s0.4,0,0.6,0c0.5,0.1,0.9,0.3,1.2,0.5c0.2,0.1,0.4,0.3,0.5,0.5s0.2,0.3,0.4,0.5
		c0.1,0.2,0.2,0.4,0.2,0.6c0,0.2,0.1,0.4,0.1,0.6c0,0.7-0.4,1.4-1,1.9c-1-1.3-2.4-2.3-4-2.9C373.3,39.6,373.5,39.2,373.7,39z
		 M371.9,37.4c0.4,0.6,0.5,1.4,0.3,2.2c-0.8-0.2-1.6-0.3-2.5-0.3s-1.7,0.1-2.5,0.3c-0.2-0.8-0.1-1.5,0.3-2.2
		c0.2-0.3,0.5-0.6,0.9-0.8c0.3-0.2,0.8-0.3,1.3-0.3s1,0.1,1.3,0.3C371.4,36.9,371.7,37.1,371.9,37.4z"/>
	<path class="st0" d="M363.2,48.9L363.2,48.9L363.2,48.9c0-0.3-0.2-0.5-0.5-0.5s-0.5,0.2-0.5,0.5l0,0l0,0c0,0.3,0.2,0.5,0.5,0.5
		S363.2,49.2,363.2,48.9z"/>
	<path class="st0" d="M363.4,50.4L363.4,50.4c-0.1-0.2-0.3-0.4-0.5-0.4h-0.1c-0.3,0.1-0.4,0.3-0.4,0.6c0.1,0.3,0.3,0.4,0.6,0.4
		C363.3,50.9,363.4,50.7,363.4,50.4z"/>
	<path class="st0" d="M364.3,52.9c-0.1,0-0.2,0-0.3,0.1c-0.2,0.2-0.2,0.5-0.1,0.7c0.2,0.2,0.5,0.2,0.7,0.1c0.2-0.2,0.2-0.5,0.1-0.7
		C364.6,53,364.5,52.9,364.3,52.9z"/>
	<path class="st0" d="M362.8,47.7c0.3,0.1,0.5-0.1,0.6-0.4c0.1-0.3-0.1-0.5-0.4-0.6h-0.1c-0.2,0-0.4,0.2-0.5,0.4
		C362.3,47.4,362.5,47.7,362.8,47.7z"/>
	<path class="st0" d="M363.9,51.8c-0.1-0.2-0.3-0.3-0.4-0.3s-0.2,0-0.2,0.1c-0.2,0.1-0.3,0.4-0.2,0.7c0.1,0.2,0.4,0.3,0.7,0.2
		C363.9,52.4,364,52.1,363.9,51.8z"/>
	<path class="st0" d="M363.2,46.1c0.2,0.1,0.5,0,0.7-0.2c0.1-0.2,0-0.5-0.2-0.7c-0.1,0-0.1-0.1-0.2-0.1c-0.2,0-0.4,0.1-0.4,0.3
		C362.9,45.7,363,46,363.2,46.1z"/>
	<path class="st0" d="M365.5,54c-0.2,0-0.3,0.1-0.4,0.2c-0.2,0.2-0.1,0.5,0.1,0.7s0.5,0.1,0.7-0.1c0.2-0.2,0.1-0.5-0.1-0.7
		C365.7,54.1,365.6,54,365.5,54z"/>
	<path class="st0" d="M367.1,42.9L367.1,42.9c0.3-0.1,0.4-0.4,0.3-0.7c-0.1-0.2-0.3-0.3-0.4-0.3s-0.1,0-0.2,0
		c-0.2,0.1-0.4,0.4-0.3,0.6C366.6,42.8,366.9,43,367.1,42.9z"/>
	<path class="st0" d="M368.6,42.4c0.3,0,0.4-0.3,0.4-0.6c0-0.2-0.2-0.4-0.5-0.4h-0.1c-0.3,0-0.4,0.3-0.4,0.6
		C368.1,42.3,368.3,42.5,368.6,42.4z"/>
	<path class="st0" d="M364.7,44.7c0.2-0.2,0.1-0.5-0.1-0.7c-0.1-0.1-0.2-0.1-0.3-0.1c-0.1,0-0.3,0.1-0.4,0.2
		c-0.2,0.2-0.1,0.5,0.1,0.7C364.2,44.9,364.5,44.9,364.7,44.7z"/>
	<path class="st0" d="M365.8,43.6c0.2-0.2,0.3-0.5,0.1-0.7c-0.1-0.1-0.2-0.2-0.4-0.2c-0.1,0-0.2,0-0.3,0.1c-0.2,0.2-0.3,0.5-0.1,0.7
		C365.3,43.7,365.6,43.8,365.8,43.6z"/>
	<path class="st0" d="M375.9,46.6c0.1,0.3,0.4,0.4,0.6,0.3c0.3-0.1,0.4-0.4,0.3-0.6c-0.1-0.2-0.3-0.3-0.5-0.3c-0.1,0-0.1,0-0.2,0
		C375.9,46.1,375.8,46.4,375.9,46.6z"/>
	<path class="st0" d="M375.9,45.4c0.2-0.2,0.3-0.5,0.1-0.7c-0.1-0.1-0.3-0.2-0.4-0.2s-0.2,0-0.3,0.1c-0.2,0.2-0.3,0.5-0.1,0.7
		C375.3,45.5,375.6,45.5,375.9,45.4z"/>
	<path class="st0" d="M374.9,44.1c0.2-0.2,0.2-0.5,0-0.7c-0.1-0.1-0.2-0.1-0.3-0.1c-0.1,0-0.3,0.1-0.4,0.2c-0.2,0.2-0.2,0.5,0,0.7
		C374.4,44.3,374.7,44.3,374.9,44.1z"/>
	<path class="st0" d="M376.7,47.5c-0.3,0-0.5,0.3-0.4,0.5c0,0.3,0.3,0.5,0.5,0.4c0.3,0,0.5-0.3,0.4-0.5
		C377.2,47.7,377,47.5,376.7,47.5L376.7,47.5z"/>
	<path class="st0" d="M371.6,42.6c0.3,0.1,0.5-0.1,0.6-0.3c0.1-0.3-0.1-0.5-0.3-0.6h-0.1c-0.2,0-0.4,0.1-0.5,0.3
		S371.3,42.5,371.6,42.6z"/>
	<path class="st0" d="M370.1,42.3c0.3,0,0.5-0.2,0.5-0.5s-0.2-0.5-0.5-0.5l0,0c-0.3,0-0.5,0.2-0.5,0.5S369.8,42.3,370.1,42.3z"/>
	<path class="st0" d="M376.8,49.2C376.8,49.2,376.7,49.2,376.8,49.2c-0.3,0-0.5,0.2-0.5,0.4c0,0.3,0.2,0.5,0.4,0.5
		c0.3,0,0.5-0.2,0.5-0.4C377.2,49.5,377,49.2,376.8,49.2z"/>
	<path class="st0" d="M373,43.2c0.2,0.1,0.5,0.1,0.7-0.2c0.1-0.2,0.1-0.5-0.2-0.7c-0.1,0-0.2-0.1-0.2-0.1c-0.2,0-0.3,0.1-0.4,0.2
		C372.7,42.8,372.8,43.1,373,43.2z"/>
	<path class="st0" d="M371.8,55.1h-0.1c-0.3,0.1-0.4,0.4-0.3,0.6c0.1,0.3,0.4,0.4,0.6,0.3c0.3-0.1,0.4-0.4,0.3-0.6
		C372.2,55.3,372,55.1,371.8,55.1z"/>
	<path class="st0" d="M370.2,55.4C370.1,55.4,370.1,55.4,370.2,55.4c-0.3,0-0.5,0.3-0.5,0.5c0,0.3,0.2,0.5,0.5,0.5s0.5-0.2,0.5-0.5
		C370.6,55.6,370.4,55.4,370.2,55.4z"/>
	<path class="st0" d="M367.2,54.9c-0.1,0-0.1,0-0.2,0c-0.2,0-0.4,0.1-0.5,0.3s0,0.5,0.3,0.6s0.5,0,0.6-0.3
		C367.5,55.3,367.4,55,367.2,54.9z"/>
	<path class="st0" d="M368.6,55.3L368.6,55.3c-0.3,0-0.5,0.2-0.6,0.4c0,0.3,0.1,0.5,0.4,0.6l0,0c0.3,0.1,0.5-0.1,0.6-0.4
		C369.1,55.6,368.9,55.4,368.6,55.3z"/>
	<path class="st0" d="M375.9,52.3c-0.1-0.1-0.2-0.1-0.3-0.1c-0.2,0-0.3,0.1-0.4,0.2c-0.1,0.2-0.1,0.5,0.1,0.7s0.5,0.1,0.7-0.1
		C376.2,52.8,376.1,52.5,375.9,52.3z"/>
	<path class="st0" d="M374.6,53.5c-0.1,0-0.2,0-0.3,0.1c-0.2,0.2-0.2,0.5,0,0.7s0.5,0.2,0.7,0s0.2-0.5,0-0.7
		C374.8,53.5,374.7,53.5,374.6,53.5z"/>
	<path class="st0" d="M376.5,50.8c-0.1,0-0.1,0-0.2,0c-0.2,0-0.4,0.1-0.5,0.3c-0.1,0.3,0,0.5,0.3,0.6s0.5,0,0.6-0.3
		C376.9,51.2,376.8,50.9,376.5,50.8z"/>
	<path class="st0" d="M373.3,54.5c-0.1,0-0.2,0-0.2,0.1c-0.2,0.1-0.3,0.4-0.2,0.7c0.1,0.2,0.4,0.3,0.7,0.2c0.2-0.1,0.3-0.4,0.2-0.7
		C373.6,54.6,373.4,54.5,373.3,54.5z"/>
	<path class="st0" d="M369.7,51.1c1.3,0,2.3-1,2.3-2.3s-1-2.3-2.3-2.3s-2.3,1-2.3,2.3S368.5,51.1,369.7,51.1z M369.7,47
		c1,0,1.9,0.8,1.9,1.9c0,1-0.8,1.9-1.9,1.9c-1,0-1.9-0.8-1.9-1.9C367.9,47.8,368.7,47,369.7,47z"/>
</g>
<g>
	<g>
		<g>
			<path class="st0" d="M54.1,23.4c0,0.3,0.2,0.5,0.4,0.6c0,4.1,0,8.2,0.1,12.3c-0.2,0.1-0.4,0.3-0.4,0.6s0.3,0.6,0.6,0.6
				s0.6-0.3,0.6-0.6s-0.2-0.5-0.4-0.6c0-4.1,0-8.2-0.1-12.3c0.2-0.1,0.4-0.3,0.4-0.6c0-0.3-0.3-0.6-0.6-0.6
				C54.4,22.8,54.1,23,54.1,23.4z"/>
			<path class="st0" d="M54,38.2c0,0.2,0.1,0.5,0.3,0.6c-1,0.2-1.7,1.1-1.7,2.1c0,1.1,0.8,1.9,1.7,2.1c-0.2,0.2-0.3,0.4-0.3,0.7
				c0,0.4,0.3,0.7,0.6,0.8v0.1c-0.2,0.1-0.4,0.3-0.4,0.6s0.2,0.5,0.4,0.6c0,4.1,0,8.2,0.1,12.3c-0.2,0.1-0.4,0.3-0.4,0.6
				s0.3,0.6,0.6,0.6s0.6-0.3,0.6-0.6s-0.2-0.5-0.4-0.6c0-4.1,0-8.2-0.1-12.3c0.2-0.1,0.4-0.3,0.4-0.6s-0.2-0.5-0.4-0.6v-0.1
				c0.3-0.1,0.6-0.4,0.6-0.8c0-0.3-0.1-0.5-0.3-0.6c1-0.2,1.7-1.1,1.7-2.2c0-1-0.7-1.9-1.7-2.1c0.2-0.2,0.3-0.4,0.3-0.6
				c0-0.5-0.4-0.8-0.8-0.8C54.3,37.4,54,37.8,54,38.2z M56.7,41c0,1-0.7,1.8-1.7,1.9c0-0.1-0.1-0.1-0.2-0.1l0,0
				c-0.1,0-0.1,0-0.2,0.1c-0.9-0.1-1.7-0.9-1.7-1.8c0-1,0.8-1.9,1.9-1.9C55.8,39.1,56.7,39.9,56.7,41z"/>
			<path class="st0" d="M54.1,60c0,0.2,0.1,0.5,0.3,0.6c-1,0.2-1.7,1.1-1.7,2.1c0,1.1,0.8,1.9,1.7,2.1c-0.2,0.2-0.3,0.4-0.3,0.7
				c0,0.4,0.3,0.7,0.6,0.8v0.1c-0.2,0.1-0.4,0.3-0.4,0.6c0,0.3,0.2,0.5,0.4,0.6c0,4.2,0,7.9,0.1,12.3c-0.2,0.1-0.4,0.3-0.4,0.6
				c0,0.3,0.3,0.6,0.6,0.6s0.6-0.3,0.6-0.6c0-0.3-0.2-0.5-0.4-0.6c0-4.4,0-8.1-0.1-12.3c0.2-0.1,0.4-0.3,0.4-0.6
				c0-0.3-0.2-0.5-0.4-0.6v-0.1c0.3-0.1,0.6-0.4,0.6-0.8c0-0.3-0.1-0.5-0.3-0.6c1-0.2,1.7-1.1,1.7-2.2c0-1-0.7-1.9-1.7-2.1
				c0.2-0.2,0.3-0.4,0.3-0.6c0-0.5-0.4-0.8-0.8-0.8C54.5,59.2,54.1,59.6,54.1,60z M56.8,62.8c0,1-0.8,1.9-1.9,1.9
				c-1,0-1.9-0.8-1.9-1.9c0-1,0.8-1.9,1.9-1.9C56,60.9,56.8,61.7,56.8,62.8z"/>
			<path class="st0" d="M54.2,81.9c0,0.2,0.1,0.5,0.3,0.6c-1,0.2-1.7,1.1-1.7,2.1c0,1.1,0.8,1.9,1.7,2.1c-0.2,0.2-0.3,0.4-0.3,0.7
				c0,0.5,0.4,0.8,0.8,0.8c0.5,0,0.8-0.4,0.8-0.8c0-0.3-0.1-0.5-0.3-0.6c1-0.2,1.7-1.1,1.7-2.2c0-1-0.7-1.9-1.7-2.1
				c0.2-0.2,0.3-0.4,0.3-0.6c0-0.5-0.4-0.8-0.8-0.8C54.6,81,54.2,81.4,54.2,81.9z M56.9,84.6c0,1-0.8,1.9-1.9,1.9
				c-1,0-1.9-0.8-1.9-1.9c0-1,0.8-1.9,1.9-1.9C56.1,82.7,56.9,83.6,56.9,84.6z"/>
			<path class="st0" d="M54.5,88.8c0,0.3,0.2,0.5,0.4,0.6c0,2.3,0,5.7,0,7.7c0,0.1,0.1,0.2,0.2,0.2l0,0c0.1,0,0.2-0.1,0.2-0.2
				c0-2.1,0-5.5,0-7.7c0.2-0.1,0.4-0.3,0.4-0.6c0-0.3-0.3-0.6-0.6-0.6C54.7,88.2,54.5,88.5,54.5,88.8z"/>
			<path class="st0" d="M55.2,17c0.2-0.2,0.3-0.4,0.3-0.6c0-0.5-0.4-0.8-0.8-0.8h0.2l0,0c0.2-0.1,0.4-0.3,0.4-0.6s-0.2-0.5-0.4-0.6
				V9.9c0-2.1,0-5.5,0-7.7c0.2-0.1,0.4-0.3,0.4-0.6l0,0l0,0c0-0.3-0.2-0.5-0.4-0.6V0.9c0.3-0.1,0.6-0.4,0.6-0.8l0,0l0,0
				c0-0.3-0.1-0.5-0.3-0.6c0.2,0,0.3-0.1,0.5-0.2h-2.1c0.2,0.1,0.3,0.2,0.5,0.2c-0.2,0.2-0.3,0.4-0.3,0.6l0,0l0,0
				c0,0.4,0.3,0.7,0.6,0.8V1C54.2,1.1,54,1.3,54,1.6l0,0l0,0c0,0.3,0.2,0.5,0.4,0.6l0.1,12.3c-0.2,0.1-0.4,0.3-0.4,0.6
				s0.2,0.5,0.4,0.6l0,0h0.2c-0.5,0-0.8,0.4-0.8,0.8c0,0.2,0.1,0.5,0.3,0.6c-1,0.2-1.7,1.1-1.7,2.1c0,1.1,0.8,1.9,1.7,2.1
				c-0.2,0.2-0.3,0.4-0.3,0.7c0,0.5,0.4,0.8,0.8,0.8c0.5,0,0.8-0.4,0.8-0.8c0-0.3-0.1-0.5-0.3-0.6c1-0.2,1.7-1.1,1.7-2.2
				S56.2,17.2,55.2,17z M54.7,21c-1,0-1.9-0.8-1.9-1.9c0-1,0.8-1.9,1.9-1.9c1,0,1.9,0.8,1.9,1.9C56.6,20.2,55.7,21,54.7,21z"/>
		</g>
	</g>
	<path class="st0" d="M71,101.9c0.2-0.3,0.3-0.6,0.3-1.1s-0.2-0.9-0.5-1.2c-0.2-0.3-0.5-0.5-0.7-0.7c-0.5-0.3-0.9-0.5-1.4-0.7
		c-0.9-0.3-1.8-0.6-2.7-0.8c-1.8-0.4-3.6-0.6-5.4-0.7c-3.6-0.3-7.2-0.3-10.7,0c-1.8,0.1-3.6,0.3-5.4,0.7c-0.9,0.2-1.8,0.4-2.7,0.7
		c-0.5,0.2-0.9,0.4-1.4,0.6c-0.1,0.1-0.3,0.2-0.4,0.3c-0.9-0.9-1.5-1.9-1.5-3.1c0-0.7,0.2-1.5,0.4-2.2c0.3-0.8,0.7-1.4,1.1-2.2
		c0.9-1.6,1.7-3.3,2-5.2c0.2-0.9,0.3-1.8,0.3-2.8c0-0.4,0-0.7,0-1.1c0.7,0.6,1.3,1.2,1.9,1.9c0.9,1.2,1.5,2.5,1.7,4
		c0.2,1.4,0.1,3-0.4,4.4s-1.4,2.7-2.4,3.8l0,0c-0.1,0.1-0.1,0.2,0,0.2c0.1,0.1,0.2,0.1,0.2,0c1.2-1,2.2-2.3,2.8-3.8s0.9-3.1,0.8-4.7
		c-0.1-1.6-0.8-3.2-1.7-4.5c-0.9-1.4-2-2.5-3.4-3.5l0,0l-1.4-0.9l0.3,1.7c0.2,1.5,0.1,3.3-0.3,4.9c-0.4,1.6-1,3.2-1.9,4.6
		c-0.9,1.5-1.9,3.3-1.9,5.4c0,1,0.3,2.1,0.8,3c0.4,0.7,0.9,1.2,1.4,1.7c0,2,0.4,3.8,1.2,5.4c0.9,1.7,2.2,3.2,3.7,4.3
		c3.2,2.2,7,2.8,10.6,2.9c3.6,0.1,7.4-0.6,10.5-2.5s5.4-5.1,6.1-8.7C71.1,102,71.1,102,71,101.9z M42.4,100c0.8-0.3,1.6-0.5,2.4-0.6
		c1.7-0.3,3.4-0.5,5.1-0.6c3.5-0.2,7-0.2,10.4,0.1c1.7,0.1,3.5,0.4,5.1,0.7c0.8,0.2,1.6,0.4,2.4,0.7c0.4,0.1,0.7,0.3,1,0.5
		c0.1,0.1,0.2,0.2,0.2,0.2c0,0.1-0.1,0.2-0.2,0.2c-0.2,0.2-0.5,0.3-0.9,0.5c-0.7,0.3-1.5,0.5-2.3,0.7c-1.7,0.4-3.4,0.6-5.1,0.7
		c-3.5,0.2-7,0.2-10.4-0.3c-1.7-0.2-3.4-0.6-5-1c-1.2-0.4-2.4-0.8-3.5-1.4C41.9,100.2,42.1,100.1,42.4,100z M64.7,110.2
		c-3.1,1.7-6.7,2.2-10.2,2s-7-1-9.8-3c-1.3-1-2.4-2.3-3.1-3.8c-0.3-0.8-0.6-1.5-0.7-2.4c-0.1-0.3-0.1-0.7-0.1-1
		c1.2,0.7,2.5,1.2,3.8,1.6c1.8,0.5,3.5,0.9,5.3,1.2c3.6,0.5,7.2,0.6,10.8,0.4c1.8-0.1,3.6-0.3,5.4-0.7c0.9-0.2,1.8-0.4,2.7-0.8
		c0.5-0.2,0.9-0.4,1.4-0.8c0.2-0.2,0.4-0.4,0.5-0.6C69.9,105.6,67.7,108.6,64.7,110.2z"/>
</g>
<g>
	<g>
		<g>
			<path class="st1" d="M27,4.6c0-1.8,0-3.5,0-5.3h-0.5c0,1.8,0,3.5,0,5.3c-0.2,0.1-0.4,0.3-0.4,0.6c0,0.3,0.3,0.6,0.6,0.6
				c0.3,0,0.6-0.3,0.6-0.6C27.4,4.9,27.2,4.7,27,4.6z"/>
			<path class="st1" d="M25.9,6.6c0,0.2,0.1,0.5,0.3,0.6c-1,0.2-1.7,1.1-1.7,2.1c0,1.1,0.8,1.9,1.7,2.1c-0.2,0.2-0.3,0.4-0.3,0.7
				c0,0.4,0.3,0.7,0.6,0.8V13c-0.2,0.1-0.4,0.3-0.4,0.6s0.2,0.5,0.4,0.6c0,4.1,0,8.2,0.1,12.3c-0.2,0.1-0.4,0.3-0.4,0.6
				c0,0.3,0.3,0.6,0.6,0.6c0.3,0,0.6-0.3,0.6-0.6c0-0.3-0.2-0.5-0.4-0.6c0-4.1,0-8.2-0.1-12.3c0.2-0.1,0.4-0.3,0.4-0.6
				s-0.2-0.5-0.4-0.6v-0.1c0.3-0.1,0.6-0.4,0.6-0.8c0-0.3-0.1-0.5-0.3-0.6c1-0.2,1.7-1.1,1.7-2.2c0-1-0.7-1.9-1.7-2.1
				c0.2-0.2,0.3-0.4,0.3-0.6c0-0.5-0.4-0.8-0.8-0.8C26.3,5.7,25.9,6.1,25.9,6.6z M28.7,9.3c0,1-0.7,1.8-1.7,1.9
				c0-0.1-0.1-0.1-0.2-0.1l0,0c-0.1,0-0.1,0-0.2,0.1c-0.9-0.1-1.7-0.9-1.7-1.8c0-1,0.8-1.9,1.9-1.9C27.8,7.4,28.6,8.3,28.7,9.3z"/>
			<path class="st1" d="M26.1,28.4c0,0.2,0.1,0.5,0.3,0.6c-1,0.2-1.7,1.1-1.7,2.1c0,1.1,0.8,1.9,1.7,2.1c-0.2,0.2-0.3,0.4-0.3,0.7
				c0,0.4,0.3,0.7,0.6,0.8v0.1c-0.2,0.1-0.4,0.3-0.4,0.6s0.2,0.5,0.4,0.6c0,4.2,0,7.9,0.1,12.3c-0.2,0.1-0.4,0.3-0.4,0.6
				s0.3,0.6,0.6,0.6c0.3,0,0.6-0.3,0.6-0.6s-0.2-0.5-0.4-0.6c0-4.4,0-8.1-0.1-12.3c0.2-0.1,0.4-0.3,0.4-0.6s-0.2-0.5-0.4-0.6v-0.1
				c0.3-0.1,0.6-0.4,0.6-0.8c0-0.3-0.1-0.5-0.3-0.6c1-0.2,1.7-1.1,1.7-2.2c0-1-0.7-1.9-1.7-2.1c0.2-0.2,0.3-0.4,0.3-0.6
				c0-0.5-0.4-0.8-0.8-0.8C26.4,27.6,26.1,27.9,26.1,28.4z M28.8,31.1c0,1-0.8,1.9-1.9,1.9c-1,0-1.9-0.8-1.9-1.9
				c0-1,0.8-1.9,1.9-1.9C27.9,29.2,28.8,30.1,28.8,31.1z"/>
			<path class="st1" d="M26.2,50.2c0,0.2,0.1,0.5,0.3,0.6c-1,0.2-1.7,1.1-1.7,2.1c0,1.1,0.8,1.9,1.7,2.1c-0.2,0.2-0.3,0.4-0.3,0.7
				c0,0.5,0.4,0.8,0.8,0.8c0.5,0,0.8-0.4,0.8-0.8c0-0.3-0.1-0.5-0.3-0.6c1-0.2,1.7-1.1,1.7-2.2c0-1-0.7-1.9-1.7-2.1
				c0.2-0.2,0.3-0.4,0.3-0.6c0-0.5-0.4-0.8-0.8-0.8C26.5,49.4,26.2,49.7,26.2,50.2z M28.9,52.9c0,1-0.8,1.9-1.9,1.9
				c-1,0-1.9-0.8-1.9-1.9c0-1,0.8-1.9,1.9-1.9C28,51.1,28.9,51.9,28.9,52.9z"/>
			<path class="st1" d="M26.4,57.2c0,0.3,0.2,0.5,0.4,0.6c0,2.3,0,5.7,0,7.7c0,0.1,0.1,0.2,0.2,0.2l0,0c0.1,0,0.2-0.1,0.2-0.2
				c0-2.1,0-5.5,0-7.7c0.2-0.1,0.4-0.3,0.4-0.6s-0.3-0.6-0.6-0.6C26.7,56.6,26.4,56.8,26.4,57.2z"/>
		</g>
	</g>
	<path class="st1" d="M43,70.3c0.2-0.3,0.3-0.6,0.3-1.1s-0.2-0.9-0.5-1.2c-0.2-0.3-0.5-0.5-0.7-0.7c-0.5-0.3-0.9-0.5-1.4-0.7
		c-0.9-0.3-1.8-0.6-2.7-0.8c-1.8-0.4-3.6-0.6-5.4-0.7c-3.6-0.3-7.2-0.3-10.7,0c-1.8,0.1-3.6,0.3-5.4,0.7c-0.9,0.2-1.8,0.4-2.7,0.7
		c-0.5,0.2-0.9,0.4-1.4,0.6c-0.1,0.1-0.3,0.2-0.4,0.3c-0.9-0.9-1.5-1.9-1.5-3.1c0-0.7,0.2-1.5,0.4-2.2c0.3-0.8,0.7-1.4,1.1-2.2
		c0.9-1.6,1.7-3.3,2-5.2c0.2-0.9,0.3-1.8,0.3-2.8c0-0.4,0-0.7,0-1.1c0.7,0.6,1.3,1.2,1.9,1.9c0.9,1.2,1.5,2.5,1.7,4
		c0.2,1.4,0.1,3-0.4,4.4s-1.4,2.7-2.4,3.8l0,0c-0.1,0.1-0.1,0.2,0,0.2c0.1,0.1,0.2,0.1,0.2,0c1.2-1,2.2-2.3,2.8-3.8s0.9-3.1,0.8-4.7
		c-0.1-1.6-0.8-3.2-1.7-4.5c-0.9-1.4-2-2.5-3.4-3.5l0,0l-1.4-0.9l0.3,1.7c0.2,1.5,0.1,3.3-0.3,4.9c-0.4,1.6-1,3.2-1.9,4.6
		c-0.9,1.5-1.9,3.3-1.9,5.4c0,1,0.3,2.1,0.8,3c0.4,0.7,0.9,1.2,1.4,1.7c0,2,0.4,3.8,1.2,5.4c0.9,1.7,2.2,3.2,3.7,4.3
		c3.2,2.2,7,2.8,10.6,2.9s7.4-0.6,10.5-2.5s5.4-5.1,6.1-8.7C43.1,70.3,43,70.3,43,70.3z M14.4,68.4c0.8-0.3,1.6-0.5,2.4-0.6
		c1.7-0.3,3.4-0.5,5.1-0.6c3.5-0.2,7-0.2,10.4,0.1c1.7,0.1,3.5,0.4,5.1,0.7c0.8,0.2,1.6,0.4,2.4,0.7c0.4,0.1,0.7,0.3,1,0.5
		c0.1,0.1,0.2,0.2,0.2,0.2c0,0.1-0.1,0.2-0.2,0.2c-0.2,0.2-0.5,0.3-0.9,0.5c-0.7,0.3-1.5,0.5-2.3,0.7c-1.7,0.4-3.4,0.6-5.1,0.7
		c-3.5,0.2-7,0.2-10.4-0.3c-1.7-0.2-3.4-0.6-5-1c-1.2-0.4-2.4-0.8-3.5-1.4C13.9,68.6,14.1,68.5,14.4,68.4z M36.7,78.6
		c-3.1,1.7-6.7,2.2-10.2,2s-7-1-9.8-3c-1.3-1-2.4-2.3-3.1-3.8c-0.3-0.8-0.6-1.5-0.7-2.4c-0.1-0.3-0.1-0.7-0.1-1
		c1.2,0.7,2.5,1.2,3.8,1.6c1.8,0.5,3.5,0.9,5.3,1.2c3.6,0.5,7.2,0.6,10.8,0.4c1.8-0.1,3.6-0.3,5.4-0.7c0.9-0.2,1.8-0.4,2.7-0.8
		c0.5-0.2,0.9-0.4,1.4-0.8c0.2-0.2,0.4-0.4,0.5-0.6C41.9,74,39.6,76.9,36.7,78.6z"/>
</g>
<g>
	<g>
		<g>
			<path class="st0" d="M444.2-9.9c0,0.3-0.2,0.5-0.4,0.6c0,4.4,0,8.8,0.1,13.3c0.2,0.1,0.4,0.3,0.4,0.6c0,0.4-0.3,0.7-0.7,0.7
				c-0.4,0-0.7-0.3-0.7-0.7c0-0.3,0.2-0.5,0.4-0.6c0-4.5-0.1-8.8-0.1-13.3c-0.2-0.1-0.4-0.3-0.4-0.6c0-0.4,0.3-0.7,0.7-0.7
				C443.9-10.6,444.2-10.3,444.2-9.9z"/>
			<path class="st0" d="M443.6,5.2c-0.5,0-0.9,0.4-0.9,0.9c0,0.3,0.1,0.5,0.3,0.7c-1,0.3-1.8,1.2-1.8,2.3s0.8,2.1,1.9,2.3
				c-0.2,0.2-0.4,0.4-0.4,0.7c0,0.4,0.3,0.7,0.6,0.8V13c-0.2,0.1-0.4,0.3-0.4,0.6s0.2,0.5,0.4,0.6c0,4.4,0,8.9,0.1,13.3
				c-0.2,0.1-0.4,0.3-0.4,0.6c0,0.4,0.3,0.7,0.7,0.7c0.4,0,0.7-0.3,0.7-0.7c0-0.3-0.2-0.5-0.4-0.6c0-4.4-0.1-8.9-0.1-13.3
				c0.2-0.1,0.4-0.3,0.4-0.6s-0.2-0.5-0.4-0.6v-0.1c0.4-0.1,0.6-0.4,0.6-0.8c0-0.3-0.2-0.5-0.4-0.7c1.1-0.2,1.9-1.2,1.9-2.3
				s-0.8-2-1.8-2.3c0.2-0.2,0.3-0.4,0.3-0.7C444.5,5.6,444.1,5.2,443.6,5.2z M443.7,7c1.1,0,2,0.9,2,2c0,1-0.8,1.9-1.8,2
				c0-0.1-0.1-0.1-0.2-0.1l0,0c-0.1,0-0.2,0-0.2,0.1c-1-0.1-1.8-0.9-1.8-2C441.6,7.9,442.5,7,443.7,7z"/>
			<path class="st0" d="M443.8,28.7c-0.5,0-0.9,0.4-0.9,0.9c0,0.3,0.1,0.5,0.3,0.7c-1,0.3-1.8,1.2-1.8,2.3c0,1.1,0.8,2.1,1.9,2.3
				c-0.2,0.2-0.4,0.4-0.4,0.7c0,0.4,0.3,0.7,0.6,0.8v0.1c-0.2,0.1-0.4,0.3-0.4,0.6s0.2,0.5,0.4,0.6c0,4.5,0,8.6,0.1,13.3
				c-0.2,0.1-0.4,0.3-0.4,0.6c0,0.4,0.3,0.7,0.7,0.7c0.4,0,0.7-0.3,0.7-0.7c0-0.3-0.2-0.5-0.4-0.6c0-4.7-0.1-8.8-0.1-13.3
				c0.2-0.1,0.4-0.3,0.4-0.6s-0.2-0.5-0.4-0.6v-0.1c0.4-0.1,0.6-0.4,0.6-0.8c0-0.3-0.2-0.5-0.4-0.7c1.1-0.2,1.9-1.2,1.9-2.3
				c0-1.1-0.8-2-1.8-2.3c0.2-0.2,0.3-0.4,0.3-0.7C444.7,29.1,444.3,28.7,443.8,28.7z M443.8,30.6c1.1,0,2,0.9,2,2s-0.9,2-2,2
				s-2-0.9-2-2S442.7,30.6,443.8,30.6z"/>
			<path class="st0" d="M443.9,52.3c-0.5,0-0.9,0.4-0.9,0.9c0,0.3,0.1,0.5,0.3,0.7c-1,0.3-1.8,1.2-1.8,2.3s0.8,2.1,1.9,2.3
				c-0.2,0.2-0.4,0.4-0.4,0.7c0,0.5,0.4,0.9,0.9,0.9s0.9-0.4,0.9-0.9c0-0.3-0.2-0.5-0.4-0.7c1.1-0.2,1.9-1.2,1.9-2.3s-0.8-2-1.8-2.3
				c0.2-0.2,0.3-0.4,0.3-0.7C444.8,52.7,444.4,52.3,443.9,52.3z M443.9,54.1c1.1,0,2,0.9,2,2s-0.9,2-2,2s-2-0.9-2-2
				S442.8,54.1,443.9,54.1z"/>
			<path class="st0" d="M444.6,60.7c0,0.3-0.2,0.5-0.4,0.6c0,2.5,0,6.1,0,8.3c0,0.1-0.1,0.3-0.3,0.3l0,0c-0.1,0-0.3-0.1-0.3-0.3
				c0-2.2,0-5.9,0-8.4c-0.2-0.1-0.4-0.3-0.4-0.6c0-0.4,0.3-0.7,0.7-0.7C444.3,60.1,444.6,60.3,444.6,60.7z"/>
		</g>
	</g>
	<path class="st0" d="M426.8,75.2c0.8,3.8,3.2,7.3,6.6,9.3c3.4,2.1,7.5,2.7,11.4,2.6s8-0.8,11.4-3.2c1.7-1.2,3.1-2.8,4-4.7
		c0.9-1.8,1.3-3.8,1.3-5.9c0.6-0.5,1.1-1.1,1.5-1.9c0.6-1,0.9-2.1,0.8-3.2c0-2.2-1.1-4.2-2.1-5.8c-1-1.5-1.7-3.2-2.1-5
		c-0.4-1.7-0.6-3.6-0.3-5.3l0.3-1.8l-1.5,0.9l0,0c-1.5,1.1-2.7,2.3-3.6,3.8c-1,1.5-1.6,3.2-1.7,4.9c-0.1,1.8,0.2,3.5,0.9,5.1
		c0.7,1.6,1.8,2.9,3.1,4c0.1,0.1,0.2,0.1,0.2,0c0.1-0.1,0.1-0.2,0-0.2l0,0c-1.2-1.1-2.1-2.5-2.7-4s-0.7-3.1-0.5-4.7
		c0.2-1.6,0.9-3,1.8-4.3c0.6-0.8,1.3-1.5,2-2.1c0,0.4,0,0.8,0,1.2c0,1,0.2,2,0.4,3c0.4,2,1.2,3.8,2.2,5.5c0.5,0.8,0.9,1.6,1.3,2.4
		c0.3,0.8,0.5,1.6,0.5,2.4c0,1.3-0.6,2.5-1.5,3.4c-0.1-0.1-0.3-0.2-0.4-0.3c-0.5-0.3-1-0.5-1.5-0.7c-1-0.3-1.9-0.6-2.9-0.8
		c-1.9-0.4-3.9-0.6-5.8-0.7c-3.9-0.2-7.7-0.2-11.6,0.2c-1.9,0.2-3.9,0.4-5.8,0.8c-1,0.2-1.9,0.5-2.9,0.8c-0.5,0.2-1,0.4-1.5,0.8
		c-0.3,0.2-0.5,0.4-0.8,0.7c-0.2,0.3-0.5,0.8-0.5,1.3s0.1,0.8,0.3,1.1C426.8,75.1,426.8,75.1,426.8,75.2z M458.5,73
		c-1.1,0.7-2.4,1.2-3.7,1.6c-1.8,0.5-3.6,0.9-5.4,1.2c-3.7,0.5-7.5,0.6-11.2,0.4c-1.9-0.1-3.7-0.3-5.5-0.7c-0.9-0.2-1.8-0.4-2.5-0.7
		c-0.4-0.2-0.7-0.3-1-0.5c-0.1-0.1-0.2-0.2-0.2-0.2c0-0.1,0.1-0.1,0.3-0.2c0.3-0.2,0.6-0.4,1-0.5c0.8-0.3,1.7-0.5,2.6-0.7
		c1.8-0.4,3.6-0.6,5.5-0.8c3.7-0.3,7.5-0.4,11.3-0.2c1.9,0.1,3.7,0.3,5.5,0.6c0.9,0.2,1.8,0.4,2.6,0.6C458,72.7,458.3,72.8,458.5,73
		z M427.1,75.4c0.2,0.2,0.4,0.4,0.6,0.6c0.5,0.4,1,0.7,1.5,0.9c1,0.4,2,0.6,3,0.8c2,0.4,3.9,0.6,5.8,0.7c3.9,0.2,7.8,0,11.6-0.6
		c1.9-0.3,3.8-0.7,5.7-1.3c1.4-0.4,2.7-1,4-1.8c0,0.4-0.1,0.8-0.1,1.1c-0.2,0.9-0.4,1.7-0.8,2.6c-0.7,1.6-1.8,3.1-3.3,4.2
		c-2.9,2.2-6.7,3.1-10.5,3.4c-3.8,0.2-7.7-0.2-11-2.1C430.6,82.1,428.1,79,427.1,75.4z"/>
</g>
<g>
	<g>
		<g>
			<path class="st1" d="M473.2-10.4c0.2-0.2,0.3-0.4,0.3-0.7s-0.1-0.5-0.3-0.6H472c-0.2,0.2-0.3,0.4-0.3,0.6c0,0.3,0.1,0.5,0.3,0.7
				c-1,0.3-1.8,1.2-1.8,2.3s0.8,2.1,1.9,2.3c-0.2,0.2-0.4,0.4-0.4,0.7c0,0.4,0.3,0.7,0.6,0.8v0.1C472.2-4,472-3.7,472-3.5
				c0,0.3,0.2,0.5,0.4,0.6c0,4.5,0,8.6,0.1,13.3c-0.2,0.1-0.4,0.3-0.4,0.6c0,0.4,0.3,0.7,0.7,0.7c0.4,0,0.7-0.3,0.7-0.7
				c0-0.3-0.2-0.5-0.4-0.6c0-4.7-0.1-8.8-0.1-13.3c0.2-0.1,0.4-0.3,0.4-0.6S473.2-4,473-4.1v-0.1c0.4-0.1,0.6-0.4,0.6-0.8
				c0-0.3-0.2-0.5-0.4-0.7c1.1-0.2,1.9-1.2,1.9-2.3C475-9.2,474.3-10.1,473.2-10.4z M472.7-6c-1.1,0-2-0.9-2-2s0.9-2,2-2s2,0.9,2,2
				S473.8-6,472.7-6z"/>
			<path class="st1" d="M472.8,11.7c-0.5,0-0.9,0.4-0.9,0.9c0,0.3,0.1,0.5,0.3,0.7c-1,0.3-1.8,1.2-1.8,2.3s0.8,2.1,1.9,2.3
				c-0.2,0.2-0.4,0.4-0.4,0.7c0,0.5,0.4,0.9,0.9,0.9s0.9-0.4,0.9-0.9c0-0.3-0.2-0.5-0.4-0.7c1.1-0.2,1.9-1.2,1.9-2.3s-0.8-2-1.8-2.3
				c0.2-0.2,0.3-0.4,0.3-0.7C473.7,12,473.3,11.6,472.8,11.7z M472.8,13.5c1.1,0,2,0.9,2,2s-0.9,2-2,2s-2-0.9-2-2
				S471.7,13.5,472.8,13.5z"/>
			<path class="st1" d="M473.5,20.1c0,0.3-0.2,0.5-0.4,0.6c0,2.5,0,6.1,0,8.3c0,0.1-0.1,0.3-0.3,0.3l0,0c-0.1,0-0.3-0.1-0.3-0.3
				c0-2.2,0-5.9,0-8.4c-0.2-0.1-0.4-0.3-0.4-0.6c0-0.4,0.3-0.7,0.7-0.7C473.2,19.4,473.5,19.7,473.5,20.1z"/>
		</g>
	</g>
	<path class="st1" d="M455.7,34.5c0.8,3.8,3.2,7.3,6.6,9.3c3.4,2.1,7.5,2.7,11.4,2.6c3.9-0.1,8-0.8,11.4-3.2c1.7-1.2,3.1-2.8,4-4.7
		c0.9-1.8,1.3-3.8,1.3-5.9c0.6-0.5,1.1-1.1,1.5-1.9c0.6-1,0.9-2.1,0.8-3.2c0-2.3-1.1-4.2-2.1-5.8c-1-1.5-1.7-3.2-2.1-5
		c-0.4-1.7-0.6-3.6-0.3-5.3l0.3-1.8l-1.5,0.9l0,0c-1.5,1.1-2.7,2.3-3.6,3.8c-1,1.5-1.6,3.2-1.7,4.9c-0.1,1.8,0.2,3.5,0.9,5.1
		c0.7,1.6,1.8,2.9,3.1,4c0.1,0.1,0.2,0.1,0.2,0c0.1-0.1,0.1-0.2,0-0.2l0,0c-1.2-1.1-2.1-2.5-2.7-4s-0.7-3.1-0.5-4.7
		c0.2-1.6,0.9-3,1.8-4.3c0.6-0.8,1.3-1.5,2-2.1c0,0.4,0,0.8,0,1.2c0,1,0.2,2,0.4,3c0.4,2,1.2,3.8,2.2,5.5c0.5,0.8,0.9,1.6,1.3,2.4
		c0.3,0.8,0.5,1.6,0.5,2.4c0,1.3-0.6,2.5-1.5,3.4c-0.1-0.1-0.3-0.2-0.4-0.3c-0.5-0.3-1-0.5-1.5-0.7c-1-0.3-1.9-0.6-2.9-0.8
		c-1.9-0.4-3.9-0.6-5.8-0.7c-3.9-0.2-7.7-0.2-11.6,0.2c-1.9,0.2-3.9,0.4-5.8,0.8c-1,0.2-1.9,0.5-2.9,0.8c-0.5,0.2-1,0.4-1.5,0.8
		c-0.3,0.2-0.5,0.4-0.8,0.7c-0.2,0.3-0.5,0.8-0.5,1.3s0.1,0.8,0.3,1.1C455.7,34.4,455.7,34.5,455.7,34.5z M487.4,32.3
		c-1.1,0.7-2.4,1.2-3.7,1.6c-1.8,0.5-3.6,0.9-5.4,1.2c-3.7,0.5-7.5,0.6-11.2,0.4c-1.9-0.1-3.7-0.3-5.5-0.7c-0.9-0.2-1.8-0.4-2.5-0.7
		c-0.4-0.2-0.7-0.3-1-0.5c-0.1-0.1-0.2-0.2-0.2-0.2c0.1-0.1,0.1-0.1,0.3-0.2c0.3-0.2,0.6-0.4,1-0.5c0.8-0.3,1.7-0.5,2.6-0.7
		c1.8-0.4,3.6-0.6,5.5-0.8c3.7-0.3,7.5-0.4,11.3-0.2c1.9,0.1,3.7,0.3,5.5,0.6c0.9,0.2,1.8,0.4,2.6,0.6
		C486.9,32.1,487.2,32.2,487.4,32.3z M456,34.8c0.2,0.2,0.4,0.4,0.6,0.6c0.5,0.4,1,0.7,1.5,0.9c1,0.4,2,0.6,3,0.8
		c2,0.4,3.9,0.6,5.8,0.7c3.9,0.2,7.8,0,11.6-0.6c1.9-0.3,3.8-0.7,5.7-1.3c1.4-0.4,2.7-1,4-1.8c0,0.4-0.1,0.8-0.1,1.1
		c-0.2,0.9-0.4,1.7-0.8,2.6c-0.7,1.6-1.8,3.1-3.3,4.2c-2.9,2.2-6.7,3.1-10.5,3.4c-3.8,0.2-7.7-0.2-11-2.1
		C459.4,41.5,457,38.4,456,34.8z"/>
</g>
</svg>
