<?xml version="1.0" encoding="utf-8"?>
<!-- Generator: Adobe Illustrator 25.0.0, SVG Export Plug-In . SVG Version: 6.00 Build 0)  -->
<svg version="1.1" id="Layer_1" xmlns="http://www.w3.org/2000/svg" xmlns:xlink="http://www.w3.org/1999/xlink" x="0px" y="0px"
	 viewBox="0 0 516.3 91.7" style="enable-background:new 0 0 516.3 91.7;" xml:space="preserve">
<style type="text/css">
	.st0{opacity:0.14;}
	.st1{fill:#310E33;}
	.st2{fill:#231F20;}
	.st3{fill:#DB1F26;}
	.st4{fill-rule:evenodd;clip-rule:evenodd;fill:#DB1F26;}
	.st5{fill-rule:evenodd;clip-rule:evenodd;fill:#FFFFFF;}
	.st6{fill-rule:evenodd;clip-rule:evenodd;fill:#FFCA05;}
	.st7{fill-rule:evenodd;clip-rule:evenodd;fill:#231F20;}
</style>
<g class="st0">
	<path class="st1" d="M446.9,58.5c1,2.2,3.7,3.1,5.9,2.1c2.2-1,3.1-3.7,2.1-5.9c-1-2.2-3.7-3.1-5.9-2.1
		C446.8,53.7,445.8,56.3,446.9,58.5z M449.1,53c2-0.9,4.4-0.1,5.3,1.9c0.9,2,0.1,4.4-1.9,5.3c-2,0.9-4.4,0.1-5.3-1.9
		C446.3,56.4,447.1,54,449.1,53z"/>
	<path class="st1" d="M445.5,48.1c-0.2,0.3-0.4,0.7-0.5,1c-0.1,0.6,0.1,1.2,0.4,1.8c-0.2-0.2-0.4-0.3-0.7-0.4
		c-0.4-0.1-0.7-0.2-1.1-0.1c-0.2,0-0.4,0.1-0.5,0.1c-0.1,0-0.2,0.1-0.2,0.1c-0.1,0.1-0.2,0.1-0.3,0.2c-0.4,0.3-0.7,0.6-0.8,0.9
		c-0.1,0.2-0.2,0.4-0.2,0.6c0,0.2-0.1,0.4-0.1,0.6c0,0.2,0,0.4,0,0.6c0,0.2,0.1,0.4,0.2,0.5c0.3,0.5,0.7,1,1.4,1.2
		c-0.4,0-0.8,0-1.1,0.2c-0.2,0.1-0.4,0.2-0.6,0.4c-0.6,0.5-0.9,1.4-0.8,2.2c0.1,0.4,0.2,0.8,0.4,1.2c0.2,0.3,0.5,0.6,0.9,0.8
		c0.6,0.3,1.2,0.3,1.8,0.1c-0.5,0.4-0.9,0.9-1,1.5c-0.1,0.4,0,0.7,0.1,1.1c0.1,0.4,0.4,0.8,0.6,1.1c0.6,0.6,1.4,0.9,2.2,0.8
		c0.6-0.1,1.1-0.4,1.5-0.9c-0.2,0.6-0.2,1.3,0,1.8c0.1,0.2,0.2,0.3,0.3,0.5c0.1,0.1,0.2,0.3,0.4,0.4c0.2,0.1,0.3,0.2,0.5,0.3
		c0.2,0.1,0.4,0.1,0.6,0.2c0.5,0.1,0.9,0,1.2,0c0.2,0,0.3-0.1,0.6-0.2c0.2-0.1,0.3-0.2,0.4-0.3c0.3-0.2,0.5-0.6,0.6-0.9
		c0.1-0.2,0.1-0.5,0.1-0.8c0.2,0.6,0.5,1.2,1.1,1.5c0.3,0.2,0.7,0.3,1.1,0.3c0.4,0,0.8-0.1,1.2-0.3c0.4-0.2,0.7-0.5,1-0.8
		c0.2-0.3,0.4-0.7,0.5-1c0.1-0.6-0.1-1.2-0.4-1.8c0.2,0.2,0.4,0.3,0.6,0.4c0.4,0.1,0.7,0.2,1.1,0.1c0.2,0,0.4-0.1,0.5-0.1
		c0.2-0.1,0.4-0.2,0.5-0.3c0.3-0.2,0.6-0.5,0.8-0.9c0.1-0.2,0.2-0.4,0.2-0.6c0-0.2,0.1-0.4,0.1-0.6c0-0.2,0-0.4,0-0.6
		c0-0.2-0.1-0.4-0.2-0.5c-0.3-0.5-0.7-1-1.4-1.2c0.6,0,1.2-0.2,1.7-0.6c0.6-0.5,0.9-1.4,0.8-2.2c-0.1-0.4-0.2-0.8-0.4-1.2
		c-0.2-0.3-0.5-0.6-0.9-0.8c-0.6-0.3-1.2-0.3-1.8-0.1c0.5-0.4,0.9-0.9,1-1.5c0.1-0.4,0-0.7-0.1-1.1c-0.1-0.4-0.4-0.8-0.6-1.1
		c-0.6-0.6-1.4-0.9-2.2-0.8c-0.2,0-0.4,0.1-0.6,0.2c-0.3,0.2-0.6,0.4-0.9,0.7c0.2-0.6,0.2-1.3,0-1.8c-0.1-0.2-0.2-0.3-0.3-0.5
		c-0.1-0.1-0.2-0.3-0.4-0.4c-0.2-0.1-0.3-0.2-0.5-0.3c-0.2-0.1-0.4-0.1-0.6-0.2c-0.4-0.1-0.8-0.1-1.2,0c-0.1,0-0.2,0.1-0.3,0.1
		c-0.1,0-0.1,0.1-0.2,0.1c-0.2,0.1-0.3,0.2-0.4,0.3c-0.3,0.2-0.5,0.6-0.6,0.9c-0.1,0.2-0.1,0.5-0.1,0.7c-0.2-0.6-0.5-1.1-1.1-1.4
		c-0.3-0.2-0.7-0.3-1.1-0.3c-0.4,0-0.8,0.1-1.2,0.3C446,47.6,445.7,47.8,445.5,48.1z M457.3,53.6c1.7,3.6,0.2,7.9-3.4,9.6
		c-3.6,1.7-7.9,0.2-9.6-3.4c-1.7-3.6-0.2-7.9,3.4-9.6C451.3,48.5,455.6,50,457.3,53.6z M441.9,53.4c0-0.1,0-0.3,0-0.5
		c0-0.2,0-0.4,0.1-0.5c0.1-0.2,0.1-0.3,0.2-0.5c0.1-0.3,0.4-0.5,0.7-0.8c0.1-0.1,0.2-0.1,0.4-0.2c0.1-0.1,0.3-0.1,0.5-0.1
		c0.3,0,0.6,0,0.9,0.1c0.3,0.1,0.5,0.3,0.7,0.5c-0.9,1-1.6,2.1-1.9,3.4c-0.6-0.1-1.1-0.5-1.4-1C442,53.7,442,53.6,441.9,53.4z
		 M442.1,59.5c-0.3-0.1-0.5-0.4-0.7-0.6c-0.2-0.3-0.3-0.7-0.4-1c-0.1-0.7,0.2-1.4,0.6-1.8c0.4-0.4,1-0.6,1.7-0.4
		c-0.2,1.3,0,2.6,0.5,3.9C443.2,59.8,442.6,59.8,442.1,59.5z M445.4,64.1c-0.6,0.1-1.3-0.2-1.8-0.7c-0.2-0.2-0.4-0.5-0.5-0.9
		c-0.1-0.3-0.1-0.7,0-0.9c0.1-0.6,0.5-1.1,1.1-1.3c0.6,1.2,1.6,2.2,2.7,2.8C446.5,63.7,446,64,445.4,64.1z M451.3,65.1
		c-0.1,0.3-0.3,0.6-0.5,0.7c-0.1,0.1-0.2,0.2-0.4,0.3c-0.2,0.1-0.3,0.2-0.4,0.2c-0.4,0.1-0.7,0.1-1,0c-0.2,0-0.4-0.1-0.5-0.2
		c-0.1-0.1-0.3-0.2-0.4-0.3c-0.2-0.1-0.3-0.2-0.3-0.3c-0.1-0.1-0.2-0.3-0.2-0.4c-0.2-0.5-0.2-1.1,0.1-1.7c1.2,0.6,2.5,0.8,3.8,0.7
		C451.4,64.5,451.4,64.8,451.3,65.1z M456.3,64.1c-0.1,0.3-0.2,0.6-0.4,0.9c-0.2,0.2-0.5,0.5-0.8,0.6c-0.4,0.2-0.7,0.2-1,0.2
		c-0.3,0-0.7-0.1-0.9-0.2c-0.5-0.3-0.8-0.8-0.9-1.5c0.6-0.1,1.3-0.3,1.9-0.6c0.6-0.3,1.2-0.7,1.6-1.1
		C456.2,62.9,456.3,63.5,456.3,64.1z M459.7,59.9c0,0.1,0,0.3,0,0.5c0,0.2,0,0.4-0.1,0.5c-0.1,0.2-0.1,0.3-0.2,0.5
		c-0.1,0.3-0.4,0.5-0.7,0.8c-0.1,0.1-0.2,0.1-0.4,0.2c-0.2,0.1-0.3,0.1-0.5,0.1c-0.3,0-0.6,0-0.9-0.1c-0.3-0.1-0.5-0.3-0.7-0.5
		c0.9-1,1.6-2.1,1.9-3.4c0.6,0.1,1.1,0.5,1.4,1C459.6,59.6,459.7,59.8,459.7,59.9z M459.6,53.8c0.3,0.1,0.5,0.4,0.7,0.6
		c0.2,0.3,0.3,0.7,0.4,1c0.1,0.7-0.2,1.4-0.6,1.8c-0.4,0.4-1,0.6-1.7,0.4c0.2-1.3,0-2.6-0.5-3.9C458.4,53.5,459,53.5,459.6,53.8z
		 M456.2,49.2c0.6-0.1,1.3,0.2,1.8,0.7c0.2,0.2,0.4,0.5,0.5,0.9c0.1,0.3,0.1,0.7,0,0.9c-0.1,0.6-0.5,1.1-1.1,1.3
		c-0.6-1.2-1.6-2.2-2.7-2.8C455.2,49.7,455.6,49.3,456.2,49.2z M450.4,48.2c0.1-0.3,0.3-0.6,0.5-0.7c0.1-0.1,0.2-0.2,0.4-0.3
		c0.2-0.1,0.3-0.2,0.4-0.2c0.4-0.1,0.7-0.1,1,0c0.2,0,0.4,0.1,0.5,0.2c0.1,0.1,0.3,0.2,0.4,0.3c0.2,0.1,0.3,0.2,0.3,0.3
		c0.1,0.1,0.2,0.3,0.2,0.4c0.2,0.5,0.2,1.1-0.1,1.7c-1.2-0.6-2.5-0.8-3.8-0.7C450.2,48.8,450.3,48.5,450.4,48.2z M448.5,47.8
		c0.5,0.3,0.8,0.8,0.9,1.5c-0.6,0.1-1.3,0.3-1.9,0.6c-0.6,0.3-1.2,0.7-1.6,1.1c-0.4-0.5-0.6-1.1-0.5-1.6c0.1-0.3,0.2-0.6,0.4-0.9
		c0.2-0.2,0.5-0.5,0.8-0.6c0.4-0.2,0.7-0.2,1-0.2C448,47.5,448.3,47.6,448.5,47.8z"/>
	<path class="st1" d="M446.2,58.9C446.2,58.9,446.2,58.9,446.2,58.9C446.2,58.9,446.2,58.9,446.2,58.9c-0.1-0.2-0.3-0.3-0.5-0.2
		c-0.2,0.1-0.3,0.3-0.2,0.5c0,0,0,0,0,0c0,0,0,0,0,0c0.1,0.2,0.3,0.3,0.5,0.2C446.2,59.3,446.3,59.1,446.2,58.9z"/>
	<path class="st1" d="M446.8,59.9L446.8,59.9c-0.1-0.1-0.3-0.2-0.5-0.1c0,0-0.1,0-0.1,0c-0.2,0.1-0.2,0.4-0.1,0.5
		c0.1,0.2,0.4,0.2,0.5,0.1C446.9,60.3,446.9,60.1,446.8,59.9z"/>
	<path class="st1" d="M448.4,61.4c-0.1,0-0.1,0.1-0.2,0.2c-0.1,0.2,0,0.4,0.2,0.5c0.2,0.1,0.4,0,0.5-0.2c0.1-0.2,0-0.4-0.2-0.5
		C448.6,61.3,448.5,61.3,448.4,61.4z"/>
	<path class="st1" d="M445.5,58.2c0.2,0,0.3-0.3,0.3-0.5c0-0.2-0.3-0.3-0.5-0.3c0,0-0.1,0-0.1,0c-0.2,0.1-0.3,0.3-0.2,0.4
		C445.1,58.1,445.3,58.2,445.5,58.2z"/>
	<path class="st1" d="M447.7,60.8c-0.1-0.1-0.3-0.1-0.4,0c-0.1,0-0.1,0.1-0.1,0.1c-0.1,0.2-0.1,0.4,0.1,0.5c0.2,0.1,0.4,0.1,0.5-0.1
		C447.9,61.1,447.8,60.9,447.7,60.8z"/>
	<path class="st1" d="M445.3,56.9c0.2,0,0.4-0.2,0.4-0.4c0-0.2-0.2-0.4-0.4-0.4c-0.1,0-0.1,0-0.2,0c-0.1,0.1-0.2,0.2-0.2,0.3
		C444.9,56.7,445,56.9,445.3,56.9z"/>
	<path class="st1" d="M449.6,61.8c-0.1,0.1-0.2,0.1-0.2,0.3c0,0.2,0.1,0.4,0.3,0.5c0.2,0,0.4-0.1,0.5-0.3c0-0.2-0.1-0.4-0.3-0.5
		C449.8,61.7,449.7,61.7,449.6,61.8z"/>
	<path class="st1" d="M446.9,53.2L446.9,53.2c0.1-0.2,0.1-0.4,0-0.6c-0.1-0.1-0.3-0.1-0.4-0.1c0,0-0.1,0.1-0.1,0.1
		c-0.1,0.2-0.1,0.4,0,0.5C446.6,53.4,446.8,53.4,446.9,53.2z"/>
	<path class="st1" d="M447.8,52.4c0.2-0.1,0.2-0.4,0.1-0.5c-0.1-0.2-0.3-0.2-0.5-0.1c0,0,0,0-0.1,0c-0.2,0.1-0.2,0.4-0.1,0.5
		C447.4,52.5,447.7,52.6,447.8,52.4z"/>
	<path class="st1" d="M445.8,55.3c0.1-0.2-0.1-0.4-0.3-0.5c-0.1,0-0.2,0-0.3,0c-0.1,0-0.2,0.1-0.2,0.3c-0.1,0.2,0.1,0.4,0.3,0.5
		C445.6,55.7,445.8,55.6,445.8,55.3z"/>
	<path class="st1" d="M446.3,54.2c0.1-0.2,0-0.4-0.2-0.5c-0.1-0.1-0.2-0.1-0.4,0c-0.1,0-0.1,0.1-0.2,0.2c-0.1,0.2,0,0.4,0.2,0.5
		C445.9,54.5,446.2,54.4,446.3,54.2z"/>
	<path class="st1" d="M454.5,53c0.2,0.2,0.4,0.2,0.5,0c0.2-0.2,0.1-0.4,0-0.5c-0.1-0.1-0.3-0.1-0.4-0.1c0,0-0.1,0-0.1,0.1
		C454.3,52.6,454.3,52.8,454.5,53z"/>
	<path class="st1" d="M454.1,52.1c0.1-0.2,0.1-0.4-0.1-0.5c-0.1-0.1-0.3-0.1-0.4,0c-0.1,0-0.1,0.1-0.2,0.2c-0.1,0.2-0.1,0.4,0.1,0.5
		C453.7,52.3,453.9,52.3,454.1,52.1z"/>
	<path class="st1" d="M452.9,51.5c0.1-0.2,0-0.4-0.3-0.5c-0.1,0-0.2,0-0.3,0c-0.1,0-0.2,0.1-0.2,0.2c-0.1,0.2,0,0.4,0.2,0.5
		C452.6,51.8,452.9,51.7,452.9,51.5z"/>
	<path class="st1" d="M455.4,53.4c-0.2,0.1-0.2,0.4-0.1,0.5c0.1,0.2,0.4,0.2,0.5,0.1c0.2-0.1,0.2-0.4,0.1-0.5
		C455.8,53.3,455.6,53.3,455.4,53.4C455.4,53.4,455.4,53.4,455.4,53.4z"/>
	<path class="st1" d="M450.1,51.5c0.2,0,0.4-0.2,0.3-0.4c0-0.2-0.2-0.4-0.4-0.3c0,0-0.1,0-0.1,0c-0.2,0.1-0.2,0.2-0.2,0.4
		C449.6,51.4,449.8,51.6,450.1,51.5z"/>
	<path class="st1" d="M448.9,51.9c0.2-0.1,0.3-0.3,0.2-0.5c-0.1-0.2-0.3-0.3-0.5-0.2c0,0,0,0,0,0c-0.2,0.1-0.3,0.3-0.2,0.5
		C448.5,51.8,448.7,51.9,448.9,51.9z"/>
	<path class="st1" d="M456,54.5C456,54.5,456,54.5,456,54.5c-0.2,0.1-0.3,0.3-0.2,0.5c0.1,0.2,0.3,0.3,0.5,0.2s0.3-0.3,0.2-0.5
		C456.4,54.5,456.2,54.4,456,54.5z"/>
	<path class="st1" d="M451.3,51.5c0.2,0,0.4-0.1,0.4-0.4c0-0.2-0.1-0.4-0.4-0.4c-0.1,0-0.1,0-0.2,0c-0.1,0.1-0.2,0.2-0.2,0.3
		C450.9,51.3,451,51.5,451.3,51.5z"/>
	<path class="st1" d="M454.4,60.4C454.4,60.5,454.3,60.5,454.4,60.4c-0.3,0.2-0.3,0.5-0.1,0.6c0.1,0.2,0.4,0.2,0.5,0
		c0.2-0.1,0.2-0.4,0-0.5C454.7,60.4,454.6,60.4,454.4,60.4z"/>
	<path class="st1" d="M453.4,61.2C453.3,61.2,453.3,61.2,453.4,61.2c-0.2,0.1-0.3,0.4-0.2,0.5c0.1,0.2,0.3,0.3,0.5,0.2
		c0.2-0.1,0.3-0.3,0.2-0.5C453.8,61.2,453.5,61.1,453.4,61.2z"/>
	<path class="st1" d="M451,61.8c-0.1,0-0.1,0-0.1,0c-0.1,0.1-0.2,0.2-0.2,0.4c0,0.2,0.2,0.4,0.4,0.4c0.2,0,0.4-0.2,0.4-0.4
		C451.4,62,451.2,61.8,451,61.8z"/>
	<path class="st1" d="M452.2,61.7C452.2,61.7,452.2,61.7,452.2,61.7c-0.2,0.1-0.3,0.3-0.3,0.5c0.1,0.2,0.3,0.3,0.5,0.3c0,0,0,0,0,0
		c0.2-0.1,0.3-0.3,0.3-0.5C452.6,61.7,452.4,61.6,452.2,61.7z"/>
	<path class="st1" d="M456.4,57c-0.1,0-0.2,0-0.2,0c-0.1,0.1-0.2,0.2-0.2,0.3c0,0.2,0.1,0.4,0.3,0.4c0.2,0,0.4-0.1,0.4-0.3
		C456.8,57.3,456.6,57.1,456.4,57z"/>
	<path class="st1" d="M455.9,58.3c-0.1,0-0.2,0.1-0.2,0.2c-0.1,0.2,0,0.4,0.2,0.5c0.2,0.1,0.4,0,0.5-0.2c0.1-0.2,0-0.4-0.2-0.5
		C456.1,58.3,456,58.3,455.9,58.3z"/>
	<path class="st1" d="M456.3,55.7c0,0-0.1,0-0.1,0c-0.1,0.1-0.2,0.2-0.2,0.4c0,0.2,0.2,0.4,0.4,0.4c0.2,0,0.4-0.2,0.3-0.4
		C456.7,55.9,456.6,55.7,456.3,55.7z"/>
	<path class="st1" d="M455.3,59.5c-0.1,0-0.1,0.1-0.2,0.1c-0.1,0.2-0.1,0.4,0.1,0.5c0.2,0.1,0.4,0.1,0.5-0.1
		c0.1-0.2,0.1-0.4-0.1-0.5C455.5,59.4,455.4,59.4,455.3,59.5z"/>
	<path class="st1" d="M451.6,58.3c0.9-0.4,1.3-1.5,0.9-2.4s-1.5-1.3-2.4-0.9c-0.9,0.4-1.3,1.5-0.9,2.4
		C449.6,58.3,450.7,58.7,451.6,58.3z M450.2,55.3c0.7-0.3,1.6,0,2,0.7c0.3,0.7,0,1.6-0.7,2c-0.7,0.3-1.6,0-2-0.7
		C449.2,56.6,449.5,55.7,450.2,55.3z"/>
	<path class="st1" d="M465.2,51.1c-0.3-0.2-0.7-0.3-1.1-0.5c-0.1,0-0.2-0.1-0.3-0.1c0-0.1,0.1-0.2,0.1-0.3c0.1-0.4,0.2-0.8,0.3-1.2
		c0.2-0.8,0.4-1.5,0.7-2.2l0.1-0.3l-0.3,0c-0.9,0.1-1.6,0-2.3-0.1c-0.4,0-0.8-0.1-1.2-0.1c-0.1,0-0.2,0-0.3,0c0-0.1,0-0.2,0-0.3
		c0-0.4-0.1-0.8-0.1-1.3c-0.1-0.8-0.2-1.6-0.1-2.3l0-0.3l-0.3,0.1c-0.8,0.4-1.5,0.5-2.2,0.7c-0.4,0.1-0.8,0.2-1.1,0.3
		c-0.1,0-0.2,0.1-0.3,0.1c0,0,0,0,0,0c0-0.1-0.1-0.2-0.1-0.3c-0.2-0.4-0.3-0.8-0.5-1.1c-0.3-0.7-0.7-1.4-0.9-2.1l-0.1-0.3L455,40
		c-0.6,0.6-1.2,1-1.8,1.4c-0.3,0.2-0.6,0.4-1,0.7c-0.1,0.1-0.2,0.1-0.2,0.2c-0.1-0.1-0.1-0.2-0.2-0.2c-0.3-0.3-0.6-0.6-0.9-0.9
		c-0.6-0.5-1.1-1.1-1.5-1.7l-0.2-0.3l-0.2,0.3c-0.4,0.8-0.8,1.4-1.2,2c-0.2,0.3-0.4,0.6-0.7,1c-0.1,0.1-0.1,0.2-0.1,0.3
		c-0.1-0.1-0.2-0.1-0.3-0.2c-0.4-0.2-0.8-0.4-1.1-0.5c-0.7-0.3-1.5-0.7-2-1l-0.3-0.2l0,0.3c-0.1,0.9-0.3,1.6-0.5,2.3
		c-0.1,0.4-0.2,0.7-0.3,1.1c0,0.1,0,0.2,0,0.3c-0.1,0-0.2-0.1-0.3-0.1c-0.4,0-0.8-0.1-1.3-0.1c-0.8-0.1-1.6-0.1-2.2-0.3l-0.3-0.1
		l0.1,0.3c0.2,0.9,0.3,1.6,0.3,2.3c0,0.4,0.1,0.8,0.1,1.2c0,0.1,0,0.2,0.1,0.3c-0.1,0-0.2,0-0.3,0c-0.4,0.1-0.8,0.2-1.2,0.3
		c-0.8,0.2-1.5,0.4-2.2,0.5l-0.3,0l0.2,0.3c0.5,0.7,0.8,1.4,1.1,2.1c0.2,0.3,0.3,0.7,0.5,1.1c0,0.1,0.1,0.2,0.2,0.3c0,0,0,0,0,0
		c-0.1,0-0.2,0.1-0.2,0.1c-0.3,0.2-0.7,0.5-1,0.7c-0.6,0.5-1.3,0.9-1.9,1.2l-0.3,0.1l0.3,0.2c0.7,0.5,1.2,1,1.7,1.6
		c0.3,0.3,0.5,0.6,0.8,0.8c0.1,0.1,0.2,0.1,0.2,0.2c-0.1,0.1-0.1,0.1-0.2,0.2c-0.2,0.3-0.5,0.7-0.7,1c-0.4,0.6-0.9,1.3-1.4,1.8
		l-0.2,0.2l0.3,0.1c0.8,0.2,1.5,0.6,2.2,0.9c0.3,0.2,0.7,0.3,1.1,0.5c0.1,0,0.2,0.1,0.3,0.1c0,0.1-0.1,0.2-0.1,0.3
		c-0.1,0.4-0.2,0.8-0.3,1.2c-0.2,0.8-0.4,1.5-0.7,2.2l-0.1,0.3l0.3,0c0.9-0.1,1.6,0,2.3,0.1c0.4,0,0.8,0.1,1.2,0.1
		c0.1,0,0.2,0,0.3,0c0,0.1,0,0.2,0,0.3c0,0.4,0.1,0.8,0.1,1.3c0.1,0.8,0.2,1.6,0.1,2.3l0,0.3l0.3-0.1c0.8-0.4,1.5-0.5,2.2-0.7
		c0.4-0.1,0.8-0.2,1.1-0.3c0.1,0,0.2-0.1,0.3-0.1c0,0.1,0.1,0.2,0.1,0.3c0.2,0.4,0.3,0.8,0.5,1.1c0.3,0.7,0.7,1.4,0.9,2.1l0.1,0.3
		l0.2-0.2c0.6-0.6,1.2-1,1.8-1.4c0.3-0.2,0.6-0.4,1-0.7c0.1-0.1,0.2-0.1,0.2-0.2c0.1,0.1,0.1,0.2,0.2,0.2c0.3,0.3,0.6,0.6,0.9,0.9
		c0.6,0.5,1.1,1.1,1.5,1.7l0.2,0.3l0.2-0.3c0.4-0.8,0.8-1.4,1.2-2c0.2-0.3,0.4-0.6,0.7-1c0.1-0.1,0.1-0.2,0.1-0.3
		c0.1,0.1,0.2,0.1,0.3,0.2c0.4,0.2,0.8,0.4,1.1,0.5c0.7,0.3,1.4,0.7,2,1l0.3,0.2l0-0.3c0.1-0.9,0.3-1.6,0.5-2.3
		c0.1-0.4,0.2-0.7,0.3-1.1c0-0.1,0-0.2,0-0.3c0.1,0,0.2,0.1,0.3,0.1c0.4,0.1,0.8,0.1,1.3,0.1c0.8,0.1,1.6,0.1,2.2,0.3l0.3,0.1
		l-0.1-0.3c-0.2-0.9-0.3-1.6-0.3-2.3c0-0.4-0.1-0.8-0.1-1.2c0-0.1,0-0.2-0.1-0.3c0.1,0,0.2,0,0.3,0c0.4-0.1,0.8-0.2,1.2-0.3
		c0.8-0.2,1.5-0.4,2.2-0.5l0.3,0l-0.2-0.3c-0.5-0.7-0.8-1.4-1.1-2.1c-0.2-0.3-0.3-0.7-0.5-1.1c0-0.1-0.1-0.2-0.2-0.3
		c0.1,0,0.2-0.1,0.3-0.1c0.3-0.2,0.7-0.5,1-0.7c0.6-0.4,1.3-0.9,1.9-1.2c0,0,0,0,0,0l0.3-0.1l-0.3-0.2c-0.7-0.5-1.2-1-1.7-1.6
		c-0.3-0.3-0.5-0.6-0.8-0.8c-0.1-0.1-0.2-0.1-0.2-0.2c0.1-0.1,0.1-0.1,0.2-0.2c0.2-0.3,0.5-0.7,0.7-1c0.4-0.6,0.9-1.3,1.4-1.8
		l0.2-0.2l-0.3-0.1C466.6,51.7,465.9,51.4,465.2,51.1z M462.4,46.9c0.6,0.1,1.3,0.1,2.1,0.1c-0.2,0.6-0.4,1.3-0.6,1.9
		c-0.1,0.4-0.2,0.8-0.3,1.2c0,0.1-0.1,0.2-0.2,0.4c-0.3,0-0.5,0.1-0.8,0.2c-0.3,0.1-0.6,0.3-0.8,0.6c0,0-0.1,0-0.1,0l-0.4-0.6
		c-0.4-0.7-0.8-1.3-1.3-1.8l-0.4-0.6c0,0,0-0.1,0-0.1c0.7-0.3,1.1-0.8,1.3-1.3c0.1,0,0.3,0,0.4,0C461.7,46.8,462,46.9,462.4,46.9z
		 M462.8,51c0,0-0.1,0-0.1,0C462.7,51,462.7,51,462.8,51z M461.3,51.7c2.7,5.7,0.3,12.6-5.5,15.3c-5.7,2.7-12.6,0.3-15.3-5.5
		c-2.7-5.7-0.3-12.6,5.5-15.3C451.7,43.5,458.5,46,461.3,51.7z M460.1,47.3C460.1,47.3,460.1,47.3,460.1,47.3
		C460.1,47.3,460.1,47.3,460.1,47.3z M457.3,43.8c0.4-0.1,0.7-0.2,1.1-0.3c0.6-0.2,1.3-0.3,2-0.6c0,0.6,0,1.3,0.1,2
		c0,0.4,0.1,0.8,0.1,1.2c0,0.1,0,0.3,0,0.4c0,0-0.1,0-0.1,0.1c-0.5,0.2-0.8,0.6-1.1,1.2c0,0-0.1,0-0.1,0l-0.6-0.4
		c-0.6-0.5-1.2-0.9-1.8-1.2l-0.6-0.4c0,0,0-0.1,0-0.1c0.5-0.5,0.8-1.1,0.8-1.6C457,43.9,457.1,43.9,457.3,43.8z M456.3,44.8
		c0,0,0-0.1,0.1-0.1C456.3,44.7,456.3,44.7,456.3,44.8z M452.5,42.4c0.3-0.2,0.6-0.5,0.9-0.7c0.5-0.4,1.1-0.7,1.6-1.3
		c0.2,0.6,0.5,1.2,0.8,1.8c0.2,0.4,0.4,0.8,0.5,1.1c0.1,0.1,0.1,0.3,0.1,0.4c-0.4,0.4-0.7,0.9-0.7,1.7c0,0,0,0-0.1,0.1l-0.7-0.2
		c-0.7-0.2-1.4-0.4-2.1-0.6l-0.7-0.2c0,0,0-0.1,0-0.1c0.3-0.7,0.4-1.3,0.2-1.8C452.3,42.6,452.4,42.5,452.5,42.4z M451.9,43.6
		C451.9,43.6,451.9,43.5,451.9,43.6C451.9,43.5,451.9,43.6,451.9,43.6z M447.5,42.7c0.2-0.3,0.4-0.6,0.7-1c0.4-0.5,0.8-1.1,1.1-1.7
		c0.4,0.5,0.9,1,1.4,1.5c0.3,0.3,0.6,0.6,0.9,0.9c0.1,0.1,0.2,0.2,0.2,0.3c-0.3,0.5-0.3,1.1-0.1,1.8c0,0,0,0.1,0,0.1l-0.7,0.1
		c-0.8,0-1.5,0.1-2.3,0.2l-0.7,0.1c0,0,0-0.1-0.1-0.1c0.1-0.7-0.1-1.3-0.5-1.8C447.4,42.9,447.4,42.8,447.5,42.7z M447.4,44
		c0,0,0-0.1,0-0.1C447.4,44,447.4,44,447.4,44z M443.2,43.6c0.2-0.6,0.3-1.3,0.5-2c0.5,0.3,1.2,0.6,1.8,0.9c0.4,0.2,0.8,0.3,1.1,0.5
		c0.1,0.1,0.2,0.1,0.3,0.2c-0.1,0.5,0.1,1.1,0.5,1.7c0,0,0,0.1,0,0.1l-0.6,0.3c-0.4,0.1-0.7,0.3-1.1,0.4c-0.3,0.2-0.7,0.3-1,0.5
		l-0.6,0.3c0,0-0.1,0-0.1-0.1c-0.2-0.7-0.6-1.2-1-1.5c0-0.1,0-0.3,0-0.4C443,44.3,443.1,43.9,443.2,43.6z M443.3,46
		C443.2,45.9,443.2,45.9,443.3,46C443.2,45.9,443.2,45.9,443.3,46z M439.3,48.1c-0.1-0.4-0.1-0.8-0.1-1.2c-0.1-0.6-0.1-1.3-0.3-2.1
		c0.6,0.1,1.3,0.2,2,0.2c0.4,0,0.8,0.1,1.2,0.1c0.1,0,0.3,0.1,0.4,0.1c0.1,0.5,0.5,1,1.1,1.5c0,0,0,0.1,0,0.1l-0.5,0.5
		c-0.6,0.5-1.1,1-1.6,1.6l-0.5,0.5c0,0-0.1,0-0.1,0c-0.4-0.6-0.9-1-1.5-1C439.4,48.4,439.3,48.2,439.3,48.1z M440.1,49.2
		C440,49.2,440,49.2,440.1,49.2C440,49.2,440,49.2,440.1,49.2z M437.1,52.6c-0.2-0.3-0.3-0.7-0.5-1c-0.3-0.6-0.5-1.2-1-1.8
		c0.6-0.1,1.3-0.3,2-0.5c0.4-0.1,0.8-0.2,1.2-0.3c0.1,0,0.3,0,0.4,0c0.3,0.5,0.8,0.8,1.5,1c0,0,0,0.1,0.1,0.1l-0.3,0.7
		c-0.4,0.6-0.7,1.3-0.9,2l-0.3,0.7c0,0-0.1,0-0.1,0c-0.6-0.4-1.2-0.6-1.8-0.5C437.2,52.8,437.2,52.7,437.1,52.6z M438.2,53.3
		c0,0-0.1,0-0.1,0C438.1,53.3,438.1,53.3,438.2,53.3z M436.5,57.5c-0.3-0.3-0.6-0.5-0.8-0.8c-0.5-0.5-0.9-0.9-1.5-1.4
		c0.6-0.3,1.1-0.7,1.7-1.1c0.3-0.2,0.7-0.5,1-0.7c0.1-0.1,0.2-0.1,0.4-0.2c0.4,0.4,1,0.5,1.8,0.4c0,0,0.1,0,0.1,0.1l-0.1,0.8
		c-0.1,0.7-0.2,1.5-0.2,2.2l-0.1,0.7c0,0-0.1,0-0.1,0c-0.7-0.2-1.2-0.1-1.7,0.1c0,0-0.1,0-0.1,0.1C436.7,57.7,436.6,57.6,436.5,57.5
		z M437.8,57.9c0,0-0.1,0-0.1,0C437.7,57.9,437.8,57.9,437.8,57.9z M437.7,62.4c-0.4-0.1-0.7-0.3-1.1-0.5c-0.6-0.3-1.2-0.6-1.9-0.8
		c0.4-0.5,0.8-1,1.2-1.6c0.2-0.3,0.5-0.7,0.7-1c0.1-0.1,0.2-0.2,0.3-0.3c0.5,0.2,1.1,0.1,1.8-0.2c0,0,0.1,0,0.1,0l0.2,0.7
		c0.1,0.7,0.3,1.5,0.6,2.2l0.2,0.7c0,0,0,0-0.1,0.1c-0.4,0-0.7,0.1-1,0.3c-0.3,0.1-0.5,0.3-0.7,0.5
		C437.9,62.4,437.8,62.4,437.7,62.4z M439,62.3C439,62.3,438.9,62.3,439,62.3C438.9,62.3,439,62.3,439,62.3z M439.3,66.4
		c-0.6-0.1-1.3-0.1-2.1-0.1c0.2-0.6,0.4-1.3,0.6-1.9c0.1-0.4,0.2-0.8,0.3-1.2c0-0.1,0.1-0.2,0.2-0.4c0.6,0,1.1-0.3,1.6-0.8
		c0,0,0.1,0,0.1,0l0.4,0.6c0.4,0.7,0.8,1.3,1.3,1.8l0.4,0.6c0,0,0,0.1,0,0.1c-0.7,0.3-1.1,0.8-1.3,1.3c-0.1,0-0.3,0-0.4,0
		C440,66.5,439.6,66.5,439.3,66.4z M441.6,66C441.6,66,441.6,66,441.6,66C441.6,66,441.6,66,441.6,66z M444.4,69.5
		c-0.4,0.1-0.7,0.2-1.1,0.3c-0.6,0.2-1.3,0.3-2,0.6c0-0.6-0.1-1.3-0.1-2c0-0.4-0.1-0.8-0.1-1.2c0-0.1,0-0.3,0-0.4
		c0.5-0.2,1-0.6,1.3-1.3c0,0,0.1,0,0.1,0l0.6,0.4c0.6,0.5,1.2,0.9,1.8,1.3l0.6,0.4c0,0,0,0.1,0,0.1c-0.5,0.5-0.8,1.1-0.8,1.6
		C444.7,69.4,444.5,69.4,444.4,69.5z M445.4,68.6c0,0,0,0.1,0,0.1C445.3,68.6,445.3,68.6,445.4,68.6z M449.2,70.9
		c-0.3,0.2-0.6,0.5-0.9,0.7c-0.5,0.4-1.1,0.7-1.6,1.3c-0.2-0.6-0.5-1.2-0.8-1.8c-0.2-0.4-0.4-0.8-0.5-1.1c-0.1-0.1-0.1-0.3-0.1-0.4
		c0.4-0.4,0.7-0.9,0.7-1.7c0,0,0,0,0.1-0.1l0.7,0.2c0.7,0.2,1.4,0.4,2.1,0.6l0.7,0.2c0,0,0,0.1,0,0.1c-0.3,0.7-0.4,1.3-0.2,1.8
		C449.4,70.7,449.3,70.8,449.2,70.9z M449.8,69.7C449.8,69.7,449.8,69.8,449.8,69.7C449.8,69.8,449.8,69.7,449.8,69.7z M454.2,70.6
		c-0.2,0.3-0.4,0.6-0.7,1c-0.4,0.5-0.8,1.1-1.1,1.7c-0.4-0.5-0.9-1-1.4-1.5c-0.3-0.3-0.6-0.6-0.9-0.9c-0.1-0.1-0.2-0.2-0.2-0.3
		c0.3-0.5,0.3-1.1,0.1-1.8c0,0,0-0.1,0-0.1l0.7-0.1c0.8,0,1.5-0.1,2.3-0.2l0.7-0.1c0,0,0,0.1,0.1,0.1c-0.1,0.7,0.1,1.3,0.5,1.8
		C454.3,70.4,454.2,70.5,454.2,70.6z M454.3,69.3C454.3,69.3,454.3,69.4,454.3,69.3C454.3,69.4,454.3,69.3,454.3,69.3z M458.4,69.8
		c-0.2,0.6-0.3,1.3-0.5,2c-0.5-0.3-1.2-0.6-1.8-0.9c-0.4-0.2-0.8-0.3-1.1-0.5c-0.1-0.1-0.2-0.1-0.3-0.2c0.1-0.5-0.1-1.1-0.5-1.7
		c0,0,0-0.1,0-0.1l0.6-0.3c0.4-0.1,0.7-0.3,1.1-0.4c0.3-0.2,0.7-0.3,1-0.5l0.6-0.3c0,0,0.1,0,0.1,0.1c0.2,0.7,0.6,1.2,1,1.5
		c0,0.1,0,0.3,0,0.4C458.6,69,458.5,69.4,458.4,69.8z M458.4,67.3C458.4,67.4,458.4,67.4,458.4,67.3
		C458.4,67.4,458.4,67.4,458.4,67.3z M462.4,65.2c0.1,0.4,0.1,0.8,0.1,1.2c0.1,0.6,0.1,1.3,0.3,2.1c-0.6-0.1-1.3-0.2-2-0.2
		c-0.4,0-0.8-0.1-1.2-0.1c-0.1,0-0.3-0.1-0.4-0.1c-0.1-0.5-0.5-1-1.1-1.5c0,0,0-0.1,0-0.1l0.5-0.5c0.6-0.5,1.1-1,1.6-1.6l0.5-0.5
		c0,0,0.1,0,0.1,0c0.4,0.6,0.9,1,1.5,1C462.3,65,462.3,65.1,462.4,65.2z M461.6,64.1C461.6,64.1,461.7,64.2,461.6,64.1
		C461.7,64.2,461.6,64.1,461.6,64.1z M464.1,64.1c-0.4,0.1-0.8,0.2-1.2,0.3c-0.1,0-0.3,0-0.4,0c-0.3-0.5-0.8-0.8-1.5-1
		c0,0,0-0.1-0.1-0.1l0.3-0.7c0.4-0.6,0.7-1.3,0.9-2l0.3-0.7c0,0,0.1,0,0.1,0c0.6,0.4,1.2,0.6,1.8,0.5c0.1,0.1,0.2,0.2,0.2,0.3
		c0.2,0.3,0.3,0.7,0.5,1c0.3,0.6,0.5,1.2,1,1.8C465.4,63.7,464.7,63.9,464.1,64.1z M463.5,60c0,0,0.1,0,0.1,0
		C463.6,60,463.5,60,463.5,60z M465.2,55.8c0.3,0.3,0.6,0.5,0.8,0.8c0.5,0.5,0.9,0.9,1.5,1.4c-0.6,0.3-1.1,0.7-1.7,1.1
		c-0.3,0.2-0.7,0.5-1,0.7c-0.1,0.1-0.2,0.1-0.4,0.2c-0.4-0.4-1-0.5-1.8-0.4c0,0-0.1,0-0.1-0.1l0.1-0.8c0.1-0.7,0.2-1.5,0.2-2.2
		l0.1-0.7c0,0,0.1,0,0.1,0c0.7,0.2,1.3,0.1,1.8-0.2C464.9,55.7,465.1,55.7,465.2,55.8z M463.9,55.4c0,0,0.1,0,0.1,0
		C463.9,55.4,463.9,55.4,463.9,55.4z M465.8,53.8c-0.2,0.3-0.5,0.7-0.7,1c-0.1,0.1-0.2,0.2-0.3,0.3c-0.5-0.2-1.1-0.1-1.8,0.2
		c0,0-0.1,0-0.1,0l-0.2-0.7c-0.1-0.7-0.3-1.5-0.6-2.2l-0.2-0.7c0,0,0,0,0.1-0.1c0.7-0.1,1.3-0.3,1.6-0.8c0.1,0,0.3,0,0.4,0.1
		c0.4,0.1,0.7,0.3,1.1,0.5c0.6,0.3,1.2,0.6,1.9,0.8C466.6,52.7,466.2,53.3,465.8,53.8z"/>
</g>
<g>
	<path class="st2" d="M367.5,65.7c4.1,0,6.6-2.3,6.8-5.7h-3.6c-0.2,1.8-1.4,2.7-3.1,2.7c-2.2,0-3.5-1.4-3.5-4.3v-0.2
		c0-2.7,1.4-4.2,3.4-4.2c1.6,0,2.6,0.7,2.9,2.4h3.7c-0.4-4.1-3.4-5.5-6.7-5.5c-4.1,0-7.3,2.8-7.3,7.4v0.2
		C360.2,63.1,363.4,65.7,367.5,65.7L367.5,65.7z M381.6,62.7c-2.2,0-3.5-1.6-3.5-4.3v-0.2c0-2.7,1.3-4.3,3.5-4.3
		c2.2,0,3.5,1.6,3.5,4.3v0.2C385.1,61,383.8,62.7,381.6,62.7L381.6,62.7z M381.6,65.7c4.2,0,7.5-2.9,7.5-7.3v-0.2
		c0-4.4-3.2-7.2-7.4-7.2c-4.2,0-7.5,2.9-7.5,7.4v0.2C374.1,62.9,377.4,65.7,381.6,65.7L381.6,65.7z M390,65.4h3.9V57
		c0-1.9,1.2-2.9,2.7-2.9c1.4,0,2.2,0.8,2.2,2.6v8.7h3.9V57c0-1.9,1.2-2.9,2.7-2.9c1.4,0,2.2,0.8,2.2,2.6v8.7h3.9v-9.1
		c0-3.7-2.1-5.4-4.7-5.4c-1.8,0-3.6,0.7-4.7,2.5c-0.7-1.7-2.1-2.5-3.9-2.5c-2.1,0-3.6,1.2-4.3,2.5v-2.2h-3.9v14.2H390z"/>
	<path class="st2" d="M101.2,65.2h7.4V32.7h-7.4V65.2L101.2,65.2z M112.3,65.2h6.6V51.5c0-3.5,2.1-5.2,4.9-5.2
		c2.9,0,4.2,1.6,4.2,4.7v14.2h6.6V50.1c0-6.4-3.3-9.2-8-9.2c-3.9,0-6.6,1.9-7.7,4.3v-3.7h-6.6V65.2L112.3,65.2z M146.3,65.7
		c3.5,0,6.4-2.1,7.6-4.4v3.9h6.6V30.7h-6.6V45c-1.3-2.4-3.7-4.1-7.5-4.1c-5.9,0-10.4,4.6-10.4,12.4v0.4
		C135.9,61.6,140.4,65.7,146.3,65.7L146.3,65.7z M148.2,60.6c-3.2,0-5.6-2.3-5.6-7.1v-0.4c0-4.7,2.1-7.2,5.7-7.2
		c3.6,0,5.7,2.4,5.7,7.1v0.4C154.1,58.3,151.6,60.6,148.2,60.6L148.2,60.6z M163.6,65.2h6.6V41.5h-6.6V65.2L163.6,65.2z M166.7,38.2
		c2.1,0,3.7-1.6,3.7-3.6c0-2.1-1.6-3.6-3.7-3.6c-2.1,0-3.7,1.6-3.7,3.6C163.1,36.7,164.7,38.2,166.7,38.2L166.7,38.2z M179.6,65.7
		c3.7,0,5.8-1.4,7.2-3.4v2.9h6.4V49.7c0-6.4-4.1-8.8-9.9-8.8s-10.2,2.5-10.7,8.1h6.2c0.2-2.1,1.4-3.4,4.1-3.4c3,0,3.9,1.6,3.9,4.4
		V51h-2.7c-7.2,0-12.4,2.1-12.4,7.6C171.7,63.7,175.3,65.7,179.6,65.7L179.6,65.7z M181.6,61.2c-2.4,0-3.4-1.1-3.4-2.9
		c0-2.6,2.2-3.4,6.1-3.4h2.6v2C186.7,59.5,184.5,61.2,181.6,61.2L181.6,61.2z M195.9,65.2h6.6V51.5c0-3.5,2.1-5.2,4.9-5.2
		c2.9,0,4.2,1.6,4.2,4.7v14.2h6.6V50.1c0-6.4-3.3-9.2-8-9.2c-3.9,0-6.6,1.9-7.7,4.3v-3.7h-6.6L195.9,65.2L195.9,65.2z"/>
	<path class="st3" d="M221.5,65.2h7.3V52.7h3.2l7.7,12.6h7.8L239,51.4c3.8-1.1,6.7-3.7,6.7-8.6v-0.2c0-6.7-4.9-9.9-12.6-9.9h-11.6
		V65.2L221.5,65.2z M228.9,47.7v-9.3h4.1c3.6,0,5.6,1.1,5.6,4.4V43c0,3.1-1.9,4.7-5.6,4.7H228.9L228.9,47.7z"/>
	<path class="st3" d="M258.6,65.7c6.5,0,10.6-2.9,11.4-8h-6.2c-0.4,2-1.9,3.3-4.9,3.3c-3.6,0-5.7-2.2-5.9-6.2H270V53
		c0-8.5-5.4-12.1-11.6-12.1c-6.9,0-12.2,4.9-12.2,12.4v0.4C246.2,61.2,251.5,65.7,258.6,65.7L258.6,65.7z M253,50.8
		c0.5-3.4,2.5-5.3,5.4-5.3c3.1,0,4.9,1.7,5.2,5.3H253L253,50.8z"/>
	<path class="st3" d="M280.1,65.7c1.7,0,3.1-0.3,4-0.6V60c-0.7,0.3-1.5,0.4-2.5,0.4c-1.7,0-2.6-0.9-2.6-2.8V46.2h5v-4.7h-5v-5.1
		h-6.6v5.1h-3.1v4.7h3.1v12.1C272.4,63.2,275.1,65.7,280.1,65.7L280.1,65.7z"/>
	<path class="st3" d="M292.3,65.7c3.7,0,5.8-1.4,7.2-3.4v2.9h6.4V49.7c0-6.4-4.1-8.8-9.9-8.8c-5.8,0-10.2,2.5-10.7,8.1h6.2
		c0.2-2.1,1.4-3.4,4.1-3.4c3,0,3.9,1.6,3.9,4.4V51h-2.7c-7.2,0-12.4,2.1-12.4,7.6C284.3,63.7,288,65.7,292.3,65.7L292.3,65.7z
		 M294.2,61.2c-2.4,0-3.4-1.1-3.4-2.9c0-2.6,2.2-3.4,6.1-3.4h2.6v2C299.4,59.5,297.1,61.2,294.2,61.2L294.2,61.2z"/>
	<path class="st3" d="M308.8,65.2h6.6V41.5h-6.6V65.2L308.8,65.2z M312,38.2c2.1,0,3.7-1.6,3.7-3.6c0-2.1-1.6-3.6-3.7-3.6
		c-2.1,0-3.7,1.6-3.7,3.6C308.3,36.7,309.9,38.2,312,38.2L312,38.2z"/>
	<polygon class="st3" points="318.6,65.2 325.1,65.2 325.1,30.7 318.6,30.7 	"/>
	<path class="st3" d="M339.2,65.7c6.5,0,10.6-2.9,11.4-8h-6.2c-0.4,2-1.9,3.3-4.9,3.3c-3.6,0-5.7-2.2-5.9-6.2h17.1V53
		c0-8.5-5.4-12.1-11.6-12.1c-6.9,0-12.2,4.9-12.2,12.4v0.4C326.8,61.2,332,65.7,339.2,65.7L339.2,65.7z M333.6,50.8
		c0.5-3.4,2.5-5.3,5.4-5.3c3.1,0,4.9,1.7,5.2,5.3H333.6L333.6,50.8z"/>
	<path class="st4" d="M358.6,58.8v-5.5c0-4.6,2.8-6.1,7.7-6.1v-6.1c-3.9,0.1-6.2,1.7-7.7,4.9v-4.6h-6.6v17.2c0.9-0.7,2-1.2,3.2-1.2
		C356.5,57.4,357.7,58,358.6,58.8L358.6,58.8z"/>
	<path class="st4" d="M355.2,59c1.8,0,3.2,1.4,3.2,3.2c0,1.7-1.4,3.2-3.2,3.2c-1.8,0-3.2-1.4-3.2-3.2C351.9,60.4,353.4,59,355.2,59
		L355.2,59z"/>
</g>
<g>
	<path class="st4" d="M59.8,18.8l31.3,10.8c2.5,0.9,3.8,3.6,2.9,6L81.2,73c-0.9,2.5-3.6,3.8-6,2.9L43.9,65.2c-2.5-0.9-3.8-3.6-3-6
		l12.8-37.3C54.6,19.3,57.3,18,59.8,18.8L59.8,18.8z M59.4,23.8c1.4,0,2.5,1.1,2.5,2.5s-1.1,2.5-2.5,2.5c-1.4,0-2.5-1.1-2.5-2.5
		S58.1,23.8,59.4,23.8L59.4,23.8z"/>
	<path class="st5" d="M55.9,62.6h6.7V51.2h2.9l7.1,11.5h7.1L71.9,50c3.5-1,6.1-3.4,6.1-7.9v-0.2c0-6.2-4.4-9-11.5-9h-4
		c0.9,0.9,1.4,2,1.4,3.3c0,0.6-0.1,1.3-0.4,1.8h2.8c3.2,0,5.1,1,5.1,4.1v0.2c0,2.9-1.7,4.3-5.1,4.3h-3.8v-7.1
		c-0.9,0.9-2.1,1.4-3.4,1.4c-1.3,0-2.4-0.5-3.3-1.3V62.6L55.9,62.6z"/>
	<path class="st6" d="M59.2,33c1.8,0,3.3,1.4,3.3,3.3s-1.5,3.3-3.3,3.3s-3.3-1.4-3.3-3.3S57.4,33,59.2,33L59.2,33z"/>
	<path class="st7" d="M53.3,13.7c-0.3,3.2,1.3,6.6,3.5,8.9c0.8,0.8,2.1,2.3,3.2,1.1c0.3,0.1,0.5,0.2,0.8,0.4c-0.9,1-1.9,1.1-3,0.4
		c-1.3-0.9-2.3-2-3.6-4.2c-1.1-2-1.8-4.1-1.6-6.7c0.5-5.6,6-5.3,8.3-0.6c0.9,1.9,1.1,4.5,1,6.6l-0.7-0.2C62,10.2,53.9,7.1,53.3,13.7
		L53.3,13.7z"/>
</g>
<g>
	<path class="st2" d="M475.5,75.3L332.3,76c-1.1,0-2-0.4-2.1-0.9c0-0.5,0.9-1,2-1c0,0,0.1,0,0.1,0l143.2,0.8c0.3,0,0.6,0.1,0.6,0.2
		C476.1,75.2,475.8,75.3,475.5,75.3z"/>
	<path class="st2" d="M318.4,75.1c0,1.1-12.2,1.9-27.2,1.9c-15,0-27.2-0.9-27.2-1.9c0-1.1,12.2-2,27.2-2
		C306.2,73.1,318.4,74,318.4,75.1z"/>
	<path class="st2" d="M261.2,75c0,0.8-1.4,1.5-3.2,1.5c-1.8,0-3.2-0.7-3.2-1.5c0-0.8,1.4-1.5,3.2-1.5
		C259.8,73.5,261.2,74.2,261.2,75z"/>
	<path class="st2" d="M327.6,75.1c0,0.8-1.4,1.5-3.2,1.5c-1.8,0-3.2-0.7-3.2-1.5c0-0.8,1.4-1.5,3.2-1.5
		C326.2,73.6,327.6,74.3,327.6,75.1z"/>
	<path class="st2" d="M474.8,75.1c0,0,5.2,1.1,4.2,2.3c0,0,2.4-0.7,0.6-1.4c-1.6-0.6,1.3,0.7,4.5-0.9c-3.3-1.6-5.9-0.2-4.5-0.9
		c1.6-0.9-0.6-1.4-0.6-1.4C479.3,74.2,474.8,75.1,474.8,75.1z"/>
	<g>
		<path class="st2" d="M107,74.8l143.1-0.8c1.1,0,2,0.4,2.1,0.9c0,0.5-0.9,1-2,1c0,0-0.1,0-0.1,0L107,75.2c-0.3,0-0.6-0.1-0.6-0.2
			C106.4,74.9,106.7,74.8,107,74.8z"/>
		<path class="st2" d="M107.5,75c0,0-5.2-1.1-4.2-2.3c0,0-2.5,0.7-0.6,1.4c1.6,0.6-1.3-0.7-4.5,0.9c3.3,1.6,5.9,0.2,4.5,0.9
			c-1.6,0.9,0.6,1.4,0.6,1.4C103,75.9,107.5,75,107.5,75z"/>
	</g>
</g>
<g>
	<path class="st3" d="M437.1,64.4c-3.4,0-6.5-1-8.6-3.4c-1,1.8-2.9,3-5.1,3c-2.1,0-3.9-1.1-4.9-2.8c0,0.2,0,0.3,0,0.5
		c0,1.1,0.1,2.2,0.4,3.3c0.4,1.4,0.9,2.7,1.7,3.9c0.1,0.1,0.1,0.2,0.2,0.3c0.3,0.4,0.6,0.9,1,1.3c0.1,0.1,0.2,0.2,0.3,0.3
		c0.4,0.4,0.8,0.8,1.2,1.2c0.1,0.1,0.2,0.1,0.3,0.2c2.3,1.8,5.2,2.9,8.3,2.9c2.9,0,5.5-1,7.7-2.7c0.1-0.1,0.2-0.2,0.3-0.3
		c0.5-0.4,0.9-0.8,1.3-1.2c0,0,0,0,0,0c0,0,0,0,0.1,0c0.1,0,0.2-0.1,0.2-0.2c0,0,0,0,0,0c0.5-0.6,1-1.2,1.4-1.8
		c0.1-0.1,0.1-0.2,0.2-0.3c0.8-1.4,1.5-2.9,1.8-4.4c0.2-1,0.4-2,0.4-3.1C445.2,61,441.2,64.4,437.1,64.4z"/>
	<path class="st3" d="M428.4,60.8c0.5-0.5,5.3-5.8,5.3-13.6c0-7.8-5.9-16.4-5.9-16.4c1.5,5.8-4.9,10.5-5.4,18.4
		C421.8,56.9,428.4,60.8,428.4,60.8z"/>
</g>
<g>
	<path class="st2" d="M465.1,67.6c-2.6,0-5-0.8-6.6-2.6c-0.8,1.4-2.2,2.3-3.9,2.3c-1.6,0-3-0.9-3.8-2.1c0,0.1,0,0.2,0,0.4
		c0,0.9,0.1,1.7,0.3,2.5c0.3,1.1,0.7,2.1,1.3,3c0,0.1,0.1,0.1,0.1,0.2c0.2,0.3,0.5,0.7,0.8,1c0.1,0.1,0.1,0.2,0.2,0.2
		c0.3,0.3,0.6,0.6,0.9,0.9c0.1,0.1,0.1,0.1,0.2,0.2c1.8,1.4,4,2.2,6.4,2.2c2.2,0,4.3-0.8,6-2.1c0.1-0.1,0.2-0.1,0.3-0.2
		c0.3-0.3,0.7-0.6,1-0.9c0,0,0,0,0,0c0,0,0,0,0,0c0.1,0,0.1-0.1,0.1-0.2c0,0,0,0,0,0c0.4-0.4,0.7-0.9,1.1-1.4
		c0.1-0.1,0.1-0.2,0.2-0.3c0.6-1,1.1-2.2,1.4-3.4c0.2-0.8,0.3-1.6,0.3-2.4C471.3,65,468.3,67.6,465.1,67.6z"/>
	<path class="st3" d="M458.4,64.8c0.4-0.4,4.1-4.5,4.1-10.5c0-6-4.6-12.7-4.6-12.7c1.2,4.5-3.7,8.1-4.2,14.2
		C453.3,61.9,458.4,64.8,458.4,64.8z"/>
</g>
</svg>
