<?xml version="1.0" encoding="utf-8"?>
<!-- Generator: Adobe Illustrator 25.0.0, SVG Export Plug-In . SVG Version: 6.00 Build 0)  -->
<svg version="1.1" id="Layer_1" xmlns="http://www.w3.org/2000/svg" xmlns:xlink="http://www.w3.org/1999/xlink" x="0px" y="0px"
	 viewBox="0 0 231.5 84.9" style="enable-background:new 0 0 231.5 84.9;" xml:space="preserve">
<style type="text/css">
	.st0{fill:url(#SVGID_1_);}
	.st1{fill:url(#SVGID_2_);}
	.st2{fill:url(#SVGID_3_);}
	.st3{fill:url(#SVGID_4_);}
	.st4{fill:url(#SVGID_5_);}
	.st5{fill:url(#SVGID_6_);}
	.st6{fill:url(#SVGID_7_);}
	.st7{fill:url(#SVGID_8_);}
	.st8{fill:url(#SVGID_9_);}
	.st9{fill:url(#SVGID_10_);}
	.st10{fill:url(#SVGID_11_);}
	.st11{fill:url(#SVGID_12_);}
	.st12{fill:url(#SVGID_13_);}
	.st13{fill:url(#SVGID_14_);}
	.st14{fill:url(#SVGID_15_);}
	.st15{fill:url(#SVGID_16_);}
	.st16{fill:url(#SVGID_17_);}
	.st17{fill:url(#SVGID_18_);}
	.st18{fill:url(#SVGID_19_);}
	.st19{fill:url(#SVGID_20_);}
	.st20{fill:url(#SVGID_21_);}
	.st21{fill:url(#SVGID_22_);}
	.st22{fill:url(#SVGID_23_);}
	.st23{fill:url(#SVGID_24_);}
	.st24{fill:url(#SVGID_25_);}
	.st25{fill:url(#SVGID_26_);}
	.st26{fill:url(#SVGID_27_);}
	.st27{fill:url(#SVGID_28_);}
	.st28{fill:url(#SVGID_29_);}
	.st29{fill:url(#SVGID_30_);}
	.st30{fill:url(#SVGID_31_);}
	.st31{fill:url(#SVGID_32_);}
	.st32{fill:url(#SVGID_33_);}
	.st33{fill:url(#SVGID_34_);}
	.st34{fill:url(#SVGID_35_);}
	.st35{fill:url(#SVGID_36_);}
	.st36{fill:url(#SVGID_37_);}
	.st37{fill:url(#SVGID_38_);}
	.st38{fill:url(#SVGID_39_);}
	.st39{fill:url(#SVGID_40_);}
	.st40{fill:url(#SVGID_41_);}
	.st41{fill:url(#SVGID_42_);}
	.st42{fill:url(#SVGID_43_);}
	.st43{fill:url(#SVGID_44_);}
	.st44{fill:url(#SVGID_45_);}
	.st45{fill:url(#SVGID_46_);}
	.st46{fill:#F79122;}
	.st47{fill:#D5DE26;}
	.st48{fill:#ED3C7A;}
	.st49{fill:#272425;}
</style>
<g>
	
		<radialGradient id="SVGID_1_" cx="-521.6806" cy="2373.7898" r="10.3737" gradientTransform="matrix(-1.7185 0 0 0.3556 -824.4564 -794.007)" gradientUnits="userSpaceOnUse">
		<stop  offset="0.3441" style="stop-color:#994C0B"/>
		<stop  offset="0.3871" style="stop-color:#A25414"/>
		<stop  offset="0.457" style="stop-color:#BA6B2B"/>
		<stop  offset="0.4785" style="stop-color:#C37333"/>
		<stop  offset="0.5209" style="stop-color:#CA834A"/>
		<stop  offset="0.6487" style="stop-color:#DCAE8A"/>
		<stop  offset="0.765" style="stop-color:#EBD1BC"/>
		<stop  offset="0.866" style="stop-color:#F6EAE1"/>
		<stop  offset="0.9478" style="stop-color:#FDF9F7"/>
		<stop  offset="1" style="stop-color:#FFFFFF"/>
	</radialGradient>
	<ellipse class="st0" cx="72.1" cy="50.1" rx="17.8" ry="3.7"/>
	<g>
		
			<radialGradient id="SVGID_2_" cx="3.2393" cy="36.3047" r="23.2456" gradientTransform="matrix(-1 0 0 1 71.0978 0)" gradientUnits="userSpaceOnUse">
			<stop  offset="9.139780e-02" style="stop-color:#FFC04C"/>
			<stop  offset="0.371" style="stop-color:#FF9A00"/>
			<stop  offset="0.5915" style="stop-color:#CE6C0D"/>
			<stop  offset="0.7967" style="stop-color:#943014"/>
			<stop  offset="0.8978" style="stop-color:#7D1717"/>
			<stop  offset="1" style="stop-color:#FF9A00"/>
		</radialGradient>
		<path class="st1" d="M50.4,42.1c2.5,2.2,4.9,4.2,7.4,5.8c0.3,0.2,0.5,0.3,0.8,0.5c3.2,1.8,6.7,3,11.1,3c5.1,0,8.8-2.2,10.8-4.7
			c0.2-0.3,0.4-0.5,0.6-0.8c0.6-0.8,1-1.6,1.2-2.4c1.3-4.7-4.8-8.4-14.1-5.1C58.5,41.8,50.4,42.1,50.4,42.1z"/>
		
			<radialGradient id="SVGID_3_" cx="3.6135" cy="47.6844" r="14.947" gradientTransform="matrix(-1 0 0 1 71.0978 0)" gradientUnits="userSpaceOnUse">
			<stop  offset="9.139780e-02" style="stop-color:#FFC04C"/>
			<stop  offset="0.371" style="stop-color:#FF9A00"/>
			<stop  offset="0.5915" style="stop-color:#CE6C0D"/>
			<stop  offset="0.7967" style="stop-color:#943014"/>
			<stop  offset="0.8978" style="stop-color:#7D1717"/>
			<stop  offset="1" style="stop-color:#FF9A00"/>
		</radialGradient>
		<path class="st2" d="M51.6,42.6c0.7,0.4,1.4,0.7,2.1,1c4.2,1.9,8.9,2.9,15.5,2.5c5.8-0.4,9.7-2.1,11.1-3.8
			c0.4-0.5,0.6-1.1,0.6-1.6c-0.2-2.4-5.7-4-13.2-1.5C57.5,42.5,51.6,42.6,51.6,42.6z"/>
		
			<radialGradient id="SVGID_4_" cx="4.2109" cy="51.998" r="17.7113" gradientTransform="matrix(-1 0 0 1 71.0978 0)" gradientUnits="userSpaceOnUse">
			<stop  offset="9.139780e-02" style="stop-color:#FFC04C"/>
			<stop  offset="0.371" style="stop-color:#FF9A00"/>
			<stop  offset="0.5915" style="stop-color:#CE6C0D"/>
			<stop  offset="0.7967" style="stop-color:#943014"/>
			<stop  offset="0.8978" style="stop-color:#7D1717"/>
			<stop  offset="1" style="stop-color:#FF9A00"/>
		</radialGradient>
		<path class="st3" d="M53.7,43.6c4.2,1.9,8.9,2.9,15.5,2.5c5.8-0.4,9.7-2.1,11.1-3.8c0-0.1,0-0.2,0-0.3c-0.2-2.4-5.7-4-13.2-1.5
			C61,42.5,56.4,43.3,53.7,43.6z"/>
	</g>
	<g>
		
			<radialGradient id="SVGID_5_" cx="3.6877" cy="42.4325" r="25.4215" gradientTransform="matrix(-1 0 0 1 71.0978 0)" gradientUnits="userSpaceOnUse">
			<stop  offset="9.139780e-02" style="stop-color:#FFC04C"/>
			<stop  offset="0.371" style="stop-color:#FF9A00"/>
			<stop  offset="0.5915" style="stop-color:#CE6C0D"/>
			<stop  offset="0.7967" style="stop-color:#943014"/>
			<stop  offset="0.8978" style="stop-color:#7D1717"/>
			<stop  offset="1" style="stop-color:#FF9A00"/>
		</radialGradient>
		<path class="st4" d="M53,44.4c0.2,0.2,0.4,0.3,0.6,0.5c11.2,4.6,26.6,3.2,28.8-3.3c0,0,0-0.1,0-0.1c0-0.1-0.1-0.3-0.1-0.4
			c0,0.2-0.1,0.3-0.1,0.5c-2.2,6.1-17.3,7.7-29,3C53.1,44.4,53.1,44.4,53,44.4z"/>
		
			<radialGradient id="SVGID_6_" cx="3.6877" cy="42.4325" r="25.4216" gradientTransform="matrix(-1 0 0 1 71.0978 0)" gradientUnits="userSpaceOnUse">
			<stop  offset="9.139780e-02" style="stop-color:#FFC04C"/>
			<stop  offset="0.371" style="stop-color:#FF9A00"/>
			<stop  offset="0.5915" style="stop-color:#CE6C0D"/>
			<stop  offset="0.7967" style="stop-color:#943014"/>
			<stop  offset="0.8978" style="stop-color:#7D1717"/>
			<stop  offset="1" style="stop-color:#FF9A00"/>
		</radialGradient>
		<path class="st5" d="M57.8,47.9c0.3,0.2,0.5,0.3,0.8,0.5c6,1.6,17,1.7,22-1.7c0.2-0.3,0.4-0.5,0.6-0.8
			C76.6,50,63.4,49.9,57.8,47.9z"/>
		<g>
			
				<radialGradient id="SVGID_7_" cx="3.6899" cy="42.4324" r="25.4172" gradientTransform="matrix(-1 0 0 1 71.0978 0)" gradientUnits="userSpaceOnUse">
				<stop  offset="9.139780e-02" style="stop-color:#FFC04C"/>
				<stop  offset="0.371" style="stop-color:#FF9A00"/>
				<stop  offset="0.5915" style="stop-color:#CE6C0D"/>
				<stop  offset="0.7967" style="stop-color:#943014"/>
				<stop  offset="0.8978" style="stop-color:#7D1717"/>
				<stop  offset="1" style="stop-color:#FF9A00"/>
			</radialGradient>
			<path class="st6" d="M56.2,46.8c0,0,0,0.1,0,0.1c0.1,0.1,0.2,0.1,0.3,0.2c0.2,0,0.3-0.1,0.3-0.3c0-0.2-0.1-0.3-0.3-0.3
				C56.4,46.4,56.2,46.6,56.2,46.8z"/>
			
				<radialGradient id="SVGID_8_" cx="3.6879" cy="42.4325" r="25.4213" gradientTransform="matrix(-1 0 0 1 71.0978 0)" gradientUnits="userSpaceOnUse">
				<stop  offset="9.139780e-02" style="stop-color:#FFC04C"/>
				<stop  offset="0.371" style="stop-color:#FF9A00"/>
				<stop  offset="0.5915" style="stop-color:#CE6C0D"/>
				<stop  offset="0.7967" style="stop-color:#943014"/>
				<stop  offset="0.8978" style="stop-color:#7D1717"/>
				<stop  offset="1" style="stop-color:#FF9A00"/>
			</radialGradient>
			<path class="st7" d="M58.3,47.6c0.2,0,0.4-0.2,0.4-0.4s-0.2-0.4-0.4-0.4c-0.2,0-0.4,0.2-0.4,0.4S58.1,47.6,58.3,47.6z"/>
			
				<radialGradient id="SVGID_9_" cx="3.6874" cy="42.4324" r="25.4223" gradientTransform="matrix(-1 0 0 1 71.0978 0)" gradientUnits="userSpaceOnUse">
				<stop  offset="9.139780e-02" style="stop-color:#FFC04C"/>
				<stop  offset="0.371" style="stop-color:#FF9A00"/>
				<stop  offset="0.5915" style="stop-color:#CE6C0D"/>
				<stop  offset="0.7967" style="stop-color:#943014"/>
				<stop  offset="0.8978" style="stop-color:#7D1717"/>
				<stop  offset="1" style="stop-color:#FF9A00"/>
			</radialGradient>
			<path class="st8" d="M60.1,48c0.2,0,0.4-0.2,0.4-0.4c0-0.2-0.2-0.4-0.4-0.4c-0.2,0-0.4,0.2-0.4,0.4C59.7,47.9,59.9,48,60.1,48z"
				/>
			
				<radialGradient id="SVGID_10_" cx="3.6878" cy="42.4326" r="25.4212" gradientTransform="matrix(-1 0 0 1 71.0978 0)" gradientUnits="userSpaceOnUse">
				<stop  offset="9.139780e-02" style="stop-color:#FFC04C"/>
				<stop  offset="0.371" style="stop-color:#FF9A00"/>
				<stop  offset="0.5915" style="stop-color:#CE6C0D"/>
				<stop  offset="0.7967" style="stop-color:#943014"/>
				<stop  offset="0.8978" style="stop-color:#7D1717"/>
				<stop  offset="1" style="stop-color:#FF9A00"/>
			</radialGradient>
			<path class="st9" d="M61.9,48.4c0.2,0,0.4-0.2,0.4-0.4c0-0.2-0.2-0.4-0.4-0.4c-0.2,0-0.4,0.2-0.4,0.4
				C61.5,48.2,61.7,48.4,61.9,48.4z"/>
			
				<radialGradient id="SVGID_11_" cx="3.6884" cy="42.4324" r="25.4207" gradientTransform="matrix(-1 0 0 1 71.0978 0)" gradientUnits="userSpaceOnUse">
				<stop  offset="9.139780e-02" style="stop-color:#FFC04C"/>
				<stop  offset="0.371" style="stop-color:#FF9A00"/>
				<stop  offset="0.5915" style="stop-color:#CE6C0D"/>
				<stop  offset="0.7967" style="stop-color:#943014"/>
				<stop  offset="0.8978" style="stop-color:#7D1717"/>
				<stop  offset="1" style="stop-color:#FF9A00"/>
			</radialGradient>
			<path class="st10" d="M63.7,48.6c0.2,0,0.4-0.2,0.4-0.4c0-0.2-0.2-0.4-0.4-0.4c-0.2,0-0.4,0.2-0.4,0.4
				C63.3,48.4,63.5,48.6,63.7,48.6z"/>
			
				<radialGradient id="SVGID_12_" cx="3.6874" cy="42.4327" r="25.4213" gradientTransform="matrix(-1 0 0 1 71.0978 0)" gradientUnits="userSpaceOnUse">
				<stop  offset="9.139780e-02" style="stop-color:#FFC04C"/>
				<stop  offset="0.371" style="stop-color:#FF9A00"/>
				<stop  offset="0.5915" style="stop-color:#CE6C0D"/>
				<stop  offset="0.7967" style="stop-color:#943014"/>
				<stop  offset="0.8978" style="stop-color:#7D1717"/>
				<stop  offset="1" style="stop-color:#FF9A00"/>
			</radialGradient>
			<path class="st11" d="M65.5,48.7c0.2,0,0.4-0.2,0.4-0.4c0-0.2-0.2-0.4-0.4-0.4c-0.2,0-0.4,0.2-0.4,0.4
				C65.1,48.5,65.3,48.7,65.5,48.7z"/>
			
				<radialGradient id="SVGID_13_" cx="3.6877" cy="42.4323" r="25.4224" gradientTransform="matrix(-1 0 0 1 71.0978 0)" gradientUnits="userSpaceOnUse">
				<stop  offset="9.139780e-02" style="stop-color:#FFC04C"/>
				<stop  offset="0.371" style="stop-color:#FF9A00"/>
				<stop  offset="0.5915" style="stop-color:#CE6C0D"/>
				<stop  offset="0.7967" style="stop-color:#943014"/>
				<stop  offset="0.8978" style="stop-color:#7D1717"/>
				<stop  offset="1" style="stop-color:#FF9A00"/>
			</radialGradient>
			<path class="st12" d="M67.4,48.7c0.2,0,0.4-0.2,0.4-0.4c0-0.2-0.2-0.4-0.4-0.4c-0.2,0-0.4,0.2-0.4,0.4
				C66.9,48.5,67.1,48.7,67.4,48.7z"/>
			
				<radialGradient id="SVGID_14_" cx="3.6875" cy="42.4324" r="25.422" gradientTransform="matrix(-1 0 0 1 71.0978 0)" gradientUnits="userSpaceOnUse">
				<stop  offset="9.139780e-02" style="stop-color:#FFC04C"/>
				<stop  offset="0.371" style="stop-color:#FF9A00"/>
				<stop  offset="0.5915" style="stop-color:#CE6C0D"/>
				<stop  offset="0.7967" style="stop-color:#943014"/>
				<stop  offset="0.8978" style="stop-color:#7D1717"/>
				<stop  offset="1" style="stop-color:#FF9A00"/>
			</radialGradient>
			<path class="st13" d="M69.2,48.6c0.2,0,0.4-0.2,0.4-0.4c0-0.2-0.2-0.4-0.4-0.4c-0.2,0-0.4,0.2-0.4,0.4
				C68.7,48.4,68.9,48.6,69.2,48.6z"/>
			
				<radialGradient id="SVGID_15_" cx="3.6885" cy="42.4326" r="25.4223" gradientTransform="matrix(-1 0 0 1 71.0978 0)" gradientUnits="userSpaceOnUse">
				<stop  offset="9.139780e-02" style="stop-color:#FFC04C"/>
				<stop  offset="0.371" style="stop-color:#FF9A00"/>
				<stop  offset="0.5915" style="stop-color:#CE6C0D"/>
				<stop  offset="0.7967" style="stop-color:#943014"/>
				<stop  offset="0.8978" style="stop-color:#7D1717"/>
				<stop  offset="1" style="stop-color:#FF9A00"/>
			</radialGradient>
			<path class="st14" d="M71,48.5c0.2,0,0.4-0.2,0.4-0.4c0-0.2-0.2-0.4-0.4-0.4c-0.2,0-0.4,0.2-0.4,0.4C70.6,48.3,70.8,48.5,71,48.5
				z"/>
			
				<radialGradient id="SVGID_16_" cx="3.6877" cy="42.4325" r="25.4216" gradientTransform="matrix(-1 0 0 1 71.0978 0)" gradientUnits="userSpaceOnUse">
				<stop  offset="9.139780e-02" style="stop-color:#FFC04C"/>
				<stop  offset="0.371" style="stop-color:#FF9A00"/>
				<stop  offset="0.5915" style="stop-color:#CE6C0D"/>
				<stop  offset="0.7967" style="stop-color:#943014"/>
				<stop  offset="0.8978" style="stop-color:#7D1717"/>
				<stop  offset="1" style="stop-color:#FF9A00"/>
			</radialGradient>
			<path class="st15" d="M72.8,48.3c0.2,0,0.4-0.2,0.4-0.4c0-0.2-0.2-0.4-0.4-0.4s-0.4,0.2-0.4,0.4C72.4,48.1,72.6,48.3,72.8,48.3z"
				/>
			
				<radialGradient id="SVGID_17_" cx="3.6878" cy="42.4324" r="25.4217" gradientTransform="matrix(-1 0 0 1 71.0978 0)" gradientUnits="userSpaceOnUse">
				<stop  offset="9.139780e-02" style="stop-color:#FFC04C"/>
				<stop  offset="0.371" style="stop-color:#FF9A00"/>
				<stop  offset="0.5915" style="stop-color:#CE6C0D"/>
				<stop  offset="0.7967" style="stop-color:#943014"/>
				<stop  offset="0.8978" style="stop-color:#7D1717"/>
				<stop  offset="1" style="stop-color:#FF9A00"/>
			</radialGradient>
			<path class="st16" d="M74.6,47.9c0.2,0,0.4-0.2,0.4-0.4c0-0.2-0.2-0.4-0.4-0.4c-0.2,0-0.4,0.2-0.4,0.4
				C74.2,47.7,74.4,47.9,74.6,47.9z"/>
			
				<radialGradient id="SVGID_18_" cx="3.6863" cy="42.4326" r="25.4184" gradientTransform="matrix(-1 0 0 1 71.0978 0)" gradientUnits="userSpaceOnUse">
				<stop  offset="9.139780e-02" style="stop-color:#FFC04C"/>
				<stop  offset="0.371" style="stop-color:#FF9A00"/>
				<stop  offset="0.5915" style="stop-color:#CE6C0D"/>
				<stop  offset="0.7967" style="stop-color:#943014"/>
				<stop  offset="0.8978" style="stop-color:#7D1717"/>
				<stop  offset="1" style="stop-color:#FF9A00"/>
			</radialGradient>
			<path class="st17" d="M76.4,47.5c0.2,0,0.4-0.2,0.4-0.4c0-0.2-0.2-0.4-0.4-0.4c-0.2,0-0.4,0.2-0.4,0.4
				C76,47.3,76.1,47.5,76.4,47.5z"/>
			
				<radialGradient id="SVGID_19_" cx="3.6898" cy="42.4325" r="25.4259" gradientTransform="matrix(-1 0 0 1 71.0978 0)" gradientUnits="userSpaceOnUse">
				<stop  offset="9.139780e-02" style="stop-color:#FFC04C"/>
				<stop  offset="0.371" style="stop-color:#FF9A00"/>
				<stop  offset="0.5915" style="stop-color:#CE6C0D"/>
				<stop  offset="0.7967" style="stop-color:#943014"/>
				<stop  offset="0.8978" style="stop-color:#7D1717"/>
				<stop  offset="1" style="stop-color:#FF9A00"/>
			</radialGradient>
			<path class="st18" d="M78.1,46.8c0.2,0,0.4-0.2,0.4-0.4c0-0.2-0.2-0.4-0.4-0.4c-0.2,0-0.4,0.2-0.4,0.4
				C77.7,46.7,77.9,46.8,78.1,46.8z"/>
			
				<radialGradient id="SVGID_20_" cx="3.6852" cy="42.4327" r="25.417" gradientTransform="matrix(-1 0 0 1 71.0978 0)" gradientUnits="userSpaceOnUse">
				<stop  offset="9.139780e-02" style="stop-color:#FFC04C"/>
				<stop  offset="0.371" style="stop-color:#FF9A00"/>
				<stop  offset="0.5915" style="stop-color:#CE6C0D"/>
				<stop  offset="0.7967" style="stop-color:#943014"/>
				<stop  offset="0.8978" style="stop-color:#7D1717"/>
				<stop  offset="1" style="stop-color:#FF9A00"/>
			</radialGradient>
			<path class="st19" d="M79.7,46c0.2,0,0.4-0.2,0.4-0.4c0-0.2-0.2-0.4-0.4-0.4c-0.2,0-0.4,0.2-0.4,0.4C79.3,45.8,79.5,46,79.7,46z"
				/>
			
				<radialGradient id="SVGID_21_" cx="3.6882" cy="42.4324" r="25.4223" gradientTransform="matrix(-1 0 0 1 71.0978 0)" gradientUnits="userSpaceOnUse">
				<stop  offset="9.139780e-02" style="stop-color:#FFC04C"/>
				<stop  offset="0.371" style="stop-color:#FF9A00"/>
				<stop  offset="0.5915" style="stop-color:#CE6C0D"/>
				<stop  offset="0.7967" style="stop-color:#943014"/>
				<stop  offset="0.8978" style="stop-color:#7D1717"/>
				<stop  offset="1" style="stop-color:#FF9A00"/>
			</radialGradient>
			<path class="st20" d="M81.2,44.9c0.2,0,0.4-0.2,0.4-0.4s-0.2-0.4-0.4-0.4c-0.2,0-0.4,0.2-0.4,0.4S81,44.9,81.2,44.9z"/>
			
				<radialGradient id="SVGID_22_" cx="3.6876" cy="42.4324" r="25.4218" gradientTransform="matrix(-1 0 0 1 71.0978 0)" gradientUnits="userSpaceOnUse">
				<stop  offset="9.139780e-02" style="stop-color:#FFC04C"/>
				<stop  offset="0.371" style="stop-color:#FF9A00"/>
				<stop  offset="0.5915" style="stop-color:#CE6C0D"/>
				<stop  offset="0.7967" style="stop-color:#943014"/>
				<stop  offset="0.8978" style="stop-color:#7D1717"/>
				<stop  offset="1" style="stop-color:#FF9A00"/>
			</radialGradient>
			<path class="st21" d="M82,43.2c0,0.2,0.1,0.3,0.3,0.3c0.1-0.2,0.1-0.5,0.2-0.7c0,0-0.1,0-0.1,0C82.2,42.8,82,43,82,43.2z"/>
		</g>
	</g>
	<g>
		
			<radialGradient id="SVGID_23_" cx="21.4362" cy="40.751" r="8.8957" gradientTransform="matrix(-1 0 0 1 71.0978 0)" gradientUnits="userSpaceOnUse">
			<stop  offset="9.139780e-02" style="stop-color:#FFC04C"/>
			<stop  offset="0.371" style="stop-color:#FF9A00"/>
			<stop  offset="0.5915" style="stop-color:#CE6C0D"/>
			<stop  offset="0.7967" style="stop-color:#943014"/>
			<stop  offset="0.8978" style="stop-color:#7D1717"/>
			<stop  offset="1" style="stop-color:#FF9A00"/>
		</radialGradient>
		<path class="st22" d="M56.1,44.6c0.1,0,0.3-0.1,0.3-0.2c0-0.2,0-0.3-0.2-0.4c0,0-4-1.2-5.7-3c-0.1-0.1-0.3-0.1-0.4,0
			c-0.1,0.1-0.1,0.3,0,0.4C52,43.4,55.9,44.5,56.1,44.6C56.1,44.6,56.1,44.6,56.1,44.6z"/>
		
			<image style="overflow:visible;" width="32" height="88" xlink:href="9AED2D8F.png"  transform="matrix(0.24 0 0 0.24 46.5618 21.0751)">
		</image>
	</g>
</g>
<g>
	
		<radialGradient id="SVGID_24_" cx="-497.7793" cy="2374.9487" r="10.3737" gradientTransform="matrix(-1.7185 0 0 0.3556 -824.4564 -794.007)" gradientUnits="userSpaceOnUse">
		<stop  offset="0.3441" style="stop-color:#994C0B"/>
		<stop  offset="0.3871" style="stop-color:#A25414"/>
		<stop  offset="0.457" style="stop-color:#BA6B2B"/>
		<stop  offset="0.4785" style="stop-color:#C37333"/>
		<stop  offset="0.5209" style="stop-color:#CA834A"/>
		<stop  offset="0.6487" style="stop-color:#DCAE8A"/>
		<stop  offset="0.765" style="stop-color:#EBD1BC"/>
		<stop  offset="0.866" style="stop-color:#F6EAE1"/>
		<stop  offset="0.9478" style="stop-color:#FDF9F7"/>
		<stop  offset="1" style="stop-color:#FFFFFF"/>
	</radialGradient>
	<ellipse class="st23" cx="31" cy="50.5" rx="17.8" ry="3.7"/>
	<g>
		
			<radialGradient id="SVGID_25_" cx="44.3137" cy="36.7168" r="23.2456" gradientTransform="matrix(-1 0 0 1 71.0978 0)" gradientUnits="userSpaceOnUse">
			<stop  offset="9.139780e-02" style="stop-color:#FFC04C"/>
			<stop  offset="0.371" style="stop-color:#FF9A00"/>
			<stop  offset="0.5915" style="stop-color:#CE6C0D"/>
			<stop  offset="0.7967" style="stop-color:#943014"/>
			<stop  offset="0.8978" style="stop-color:#7D1717"/>
			<stop  offset="1" style="stop-color:#FF9A00"/>
		</radialGradient>
		<path class="st24" d="M9.3,42.5c2.5,2.2,4.9,4.2,7.4,5.8c0.3,0.2,0.5,0.3,0.8,0.5c3.2,1.8,6.7,3,11.1,3c5.1,0,8.8-2.2,10.8-4.7
			c0.2-0.3,0.4-0.5,0.6-0.8c0.6-0.8,1-1.6,1.2-2.4c1.3-4.7-4.8-8.4-14.1-5.1C17.4,42.2,9.3,42.5,9.3,42.5z"/>
		
			<radialGradient id="SVGID_26_" cx="44.6879" cy="48.0965" r="14.947" gradientTransform="matrix(-1 0 0 1 71.0978 0)" gradientUnits="userSpaceOnUse">
			<stop  offset="9.139780e-02" style="stop-color:#FFC04C"/>
			<stop  offset="0.371" style="stop-color:#FF9A00"/>
			<stop  offset="0.5915" style="stop-color:#CE6C0D"/>
			<stop  offset="0.7967" style="stop-color:#943014"/>
			<stop  offset="0.8978" style="stop-color:#7D1717"/>
			<stop  offset="1" style="stop-color:#FF9A00"/>
		</radialGradient>
		<path class="st25" d="M10.6,43c0.7,0.4,1.4,0.7,2.1,1c4.2,1.9,8.9,2.9,15.5,2.5c5.8-0.4,9.7-2.1,11.1-3.8c0.4-0.5,0.6-1.1,0.6-1.6
			c-0.2-2.4-5.7-4-13.2-1.5C16.5,42.9,10.6,43,10.6,43z"/>
		
			<radialGradient id="SVGID_27_" cx="45.2853" cy="52.4101" r="17.7113" gradientTransform="matrix(-1 0 0 1 71.0978 0)" gradientUnits="userSpaceOnUse">
			<stop  offset="9.139780e-02" style="stop-color:#FFC04C"/>
			<stop  offset="0.371" style="stop-color:#FF9A00"/>
			<stop  offset="0.5915" style="stop-color:#CE6C0D"/>
			<stop  offset="0.7967" style="stop-color:#943014"/>
			<stop  offset="0.8978" style="stop-color:#7D1717"/>
			<stop  offset="1" style="stop-color:#FF9A00"/>
		</radialGradient>
		<path class="st26" d="M12.7,44.1c4.2,1.9,8.9,2.9,15.5,2.5c5.8-0.4,9.7-2.1,11.1-3.8c0-0.1,0-0.2,0-0.3c-0.2-2.4-5.7-4-13.2-1.5
			C19.9,42.9,15.3,43.7,12.7,44.1z"/>
	</g>
	<g>
		
			<radialGradient id="SVGID_28_" cx="44.7621" cy="42.8446" r="25.4215" gradientTransform="matrix(-1 0 0 1 71.0978 0)" gradientUnits="userSpaceOnUse">
			<stop  offset="9.139780e-02" style="stop-color:#FFC04C"/>
			<stop  offset="0.371" style="stop-color:#FF9A00"/>
			<stop  offset="0.5915" style="stop-color:#CE6C0D"/>
			<stop  offset="0.7967" style="stop-color:#943014"/>
			<stop  offset="0.8978" style="stop-color:#7D1717"/>
			<stop  offset="1" style="stop-color:#FF9A00"/>
		</radialGradient>
		<path class="st27" d="M11.9,44.8c0.2,0.2,0.4,0.3,0.6,0.5c11.2,4.6,26.6,3.2,28.8-3.3c0,0,0-0.1,0-0.1c0-0.1-0.1-0.3-0.1-0.4
			c0,0.2-0.1,0.3-0.1,0.5c-2.2,6.1-17.3,7.7-29,3C12.1,44.8,12,44.8,11.9,44.8z"/>
		
			<radialGradient id="SVGID_29_" cx="44.7621" cy="42.8446" r="25.4216" gradientTransform="matrix(-1 0 0 1 71.0978 0)" gradientUnits="userSpaceOnUse">
			<stop  offset="9.139780e-02" style="stop-color:#FFC04C"/>
			<stop  offset="0.371" style="stop-color:#FF9A00"/>
			<stop  offset="0.5915" style="stop-color:#CE6C0D"/>
			<stop  offset="0.7967" style="stop-color:#943014"/>
			<stop  offset="0.8978" style="stop-color:#7D1717"/>
			<stop  offset="1" style="stop-color:#FF9A00"/>
		</radialGradient>
		<path class="st28" d="M16.7,48.3c0.3,0.2,0.5,0.3,0.8,0.5c6,1.6,17,1.7,22-1.7c0.2-0.3,0.4-0.5,0.6-0.8
			C35.5,50.4,22.3,50.3,16.7,48.3z"/>
		<g>
			
				<radialGradient id="SVGID_30_" cx="44.7643" cy="42.8444" r="25.4172" gradientTransform="matrix(-1 0 0 1 71.0978 0)" gradientUnits="userSpaceOnUse">
				<stop  offset="9.139780e-02" style="stop-color:#FFC04C"/>
				<stop  offset="0.371" style="stop-color:#FF9A00"/>
				<stop  offset="0.5915" style="stop-color:#CE6C0D"/>
				<stop  offset="0.7967" style="stop-color:#943014"/>
				<stop  offset="0.8978" style="stop-color:#7D1717"/>
				<stop  offset="1" style="stop-color:#FF9A00"/>
			</radialGradient>
			<path class="st29" d="M15.2,47.2c0,0,0,0.1,0,0.1c0.1,0.1,0.2,0.1,0.3,0.2c0.2,0,0.3-0.1,0.3-0.3c0-0.2-0.1-0.3-0.3-0.3
				C15.3,46.8,15.2,47,15.2,47.2z"/>
			
				<radialGradient id="SVGID_31_" cx="44.7623" cy="42.8446" r="25.4213" gradientTransform="matrix(-1 0 0 1 71.0978 0)" gradientUnits="userSpaceOnUse">
				<stop  offset="9.139780e-02" style="stop-color:#FFC04C"/>
				<stop  offset="0.371" style="stop-color:#FF9A00"/>
				<stop  offset="0.5915" style="stop-color:#CE6C0D"/>
				<stop  offset="0.7967" style="stop-color:#943014"/>
				<stop  offset="0.8978" style="stop-color:#7D1717"/>
				<stop  offset="1" style="stop-color:#FF9A00"/>
			</radialGradient>
			<path class="st30" d="M17.3,48c0.2,0,0.4-0.2,0.4-0.4c0-0.2-0.2-0.4-0.4-0.4c-0.2,0-0.4,0.2-0.4,0.4C16.9,47.9,17.1,48,17.3,48z"
				/>
			
				<radialGradient id="SVGID_32_" cx="44.7618" cy="42.8444" r="25.4223" gradientTransform="matrix(-1 0 0 1 71.0978 0)" gradientUnits="userSpaceOnUse">
				<stop  offset="9.139780e-02" style="stop-color:#FFC04C"/>
				<stop  offset="0.371" style="stop-color:#FF9A00"/>
				<stop  offset="0.5915" style="stop-color:#CE6C0D"/>
				<stop  offset="0.7967" style="stop-color:#943014"/>
				<stop  offset="0.8978" style="stop-color:#7D1717"/>
				<stop  offset="1" style="stop-color:#FF9A00"/>
			</radialGradient>
			<path class="st31" d="M19,48.5c0.2,0,0.4-0.2,0.4-0.4c0-0.2-0.2-0.4-0.4-0.4c-0.2,0-0.4,0.2-0.4,0.4C18.6,48.3,18.8,48.5,19,48.5
				z"/>
			
				<radialGradient id="SVGID_33_" cx="44.7622" cy="42.8447" r="25.4212" gradientTransform="matrix(-1 0 0 1 71.0978 0)" gradientUnits="userSpaceOnUse">
				<stop  offset="9.139780e-02" style="stop-color:#FFC04C"/>
				<stop  offset="0.371" style="stop-color:#FF9A00"/>
				<stop  offset="0.5915" style="stop-color:#CE6C0D"/>
				<stop  offset="0.7967" style="stop-color:#943014"/>
				<stop  offset="0.8978" style="stop-color:#7D1717"/>
				<stop  offset="1" style="stop-color:#FF9A00"/>
			</radialGradient>
			<path class="st32" d="M20.8,48.8c0.2,0,0.4-0.2,0.4-0.4c0-0.2-0.2-0.4-0.4-0.4c-0.2,0-0.4,0.2-0.4,0.4
				C20.4,48.6,20.6,48.8,20.8,48.8z"/>
			
				<radialGradient id="SVGID_34_" cx="44.7628" cy="42.8444" r="25.4207" gradientTransform="matrix(-1 0 0 1 71.0978 0)" gradientUnits="userSpaceOnUse">
				<stop  offset="9.139780e-02" style="stop-color:#FFC04C"/>
				<stop  offset="0.371" style="stop-color:#FF9A00"/>
				<stop  offset="0.5915" style="stop-color:#CE6C0D"/>
				<stop  offset="0.7967" style="stop-color:#943014"/>
				<stop  offset="0.8978" style="stop-color:#7D1717"/>
				<stop  offset="1" style="stop-color:#FF9A00"/>
			</radialGradient>
			<path class="st33" d="M22.6,49c0.2,0,0.4-0.2,0.4-0.4c0-0.2-0.2-0.4-0.4-0.4c-0.2,0-0.4,0.2-0.4,0.4C22.2,48.8,22.4,49,22.6,49z"
				/>
			
				<radialGradient id="SVGID_35_" cx="44.7618" cy="42.8448" r="25.4213" gradientTransform="matrix(-1 0 0 1 71.0978 0)" gradientUnits="userSpaceOnUse">
				<stop  offset="9.139780e-02" style="stop-color:#FFC04C"/>
				<stop  offset="0.371" style="stop-color:#FF9A00"/>
				<stop  offset="0.5915" style="stop-color:#CE6C0D"/>
				<stop  offset="0.7967" style="stop-color:#943014"/>
				<stop  offset="0.8978" style="stop-color:#7D1717"/>
				<stop  offset="1" style="stop-color:#FF9A00"/>
			</radialGradient>
			<path class="st34" d="M24.5,49.1c0.2,0,0.4-0.2,0.4-0.4c0-0.2-0.2-0.4-0.4-0.4c-0.2,0-0.4,0.2-0.4,0.4
				C24,48.9,24.2,49.1,24.5,49.1z"/>
			
				<radialGradient id="SVGID_36_" cx="44.7622" cy="42.8444" r="25.4224" gradientTransform="matrix(-1 0 0 1 71.0978 0)" gradientUnits="userSpaceOnUse">
				<stop  offset="9.139780e-02" style="stop-color:#FFC04C"/>
				<stop  offset="0.371" style="stop-color:#FF9A00"/>
				<stop  offset="0.5915" style="stop-color:#CE6C0D"/>
				<stop  offset="0.7967" style="stop-color:#943014"/>
				<stop  offset="0.8978" style="stop-color:#7D1717"/>
				<stop  offset="1" style="stop-color:#FF9A00"/>
			</radialGradient>
			<path class="st35" d="M26.3,49.1c0.2,0,0.4-0.2,0.4-0.4c0-0.2-0.2-0.4-0.4-0.4c-0.2,0-0.4,0.2-0.4,0.4
				C25.9,48.9,26,49.1,26.3,49.1z"/>
			
				<radialGradient id="SVGID_37_" cx="44.762" cy="42.8445" r="25.422" gradientTransform="matrix(-1 0 0 1 71.0978 0)" gradientUnits="userSpaceOnUse">
				<stop  offset="9.139780e-02" style="stop-color:#FFC04C"/>
				<stop  offset="0.371" style="stop-color:#FF9A00"/>
				<stop  offset="0.5915" style="stop-color:#CE6C0D"/>
				<stop  offset="0.7967" style="stop-color:#943014"/>
				<stop  offset="0.8978" style="stop-color:#7D1717"/>
				<stop  offset="1" style="stop-color:#FF9A00"/>
			</radialGradient>
			<path class="st36" d="M28.1,49c0.2,0,0.4-0.2,0.4-0.4c0-0.2-0.2-0.4-0.4-0.4c-0.2,0-0.4,0.2-0.4,0.4C27.7,48.8,27.9,49,28.1,49z"
				/>
			
				<radialGradient id="SVGID_38_" cx="44.7629" cy="42.8447" r="25.4223" gradientTransform="matrix(-1 0 0 1 71.0978 0)" gradientUnits="userSpaceOnUse">
				<stop  offset="9.139780e-02" style="stop-color:#FFC04C"/>
				<stop  offset="0.371" style="stop-color:#FF9A00"/>
				<stop  offset="0.5915" style="stop-color:#CE6C0D"/>
				<stop  offset="0.7967" style="stop-color:#943014"/>
				<stop  offset="0.8978" style="stop-color:#7D1717"/>
				<stop  offset="1" style="stop-color:#FF9A00"/>
			</radialGradient>
			<path class="st37" d="M29.9,48.9c0.2,0,0.4-0.2,0.4-0.4c0-0.2-0.2-0.4-0.4-0.4c-0.2,0-0.4,0.2-0.4,0.4
				C29.5,48.7,29.7,48.9,29.9,48.9z"/>
			
				<radialGradient id="SVGID_39_" cx="44.7621" cy="42.8446" r="25.4216" gradientTransform="matrix(-1 0 0 1 71.0978 0)" gradientUnits="userSpaceOnUse">
				<stop  offset="9.139780e-02" style="stop-color:#FFC04C"/>
				<stop  offset="0.371" style="stop-color:#FF9A00"/>
				<stop  offset="0.5915" style="stop-color:#CE6C0D"/>
				<stop  offset="0.7967" style="stop-color:#943014"/>
				<stop  offset="0.8978" style="stop-color:#7D1717"/>
				<stop  offset="1" style="stop-color:#FF9A00"/>
			</radialGradient>
			<path class="st38" d="M31.7,48.7c0.2,0,0.4-0.2,0.4-0.4c0-0.2-0.2-0.4-0.4-0.4c-0.2,0-0.4,0.2-0.4,0.4
				C31.3,48.5,31.5,48.7,31.7,48.7z"/>
			
				<radialGradient id="SVGID_40_" cx="44.7622" cy="42.8445" r="25.4217" gradientTransform="matrix(-1 0 0 1 71.0978 0)" gradientUnits="userSpaceOnUse">
				<stop  offset="9.139780e-02" style="stop-color:#FFC04C"/>
				<stop  offset="0.371" style="stop-color:#FF9A00"/>
				<stop  offset="0.5915" style="stop-color:#CE6C0D"/>
				<stop  offset="0.7967" style="stop-color:#943014"/>
				<stop  offset="0.8978" style="stop-color:#7D1717"/>
				<stop  offset="1" style="stop-color:#FF9A00"/>
			</radialGradient>
			<path class="st39" d="M33.5,48.3c0.2,0,0.4-0.2,0.4-0.4c0-0.2-0.2-0.4-0.4-0.4c-0.2,0-0.4,0.2-0.4,0.4
				C33.1,48.1,33.3,48.3,33.5,48.3z"/>
			
				<radialGradient id="SVGID_41_" cx="44.7607" cy="42.8447" r="25.4184" gradientTransform="matrix(-1 0 0 1 71.0978 0)" gradientUnits="userSpaceOnUse">
				<stop  offset="9.139780e-02" style="stop-color:#FFC04C"/>
				<stop  offset="0.371" style="stop-color:#FF9A00"/>
				<stop  offset="0.5915" style="stop-color:#CE6C0D"/>
				<stop  offset="0.7967" style="stop-color:#943014"/>
				<stop  offset="0.8978" style="stop-color:#7D1717"/>
				<stop  offset="1" style="stop-color:#FF9A00"/>
			</radialGradient>
			<path class="st40" d="M35.3,47.9c0.2,0,0.4-0.2,0.4-0.4c0-0.2-0.2-0.4-0.4-0.4c-0.2,0-0.4,0.2-0.4,0.4
				C34.9,47.7,35.1,47.9,35.3,47.9z"/>
			
				<radialGradient id="SVGID_42_" cx="44.7643" cy="42.8446" r="25.4259" gradientTransform="matrix(-1 0 0 1 71.0978 0)" gradientUnits="userSpaceOnUse">
				<stop  offset="9.139780e-02" style="stop-color:#FFC04C"/>
				<stop  offset="0.371" style="stop-color:#FF9A00"/>
				<stop  offset="0.5915" style="stop-color:#CE6C0D"/>
				<stop  offset="0.7967" style="stop-color:#943014"/>
				<stop  offset="0.8978" style="stop-color:#7D1717"/>
				<stop  offset="1" style="stop-color:#FF9A00"/>
			</radialGradient>
			<path class="st41" d="M37,47.3c0.2,0,0.4-0.2,0.4-0.4c0-0.2-0.2-0.4-0.4-0.4c-0.2,0-0.4,0.2-0.4,0.4C36.6,47.1,36.8,47.3,37,47.3
				z"/>
			
				<radialGradient id="SVGID_43_" cx="44.7596" cy="42.8448" r="25.417" gradientTransform="matrix(-1 0 0 1 71.0978 0)" gradientUnits="userSpaceOnUse">
				<stop  offset="9.139780e-02" style="stop-color:#FFC04C"/>
				<stop  offset="0.371" style="stop-color:#FF9A00"/>
				<stop  offset="0.5915" style="stop-color:#CE6C0D"/>
				<stop  offset="0.7967" style="stop-color:#943014"/>
				<stop  offset="0.8978" style="stop-color:#7D1717"/>
				<stop  offset="1" style="stop-color:#FF9A00"/>
			</radialGradient>
			<path class="st42" d="M38.7,46.4c0.2,0,0.4-0.2,0.4-0.4c0-0.2-0.2-0.4-0.4-0.4c-0.2,0-0.4,0.2-0.4,0.4
				C38.3,46.2,38.4,46.4,38.7,46.4z"/>
			
				<radialGradient id="SVGID_44_" cx="44.7626" cy="42.8445" r="25.4223" gradientTransform="matrix(-1 0 0 1 71.0978 0)" gradientUnits="userSpaceOnUse">
				<stop  offset="9.139780e-02" style="stop-color:#FFC04C"/>
				<stop  offset="0.371" style="stop-color:#FF9A00"/>
				<stop  offset="0.5915" style="stop-color:#CE6C0D"/>
				<stop  offset="0.7967" style="stop-color:#943014"/>
				<stop  offset="0.8978" style="stop-color:#7D1717"/>
				<stop  offset="1" style="stop-color:#FF9A00"/>
			</radialGradient>
			<path class="st43" d="M40.1,45.3c0.2,0,0.4-0.2,0.4-0.4s-0.2-0.4-0.4-0.4c-0.2,0-0.4,0.2-0.4,0.4S39.9,45.3,40.1,45.3z"/>
			
				<radialGradient id="SVGID_45_" cx="44.7621" cy="42.8445" r="25.4218" gradientTransform="matrix(-1 0 0 1 71.0978 0)" gradientUnits="userSpaceOnUse">
				<stop  offset="9.139780e-02" style="stop-color:#FFC04C"/>
				<stop  offset="0.371" style="stop-color:#FF9A00"/>
				<stop  offset="0.5915" style="stop-color:#CE6C0D"/>
				<stop  offset="0.7967" style="stop-color:#943014"/>
				<stop  offset="0.8978" style="stop-color:#7D1717"/>
				<stop  offset="1" style="stop-color:#FF9A00"/>
			</radialGradient>
			<path class="st44" d="M41,43.6c0,0.2,0.1,0.3,0.3,0.3c0.1-0.2,0.1-0.5,0.2-0.7c0,0-0.1,0-0.1,0C41.1,43.2,41,43.4,41,43.6z"/>
		</g>
	</g>
	<g>
		
			<radialGradient id="SVGID_46_" cx="62.5107" cy="41.1631" r="8.8957" gradientTransform="matrix(-1 0 0 1 71.0978 0)" gradientUnits="userSpaceOnUse">
			<stop  offset="9.139780e-02" style="stop-color:#FFC04C"/>
			<stop  offset="0.371" style="stop-color:#FF9A00"/>
			<stop  offset="0.5915" style="stop-color:#CE6C0D"/>
			<stop  offset="0.7967" style="stop-color:#943014"/>
			<stop  offset="0.8978" style="stop-color:#7D1717"/>
			<stop  offset="1" style="stop-color:#FF9A00"/>
		</radialGradient>
		<path class="st45" d="M15.1,45c0.1,0,0.3-0.1,0.3-0.2c0-0.2,0-0.3-0.2-0.4c0,0-4-1.2-5.7-3c-0.1-0.1-0.3-0.1-0.4,0
			c-0.1,0.1-0.1,0.3,0,0.4C10.9,43.8,14.9,45,15.1,45C15,45,15.1,45,15.1,45z"/>
		
			<image style="overflow:visible;" width="32" height="88" xlink:href="9AED2D8D.png"  transform="matrix(0.24 0 0 0.24 5.5218 21.5551)">
		</image>
	</g>
</g>
<g>
	<path class="st46" d="M201.3,17.8c-9.3,0-16.8,7.6-16.8,16.9c0,9,7.2,16.5,16.1,16.8c0.1-1.8,0.2-3.2,0.2-4.2c0.1-5.5-2-6.4-2-6.4
		c-5.2-4.5-2.5-11-2.2-12.2c0.3-1.2,4.5-12.5,9.6-3c5,9.6-1.2,15-1.3,15c-2.8,1.6-2.3,4.6-2.3,6.7c0,0.4,0.1,1.9,0.2,3.9
		c8.7-0.7,15.6-8,15.6-16.8C218.3,25.4,210.6,17.8,201.3,17.8L201.3,17.8z"/>
	<path class="st47" d="M167.6,17.8c-9.3,0-16.9,7.6-16.9,16.9c0,8.3,6.1,15.2,14.1,16.6c-0.1-3.7-0.1-6.3-0.1-6.3
		c-2.9-14.5-0.2-20.5,1.6-22c1.8-1.4,2.2,0,2.2,0l-0.2,20.2c0,0-0.3,1.4-0.4,1.9c-0.2,1-0.2,3.4-0.1,6.4c9.1-0.1,16.6-7.6,16.6-16.8
		C184.4,25.4,176.9,17.8,167.6,17.8L167.6,17.8z"/>
	<path class="st48" d="M133.7,17.8c-9.3,0-16.8,7.6-16.8,16.9c0,9.1,7.3,16.6,16.4,16.8c0.1-3.4,0-6.1-0.3-7.2c0,0-0.2-2.1-2.1-3.9
		c0,0-1.7-2.4-1.2-5.5l1.1-11.8c0,0,0.4-0.4,0.5,0l0.1,10.6c0,0,0,0.5,0.5,0.5c0.5,0,0.4-0.4,0.3-0.5c0-0.2,0.4-10.7,0.4-10.7
		s0.4-0.4,0.5,0l0.3,10.5c0,0,0,0.6,0.5,0.6c0,0,0.4-0.1,0.3-0.8c-0.1-0.6,0-10.3,0-10.3s0.3-0.4,0.4-0.1l0.7,10.6
		c0,0,0,0.5,0.4,0.5c0.5,0,0.4-0.4,0.4-0.7c0.1-0.3-0.2-10.3-0.2-10.3s0.3-0.4,0.5-0.1l1.2,9.4c0,0,0.4,4.7-0.5,6.8
		c-0.1,0.4-0.8,1.4-1.1,1.6c-1.2,1.2-1.4,2.6-1.4,3.5c0,0.3,0.2,3.2,0.4,7.3c8.7-0.7,15.5-8,15.5-16.8
		C150.7,25.4,143.1,17.8,133.7,17.8L133.7,17.8z"/>
	<rect x="6" y="82.1" class="st48" width="212.3" height="2.6"/>
	<rect x="6" y="51.4" class="st48" width="212.3" height="2.5"/>
	<path class="st49" d="M6,63.8h1.8v2.1c0.5-0.8,1.1-1.4,1.7-1.8c0.6-0.4,1.2-0.5,1.9-0.5c0.4,0,1,0.1,1.5,0.4L12,65.5
		c-0.4-0.2-0.7-0.2-1-0.2c-0.5,0-1.1,0.2-1.6,0.7c-0.6,0.4-1,1.2-1.3,2.1c-0.3,0.8-0.4,2.3-0.4,4.7v4.6H6V63.8z M25.8,73l1.5,0.7
		c-0.5,1-1.1,1.7-1.7,2.3c-0.6,0.5-1.3,1-2.1,1.3c-0.8,0.3-1.7,0.4-2.7,0.4c-2.2,0-3.9-0.7-5.2-2.2c-1.3-1.4-1.9-3-1.9-4.8
		s0.5-3.3,1.6-4.7c1.3-1.7,3.1-2.5,5.4-2.5c2.3,0,4.2,0.9,5.6,2.6c1,1.3,1.5,2.8,1.5,4.7H15.5c0,1.5,0.5,2.9,1.5,3.8
		c1,1,2.1,1.5,3.6,1.5c0.7,0,1.4-0.2,2.1-0.4c0.6-0.3,1.2-0.6,1.7-1C24.8,74.5,25.2,73.9,25.8,73L25.8,73z M25.8,69.3
		c-0.2-1-0.5-1.7-1-2.2c-0.4-0.5-1.1-1-1.8-1.3c-0.7-0.4-1.5-0.5-2.3-0.5c-1.3,0-2.5,0.4-3.4,1.3c-0.7,0.6-1.3,1.5-1.6,2.8H25.8z
		 M37.8,65.4l-1.1,1.2c-1-0.9-1.9-1.3-2.8-1.3c-0.5,0-1.1,0.2-1.4,0.5c-0.4,0.4-0.6,0.8-0.6,1.3c0,0.4,0.2,0.8,0.5,1.3
		c0.3,0.4,1,0.8,2.1,1.4c1.3,0.6,2.1,1.3,2.6,1.9c0.5,0.6,0.7,1.3,0.7,2.1c0,1.2-0.4,2.1-1.2,2.9c-0.8,0.7-1.8,1.2-3,1.2
		c-0.8,0-1.5-0.2-2.2-0.5c-0.7-0.4-1.3-0.8-1.8-1.4l1.2-1.3c0.9,1,1.8,1.5,2.8,1.5c0.7,0,1.3-0.2,1.8-0.6c0.5-0.4,0.8-1,0.8-1.6
		c0-0.5-0.2-1-0.5-1.3c-0.3-0.4-1.1-0.9-2.1-1.4c-1.3-0.6-2.1-1.3-2.5-1.9c-0.4-0.6-0.7-1.3-0.7-2.1c0-1.1,0.4-1.9,1.1-2.6
		c0.7-0.6,1.6-1,2.7-1C35.3,63.6,36.5,64.1,37.8,65.4L37.8,65.4z M42.3,58.8h1.8v5h2.7v1.5h-2.7v12.1h-1.8V65.4H40v-1.5h2.3V58.8z
		 M63,63.8v13.6h-1.7v-2.3c-0.8,0.9-1.6,1.5-2.5,2c-0.9,0.4-1.9,0.7-3,0.7c-2,0-3.6-0.7-4.9-2.1c-1.3-1.3-2.1-3-2.1-5s0.7-3.7,2.1-5
		c1.3-1.4,3-2.1,4.9-2.1c1.2,0,2.1,0.2,3,0.7c0.9,0.4,1.7,1.2,2.4,2.1v-2.5H63z M56,65.3c-1,0-1.9,0.2-2.7,0.7c-0.8,0.4-1.5,1.1-2,2
		c-0.4,0.8-0.7,1.8-0.7,2.7c0,1,0.3,1.9,0.7,2.8c0.5,0.9,1.2,1.5,2,2.1c0.8,0.4,1.7,0.7,2.7,0.7c0.9,0,1.8-0.3,2.7-0.7
		c0.9-0.5,1.5-1.2,2-2c0.4-0.8,0.7-1.8,0.7-2.8c0-1.6-0.5-2.9-1.6-3.9C58.8,65.7,57.5,65.3,56,65.3L56,65.3z M66.7,63.8h1.8v6.4
		c0,1.5,0.1,2.6,0.3,3.2c0.2,0.8,0.7,1.4,1.4,2c0.6,0.4,1.5,0.7,2.5,0.7c1,0,1.8-0.3,2.4-0.7c0.7-0.4,1.2-1.1,1.4-1.9
		c0.2-0.5,0.3-1.6,0.3-3.3v-6.4h1.8v6.7c0,1.9-0.2,3.2-0.6,4.2c-0.4,0.9-1.2,1.7-2,2.2c-0.9,0.5-2,0.8-3.3,0.8
		c-1.3,0-2.4-0.3-3.3-0.8c-0.9-0.5-1.5-1.3-2-2.2c-0.4-1-0.7-2.4-0.7-4.4V63.8z M81.8,63.8h1.8v2.1c0.5-0.8,1.1-1.4,1.7-1.8
		c0.5-0.4,1.2-0.5,1.8-0.5c0.5,0,1.1,0.1,1.6,0.4l-1,1.4c-0.4-0.2-0.6-0.2-0.9-0.2c-0.5,0-1.2,0.2-1.7,0.7c-0.5,0.4-0.9,1.2-1.3,2.1
		c-0.2,0.8-0.3,2.3-0.3,4.7v4.6h-1.8V63.8z M103.7,63.8v13.6H102v-2.3c-0.8,0.9-1.6,1.5-2.5,2c-0.9,0.4-1.9,0.7-3,0.7
		c-2,0-3.6-0.7-4.9-2.1c-1.3-1.3-2.1-3-2.1-5s0.7-3.7,2.1-5c1.4-1.4,3-2.1,4.9-2.1c1.2,0,2.1,0.2,3,0.7c0.9,0.4,1.7,1.2,2.4,2.1
		v-2.5H103.7z M96.7,65.3c-1,0-1.9,0.2-2.7,0.7c-0.8,0.4-1.4,1.1-2,2c-0.4,0.8-0.7,1.8-0.7,2.7c0,1,0.3,1.9,0.7,2.8
		c0.5,0.9,1.2,1.5,2,2.1c0.8,0.4,1.7,0.7,2.7,0.7c0.9,0,1.9-0.3,2.7-0.7c0.9-0.5,1.5-1.2,2-2s0.7-1.8,0.7-2.8c0-1.6-0.5-2.9-1.6-3.9
		C99.4,65.7,98.2,65.3,96.7,65.3L96.7,65.3z M107.6,63.8h1.7v2.5c0.7-1,1.5-1.7,2.3-2.1c0.9-0.4,1.8-0.6,2.8-0.6
		c1.1,0,2,0.3,2.8,0.7c0.7,0.5,1.3,1.3,1.7,2.1c0.4,0.8,0.5,2.1,0.5,4v7h-1.7V71c0-1.6-0.1-2.6-0.2-3.1c-0.3-0.9-0.6-1.6-1.2-2.1
		c-0.6-0.4-1.3-0.6-2.3-0.6c-1,0-2,0.4-2.8,1c-0.9,0.7-1.4,1.6-1.7,2.6c-0.2,0.7-0.3,2-0.3,3.7v5h-1.7V63.8z M124.7,58.8h1.7v5h2.8
		v1.5h-2.8v12.1h-1.7V65.4h-2.4v-1.5h2.4V58.8z M132.9,58.3c0.6,0,1.1,0.3,1.5,0.6c0.4,0.4,0.6,1,0.6,1.6c0,0.6-0.2,1.1-0.6,1.5
		c-0.4,0.4-0.9,0.6-1.5,0.6c-0.5,0-1.1-0.2-1.5-0.6c-0.4-0.4-0.6-1-0.6-1.6c0-0.5,0.2-1.1,0.6-1.5C131.9,58.6,132.3,58.3,132.9,58.3
		L132.9,58.3z M131.2,63.8h3.4v13.6h-3.4V63.8z M137.7,63.8h3.4v1.4c0.8-0.6,1.5-1.1,2.1-1.3c0.6-0.3,1.3-0.4,1.9-0.4
		c1.3,0,2.5,0.4,3.5,1.3c0.7,0.8,1.2,2.1,1.2,3.6v9h-3.4v-5.9c0-1.6-0.1-2.7-0.2-3.2c-0.2-0.5-0.4-1-0.8-1.3
		c-0.4-0.3-0.8-0.4-1.3-0.4c-0.6,0-1.3,0.2-1.8,0.6c-0.4,0.4-0.8,1.1-1,2c-0.1,0.4-0.2,1.3-0.2,2.7v5.5h-3.4V63.8z M163.1,58.7h3.4
		v18.8h-3.4V76c-0.7,0.6-1.3,1.1-2.1,1.3c-0.6,0.3-1.3,0.4-2.1,0.4c-1.8,0-3.2-0.7-4.6-2.1c-1.3-1.3-1.9-3-1.9-5.1s0.6-3.8,1.9-5.1
		c1.2-1.3,2.7-2,4.5-2c0.8,0,1.6,0.1,2.3,0.4c0.7,0.3,1.3,0.7,2,1.3V58.7z M159.5,66.7c-1.1,0-2,0.4-2.7,1.1c-0.6,0.7-1,1.7-1,2.9
		s0.4,2.1,1.1,2.9c0.7,0.8,1.5,1.2,2.6,1.2c1.1,0,2-0.4,2.7-1.2c0.6-0.7,1-1.7,1-2.9s-0.4-2.1-1-2.9
		C161.5,67.1,160.6,66.7,159.5,66.7L159.5,66.7z M171.3,58.3c0.6,0,1.1,0.3,1.5,0.6c0.4,0.4,0.6,1,0.6,1.6c0,0.6-0.2,1.1-0.6,1.5
		c-0.4,0.4-0.9,0.6-1.5,0.6c-0.6,0-1.1-0.2-1.5-0.6s-0.6-1-0.6-1.6c0-0.5,0.2-1.1,0.6-1.5C170.2,58.6,170.6,58.3,171.3,58.3
		L171.3,58.3z M169.6,63.8h3.4v13.6h-3.4V63.8z M186,63.8h3.4v13.6H186V76c-0.6,0.6-1.3,1.1-2,1.3c-0.6,0.3-1.4,0.4-2.1,0.4
		c-1.8,0-3.3-0.7-4.6-2.1c-1.3-1.3-2-3-2-5.1s0.6-3.8,1.9-5.1c1.3-1.3,2.8-2,4.6-2c0.8,0,1.5,0.1,2.2,0.4c0.7,0.3,1.4,0.7,2,1.3
		V63.8z M182.4,66.7c-1,0-1.9,0.4-2.6,1.1c-0.7,0.7-1.1,1.7-1.1,2.9s0.4,2.1,1.1,2.9c0.7,0.8,1.6,1.2,2.7,1.2c1,0,1.9-0.4,2.6-1.2
		c0.7-0.7,1.1-1.7,1.1-2.9s-0.4-2.1-1.1-2.9C184.4,67.1,183.5,66.7,182.4,66.7L182.4,66.7z M194.7,73.9c0.5,0,1,0.2,1.4,0.5
		c0.4,0.4,0.5,0.9,0.5,1.4s-0.2,1-0.5,1.3c-0.4,0.4-0.9,0.6-1.4,0.6c-0.5,0-1-0.3-1.3-0.6s-0.6-0.8-0.6-1.3s0.3-1,0.6-1.4
		C193.7,74.1,194.2,73.9,194.7,73.9L194.7,73.9z M201.3,58.3c0.6,0,1.2,0.3,1.6,0.6c0.4,0.4,0.6,1,0.6,1.6c0,0.6-0.3,1.1-0.6,1.5
		c-0.4,0.4-1,0.6-1.5,0.6c-0.6,0-1.2-0.2-1.6-0.6c-0.4-0.4-0.6-1-0.6-1.6c0-0.5,0.3-1.1,0.6-1.5C200.3,58.6,200.8,58.3,201.3,58.3
		L201.3,58.3z M199.6,63.8h3.4v13.6h-3.4V63.8z M206.2,63.8h3.4v1.4c0.7-0.6,1.4-1.1,2.1-1.3c0.6-0.3,1.3-0.4,2-0.4
		c1.3,0,2.4,0.4,3.4,1.3c0.8,0.8,1.2,2.1,1.2,3.6v9h-3.4v-5.9c0-1.6,0-2.7-0.2-3.2c-0.2-0.5-0.4-1-0.7-1.3c-0.4-0.3-0.8-0.4-1.3-0.4
		c-0.7,0-1.3,0.2-1.8,0.6c-0.5,0.4-0.8,1.1-1.1,2c-0.1,0.4-0.1,1.3-0.1,2.7v5.5h-3.4V63.8z"/>
</g>
<path class="st46" d="M107.3,24.7c-0.2,0.1-0.4,0.2-0.5,0.3c-0.1,0.2-0.2,0.4-0.1,0.6c0.5,0.2,1,0,1.4-0.2c1-0.3,2-0.4,3-0.5
	c0.4,0,0.9-0.1,1.2-0.5C111.3,23.6,108.4,24.3,107.3,24.7z"/>
<path class="st46" d="M108.1,8.6c-0.2-0.2-0.5-0.5-0.6-0.8c0-0.1-0.1-0.2,0-0.3c0-0.2,0.2-0.2,0.4-0.2c0.2,0,0.3,0.1,0.4,0.3
	c1.1,1,2.2,2,3.3,3c0.3,0.3,0.2,0.7-0.3,0.7c-0.2,0-0.7-0.6-0.9-0.7C109.6,9.9,108.8,9.3,108.1,8.6z"/>
<path class="st46" d="M143.9,2.1c0.2-0.3,0.5-0.6,0.8-0.6c0.1,0.5-0.2,1-0.4,1.5c-0.4,0.8-0.7,1.5-1.2,2.3c-0.2,0.4-0.5,0.8-1,0.9
	C141.9,5.1,143.3,3.1,143.9,2.1z"/>
<path class="st46" d="M157.3,14.6c0.1,0,0.2,0,0.3,0.1c0.1,0.1-0.1,0.3-0.2,0.4c-0.5,0.4-1.2,0.6-1.8,0.7c-1.2,0.2-2.5,0.5-3.7,0.4
	c-0.1-0.4,0.2-0.8,0.5-0.9c0.6-0.2,1.5-0.3,2.2-0.5C155.5,14.6,156.4,14.5,157.3,14.6z"/>
<path class="st46" d="M143.3,9.8c0.4-0.6,0.8-1.3,1.4-1.7c0.2-0.1,0.4-0.2,0.5-0.1c0.3,0.1,0.3,0.5,0.2,0.8c-0.2,0.6-0.6,1.1-1,1.6
	c-1,1.2-2,2.5-3,3.7c-0.1,0.1,0-0.8,0-0.9c0.1-0.3,0.3-0.6,0.5-0.8C142.3,11.5,142.8,10.7,143.3,9.8z"/>
<path class="st46" d="M221.2,23.6c0.7-0.3,1.3-0.7,2.1-0.7c0.2,0,0.4,0,0.5,0.2c0.2,0.2-0.1,0.6-0.3,0.7c-0.5,0.4-1.1,0.6-1.7,0.8
	c-1.5,0.5-3,1-4.6,1.4c-0.1,0,0.4-0.7,0.5-0.8c0.2-0.2,0.6-0.3,0.8-0.4C219.5,24.5,220.3,24.1,221.2,23.6z"/>
<path class="st46" d="M217.8,18.2c0.5-0.5,1.1-1.1,1.8-1.3c0.2-0.1,0.4-0.1,0.6,0c0.2,0.2,0.1,0.5,0,0.8c-0.3,0.5-0.9,0.9-1.4,1.3
	c-1.3,0.9-2.6,1.9-3.9,2.8c-0.1,0.1,0.2-0.8,0.2-0.9c0.2-0.2,0.5-0.5,0.7-0.7C216.4,19.6,217.1,18.9,217.8,18.2z"/>
<path class="st46" d="M210.2,13.7c0.3-0.7,0.5-1.4,1.1-1.9c0.1-0.1,0.3-0.2,0.5-0.2c0.3,0.1,0.3,0.5,0.3,0.7
	c-0.1,0.6-0.4,1.2-0.7,1.7c-0.8,1.4-1.6,2.7-2.4,4.1c-0.1,0.1-0.2-0.8-0.1-0.9c0-0.3,0.2-0.6,0.3-0.9
	C209.5,15.6,209.8,14.6,210.2,13.7z"/>
<path class="st46" d="M193,13.4c-0.4-0.6-0.8-1.3-0.8-2c0-0.2,0-0.4,0.2-0.5c0.2-0.2,0.6,0,0.8,0.2c0.4,0.5,0.7,1.1,0.9,1.6
	c0.6,1.5,1.2,2.9,1.8,4.4c0.1,0.1-0.7-0.4-0.8-0.4c-0.2-0.2-0.3-0.6-0.5-0.8C194,15.1,193.5,14.3,193,13.4z"/>
<path class="st46" d="M186.6,19.1c-0.5-0.5-1-1-1.2-1.6c-0.1-0.2-0.1-0.4,0-0.5c0.2-0.2,0.5-0.1,0.7,0c0.5,0.3,0.8,0.8,1.2,1.3
	c0.9,1.2,1.7,2.3,2.6,3.5c0.1,0.1-0.7-0.2-0.8-0.2c-0.2-0.1-0.4-0.4-0.6-0.6C187.9,20.3,187.2,19.7,186.6,19.1z"/>
<path class="st46" d="M182.1,23.6c-0.5-0.5-1.1-1-1.4-1.7c-0.1-0.2-0.1-0.4,0-0.6c0.2-0.2,0.5-0.2,0.8,0c0.5,0.3,0.9,0.8,1.3,1.3
	c1,1.2,2,2.5,3,3.7c0.1,0.1-0.8-0.1-0.9-0.2c-0.3-0.1-0.5-0.4-0.7-0.6C183.5,24.9,182.8,24.2,182.1,23.6z"/>
<path class="st46" d="M200.8,12c0-0.7-0.1-1.5,0.2-2.2c0.1-0.2,0.2-0.4,0.4-0.4c0.3,0,0.5,0.3,0.6,0.6c0.2,0.6,0.1,1.3,0,1.9
	c-0.2,1.6-0.3,3.2-0.5,4.8c0,0.1-0.5-0.7-0.5-0.8c-0.1-0.3,0-0.6,0-0.9C200.9,13.9,200.8,13,200.8,12z"/>
<path class="st46" d="M119.1,1.6c0-0.1,0-0.2,0-0.2c0.1-0.1,0.3-0.1,0.4,0c0.1,0.1,0.2,0.2,0.2,0.4c0.6,1.6,1.3,3.3,1.6,4.9
	C120.2,5.2,119.2,3.4,119.1,1.6z"/>
<g>
	<path class="st48" d="M155.8,17.4c0.2,0,0.3,0.1,0.4,0.2c0.1,0.2-0.1,0.5-0.3,0.6c-0.5,0.3-1.1,0.4-1.7,0.5
		c-1.5,0.2-2.9,0.5-4.4,0.7c0.1-0.7,1.8-1.2,2.4-1.5C153.5,17.4,154.7,17.2,155.8,17.4z"/>
	<path class="st48" d="M130.4,2.9c-0.1-0.7-0.2-1.5,0.1-2.2c0.1-0.2,0.2-0.5,0.5-0.5c0.3-0.1,0.6,0.1,0.8,0.4
		c0.1,0.3,0.1,0.6,0.1,0.9c0,1.8-0.1,3.6-0.3,5.3c0,0,0,0.1,0,0.1c-0.3,0.5-0.7-1.3-0.7-1.4C130.7,4.6,130.5,3.8,130.4,2.9z"/>
	<path class="st48" d="M151.2,9.3c0.9-0.3,1.9-0.5,2.6-1.2c0.1-0.1,0.3-0.3,0.2-0.5c0-0.1-0.1-0.2-0.1-0.2c-0.3-0.4-0.9-0.6-1.4-0.6
		c-0.5,0-1,0.2-1.5,0.4c-0.9,0.4-3.5,1.6-3.1,3C148.1,11.4,150.4,9.6,151.2,9.3z"/>
	<path class="st48" d="M101.8,17.4c-0.2,0-0.4,0-0.5,0.1c-0.7,0.2-1.1,1.3-0.6,1.9c0.3,0.4,0.7,0.6,1.1,0.6c0.4,0.1,0.9,0,1.3-0.1
		c0.9-0.1,1.8-0.3,2.7-0.4c1.6-0.2,0.5-1.6-0.5-2C104.4,17,102.9,17.3,101.8,17.4z"/>
	<path class="st48" d="M113.4,10.4c0.1,0.2,0.2,0.3,0.3,0.4c0.9,0.9,1.8,1.8,2.6,2.7c0.3-0.2,0.3-0.6,0.3-0.9c0-0.3-0.2-0.6-0.3-0.9
		c-0.3-0.7-0.8-2.7-1.6-3.1C113.9,8.2,113,9.5,113.4,10.4z"/>
	<path class="st48" d="M119.9,15.5c0,0.4,0.2,0.8,0.4,1.2c0.6,1.2,1.5,2.3,2.4,3.2c0.2,0.2,0.4,0.3,0.6,0.2c0.1-0.5-0.1-1.1-0.2-1.6
		c-0.2-0.7-0.4-1.5-0.6-2.2c-0.2-0.7-0.4-1.8-1.2-2.1C120.6,14,119.8,14.7,119.9,15.5z"/>
	<path class="st48" d="M128,8.5c0.4,0.8,0.7,1.6,1.1,2.4c0.1,0.2,0.2,0.4,0.4,0.3c0.1,0,0.1-0.1,0.1-0.1c0.2-0.2,0.3-0.6,0.3-0.9
		c0-0.3-0.1-0.6-0.1-0.8c-0.2-1.1-0.5-2.1-0.7-3.2c-0.2-0.7-0.8-1.1-1.3-0.5C127.1,6.5,127.6,7.8,128,8.5z"/>
	<path class="st48" d="M132.6,10.1c0,1.3,0.1,2.5,0.2,3.8c0,0.5,0.1,1,0.5,1.2c0.1,0,0.1,0.1,0.2,0c0.1,0,0.1-0.1,0.2-0.2
		c0.5-0.9,0.5-1.9,0.5-3c0-0.8,0.5-3.3-0.2-3.8C132.8,7.3,132.6,9.5,132.6,10.1z"/>
	<path class="st48" d="M146.2,16.7c0.2,0,0.4-0.2,0.5-0.3c1.5-1.1,3-2.2,4-3.7c0.1-0.2,0.3-0.4,0.3-0.7c0-0.3-0.1-0.5-0.3-0.7
		c-0.2-0.1-0.3-0.1-0.5,0c-0.9,0.1-1.7,0.7-2.3,1.4C147.5,13.1,144.6,17.1,146.2,16.7z"/>
	<path class="st48" d="M111,17.4c-0.4-0.3-0.8-0.6-0.9-1c-0.2-0.4-0.1-1,0.3-1.2c0.4-0.2,1,0.1,1.4,0.4c1.3,1,3.5,2.9,3.8,4.6
		C114.5,20.5,111.8,18,111,17.4z"/>
	<path class="st48" d="M105.1,32.9c-0.4,0.2-0.8,0.5-0.8,1c0,0.5,0.7,0.8,1.2,0.8c0.8,0,1.7-0.3,2.4-0.8c0.7-0.4,1.4-1,2.1-1.4
		c0.4-0.3,1.1-0.5,1.4-0.8c-0.5-0.6-2.3,0-3,0.1C107.2,32,106.1,32.3,105.1,32.9z"/>
</g>
</svg>
